<svg width="321" height="289" fill="none" xmlns="http://www.w3.org/2000/svg"><g clip-path="url(#clip0)"><path fill="#FEE6C1" d="M32.2.8h256v256h-256z"/><path d="M32.2 224.8h32v32h-32v-32zM32.2 96.8h32v32h-32v-32zM32.2 160.8h32v32h-32v-32zM32.2 32.8h32v32h-32v-32zM64.2 192.8h32v32h-32v-32zM64.2 64.8h32v32h-32v-32zM64.2 128.8h32v32h-32v-32zM64.2.8h32v32h-32V.8zM160.2 224.8h32v32h-32v-32zM160.2 96.8h32v32h-32v-32zM160.2 160.8h32v32h-32v-32zM160.2 32.8h32v32h-32v-32zM192.2 192.8h32v32h-32v-32zM192.2 64.8h32v32h-32v-32zM192.2 128.8h32v32h-32v-32zM192.2.8h32v32h-32V.8zM96.2 224.8h32v32h-32v-32zM96.2 96.8h32v32h-32v-32zM96.2 160.8h32v32h-32v-32zM96.2 32.8h32v32h-32v-32zM128.2 192.8h32v32h-32v-32zM128.2 64.8h32v32h-32v-32zM128.2 128.8h32v32h-32v-32zM128.2.8h32v32h-32V.8zM224.2 224.8h32v32h-32v-32zM224.2 96.8h32v32h-32v-32zM224.2 160.8h32v32h-32v-32zM224.2 32.8h32v32h-32v-32zM256.2 192.8h32v32h-32v-32zM256.2 64.8h32v32h-32v-32zM256.2 128.8h32v32h-32v-32zM256.2.8h32v32h-32V.8z" fill="#866C4A"/><path d="M13.6 238.2v-2.6H18v11.7h-2.8v-9.1h-1.6zM12.2 213.1l.5-.4a59 59 0 004-3.8c.4-.7.6-1.2.6-1.8 0-.5 0-.8-.3-1-.2-.3-.5-.4-.9-.4s-.7.1-1 .4c-.2.3-.3.8-.3 1.3h-2.6c0-.9.2-1.6.6-2.2.3-.7.8-1.1 1.4-1.4.6-.3 1.3-.4 2-.4 1.3 0 2.3.3 3 1 .6.6.9 1.5.9 2.5a5 5 0 01-1.2 3.2c-.8 1-1.8 1.9-3 2.8h4.4v2.3h-8v-2zM12.1 175c0-1.2.5-2 1.2-2.7.7-.6 1.6-1 2.8-1 .8 0 1.5.2 2 .5a3 3 0 011.8 2.7c0 .7-.2 1.3-.5 1.8l-1.2.9c.6.2 1 .6 1.4 1 .4.5.5 1.1.5 1.8s-.1 1.3-.4 1.8a3 3 0 01-1.4 1.2c-.5.3-1.2.4-2 .4-1.3 0-2.3-.3-3.1-1-.8-.6-1.2-1.5-1.2-2.8h2.7c0 .5.1.9.4 1.1.2.3.6.4 1 .4.5 0 .8 0 1-.3.3-.3.4-.6.4-1 0-.5-.2-.9-.5-1-.3-.3-.8-.4-1.6-.4H15V176h.5c.6 0 1 0 1.4-.2.3-.2.5-.6.5-1s-.1-.7-.4-1l-.8-.2c-.4 0-.7 0-1 .3-.1.3-.3.6-.3 1h-2.7zM11.5 149.2V147l5.1-7.2h3v7H21v2.4h-1.3v2.1h-2.8v-2h-5.4zm5.6-6.4l-2.7 4h2.7v-4zM20 109h-5v2.2c.1-.2.4-.4.8-.5.4-.2.8-.3 1.3-.3.8 0 1.4.2 2 .6.5.3.9.8 1.1 1.4.3.6.4 1.2.4 1.9 0 1.2-.4 2.2-1 3a4 4 0 01-3 1c-.9 0-1.6-.1-2.3-.4-.6-.3-1-.7-1.4-1.2-.4-.6-.6-1.2-.6-1.9H15c0 .4.2.7.4.9.3.2.6.3 1 .3.6 0 1-.2 1.2-.5.2-.3.3-.7.3-1.3 0-.5 0-.9-.3-1.2-.3-.2-.7-.4-1.2-.4l-.9.3-.4.7h-2.7v-7H20v2.4zM17.6 77.8c-.1-.4-.3-.7-.5-.9-.2-.2-.5-.3-.9-.3-.6 0-1 .3-1.3.8a6 6 0 00-.4 2.5c.2-.4.6-.7 1-.9.4-.2 1-.3 1.5-.3 1 0 1.8.3 2.5 1 .6.7 1 1.6 1 2.8 0 .7-.2 1.4-.5 2-.4.6-.8 1-1.4 1.4-.6.3-1.3.5-2.1.5-1.7 0-2.8-.5-3.5-1.6-.6-1-1-2.5-1-4.4a8 8 0 011-4.5c.8-1 1.8-1.5 3.3-1.5a4 4 0 012 .5c.6.3 1 .7 1.3 1.2.3.5.5 1 .5 1.7h-2.5zm-1.3 3c-.4 0-.8.2-1.1.5-.3.2-.5.6-.5 1.1 0 .5.1 1 .4 1.2.3.3.7.5 1.2.5s.9-.2 1.1-.5c.3-.2.5-.6.5-1.1 0-.5-.2-1-.4-1.2-.3-.3-.7-.4-1.2-.4zM20 44.7l-4 9.6h-2.7l4-9.3h-5v-2.3h7.8v2zM13.6 17c-1-.5-1.5-1.3-1.5-2.5a2.9 2.9 0 011.8-2.7c.6-.3 1.4-.4 2.3-.4.9 0 1.6.1 2.2.4.6.3 1 .7 1.4 1.2.3.4.4 1 .4 1.5 0 .6-.1 1.1-.4 1.5-.3.5-.6.8-1.1 1 .6.3 1 .7 1.3 1.2a3.4 3.4 0 01-1.7 5c-.6.2-1.3.3-2.1.3s-1.6-.1-2.2-.4c-.7-.3-1.2-.7-1.6-1.2-.4-.6-.6-1.3-.6-2s.2-1.2.5-1.7a3 3 0 011.3-1.2zm4-2c0-.5-.2-.8-.4-1-.3-.3-.6-.4-1-.4s-.8 0-1 .3c-.3.3-.4.6-.4 1 0 .5.1.8.4 1 .2.3.6.4 1 .4s.7-.1 1-.4c.2-.2.3-.5.3-1zm-1.4 3.2c-.5 0-1 .2-1.2.4-.4.3-.5.7-.5 1.2 0 .4.1.8.4 1 .3.4.8.5 1.3.5s.9-.1 1.2-.4c.3-.3.4-.7.4-1.1 0-.5-.1-.9-.4-1.2-.3-.2-.7-.4-1.2-.4zM273.3 269.8c1 0 1.8.3 2.4 1a4 4 0 011 2.8v5.2h-2.8V274c0-.6-.1-1-.4-1.4-.3-.4-.8-.5-1.3-.5s-1 .1-1.2.5a2 2 0 00-.5 1.4v4.8h-2.7V267h2.7v4a3 3 0 011.1-.9c.5-.2 1-.3 1.7-.3zM239.1 269.8c.7 0 1.2 0 1.7.3s.8.6 1 1V270h2.8v8.9c0 .8-.2 1.6-.5 2.2-.3.7-.8 1.2-1.5 1.6-.6.4-1.5.6-2.4.6-1.4 0-2.4-.3-3.3-1a3.5 3.5 0 01-1.4-2.5h2.7c.1.4.3.7.6.8l1.2.3c.6 0 1-.1 1.4-.4.3-.4.5-.9.5-1.6v-1.3a3 3 0 01-2.8 1.4 3.7 3.7 0 01-3.4-2.1c-.3-.7-.5-1.5-.5-2.5 0-.9.2-1.7.5-2.4a3.7 3.7 0 013.4-2.2zm2.8 4.6c0-.7-.2-1.3-.6-1.7-.4-.4-.8-.6-1.4-.6-.5 0-1 .2-1.4.6-.3.4-.5 1-.5 1.6 0 .7.2 1.3.5 1.7.4.4.9.6 1.4.6.6 0 1-.2 1.4-.6.4-.4.6-1 .6-1.6zM210.8 272.2h-1.5v6.6h-2.7v-6.6h-1v-2.3h1v-.3c0-1 .3-1.9.9-2.5.6-.5 1.5-.8 2.8-.8h.4v2.3c-.5 0-.9 0-1 .2-.3.2-.4.5-.4 1h1.5v2.4zM180.7 274.2l-.1.8h-6.2c0 .6.2 1 .5 1.3.4.3.7.4 1.2.4.7 0 1.2-.3 1.4-.8h3a4 4 0 01-.9 1.5 4 4 0 01-1.4 1.1c-.6.3-1.3.4-2 .4-.9 0-1.7-.1-2.3-.5a4 4 0 01-1.6-1.6 5 5 0 01-.6-2.4c0-1 .2-1.8.6-2.5a4 4 0 011.5-1.6c.7-.4 1.5-.5 2.4-.5.9 0 1.6.1 2.3.5.7.4 1.2.9 1.6 1.6.4.6.6 1.4.6 2.3zm-2.8-.7c0-.5-.2-.9-.5-1.1-.3-.3-.8-.4-1.2-.4-.5 0-.9 0-1.2.4-.3.2-.5.6-.6 1h3.4zM139.2 274.3c0-.9.2-1.7.5-2.4a3.7 3.7 0 015-1.8c.5.3.9.6 1.2 1V267h2.7v11.8H146v-1.3c-.3.5-.6.8-1.1 1-.5.3-1 .4-1.7.4a3.7 3.7 0 01-3.4-2.1c-.3-.7-.5-1.5-.5-2.5zm6.7 0c0-.6-.2-1.2-.6-1.6-.4-.4-.8-.6-1.4-.6-.5 0-1 .2-1.4.6-.3.4-.5 1-.5 1.6 0 .7.2 1.3.5 1.7.4.4.9.6 1.4.6.6 0 1-.2 1.4-.6.4-.4.6-1 .6-1.6zM107.8 274.4c0-1 .2-1.8.5-2.5a4 4 0 011.6-1.6c.7-.4 1.5-.5 2.4-.5 1 0 2 .3 2.8.8.7.6 1.2 1.5 1.4 2.5h-2.9c-.2-.7-.7-1-1.4-1-.5 0-.9.2-1.2.6-.3.4-.4 1-.4 1.7s.1 1.2.4 1.6c.3.4.7.6 1.2.6.7 0 1.2-.3 1.4-1h3c-.3 1-.8 1.9-1.5 2.4-.8.6-1.7 1-2.8 1-1 0-1.7-.2-2.4-.6a4 4 0 01-1.6-1.6 5 5 0 01-.5-2.4zM78.5 271.2c.2-.5.6-.8 1-1 .6-.3 1.1-.4 1.7-.4a3.7 3.7 0 013.4 2.1c.4.7.6 1.5.6 2.4 0 1-.2 1.8-.6 2.5a3.7 3.7 0 01-3.4 2.2c-.6 0-1.2-.2-1.6-.4a3 3 0 01-1.1-1v1.2h-2.8V267h2.8v4.2zm3.9 3.1c0-.6-.2-1.2-.6-1.6-.4-.4-.8-.6-1.4-.6-.5 0-1 .2-1.4.6-.4.4-.5 1-.5 1.7 0 .6.1 1.2.5 1.6.4.4.9.6 1.4.6.6 0 1-.2 1.4-.6.4-.4.6-1 .6-1.7zM43.2 274.3c0-.9.2-1.7.5-2.4a3.7 3.7 0 013.4-2.2c.7 0 1.2.2 1.7.4.5.3.8.6 1 1V270h2.8v9H50v-1.3a3 3 0 01-1.1 1c-.5.2-1 .3-1.7.3a3.7 3.7 0 01-3.4-2.1c-.3-.7-.5-1.5-.5-2.5zm6.7 0c0-.6-.2-1.2-.6-1.6-.4-.4-.8-.6-1.4-.6-.5 0-1 .2-1.4.6-.3.4-.5 1-.5 1.6 0 .7.2 1.3.5 1.7.4.4.9.6 1.4.6.6 0 1-.2 1.4-.6.4-.4.6-1 .6-1.6z" fill="#000"/><mask id="a" maskUnits="userSpaceOnUse" x="41.8" y="202.3" width="12" height="18" fill="#000"><path fill="#fff" d="M41.8 202.3h12v18h-12z"/><path fill-rule="evenodd" clip-rule="evenodd" d="M49.3 211.2a3.6 3.6 0 10-2.3 0c0 2.8-1.5 6.4-4.2 6.4h10.7c-2.7 0-4.2-3.6-4.2-6.4z"/></mask><path fill-rule="evenodd" clip-rule="evenodd" d="M49.3 211.2a3.6 3.6 0 10-2.3 0c0 2.8-1.5 6.4-4.2 6.4h10.7c-2.7 0-4.2-3.6-4.2-6.4z" fill="#fff"/><path d="M49.3 211.2l-.6-2-1.4.6v1.4h2zm-2.3 0h2v-1.5l-1.3-.4-.7 1.9zm2.7-3.4c0 .7-.4 1.3-1 1.5L50 213a5.6 5.6 0 003.7-5.3h-4zm-1.5-1.5c.8 0 1.5.7 1.5 1.5h4c0-3-2.5-5.5-5.5-5.5v4zm-1.6 1.5c0-.8.7-1.5 1.6-1.5v-4c-3.1 0-5.6 2.4-5.6 5.5h4zm1 1.5c-.5-.2-1-.8-1-1.5h-4c0 2.5 1.6 4.5 3.8 5.3l1.3-3.8zm-4.8 10.3c2.4 0 4-1.6 4.9-3.2.9-1.5 1.3-3.5 1.3-5.2h-4c0 1.1-.3 2.4-.8 3.3-.5.9-1 1-1.4 1v4zm10.7-4H42.8v4h10.7v-4zm-6.2-4.4c0 1.7.5 3.6 1.4 5.2.9 1.6 2.4 3.2 4.8 3.2v-4c-.3 0-.8-.2-1.4-1.1a7 7 0 01-.8-3.3h-4z" fill="#000" mask="url(#a)"/><path d="M55.3 221.3h1v-1.7a3 3 0 00-3-3H43a3 3 0 00-3 3v1.7h15.2z" fill="#fff" stroke="#000" stroke-width="2"/><mask id="b" maskUnits="userSpaceOnUse" x="137.8" y="138.3" width="12" height="18" fill="#000"><path fill="#fff" d="M137.8 138.3h12v18h-12z"/><path fill-rule="evenodd" clip-rule="evenodd" d="M145.3 147.2a3.6 3.6 0 10-2.3 0c0 2.8-1.5 6.4-4.2 6.4h10.7c-2.7 0-4.2-3.6-4.2-6.4z"/></mask><path fill-rule="evenodd" clip-rule="evenodd" d="M145.3 147.2a3.6 3.6 0 10-2.3 0c0 2.8-1.5 6.4-4.2 6.4h10.7c-2.7 0-4.2-3.6-4.2-6.4z" fill="#fff"/><path d="M145.3 147.2l-.6-2-1.4.6v1.4h2zm-2.3 0h2v-1.5l-1.3-.4-.7 1.9zm2.7-3.4c0 .7-.4 1.3-1 1.5l1.3 3.8a5.6 5.6 0 003.7-5.3h-4zm-1.5-1.5c.8 0 1.5.7 1.5 1.5h4c0-3-2.5-5.5-5.5-5.5v4zm-1.6 1.5c0-.8.7-1.5 1.6-1.5v-4c-3.1 0-5.6 2.4-5.6 5.5h4zm1 1.5c-.5-.2-1-.8-1-1.5h-4c0 2.5 1.6 4.5 3.8 5.3l1.3-3.8zm-4.8 10.3c2.4 0 4-1.6 4.9-3.2.9-1.5 1.3-3.5 1.3-5.2h-4c0 1.1-.3 2.4-.8 3.3-.5.9-1 1-1.4 1v4zm10.7-4h-10.7v4h10.7v-4zm-6.2-4.4c0 1.7.5 3.6 1.4 5.2.9 1.6 2.4 3.2 4.8 3.2v-4c-.3 0-.8-.2-1.4-1.1a7 7 0 01-.8-3.3h-4z" fill="#000" mask="url(#b)"/><path d="M151.3 157.3h1v-1.7a3 3 0 00-3-3H139a3 3 0 00-3 3v1.7h15.2z" fill="#fff" stroke="#000" stroke-width="2"/><mask id="c" maskUnits="userSpaceOnUse" x="73.8" y="170.3" width="12" height="18" fill="#000"><path fill="#fff" d="M73.8 170.3h12v18h-12z"/><path fill-rule="evenodd" clip-rule="evenodd" d="M81.3 179.2a3.6 3.6 0 10-2.3 0c0 2.8-1.5 6.4-4.2 6.4h10.7c-2.7 0-4.2-3.6-4.2-6.4z"/></mask><path fill-rule="evenodd" clip-rule="evenodd" d="M81.3 179.2a3.6 3.6 0 10-2.3 0c0 2.8-1.5 6.4-4.2 6.4h10.7c-2.7 0-4.2-3.6-4.2-6.4z" fill="#fff"/><path d="M81.3 179.2l-.6-2-1.4.6v1.4h2zm-2.3 0h2v-1.5l-1.3-.4-.7 1.9zm2.7-3.4c0 .7-.4 1.3-1 1.5L82 181a5.6 5.6 0 003.7-5.3h-4zm-1.5-1.5c.8 0 1.5.7 1.5 1.5h4c0-3-2.5-5.5-5.5-5.5v4zm-1.6 1.5c0-.8.7-1.5 1.6-1.5v-4c-3.1 0-5.6 2.4-5.6 5.5h4zm1 1.5c-.5-.2-1-.8-1-1.5h-4c0 2.5 1.6 4.5 3.8 5.3l1.3-3.8zm-4.8 10.3c2.4 0 4-1.6 4.9-3.2.9-1.5 1.3-3.5 1.3-5.2h-4c0 1.1-.3 2.4-.8 3.3-.5.9-1 1-1.4 1v4zm10.7-4H74.8v4h10.7v-4zm-6.2-4.4c0 1.7.5 3.6 1.4 5.2.9 1.6 2.4 3.2 4.8 3.2v-4c-.3 0-.8-.2-1.4-1.1a7 7 0 01-.8-3.3h-4z" fill="#000" mask="url(#c)"/><path d="M87.3 189.3h1v-1.7a3 3 0 00-3-3H75a3 3 0 00-3 3v1.7h15.2z" fill="#fff" stroke="#000" stroke-width="2"/><mask id="d" maskUnits="userSpaceOnUse" x="41.8" y="42.3" width="12" height="18" fill="#000"><path fill="#fff" d="M41.8 42.3h12v18h-12z"/><path fill-rule="evenodd" clip-rule="evenodd" d="M49.3 51.2a3.6 3.6 0 10-2.3 0c0 2.8-1.5 6.4-4.2 6.4h10.7c-2.7 0-4.2-3.6-4.2-6.4z"/></mask><path fill-rule="evenodd" clip-rule="evenodd" d="M49.3 51.2a3.6 3.6 0 10-2.3 0c0 2.8-1.5 6.4-4.2 6.4h10.7c-2.7 0-4.2-3.6-4.2-6.4z" fill="#5C5C5C"/><path d="M49.3 51.2l-.6-2-1.4.6v1.4h2zm-2.3 0h2v-1.5l-1.3-.4-.7 1.9zm2.7-3.4c0 .7-.4 1.3-1 1.5L50 53a5.6 5.6 0 003.7-5.3h-4zm-1.5-1.5c.8 0 1.5.7 1.5 1.5h4c0-3-2.5-5.5-5.5-5.5v4zm-1.6 1.5c0-.8.7-1.5 1.6-1.5v-4c-3.1 0-5.6 2.4-5.6 5.5h4zm1 1.5c-.5-.2-1-.8-1-1.5h-4c0 2.5 1.6 4.5 3.8 5.3l1.3-3.8zm-4.8 10.3c2.4 0 4-1.6 4.9-3.2.9-1.5 1.3-3.5 1.3-5.2h-4c0 1.1-.3 2.4-.8 3.3-.5.9-1 1-1.4 1v4zm10.7-4H42.8v4h10.7v-4zm-6.2-4.4c0 1.7.5 3.6 1.4 5.2.9 1.6 2.4 3.2 4.8 3.2v-4c-.3 0-.8-.2-1.4-1.1a7 7 0 01-.8-3.3h-4z" fill="#000" mask="url(#d)"/><path d="M55.3 61.3h1v-1.7a3 3 0 00-3-3H43a3 3 0 00-3 3v1.7h15.2z" fill="#5C5C5C" stroke="#000" stroke-width="2"/><mask id="e" maskUnits="userSpaceOnUse" x="201.8" y="42.3" width="12" height="18" fill="#000"><path fill="#fff" d="M201.8 42.3h12v18h-12z"/><path fill-rule="evenodd" clip-rule="evenodd" d="M209.3 51.2a3.6 3.6 0 10-2.3 0c0 2.8-1.5 6.4-4.2 6.4h10.7c-2.7 0-4.2-3.6-4.2-6.4z"/></mask><path fill-rule="evenodd" clip-rule="evenodd" d="M209.3 51.2a3.6 3.6 0 10-2.3 0c0 2.8-1.5 6.4-4.2 6.4h10.7c-2.7 0-4.2-3.6-4.2-6.4z" fill="#5C5C5C"/><path d="M209.3 51.2l-.6-2-1.4.6v1.4h2zm-2.3 0h2v-1.5l-1.3-.4-.7 1.9zm2.7-3.4c0 .7-.4 1.3-1 1.5L210 53a5.6 5.6 0 003.7-5.3h-4zm-1.5-1.5c.8 0 1.5.7 1.5 1.5h4c0-3-2.5-5.5-5.5-5.5v4zm-1.6 1.5c0-.8.7-1.5 1.6-1.5v-4c-3.1 0-5.6 2.4-5.6 5.5h4zm1 1.5c-.5-.2-1-.8-1-1.5h-4c0 2.5 1.6 4.5 3.8 5.3l1.3-3.8zm-4.8 10.3c2.4 0 4-1.6 4.9-3.2.9-1.5 1.3-3.5 1.3-5.2h-4c0 1.1-.3 2.4-.8 3.3-.5.9-1 1-1.4 1v4zm10.7-4h-10.7v4h10.7v-4zm-6.2-4.4c0 1.7.5 3.6 1.4 5.2.9 1.6 2.4 3.2 4.8 3.2v-4c-.3 0-.8-.2-1.4-1.1a7 7 0 01-.8-3.3h-4z" fill="#000" mask="url(#e)"/><path d="M215.3 61.3h1v-1.7a3 3 0 00-3-3H203a3 3 0 00-3 3v1.7h15.2z" fill="#5C5C5C" stroke="#000" stroke-width="2"/><path fill="#E94E58" fill-opacity=".8" d="M96.2 64.8h32v32h-32zM160.2 160.8h32v32h-32z"/><mask id="f" maskUnits="userSpaceOnUse" x="233.8" y="74.3" width="12" height="18" fill="#000"><path fill="#fff" d="M233.8 74.3h12v18h-12z"/><path fill-rule="evenodd" clip-rule="evenodd" d="M241.3 83.2a3.6 3.6 0 10-2.3 0c0 2.8-1.5 6.4-4.2 6.4h10.7c-2.7 0-4.2-3.6-4.2-6.4z"/></mask><path fill-rule="evenodd" clip-rule="evenodd" d="M241.3 83.2a3.6 3.6 0 10-2.3 0c0 2.8-1.5 6.4-4.2 6.4h10.7c-2.7 0-4.2-3.6-4.2-6.4z" fill="#5C5C5C"/><path d="M241.3 83.2l-.6-2-1.4.6v1.4h2zm-2.3 0h2v-1.5l-1.3-.4-.7 1.9zm2.7-3.4c0 .7-.4 1.3-1 1.5L242 85a5.6 5.6 0 003.7-5.3h-4zm-1.5-1.5c.8 0 1.5.7 1.5 1.5h4c0-3-2.5-5.5-5.5-5.5v4zm-1.6 1.5c0-.8.7-1.5 1.6-1.5v-4c-3.1 0-5.6 2.4-5.6 5.5h4zm1 1.5c-.5-.2-1-.8-1-1.5h-4c0 2.5 1.6 4.5 3.8 5.3l1.3-3.8zm-4.8 10.3c2.4 0 4-1.6 4.9-3.2.9-1.5 1.3-3.5 1.3-5.2h-4c0 1.1-.3 2.4-.8 3.3-.5.9-1 1-1.4 1v4zm10.7-4h-10.7v4h10.7v-4zm-6.2-4.4c0 1.7.5 3.6 1.4 5.2.9 1.6 2.4 3.2 4.8 3.2v-4c-.3 0-.8-.2-1.4-1.1a7 7 0 01-.8-3.3h-4z" fill="#000" mask="url(#f)"/><path d="M247.3 93.3h1v-1.7a3 3 0 00-3-3H235a3 3 0 00-3 3v1.7h15.2z" fill="#5C5C5C" stroke="#000" stroke-width="2"/><mask id="g" maskUnits="userSpaceOnUse" x="265.8" y="42.3" width="12" height="18" fill="#000"><path fill="#fff" d="M265.8 42.3h12v18h-12z"/><path fill-rule="evenodd" clip-rule="evenodd" d="M273.3 51.2a3.6 3.6 0 10-2.3 0c0 2.8-1.5 6.4-4.2 6.4h10.7c-2.7 0-4.2-3.6-4.2-6.4z"/></mask><path fill-rule="evenodd" clip-rule="evenodd" d="M273.3 51.2a3.6 3.6 0 10-2.3 0c0 2.8-1.5 6.4-4.2 6.4h10.7c-2.7 0-4.2-3.6-4.2-6.4z" fill="#5C5C5C"/><path d="M273.3 51.2l-.6-2-1.4.6v1.4h2zm-2.3 0h2v-1.5l-1.3-.4-.7 1.9zm2.7-3.4c0 .7-.4 1.3-1 1.5L274 53a5.6 5.6 0 003.7-5.3h-4zm-1.5-1.5c.8 0 1.5.7 1.5 1.5h4c0-3-2.5-5.5-5.5-5.5v4zm-1.6 1.5c0-.8.7-1.5 1.6-1.5v-4c-3.1 0-5.6 2.4-5.6 5.5h4zm1 1.5c-.5-.2-1-.8-1-1.5h-4c0 2.5 1.6 4.5 3.8 5.3l1.3-3.8zm-4.8 10.3c2.4 0 4-1.6 4.9-3.2.9-1.5 1.3-3.5 1.3-5.2h-4c0 1.1-.3 2.4-.8 3.3-.5.9-1 1-1.4 1v4zm10.7-4h-10.7v4h10.7v-4zm-6.2-4.4c0 1.7.5 3.6 1.4 5.2.9 1.6 2.4 3.2 4.8 3.2v-4c-.3 0-.8-.2-1.4-1.1a7 7 0 01-.8-3.3h-4z" fill="#000" mask="url(#g)"/><path d="M279.3 61.3h1v-1.7a3 3 0 00-3-3H267a3 3 0 00-3 3v1.7h15.2z" fill="#5C5C5C" stroke="#000" stroke-width="2"/><mask id="h" maskUnits="userSpaceOnUse" x="105.8" y="74.3" width="12" height="18" fill="#000"><path fill="#fff" d="M105.8 74.3h12v18h-12z"/><path fill-rule="evenodd" clip-rule="evenodd" d="M113.3 83.2a3.6 3.6 0 10-2.3 0c0 2.8-1.5 6.4-4.2 6.4h10.7c-2.7 0-4.2-3.6-4.2-6.4z"/></mask><path fill-rule="evenodd" clip-rule="evenodd" d="M113.3 83.2a3.6 3.6 0 10-2.3 0c0 2.8-1.5 6.4-4.2 6.4h10.7c-2.7 0-4.2-3.6-4.2-6.4z" fill="#5C5C5C"/><path d="M113.3 83.2l-.6-2-1.4.6v1.4h2zm-2.3 0h2v-1.5l-1.3-.4-.7 1.9zm2.7-3.4c0 .7-.4 1.3-1 1.5L114 85a5.6 5.6 0 003.7-5.3h-4zm-1.5-1.5c.8 0 1.5.7 1.5 1.5h4c0-3-2.5-5.5-5.5-5.5v4zm-1.6 1.5c0-.8.7-1.5 1.6-1.5v-4c-3.1 0-5.6 2.4-5.6 5.5h4zm1 1.5c-.5-.2-1-.8-1-1.5h-4c0 2.5 1.6 4.5 3.8 5.3l1.3-3.8zm-4.8 10.3c2.4 0 4-1.6 4.9-3.2.9-1.5 1.3-3.5 1.3-5.2h-4c0 1.1-.3 2.4-.8 3.3-.5.9-1 1-1.4 1v4zm10.7-4h-10.7v4h10.7v-4zm-6.2-4.4c0 1.7.5 3.6 1.4 5.2.9 1.6 2.4 3.2 4.8 3.2v-4c-.3 0-.8-.2-1.4-1.1a7 7 0 01-.8-3.3h-4z" fill="#000" mask="url(#h)"/><path d="M119.3 93.3h1v-1.7a3 3 0 00-3-3H107a3 3 0 00-3 3v1.7h15.2z" fill="#5C5C5C" stroke="#000" stroke-width="2"/><mask id="i" maskUnits="userSpaceOnUse" x="137.8" y="106.3" width="12" height="18" fill="#000"><path fill="#fff" d="M137.8 106.3h12v18h-12z"/><path fill-rule="evenodd" clip-rule="evenodd" d="M145.3 115.2a3.6 3.6 0 10-2.3 0c0 2.8-1.5 6.4-4.2 6.4h10.7c-2.7 0-4.2-3.6-4.2-6.4z"/></mask><path fill-rule="evenodd" clip-rule="evenodd" d="M145.3 115.2a3.6 3.6 0 10-2.3 0c0 2.8-1.5 6.4-4.2 6.4h10.7c-2.7 0-4.2-3.6-4.2-6.4z" fill="#5C5C5C"/><path d="M145.3 115.2l-.6-2-1.4.5v1.5h2zm-2.3 0h2v-1.5l-1.3-.4-.7 1.9zm2.7-3.4c0 .7-.4 1.3-1 1.5l1.3 3.8a5.6 5.6 0 003.7-5.3h-4zm-1.5-1.5c.8 0 1.5.7 1.5 1.5h4c0-3-2.5-5.5-5.5-5.5v4zm-1.6 1.5c0-.8.7-1.5 1.6-1.5v-4c-3.1 0-5.6 2.4-5.6 5.5h4zm1 1.5c-.5-.2-1-.8-1-1.5h-4c0 2.5 1.6 4.5 3.8 5.3l1.3-3.8zm-4.8 10.3c2.4 0 4-1.6 4.9-3.2.9-1.5 1.3-3.5 1.3-5.2h-4c0 1.1-.3 2.4-.8 3.3-.5.9-1 1-1.4 1v4zm10.7-4h-10.7v4h10.7v-4zm-6.2-4.4c0 1.7.5 3.6 1.4 5.2.9 1.6 2.4 3.2 4.8 3.2v-4c-.3 0-.8-.2-1.4-1.1a7 7 0 01-.8-3.3h-4z" fill="#000" mask="url(#i)"/><path d="M151.3 125.3h1v-1.7a3 3 0 00-3-3H139a3 3 0 00-3 3v1.7h15.2z" fill="#5C5C5C" stroke="#000" stroke-width="2"/><mask id="j" maskUnits="userSpaceOnUse" x="169.8" y="170.3" width="12" height="18" fill="#000"><path fill="#fff" d="M169.8 170.3h12v18h-12z"/><path fill-rule="evenodd" clip-rule="evenodd" d="M177.3 179.2a3.6 3.6 0 10-2.3 0c0 2.8-1.5 6.4-4.2 6.4h10.7c-2.7 0-4.2-3.6-4.2-6.4z"/></mask><path fill-rule="evenodd" clip-rule="evenodd" d="M177.3 179.2a3.6 3.6 0 10-2.3 0c0 2.8-1.5 6.4-4.2 6.4h10.7c-2.7 0-4.2-3.6-4.2-6.4z" fill="#fff"/><path d="M177.3 179.2l-.6-2-1.4.6v1.4h2zm-2.3 0h2v-1.5l-1.3-.4-.7 1.9zm2.7-3.4c0 .7-.4 1.3-1 1.5l1.3 3.8a5.6 5.6 0 003.7-5.3h-4zm-1.5-1.5c.8 0 1.5.7 1.5 1.5h4c0-3-2.5-5.5-5.5-5.5v4zm-1.6 1.5c0-.8.7-1.5 1.6-1.5v-4c-3.1 0-5.6 2.4-5.6 5.5h4zm1 1.5c-.5-.2-1-.8-1-1.5h-4c0 2.5 1.6 4.5 3.8 5.3l1.3-3.8zm-4.8 10.3c2.4 0 4-1.6 4.9-3.2.9-1.5 1.3-3.5 1.3-5.2h-4c0 1.1-.3 2.4-.8 3.3-.5.9-1 1-1.4 1v4zm10.7-4h-10.7v4h10.7v-4zm-6.2-4.4c0 1.7.5 3.6 1.4 5.2.9 1.6 2.4 3.2 4.8 3.2v-4c-.3 0-.8-.2-1.4-1.1a7 7 0 01-.8-3.3h-4z" fill="#000" mask="url(#j)"/><path d="M183.3 189.3h1v-1.7a3 3 0 00-3-3H171a3 3 0 00-3 3v1.7h15.2z" fill="#fff" stroke="#000" stroke-width="2"/><mask id="k" maskUnits="userSpaceOnUse" x="201.8" y="138.3" width="12" height="18" fill="#000"><path fill="#fff" d="M201.8 138.3h12v18h-12z"/><path fill-rule="evenodd" clip-rule="evenodd" d="M209.3 147.2a3.6 3.6 0 10-2.3 0c0 2.8-1.5 6.4-4.2 6.4h10.7c-2.7 0-4.2-3.6-4.2-6.4z"/></mask><path fill-rule="evenodd" clip-rule="evenodd" d="M209.3 147.2a3.6 3.6 0 10-2.3 0c0 2.8-1.5 6.4-4.2 6.4h10.7c-2.7 0-4.2-3.6-4.2-6.4z" fill="#fff"/><path d="M209.3 147.2l-.6-2-1.4.6v1.4h2zm-2.3 0h2v-1.5l-1.3-.4-.7 1.9zm2.7-3.4c0 .7-.4 1.3-1 1.5l1.3 3.8a5.6 5.6 0 003.7-5.3h-4zm-1.5-1.5c.8 0 1.5.7 1.5 1.5h4c0-3-2.5-5.5-5.5-5.5v4zm-1.6 1.5c0-.8.7-1.5 1.6-1.5v-4c-3.1 0-5.6 2.4-5.6 5.5h4zm1 1.5c-.5-.2-1-.8-1-1.5h-4c0 2.5 1.6 4.5 3.8 5.3l1.3-3.8zm-4.8 10.3c2.4 0 4-1.6 4.9-3.2.9-1.5 1.3-3.5 1.3-5.2h-4c0 1.1-.3 2.4-.8 3.3-.5.9-1 1-1.4 1v4zm10.7-4h-10.7v4h10.7v-4zm-6.2-4.4c0 1.7.5 3.6 1.4 5.2.9 1.6 2.4 3.2 4.8 3.2v-4c-.3 0-.8-.2-1.4-1.1a7 7 0 01-.8-3.3h-4z" fill="#000" mask="url(#k)"/><path d="M215.3 157.3h1v-1.7a3 3 0 00-3-3H203a3 3 0 00-3 3v1.7h15.2z" fill="#fff" stroke="#000" stroke-width="2"/><mask id="l" maskUnits="userSpaceOnUse" x="265.8" y="202.3" width="12" height="18" fill="#000"><path fill="#fff" d="M265.8 202.3h12v18h-12z"/><path fill-rule="evenodd" clip-rule="evenodd" d="M273.3 211.2a3.6 3.6 0 10-2.3 0c0 2.8-1.5 6.4-4.2 6.4h10.7c-2.7 0-4.2-3.6-4.2-6.4z"/></mask><path fill-rule="evenodd" clip-rule="evenodd" d="M273.3 211.2a3.6 3.6 0 10-2.3 0c0 2.8-1.5 6.4-4.2 6.4h10.7c-2.7 0-4.2-3.6-4.2-6.4z" fill="#fff"/><path d="M273.3 211.2l-.6-2-1.4.6v1.4h2zm-2.3 0h2v-1.5l-1.3-.4-.7 1.9zm2.7-3.4c0 .7-.4 1.3-1 1.5l1.3 3.8a5.6 5.6 0 003.7-5.3h-4zm-1.5-1.5c.8 0 1.5.7 1.5 1.5h4c0-3-2.5-5.5-5.5-5.5v4zm-1.6 1.5c0-.8.7-1.5 1.6-1.5v-4c-3.1 0-5.6 2.4-5.6 5.5h4zm1 1.5c-.5-.2-1-.8-1-1.5h-4c0 2.5 1.6 4.5 3.8 5.3l1.3-3.8zm-4.8 10.3c2.4 0 4-1.6 4.9-3.2.9-1.5 1.3-3.5 1.3-5.2h-4c0 1.1-.3 2.4-.8 3.3-.5.9-1 1-1.4 1v4zm10.7-4h-10.7v4h10.7v-4zm-6.2-4.4c0 1.7.5 3.6 1.4 5.2.9 1.6 2.4 3.2 4.8 3.2v-4c-.3 0-.8-.2-1.4-1.1a7 7 0 01-.8-3.3h-4z" fill="#000" mask="url(#l)"/><path d="M279.3 221.3h1v-1.7a3 3 0 00-3-3H267a3 3 0 00-3 3v1.7h15.2z" fill="#fff" stroke="#000" stroke-width="2"/><mask id="m" maskUnits="userSpaceOnUse" x="233.8" y="202.3" width="12" height="18" fill="#000"><path fill="#fff" d="M233.8 202.3h12v18h-12z"/><path fill-rule="evenodd" clip-rule="evenodd" d="M241.3 211.2a3.6 3.6 0 10-2.3 0c0 2.8-1.5 6.4-4.2 6.4h10.7c-2.7 0-4.2-3.6-4.2-6.4z"/></mask><path fill-rule="evenodd" clip-rule="evenodd" d="M241.3 211.2a3.6 3.6 0 10-2.3 0c0 2.8-1.5 6.4-4.2 6.4h10.7c-2.7 0-4.2-3.6-4.2-6.4z" fill="#fff"/><path d="M241.3 211.2l-.6-2-1.4.6v1.4h2zm-2.3 0h2v-1.5l-1.3-.4-.7 1.9zm2.7-3.4c0 .7-.4 1.3-1 1.5l1.3 3.8a5.6 5.6 0 003.7-5.3h-4zm-1.5-1.5c.8 0 1.5.7 1.5 1.5h4c0-3-2.5-5.5-5.5-5.5v4zm-1.6 1.5c0-.8.7-1.5 1.6-1.5v-4c-3.1 0-5.6 2.4-5.6 5.5h4zm1 1.5c-.5-.2-1-.8-1-1.5h-4c0 2.5 1.6 4.5 3.8 5.3l1.3-3.8zm-4.8 10.3c2.4 0 4-1.6 4.9-3.2.9-1.5 1.3-3.5 1.3-5.2h-4c0 1.1-.3 2.4-.8 3.3-.5.9-1 1-1.4 1v4zm10.7-4h-10.7v4h10.7v-4zm-6.2-4.4c0 1.7.5 3.6 1.4 5.2.9 1.6 2.4 3.2 4.8 3.2v-4c-.3 0-.8-.2-1.4-1.1a7 7 0 01-.8-3.3h-4z" fill="#000" mask="url(#m)"/><path d="M247.3 221.3h1v-1.7a3 3 0 00-3-3H235a3 3 0 00-3 3v1.7h15.2z" fill="#fff" stroke="#000" stroke-width="2"/></g><defs><clipPath id="clip0"><path fill="#fff" transform="translate(.2 .8)" d="M0 0h320v288H0z"/></clipPath></defs></svg>