<svg width="32" height="32" fill="none" xmlns="http://www.w3.org/2000/svg"><mask id="a" maskUnits="userSpaceOnUse" x="5.889" y="2.333" width="20" height="25" fill="#000"><path fill="#fff" d="M5.889 2.333h20v25h-20z"/><path fill-rule="evenodd" clip-rule="evenodd" d="M16.582 7.463c.545-.252.926-.827.926-1.497 0-.902-.692-1.633-1.545-1.633s-1.545.731-1.545 1.633c0 .685.399 1.272.965 1.514l-6.494 9.39s3.12 7.541 7.086 7.486c3.965-.055 7.274-7.686 7.274-7.686l-6.667-9.207z"/></mask><path fill-rule="evenodd" clip-rule="evenodd" d="M16.582 7.463c.545-.252.926-.827.926-1.497 0-.902-.692-1.633-1.545-1.633s-1.545.731-1.545 1.633c0 .685.399 1.272.965 1.514l-6.494 9.39s3.12 7.541 7.086 7.486c3.965-.055 7.274-7.686 7.274-7.686l-6.667-9.207z" fill="#fff"/><path d="M16.582 7.463l-.84-1.816-2.206 1.02 1.426 1.969 1.62-1.173zm-1.199.017l1.645 1.138 1.392-2.013-2.25-.964-.787 1.84zm-6.494 9.39l-1.645-1.138-.62.896.417 1.006 1.848-.765zm7.086 7.486l.027 2-.027-2zm7.274-7.686l1.835.795.454-1.045-.669-.923-1.62 1.173zM15.51 5.966c0-.091.054-.236.234-.319l1.677 3.631c1.27-.586 2.088-1.881 2.088-3.312h-4zm.454.367a.501.501 0 01-.36-.147.326.326 0 01-.095-.22h4c0-1.901-1.485-3.633-3.545-3.633v4zm.455-.367a.326.326 0 01-.095.22.5.5 0 01-.36.147v-4c-2.06 0-3.545 1.732-3.545 3.633h4zm-.248-.325c.19.082.248.232.248.325h-4c0 1.463.856 2.787 2.178 3.353L16.17 5.64zm-5.636 12.366l6.494-9.39-3.29-2.275-6.494 9.39 3.29 2.275zm5.413 4.35c-.337.004-.827-.153-1.482-.692-.645-.53-1.283-1.297-1.866-2.155a21.26 21.26 0 01-1.373-2.36 21.317 21.317 0 01-.465-.988l-.02-.049-.005-.01v.001l-1.847.765-1.848.766v.001l.002.003.003.007.01.023a9.202 9.202 0 00.152.348c.103.227.252.547.443.927.38.757.937 1.78 1.64 2.813.692 1.021 1.578 2.13 2.633 2.997 1.045.86 2.433 1.625 4.078 1.602l-.055-4zm7.302-5.687a482.83 482.83 0 01-1.834-.797l-.005.01-.022.05a22.648 22.648 0 01-.492 1.007 22.919 22.919 0 01-1.442 2.415c-.608.88-1.276 1.678-1.95 2.24-.69.576-1.209.757-1.557.762l.055 4c1.635-.024 3.017-.817 4.063-1.688 1.06-.885 1.964-2.005 2.68-3.04a26.915 26.915 0 002.164-3.78c.054-.114.096-.206.125-.271l.035-.078.01-.023.003-.007.001-.003c.001-.001.001-.002-1.834-.797zm-8.287-8.034l6.667 9.207 3.24-2.346-6.668-9.207-3.24 2.346z" fill="#000" mask="url(#a)"/><path d="M25.778 28.445h1v-2.556a3 3 0 00-3-3H8.222a3 3 0 00-3 3v2.556h20.556z" fill="#fff" stroke="#000" stroke-width="2"/><path d="M16 14.111l3.556-2.667 1.333 1.778L16 16.778V14.11z" fill="#000"/></svg>