<svg width="321" height="289" fill="none" xmlns="http://www.w3.org/2000/svg"><g clip-path="url(#clip0)"><path fill="#FEE6C1" d="M32.7.2h256v256h-256z"/><path d="M32.7 224.2h32v32h-32v-32zM32.7 96.2h32v32h-32v-32zM32.7 160.2h32v32h-32v-32zM32.7 32.2h32v32h-32v-32zM64.7 192.2h32v32h-32v-32zM64.7 64.2h32v32h-32v-32zM64.7 128.2h32v32h-32v-32zM64.7.2h32v32h-32V.2zM160.7 224.2h32v32h-32v-32zM160.7 96.2h32v32h-32v-32zM160.7 160.2h32v32h-32v-32zM160.7 32.2h32v32h-32v-32zM192.7 192.2h32v32h-32v-32zM192.7 64.2h32v32h-32v-32zM192.7 128.2h32v32h-32v-32zM192.7.2h32v32h-32V.2zM96.7 224.2h32v32h-32v-32z" fill="#866C4A"/><path d="M96.7 96.2h32v32h-32v-32zM96.7 160.2h32v32h-32v-32zM96.7 32.2h32v32h-32v-32zM128.7 192.2h32v32h-32v-32zM128.7 64.2h32v32h-32v-32zM128.7 128.2h32v32h-32v-32zM128.7.2h32v32h-32V.2zM224.7 224.2h32v32h-32v-32zM224.7 96.2h32v32h-32v-32zM224.7 160.2h32v32h-32v-32zM224.7 32.2h32v32h-32v-32zM256.7 192.2h32v32h-32v-32zM256.7 64.2h32v32h-32v-32zM256.7 128.2h32v32h-32v-32zM256.7.2h32v32h-32V.2z" fill="#866C4A"/><path d="M14.1 237.5V235h4.5v11.7h-2.9v-9.2h-1.6zM12.8 212.5l.5-.4a59 59 0 004-3.9c.4-.6.6-1.2.6-1.8 0-.4-.1-.7-.3-1-.2-.2-.5-.3-1-.3-.3 0-.7.1-.9.4-.2.3-.3.7-.3 1.3h-2.7c0-1 .2-1.7.6-2.3.4-.6.9-1 1.5-1.3.6-.3 1.2-.5 2-.5 1.2 0 2.2.4 2.8 1 .7.7 1 1.5 1 2.6a5 5 0 01-1.2 3.2c-.7 1-1.7 1.9-3 2.8h4.4v2.2h-8v-2zM12.7 174.3c0-1.1.4-2 1-2.6.8-.7 1.8-1 3-1 .8 0 1.4.2 2 .4a3 3 0 011.7 2.8c0 .7-.1 1.3-.5 1.7-.3.5-.7.8-1.2 1 .6.2 1 .5 1.4 1 .4.5.6 1 .6 1.8 0 .7-.2 1.3-.5 1.8a3 3 0 01-1.3 1.1c-.6.3-1.3.5-2.1.5-1.3 0-2.3-.3-3-1-.8-.6-1.2-1.5-1.3-2.8h2.7c0 .5.1.8.4 1.1.2.3.6.4 1.1.4.4 0 .7-.1 1-.3.2-.3.3-.6.3-1 0-.5-.1-.9-.5-1.1-.3-.2-.8-.4-1.5-.4h-.5v-2.2h.5c.5 0 1 0 1.3-.3.3-.1.5-.5.5-1l-.3-.9c-.2-.2-.5-.3-1-.3-.3 0-.6.1-.8.4-.2.2-.3.5-.4.9h-2.6zM12 148.6v-2.2l5.1-7.2h3v7h1.4v2.4h-1.3v2h-2.8v-2h-5.3zm5.6-6.4l-2.6 4h2.6v-4zM20.4 108.4h-5v2.2l1-.6 1.2-.2c.8 0 1.5.2 2 .5.5.4.9.9 1.1 1.4.3.6.4 1.2.4 2 0 1.2-.3 2.2-1 2.9a4 4 0 01-3 1c-.9 0-1.6 0-2.2-.3a3.5 3.5 0 01-2-3h2.6c0 .2.2.5.5.7.2.3.6.4 1 .4.5 0 .9-.2 1.1-.5.3-.3.4-.8.4-1.3s-.2-1-.4-1.2c-.3-.3-.6-.4-1.1-.4-.4 0-.7 0-1 .3-.2.1-.3.4-.4.6H13v-7h7.4v2.5zM18.1 77.2c0-.4-.2-.7-.4-1l-1-.2c-.6 0-1 .2-1.3.8a6 6 0 00-.4 2.5l1-1 1.5-.2c1 0 1.9.3 2.5 1 .6.6 1 1.5 1 2.7 0 .8-.2 1.5-.5 2-.3.7-.8 1.1-1.4 1.5-.6.3-1.3.4-2.1.4-1.7 0-2.8-.5-3.4-1.5-.7-1-1-2.5-1-4.4a8 8 0 011-4.5c.7-1 1.8-1.5 3.3-1.5a4 4 0 012 .4c.5.4 1 .8 1.2 1.3.3.5.5 1 .5 1.7h-2.5zm-1.3 3c-.4 0-.8.2-1.1.4-.3.3-.5.7-.5 1.2s.2 1 .5 1.2c.2.3.6.4 1.2.4.4 0 .8-.1 1-.4.4-.3.5-.7.5-1.2s-.1-.9-.4-1.1c-.3-.3-.7-.5-1.2-.5zM20.6 44l-4 9.7h-2.8l4-9.3h-5V42h7.8v2zM14.2 16.4c-1-.5-1.6-1.4-1.6-2.5a2.9 2.9 0 011.9-2.7c.6-.3 1.3-.4 2.2-.4.9 0 1.6.1 2.2.4.6.3 1 .7 1.4 1.1.3.5.4 1 .4 1.6 0 .6-.1 1-.4 1.5-.3.4-.6.8-1 1 .5.3 1 .7 1.3 1.2.3.4.4 1 .4 1.7a3.4 3.4 0 01-2.1 3.2c-.7.3-1.4.4-2.2.4-.8 0-1.5-.1-2.2-.4-.6-.3-1.2-.7-1.5-1.3-.4-.5-.6-1.2-.6-2 0-.6.1-1.2.4-1.7a3 3 0 011.4-1zm3.9-2c0-.5-.2-.9-.4-1-.3-.3-.6-.5-1-.5s-.8.2-1 .4c-.3.3-.4.6-.4 1s.1.8.4 1c.3.3.6.4 1 .4s.7-.1 1-.4c.2-.2.4-.6.4-1zm-1.4 3.2c-.5 0-1 .1-1.2.4-.3.3-.5.7-.5 1.1 0 .5.2.8.5 1.1.3.3.7.5 1.2.5s1-.2 1.2-.5c.3-.3.4-.6.4-1 0-.5-.1-1-.4-1.2-.3-.3-.7-.4-1.2-.4zM273.8 269.2c1 0 1.8.3 2.5 1a4 4 0 01.9 2.8v5.2h-2.7v-4.9c0-.6-.2-1-.5-1.4-.3-.3-.7-.5-1.2-.5-.6 0-1 .2-1.3.5a2 2 0 00-.5 1.4v4.9h-2.7v-11.9h2.7v4.2a3 3 0 011.2-1c.5-.2 1-.3 1.6-.3zM239.7 269.1c.6 0 1.1.2 1.6.4.5.3.9.6 1.1 1v-1.2h2.7v8.9c0 .8-.1 1.5-.5 2.2-.3.7-.8 1.2-1.4 1.6-.7.4-1.5.6-2.5.6-1.3 0-2.4-.3-3.2-1a3.5 3.5 0 01-1.4-2.5h2.7c0 .4.2.6.6.8.3.2.7.3 1.2.3s1-.1 1.3-.5c.3-.3.5-.8.5-1.5v-1.3a3 3 0 01-2.7 1.4 3.7 3.7 0 01-3.5-2.2c-.3-.7-.5-1.5-.5-2.4 0-1 .2-1.7.5-2.4a3.7 3.7 0 013.4-2.2zm2.7 4.6c0-.7-.2-1.2-.6-1.6-.3-.4-.8-.6-1.3-.6-.6 0-1 .2-1.4.6-.4.4-.6 1-.6 1.6 0 .7.2 1.2.6 1.6.3.4.8.6 1.4.6.5 0 1-.2 1.3-.6.4-.4.6-.9.6-1.6zM211.3 271.5h-1.5v6.7h-2.7v-6.7h-1v-2.2h1v-.3c0-1.1.3-2 1-2.5.6-.6 1.5-.9 2.7-.9h.4v2.4c-.5 0-.8 0-1 .2-.3.2-.4.5-.4 1h1.5v2.3zM181.2 273.6v.8h-6.3c0 .5.3 1 .6 1.3.3.2.7.4 1.1.4.7 0 1.2-.3 1.5-.9h2.9a4 4 0 01-.8 1.6 4 4 0 01-1.5 1.1c-.6.3-1.2.4-2 .4s-1.6-.2-2.3-.5a4 4 0 01-1.6-1.6 5 5 0 01-.6-2.5c0-1 .2-1.7.6-2.4a4 4 0 011.6-1.6c.7-.4 1.4-.6 2.3-.6.9 0 1.7.2 2.3.6.7.3 1.2.9 1.6 1.5.4.7.6 1.5.6 2.4zm-2.8-.7c0-.5-.2-.9-.5-1.2-.3-.2-.7-.4-1.2-.4s-.8.2-1.2.4c-.3.3-.5.7-.5 1.2h3.4zM139.7 273.7c0-1 .2-1.7.5-2.4a3.7 3.7 0 015-1.8c.5.2 1 .6 1.2 1v-4.2h2.7v11.9h-2.7v-1.3c-.2.4-.6.8-1.1 1a3.7 3.7 0 01-5-1.8c-.4-.7-.6-1.5-.6-2.4zm6.7 0c0-.7-.2-1.2-.6-1.6-.3-.4-.8-.6-1.3-.6-.6 0-1 .2-1.4.6-.4.4-.6 1-.6 1.6 0 .7.2 1.2.6 1.6.3.4.8.6 1.4.6.5 0 1-.2 1.3-.6.4-.4.6-.9.6-1.6zM108.3 273.7c0-1 .2-1.7.6-2.4a4 4 0 011.5-1.6c.7-.4 1.5-.6 2.4-.6 1.1 0 2 .3 2.8 1 .7.5 1.2 1.3 1.5 2.4h-3c-.2-.7-.7-1-1.4-1-.5 0-.9.2-1.2.6-.3.3-.4.9-.4 1.6 0 .7.1 1.3.4 1.7.3.4.7.6 1.2.6.7 0 1.2-.4 1.5-1h2.9c-.3 1-.8 1.8-1.5 2.4-.8.6-1.7 1-2.8 1-.9 0-1.7-.3-2.4-.6a4 4 0 01-1.5-1.6 5 5 0 01-.6-2.5zM79 270.5c.3-.4.6-.7 1.1-1 .5-.2 1-.4 1.7-.4a3.7 3.7 0 013.4 2.2c.3.7.5 1.5.5 2.4 0 1-.2 1.7-.5 2.4a3.7 3.7 0 01-3.4 2.2c-.7 0-1.2-.1-1.7-.4a3 3 0 01-1.1-1v1.3h-2.7v-11.9H79v4.2zm3.9 3.2c0-.7-.2-1.2-.6-1.6-.3-.4-.8-.6-1.4-.6-.5 0-1 .2-1.4.6-.3.4-.5 1-.5 1.6 0 .7.2 1.2.5 1.6.4.4.9.6 1.4.6.6 0 1-.2 1.4-.6.4-.4.6-1 .6-1.6zM43.7 273.7c0-1 .2-1.7.5-2.4a3.7 3.7 0 013.4-2.2c.7 0 1.2.2 1.7.4.5.3.9.6 1.1 1v-1.2h2.7v8.9h-2.7v-1.3a3 3 0 01-1.1 1c-.5.3-1 .4-1.7.4a3.7 3.7 0 01-3.4-2.2c-.3-.7-.5-1.5-.5-2.4zm6.7 0c0-.7-.2-1.2-.6-1.6-.3-.4-.8-.6-1.3-.6-.6 0-1 .2-1.4.6-.4.4-.6 1-.6 1.6 0 .7.2 1.2.6 1.6.3.4.8.6 1.4.6.5 0 1-.2 1.3-.6.4-.4.6-.9.6-1.6z" fill="#000"/><path fill="#198754" fill-opacity=".8" d="M256.7 192.2h32v32h-32zM224.7 192.2h32v32h-32zM192.7 192.2h32v32h-32zM160.7 160.2h32v32h-32zM128.7 128.2h32v32h-32z"/><path fill="#E94E58" fill-opacity=".8" d="M64.7 192.2h32v32h-32zM32.7 192.2h32v32h-32z"/><mask id="a" maskUnits="userSpaceOnUse" x="266.4" y="201.6" width="12" height="18" fill="#000"><path fill="#fff" d="M266.4 201.6h12v18h-12z"/><path fill-rule="evenodd" clip-rule="evenodd" d="M273.9 210.5a3.6 3.6 0 10-2.4 0c0 2.9-1.4 6.5-4.1 6.5H278c-2.7 0-4.1-3.6-4.1-6.5z"/></mask><path fill-rule="evenodd" clip-rule="evenodd" d="M273.9 210.5a3.6 3.6 0 10-2.4 0c0 2.9-1.4 6.5-4.1 6.5H278c-2.7 0-4.1-3.6-4.1-6.5z" fill="#fff"/><path d="M273.9 210.5l-.7-1.8-1.3.4v1.4h2zm-2.4 0h2v-1.4l-1.3-.4-.7 1.8zm2.8-3.3c0 .7-.5 1.2-1 1.5l1.2 3.7a5.6 5.6 0 003.8-5.2h-4zm-1.6-1.6c.9 0 1.6.7 1.6 1.6h4c0-3-2.5-5.6-5.6-5.6v4zm-1.6 1.6c0-.9.7-1.6 1.6-1.6v-4c-3 0-5.6 2.5-5.6 5.6h4zm1 1.5c-.5-.3-1-.8-1-1.5h-4c0 2.4 1.6 4.5 3.8 5.2l1.3-3.7zm-4.7 10.3c2.3 0 4-1.6 4.8-3.2 1-1.6 1.4-3.5 1.3-5.3h-4c0 1.2-.2 2.4-.8 3.3-.5 1-1 1.2-1.3 1.2v4zm10.6-4h-10.6v4H278v-4zm-6.1-4.5c0 1.8.4 3.7 1.3 5.3.9 1.6 2.5 3.2 4.8 3.2v-4c-.3 0-.8-.2-1.3-1.2a7 7 0 01-.8-3.2h-4z" fill="#000" mask="url(#a)"/><path d="M279.8 220.6h1V219a3 3 0 00-3-3h-10.2a3 3 0 00-3 3v1.6h15.2z" fill="#fff" stroke="#000" stroke-width="2"/><path fill="#198754" fill-opacity=".8" d="M32.7 32.2h32v32h-32zM64.7 32.2h32v32h-32zM96.7 64.2h32v32h-32zM128.7 96.2h32v32h-32z"/><path fill="#E94E58" fill-opacity=".8" d="M192.7 32.2h32v32h-32zM224.7 32.2h32v32h-32zM256.7 32.2h32v32h-32z"/><mask id="b" maskUnits="userSpaceOnUse" x="234.4" y="201.6" width="12" height="18" fill="#000"><path fill="#fff" d="M234.4 201.6h12v18h-12z"/><path fill-rule="evenodd" clip-rule="evenodd" d="M241.9 210.5a3.6 3.6 0 10-2.4 0c0 2.9-1.4 6.5-4.1 6.5H246c-2.7 0-4.1-3.6-4.1-6.5z"/></mask><path fill-rule="evenodd" clip-rule="evenodd" d="M241.9 210.5a3.6 3.6 0 10-2.4 0c0 2.9-1.4 6.5-4.1 6.5H246c-2.7 0-4.1-3.6-4.1-6.5z" fill="#fff"/><path d="M241.9 210.5l-.7-1.8-1.3.4v1.4h2zm-2.4 0h2v-1.4l-1.3-.4-.7 1.8zm2.8-3.3c0 .7-.5 1.2-1 1.5l1.2 3.7a5.6 5.6 0 003.8-5.2h-4zm-1.6-1.6c.9 0 1.6.7 1.6 1.6h4c0-3-2.5-5.6-5.6-5.6v4zm-1.6 1.6c0-.9.7-1.6 1.6-1.6v-4c-3 0-5.6 2.5-5.6 5.6h4zm1 1.5c-.5-.3-1-.8-1-1.5h-4c0 2.4 1.6 4.5 3.8 5.2l1.3-3.7zm-4.7 10.3c2.3 0 4-1.6 4.8-3.2 1-1.6 1.4-3.5 1.3-5.3h-4c0 1.2-.2 2.4-.8 3.3-.5 1-1 1.2-1.3 1.2v4zm10.6-4h-10.6v4H246v-4zm-6.1-4.5c0 1.8.4 3.7 1.3 5.3.9 1.6 2.5 3.2 4.8 3.2v-4c-.3 0-.8-.2-1.3-1.2a7 7 0 01-.8-3.2h-4z" fill="#000" mask="url(#b)"/><path d="M247.8 220.6h1V219a3 3 0 00-3-3h-10.2a3 3 0 00-3 3v1.6h15.2z" fill="#fff" stroke="#000" stroke-width="2"/><mask id="c" maskUnits="userSpaceOnUse" x="202.4" y="201.6" width="12" height="18" fill="#000"><path fill="#fff" d="M202.4 201.6h12v18h-12z"/><path fill-rule="evenodd" clip-rule="evenodd" d="M209.9 210.5a3.6 3.6 0 10-2.4 0c0 2.9-1.4 6.5-4.1 6.5H214c-2.7 0-4.1-3.6-4.1-6.5z"/></mask><path fill-rule="evenodd" clip-rule="evenodd" d="M209.9 210.5a3.6 3.6 0 10-2.4 0c0 2.9-1.4 6.5-4.1 6.5H214c-2.7 0-4.1-3.6-4.1-6.5z" fill="#fff"/><path d="M209.9 210.5l-.7-1.8-1.3.4v1.4h2zm-2.4 0h2v-1.4l-1.3-.4-.7 1.8zm2.8-3.3c0 .7-.5 1.2-1 1.5l1.2 3.7a5.6 5.6 0 003.8-5.2h-4zm-1.6-1.6c.9 0 1.6.7 1.6 1.6h4c0-3-2.5-5.6-5.6-5.6v4zm-1.6 1.6c0-.9.7-1.6 1.6-1.6v-4c-3 0-5.6 2.5-5.6 5.6h4zm1 1.5c-.5-.3-1-.8-1-1.5h-4c0 2.4 1.6 4.5 3.8 5.2l1.3-3.7zm-4.7 10.3c2.3 0 4-1.6 4.8-3.2 1-1.6 1.4-3.5 1.3-5.3h-4c0 1.2-.2 2.4-.8 3.3-.5 1-1 1.2-1.3 1.2v4zm10.6-4h-10.6v4H214v-4zm-6.1-4.5c0 1.8.4 3.7 1.3 5.3.9 1.6 2.5 3.2 4.8 3.2v-4c-.3 0-.8-.2-1.3-1.2a7 7 0 01-.8-3.2h-4z" fill="#000" mask="url(#c)"/><path d="M215.8 220.6h1V219a3 3 0 00-3-3h-10.2a3 3 0 00-3 3v1.6h15.2z" fill="#fff" stroke="#000" stroke-width="2"/><mask id="d" maskUnits="userSpaceOnUse" x="170.4" y="169.6" width="12" height="18" fill="#000"><path fill="#fff" d="M170.4 169.6h12v18h-12z"/><path fill-rule="evenodd" clip-rule="evenodd" d="M177.9 178.5a3.6 3.6 0 10-2.4 0c0 2.9-1.4 6.5-4.1 6.5H182c-2.7 0-4.1-3.6-4.1-6.5z"/></mask><path fill-rule="evenodd" clip-rule="evenodd" d="M177.9 178.5a3.6 3.6 0 10-2.4 0c0 2.9-1.4 6.5-4.1 6.5H182c-2.7 0-4.1-3.6-4.1-6.5z" fill="#fff"/><path d="M177.9 178.5l-.7-1.8-1.3.4v1.4h2zm-2.4 0h2v-1.4l-1.3-.4-.7 1.8zm2.8-3.3c0 .7-.5 1.2-1 1.5l1.2 3.7a5.6 5.6 0 003.8-5.2h-4zm-1.6-1.6c.9 0 1.6.7 1.6 1.6h4c0-3-2.5-5.6-5.6-5.6v4zm-1.6 1.6c0-.9.7-1.6 1.6-1.6v-4c-3 0-5.6 2.5-5.6 5.6h4zm1 1.5c-.5-.3-1-.8-1-1.5h-4c0 2.4 1.6 4.5 3.8 5.2l1.3-3.7zm-4.7 10.3c2.3 0 4-1.6 4.8-3.2 1-1.6 1.4-3.5 1.3-5.3h-4c0 1.2-.2 2.4-.8 3.3-.5 1-1 1.2-1.3 1.2v4zm10.6-4h-10.6v4H182v-4zm-6.1-4.5c0 1.8.4 3.7 1.3 5.3.9 1.6 2.5 3.2 4.8 3.2v-4c-.3 0-.8-.2-1.3-1.2a7 7 0 01-.8-3.2h-4z" fill="#000" mask="url(#d)"/><path d="M183.8 188.6h1V187a3 3 0 00-3-3h-10.2a3 3 0 00-3 3v1.6h15.2z" fill="#fff" stroke="#000" stroke-width="2"/><mask id="e" maskUnits="userSpaceOnUse" x="138.4" y="137.6" width="12" height="18" fill="#000"><path fill="#fff" d="M138.4 137.6h12v18h-12z"/><path fill-rule="evenodd" clip-rule="evenodd" d="M145.9 146.5a3.6 3.6 0 10-2.4 0c0 2.9-1.4 6.5-4.1 6.5H150c-2.7 0-4.1-3.6-4.1-6.5z"/></mask><path fill-rule="evenodd" clip-rule="evenodd" d="M145.9 146.5a3.6 3.6 0 10-2.4 0c0 2.9-1.4 6.5-4.1 6.5H150c-2.7 0-4.1-3.6-4.1-6.5z" fill="#fff"/><path d="M145.9 146.5l-.7-1.8-1.3.4v1.4h2zm-2.4 0h2v-1.4l-1.3-.4-.7 1.8zm2.8-3.3c0 .7-.5 1.2-1 1.5l1.2 3.7a5.6 5.6 0 003.8-5.2h-4zm-1.6-1.6c.9 0 1.6.7 1.6 1.6h4c0-3-2.5-5.6-5.6-5.6v4zm-1.6 1.6c0-.9.7-1.6 1.6-1.6v-4c-3 0-5.6 2.5-5.6 5.6h4zm1 1.5c-.5-.3-1-.8-1-1.5h-4c0 2.4 1.6 4.5 3.8 5.2l1.3-3.7zm-4.7 10.3c2.3 0 4-1.6 4.8-3.2 1-1.6 1.4-3.5 1.3-5.3h-4c0 1.2-.2 2.4-.8 3.3-.5 1-1 1.2-1.3 1.2v4zm10.6-4h-10.6v4H150v-4zm-6.1-4.5c0 1.8.4 3.7 1.3 5.3.9 1.6 2.5 3.2 4.8 3.2v-4c-.3 0-.8-.2-1.3-1.2a7 7 0 01-.8-3.2h-4z" fill="#000" mask="url(#e)"/><path d="M151.8 156.6h1V155a3 3 0 00-3-3h-10.2a3 3 0 00-3 3v1.6h15.2z" fill="#fff" stroke="#000" stroke-width="2"/><mask id="f" maskUnits="userSpaceOnUse" x="74.4" y="201.6" width="12" height="18" fill="#000"><path fill="#fff" d="M74.4 201.6h12v18h-12z"/><path fill-rule="evenodd" clip-rule="evenodd" d="M81.9 210.5a3.6 3.6 0 10-2.4 0c0 2.9-1.4 6.5-4.1 6.5H86c-2.7 0-4.1-3.6-4.1-6.5z"/></mask><path fill-rule="evenodd" clip-rule="evenodd" d="M81.9 210.5a3.6 3.6 0 10-2.4 0c0 2.9-1.4 6.5-4.1 6.5H86c-2.7 0-4.1-3.6-4.1-6.5z" fill="#fff"/><path d="M81.9 210.5l-.7-1.8-1.3.4v1.4h2zm-2.4 0h2v-1.4l-1.3-.4-.7 1.8zm2.8-3.3c0 .7-.5 1.2-1 1.5l1.2 3.7a5.6 5.6 0 003.8-5.2h-4zm-1.6-1.6c.9 0 1.6.7 1.6 1.6h4c0-3-2.5-5.6-5.6-5.6v4zm-1.6 1.6c0-.9.7-1.6 1.6-1.6v-4c-3 0-5.6 2.5-5.6 5.6h4zm1.1 1.5c-.6-.3-1-.8-1-1.5h-4c0 2.4 1.5 4.5 3.7 5.2l1.3-3.7zM75.4 219c2.3 0 4-1.6 4.8-3.2 1-1.6 1.4-3.5 1.3-5.3h-4c0 1.2-.2 2.4-.8 3.3-.5 1-1 1.2-1.3 1.2v4zm10.6-4H75.4v4H86v-4zm-6.1-4.5c0 1.8.4 3.7 1.3 5.3.9 1.6 2.5 3.2 4.8 3.2v-4c-.3 0-.8-.2-1.3-1.2a7 7 0 01-.8-3.2h-4z" fill="#000" mask="url(#f)"/><path d="M87.8 220.6h1V219a3 3 0 00-3-3H75.6a3 3 0 00-3 3v1.6h15.2z" fill="#fff" stroke="#000" stroke-width="2"/><mask id="g" maskUnits="userSpaceOnUse" x="42.4" y="201.6" width="12" height="18" fill="#000"><path fill="#fff" d="M42.4 201.6h12v18h-12z"/><path fill-rule="evenodd" clip-rule="evenodd" d="M49.9 210.5a3.6 3.6 0 10-2.4 0c0 2.9-1.4 6.5-4.1 6.5H54c-2.7 0-4.1-3.6-4.1-6.5z"/></mask><path fill-rule="evenodd" clip-rule="evenodd" d="M49.9 210.5a3.6 3.6 0 10-2.4 0c0 2.9-1.4 6.5-4.1 6.5H54c-2.7 0-4.1-3.6-4.1-6.5z" fill="#fff"/><path d="M49.9 210.5l-.7-1.8-1.3.4v1.4h2zm-2.4 0h2v-1.4l-1.3-.4-.7 1.8zm2.8-3.3c0 .7-.5 1.2-1 1.5l1.2 3.7a5.6 5.6 0 003.8-5.2h-4zm-1.6-1.6c.9 0 1.6.7 1.6 1.6h4c0-3-2.5-5.6-5.6-5.6v4zm-1.6 1.6c0-.9.7-1.6 1.6-1.6v-4c-3 0-5.6 2.5-5.6 5.6h4zm1.1 1.5c-.6-.3-1-.8-1-1.5h-4c0 2.4 1.5 4.5 3.7 5.2l1.3-3.7zM43.4 219c2.3 0 4-1.6 4.8-3.2 1-1.6 1.4-3.5 1.3-5.3h-4c0 1.2-.2 2.4-.8 3.3-.5 1-1 1.2-1.3 1.2v4zm10.6-4H43.4v4H54v-4zm-6.1-4.5c0 1.8.4 3.7 1.3 5.3.9 1.6 2.5 3.2 4.8 3.2v-4c-.3 0-.8-.2-1.3-1.2a7 7 0 01-.8-3.2h-4z" fill="#000" mask="url(#g)"/><path d="M55.8 220.6h1V219a3 3 0 00-3-3H43.6a3 3 0 00-3 3v1.6h15.2z" fill="#fff" stroke="#000" stroke-width="2"/><mask id="h" maskUnits="userSpaceOnUse" x="42.4" y="41.6" width="12" height="18" fill="#000"><path fill="#fff" d="M42.4 41.6h12v18h-12z"/><path fill-rule="evenodd" clip-rule="evenodd" d="M49.9 50.5a3.6 3.6 0 10-2.4 0c0 2.9-1.4 6.5-4.1 6.5H54c-2.7 0-4.1-3.6-4.1-6.5z"/></mask><path fill-rule="evenodd" clip-rule="evenodd" d="M49.9 50.5a3.6 3.6 0 10-2.4 0c0 2.9-1.4 6.5-4.1 6.5H54c-2.7 0-4.1-3.6-4.1-6.5z" fill="#5C5C5C"/><path d="M49.9 50.5l-.7-1.8-1.3.4v1.4h2zm-2.4 0h2v-1.4l-1.3-.4-.7 1.8zm2.8-3.3c0 .7-.5 1.2-1 1.5l1.2 3.7a5.6 5.6 0 003.8-5.2h-4zm-1.6-1.6c.9 0 1.6.7 1.6 1.6h4c0-3-2.5-5.6-5.6-5.6v4zm-1.6 1.6c0-.9.7-1.6 1.6-1.6v-4c-3 0-5.6 2.5-5.6 5.6h4zm1.1 1.5c-.6-.3-1-.8-1-1.5h-4c0 2.4 1.5 4.5 3.7 5.2l1.3-3.7zM43.4 59c2.3 0 4-1.6 4.8-3.2 1-1.6 1.4-3.5 1.3-5.3h-4c0 1.2-.2 2.4-.8 3.3-.5 1-1 1.2-1.3 1.2v4zM54 55H43.4v4H54v-4zM48 50.5c0 1.8.4 3.7 1.3 5.3.9 1.6 2.5 3.2 4.8 3.2v-4c-.3 0-.8-.2-1.3-1.2a7 7 0 01-.8-3.2h-4z" fill="#000" mask="url(#h)"/><path d="M55.8 60.6h1V59a3 3 0 00-3-3H43.6a3 3 0 00-3 3v1.6h15.2z" fill="#5C5C5C" stroke="#000" stroke-width="2"/><mask id="i" maskUnits="userSpaceOnUse" x="74.4" y="41.6" width="12" height="18" fill="#000"><path fill="#fff" d="M74.4 41.6h12v18h-12z"/><path fill-rule="evenodd" clip-rule="evenodd" d="M81.9 50.5a3.6 3.6 0 10-2.4 0c0 2.9-1.4 6.5-4.1 6.5H86c-2.7 0-4.1-3.6-4.1-6.5z"/></mask><path fill-rule="evenodd" clip-rule="evenodd" d="M81.9 50.5a3.6 3.6 0 10-2.4 0c0 2.9-1.4 6.5-4.1 6.5H86c-2.7 0-4.1-3.6-4.1-6.5z" fill="#5C5C5C"/><path d="M81.9 50.5l-.7-1.8-1.3.4v1.4h2zm-2.4 0h2v-1.4l-1.3-.4-.7 1.8zm2.8-3.3c0 .7-.5 1.2-1 1.5l1.2 3.7a5.6 5.6 0 003.8-5.2h-4zm-1.6-1.6c.9 0 1.6.7 1.6 1.6h4c0-3-2.5-5.6-5.6-5.6v4zm-1.6 1.6c0-.9.7-1.6 1.6-1.6v-4c-3 0-5.6 2.5-5.6 5.6h4zm1.1 1.5c-.6-.3-1-.8-1-1.5h-4c0 2.4 1.5 4.5 3.7 5.2l1.3-3.7zM75.4 59c2.3 0 4-1.6 4.8-3.2 1-1.6 1.4-3.5 1.3-5.3h-4c0 1.2-.2 2.4-.8 3.3-.5 1-1 1.2-1.3 1.2v4zM86 55H75.4v4H86v-4zM80 50.5c0 1.8.4 3.7 1.3 5.3.9 1.6 2.5 3.2 4.8 3.2v-4c-.3 0-.8-.2-1.3-1.2a7 7 0 01-.8-3.2h-4z" fill="#000" mask="url(#i)"/><path d="M87.8 60.6h1V59a3 3 0 00-3-3H75.6a3 3 0 00-3 3v1.6h15.2z" fill="#5C5C5C" stroke="#000" stroke-width="2"/><mask id="j" maskUnits="userSpaceOnUse" x="106.4" y="73.6" width="12" height="18" fill="#000"><path fill="#fff" d="M106.4 73.6h12v18h-12z"/><path fill-rule="evenodd" clip-rule="evenodd" d="M113.9 82.5a3.6 3.6 0 10-2.4 0c0 2.9-1.4 6.5-4.1 6.5H118c-2.7 0-4.1-3.6-4.1-6.5z"/></mask><path fill-rule="evenodd" clip-rule="evenodd" d="M113.9 82.5a3.6 3.6 0 10-2.4 0c0 2.9-1.4 6.5-4.1 6.5H118c-2.7 0-4.1-3.6-4.1-6.5z" fill="#5C5C5C"/><path d="M113.9 82.5l-.7-1.8-1.3.4v1.4h2zm-2.4 0h2v-1.4l-1.3-.4-.7 1.8zm2.8-3.3c0 .7-.5 1.2-1 1.5l1.2 3.7a5.6 5.6 0 003.8-5.2h-4zm-1.6-1.6c.9 0 1.6.7 1.6 1.6h4c0-3-2.5-5.6-5.6-5.6v4zm-1.6 1.6c0-.9.7-1.6 1.6-1.6v-4c-3 0-5.6 2.5-5.6 5.6h4zm1 1.5c-.5-.3-1-.8-1-1.5h-4c0 2.4 1.6 4.5 3.8 5.2l1.3-3.7zM107.5 91c2.3 0 4-1.6 4.8-3.2 1-1.6 1.4-3.5 1.3-5.3h-4c0 1.2-.2 2.4-.8 3.3-.5 1-1 1.2-1.3 1.2v4zm10.6-4h-10.6v4H118v-4zm-6.1-4.5c0 1.8.4 3.7 1.3 5.3.9 1.6 2.5 3.2 4.8 3.2v-4c-.3 0-.8-.2-1.3-1.2a7 7 0 01-.8-3.2h-4z" fill="#000" mask="url(#j)"/><path d="M119.8 92.6h1V91a3 3 0 00-3-3h-10.2a3 3 0 00-3 3v1.6h15.2z" fill="#5C5C5C" stroke="#000" stroke-width="2"/><mask id="k" maskUnits="userSpaceOnUse" x="138.4" y="105.6" width="12" height="18" fill="#000"><path fill="#fff" d="M138.4 105.6h12v18h-12z"/><path fill-rule="evenodd" clip-rule="evenodd" d="M145.9 114.5a3.6 3.6 0 10-2.4 0c0 2.9-1.4 6.5-4.1 6.5H150c-2.7 0-4.1-3.6-4.1-6.5z"/></mask><path fill-rule="evenodd" clip-rule="evenodd" d="M145.9 114.5a3.6 3.6 0 10-2.4 0c0 2.9-1.4 6.5-4.1 6.5H150c-2.7 0-4.1-3.6-4.1-6.5z" fill="#5C5C5C"/><path d="M145.9 114.5l-.7-1.8-1.3.4v1.4h2zm-2.4 0h2v-1.4l-1.3-.4-.7 1.8zm2.8-3.3c0 .7-.5 1.2-1 1.5l1.2 3.7a5.6 5.6 0 003.8-5.2h-4zm-1.6-1.6c.9 0 1.6.7 1.6 1.6h4c0-3-2.5-5.6-5.6-5.6v4zm-1.6 1.6c0-.9.7-1.6 1.6-1.6v-4c-3 0-5.6 2.5-5.6 5.6h4zm1 1.5c-.5-.3-1-.8-1-1.5h-4c0 2.4 1.6 4.5 3.8 5.2l1.3-3.7zm-4.7 10.3c2.3 0 4-1.6 4.8-3.2 1-1.6 1.4-3.5 1.3-5.3h-4c0 1.2-.2 2.4-.8 3.3-.5 1-1 1.2-1.3 1.2v4zm10.6-4h-10.6v4H150v-4zm-6.1-4.5c0 1.8.4 3.7 1.3 5.3.9 1.6 2.5 3.2 4.8 3.2v-4c-.3 0-.8-.2-1.3-1.2a7 7 0 01-.8-3.2h-4z" fill="#000" mask="url(#k)"/><path d="M151.8 124.6h1V123a3 3 0 00-3-3h-10.2a3 3 0 00-3 3v1.6h15.2z" fill="#5C5C5C" stroke="#000" stroke-width="2"/><mask id="l" maskUnits="userSpaceOnUse" x="202.4" y="41.6" width="12" height="18" fill="#000"><path fill="#fff" d="M202.4 41.6h12v18h-12z"/><path fill-rule="evenodd" clip-rule="evenodd" d="M209.9 50.5a3.6 3.6 0 10-2.4 0c0 2.9-1.4 6.5-4.1 6.5H214c-2.7 0-4.1-3.6-4.1-6.5z"/></mask><path fill-rule="evenodd" clip-rule="evenodd" d="M209.9 50.5a3.6 3.6 0 10-2.4 0c0 2.9-1.4 6.5-4.1 6.5H214c-2.7 0-4.1-3.6-4.1-6.5z" fill="#5C5C5C"/><path d="M209.9 50.5l-.7-1.8-1.3.4v1.4h2zm-2.4 0h2v-1.4l-1.3-.4-.7 1.8zm2.8-3.3c0 .7-.5 1.2-1 1.5l1.2 3.7a5.6 5.6 0 003.8-5.2h-4zm-1.6-1.6c.9 0 1.6.7 1.6 1.6h4c0-3-2.5-5.6-5.6-5.6v4zm-1.6 1.6c0-.9.7-1.6 1.6-1.6v-4c-3 0-5.6 2.5-5.6 5.6h4zm1 1.5c-.5-.3-1-.8-1-1.5h-4c0 2.4 1.6 4.5 3.8 5.2l1.3-3.7zM203.5 59c2.3 0 4-1.6 4.8-3.2 1-1.6 1.4-3.5 1.3-5.3h-4c0 1.2-.2 2.4-.8 3.3-.5 1-1 1.2-1.3 1.2v4zm10.6-4h-10.6v4H214v-4zm-6.1-4.5c0 1.8.4 3.7 1.3 5.3.9 1.6 2.5 3.2 4.8 3.2v-4c-.3 0-.8-.2-1.3-1.2a7 7 0 01-.8-3.2h-4z" fill="#000" mask="url(#l)"/><path d="M215.8 60.6h1V59a3 3 0 00-3-3h-10.2a3 3 0 00-3 3v1.6h15.2z" fill="#5C5C5C" stroke="#000" stroke-width="2"/><mask id="m" maskUnits="userSpaceOnUse" x="234.4" y="41.6" width="12" height="18" fill="#000"><path fill="#fff" d="M234.4 41.6h12v18h-12z"/><path fill-rule="evenodd" clip-rule="evenodd" d="M241.9 50.5a3.6 3.6 0 10-2.4 0c0 2.9-1.4 6.5-4.1 6.5H246c-2.7 0-4.1-3.6-4.1-6.5z"/></mask><path fill-rule="evenodd" clip-rule="evenodd" d="M241.9 50.5a3.6 3.6 0 10-2.4 0c0 2.9-1.4 6.5-4.1 6.5H246c-2.7 0-4.1-3.6-4.1-6.5z" fill="#5C5C5C"/><path d="M241.9 50.5l-.7-1.8-1.3.4v1.4h2zm-2.4 0h2v-1.4l-1.3-.4-.7 1.8zm2.8-3.3c0 .7-.5 1.2-1 1.5l1.2 3.7a5.6 5.6 0 003.8-5.2h-4zm-1.6-1.6c.9 0 1.6.7 1.6 1.6h4c0-3-2.5-5.6-5.6-5.6v4zm-1.6 1.6c0-.9.7-1.6 1.6-1.6v-4c-3 0-5.6 2.5-5.6 5.6h4zm1 1.5c-.5-.3-1-.8-1-1.5h-4c0 2.4 1.6 4.5 3.8 5.2l1.3-3.7zM235.5 59c2.3 0 4-1.6 4.8-3.2 1-1.6 1.4-3.5 1.3-5.3h-4c0 1.2-.2 2.4-.8 3.3-.5 1-1 1.2-1.3 1.2v4zm10.6-4h-10.6v4H246v-4zm-6.1-4.5c0 1.8.4 3.7 1.3 5.3.9 1.6 2.5 3.2 4.8 3.2v-4c-.3 0-.8-.2-1.3-1.2a7 7 0 01-.8-3.2h-4z" fill="#000" mask="url(#m)"/><path d="M247.8 60.6h1V59a3 3 0 00-3-3h-10.2a3 3 0 00-3 3v1.6h15.2z" fill="#5C5C5C" stroke="#000" stroke-width="2"/><mask id="n" maskUnits="userSpaceOnUse" x="266.4" y="41.6" width="12" height="18" fill="#000"><path fill="#fff" d="M266.4 41.6h12v18h-12z"/><path fill-rule="evenodd" clip-rule="evenodd" d="M273.9 50.5a3.6 3.6 0 10-2.4 0c0 2.9-1.4 6.5-4.1 6.5H278c-2.7 0-4.1-3.6-4.1-6.5z"/></mask><path fill-rule="evenodd" clip-rule="evenodd" d="M273.9 50.5a3.6 3.6 0 10-2.4 0c0 2.9-1.4 6.5-4.1 6.5H278c-2.7 0-4.1-3.6-4.1-6.5z" fill="#5C5C5C"/><path d="M273.9 50.5l-.7-1.8-1.3.4v1.4h2zm-2.4 0h2v-1.4l-1.3-.4-.7 1.8zm2.8-3.3c0 .7-.5 1.2-1 1.5l1.2 3.7a5.6 5.6 0 003.8-5.2h-4zm-1.6-1.6c.9 0 1.6.7 1.6 1.6h4c0-3-2.5-5.6-5.6-5.6v4zm-1.6 1.6c0-.9.7-1.6 1.6-1.6v-4c-3 0-5.6 2.5-5.6 5.6h4zm1 1.5c-.5-.3-1-.8-1-1.5h-4c0 2.4 1.6 4.5 3.8 5.2l1.3-3.7zM267.5 59c2.3 0 4-1.6 4.8-3.2 1-1.6 1.4-3.5 1.3-5.3h-4c0 1.2-.2 2.4-.8 3.3-.5 1-1 1.2-1.3 1.2v4zm10.6-4h-10.6v4H278v-4zm-6.1-4.5c0 1.8.4 3.7 1.3 5.3.9 1.6 2.5 3.2 4.8 3.2v-4c-.3 0-.8-.2-1.3-1.2a7 7 0 01-.8-3.2h-4z" fill="#000" mask="url(#n)"/><path d="M279.8 60.6h1V59a3 3 0 00-3-3h-10.2a3 3 0 00-3 3v1.6h15.2z" fill="#5C5C5C" stroke="#000" stroke-width="2"/></g><defs><clipPath id="clip0"><path fill="#fff" transform="translate(.7 .2)" d="M0 0h320v288H0z"/></clipPath></defs></svg>