<svg width="321" height="288" fill="none" xmlns="http://www.w3.org/2000/svg"><path fill="#FEE6C1" d="M32.74 0h256v256h-256z"/><path d="M32.74 224h32v32h-32v-32zM32.74 96h32v32h-32V96zM32.74 160h32v32h-32v-32zM32.74 32h32v32h-32V32zM64.74 192h32v32h-32v-32zM64.74 64h32v32h-32V64zM64.74 128h32v32h-32v-32zM64.74 0h32v32h-32V0zM160.74 224h32v32h-32v-32zM160.74 96h32v32h-32V96zM160.74 160h32v32h-32v-32zM160.74 32h32v32h-32V32zM192.74 192h32v32h-32v-32zM192.74 64h32v32h-32V64zM192.74 128h32v32h-32v-32zM192.74 0h32v32h-32V0zM96.74 224h32v32h-32v-32zM96.74 96h32v32h-32V96zM96.74 160h32v32h-32v-32zM96.74 32h32v32h-32V32zM128.74 192h32v32h-32v-32zM128.74 64h32v32h-32V64zM128.74 128h32v32h-32v-32zM128.74 0h32v32h-32V0zM224.74 224h32v32h-32v-32zM224.74 96h32v32h-32V96zM224.74 160h32v32h-32v-32zM224.74 32h32v32h-32V32zM256.74 192h32v32h-32v-32zM256.74 64h32v32h-32V64zM256.74 128h32v32h-32v-32zM256.74 0h32v32h-32V0z" fill="#866C4A"/><path d="M14.17 237.36v-2.54h4.43v11.68h-2.85v-9.14h-1.58zM12.8 212.3c.36-.28.53-.41.5-.4a58.94 58.94 0 002.46-2.12c.6-.56 1.12-1.14 1.53-1.74.42-.61.63-1.2.63-1.78 0-.44-.1-.78-.3-1.02-.2-.25-.51-.37-.92-.37-.4 0-.72.15-.96.46-.22.3-.33.73-.33 1.28h-2.64c.02-.9.2-1.66.57-2.27.38-.6.86-1.06 1.46-1.34.6-.3 1.28-.44 2.01-.44 1.27 0 2.23.33 2.87.98.65.65.97 1.5.97 2.54 0 1.14-.39 2.2-1.16 3.19-.78.97-1.77 1.92-2.98 2.85h4.32v2.22H12.8v-2.03zM12.72 174.12a3.52 3.52 0 011.12-2.64c.7-.62 1.66-.93 2.86-.93.8 0 1.48.14 2.05.41a2.95 2.95 0 011.74 2.76c0 .7-.17 1.28-.53 1.72a2.7 2.7 0 01-1.23.9v.06c.61.2 1.09.54 1.44 1.01.35.47.53 1.07.53 1.81a3.07 3.07 0 01-1.8 2.94c-.57.3-1.26.44-2.06.44a4.7 4.7 0 01-3.07-.95c-.75-.63-1.15-1.58-1.2-2.85h2.66c0 .47.14.85.4 1.12.25.27.63.4 1.12.4.41 0 .73-.11.96-.35.23-.24.35-.56.35-.96 0-.51-.16-.88-.5-1.1-.32-.24-.83-.35-1.55-.35h-.51v-2.23h.51c.55 0 .98-.09 1.31-.27.35-.2.52-.53.52-1 0-.4-.11-.7-.32-.9a1.2 1.2 0 00-.88-.32c-.4 0-.71.12-.92.36-.19.25-.3.55-.33.92h-2.67zM12.11 148.42v-2.2l5.06-7.24h3.06v7.07h1.3v2.37h-1.3v2.08h-2.74v-2.08h-5.38zm5.57-6.43L15 146.05h2.7V142zM20.48 108.2H15.5v2.21c.22-.23.51-.42.9-.57.38-.15.8-.23 1.25-.23.8 0 1.46.18 1.98.55.53.36.92.83 1.17 1.4.24.58.37 1.2.37 1.88 0 1.24-.36 2.24-1.06 2.97-.7.73-1.7 1.09-2.98 1.09a5.3 5.3 0 01-2.22-.43c-.63-.3-1.11-.71-1.46-1.23a3.55 3.55 0 01-.55-1.81h2.67c.06.33.22.6.46.83.25.21.58.32 1 .32.51 0 .88-.16 1.13-.48.24-.32.37-.75.37-1.28 0-.52-.13-.92-.39-1.2-.25-.28-.63-.42-1.12-.42-.36 0-.66.1-.9.28-.23.17-.38.4-.46.68h-2.64v-6.96h7.47v2.4zM18.15 76.97a1.6 1.6 0 00-.45-.88c-.21-.2-.52-.3-.91-.3-.61 0-1.05.26-1.32.8-.26.52-.4 1.35-.41 2.5a2.4 2.4 0 011-.89c.45-.2.95-.32 1.48-.32a3.3 3.3 0 012.51 1c.64.66.96 1.58.96 2.76 0 .78-.16 1.47-.48 2.05a3.3 3.3 0 01-1.38 1.38c-.6.33-1.3.5-2.12.5-1.65 0-2.79-.52-3.43-1.54-.64-1.04-.96-2.52-.96-4.45 0-2.03.34-3.53 1.01-4.51.68-1 1.77-1.49 3.26-1.49.8 0 1.48.16 2.02.48.56.3.97.72 1.25 1.23.29.51.46 1.07.51 1.68h-2.54zm-1.27 3.07c-.46 0-.84.14-1.15.42-.3.27-.45.65-.45 1.15 0 .51.14.91.42 1.2.29.29.7.43 1.21.43.47 0 .84-.13 1.1-.41.29-.29.42-.68.42-1.17 0-.5-.13-.9-.4-1.18-.26-.3-.65-.44-1.15-.44zM20.64 43.87l-4.02 9.63h-2.8l4.07-9.33H12.9v-2.33h7.73v2.03zM14.2 16.23c-1-.54-1.5-1.37-1.5-2.51a2.86 2.86 0 011.8-2.7c.6-.3 1.36-.44 2.24-.44.89 0 1.63.14 2.22.43.61.28 1.07.66 1.36 1.14.3.47.45.99.45 1.57a2.83 2.83 0 01-1.5 2.51c.57.28 1.02.66 1.33 1.15.3.48.46 1.05.46 1.7a3.37 3.37 0 01-2.14 3.21c-.65.29-1.38.43-2.18.43-.8 0-1.53-.14-2.2-.43a3.37 3.37 0 01-2.13-3.22 3.04 3.04 0 011.78-2.85zm3.92-2.1c0-.44-.13-.77-.39-1a1.34 1.34 0 00-.99-.37c-.42 0-.75.12-1 .36-.25.25-.38.6-.38 1.03 0 .41.13.74.39.99.25.23.59.35 1 .35.4 0 .73-.12.98-.37.26-.24.39-.57.39-.99zm-1.38 3.28c-.5 0-.9.14-1.22.42-.3.26-.46.64-.46 1.12 0 .45.15.81.45 1.1.3.29.72.43 1.23.43s.91-.14 1.2-.43c.3-.29.45-.65.45-1.1 0-.47-.16-.84-.47-1.12-.3-.28-.69-.42-1.18-.42zM273.83 268.98c1.03 0 1.85.34 2.47 1.02.62.67.93 1.6.93 2.78V278h-2.72v-4.85c0-.6-.16-1.06-.47-1.39-.3-.33-.72-.5-1.25-.5-.52 0-.94.17-1.24.5-.31.33-.47.8-.47 1.4V278h-2.73v-11.84h2.73v4.11c.28-.4.66-.7 1.14-.94a3.62 3.62 0 011.61-.35zM239.7 268.94c.63 0 1.18.13 1.65.39.48.25.84.59 1.1 1v-1.26h2.74v8.91a4.9 4.9 0 01-.5 2.23c-.32.67-.82 1.2-1.49 1.6-.66.4-1.49.59-2.48.59-1.32 0-2.4-.31-3.21-.94a3.51 3.51 0 01-1.41-2.53h2.7c.09.34.29.6.61.8.32.2.72.3 1.18.3.57 0 1.02-.16 1.35-.5.34-.31.51-.83.51-1.55v-1.26a3.1 3.1 0 01-2.75 1.4 3.7 3.7 0 01-3.43-2.17 5.51 5.51 0 01-.5-2.43c0-.92.16-1.72.5-2.42.36-.69.83-1.22 1.43-1.6a3.7 3.7 0 012-.56zm2.75 4.6c0-.69-.2-1.23-.58-1.62-.37-.4-.83-.6-1.37-.6-.55 0-1.01.2-1.4.6a2.2 2.2 0 00-.55 1.6c0 .68.18 1.23.56 1.63.38.4.84.6 1.39.6.54 0 1-.2 1.37-.6.39-.4.58-.93.58-1.61zM211.33 271.34h-1.47V278h-2.74v-6.66h-.99v-2.27h1v-.25c0-1.1.31-1.94.94-2.5.63-.58 1.55-.86 2.77-.86l.44.01v2.32c-.52-.03-.88.04-1.1.23-.21.18-.32.5-.32.97v.08h1.47v2.27zM181.22 273.4c0 .25-.01.52-.05.8h-6.19c.05.55.22.97.53 1.27.32.29.71.43 1.17.43.68 0 1.16-.28 1.42-.86h2.91a3.93 3.93 0 01-.81 1.58c-.39.47-.87.84-1.46 1.1a4.7 4.7 0 01-1.97.4 4.8 4.8 0 01-2.33-.55 3.99 3.99 0 01-1.6-1.6c-.39-.7-.58-1.5-.58-2.43 0-.93.19-1.74.56-2.44.39-.69.92-1.22 1.6-1.6a4.83 4.83 0 012.35-.56c.87 0 1.64.19 2.3.55.68.36 1.2.88 1.58 1.55.38.67.57 1.46.57 2.35zm-2.8-.73c0-.47-.16-.84-.48-1.12a1.77 1.77 0 00-1.2-.41c-.46 0-.85.13-1.17.4-.3.26-.5.64-.57 1.13h3.42zM139.76 273.52c0-.92.17-1.72.51-2.42.36-.69.83-1.22 1.43-1.6a3.7 3.7 0 013.6-.19c.49.25.87.58 1.15 1v-4.15h2.74V278h-2.74v-1.28c-.26.43-.62.77-1.1 1.02-.47.26-1.02.39-1.65.39a3.7 3.7 0 01-3.43-2.18 5.51 5.51 0 01-.5-2.43zm6.69.02c0-.69-.2-1.23-.58-1.62-.37-.4-.83-.6-1.37-.6-.55 0-1.01.2-1.4.6a2.2 2.2 0 00-.55 1.6c0 .68.18 1.23.56 1.63.38.4.84.6 1.39.6.54 0 1-.2 1.37-.6.39-.4.58-.93.58-1.61zM108.35 273.54c0-.93.19-1.74.56-2.44.38-.69.91-1.22 1.58-1.6a4.8 4.8 0 012.34-.56c1.12 0 2.05.3 2.8.88a4.13 4.13 0 011.49 2.48h-2.92c-.24-.68-.72-1.02-1.42-1.02-.5 0-.9.2-1.2.6-.3.38-.45.93-.45 1.66 0 .72.15 1.28.45 1.68.3.38.7.57 1.2.57.7 0 1.18-.34 1.42-1.02h2.92a4.18 4.18 0 01-1.5 2.46c-.75.6-1.68.9-2.8.9a4.8 4.8 0 01-2.33-.56c-.67-.38-1.2-.9-1.58-1.6-.38-.7-.56-1.5-.56-2.43zM79.04 270.34c.26-.42.63-.76 1.1-1.01a3.45 3.45 0 011.65-.39 3.7 3.7 0 013.41 2.16c.35.7.53 1.5.53 2.42 0 .92-.18 1.73-.53 2.43-.34.7-.8 1.23-1.4 1.62a3.7 3.7 0 01-2 .56c-.63 0-1.18-.13-1.65-.37-.47-.26-.84-.6-1.1-1V278H76.3v-11.84h2.73v4.18zm3.9 3.18c0-.68-.19-1.22-.57-1.6-.37-.4-.84-.6-1.4-.6-.54 0-1 .2-1.38.6-.38.4-.56.93-.56 1.62 0 .68.18 1.22.56 1.61.38.4.84.6 1.39.6.54 0 1-.2 1.4-.6.37-.4.57-.95.57-1.63zM43.76 273.52c0-.92.17-1.72.51-2.42.36-.69.83-1.22 1.43-1.6a3.7 3.7 0 012-.56c.63 0 1.18.13 1.65.39.48.25.84.59 1.1 1v-1.26h2.74V278h-2.74v-1.26c-.27.41-.64.75-1.12 1-.47.26-1.02.39-1.65.39-.72 0-1.38-.19-1.98-.56a4.05 4.05 0 01-1.43-1.62 5.5 5.5 0 01-.5-2.43zm6.69.02c0-.69-.2-1.23-.58-1.62-.37-.4-.83-.6-1.37-.6-.55 0-1.01.2-1.4.6a2.2 2.2 0 00-.55 1.6c0 .68.18 1.23.56 1.63.38.4.84.6 1.39.6.54 0 1-.2 1.37-.6.39-.4.58-.93.58-1.61z" fill="#000"/><mask id="a" maskUnits="userSpaceOnUse" x="166.63" y="162.33" width="20" height="25" fill="#000"><path fill="#fff" d="M166.63 162.33h20v25h-20z"/><path fill-rule="evenodd" clip-rule="evenodd" d="M177.32 167.46c.55-.25.93-.82.93-1.5 0-.9-.69-1.63-1.54-1.63a1.6 1.6 0 00-1.55 1.64c0 .68.4 1.27.97 1.51l-6.5 9.39s3.12 7.54 7.09 7.49c3.96-.06 7.27-7.69 7.27-7.69l-6.67-9.2z"/></mask><path fill-rule="evenodd" clip-rule="evenodd" d="M177.32 167.46c.55-.25.93-.82.93-1.5 0-.9-.69-1.63-1.54-1.63a1.6 1.6 0 00-1.55 1.64c0 .68.4 1.27.97 1.51l-6.5 9.39s3.12 7.54 7.09 7.49c3.96-.06 7.27-7.69 7.27-7.69l-6.67-9.2z" fill="#fff"/><path d="M177.32 167.46l-.83-1.81-2.21 1.02 1.43 1.97 1.61-1.18zm-1.2.02l1.65 1.14 1.4-2.02-2.26-.96-.78 1.84zm-6.49 9.39l-1.64-1.14-.62.9.41 1 1.85-.76zm7.09 7.49l.03 2-.03-2zm7.27-7.69l1.84.8.45-1.05-.67-.92-1.62 1.17zm-7.74-10.7c0-.1.06-.24.24-.32l1.67 3.63a3.64 3.64 0 002.1-3.31h-4zm.46.36a.5.5 0 01-.36-.14.33.33 0 01-.1-.22h4c0-1.9-1.48-3.64-3.54-3.64v4zm.45-.36c0 .06-.03.14-.1.22a.5.5 0 01-.35.14v-4a3.59 3.59 0 00-3.55 3.64h4zm-.25-.33c.2.08.25.23.25.33h-4c0 1.46.86 2.78 2.18 3.35l1.57-3.68zm-5.63 12.37l6.5-9.4-3.3-2.27-6.5 9.4 3.3 2.27zm5.41 4.35c-.34 0-.83-.16-1.48-.7a10.4 10.4 0 01-1.87-2.15 21.18 21.18 0 01-1.74-3.14l-.1-.2-.02-.06-1.85.76-1.84.76v.04a5.84 5.84 0 00.16.35 25.77 25.77 0 002.08 3.74c.7 1.02 1.58 2.13 2.64 3a6.33 6.33 0 004.08 1.6l-.06-4zm7.3-5.69l-1.83-.8v.01l-.03.05a23.97 23.97 0 01-1.93 3.43c-.61.88-1.28 1.67-1.95 2.24-.7.57-1.21.75-1.56.76l.06 4a6.57 6.57 0 004.06-1.7c1.06-.88 1.96-2 2.68-3.03a26.63 26.63 0 002.29-4.05l.03-.08.01-.02v-.01l-1.83-.8zm-8.28-8.03l6.66 9.2 3.24-2.34-6.67-9.21-3.23 2.35z" fill="#000" mask="url(#a)"/><path d="M186.52 188.44h1v-2.55a3 3 0 00-3-3h-15.55a3 3 0 00-3 3v2.55h20.55z" fill="#fff" stroke="#000" stroke-width="2"/><path d="M176.75 174.11l3.55-2.67 1.33 1.78-4.88 3.56v-2.67z" fill="#000"/><mask id="b" maskUnits="userSpaceOnUse" x="230.63" y="34.33" width="20" height="25" fill="#000"><path fill="#fff" d="M230.63 34.33h20v25h-20z"/><path fill-rule="evenodd" clip-rule="evenodd" d="M241.32 39.46c.55-.25.93-.82.93-1.5 0-.9-.69-1.63-1.54-1.63-.86 0-1.55.73-1.55 1.64 0 .68.4 1.27.97 1.51l-6.5 9.39s3.12 7.54 7.09 7.49c3.96-.06 7.27-7.69 7.27-7.69l-6.67-9.2z"/></mask><path fill-rule="evenodd" clip-rule="evenodd" d="M241.32 39.46c.55-.25.93-.82.93-1.5 0-.9-.69-1.63-1.54-1.63-.86 0-1.55.73-1.55 1.64 0 .68.4 1.27.97 1.51l-6.5 9.39s3.12 7.54 7.09 7.49c3.96-.06 7.27-7.69 7.27-7.69l-6.67-9.2z" fill="#5C5C5C"/><path d="M241.32 39.46l-.83-1.81-2.21 1.02 1.43 1.97 1.61-1.18zm-1.2.02l1.65 1.14 1.4-2.02-2.26-.96-.78 1.84zm-6.49 9.39L232 47.73l-.62.9.41 1 1.85-.76zm7.09 7.49l.03 2-.03-2zm7.27-7.69l1.84.8.45-1.05-.67-.92-1.62 1.17zm-7.74-10.7c0-.1.06-.24.24-.32l1.67 3.63a3.64 3.64 0 002.1-3.31h-4zm.46.36a.5.5 0 01-.36-.14.33.33 0 01-.1-.22h4c0-1.9-1.48-3.64-3.54-3.64v4zm.45-.36c0 .06-.03.14-.1.22a.5.5 0 01-.35.14v-4a3.59 3.59 0 00-3.55 3.64h4zm-.25-.33c.2.08.25.23.25.33h-4c0 1.46.86 2.78 2.18 3.35l1.57-3.68zm-5.63 12.37l6.5-9.4-3.3-2.27-6.5 9.4 3.3 2.27zm5.41 4.35c-.34 0-.83-.16-1.48-.7a10.4 10.4 0 01-1.87-2.15 21.2 21.2 0 01-1.74-3.14l-.1-.2a2.63 2.63 0 01-.02-.06l-1.85.76-1.84.77v.03a12.96 12.96 0 00.6 1.27c.39.76.94 1.78 1.64 2.82.7 1.02 1.58 2.13 2.64 3a6.33 6.33 0 004.08 1.6l-.06-4zm7.3-5.69l-1.83-.8v.01l-.03.05a15.96 15.96 0 01-.5 1.01c-.34.67-.83 1.55-1.43 2.42a11.4 11.4 0 01-1.95 2.24c-.7.57-1.21.75-1.56.76l.06 4a6.57 6.57 0 004.06-1.7c1.06-.88 1.96-2 2.68-3.03a26.77 26.77 0 002.29-4.05l.03-.08.01-.02v-.01l-1.83-.8zm-8.28-8.03l6.66 9.2 3.24-2.34-6.67-9.21-3.23 2.35z" fill="#000" mask="url(#b)"/><path d="M250.52 60.44h1V57.9a3 3 0 00-3-3h-15.55a3 3 0 00-3 3v2.55h20.55z" fill="#5C5C5C" stroke="#000" stroke-width="2"/><path d="M240.75 46.11l3.55-2.67 1.33 1.78-4.88 3.56V46.1z" fill="#000"/><mask id="c" maskUnits="userSpaceOnUse" x="102.63" y="130.33" width="20" height="25" fill="#000"><path fill="#fff" d="M102.63 130.33h20v25h-20z"/><path fill-rule="evenodd" clip-rule="evenodd" d="M113.33 135.46c.54-.25.92-.82.92-1.5 0-.9-.69-1.63-1.54-1.63a1.6 1.6 0 00-1.55 1.64c0 .68.4 1.27.97 1.51l-6.5 9.39s3.12 7.54 7.09 7.49c3.96-.06 7.27-7.69 7.27-7.69l-6.66-9.2z"/></mask><path fill-rule="evenodd" clip-rule="evenodd" d="M113.33 135.46c.54-.25.92-.82.92-1.5 0-.9-.69-1.63-1.54-1.63a1.6 1.6 0 00-1.55 1.64c0 .68.4 1.27.97 1.51l-6.5 9.39s3.12 7.54 7.09 7.49c3.96-.06 7.27-7.69 7.27-7.69l-6.66-9.2z" fill="#fff"/><path d="M113.33 135.46l-.84-1.81-2.21 1.02 1.43 1.97 1.62-1.18zm-1.2.02l1.64 1.14 1.4-2.02-2.26-.96-.78 1.84zm-6.5 9.39l-1.64-1.14-.62.9.41 1 1.85-.76zm7.09 7.49l.03 2-.03-2zm7.27-7.69l1.84.8.45-1.05-.67-.92-1.62 1.17zm-7.74-10.7c0-.1.06-.24.24-.32l1.67 3.63a3.64 3.64 0 002.1-3.31h-4zm.46.36a.5.5 0 01-.36-.14.33.33 0 01-.1-.22h4c0-1.9-1.48-3.64-3.54-3.64v4zm.45-.36c0 .06-.02.14-.1.22a.5.5 0 01-.35.14v-4a3.59 3.59 0 00-3.55 3.64h4zm-.25-.33c.2.08.25.23.25.33h-4c0 1.46.86 2.78 2.18 3.35l1.57-3.68zm-5.63 12.37l6.5-9.4-3.3-2.27-6.5 9.4 3.3 2.27zm5.41 4.35c-.34 0-.83-.16-1.48-.7a10.4 10.4 0 01-1.87-2.15 21.18 21.18 0 01-1.74-3.14l-.1-.2-.02-.06-1.85.76-1.84.76v.04a5.84 5.84 0 00.16.35 25.77 25.77 0 002.08 3.74c.7 1.02 1.58 2.13 2.64 3a6.33 6.33 0 004.08 1.6l-.06-4zm7.3-5.69l-1.83-.8v.01l-.03.05a23.97 23.97 0 01-1.93 3.43c-.61.88-1.28 1.67-1.95 2.24-.7.57-1.21.75-1.56.76l.06 4a6.57 6.57 0 004.06-1.7c1.06-.88 1.96-2 2.68-3.03a26.63 26.63 0 002.29-4.05l.03-.08.01-.02v-.01l-1.83-.8zm-8.28-8.03l6.66 9.2 3.24-2.34-6.67-9.21-3.23 2.35z" fill="#000" mask="url(#c)"/><path d="M122.52 156.44h1v-2.55a3 3 0 00-3-3h-15.55a3 3 0 00-3 3v2.55h20.55z" fill="#fff" stroke="#000" stroke-width="2"/><path d="M112.75 142.11l3.55-2.67 1.33 1.78-4.88 3.56v-2.67z" fill="#000"/><mask id="d" maskUnits="userSpaceOnUse" x="102.63" y="3.33" width="20" height="25" fill="#000"><path fill="#fff" d="M102.63 3.33h20v25h-20z"/><path fill-rule="evenodd" clip-rule="evenodd" d="M113.33 8.46c.54-.25.92-.82.92-1.5 0-.9-.69-1.63-1.54-1.63-.86 0-1.55.73-1.55 1.64 0 .68.4 1.27.97 1.51l-6.5 9.39s3.12 7.54 7.09 7.49c3.96-.06 7.27-7.69 7.27-7.69l-6.66-9.2z"/></mask><path fill-rule="evenodd" clip-rule="evenodd" d="M113.33 8.46c.54-.25.92-.82.92-1.5 0-.9-.69-1.63-1.54-1.63-.86 0-1.55.73-1.55 1.64 0 .68.4 1.27.97 1.51l-6.5 9.39s3.12 7.54 7.09 7.49c3.96-.06 7.27-7.69 7.27-7.69l-6.66-9.2z" fill="#5C5C5C"/><path d="M113.33 8.46l-.84-1.81-2.21 1.02 1.43 1.97 1.62-1.18zm-1.2.02l1.64 1.14 1.4-2.02-2.26-.96-.78 1.84zm-6.5 9.39L104 16.73l-.62.9.41 1 1.85-.76zm7.09 7.49l.03 2-.03-2zm7.27-7.69l1.84.8.45-1.05-.67-.92-1.62 1.17zm-7.74-10.7c0-.1.06-.24.24-.32l1.67 3.63a3.64 3.64 0 002.1-3.31h-4zm.46.36a.5.5 0 01-.36-.14.33.33 0 01-.1-.22h4c0-1.9-1.48-3.64-3.54-3.64v4zm.45-.36c0 .06-.02.14-.1.22a.5.5 0 01-.35.14v-4a3.59 3.59 0 00-3.55 3.64h4zm-.25-.33c.2.08.25.23.25.33h-4c0 1.46.86 2.78 2.18 3.35l1.57-3.68zm-5.63 12.37l6.5-9.4-3.3-2.27-6.5 9.4 3.3 2.27zm5.41 4.35c-.34 0-.83-.16-1.48-.7a10.4 10.4 0 01-1.87-2.15 21.2 21.2 0 01-1.74-3.14l-.1-.2a2.63 2.63 0 01-.02-.06l-1.85.76-1.84.77v.03a12.96 12.96 0 00.6 1.27c.39.76.94 1.78 1.64 2.82.7 1.02 1.58 2.13 2.64 3a6.33 6.33 0 004.08 1.6l-.06-4zm7.3-5.69l-1.83-.8v.01l-.03.05a15.96 15.96 0 01-.5 1.01c-.34.67-.83 1.55-1.43 2.42a11.4 11.4 0 01-1.95 2.24c-.7.57-1.21.75-1.56.76l.06 4a6.57 6.57 0 004.06-1.7c1.06-.88 1.96-2 2.68-3.03a26.77 26.77 0 002.29-4.05l.03-.08.01-.02v-.01l-1.83-.8zm-8.28-8.03l6.66 9.2 3.24-2.34-6.67-9.21-3.23 2.35z" fill="#000" mask="url(#d)"/><path d="M122.52 29.44h1V26.9a3 3 0 00-3-3h-15.55a3 3 0 00-3 3v2.55h20.55z" fill="#5C5C5C" stroke="#000" stroke-width="2"/><path d="M112.75 15.11l3.55-2.67 1.33 1.78-4.88 3.56V15.1z" fill="#000"/><mask id="e" maskUnits="userSpaceOnUse" x="227.58" y="224.56" width="26" height="26" fill="#000"><path fill="#fff" d="M227.58 224.56h26v26h-26z"/><path fill-rule="evenodd" clip-rule="evenodd" d="M247.85 247.89l2.93-7.98a2 2 0 00-1.02-2.5c-3.55-1.68-5.7-2.62-8.09-2.82V231h2.79v-1.78h-2.79v-2.66h-1.85v2.66h-2.79V231h2.78v3.6c-2.38.19-4.53 1.13-8.09 2.8a2 2 0 00-1.01 2.5l2.92 7.99h14.22zm-8.88-10.72c-1.13.2-2.4.56-4.05 1.1a1.99 1.99 0 00-1.15 2.78l1.64 3.28h3.56v-7.16zm7.6 1.1c-1.66-.54-2.92-.9-4.05-1.1v7.16h3.56l1.64-3.28c.54-1.08 0-2.4-1.16-2.78z"/></mask><path fill-rule="evenodd" clip-rule="evenodd" d="M247.85 247.89l2.93-7.98a2 2 0 00-1.02-2.5c-3.55-1.68-5.7-2.62-8.09-2.82V231h2.79v-1.78h-2.79v-2.66h-1.85v2.66h-2.79V231h2.78v3.6c-2.38.19-4.53 1.13-8.09 2.8a2 2 0 00-1.01 2.5l2.92 7.99h14.22zm-8.88-10.72c-1.13.2-2.4.56-4.05 1.1a1.99 1.99 0 00-1.15 2.78l1.64 3.28h3.56v-7.16zm7.6 1.1c-1.66-.54-2.92-.9-4.05-1.1v7.16h3.56l1.64-3.28c.54-1.08 0-2.4-1.16-2.78z" fill="#fff"/><path d="M239.9 235.59a10.4 10.4 0 011.69 0l.16-2c-.67-.05-1.34-.05-2.02 0l.17 2zm10.88 4.31l1.88.7-1.88-.7zm-2.93 7.99v2h1.4l.48-1.31-1.88-.7zm1.91-10.48l.86-1.8-.86 1.8zm-8.09-2.82h-2v1.85l1.84.15.16-2zm0-3.59v-2h-2v2h2zm2.79 0v2h2v-2h-2zm0-1.78h2v-2h-2v2zm-2.79 0h-2v2h2v-2zm0-2.66h2v-2h-2v2zm-1.85 0v-2h-2v2h2zm0 2.66v2h2v-2h-2zm-2.79 0v-2h-2v2h2zm0 1.78h-2v2h2v-2zm2.78 0h2v-2h-2v2zm0 3.6l.17 1.99 1.84-.15v-1.85h-2zm-8.09 2.8l.86 1.82-.86-1.81zm-1.01 2.5l1.87-.68-1.88.69zm2.92 7.99l-1.88.69.49 1.3h1.4v-2zm1.3-9.62l-.63-1.9.62 1.9zm4.04-1.1h2v-2.37l-2.34.4.34 1.97zm-5.2 3.88l1.79-.9-1.79.9zm1.64 3.28l-1.79.9.55 1.1h1.24v-2zm3.56 0v2h2v-2h-2zm3.55-7.16l.34-1.97-2.34-.4v2.37h2zm4.04 1.1l-.62 1.9.62-1.9zm-4.04 6.06h-2v2h2v-2zm3.56 0v2h1.23l.56-1.1-1.8-.9zm1.64-3.28l1.79.9-1.8-.9zm1.18-1.83l-2.92 7.98 3.75 1.38 2.93-7.99-3.76-1.37zm0 0l3.76 1.37a4 4 0 00-2.04-4.99l-1.71 3.62zm-7.4-2.63c1.97.16 3.8.92 7.4 2.63l1.72-3.62c-3.5-1.66-5.98-2.77-8.79-3l-.32 3.99zm-1.83-5.59v3.6h4V231h-4zm4.79-2h-2.79v4h2.79v-4zm-2 .22V231h4v-1.78h-4zm-.79 2h2.79v-4h-2.79v4zm-2-4.66v2.66h4v-2.66h-4zm.15 2h1.85v-4h-1.85v4zm2 .66v-2.66h-4v2.66h4zm-4.79 2h2.78v-4h-2.78v4zm2-.22v-1.78h-4V231h4zm.78-2h-2.78v4h2.78v-4zm2 5.6V231h-4v3.6h4zm-9.23 4.62c3.61-1.71 5.44-2.47 7.4-2.63l-.33-3.99c-2.8.23-5.28 1.34-8.78 3l1.71 3.62zm0 0l-1.71-3.62a4 4 0 00-2.04 5l3.75-1.38zm2.93 7.98l-2.93-7.98-3.75 1.37 2.92 7.99 3.76-1.38zm12.34-1.31h-14.22v4h14.22v-4zm-12.3-5.72c1.64-.54 2.78-.86 3.75-1.03l-.67-3.94c-1.28.22-2.66.63-4.33 1.17l1.24 3.8zm0-.01v.01l-1.25-3.8a3.99 3.99 0 00-2.32 5.58l3.58-1.8zm1.65 3.28l-1.64-3.28-3.58 1.79 1.64 3.28 3.58-1.8zm1.77-1.1h-3.56v4h3.56v-4zm-2-5.17v7.16h4v-7.16h-4zm5.21 1.97c.97.17 2.12.5 3.76 1.03l1.25-3.8a31.28 31.28 0 00-4.33-1.17l-.68 3.94zm2.34 5.2v-7.17h-4v7.16h4zm1.56-2h-3.56v4h3.56v-4zm-.15-2.18l-1.64 3.28 3.58 1.79 1.64-3.28-3.58-1.8zm.01.01h-.01v-.01l3.58 1.79a3.99 3.99 0 00-2.32-5.58l-1.25 3.8z" fill="#000" mask="url(#e)"/><path d="M250.52 252.44h1v-2.55a3 3 0 00-3-3h-15.55a3 3 0 00-3 3v2.55h20.55z" fill="#fff" stroke="#000" stroke-width="2"/><mask id="f" maskUnits="userSpaceOnUse" x="227.58" y=".56" width="26" height="26" fill="#000"><path fill="#fff" d="M227.58.56h26v26h-26z"/><path fill-rule="evenodd" clip-rule="evenodd" d="M247.85 23.89l2.93-7.99a2 2 0 00-1.02-2.5c-3.55-1.67-5.7-2.61-8.09-2.8V7h2.79V5.22h-2.79V2.56h-1.85v2.66h-2.79V7h2.78v3.6c-2.38.19-4.53 1.13-8.09 2.8a2 2 0 00-1.01 2.5l2.92 7.99h14.22zm-8.88-10.72c-1.13.2-2.4.56-4.05 1.1a1.99 1.99 0 00-1.15 2.78l1.64 3.28h3.56v-7.16zm7.6 1.1c-1.66-.54-2.92-.9-4.05-1.1v7.16h3.56l1.64-3.28c.54-1.08 0-2.4-1.16-2.78z"/></mask><path fill-rule="evenodd" clip-rule="evenodd" d="M247.85 23.89l2.93-7.99a2 2 0 00-1.02-2.5c-3.55-1.67-5.7-2.61-8.09-2.8V7h2.79V5.22h-2.79V2.56h-1.85v2.66h-2.79V7h2.78v3.6c-2.38.19-4.53 1.13-8.09 2.8a2 2 0 00-1.01 2.5l2.92 7.99h14.22zm-8.88-10.72c-1.13.2-2.4.56-4.05 1.1a1.99 1.99 0 00-1.15 2.78l1.64 3.28h3.56v-7.16zm7.6 1.1c-1.66-.54-2.92-.9-4.05-1.1v7.16h3.56l1.64-3.28c.54-1.08 0-2.4-1.16-2.78z" fill="#5C5C5C"/><path d="M239.9 11.59c.56-.05 1.12-.05 1.69 0l.16-2c-.67-.05-1.34-.05-2.02 0l.17 2zm10.88 4.31l1.88.7-1.88-.7zm-2.93 7.99v2h1.4l.48-1.31-1.88-.7zm1.91-10.48l.86-1.8-.86 1.8zm-8.09-2.82h-2v1.85l1.84.15.16-2zm0-3.59V5h-2v2h2zm2.79 0v2h2V7h-2zm0-1.78h2v-2h-2v2zm-2.79 0h-2v2h2v-2zm0-2.66h2v-2h-2v2zm-1.85 0v-2h-2v2h2zm0 2.66v2h2v-2h-2zm-2.79 0v-2h-2v2h2zm0 1.78h-2v2h2V7zm2.78 0h2V5h-2v2zm0 3.6l.17 1.99 1.84-.15v-1.85h-2zm-8.09 2.8l.86 1.82-.86-1.81zm-1.01 2.5l1.87-.68-1.88.68zm2.92 7.99l-1.88.69.49 1.3h1.4v-2zm1.3-9.62l-.63-1.9.62 1.9zm4.04-1.1h2V10.8l-2.34.4.34 1.97zm-5.2 3.88l1.79-.9-1.79.9zm1.64 3.28l-1.79.9.55 1.1h1.24v-2zm3.56 0v2h2v-2h-2zm3.55-7.16l.34-1.97-2.34-.4v2.37h2zm4.04 1.1l.63-1.9-.63 1.9zm-4.04 6.06h-2v2h2v-2zm3.56 0v2h1.23l.56-1.1-1.8-.9zm1.64-3.28l1.79.9-1.8-.9zm1.18-1.83l-2.92 7.98 3.75 1.38 2.93-7.99-3.76-1.37zm0 0l3.76 1.37a4 4 0 00-2.04-4.99l-1.71 3.62zm-7.4-2.63c1.97.16 3.8.92 7.4 2.63l1.72-3.62c-3.5-1.66-5.98-2.77-8.79-3l-.32 3.99zM239.68 7v3.6h4V7h-4zm4.79-2h-2.79v4h2.79V5zm-2 .22V7h4V5.22h-4zm-.79 2h2.79v-4h-2.79v4zm-2-4.66v2.66h4V2.56h-4zm.15 2h1.85v-4h-1.85v4zm2 .66V2.56h-4v2.66h4zm-4.79 2h2.78v-4h-2.78v4zm2-.22V5.22h-4V7h4zm.78-2h-2.78v4h2.78V5zm2 5.6V7h-4v3.6h4zm-9.23 4.62c3.61-1.71 5.44-2.47 7.4-2.63l-.33-3.99c-2.8.23-5.28 1.34-8.78 3l1.71 3.62zm0 0l-1.71-3.62a4 4 0 00-2.04 5l3.75-1.38zm2.93 7.98l-2.93-7.98-3.75 1.37 2.92 7.99 3.76-1.38zm12.34-1.31h-14.22v4h14.22v-4zm-12.3-5.72a27.6 27.6 0 013.75-1.03l-.67-3.94a31.3 31.3 0 00-4.33 1.17l1.24 3.8zm0-.01v.01l-1.25-3.8a3.99 3.99 0 00-2.32 5.58l3.58-1.8zm1.65 3.28l-1.64-3.28-3.58 1.79 1.64 3.28 3.58-1.8zm1.77-1.1h-3.56v4h3.56v-4zm-2-5.17v7.16h4v-7.16h-4zm5.21 1.97c.97.17 2.12.5 3.76 1.03l1.25-3.8a31.3 31.3 0 00-4.33-1.17l-.68 3.94zm2.34 5.2v-7.17h-4v7.16h4zm1.56-2h-3.56v4h3.56v-4zm-.15-2.18l-1.64 3.28 3.58 1.79 1.64-3.28-3.58-1.8zm.01.01h-.01v-.01l3.58 1.79a3.99 3.99 0 00-2.32-5.58l-1.25 3.8z" fill="#000" mask="url(#f)"/><path d="M250.52 28.44h1V25.9a3 3 0 00-3-3h-15.55a3 3 0 00-3 3v2.55h20.55z" fill="#5C5C5C" stroke="#000" stroke-width="2"/><path d="M116.53 184h.53l.3-.45-.83-.55.83.55h0l.01-.02.03-.04.1-.15a29.16 29.16 0 001.43-2.53 28.52 28.52 0 002.4-6.06c.53-2.2.7-4.64-.4-6.57-1.16-2.02-3.5-3.15-7.14-3.16h-.03a.4.4 0 01-.13-.06s0 0 0 0c-.03-.01-.2-.11-.2-.63v-1h-1c-.5 0-.95.28-1.18.46-.29.2-.56.46-.78.69a11.5 11.5 0 00-.73.81l-2.59 1.9-.15.12-.1.16-2.73 4.41-.24.4.14.44 1 3.04.42 1.28 1.1-.78 2.31-1.62 1.7-1.13c.88.3 1.25.67 1.4.87l.07.1-.05.1a16.5 16.5 0 01-3.55 4.57 3.17 3.17 0 00-.66 3.95l.24.41.3.49h8.18z" fill="#fff" stroke="#000" stroke-width="2"/><path d="M122.52 188.44h1v-2.55a3 3 0 00-3-3h-15.55a3 3 0 00-3 3v2.55h20.55z" fill="#fff" stroke="#000" stroke-width="2"/><path d="M108.3 168.78l.89-.45v.34a1 1 0 01-1 1h-.33l.44-.9z" fill="#000"/><path d="M244.53 152h.53l.3-.45-.84-.55.84.55h0l.01-.02.03-.04.1-.15a29.16 29.16 0 001.43-2.53 28.52 28.52 0 002.4-6.06c.53-2.2.7-4.64-.4-6.57-1.16-2.02-3.5-3.15-7.14-3.16h-.03a.4.4 0 01-.13-.06s0 0 0 0c-.03-.01-.2-.11-.2-.63v-1h-1c-.5 0-.94.28-1.18.46-.29.2-.56.46-.78.69a11.5 11.5 0 00-.73.81l-2.59 1.9-.15.12-.1.16-2.73 4.41-.24.4.14.44 1 3.04.42 1.28 1.1-.78 2.31-1.62 1.7-1.13c.88.3 1.25.67 1.4.87l.07.1-.05.1a16.5 16.5 0 01-3.54 4.57 3.17 3.17 0 00-.67 3.95l.24.41.3.49h8.18z" fill="#5C5C5C" stroke="#000" stroke-width="2"/><path d="M250.52 156.44h1v-2.55a3 3 0 00-3-3h-15.55a3 3 0 00-3 3v2.55h20.55z" fill="#5C5C5C" stroke="#000" stroke-width="2"/><path d="M236.3 136.78l.89-.45v.34a1 1 0 01-1 1h-.34l.45-.9z" fill="#000"/><path d="M76.74 236.22h-.88l-.1.88-1.34 10.66-.14 1.13h12.98l-.2-1.17-1.77-10.66-.14-.84h-8.41z" fill="#fff" stroke="#000" stroke-width="2"/><path d="M73.63 229.11h-1v9.11h16.23v-9.1h-3.13l-.24.65-1.18 3.23h-1.03l-.86-3.15-.2-.74h-2.95l-.2.74-.87 3.15h-1.02l-1.19-3.23-.24-.66h-2.12zM90.52 252.44h1v-2.55a3 3 0 00-3-3H72.97a3 3 0 00-3 3v2.55h20.55z" fill="#fff" stroke="#000" stroke-width="2"/><path d="M44.74 13.22h-.88l-.1.88-1.34 10.66-.14 1.13h12.98l-.2-1.17-1.77-10.66-.14-.84h-8.41z" fill="#5C5C5C" stroke="#000" stroke-width="2"/><path d="M41.63 6.11h-1v9.11h16.22v-9.1h-3.12l-.24.65L52.31 10h-1.03l-.86-3.15-.2-.74h-2.95l-.2.74L46.2 10h-1.02l-1.19-3.23-.24-.66h-2.12zM58.52 29.44h1V26.9a3 3 0 00-3-3H40.97a3 3 0 00-3 3v2.55h20.55zM140.74 12.22h-.88l-.1.88-1.34 10.66-.14 1.13h12.98l-.2-1.17-1.78-10.66-.13-.84h-8.41z" fill="#5C5C5C" stroke="#000" stroke-width="2"/><path d="M137.63 5.11h-1v9.11h16.22v-9.1h-3.12l-.24.65L148.31 9h-1.03l-.86-3.15-.2-.74h-2.95l-.2.74L142.2 9h-1.02l-1.19-3.23-.24-.66h-2.12zM154.52 28.44h1V25.9a3 3 0 00-3-3h-15.55a3 3 0 00-3 3v2.55h20.55z" fill="#5C5C5C" stroke="#000" stroke-width="2"/><path d="M204.74 236.22h-.88l-.1.88-1.34 10.66-.14 1.13h12.98l-.2-1.17-1.78-10.66-.13-.84h-8.41z" fill="#fff" stroke="#000" stroke-width="2"/><path d="M201.63 229.11h-1v9.11h16.22v-9.1h-3.12l-.24.65-1.18 3.23h-1.03l-.86-3.15-.2-.74h-2.95l-.2.74-.87 3.15h-1.02l-1.19-3.23-.24-.66h-2.12zM218.52 252.44h1v-2.55a3 3 0 00-3-3h-15.55a3 3 0 00-3 3v2.55h20.55z" fill="#fff" stroke="#000" stroke-width="2"/><mask id="g" maskUnits="userSpaceOnUse" x="42.41" y="169.44" width="12" height="18" fill="#000"><path fill="#fff" d="M42.41 169.44h12v18h-12z"/><path fill-rule="evenodd" clip-rule="evenodd" d="M49.91 178.36a3.56 3.56 0 10-2.32 0c.03 2.85-1.48 6.42-4.18 6.42h10.67c-2.7 0-4.18-3.59-4.17-6.42z"/></mask><path fill-rule="evenodd" clip-rule="evenodd" d="M49.91 178.36a3.56 3.56 0 10-2.32 0c.03 2.85-1.48 6.42-4.18 6.42h10.67c-2.7 0-4.18-3.59-4.17-6.42z" fill="#fff"/><path d="M49.91 178.36l-.66-1.89-1.33.46v1.42h2zm-2.32 0l2-.01-.01-1.42-1.34-.46-.65 1.9zm2.7-3.36c0 .68-.42 1.26-1.04 1.47l1.32 3.78A5.56 5.56 0 0054.3 175h-4zm-1.55-1.56c.86 0 1.56.7 1.56 1.56h4a5.56 5.56 0 00-5.56-5.56v4zM47.2 175c0-.86.7-1.56 1.55-1.56v-4A5.56 5.56 0 0043.2 175h4zm1.05 1.47a1.56 1.56 0 01-1.05-1.47h-4c0 2.44 1.57 4.5 3.75 5.26l1.3-3.79zm-4.83 10.3c2.36 0 3.95-1.57 4.85-3.14.9-1.59 1.35-3.55 1.33-5.28l-4 .03a6.84 6.84 0 01-.8 3.27c-.53.92-1.04 1.13-1.38 1.13v4zm10.67-4H43.4v4h10.67v-4zm-6.17-4.42c0 1.72.43 3.68 1.33 5.27.89 1.57 2.47 3.16 4.84 3.16v-4c-.33 0-.83-.2-1.36-1.13a6.96 6.96 0 01-.8-3.28l-4-.02z" fill="#000" mask="url(#g)"/><path d="M55.85 188.44h1V186.78a3 3 0 00-3-3H43.63a3 3 0 00-3 3V188.44h15.22z" fill="#fff" stroke="#000" stroke-width="2"/><mask id="h" maskUnits="userSpaceOnUse" x="74.41" y="137.44" width="12" height="18" fill="#000"><path fill="#fff" d="M74.41 137.44h12v18h-12z"/><path fill-rule="evenodd" clip-rule="evenodd" d="M81.91 146.36a3.56 3.56 0 10-2.32 0c.03 2.85-1.48 6.42-4.18 6.42h10.67c-2.7 0-4.18-3.59-4.17-6.42z"/></mask><path fill-rule="evenodd" clip-rule="evenodd" d="M81.91 146.36a3.56 3.56 0 10-2.32 0c.03 2.85-1.48 6.42-4.18 6.42h10.67c-2.7 0-4.18-3.59-4.17-6.42z" fill="#fff"/><path d="M81.91 146.36l-.66-1.89-1.33.46v1.42h2zm-2.32 0l2-.01-.01-1.42-1.34-.46-.65 1.9zm2.7-3.36c0 .68-.42 1.26-1.04 1.47l1.32 3.78A5.56 5.56 0 0086.3 143h-4zm-1.55-1.56c.86 0 1.56.7 1.56 1.56h4a5.56 5.56 0 00-5.56-5.56v4zM79.2 143c0-.86.7-1.56 1.55-1.56v-4A5.56 5.56 0 0075.2 143h4zm1.05 1.47a1.56 1.56 0 01-1.05-1.47h-4c0 2.44 1.57 4.5 3.75 5.26l1.3-3.79zm-4.83 10.3c2.36 0 3.95-1.57 4.85-3.14.9-1.59 1.35-3.55 1.33-5.28l-4 .03a6.84 6.84 0 01-.8 3.27c-.53.92-1.04 1.13-1.38 1.13v4zm10.67-4H75.4v4h10.67v-4zm-6.17-4.42c0 1.72.43 3.68 1.33 5.27.89 1.57 2.47 3.16 4.84 3.16v-4c-.33 0-.83-.2-1.36-1.13a6.96 6.96 0 01-.8-3.28l-4-.02z" fill="#000" mask="url(#h)"/><path d="M87.86 156.44h1V154.78a3 3 0 00-3-3H75.63a3 3 0 00-3 3V156.44h15.23z" fill="#fff" stroke="#000" stroke-width="2"/><mask id="i" maskUnits="userSpaceOnUse" x="106.41" y="201.44" width="12" height="18" fill="#000"><path fill="#fff" d="M106.41 201.44h12v18h-12z"/><path fill-rule="evenodd" clip-rule="evenodd" d="M113.91 210.36a3.56 3.56 0 10-2.32 0c.03 2.85-1.48 6.42-4.18 6.42h10.67c-2.7 0-4.18-3.59-4.17-6.42z"/></mask><path fill-rule="evenodd" clip-rule="evenodd" d="M113.91 210.36a3.56 3.56 0 10-2.32 0c.03 2.85-1.48 6.42-4.18 6.42h10.67c-2.7 0-4.18-3.59-4.17-6.42z" fill="#fff"/><path d="M113.91 210.36l-.66-1.89-1.33.46v1.42h2zm-2.32 0l2-.01-.01-1.42-1.34-.46-.65 1.9zm2.7-3.36c0 .68-.43 1.26-1.04 1.47l1.32 3.78a5.56 5.56 0 003.73-5.25h-4zm-1.55-1.56c.86 0 1.56.7 1.56 1.56h4a5.56 5.56 0 00-5.56-5.56v4zM111.2 207c0-.86.7-1.56 1.55-1.56v-4a5.56 5.56 0 00-5.55 5.56h4zm1.05 1.47a1.56 1.56 0 01-1.05-1.47h-4c0 2.44 1.57 4.5 3.75 5.26l1.3-3.79zm-4.83 10.3c2.36 0 3.95-1.57 4.85-3.14.9-1.59 1.34-3.55 1.33-5.28l-4 .03a6.84 6.84 0 01-.8 3.27c-.53.92-1.04 1.13-1.38 1.13v4zm10.67-4H107.4v4h10.67v-4zm-6.17-4.42c0 1.72.43 3.68 1.33 5.27.89 1.57 2.48 3.16 4.84 3.16v-4c-.33 0-.83-.2-1.36-1.13a6.96 6.96 0 01-.8-3.28l-4-.02z" fill="#000" mask="url(#i)"/><path d="M119.86 220.44h1V218.78a3 3 0 00-3-3h-10.23a3 3 0 00-3 3V220.44h15.23z" fill="#fff" stroke="#000" stroke-width="2"/><mask id="j" maskUnits="userSpaceOnUse" x="234.41" y="201.44" width="12" height="18" fill="#000"><path fill="#fff" d="M234.41 201.44h12v18h-12z"/><path fill-rule="evenodd" clip-rule="evenodd" d="M241.91 210.36a3.56 3.56 0 10-2.32 0c.03 2.85-1.48 6.42-4.18 6.42h10.67c-2.7 0-4.18-3.59-4.17-6.42z"/></mask><path fill-rule="evenodd" clip-rule="evenodd" d="M241.91 210.36a3.56 3.56 0 10-2.32 0c.03 2.85-1.48 6.42-4.18 6.42h10.67c-2.7 0-4.18-3.59-4.17-6.42z" fill="#fff"/><path d="M241.91 210.36l-.66-1.89-1.33.46v1.42h2zm-2.32 0l2-.01-.01-1.42-1.34-.46-.65 1.9zm2.7-3.36c0 .68-.42 1.26-1.03 1.47l1.3 3.78a5.56 5.56 0 003.74-5.25h-4zm-1.55-1.56c.86 0 1.56.7 1.56 1.56h4a5.56 5.56 0 00-5.56-5.56v4zM239.2 207c0-.86.7-1.56 1.55-1.56v-4a5.56 5.56 0 00-5.55 5.56h4zm1.05 1.47a1.56 1.56 0 01-1.05-1.47h-4c0 2.44 1.57 4.5 3.75 5.26l1.3-3.79zm-4.83 10.3c2.36 0 3.95-1.57 4.85-3.14.9-1.59 1.34-3.55 1.33-5.28l-4 .03a6.84 6.84 0 01-.8 3.27c-.53.92-1.04 1.13-1.38 1.13v4zm10.67-4H235.4v4h10.67v-4zm-6.17-4.42c0 1.72.43 3.68 1.33 5.27.88 1.57 2.47 3.16 4.84 3.16v-4c-.33 0-.83-.2-1.36-1.13a6.96 6.96 0 01-.8-3.28l-4-.02z" fill="#000" mask="url(#j)"/><path d="M247.85 220.44h1V218.78a3 3 0 00-3-3h-10.22a3 3 0 00-3 3V220.44h15.22z" fill="#fff" stroke="#000" stroke-width="2"/><mask id="k" maskUnits="userSpaceOnUse" x="202.41" y="137.44" width="12" height="18" fill="#000"><path fill="#fff" d="M202.41 137.44h12v18h-12z"/><path fill-rule="evenodd" clip-rule="evenodd" d="M209.91 146.36a3.56 3.56 0 10-2.32 0c.03 2.85-1.48 6.42-4.18 6.42h10.67c-2.7 0-4.18-3.59-4.17-6.42z"/></mask><path fill-rule="evenodd" clip-rule="evenodd" d="M209.91 146.36a3.56 3.56 0 10-2.32 0c.03 2.85-1.48 6.42-4.18 6.42h10.67c-2.7 0-4.18-3.59-4.17-6.42z" fill="#fff"/><path d="M209.91 146.36l-.66-1.89-1.33.46v1.42h2zm-2.32 0l2-.01-.01-1.42-1.34-.46-.65 1.9zm2.7-3.36c0 .68-.42 1.26-1.03 1.47l1.3 3.78a5.56 5.56 0 003.74-5.25h-4zm-1.55-1.56c.86 0 1.56.7 1.56 1.56h4a5.56 5.56 0 00-5.56-5.56v4zM207.2 143c0-.86.7-1.56 1.55-1.56v-4a5.56 5.56 0 00-5.55 5.56h4zm1.05 1.47a1.56 1.56 0 01-1.05-1.47h-4c0 2.44 1.57 4.5 3.75 5.26l1.3-3.79zm-4.83 10.3c2.36 0 3.95-1.57 4.85-3.14.9-1.59 1.34-3.55 1.33-5.28l-4 .03a6.84 6.84 0 01-.8 3.27c-.53.92-1.04 1.13-1.38 1.13v4zm10.67-4H203.4v4h10.67v-4zm-6.17-4.42c0 1.72.43 3.68 1.33 5.27.88 1.57 2.47 3.16 4.84 3.16v-4c-.33 0-.83-.2-1.36-1.13a6.96 6.96 0 01-.8-3.28l-4-.02z" fill="#000" mask="url(#k)"/><path d="M215.85 156.44h1V154.78a3 3 0 00-3-3h-10.22a3 3 0 00-3 3V156.44h15.22z" fill="#fff" stroke="#000" stroke-width="2"/><mask id="l" maskUnits="userSpaceOnUse" x="202.41" y="41.44" width="12" height="18" fill="#000"><path fill="#fff" d="M202.41 41.44h12v18h-12z"/><path fill-rule="evenodd" clip-rule="evenodd" d="M209.91 50.36a3.56 3.56 0 10-2.32 0c.03 2.85-1.48 6.42-4.18 6.42h10.67c-2.7 0-4.18-3.59-4.17-6.42z"/></mask><path fill-rule="evenodd" clip-rule="evenodd" d="M209.91 50.36a3.56 3.56 0 10-2.32 0c.03 2.85-1.48 6.42-4.18 6.42h10.67c-2.7 0-4.18-3.59-4.17-6.42z" fill="#5C5C5C"/><path d="M209.91 50.36l-.66-1.89-1.33.46v1.42h2zm-2.32 0l2-.01-.01-1.42-1.34-.46-.65 1.9zm2.7-3.36c0 .68-.42 1.26-1.03 1.47l1.3 3.78A5.56 5.56 0 00214.3 47h-4zm-1.55-1.56c.86 0 1.56.7 1.56 1.56h4a5.56 5.56 0 00-5.56-5.56v4zM207.2 47c0-.86.7-1.56 1.55-1.56v-4A5.56 5.56 0 00203.2 47h4zm1.05 1.47a1.56 1.56 0 01-1.05-1.47h-4c0 2.44 1.57 4.5 3.75 5.26l1.3-3.79zm-4.83 10.3c2.36 0 3.95-1.57 4.85-3.14.9-1.59 1.34-3.55 1.33-5.28l-4 .03a6.83 6.83 0 01-.8 3.27c-.53.92-1.04 1.13-1.38 1.13v4zm10.67-4H203.4v4h10.67v-4zm-6.17-4.42c0 1.72.43 3.68 1.33 5.27.88 1.57 2.47 3.16 4.84 3.16v-4c-.33 0-.83-.2-1.36-1.13a6.96 6.96 0 01-.8-3.28l-4-.02z" fill="#000" mask="url(#l)"/><path d="M215.85 60.44h1V58.78a3 3 0 00-3-3h-10.22a3 3 0 00-3 3V60.44h15.22z" fill="#5C5C5C" stroke="#000" stroke-width="2"/><mask id="m" maskUnits="userSpaceOnUse" x="234.41" y="73.44" width="12" height="18" fill="#000"><path fill="#fff" d="M234.41 73.44h12v18h-12z"/><path fill-rule="evenodd" clip-rule="evenodd" d="M241.91 82.36a3.56 3.56 0 10-2.32 0c.03 2.85-1.48 6.42-4.18 6.42h10.67c-2.7 0-4.18-3.59-4.17-6.42z"/></mask><path fill-rule="evenodd" clip-rule="evenodd" d="M241.91 82.36a3.56 3.56 0 10-2.32 0c.03 2.85-1.48 6.42-4.18 6.42h10.67c-2.7 0-4.18-3.59-4.17-6.42z" fill="#5C5C5C"/><path d="M241.91 82.36l-.66-1.89-1.33.46v1.42h2zm-2.32 0l2-.01-.01-1.42-1.34-.46-.65 1.9zm2.7-3.36c0 .68-.42 1.26-1.03 1.47l1.3 3.78A5.56 5.56 0 00246.3 79h-4zm-1.55-1.56c.86 0 1.56.7 1.56 1.56h4a5.56 5.56 0 00-5.56-5.56v4zM239.2 79c0-.86.7-1.56 1.55-1.56v-4A5.56 5.56 0 00235.2 79h4zm1.05 1.47a1.56 1.56 0 01-1.05-1.47h-4c0 2.44 1.57 4.5 3.75 5.26l1.3-3.79zm-4.83 10.3c2.36 0 3.95-1.57 4.85-3.14.9-1.59 1.34-3.55 1.33-5.28l-4 .03a6.83 6.83 0 01-.8 3.27c-.53.92-1.04 1.13-1.38 1.13v4zm10.67-4H235.4v4h10.67v-4zm-6.17-4.42c0 1.72.43 3.68 1.33 5.27.88 1.57 2.47 3.16 4.84 3.16v-4c-.33 0-.83-.2-1.36-1.13a6.96 6.96 0 01-.8-3.28l-4-.02z" fill="#000" mask="url(#m)"/><path d="M247.85 92.44h1V90.78a3 3 0 00-3-3h-10.22a3 3 0 00-3 3V92.44h15.22z" fill="#5C5C5C" stroke="#000" stroke-width="2"/><mask id="n" maskUnits="userSpaceOnUse" x="266.41" y="41.44" width="12" height="18" fill="#000"><path fill="#fff" d="M266.41 41.44h12v18h-12z"/><path fill-rule="evenodd" clip-rule="evenodd" d="M273.91 50.36a3.56 3.56 0 10-2.32 0c.03 2.85-1.48 6.42-4.18 6.42h10.67c-2.7 0-4.18-3.59-4.17-6.42z"/></mask><path fill-rule="evenodd" clip-rule="evenodd" d="M273.91 50.36a3.56 3.56 0 10-2.32 0c.03 2.85-1.48 6.42-4.18 6.42h10.67c-2.7 0-4.18-3.59-4.17-6.42z" fill="#5C5C5C"/><path d="M273.91 50.36l-.66-1.89-1.33.46v1.42h2zm-2.32 0l2-.01-.01-1.42-1.34-.46-.65 1.9zm2.7-3.36c0 .68-.43 1.26-1.04 1.47l1.32 3.78A5.56 5.56 0 00278.3 47h-4zm-1.55-1.56c.86 0 1.56.7 1.56 1.56h4a5.56 5.56 0 00-5.56-5.56v4zM271.2 47c0-.86.7-1.56 1.55-1.56v-4A5.56 5.56 0 00267.2 47h4zm1.05 1.47a1.56 1.56 0 01-1.05-1.47h-4c0 2.44 1.57 4.5 3.75 5.26l1.3-3.79zm-4.83 10.3c2.36 0 3.95-1.57 4.85-3.14.9-1.59 1.35-3.55 1.33-5.28l-4 .03a6.83 6.83 0 01-.8 3.27c-.53.92-1.04 1.13-1.38 1.13v4zm10.67-4H267.4v4h10.67v-4zm-6.17-4.42c0 1.72.43 3.68 1.33 5.27.88 1.57 2.47 3.16 4.84 3.16v-4c-.33 0-.83-.2-1.36-1.13a6.96 6.96 0 01-.8-3.28l-4-.02z" fill="#000" mask="url(#n)"/><path d="M279.86 60.44h1V58.78a3 3 0 00-3-3h-10.23a3 3 0 00-3 3V60.44h15.23z" fill="#5C5C5C" stroke="#000" stroke-width="2"/><mask id="o" maskUnits="userSpaceOnUse" x="170.41" y="41.44" width="12" height="18" fill="#000"><path fill="#fff" d="M170.41 41.44h12v18h-12z"/><path fill-rule="evenodd" clip-rule="evenodd" d="M177.91 50.36a3.56 3.56 0 10-2.32 0c.03 2.85-1.48 6.42-4.18 6.42h10.67c-2.7 0-4.18-3.59-4.17-6.42z"/></mask><path fill-rule="evenodd" clip-rule="evenodd" d="M177.91 50.36a3.56 3.56 0 10-2.32 0c.03 2.85-1.48 6.42-4.18 6.42h10.67c-2.7 0-4.18-3.59-4.17-6.42z" fill="#5C5C5C"/><path d="M177.91 50.36l-.66-1.89-1.33.46v1.42h2zm-2.32 0l2-.01-.01-1.42-1.34-.46-.65 1.9zm2.7-3.36c0 .68-.42 1.26-1.03 1.47l1.3 3.78A5.56 5.56 0 00182.3 47h-4zm-1.55-1.56c.86 0 1.56.7 1.56 1.56h4a5.56 5.56 0 00-5.56-5.56v4zM175.2 47c0-.86.7-1.56 1.55-1.56v-4A5.56 5.56 0 00171.2 47h4zm1.05 1.47a1.56 1.56 0 01-1.05-1.47h-4c0 2.44 1.57 4.5 3.75 5.26l1.3-3.79zm-4.83 10.3c2.36 0 3.95-1.57 4.85-3.14.9-1.59 1.34-3.55 1.33-5.28l-4 .03a6.83 6.83 0 01-.8 3.27c-.53.92-1.04 1.13-1.38 1.13v4zm10.67-4H171.4v4h10.67v-4zm-6.17-4.42c0 1.72.43 3.68 1.33 5.27.88 1.57 2.47 3.16 4.84 3.16v-4c-.33 0-.83-.2-1.36-1.13a6.96 6.96 0 01-.8-3.28l-4-.02z" fill="#000" mask="url(#o)"/><path d="M183.85 60.44h1V58.78a3 3 0 00-3-3h-10.22a3 3 0 00-3 3V60.44h15.22z" fill="#5C5C5C" stroke="#000" stroke-width="2"/><mask id="p" maskUnits="userSpaceOnUse" x="106.41" y="73.44" width="12" height="18" fill="#000"><path fill="#fff" d="M106.41 73.44h12v18h-12z"/><path fill-rule="evenodd" clip-rule="evenodd" d="M113.91 82.36a3.56 3.56 0 10-2.32 0c.03 2.85-1.48 6.42-4.18 6.42h10.67c-2.7 0-4.18-3.59-4.17-6.42z"/></mask><path fill-rule="evenodd" clip-rule="evenodd" d="M113.91 82.36a3.56 3.56 0 10-2.32 0c.03 2.85-1.48 6.42-4.18 6.42h10.67c-2.7 0-4.18-3.59-4.17-6.42z" fill="#5C5C5C"/><path d="M113.91 82.36l-.66-1.89-1.33.46v1.42h2zm-2.32 0l2-.01-.01-1.42-1.34-.46-.65 1.9zm2.7-3.36c0 .68-.43 1.26-1.04 1.47l1.32 3.78A5.56 5.56 0 00118.3 79h-4zm-1.55-1.56c.86 0 1.56.7 1.56 1.56h4a5.56 5.56 0 00-5.56-5.56v4zM111.2 79c0-.86.7-1.56 1.55-1.56v-4A5.56 5.56 0 00107.2 79h4zm1.05 1.47a1.56 1.56 0 01-1.05-1.47h-4c0 2.44 1.57 4.5 3.75 5.26l1.3-3.79zm-4.83 10.3c2.36 0 3.95-1.57 4.85-3.14.9-1.59 1.34-3.55 1.33-5.28l-4 .03a6.83 6.83 0 01-.8 3.27c-.53.92-1.04 1.13-1.38 1.13v4zm10.67-4H107.4v4h10.67v-4zm-6.17-4.42c0 1.72.43 3.68 1.33 5.27.89 1.57 2.48 3.16 4.84 3.16v-4c-.33 0-.83-.2-1.36-1.13a6.96 6.96 0 01-.8-3.28l-4-.02z" fill="#000" mask="url(#p)"/><path d="M119.86 92.44h1V90.78a3 3 0 00-3-3h-10.23a3 3 0 00-3 3V92.44h15.23z" fill="#5C5C5C" stroke="#000" stroke-width="2"/><mask id="q" maskUnits="userSpaceOnUse" x="42.41" y="41.44" width="12" height="18" fill="#000"><path fill="#fff" d="M42.41 41.44h12v18h-12z"/><path fill-rule="evenodd" clip-rule="evenodd" d="M49.91 50.36a3.56 3.56 0 10-2.32 0c.03 2.85-1.48 6.42-4.18 6.42h10.67c-2.7 0-4.18-3.59-4.17-6.42z"/></mask><path fill-rule="evenodd" clip-rule="evenodd" d="M49.91 50.36a3.56 3.56 0 10-2.32 0c.03 2.85-1.48 6.42-4.18 6.42h10.67c-2.7 0-4.18-3.59-4.17-6.42z" fill="#5C5C5C"/><path d="M49.91 50.36l-.66-1.89-1.33.46v1.42h2zm-2.32 0l2-.01-.01-1.42-1.34-.46-.65 1.9zm2.7-3.36c0 .68-.42 1.26-1.04 1.47l1.32 3.78A5.56 5.56 0 0054.3 47h-4zm-1.55-1.56c.86 0 1.56.7 1.56 1.56h4a5.56 5.56 0 00-5.56-5.56v4zM47.2 47c0-.86.7-1.56 1.55-1.56v-4A5.56 5.56 0 0043.2 47h4zm1.05 1.47A1.56 1.56 0 0147.19 47h-4c0 2.44 1.57 4.5 3.75 5.26l1.3-3.79zm-4.83 10.3c2.36 0 3.95-1.57 4.85-3.14.9-1.59 1.35-3.55 1.33-5.28l-4 .03a6.83 6.83 0 01-.8 3.27c-.53.92-1.04 1.13-1.38 1.13v4zm10.67-4H43.4v4h10.67v-4zm-6.17-4.42c0 1.72.43 3.68 1.33 5.27.89 1.57 2.47 3.16 4.84 3.16v-4c-.33 0-.83-.2-1.36-1.13a6.96 6.96 0 01-.8-3.28l-4-.02z" fill="#000" mask="url(#q)"/><path d="M55.85 60.44h1V58.78a3 3 0 00-3-3H43.63a3 3 0 00-3 3V60.44h15.22z" fill="#5C5C5C" stroke="#000" stroke-width="2"/><mask id="r" maskUnits="userSpaceOnUse" x="266.41" y="201.44" width="12" height="18" fill="#000"><path fill="#fff" d="M266.41 201.44h12v18h-12z"/><path fill-rule="evenodd" clip-rule="evenodd" d="M273.91 210.36a3.56 3.56 0 10-2.32 0c.03 2.85-1.48 6.42-4.18 6.42h10.67c-2.7 0-4.18-3.59-4.17-6.42z"/></mask><path fill-rule="evenodd" clip-rule="evenodd" d="M273.91 210.36a3.56 3.56 0 10-2.32 0c.03 2.85-1.48 6.42-4.18 6.42h10.67c-2.7 0-4.18-3.59-4.17-6.42z" fill="#fff"/><path d="M273.91 210.36l-.66-1.89-1.33.46v1.42h2zm-2.32 0l2-.01-.01-1.42-1.34-.46-.65 1.9zm2.7-3.36c0 .68-.43 1.26-1.04 1.47l1.32 3.78a5.56 5.56 0 003.73-5.25h-4zm-1.55-1.56c.86 0 1.56.7 1.56 1.56h4a5.56 5.56 0 00-5.56-5.56v4zM271.2 207c0-.86.7-1.56 1.55-1.56v-4a5.56 5.56 0 00-5.55 5.56h4zm1.05 1.47a1.56 1.56 0 01-1.05-1.47h-4c0 2.44 1.57 4.5 3.75 5.26l1.3-3.79zm-4.83 10.3c2.36 0 3.95-1.57 4.85-3.14.9-1.59 1.35-3.55 1.33-5.28l-4 .03a6.84 6.84 0 01-.8 3.27c-.53.92-1.04 1.13-1.38 1.13v4zm10.67-4H267.4v4h10.67v-4zm-6.17-4.42c0 1.72.43 3.68 1.33 5.27.88 1.57 2.47 3.16 4.84 3.16v-4c-.33 0-.83-.2-1.36-1.13a6.96 6.96 0 01-.8-3.28l-4-.02z" fill="#000" mask="url(#r)"/><path d="M279.86 220.44h1V218.78a3 3 0 00-3-3h-10.23a3 3 0 00-3 3V220.44h15.23z" fill="#fff" stroke="#000" stroke-width="2"/><path fill-rule="evenodd" clip-rule="evenodd" d="M51.6 102.4a3 3 0 01-1.09 2.34l1.79 7.15 3.88-3.66a3.03 3.03 0 01-.33-1.38 2.91 2.91 0 012.86-2.96 2.91 2.91 0 012.86 2.96 2.91 2.91 0 01-3.05 2.96l-2.67 10.08H41.63l-2.67-10.08a2.92 2.92 0 01-2.66-2.96 2.91 2.91 0 012.86-2.96 2.91 2.91 0 012.85 2.96c0 .6-.17 1.15-.46 1.62l3.64 3.42 1.79-7.15a3 3 0 01-1.1-2.33 2.91 2.91 0 012.86-2.97 2.91 2.91 0 012.86 2.97z" fill="#5C5C5C"/><path d="M50.51 104.74l-.63-.78-.5.4.16.62.97-.24zm1.79 7.15l-.97.24.41 1.66 1.24-1.17-.68-.73zm3.88-3.66l.69.73.54-.51-.34-.67-.89.45zm2.34 1.58l.07-1-.82-.06-.21.8.96.26zm-2.67 10.08v1h.77l.2-.75-.97-.25zm-14.22 0l-.96.25.2.75h.76v-1zm-2.67-10.08l.97-.26-.18-.69-.72-.05-.07 1zm2.6-1.34l-.86-.53-.43.7.6.55.68-.72zm3.63 3.42l-.69.73 1.24 1.17.42-1.66-.97-.24zm1.79-7.15l.97.24.15-.62-.5-.4-.62.78zm4.16.77a4 4 0 001.46-3.1h-2a2 2 0 01-.72 1.55l1.26 1.55zm2.13 6.14l-1.79-7.16-1.94.49 1.79 7.15 1.94-.48zm2.23-4.15l-3.89 3.66 1.37 1.46 3.89-3.66-1.37-1.45zm-.65-.65c0 .66.16 1.29.44 1.84l1.78-.91a2.04 2.04 0 01-.22-.93h-2zm3.86-3.96a3.91 3.91 0 00-3.86 3.96h2c0-1.12.87-1.96 1.86-1.96v-2zm3.86 3.96c0-2.15-1.7-3.96-3.86-3.96v2c1 0 1.86.84 1.86 1.96h2zm-3.86 3.97c2.17 0 3.86-1.81 3.86-3.97h-2c0 1.12-.87 1.97-1.86 1.97v2zm-.25-.01h.25v-2h-.12l-.13 2zm-1.64 9.33l2.67-10.08-1.93-.5-2.67 10.07 1.93.52zm-15.19.75h14.22v-2H41.63v2zM38 110.06l2.67 10.08 1.93-.5-2.67-10.09-1.93.51zm1.03-1.25a1.92 1.92 0 01-1.73-1.96h-2a3.92 3.92 0 003.6 3.96l.13-2zm-1.73-1.96c0-1.12.86-1.96 1.86-1.96v-2a3.91 3.91 0 00-3.86 3.96h2zm1.86-1.96c.99 0 1.85.84 1.85 1.96h2c0-2.15-1.69-3.96-3.85-3.96v2zm1.85 1.96c0 .4-.11.78-.3 1.09L42.4 109c.39-.62.61-1.36.61-2.15h-2zm4.86 4.31l-3.63-3.42-1.37 1.45 3.63 3.43 1.37-1.46zm.14-6.67l-1.8 7.16 1.95.48 1.79-7.15-1.94-.49zm-1.12-2.08a4 4 0 001.45 3.1l1.27-1.55a2 2 0 01-.72-1.55h-2zm3.85-3.97a3.91 3.91 0 00-3.85 3.97h2c0-1.12.86-1.97 1.85-1.97v-2zm3.86 3.97c0-2.16-1.7-3.97-3.86-3.97v2c1 0 1.86.85 1.86 1.97h2z" fill="#000"/><path d="M58.52 124.44h1v-2.55a3 3 0 00-3-3H40.97a3 3 0 00-3 3v2.55h20.55z" fill="#5C5C5C" stroke="#000" stroke-width="2"/><path fill-rule="evenodd" clip-rule="evenodd" d="M179.6 230.4a3 3 0 01-1.09 2.34l1.79 7.15 3.88-3.66a3.03 3.03 0 01-.33-1.38 2.91 2.91 0 012.86-2.96 2.91 2.91 0 012.86 2.96 2.91 2.91 0 01-3.05 2.96l-2.67 10.08h-14.22l-2.67-10.08a2.92 2.92 0 01-2.66-2.96 2.91 2.91 0 012.86-2.96 2.91 2.91 0 012.85 2.96c0 .6-.17 1.15-.46 1.62l3.64 3.42 1.79-7.15a3 3 0 01-1.1-2.33 2.91 2.91 0 012.86-2.97 2.91 2.91 0 012.86 2.97z" fill="#fff"/><path d="M178.51 232.74l-.63-.78-.5.4.16.62.97-.24zm1.79 7.15l-.97.24.41 1.66 1.24-1.17-.68-.73zm3.88-3.66l.69.73.54-.51-.34-.67-.89.45zm2.34 1.58l.07-1-.82-.06-.21.8.96.26zm-2.67 10.08v1h.77l.2-.74-.97-.26zm-14.22 0l-.97.26.2.74h.77v-1zm-2.67-10.08l.97-.26-.18-.69-.72-.05-.07 1zm2.6-1.34l-.85-.53-.44.7.6.56.68-.73zm3.63 3.42l-.69.73 1.24 1.17.42-1.66-.97-.24zm1.79-7.15l.97.24.15-.62-.5-.4-.62.78zm4.16.77a4 4 0 001.46-3.1h-2a2 2 0 01-.72 1.55l1.26 1.55zm2.13 6.14l-1.79-7.16-1.94.49 1.79 7.15 1.94-.48zm2.23-4.15l-3.89 3.66 1.37 1.46 3.89-3.66-1.37-1.46zm-.65-.65c0 .66.16 1.29.44 1.84l1.78-.91a2.04 2.04 0 01-.22-.93h-2zm3.86-3.96a3.91 3.91 0 00-3.86 3.96h2c0-1.12.87-1.96 1.86-1.96v-2zm3.86 3.96c0-2.15-1.7-3.96-3.86-3.96v2c1 0 1.86.84 1.86 1.96h2zm-3.86 3.97c2.17 0 3.86-1.81 3.86-3.97h-2c0 1.12-.87 1.97-1.86 1.97v2zm-.25-.01h.25v-2h-.12l-.13 2zm-1.64 9.34l2.67-10.09-1.93-.5-2.67 10.07 1.93.52zm-15.19.74h14.22v-2h-14.22v2zM166 238.06l2.66 10.09 1.94-.52-2.67-10.08-1.93.51zm1.03-1.25a1.92 1.92 0 01-1.73-1.96h-2a3.92 3.92 0 003.6 3.96l.13-2zm-1.73-1.96c0-1.12.86-1.96 1.86-1.96v-2a3.91 3.91 0 00-3.86 3.96h2zm1.86-1.96c.99 0 1.85.84 1.85 1.96h2c0-2.15-1.69-3.96-3.85-3.96v2zm1.85 1.96c0 .4-.11.78-.3 1.09l1.69 1.06c.39-.62.61-1.36.61-2.15h-2zm4.86 4.31l-3.63-3.42-1.37 1.45 3.63 3.43 1.37-1.46zm.14-6.67l-1.8 7.16 1.95.48 1.79-7.15-1.94-.49zm-1.12-2.08a4 4 0 001.45 3.1l1.27-1.55a2 2 0 01-.72-1.55h-2zm3.85-3.97a3.91 3.91 0 00-3.85 3.97h2c0-1.12.86-1.97 1.85-1.97v-2zm3.86 3.97c0-2.16-1.7-3.97-3.86-3.97v2c1 0 1.86.85 1.86 1.97h2z" fill="#000"/><path d="M186.52 252.44h1v-2.55a3 3 0 00-3-3h-15.55a3 3 0 00-3 3v2.55h20.55z" fill="#fff" stroke="#000" stroke-width="2"/></svg>