<svg width="321" height="289" fill="none" xmlns="http://www.w3.org/2000/svg"><g clip-path="url(#clip0)"><path fill="#FEE6C1" d="M32.1.9h256v256h-256z"/><path d="M32.1 224.9h32v32h-32v-32zM32.1 96.9h32v32h-32v-32zM32.1 160.9h32v32h-32v-32zM32.1 32.9h32v32h-32v-32zM64.1 192.9h32v32h-32v-32zM64.1 64.9h32v32h-32v-32zM64.1 128.9h32v32h-32v-32zM64.1.9h32v32h-32V.9zM160.1 224.9h32v32h-32v-32zM160.1 96.9h32v32h-32v-32zM160.1 160.9h32v32h-32v-32zM160.1 32.9h32v32h-32v-32zM192.1 192.9h32v32h-32v-32zM192.1 64.9h32v32h-32v-32zM192.1 128.9h32v32h-32v-32zM192.1.9h32v32h-32V.9zM96.1 224.9h32v32h-32v-32zM96.1 96.9h32v32h-32v-32zM96.1 160.9h32v32h-32v-32zM96.1 32.9h32v32h-32v-32zM128.1 192.9h32v32h-32v-32zM128.1 64.9h32v32h-32v-32zM128.1 128.9h32v32h-32v-32zM128.1.9h32v32h-32V.9zM224.1 224.9h32v32h-32v-32zM224.1 96.9h32v32h-32v-32zM224.1 160.9h32v32h-32v-32zM224.1 32.9h32v32h-32v-32zM256.1 192.9h32v32h-32v-32zM256.1 64.9h32v32h-32v-32zM256.1 128.9h32v32h-32v-32zM256.1.9h32v32h-32V.9z" fill="#866C4A"/><path d="M13.5 238.3v-2.6H18v11.7H15v-9.1h-1.6zM12.2 213.2l.5-.4a59.8 59.8 0 004-3.9c.4-.6.6-1.2.6-1.7s-.1-.8-.3-1c-.2-.3-.5-.4-1-.4-.3 0-.7.1-.9.4-.2.3-.3.8-.3 1.3H12c0-.9.2-1.7.6-2.3.4-.6.9-1 1.5-1.3.6-.3 1.2-.4 2-.4 1.3 0 2.2.3 2.8 1 .7.6 1 1.4 1 2.5a5 5 0 01-1.1 3.2c-.8 1-1.8 1.9-3 2.8h4.3v2.2h-8v-2zM12 175c.1-1.1.5-2 1.2-2.6.7-.6 1.7-1 2.9-1 .8 0 1.5.2 2 .5a3 3 0 011.8 2.7c0 .7-.2 1.3-.6 1.7-.3.5-.7.8-1.2 1 .6.2 1 .5 1.4 1 .4.5.6 1 .6 1.8 0 .7-.2 1.3-.5 1.8a3 3 0 01-1.3 1.2c-.6.2-1.3.4-2 .4-1.4 0-2.4-.3-3.2-1-.7-.6-1.1-1.5-1.2-2.8h2.7c0 .5.1.8.4 1.1.3.3.6.4 1.1.4.4 0 .8-.1 1-.3.2-.3.3-.6.3-1 0-.5-.1-.9-.5-1.1-.3-.2-.8-.3-1.5-.3h-.5v-2.3h.5c.5 0 1 0 1.3-.2.3-.2.5-.6.5-1s-.1-.7-.3-1c-.2-.2-.5-.3-.9-.3s-.7.2-1 .4l-.2 1H12zM11.5 149.3v-2.2l5-7.2h3.1v7h1.3v2.4h-1.3v2h-2.7v-2h-5.4zM17 143l-2.7 4H17v-4zM19.9 109.1h-5v2.2l.9-.6 1.2-.2c.8 0 1.5.2 2 .6.5.3 1 .8 1.2 1.4.2.5.3 1.2.3 1.8 0 1.3-.3 2.3-1 3a4 4 0 01-3 1c-.9 0-1.6 0-2.2-.3a3.5 3.5 0 01-2-3h2.6c0 .3.2.5.5.8.2.2.6.3 1 .3.5 0 .9-.2 1.1-.5.3-.3.4-.8.4-1.3s-.1-1-.4-1.2c-.3-.3-.6-.4-1.1-.4-.4 0-.7 0-1 .3l-.4.7h-2.6v-7h7.5v2.4zM17.5 77.9c0-.4-.2-.7-.4-1l-1-.2c-.6 0-1 .2-1.3.8a6 6 0 00-.4 2.5c.3-.4.6-.7 1-.9l1.5-.3c1 0 1.9.3 2.5 1 .7.6 1 1.6 1 2.7 0 .8-.2 1.5-.5 2-.3.7-.8 1.1-1.4 1.5-.6.3-1.3.5-2.1.5-1.6 0-2.8-.6-3.4-1.6-.7-1-1-2.5-1-4.4a8 8 0 011-4.5c.7-1 1.8-1.5 3.3-1.5a4 4 0 012 .5c.6.3 1 .7 1.2 1.2.3.5.5 1 .6 1.7h-2.6zm-1.2 3c-.5 0-.9.2-1.2.5-.3.2-.4.6-.4 1.1 0 .5 0 1 .4 1.2.3.3.7.4 1.2.4s.8-.1 1-.4c.4-.3.5-.7.5-1.1 0-.5-.1-1-.4-1.2-.3-.3-.6-.5-1.1-.5zM20 44.8l-4 9.6h-2.8l4-9.3h-5v-2.4H20v2zM13.6 17.1c-1-.5-1.5-1.3-1.5-2.5a2.9 2.9 0 011.8-2.7c.6-.3 1.3-.4 2.2-.4.9 0 1.6.1 2.2.4.6.3 1.1.7 1.4 1.1.3.5.4 1 .4 1.6 0 .6-.1 1-.4 1.5-.2.4-.6.8-1 1 .5.3 1 .7 1.3 1.2.3.5.4 1 .4 1.7a3.4 3.4 0 01-2.1 3.2c-.7.3-1.4.4-2.2.4-.8 0-1.5-.1-2.2-.4-.6-.3-1.2-.7-1.5-1.3-.4-.5-.6-1.2-.6-2 0-.6.1-1.2.5-1.6a3 3 0 011.3-1.2zm3.9-2c0-.5-.1-.8-.4-1-.2-.3-.6-.4-1-.4s-.7 0-1 .3c-.2.3-.4.6-.4 1 0 .5.2.8.4 1 .3.3.6.4 1 .4s.7-.1 1-.4c.3-.2.4-.6.4-1zM16 18.2c-.5 0-.9.1-1.2.4-.3.3-.5.7-.5 1.1 0 .5.2.9.5 1.1.3.3.7.5 1.2.5s1-.2 1.2-.5c.3-.2.5-.6.5-1 0-.5-.2-.9-.5-1.2-.3-.3-.7-.4-1.2-.4zM273.2 269.9c1 0 1.8.3 2.5 1a4 4 0 01.9 2.8v5.2h-2.7V274c0-.6-.2-1-.5-1.3-.3-.4-.7-.5-1.2-.5-.6 0-1 .1-1.3.5a2 2 0 00-.4 1.3v4.9h-2.8V267h2.8v4a3 3 0 011-.9c.6-.2 1.1-.3 1.7-.3zM239 269.8c.7 0 1.2.2 1.7.4.5.3.9.6 1.1 1V270h2.8v8.9a5 5 0 01-.5 2.2c-.4.7-.9 1.2-1.5 1.6-.7.4-1.5.6-2.5.6-1.3 0-2.4-.3-3.2-1a3.5 3.5 0 01-1.4-2.5h2.7c0 .4.3.6.6.8.3.2.7.3 1.2.3s1-.1 1.3-.5c.3-.3.5-.8.5-1.5v-1.3a3.1 3.1 0 01-2.7 1.4 3.7 3.7 0 01-3.5-2.2c-.3-.7-.5-1.5-.5-2.4 0-.9.2-1.7.5-2.4a4 4 0 011.5-1.6c.6-.4 1.2-.6 2-.6zm2.8 4.6c0-.7-.2-1.2-.6-1.6-.3-.4-.8-.6-1.3-.6-.6 0-1 .2-1.4.6-.4.4-.6 1-.6 1.6 0 .7.2 1.2.6 1.6.4.4.8.6 1.4.6.5 0 1-.2 1.3-.6.4-.3.6-.9.6-1.6zM210.7 272.2h-1.5v6.7h-2.7v-6.7h-1V270h1v-.3c0-1 .3-2 1-2.5.6-.6 1.5-.8 2.7-.8h.5v2.3c-.6 0-1 0-1.1.2-.3.2-.4.5-.4 1h1.5v2.3zM180.6 274.3v.8h-6.2c0 .5.2 1 .5 1.3.3.3.7.4 1.1.4.7 0 1.2-.3 1.5-.9h2.9a4 4 0 01-2.3 2.7c-.6.3-1.2.4-2 .4s-1.6-.2-2.3-.5a4 4 0 01-1.6-1.6 5 5 0 01-.6-2.5c0-.9.2-1.7.6-2.4a4 4 0 011.6-1.6c.7-.4 1.5-.6 2.3-.6 1 0 1.7.2 2.3.6.7.3 1.2.9 1.6 1.5.4.7.6 1.5.6 2.4zm-2.8-.7c0-.5-.2-.9-.5-1.2-.3-.2-.7-.4-1.2-.4-.4 0-.8.2-1.2.4-.3.3-.5.7-.5 1.2h3.4zM139.1 274.4c0-.9.2-1.7.5-2.4a4 4 0 011.5-1.6c.6-.4 1.2-.6 2-.6.6 0 1 .2 1.6.4.5.3.8.6 1.1 1v-4.1h2.8v11.8h-2.8v-1.3c-.2.4-.6.8-1 1-.6.3-1.1.4-1.7.4a3.7 3.7 0 01-3.5-2.2c-.3-.7-.5-1.5-.5-2.4zm6.7 0c0-.7-.2-1.2-.6-1.6-.3-.4-.8-.6-1.3-.6-.6 0-1 .2-1.4.6-.4.4-.6 1-.6 1.6 0 .7.2 1.2.6 1.6.4.4.8.6 1.4.6.5 0 1-.2 1.3-.6.4-.3.6-.9.6-1.6zM107.7 274.4c0-.9.2-1.7.6-2.4a4 4 0 011.6-1.6c.6-.4 1.4-.6 2.3-.6 1.1 0 2 .3 2.8 1 .8.5 1.3 1.3 1.5 2.4h-3c-.2-.7-.6-1-1.3-1-.6 0-1 .2-1.3.6-.2.4-.4.9-.4 1.6 0 .8.2 1.3.5 1.7.2.4.6.6 1.2.6.7 0 1.1-.4 1.4-1h2.9c-.2 1-.7 1.8-1.5 2.4-.8.6-1.7 1-2.8 1-.9 0-1.7-.3-2.3-.6a4 4 0 01-1.6-1.6 5 5 0 01-.6-2.5zM78.4 271.2c.3-.4.6-.7 1.1-1 .5-.2 1-.4 1.7-.4a3.7 3.7 0 013.4 2.2c.3.7.5 1.5.5 2.4 0 1-.2 1.7-.5 2.4a3.7 3.7 0 01-3.4 2.2c-.7 0-1.2-.1-1.7-.3a3 3 0 01-1-1v1.2h-2.8V267h2.7v4.1zm4 3.2c0-.7-.3-1.2-.7-1.6-.3-.4-.8-.6-1.4-.6-.5 0-1 .2-1.3.6-.4.4-.6 1-.6 1.6 0 .7.2 1.3.6 1.6.3.4.8.6 1.3.6.6 0 1-.2 1.4-.6.4-.4.6-.9.6-1.6zM43.1 274.4c0-.9.2-1.7.5-2.4a4 4 0 011.5-1.6c.6-.4 1.2-.6 2-.6.6 0 1.1.2 1.6.4.5.3.9.6 1.1 1V270h2.8v8.9h-2.8v-1.3a3 3 0 01-1.1 1 3.7 3.7 0 01-5-1.8c-.4-.7-.6-1.5-.6-2.4zm6.7 0c0-.7-.2-1.2-.6-1.6-.3-.4-.8-.6-1.3-.6-.6 0-1 .2-1.4.6-.4.4-.6 1-.6 1.6 0 .7.2 1.2.6 1.6.4.4.8.6 1.4.6.5 0 1-.2 1.3-.6.4-.3.6-.9.6-1.6z" fill="#000"/><path fill="#E94E58" fill-opacity=".8" d="M32.1 32.9h32v32h-32zM64.1 192.9h32v32h-32zM128.1 128.9h32v32h-32z"/><mask id="a" maskUnits="userSpaceOnUse" x="73.8" y="202.3" width="12" height="18" fill="#000"><path fill="#fff" d="M73.8 202.3h12v18h-12z"/><path fill-rule="evenodd" clip-rule="evenodd" d="M81.3 211.3a3.6 3.6 0 10-2.3 0c0 2.8-1.5 6.4-4.2 6.4h10.6c-2.6 0-4.1-3.6-4.1-6.4z"/></mask><path fill-rule="evenodd" clip-rule="evenodd" d="M81.3 211.3a3.6 3.6 0 10-2.3 0c0 2.8-1.5 6.4-4.2 6.4h10.6c-2.6 0-4.1-3.6-4.1-6.4z" fill="#fff"/><path d="M81.3 211.3l-.7-2-1.3.5v1.4h2zm-2.3 0h2v-1.5l-1.4-.4-.6 1.9zm2.7-3.4c0 .7-.5 1.3-1 1.5l1.2 3.7a5.6 5.6 0 003.8-5.2h-4zm-1.6-1.6c.9 0 1.6.7 1.6 1.6h4c0-3-2.5-5.6-5.6-5.6v4zm-1.5 1.6c0-.9.7-1.6 1.5-1.6v-4c-3 0-5.5 2.5-5.5 5.6h4zm1 1.5c-.6-.2-1-.8-1-1.5h-4c0 2.4 1.5 4.5 3.7 5.3l1.3-3.8zm-4.8 10.3c2.3 0 4-1.6 4.8-3.2 1-1.6 1.4-3.5 1.4-5.3h-4c0 1.2-.3 2.4-.8 3.3-.6 1-1 1.2-1.4 1.2v4zm10.6-4H74.8v4h10.6v-4zm-6.1-4.5c0 1.8.4 3.7 1.3 5.3.9 1.6 2.5 3.2 4.8 3.2v-4c-.3 0-.8-.2-1.3-1.2a7 7 0 01-.8-3.2h-4z" fill="#000" mask="url(#a)"/><path d="M87.2 221.3h1v-1.6a3 3 0 00-3-3H75a3 3 0 00-3 3v1.6h15.2z" fill="#fff" stroke="#000" stroke-width="2"/><mask id="b" maskUnits="userSpaceOnUse" x="137.8" y="138.3" width="12" height="18" fill="#000"><path fill="#fff" d="M137.8 138.3h12v18h-12z"/><path fill-rule="evenodd" clip-rule="evenodd" d="M145.3 147.3a3.6 3.6 0 10-2.3 0c0 2.8-1.5 6.4-4.2 6.4h10.6c-2.6 0-4.1-3.6-4.1-6.4z"/></mask><path fill-rule="evenodd" clip-rule="evenodd" d="M145.3 147.3a3.6 3.6 0 10-2.3 0c0 2.8-1.5 6.4-4.2 6.4h10.6c-2.6 0-4.1-3.6-4.1-6.4z" fill="#fff"/><path d="M145.3 147.3l-.7-2-1.3.5v1.4h2zm-2.3 0h2v-1.5l-1.4-.4-.6 1.9zm2.7-3.4c0 .7-.5 1.3-1 1.5l1.2 3.7a5.6 5.6 0 003.8-5.2h-4zm-1.6-1.6c.9 0 1.6.7 1.6 1.6h4c0-3-2.5-5.6-5.6-5.6v4zm-1.5 1.6c0-.9.7-1.6 1.5-1.6v-4c-3 0-5.5 2.5-5.5 5.6h4zm1 1.5c-.6-.2-1-.8-1-1.5h-4c0 2.4 1.5 4.5 3.7 5.3l1.3-3.8zm-4.8 10.3c2.3 0 4-1.6 4.8-3.2 1-1.6 1.4-3.5 1.4-5.3h-4c0 1.2-.3 2.4-.8 3.3-.6 1-1 1.2-1.4 1.2v4zm10.6-4h-10.6v4h10.6v-4zm-6.1-4.5c0 1.8.4 3.7 1.3 5.3.9 1.6 2.5 3.2 4.8 3.2v-4c-.3 0-.8-.2-1.3-1.2a7 7 0 01-.8-3.2h-4z" fill="#000" mask="url(#b)"/><path d="M151.2 157.3h1v-1.6a3 3 0 00-3-3H139a3 3 0 00-3 3v1.6h15.2z" fill="#fff" stroke="#000" stroke-width="2"/><mask id="c" maskUnits="userSpaceOnUse" x="201.8" y="202.3" width="12" height="18" fill="#000"><path fill="#fff" d="M201.8 202.3h12v18h-12z"/><path fill-rule="evenodd" clip-rule="evenodd" d="M209.3 211.3a3.6 3.6 0 10-2.3 0c0 2.8-1.5 6.4-4.2 6.4h10.6c-2.6 0-4.1-3.6-4.1-6.4z"/></mask><path fill-rule="evenodd" clip-rule="evenodd" d="M209.3 211.3a3.6 3.6 0 10-2.3 0c0 2.8-1.5 6.4-4.2 6.4h10.6c-2.6 0-4.1-3.6-4.1-6.4z" fill="#fff"/><path d="M209.3 211.3l-.7-2-1.3.5v1.4h2zm-2.3 0h2v-1.5l-1.4-.4-.6 1.9zm2.7-3.4c0 .7-.5 1.3-1 1.5l1.2 3.7a5.6 5.6 0 003.8-5.2h-4zm-1.6-1.6c.9 0 1.6.7 1.6 1.6h4c0-3-2.5-5.6-5.6-5.6v4zm-1.5 1.6c0-.9.7-1.6 1.5-1.6v-4c-3 0-5.5 2.5-5.5 5.6h4zm1 1.5c-.6-.2-1-.8-1-1.5h-4c0 2.4 1.5 4.5 3.7 5.3l1.3-3.8zm-4.8 10.3c2.3 0 4-1.6 4.8-3.2 1-1.6 1.4-3.5 1.4-5.3h-4c0 1.2-.3 2.4-.8 3.3-.6 1-1 1.2-1.4 1.2v4zm10.6-4h-10.6v4h10.6v-4zm-6.1-4.5c0 1.8.4 3.7 1.3 5.3.9 1.6 2.5 3.2 4.8 3.2v-4c-.3 0-.8-.2-1.3-1.2a7 7 0 01-.8-3.2h-4z" fill="#000" mask="url(#c)"/><path d="M215.2 221.3h1v-1.6a3 3 0 00-3-3H203a3 3 0 00-3 3v1.6h15.2z" fill="#fff" stroke="#000" stroke-width="2"/><mask id="d" maskUnits="userSpaceOnUse" x="233.8" y="202.3" width="12" height="18" fill="#000"><path fill="#fff" d="M233.8 202.3h12v18h-12z"/><path fill-rule="evenodd" clip-rule="evenodd" d="M241.3 211.3a3.6 3.6 0 10-2.3 0c0 2.8-1.5 6.4-4.2 6.4h10.6c-2.6 0-4.1-3.6-4.1-6.4z"/></mask><path fill-rule="evenodd" clip-rule="evenodd" d="M241.3 211.3a3.6 3.6 0 10-2.3 0c0 2.8-1.5 6.4-4.2 6.4h10.6c-2.6 0-4.1-3.6-4.1-6.4z" fill="#fff"/><path d="M241.3 211.3l-.7-2-1.3.5v1.4h2zm-2.3 0h2v-1.5l-1.4-.4-.6 1.9zm2.7-3.4c0 .7-.5 1.3-1 1.5l1.2 3.7a5.6 5.6 0 003.8-5.2h-4zm-1.6-1.6c.9 0 1.6.7 1.6 1.6h4c0-3-2.5-5.6-5.6-5.6v4zm-1.5 1.6c0-.9.7-1.6 1.5-1.6v-4c-3 0-5.5 2.5-5.5 5.6h4zm1 1.5c-.6-.2-1-.8-1-1.5h-4c0 2.4 1.5 4.5 3.7 5.3l1.3-3.8zm-4.8 10.3c2.3 0 4-1.6 4.8-3.2 1-1.6 1.4-3.5 1.4-5.3h-4c0 1.2-.3 2.4-.8 3.3-.6 1-1 1.2-1.4 1.2v4zm10.6-4h-10.6v4h10.6v-4zm-6.1-4.5c0 1.8.4 3.7 1.3 5.3.9 1.6 2.5 3.2 4.8 3.2v-4c-.3 0-.8-.2-1.3-1.2a7 7 0 01-.8-3.2h-4z" fill="#000" mask="url(#d)"/><path d="M247.2 221.3h1v-1.6a3 3 0 00-3-3H235a3 3 0 00-3 3v1.6h15.2z" fill="#fff" stroke="#000" stroke-width="2"/><mask id="e" maskUnits="userSpaceOnUse" x="265.8" y="202.3" width="12" height="18" fill="#000"><path fill="#fff" d="M265.8 202.3h12v18h-12z"/><path fill-rule="evenodd" clip-rule="evenodd" d="M273.3 211.3a3.6 3.6 0 10-2.3 0c0 2.8-1.5 6.4-4.2 6.4h10.6c-2.6 0-4.1-3.6-4.1-6.4z"/></mask><path fill-rule="evenodd" clip-rule="evenodd" d="M273.3 211.3a3.6 3.6 0 10-2.3 0c0 2.8-1.5 6.4-4.2 6.4h10.6c-2.6 0-4.1-3.6-4.1-6.4z" fill="#fff"/><path d="M273.3 211.3l-.7-2-1.3.5v1.4h2zm-2.3 0h2v-1.5l-1.4-.4-.6 1.9zm2.7-3.4c0 .7-.5 1.3-1 1.5l1.2 3.7a5.6 5.6 0 003.8-5.2h-4zm-1.6-1.6c.9 0 1.6.7 1.6 1.6h4c0-3-2.5-5.6-5.6-5.6v4zm-1.5 1.6c0-.9.7-1.6 1.5-1.6v-4c-3 0-5.5 2.5-5.5 5.6h4zm1 1.5c-.6-.2-1-.8-1-1.5h-4c0 2.4 1.5 4.5 3.7 5.3l1.3-3.8zm-4.8 10.3c2.3 0 4-1.6 4.8-3.2 1-1.6 1.4-3.5 1.4-5.3h-4c0 1.2-.3 2.4-.8 3.3-.6 1-1 1.2-1.4 1.2v4zm10.6-4h-10.6v4h10.6v-4zm-6.1-4.5c0 1.8.4 3.7 1.3 5.3.9 1.6 2.5 3.2 4.8 3.2v-4c-.3 0-.8-.2-1.3-1.2a7 7 0 01-.8-3.2h-4z" fill="#000" mask="url(#e)"/><path d="M279.2 221.3h1v-1.6a3 3 0 00-3-3H267a3 3 0 00-3 3v1.6h15.2z" fill="#fff" stroke="#000" stroke-width="2"/><mask id="f" maskUnits="userSpaceOnUse" x="41.8" y="42.3" width="12" height="18" fill="#000"><path fill="#fff" d="M41.8 42.3h12v18h-12z"/><path fill-rule="evenodd" clip-rule="evenodd" d="M49.3 51.3a3.6 3.6 0 10-2.3 0c0 2.8-1.5 6.4-4.2 6.4h10.6c-2.6 0-4.1-3.6-4.1-6.4z"/></mask><path fill-rule="evenodd" clip-rule="evenodd" d="M49.3 51.3a3.6 3.6 0 10-2.3 0c0 2.8-1.5 6.4-4.2 6.4h10.6c-2.6 0-4.1-3.6-4.1-6.4z" fill="#5C5C5C"/><path d="M49.3 51.3l-.7-2-1.3.5v1.4h2zm-2.3 0h2v-1.5l-1.4-.4-.6 1.9zm2.7-3.4c0 .7-.5 1.3-1 1.5l1.2 3.7a5.6 5.6 0 003.8-5.2h-4zM48 46.3c.9 0 1.6.7 1.6 1.6h4c0-3-2.5-5.6-5.6-5.6v4zM46.6 48c0-.9.7-1.6 1.5-1.6v-4c-3 0-5.5 2.5-5.5 5.6h4zm1 1.5c-.6-.2-1-.8-1-1.5h-4c0 2.4 1.5 4.5 3.7 5.3l1.3-3.8zm-4.8 10.3c2.3 0 4-1.6 4.8-3.2 1-1.6 1.4-3.5 1.4-5.3h-4c0 1.2-.3 2.4-.8 3.3-.6 1-1 1.2-1.4 1.2v4zm10.6-4H42.8v4h10.6v-4zm-6.1-4.5c0 1.8.4 3.7 1.3 5.3.9 1.6 2.5 3.2 4.8 3.2v-4c-.3 0-.8-.2-1.3-1.2a7 7 0 01-.8-3.2h-4z" fill="#000" mask="url(#f)"/><path d="M55.2 61.3h1v-1.6a3 3 0 00-3-3H43a3 3 0 00-3 3v1.6h15.2z" fill="#5C5C5C" stroke="#000" stroke-width="2"/><mask id="g" maskUnits="userSpaceOnUse" x="169.8" y="74.3" width="12" height="18" fill="#000"><path fill="#fff" d="M169.8 74.3h12v18h-12z"/><path fill-rule="evenodd" clip-rule="evenodd" d="M177.3 83.3a3.6 3.6 0 10-2.3 0c0 2.8-1.5 6.4-4.2 6.4h10.6c-2.6 0-4.1-3.6-4.1-6.4z"/></mask><path fill-rule="evenodd" clip-rule="evenodd" d="M177.3 83.3a3.6 3.6 0 10-2.3 0c0 2.8-1.5 6.4-4.2 6.4h10.6c-2.6 0-4.1-3.6-4.1-6.4z" fill="#5C5C5C"/><path d="M177.3 83.3l-.7-2-1.3.5v1.4h2zm-2.3 0h2v-1.5l-1.4-.4-.6 1.9zm2.7-3.4c0 .7-.5 1.3-1 1.5l1.2 3.7a5.6 5.6 0 003.8-5.2h-4zm-1.6-1.6c.9 0 1.6.7 1.6 1.6h4c0-3-2.5-5.6-5.6-5.6v4zm-1.5 1.6c0-.9.7-1.6 1.5-1.6v-4c-3 0-5.5 2.5-5.5 5.6h4zm1 1.5c-.6-.2-1-.8-1-1.5h-4c0 2.4 1.5 4.5 3.7 5.3l1.3-3.8zm-4.8 10.3c2.3 0 4-1.6 4.8-3.2 1-1.6 1.4-3.5 1.4-5.3h-4c0 1.2-.3 2.4-.8 3.3-.6 1-1 1.2-1.4 1.2v4zm10.6-4h-10.6v4h10.6v-4zm-6.1-4.5c0 1.8.4 3.7 1.3 5.3.9 1.6 2.5 3.2 4.8 3.2v-4c-.3 0-.8-.2-1.3-1.2a7 7 0 01-.8-3.2h-4z" fill="#000" mask="url(#g)"/><path d="M183.2 93.3h1v-1.6a3 3 0 00-3-3H171a3 3 0 00-3 3v1.6h15.2z" fill="#5C5C5C" stroke="#000" stroke-width="2"/><mask id="h" maskUnits="userSpaceOnUse" x="201.8" y="106.3" width="12" height="18" fill="#000"><path fill="#fff" d="M201.8 106.3h12v18h-12z"/><path fill-rule="evenodd" clip-rule="evenodd" d="M209.3 115.3a3.6 3.6 0 10-2.3 0c0 2.8-1.5 6.4-4.2 6.4h10.6c-2.6 0-4.1-3.6-4.1-6.4z"/></mask><path fill-rule="evenodd" clip-rule="evenodd" d="M209.3 115.3a3.6 3.6 0 10-2.3 0c0 2.8-1.5 6.4-4.2 6.4h10.6c-2.6 0-4.1-3.6-4.1-6.4z" fill="#5C5C5C"/><path d="M209.3 115.3l-.7-2-1.3.5v1.4h2zm-2.3 0h2v-1.5l-1.4-.4-.6 1.9zm2.7-3.4c0 .7-.5 1.3-1 1.5l1.2 3.7a5.6 5.6 0 003.8-5.2h-4zm-1.6-1.6c.9 0 1.6.7 1.6 1.6h4c0-3-2.5-5.6-5.6-5.6v4zm-1.5 1.6c0-.9.7-1.6 1.5-1.6v-4c-3 0-5.5 2.5-5.5 5.6h4zm1 1.5c-.6-.2-1-.8-1-1.5h-4c0 2.4 1.5 4.5 3.7 5.3l1.3-3.8zm-4.8 10.3c2.3 0 4-1.6 4.8-3.2 1-1.6 1.4-3.5 1.4-5.3h-4c0 1.2-.3 2.4-.8 3.3-.6 1-1 1.2-1.4 1.2v4zm10.6-4h-10.6v4h10.6v-4zm-6.1-4.5c0 1.8.4 3.7 1.3 5.3.9 1.6 2.5 3.2 4.8 3.2v-4c-.3 0-.8-.2-1.3-1.2a7 7 0 01-.8-3.2h-4z" fill="#000" mask="url(#h)"/><path d="M215.2 125.3h1v-1.6a3 3 0 00-3-3H203a3 3 0 00-3 3v1.6h15.2z" fill="#5C5C5C" stroke="#000" stroke-width="2"/><mask id="i" maskUnits="userSpaceOnUse" x="233.8" y="74.3" width="12" height="18" fill="#000"><path fill="#fff" d="M233.8 74.3h12v18h-12z"/><path fill-rule="evenodd" clip-rule="evenodd" d="M241.3 83.3a3.6 3.6 0 10-2.3 0c0 2.8-1.5 6.4-4.2 6.4h10.6c-2.6 0-4.1-3.6-4.1-6.4z"/></mask><path fill-rule="evenodd" clip-rule="evenodd" d="M241.3 83.3a3.6 3.6 0 10-2.3 0c0 2.8-1.5 6.4-4.2 6.4h10.6c-2.6 0-4.1-3.6-4.1-6.4z" fill="#5C5C5C"/><path d="M241.3 83.3l-.7-2-1.3.5v1.4h2zm-2.3 0h2v-1.5l-1.4-.4-.6 1.9zm2.7-3.4c0 .7-.5 1.3-1 1.5l1.2 3.7a5.6 5.6 0 003.8-5.2h-4zm-1.6-1.6c.9 0 1.6.7 1.6 1.6h4c0-3-2.5-5.6-5.6-5.6v4zm-1.5 1.6c0-.9.7-1.6 1.5-1.6v-4c-3 0-5.5 2.5-5.5 5.6h4zm1 1.5c-.6-.2-1-.8-1-1.5h-4c0 2.4 1.5 4.5 3.7 5.3l1.3-3.8zm-4.8 10.3c2.3 0 4-1.6 4.8-3.2 1-1.6 1.4-3.5 1.4-5.3h-4c0 1.2-.3 2.4-.8 3.3-.6 1-1 1.2-1.4 1.2v4zm10.6-4h-10.6v4h10.6v-4zm-6.1-4.5c0 1.8.4 3.7 1.3 5.3.9 1.6 2.5 3.2 4.8 3.2v-4c-.3 0-.8-.2-1.3-1.2a7 7 0 01-.8-3.2h-4z" fill="#000" mask="url(#i)"/><path d="M247.2 93.3h1v-1.6a3 3 0 00-3-3H235a3 3 0 00-3 3v1.6h15.2z" fill="#5C5C5C" stroke="#000" stroke-width="2"/><mask id="j" maskUnits="userSpaceOnUse" x="265.8" y="42.3" width="12" height="18" fill="#000"><path fill="#fff" d="M265.8 42.3h12v18h-12z"/><path fill-rule="evenodd" clip-rule="evenodd" d="M273.3 51.3a3.6 3.6 0 10-2.3 0c0 2.8-1.5 6.4-4.2 6.4h10.6c-2.6 0-4.1-3.6-4.1-6.4z"/></mask><path fill-rule="evenodd" clip-rule="evenodd" d="M273.3 51.3a3.6 3.6 0 10-2.3 0c0 2.8-1.5 6.4-4.2 6.4h10.6c-2.6 0-4.1-3.6-4.1-6.4z" fill="#5C5C5C"/><path d="M273.3 51.3l-.7-2-1.3.5v1.4h2zm-2.3 0h2v-1.5l-1.4-.4-.6 1.9zm2.7-3.4c0 .7-.5 1.3-1 1.5l1.2 3.7a5.6 5.6 0 003.8-5.2h-4zm-1.6-1.6c.9 0 1.6.7 1.6 1.6h4c0-3-2.5-5.6-5.6-5.6v4zm-1.5 1.6c0-.9.7-1.6 1.5-1.6v-4c-3 0-5.5 2.5-5.5 5.6h4zm1 1.5c-.6-.2-1-.8-1-1.5h-4c0 2.4 1.5 4.5 3.7 5.3l1.3-3.8zm-4.8 10.3c2.3 0 4-1.6 4.8-3.2 1-1.6 1.4-3.5 1.4-5.3h-4c0 1.2-.3 2.4-.8 3.3-.6 1-1 1.2-1.4 1.2v4zm10.6-4h-10.6v4h10.6v-4zm-6.1-4.5c0 1.8.4 3.7 1.3 5.3.9 1.6 2.5 3.2 4.8 3.2v-4c-.3 0-.8-.2-1.3-1.2a7 7 0 01-.8-3.2h-4z" fill="#000" mask="url(#j)"/><path d="M279.2 61.3h1v-1.6a3 3 0 00-3-3H267a3 3 0 00-3 3v1.6h15.2z" fill="#5C5C5C" stroke="#000" stroke-width="2"/></g><defs><clipPath id="clip0"><path fill="#fff" transform="translate(.1 .9)" d="M0 0h320v288H0z"/></clipPath></defs></svg>