<svg width="321" height="289" fill="none" xmlns="http://www.w3.org/2000/svg"><g clip-path="url(#clip0)"><path fill="#FEE6C1" d="M32.79.77h256v256h-256z"/><path d="M32.8 224.77h32v32h-32v-32zM32.8 96.77h32v32h-32v-32zM32.8 160.77h32v32h-32v-32zM32.8 32.77h32v32h-32v-32zM64.8 192.77h32v32h-32v-32zM64.8 64.77h32v32h-32v-32zM64.8 128.77h32v32h-32v-32zM64.8.77h32v32h-32v-32zM160.8 224.77h32v32h-32v-32zM160.8 96.77h32v32h-32v-32zM160.8 160.77h32v32h-32v-32zM160.8 32.77h32v32h-32v-32zM192.8 192.77h32v32h-32v-32zM192.8 64.77h32v32h-32v-32zM192.8 128.77h32v32h-32v-32zM192.8.77h32v32h-32v-32zM96.8 224.77h32v32h-32v-32zM96.8 96.77h32v32h-32v-32zM96.8 160.77h32v32h-32v-32zM96.8 32.77h32v32h-32v-32zM128.8 192.77h32v32h-32v-32zM128.8 64.77h32v32h-32v-32zM128.8 128.77h32v32h-32v-32zM128.8.77h32v32h-32v-32zM224.8 224.77h32v32h-32v-32zM224.8 96.77h32v32h-32v-32zM224.8 160.77h32v32h-32v-32zM224.8 32.77h32v32h-32v-32zM256.8 192.77h32v32h-32v-32zM256.8 64.77h32v32h-32v-32zM256.8 128.77h32v32h-32v-32zM256.8.77h32v32h-32v-32z" fill="#866C4A"/><path d="M14.22 238.13v-2.54h4.43v11.68H15.8v-9.14h-1.58zM12.84 213.08l.5-.4a59.77 59.77 0 002.46-2.13c.61-.56 1.12-1.14 1.54-1.75.42-.6.62-1.2.62-1.77 0-.44-.1-.78-.3-1.03-.2-.24-.5-.36-.91-.36-.4 0-.73.15-.96.46-.23.3-.34.73-.34 1.28h-2.64c.02-.9.22-1.66.58-2.27.37-.6.86-1.06 1.45-1.35.61-.28 1.28-.43 2.02-.43 1.27 0 2.22.33 2.86.98.66.65.98 1.5.98 2.54 0 1.14-.39 2.2-1.17 3.19a17.4 17.4 0 01-2.97 2.84h4.32v2.23h-8.04v-2.03zM12.76 174.88a3.51 3.51 0 011.12-2.63c.7-.62 1.66-.93 2.87-.93.8 0 1.48.14 2.05.41a2.95 2.95 0 011.74 2.76c0 .7-.18 1.27-.53 1.72a2.7 2.7 0 01-1.23.9v.06c.6.2 1.09.54 1.44 1.01.35.47.53 1.07.53 1.8 0 .67-.16 1.26-.47 1.77-.3.5-.74.9-1.32 1.18-.58.3-1.27.44-2.07.44a4.7 4.7 0 01-3.07-.95c-.76-.63-1.16-1.58-1.2-2.85h2.66c0 .47.14.84.4 1.12.25.27.62.4 1.12.4.41 0 .73-.12.96-.35.23-.25.35-.56.35-.96 0-.51-.17-.88-.5-1.1-.32-.24-.84-.36-1.55-.36h-.51v-2.22h.5c.55 0 1-.09 1.32-.27.34-.2.51-.53.51-1 0-.4-.1-.7-.32-.9-.21-.22-.5-.33-.88-.33-.4 0-.7.13-.9.37-.2.25-.31.55-.34.91h-2.68zM12.16 149.19v-2.2l5.06-7.24h3.05v7.07h1.32v2.37h-1.32v2.08h-2.73v-2.08h-5.38zm5.57-6.43l-2.69 4.06h2.69v-4.06zM20.53 108.97h-4.99v2.21c.21-.23.51-.43.9-.58.38-.14.8-.22 1.24-.22.8 0 1.47.18 1.99.55.53.36.92.83 1.17 1.4.24.58.36 1.2.36 1.88 0 1.24-.35 2.23-1.05 2.97-.7.73-1.7 1.09-2.98 1.09a5.3 5.3 0 01-2.22-.43 3.47 3.47 0 01-1.46-1.23 3.55 3.55 0 01-.56-1.81h2.67c.07.33.22.6.47.83.24.21.58.32 1 .32.5 0 .88-.16 1.13-.48.24-.32.36-.75.36-1.28 0-.52-.12-.92-.38-1.2-.26-.28-.63-.42-1.12-.42-.36 0-.66.1-.9.28-.23.17-.39.4-.46.68h-2.64v-6.96h7.47v2.4zM18.2 77.74a1.6 1.6 0 00-.45-.88c-.22-.2-.52-.3-.92-.3-.6 0-1.04.26-1.3.8-.28.52-.41 1.35-.42 2.5a2.4 2.4 0 011-.89c.45-.21.94-.32 1.48-.32a3.3 3.3 0 012.5 1c.65.66.97 1.58.97 2.76 0 .78-.16 1.46-.48 2.05a3.3 3.3 0 01-1.38 1.38c-.6.33-1.3.5-2.13.5-1.64 0-2.78-.52-3.42-1.54-.64-1.04-.96-2.52-.96-4.45 0-2.03.34-3.53 1-4.51.69-1 1.78-1.5 3.27-1.5.8 0 1.47.17 2.02.49.55.3.97.72 1.25 1.23s.45 1.07.5 1.68H18.2zm-1.27 3.07c-.46 0-.84.14-1.15.42-.3.27-.45.65-.45 1.15 0 .51.14.91.42 1.2.28.29.69.43 1.21.43.47 0 .84-.14 1.1-.41.28-.3.42-.68.42-1.17 0-.5-.13-.9-.4-1.19-.27-.28-.65-.43-1.15-.43zM20.69 44.64l-4.02 9.63h-2.8l4.06-9.33h-4.97V42.6h7.73v2.04zM14.24 17c-1-.54-1.5-1.37-1.5-2.52a2.86 2.86 0 011.8-2.7c.62-.29 1.36-.43 2.25-.43.88 0 1.62.14 2.22.43.6.28 1.06.66 1.36 1.14.3.47.45.99.45 1.56a2.7 2.7 0 01-.42 1.5c-.26.44-.63.77-1.08 1.02a3.06 3.06 0 011.8 2.85 3.37 3.37 0 01-2.16 3.21c-.65.29-1.37.43-2.17.43-.8 0-1.53-.14-2.2-.43a3.37 3.37 0 01-2.13-3.22A3.04 3.04 0 0114.25 17zm3.92-2.1c0-.44-.12-.77-.38-1a1.34 1.34 0 00-1-.38c-.4 0-.74.13-1 .37-.25.25-.37.59-.37 1.03 0 .41.13.74.39.99.25.23.58.35.99.35.4 0 .73-.12.99-.37.26-.24.38-.57.38-.99zm-1.37 3.28c-.5 0-.9.14-1.22.42-.3.26-.46.64-.46 1.12 0 .44.15.81.45 1.1.3.29.72.43 1.23.43.5 0 .91-.14 1.2-.43.3-.29.45-.66.45-1.1 0-.47-.16-.85-.47-1.12-.3-.28-.7-.42-1.18-.42zM273.88 269.75c1.02 0 1.85.34 2.46 1.02.62.67.93 1.6.93 2.78v5.22h-2.72v-4.85c0-.6-.15-1.06-.46-1.4-.31-.32-.73-.49-1.25-.49s-.94.17-1.25.5c-.3.33-.46.8-.46 1.4v4.84h-2.74v-11.84h2.74v4.11c.28-.4.65-.7 1.13-.94a3.63 3.63 0 011.62-.36zM239.75 269.71c.63 0 1.17.13 1.64.39.48.25.85.59 1.1 1v-1.26h2.74v8.91a4.9 4.9 0 01-.5 2.23c-.31.67-.8 1.2-1.48 1.6-.66.4-1.49.59-2.48.59-1.32 0-2.4-.32-3.22-.94a3.51 3.51 0 01-1.4-2.53h2.7c.09.34.29.6.6.8.33.2.72.3 1.2.3.56 0 1-.17 1.34-.5.34-.31.5-.83.5-1.55v-1.26a3.1 3.1 0 01-2.75 1.4 3.7 3.7 0 01-3.42-2.17 5.51 5.51 0 01-.51-2.43c0-.92.17-1.72.51-2.42.35-.7.83-1.22 1.43-1.6a3.7 3.7 0 012-.56zm2.75 4.6c0-.69-.2-1.23-.58-1.62-.37-.4-.83-.6-1.38-.6-.54 0-1 .2-1.39.6a2.2 2.2 0 00-.56 1.6c0 .68.19 1.22.56 1.63.39.4.85.6 1.4.6.54 0 1-.2 1.37-.6.39-.4.58-.93.58-1.62zM211.38 272.11h-1.47v6.66h-2.74v-6.66h-.99v-2.27h1v-.25c0-1.1.3-1.94.94-2.5.63-.58 1.55-.86 2.76-.86l.45.01v2.32c-.52-.03-.89.04-1.1.23-.22.18-.32.5-.32.97v.08h1.47v2.27zM181.27 274.16a7 7 0 01-.05.8h-6.2c.05.56.23.98.54 1.28.32.29.7.43 1.16.43.69 0 1.16-.29 1.43-.86h2.91a3.94 3.94 0 01-.81 1.58c-.39.47-.87.84-1.46 1.1a4.7 4.7 0 01-1.97.4 4.8 4.8 0 01-2.33-.55 4 4 0 01-1.6-1.6c-.39-.7-.58-1.5-.58-2.44 0-.92.19-1.73.56-2.43.38-.7.92-1.22 1.6-1.6a4.82 4.82 0 012.35-.56c.87 0 1.63.18 2.3.55.68.36 1.2.88 1.57 1.55.39.67.58 1.45.58 2.35zm-2.8-.72c0-.47-.16-.84-.48-1.12a1.76 1.76 0 00-1.2-.42c-.46 0-.85.14-1.17.4-.3.27-.5.65-.58 1.14h3.43zM139.8 274.29c0-.92.18-1.72.52-2.42.35-.7.83-1.22 1.43-1.6a3.7 3.7 0 012-.56c.58 0 1.12.13 1.6.37.49.25.87.58 1.15 1v-4.15h2.73v11.84h-2.73v-1.28c-.26.43-.63.77-1.1 1.02-.48.26-1.03.39-1.66.39a3.7 3.7 0 01-3.42-2.18 5.51 5.51 0 01-.51-2.43zm6.7.01c0-.68-.2-1.22-.58-1.61-.37-.4-.83-.6-1.38-.6-.54 0-1 .2-1.39.6a2.2 2.2 0 00-.56 1.6c0 .68.19 1.22.56 1.63.39.4.85.6 1.4.6.54 0 1-.2 1.37-.6.39-.4.58-.93.58-1.62zM108.4 274.3c0-.92.18-1.73.55-2.43a4 4 0 011.59-1.6 4.78 4.78 0 012.33-.56c1.13 0 2.06.3 2.8.88a4.13 4.13 0 011.5 2.48h-2.92c-.24-.68-.72-1.02-1.42-1.02-.5 0-.9.2-1.2.6-.3.38-.45.93-.45 1.66 0 .72.15 1.28.45 1.68.3.38.7.57 1.2.57.7 0 1.18-.34 1.42-1.02h2.91a4.19 4.19 0 01-1.48 2.46c-.76.6-1.7.9-2.8.9a4.8 4.8 0 01-2.34-.56c-.67-.38-1.2-.91-1.59-1.6-.37-.7-.56-1.5-.56-2.44zM79.09 271.1c.26-.41.62-.75 1.1-1a3.45 3.45 0 011.65-.39 3.7 3.7 0 013.4 2.16c.36.7.54 1.5.54 2.42 0 .92-.18 1.73-.53 2.43-.34.7-.81 1.23-1.4 1.62a3.7 3.7 0 01-2 .56c-.64 0-1.19-.13-1.66-.37-.47-.26-.83-.6-1.1-1v1.24h-2.74v-11.84h2.74v4.18zm3.9 3.19c0-.68-.19-1.22-.57-1.6-.38-.4-.84-.6-1.4-.6-.54 0-1 .2-1.39.6-.37.4-.56.93-.56 1.62 0 .68.19 1.22.56 1.61.39.4.85.6 1.4.6.54 0 1-.2 1.39-.6.38-.4.57-.95.57-1.63zM43.8 274.29c0-.92.18-1.72.52-2.42.35-.7.83-1.22 1.43-1.6a3.7 3.7 0 012-.56c.62 0 1.17.13 1.64.39.48.25.85.59 1.1 1v-1.26h2.74v8.93H50.5v-1.26c-.27.41-.64.75-1.12 1-.47.26-1.02.39-1.65.39a3.67 3.67 0 01-3.4-2.18 5.51 5.51 0 01-.52-2.43zm6.7.01c0-.68-.2-1.22-.58-1.61-.37-.4-.83-.6-1.37-.6-.55 0-1.01.2-1.4.6a2.2 2.2 0 00-.56 1.6c0 .68.19 1.22.56 1.63.39.4.85.6 1.4.6.54 0 1-.2 1.37-.6.39-.4.58-.93.58-1.62z" fill="#000"/><mask id="a" maskUnits="userSpaceOnUse" x="163.63" y="225.32" width="26" height="26" fill="#000"><path fill="#fff" d="M163.63 225.32h26v26h-26z"/><path fill-rule="evenodd" clip-rule="evenodd" d="M183.9 248.66l2.93-7.99a2 2 0 00-1.02-2.5c-3.56-1.67-5.71-2.61-8.1-2.8v-3.6h2.8v-1.78h-2.8v-2.67h-1.85V230h-2.78v1.78h2.78v3.6c-2.38.19-4.53 1.13-8.09 2.8a2 2 0 00-1.02 2.5l2.93 7.99h14.22zm-8.89-10.72c-1.12.2-2.38.56-4.04 1.1a1.99 1.99 0 00-1.15 2.78l1.64 3.28H175v-7.16zm7.6 1.1c-1.66-.54-2.92-.9-4.04-1.1v7.16h3.55l1.64-3.28c.55-1.08 0-2.4-1.15-2.78z"/></mask><path fill-rule="evenodd" clip-rule="evenodd" d="M183.9 248.66l2.93-7.99a2 2 0 00-1.02-2.5c-3.56-1.67-5.71-2.61-8.1-2.8v-3.6h2.8v-1.78h-2.8v-2.67h-1.85V230h-2.78v1.78h2.78v3.6c-2.38.19-4.53 1.13-8.09 2.8a2 2 0 00-1.02 2.5l2.93 7.99h14.22zm-8.89-10.72c-1.12.2-2.38.56-4.04 1.1a1.99 1.99 0 00-1.15 2.78l1.64 3.28H175v-7.16zm7.6 1.1c-1.66-.54-2.92-.9-4.04-1.1v7.16h3.55l1.64-3.28c.55-1.08 0-2.4-1.15-2.78z" fill="#fff"/><path d="M175.94 236.36a10.4 10.4 0 011.7 0l.16-2c-.68-.05-1.34-.05-2.02 0l.16 2zm10.89 4.31l1.88.7-1.88-.7zm-2.93 7.99v2h1.4l.48-1.31-1.88-.7zm1.9-10.48l.86-1.81-.85 1.8zm-8.08-2.82h-2v1.85l1.84.15.16-2zm0-3.6v-2h-2v2h2zm2.78 0v2h2v-2h-2zm0-1.77h2v-2h-2v2zm-2.78 0h-2v2h2v-2zm0-2.67h2v-2h-2v2zm-1.86 0v-2h-2v2h2zm0 2.67v2h2v-2h-2zm-2.78 0v-2h-2v2h2zm0 1.78h-2v2h2v-2zm2.78 0h2v-2h-2v2zm0 3.6l.16 1.99 1.84-.15v-1.85h-2zm-8.09 2.8l.86 1.82-.86-1.81zm-1.02 2.5l1.88-.68-1.88.68zm2.93 7.99l-1.88.69.48 1.3h1.4v-2zm1.29-9.62l-.62-1.9.62 1.9zm4.04-1.1h2v-2.37l-2.34.4.34 1.97zm-5.2 3.88l1.8-.9-1.8.9zm1.65 3.28l-1.8.9.56 1.1h1.24v-2zm3.55 0v2h2v-2h-2zm3.56-7.16l.34-1.97-2.34-.4v2.37h2zm4.04 1.1l-.62 1.9.62-1.9zm-4.04 6.06h-2v2h2v-2zm3.55 0v2h1.24l.55-1.1-1.79-.9zm1.64-3.28l1.8.9-1.8-.9zm1.2-1.83l-2.94 7.98 3.76 1.38 2.93-7.99-3.76-1.38zm0 0c-.01 0 0 0 0 0l3.75 1.37a4 4 0 00-2.05-4.99l-1.7 3.62zm-7.4-2.63c1.95.16 3.78.92 7.4 2.63l1.7-3.62c-3.5-1.66-5.98-2.77-8.78-3l-.32 3.99zm-1.84-5.6v3.6h4v-3.6h-4zm4.78-2h-2.78v4h2.78v-4zm-2 .23v1.78h4v-1.78h-4zm-.78 2h2.78v-4h-2.78v4zm-2-4.67V230h4v-2.67h-4zm.14 2h1.86v-4h-1.86v4zm2 .67v-2.67h-4V230h4zm-4.78 2h2.78v-4h-2.78v4zm2-.22v-1.78h-4v1.78h4zm.78-2h-2.78v4h2.78v-4zm2 5.6v-3.6h-4v3.6h4zm-9.23 4.62c3.6-1.71 5.44-2.47 7.4-2.63l-.33-4c-2.8.24-5.28 1.35-8.78 3.01l1.7 3.62zm0 0l-1.71-3.62a4 4 0 00-2.05 5l3.76-1.38zm2.93 7.98l-2.93-7.98-3.76 1.37 2.93 7.99 3.76-1.38zm12.34-1.31h-14.22v4h14.22v-4zm-12.3-5.72c1.64-.54 2.78-.86 3.75-1.03l-.68-3.94c-1.27.22-2.66.62-4.32 1.17l1.24 3.8zm0-.01v.01l-1.25-3.8a3.99 3.99 0 00-2.32 5.58l3.57-1.8zm1.65 3.28l-1.65-3.28-3.57 1.79 1.64 3.28 3.58-1.8zm1.76-1.1h-3.55v4H175v-4zm-2-5.17v7.16h4v-7.16h-4zm5.22 1.97c.97.17 2.12.5 3.76 1.03l1.24-3.8a31.28 31.28 0 00-4.32-1.17l-.68 3.94zm2.34 5.2v-7.17h-4v7.16h4zm1.55-2h-3.55v4h3.55v-4zm-.15-2.18l-1.63 3.28 3.57 1.79 1.64-3.28-3.58-1.8zm.02.01h-.01v-.01l3.57 1.79a4 4 0 00-2.32-5.58l-1.24 3.8z" fill="#000" mask="url(#a)"/><path d="M186.57 253.21h1v-2.55a3 3 0 00-3-3H169a3 3 0 00-3 3v2.55h20.56z" fill="#fff" stroke="#000" stroke-width="2"/><mask id="b" maskUnits="userSpaceOnUse" x="227.63" y="2.32" width="26" height="26" fill="#000"><path fill="#fff" d="M227.63 2.32h26v26h-26z"/><path fill-rule="evenodd" clip-rule="evenodd" d="M247.9 25.66l2.93-7.99a2 2 0 00-1.02-2.5c-3.56-1.67-5.71-2.61-8.1-2.8v-3.6h2.8V6.99h-2.8V4.32h-1.85V7h-2.78v1.78h2.78v3.6c-2.38.19-4.53 1.13-8.09 2.8a2 2 0 00-1.02 2.5l2.93 7.99h14.22zm-8.89-10.72c-1.12.2-2.38.56-4.04 1.1a1.99 1.99 0 00-1.15 2.78l1.64 3.28H239v-7.16zm7.6 1.1c-1.66-.54-2.92-.9-4.04-1.1v7.16h3.55l1.64-3.28c.55-1.08 0-2.4-1.15-2.78z"/></mask><path fill-rule="evenodd" clip-rule="evenodd" d="M247.9 25.66l2.93-7.99a2 2 0 00-1.02-2.5c-3.56-1.67-5.71-2.61-8.1-2.8v-3.6h2.8V6.99h-2.8V4.32h-1.85V7h-2.78v1.78h2.78v3.6c-2.38.19-4.53 1.13-8.09 2.8a2 2 0 00-1.02 2.5l2.93 7.99h14.22zm-8.89-10.72c-1.12.2-2.38.56-4.04 1.1a1.99 1.99 0 00-1.15 2.78l1.64 3.28H239v-7.16zm7.6 1.1c-1.66-.54-2.92-.9-4.04-1.1v7.16h3.55l1.64-3.28c.55-1.08 0-2.4-1.15-2.78z" fill="#5C5C5C"/><path d="M239.94 13.36c.57-.05 1.13-.05 1.7 0l.16-2c-.68-.05-1.34-.05-2.02 0l.16 2zm10.89 4.31l1.88.7-1.88-.7zm-2.93 7.99v2h1.4l.48-1.31-1.88-.7zm1.9-10.48l.86-1.81-.85 1.8zm-8.08-2.82h-2v1.85l1.84.15.16-2zm0-3.6v-2h-2v2h2zm2.78 0v2h2v-2h-2zm0-1.77h2V5h-2v2zm-2.78 0h-2v2h2V7zm0-2.67h2v-2h-2v2zm-1.86 0v-2h-2v2h2zm0 2.67v2h2V7h-2zm-2.78 0V5h-2v2h2zm0 1.78h-2v2h2v-2zm2.78 0h2v-2h-2v2zm0 3.6l.16 1.99 1.84-.15v-1.85h-2zm-8.09 2.8l.86 1.82-.86-1.81zm-1.02 2.5l1.88-.69-1.88.7zm2.93 7.99l-1.88.69.48 1.3h1.4v-2zm1.29-9.62l-.62-1.9.62 1.9zm4.04-1.1h2v-2.37l-2.34.4.34 1.97zm-5.2 3.88l1.8-.9-1.8.9zm1.65 3.28l-1.8.9.56 1.1h1.24v-2zm3.55 0v2h2v-2h-2zm3.56-7.16l.34-1.97-2.34-.4v2.37h2zm4.04 1.1l.62-1.9-.62 1.9zm-4.04 6.06h-2v2h2v-2zm3.55 0v2h1.24l.55-1.1-1.79-.9zm1.64-3.28l1.8.9-1.8-.9zm1.2-1.84l-2.94 7.99 3.76 1.38 2.93-7.99-3.76-1.38zm0 0c-.01 0 0 0 0 0l3.75 1.38a4 4 0 00-2.05-4.99l-1.7 3.62zm-7.4-2.62c1.95.16 3.78.92 7.4 2.63l1.7-3.62c-3.5-1.66-5.98-2.77-8.78-3l-.32 3.99zm-1.84-5.6v3.6h4v-3.6h-4zm4.78-2h-2.78v4h2.78v-4zm-2 .23v1.78h4V6.99h-4zm-.78 2h2.78V5h-2.78v4zm-2-4.67V7h4V4.32h-4zm.14 2h1.86v-4h-1.86v4zm2 .67V4.32h-4V7h4zm-4.78 2h2.78V5h-2.78v4zm2-.22V6.99h-4v1.78h4zm.78-2h-2.78v4h2.78v-4zm2 5.6v-3.6h-4v3.6h4zm-9.23 4.62c3.6-1.71 5.44-2.47 7.4-2.63l-.33-4c-2.8.24-5.28 1.35-8.78 3.01l1.7 3.62zm0 0l-1.71-3.62a4 4 0 00-2.05 5l3.76-1.39zm2.93 7.98l-2.93-7.99-3.76 1.38 2.93 7.99 3.76-1.38zm12.34-1.31h-14.22v4h14.22v-4zm-12.3-5.72a27.7 27.7 0 013.75-1.03l-.68-3.94c-1.27.22-2.66.62-4.32 1.17l1.24 3.8zm0-.01v.01l-1.25-3.8a3.99 3.99 0 00-2.32 5.58l3.57-1.8zm1.65 3.28l-1.65-3.28-3.57 1.79 1.64 3.28 3.58-1.8zm1.76-1.1h-3.55v4H239v-4zm-2-5.17v7.16h4v-7.16h-4zm5.22 1.97c.97.17 2.12.5 3.76 1.03l1.24-3.8a31.3 31.3 0 00-4.32-1.17l-.68 3.94zm2.34 5.2v-7.17h-4v7.16h4zm1.55-2h-3.55v4h3.55v-4zm-.15-2.18l-1.63 3.28L247.9 23l1.64-3.28-3.58-1.8zm.02.01h-.01v-.01l3.57 1.79a3.99 3.99 0 00-2.32-5.58l-1.24 3.8z" fill="#000" mask="url(#b)"/><path d="M250.57 30.21h1v-2.55a3 3 0 00-3-3H233a3 3 0 00-3 3v2.55h20.56z" fill="#5C5C5C" stroke="#000" stroke-width="2"/><mask id="c" maskUnits="userSpaceOnUse" x="202.46" y="202.21" width="12" height="18" fill="#000"><path fill="#fff" d="M202.46 202.21h12v18h-12z"/><path fill-rule="evenodd" clip-rule="evenodd" d="M209.96 211.13a3.56 3.56 0 10-2.32 0c.02 2.85-1.48 6.42-4.18 6.42h10.66c-2.69 0-4.18-3.59-4.16-6.42z"/></mask><path fill-rule="evenodd" clip-rule="evenodd" d="M209.96 211.13a3.56 3.56 0 10-2.32 0c.02 2.85-1.48 6.42-4.18 6.42h10.66c-2.69 0-4.18-3.59-4.16-6.42z" fill="#fff"/><path d="M209.96 211.13l-.66-1.9-1.33.47-.01 1.42h2zm-2.32 0l2-.02-.02-1.41-1.34-.46-.64 1.9zm2.7-3.36c0 .67-.43 1.26-1.04 1.47l1.31 3.78a5.56 5.56 0 003.74-5.25h-4zm-1.55-1.56c.86 0 1.56.7 1.56 1.56h4a5.56 5.56 0 00-5.56-5.56v4zm-1.55 1.56c0-.86.7-1.56 1.55-1.56v-4a5.55 5.55 0 00-5.55 5.56h4zm1.04 1.47a1.56 1.56 0 01-1.04-1.47h-4c0 2.44 1.57 4.5 3.75 5.25l1.3-3.78zm-4.82 10.3c2.35 0 3.95-1.57 4.85-3.14.9-1.6 1.34-3.55 1.33-5.29l-4 .04a6.83 6.83 0 01-.8 3.27c-.53.92-1.04 1.13-1.38 1.13v4zm10.66-4h-10.66v4h10.66v-4zm-6.16-4.42c-.01 1.72.43 3.68 1.32 5.26.9 1.58 2.48 3.17 4.84 3.17v-4c-.33 0-.83-.2-1.35-1.13a6.96 6.96 0 01-.81-3.28l-4-.02z" fill="#000" mask="url(#c)"/><path d="M215.9 221.21h1V219.55a3 3 0 00-3-3h-10.22a3 3 0 00-3 3V221.2h15.22z" fill="#fff" stroke="#000" stroke-width="2"/><mask id="d" maskUnits="userSpaceOnUse" x="42.46" y="202.21" width="12" height="18" fill="#000"><path fill="#fff" d="M42.46 202.21h12v18h-12z"/><path fill-rule="evenodd" clip-rule="evenodd" d="M49.96 211.13a3.56 3.56 0 10-2.32 0c.02 2.85-1.48 6.42-4.18 6.42h10.66c-2.69 0-4.18-3.59-4.16-6.42z"/></mask><path fill-rule="evenodd" clip-rule="evenodd" d="M49.96 211.13a3.56 3.56 0 10-2.32 0c.02 2.85-1.48 6.42-4.18 6.42h10.66c-2.69 0-4.18-3.59-4.16-6.42z" fill="#fff"/><path d="M49.96 211.13l-.66-1.9-1.33.47-.01 1.42h2zm-2.32 0l2-.02-.02-1.41-1.33-.46-.65 1.9zm2.7-3.36c0 .67-.43 1.26-1.04 1.47l1.32 3.78a5.56 5.56 0 003.73-5.25h-4zm-1.55-1.56c.86 0 1.56.7 1.56 1.56h4a5.56 5.56 0 00-5.56-5.56v4zm-1.56 1.56c0-.86.7-1.56 1.56-1.56v-4a5.56 5.56 0 00-5.56 5.56h4zm1.06 1.47a1.56 1.56 0 01-1.06-1.47h-4c0 2.44 1.58 4.5 3.76 5.25l1.3-3.78zm-4.83 10.3c2.35 0 3.95-1.57 4.85-3.14.9-1.6 1.34-3.55 1.33-5.29l-4 .04a6.83 6.83 0 01-.8 3.27c-.54.92-1.04 1.13-1.38 1.13v4zm10.66-4H43.46v4h10.66v-4zm-6.16-4.42c-.01 1.72.43 3.68 1.32 5.26.9 1.58 2.48 3.17 4.84 3.17v-4c-.33 0-.83-.2-1.35-1.13a6.96 6.96 0 01-.81-3.28l-4-.02z" fill="#000" mask="url(#d)"/><path d="M55.9 221.21h1V219.55a3 3 0 00-3-3H43.68a3 3 0 00-3 3V221.2H55.9z" fill="#fff" stroke="#000" stroke-width="2"/><mask id="e" maskUnits="userSpaceOnUse" x="42.46" y="42.21" width="12" height="18" fill="#000"><path fill="#fff" d="M42.46 42.21h12v18h-12z"/><path fill-rule="evenodd" clip-rule="evenodd" d="M49.96 51.13a3.56 3.56 0 10-2.32 0c.02 2.85-1.48 6.42-4.18 6.42h10.66c-2.69 0-4.18-3.59-4.16-6.42z"/></mask><path fill-rule="evenodd" clip-rule="evenodd" d="M49.96 51.13a3.56 3.56 0 10-2.32 0c.02 2.85-1.48 6.42-4.18 6.42h10.66c-2.69 0-4.18-3.59-4.16-6.42z" fill="#5C5C5C"/><path d="M49.96 51.13l-.66-1.9-1.33.47-.01 1.42h2zm-2.32 0l2-.02-.02-1.41-1.33-.46-.65 1.9zm2.7-3.36c0 .68-.43 1.26-1.04 1.47l1.32 3.78a5.56 5.56 0 003.73-5.25h-4zM48.8 46.2c.86 0 1.56.7 1.56 1.56h4a5.56 5.56 0 00-5.56-5.56v4zm-1.56 1.56c0-.86.7-1.56 1.56-1.56v-4a5.56 5.56 0 00-5.56 5.56h4zm1.06 1.47a1.56 1.56 0 01-1.06-1.47h-4c0 2.44 1.58 4.5 3.76 5.25l1.3-3.78zm-4.83 10.3c2.35 0 3.95-1.57 4.85-3.14.9-1.6 1.34-3.55 1.33-5.29l-4 .04a6.83 6.83 0 01-.8 3.27c-.54.92-1.04 1.13-1.38 1.13v4zm10.66-4H43.46v4h10.66v-4zm-6.16-4.42c-.01 1.72.43 3.68 1.32 5.26.9 1.57 2.48 3.17 4.84 3.17v-4c-.33 0-.83-.2-1.35-1.13a6.96 6.96 0 01-.81-3.28l-4-.02z" fill="#000" mask="url(#e)"/><path d="M55.9 61.21h1V59.55a3 3 0 00-3-3H43.68a3 3 0 00-3 3V61.2H55.9z" fill="#5C5C5C" stroke="#000" stroke-width="2"/><mask id="f" maskUnits="userSpaceOnUse" x="74.46" y="74.21" width="12" height="18" fill="#000"><path fill="#fff" d="M74.46 74.21h12v18h-12z"/><path fill-rule="evenodd" clip-rule="evenodd" d="M81.96 83.13a3.56 3.56 0 10-2.32 0c.02 2.85-1.48 6.42-4.18 6.42h10.66c-2.69 0-4.18-3.59-4.16-6.42z"/></mask><path fill-rule="evenodd" clip-rule="evenodd" d="M81.96 83.13a3.56 3.56 0 10-2.32 0c.02 2.85-1.48 6.42-4.18 6.42h10.66c-2.69 0-4.18-3.59-4.16-6.42z" fill="#5C5C5C"/><path d="M81.96 83.13l-.66-1.9-1.33.47-.01 1.42h2zm-2.32 0l2-.02-.02-1.41-1.33-.46-.65 1.9zm2.7-3.36c0 .68-.43 1.26-1.04 1.47l1.32 3.78a5.56 5.56 0 003.73-5.25h-4zM80.8 78.2c.86 0 1.56.7 1.56 1.56h4a5.56 5.56 0 00-5.56-5.56v4zm-1.56 1.56c0-.86.7-1.56 1.56-1.56v-4a5.56 5.56 0 00-5.56 5.56h4zm1.06 1.47a1.56 1.56 0 01-1.06-1.47h-4c0 2.44 1.58 4.5 3.76 5.25l1.3-3.78zm-4.83 10.3c2.35 0 3.95-1.57 4.85-3.14.9-1.6 1.34-3.55 1.33-5.29l-4 .04a6.83 6.83 0 01-.8 3.27c-.54.92-1.04 1.13-1.38 1.13v4zm10.66-4H75.46v4h10.66v-4zm-6.16-4.42c-.01 1.72.43 3.68 1.32 5.26.9 1.57 2.48 3.17 4.84 3.17v-4c-.33 0-.83-.2-1.35-1.13a6.96 6.96 0 01-.81-3.28l-4-.02z" fill="#000" mask="url(#f)"/><path d="M87.9 93.21h1V91.55a3 3 0 00-3-3H75.68a3 3 0 00-3 3V93.2H87.9z" fill="#5C5C5C" stroke="#000" stroke-width="2"/><mask id="g" maskUnits="userSpaceOnUse" x="106.46" y="42.21" width="12" height="18" fill="#000"><path fill="#fff" d="M106.46 42.21h12v18h-12z"/><path fill-rule="evenodd" clip-rule="evenodd" d="M113.96 51.13a3.56 3.56 0 10-2.32 0c.02 2.85-1.48 6.42-4.18 6.42h10.66c-2.69 0-4.18-3.59-4.16-6.42z"/></mask><path fill-rule="evenodd" clip-rule="evenodd" d="M113.96 51.13a3.56 3.56 0 10-2.32 0c.02 2.85-1.48 6.42-4.18 6.42h10.66c-2.69 0-4.18-3.59-4.16-6.42z" fill="#5C5C5C"/><path d="M113.96 51.13l-.66-1.9-1.33.47-.01 1.42h2zm-2.32 0l2-.02-.02-1.41-1.34-.46-.64 1.9zm2.7-3.36c0 .68-.43 1.26-1.04 1.47l1.31 3.78a5.56 5.56 0 003.74-5.25h-4zm-1.55-1.56c.86 0 1.56.7 1.56 1.56h4a5.56 5.56 0 00-5.56-5.56v4zm-1.56 1.56c0-.86.7-1.56 1.56-1.56v-4a5.56 5.56 0 00-5.56 5.56h4zm1.05 1.47a1.56 1.56 0 01-1.05-1.47h-4c0 2.44 1.58 4.5 3.76 5.25l1.3-3.78zm-4.82 10.3c2.35 0 3.95-1.57 4.85-3.14.9-1.6 1.34-3.55 1.33-5.29l-4 .04a6.83 6.83 0 01-.8 3.27c-.53.92-1.04 1.13-1.38 1.13v4zm10.66-4h-10.66v4h10.66v-4zm-6.16-4.42c-.01 1.72.43 3.68 1.33 5.26.88 1.57 2.47 3.17 4.83 3.17v-4c-.33 0-.83-.2-1.35-1.13a6.96 6.96 0 01-.81-3.28l-4-.02z" fill="#000" mask="url(#g)"/><path d="M119.9 61.21h1V59.55a3 3 0 00-3-3h-10.22a3 3 0 00-3 3V61.2h15.22z" fill="#5C5C5C" stroke="#000" stroke-width="2"/><mask id="h" maskUnits="userSpaceOnUse" x="138.46" y="74.21" width="12" height="18" fill="#000"><path fill="#fff" d="M138.46 74.21h12v18h-12z"/><path fill-rule="evenodd" clip-rule="evenodd" d="M145.96 83.13a3.56 3.56 0 10-2.32 0c.02 2.85-1.48 6.42-4.18 6.42h10.66c-2.69 0-4.18-3.59-4.16-6.42z"/></mask><path fill-rule="evenodd" clip-rule="evenodd" d="M145.96 83.13a3.56 3.56 0 10-2.32 0c.02 2.85-1.48 6.42-4.18 6.42h10.66c-2.69 0-4.18-3.59-4.16-6.42z" fill="#5C5C5C"/><path d="M145.96 83.13l-.66-1.9-1.33.47-.01 1.42h2zm-2.32 0l2-.02-.02-1.41-1.34-.46-.64 1.9zm2.7-3.36c0 .68-.43 1.26-1.04 1.47l1.31 3.78a5.56 5.56 0 003.74-5.25h-4zm-1.55-1.56c.86 0 1.56.7 1.56 1.56h4a5.56 5.56 0 00-5.56-5.56v4zm-1.55 1.56c0-.86.7-1.56 1.55-1.56v-4a5.56 5.56 0 00-5.55 5.56h4zm1.04 1.47a1.56 1.56 0 01-1.04-1.47h-4c0 2.44 1.57 4.5 3.75 5.25l1.3-3.78zm-4.82 10.3c2.35 0 3.95-1.57 4.85-3.14.9-1.6 1.34-3.55 1.33-5.29l-4 .04a6.83 6.83 0 01-.8 3.27c-.53.92-1.04 1.13-1.38 1.13v4zm10.66-4h-10.66v4h10.66v-4zm-6.16-4.42c-.01 1.72.43 3.68 1.32 5.26.9 1.57 2.48 3.17 4.84 3.17v-4c-.33 0-.83-.2-1.35-1.13a6.96 6.96 0 01-.81-3.28l-4-.02z" fill="#000" mask="url(#h)"/><path d="M151.9 93.21h1V91.55a3 3 0 00-3-3h-10.22a3 3 0 00-3 3V93.2h15.22z" fill="#5C5C5C" stroke="#000" stroke-width="2"/><mask id="i" maskUnits="userSpaceOnUse" x="202.46" y="42.21" width="12" height="18" fill="#000"><path fill="#fff" d="M202.46 42.21h12v18h-12z"/><path fill-rule="evenodd" clip-rule="evenodd" d="M209.96 51.13a3.56 3.56 0 10-2.32 0c.02 2.85-1.48 6.42-4.18 6.42h10.66c-2.69 0-4.18-3.59-4.16-6.42z"/></mask><path fill-rule="evenodd" clip-rule="evenodd" d="M209.96 51.13a3.56 3.56 0 10-2.32 0c.02 2.85-1.48 6.42-4.18 6.42h10.66c-2.69 0-4.18-3.59-4.16-6.42z" fill="#5C5C5C"/><path d="M209.96 51.13l-.66-1.9-1.33.47-.01 1.42h2zm-2.32 0l2-.02-.02-1.41-1.34-.46-.64 1.9zm2.7-3.36c0 .68-.43 1.26-1.04 1.47l1.31 3.78a5.56 5.56 0 003.74-5.25h-4zm-1.55-1.56c.86 0 1.56.7 1.56 1.56h4a5.56 5.56 0 00-5.56-5.56v4zm-1.55 1.56c0-.86.7-1.56 1.55-1.56v-4a5.56 5.56 0 00-5.55 5.56h4zm1.04 1.47a1.56 1.56 0 01-1.04-1.47h-4c0 2.44 1.57 4.5 3.75 5.25l1.3-3.78zm-4.82 10.3c2.35 0 3.95-1.57 4.85-3.14.9-1.6 1.34-3.55 1.33-5.29l-4 .04a6.83 6.83 0 01-.8 3.27c-.53.92-1.04 1.13-1.38 1.13v4zm10.66-4h-10.66v4h10.66v-4zm-6.16-4.42c-.01 1.72.43 3.68 1.32 5.26.9 1.57 2.48 3.17 4.84 3.17v-4c-.33 0-.83-.2-1.35-1.13a6.96 6.96 0 01-.81-3.28l-4-.02z" fill="#000" mask="url(#i)"/><path d="M215.9 61.21h1V59.55a3 3 0 00-3-3h-10.22a3 3 0 00-3 3V61.2h15.22z" fill="#5C5C5C" stroke="#000" stroke-width="2"/><mask id="j" maskUnits="userSpaceOnUse" x="234.46" y="42.21" width="12" height="18" fill="#000"><path fill="#fff" d="M234.46 42.21h12v18h-12z"/><path fill-rule="evenodd" clip-rule="evenodd" d="M241.96 51.13a3.56 3.56 0 10-2.32 0c.02 2.85-1.48 6.42-4.18 6.42h10.66c-2.69 0-4.18-3.59-4.16-6.42z"/></mask><path fill-rule="evenodd" clip-rule="evenodd" d="M241.96 51.13a3.56 3.56 0 10-2.32 0c.02 2.85-1.48 6.42-4.18 6.42h10.66c-2.69 0-4.18-3.59-4.16-6.42z" fill="#5C5C5C"/><path d="M241.96 51.13l-.66-1.9-1.33.47-.01 1.42h2zm-2.32 0l2-.02-.02-1.41-1.34-.46-.64 1.9zm2.7-3.36c0 .68-.43 1.26-1.04 1.47l1.31 3.78a5.56 5.56 0 003.74-5.25h-4zm-1.55-1.56c.86 0 1.56.7 1.56 1.56h4a5.56 5.56 0 00-5.56-5.56v4zm-1.55 1.56c0-.86.7-1.56 1.55-1.56v-4a5.56 5.56 0 00-5.55 5.56h4zm1.04 1.47a1.56 1.56 0 01-1.04-1.47h-4c0 2.44 1.57 4.5 3.75 5.25l1.3-3.78zm-4.82 10.3c2.35 0 3.95-1.57 4.85-3.14.9-1.6 1.34-3.55 1.33-5.29l-4 .04a6.83 6.83 0 01-.8 3.27c-.53.92-1.04 1.13-1.38 1.13v4zm10.66-4h-10.66v4h10.66v-4zm-6.16-4.42c-.01 1.72.43 3.68 1.32 5.26.9 1.57 2.48 3.17 4.84 3.17v-4c-.33 0-.83-.2-1.35-1.13a6.96 6.96 0 01-.81-3.28l-4-.02z" fill="#000" mask="url(#j)"/><path d="M247.9 61.21h1V59.55a3 3 0 00-3-3h-10.22a3 3 0 00-3 3V61.2h15.22z" fill="#5C5C5C" stroke="#000" stroke-width="2"/><mask id="k" maskUnits="userSpaceOnUse" x="266.46" y="74.21" width="12" height="18" fill="#000"><path fill="#fff" d="M266.46 74.21h12v18h-12z"/><path fill-rule="evenodd" clip-rule="evenodd" d="M273.96 83.13a3.56 3.56 0 10-2.32 0c.02 2.85-1.49 6.42-4.18 6.42h10.66c-2.69 0-4.18-3.59-4.16-6.42z"/></mask><path fill-rule="evenodd" clip-rule="evenodd" d="M273.96 83.13a3.56 3.56 0 10-2.32 0c.02 2.85-1.49 6.42-4.18 6.42h10.66c-2.69 0-4.18-3.59-4.16-6.42z" fill="#5C5C5C"/><path d="M273.96 83.13l-.66-1.9-1.33.47-.01 1.42h2zm-2.32 0l2-.02-.02-1.41-1.33-.46-.65 1.9zm2.7-3.36c0 .68-.43 1.26-1.04 1.47l1.31 3.78a5.56 5.56 0 003.74-5.25h-4zm-1.55-1.56c.86 0 1.56.7 1.56 1.56h4a5.56 5.56 0 00-5.56-5.56v4zm-1.56 1.56c0-.86.7-1.56 1.56-1.56v-4a5.56 5.56 0 00-5.56 5.56h4zm1.06 1.47a1.56 1.56 0 01-1.06-1.47h-4c0 2.44 1.58 4.5 3.76 5.25l1.3-3.78zm-4.83 10.3c2.35 0 3.95-1.57 4.85-3.14.9-1.6 1.34-3.55 1.33-5.29l-4 .04a6.83 6.83 0 01-.8 3.27c-.53.92-1.04 1.13-1.38 1.13v4zm10.66-4h-10.66v4h10.66v-4zm-6.16-4.42c-.01 1.72.43 3.68 1.33 5.26.88 1.57 2.47 3.17 4.83 3.17v-4c-.33 0-.83-.2-1.35-1.13a6.96 6.96 0 01-.81-3.28l-4-.02z" fill="#000" mask="url(#k)"/><path d="M279.9 93.21h1V91.55a3 3 0 00-3-3h-10.22a3 3 0 00-3 3V93.2h15.22z" fill="#5C5C5C" stroke="#000" stroke-width="2"/><mask id="l" maskUnits="userSpaceOnUse" x="74.46" y="202.21" width="12" height="18" fill="#000"><path fill="#fff" d="M74.46 202.21h12v18h-12z"/><path fill-rule="evenodd" clip-rule="evenodd" d="M81.96 211.13a3.56 3.56 0 10-2.32 0c.02 2.85-1.48 6.42-4.18 6.42h10.66c-2.69 0-4.18-3.59-4.16-6.42z"/></mask><path fill-rule="evenodd" clip-rule="evenodd" d="M81.96 211.13a3.56 3.56 0 10-2.32 0c.02 2.85-1.48 6.42-4.18 6.42h10.66c-2.69 0-4.18-3.59-4.16-6.42z" fill="#fff"/><path d="M81.96 211.13l-.66-1.9-1.33.47-.01 1.42h2zm-2.32 0l2-.02-.02-1.41-1.33-.46-.65 1.9zm2.7-3.36c0 .67-.43 1.26-1.04 1.47l1.32 3.78a5.56 5.56 0 003.73-5.25h-4zm-1.55-1.56c.86 0 1.56.7 1.56 1.56h4a5.56 5.56 0 00-5.56-5.56v4zm-1.56 1.56c0-.86.7-1.56 1.56-1.56v-4a5.56 5.56 0 00-5.56 5.56h4zm1.06 1.47a1.56 1.56 0 01-1.06-1.47h-4c0 2.44 1.58 4.5 3.76 5.25l1.3-3.78zm-4.83 10.3c2.35 0 3.95-1.57 4.85-3.14.9-1.6 1.34-3.55 1.33-5.29l-4 .04a6.83 6.83 0 01-.8 3.27c-.54.92-1.04 1.13-1.38 1.13v4zm10.66-4H75.46v4h10.66v-4zm-6.16-4.42c-.01 1.72.43 3.68 1.32 5.26.9 1.58 2.48 3.17 4.84 3.17v-4c-.33 0-.83-.2-1.35-1.13a6.96 6.96 0 01-.81-3.28l-4-.02z" fill="#000" mask="url(#l)"/><path d="M87.9 221.21h1V219.55a3 3 0 00-3-3H75.68a3 3 0 00-3 3V221.2H87.9z" fill="#fff" stroke="#000" stroke-width="2"/><mask id="m" maskUnits="userSpaceOnUse" x="106.46" y="170.21" width="12" height="18" fill="#000"><path fill="#fff" d="M106.46 170.21h12v18h-12z"/><path fill-rule="evenodd" clip-rule="evenodd" d="M113.96 179.13a3.56 3.56 0 10-2.32 0c.02 2.85-1.48 6.42-4.18 6.42h10.66c-2.69 0-4.18-3.59-4.16-6.42z"/></mask><path fill-rule="evenodd" clip-rule="evenodd" d="M113.96 179.13a3.56 3.56 0 10-2.32 0c.02 2.85-1.48 6.42-4.18 6.42h10.66c-2.69 0-4.18-3.59-4.16-6.42z" fill="#fff"/><path d="M113.96 179.13l-.66-1.9-1.33.47-.01 1.42h2zm-2.32 0l2-.02-.02-1.41-1.34-.46-.64 1.9zm2.7-3.36c0 .67-.43 1.26-1.04 1.47l1.31 3.78a5.56 5.56 0 003.74-5.25h-4zm-1.55-1.56c.86 0 1.56.7 1.56 1.56h4a5.56 5.56 0 00-5.56-5.56v4zm-1.56 1.56c0-.86.7-1.56 1.56-1.56v-4a5.55 5.55 0 00-5.56 5.56h4zm1.05 1.47a1.56 1.56 0 01-1.05-1.47h-4c0 2.44 1.58 4.5 3.76 5.25l1.3-3.78zm-4.82 10.3c2.35 0 3.95-1.57 4.85-3.14.9-1.6 1.34-3.55 1.33-5.29l-4 .04a6.83 6.83 0 01-.8 3.27c-.53.92-1.04 1.13-1.38 1.13v4zm10.66-4h-10.66v4h10.66v-4zm-6.16-4.42c-.01 1.72.43 3.68 1.33 5.26.88 1.58 2.47 3.17 4.83 3.17v-4c-.33 0-.83-.2-1.35-1.13a6.96 6.96 0 01-.81-3.28l-4-.02z" fill="#000" mask="url(#m)"/><path d="M119.9 189.21h1V187.55a3 3 0 00-3-3h-10.22a3 3 0 00-3 3V189.2h15.22z" fill="#fff" stroke="#000" stroke-width="2"/><mask id="n" maskUnits="userSpaceOnUse" x="138.46" y="138.21" width="12" height="18" fill="#000"><path fill="#fff" d="M138.46 138.21h12v18h-12z"/><path fill-rule="evenodd" clip-rule="evenodd" d="M145.96 147.13a3.56 3.56 0 10-2.32 0c.02 2.85-1.48 6.42-4.18 6.42h10.66c-2.69 0-4.18-3.59-4.16-6.42z"/></mask><path fill-rule="evenodd" clip-rule="evenodd" d="M145.96 147.13a3.56 3.56 0 10-2.32 0c.02 2.85-1.48 6.42-4.18 6.42h10.66c-2.69 0-4.18-3.59-4.16-6.42z" fill="#fff"/><path d="M145.96 147.13l-.66-1.9-1.33.47-.01 1.42h2zm-2.32 0l2-.02-.02-1.41-1.34-.46-.64 1.9zm2.7-3.36c0 .67-.43 1.26-1.04 1.47l1.31 3.78a5.56 5.56 0 003.74-5.25h-4zm-1.55-1.56c.86 0 1.56.7 1.56 1.56h4a5.56 5.56 0 00-5.56-5.56v4zm-1.55 1.56c0-.86.7-1.56 1.55-1.56v-4a5.55 5.55 0 00-5.55 5.56h4zm1.04 1.47a1.56 1.56 0 01-1.04-1.47h-4c0 2.44 1.57 4.5 3.75 5.25l1.3-3.78zm-4.82 10.3c2.35 0 3.95-1.57 4.85-3.14.9-1.6 1.34-3.55 1.33-5.29l-4 .04a6.83 6.83 0 01-.8 3.27c-.53.92-1.04 1.13-1.38 1.13v4zm10.66-4h-10.66v4h10.66v-4zm-6.16-4.42c-.01 1.72.43 3.68 1.32 5.26.9 1.58 2.48 3.17 4.84 3.17v-4c-.33 0-.83-.2-1.35-1.13a6.96 6.96 0 01-.81-3.28l-4-.02z" fill="#000" mask="url(#n)"/><path d="M151.9 157.21h1V155.55a3 3 0 00-3-3h-10.22a3 3 0 00-3 3V157.2h15.22z" fill="#fff" stroke="#000" stroke-width="2"/><mask id="o" maskUnits="userSpaceOnUse" x="234.46" y="202.21" width="12" height="18" fill="#000"><path fill="#fff" d="M234.46 202.21h12v18h-12z"/><path fill-rule="evenodd" clip-rule="evenodd" d="M241.96 211.13a3.56 3.56 0 10-2.32 0c.02 2.85-1.48 6.42-4.18 6.42h10.66c-2.69 0-4.18-3.59-4.16-6.42z"/></mask><path fill-rule="evenodd" clip-rule="evenodd" d="M241.96 211.13a3.56 3.56 0 10-2.32 0c.02 2.85-1.48 6.42-4.18 6.42h10.66c-2.69 0-4.18-3.59-4.16-6.42z" fill="#fff"/><path d="M241.96 211.13l-.66-1.9-1.33.47-.01 1.42h2zm-2.32 0l2-.02-.02-1.41-1.34-.46-.64 1.9zm2.7-3.36c0 .67-.43 1.26-1.04 1.47l1.31 3.78a5.56 5.56 0 003.74-5.25h-4zm-1.55-1.56c.86 0 1.56.7 1.56 1.56h4a5.56 5.56 0 00-5.56-5.56v4zm-1.55 1.56c0-.86.7-1.56 1.55-1.56v-4a5.55 5.55 0 00-5.55 5.56h4zm1.04 1.47a1.56 1.56 0 01-1.04-1.47h-4c0 2.44 1.57 4.5 3.75 5.25l1.3-3.78zm-4.82 10.3c2.35 0 3.95-1.57 4.85-3.14.9-1.6 1.34-3.55 1.33-5.29l-4 .04a6.83 6.83 0 01-.8 3.27c-.53.92-1.04 1.13-1.38 1.13v4zm10.66-4h-10.66v4h10.66v-4zm-6.16-4.42c-.01 1.72.43 3.68 1.32 5.26.9 1.58 2.48 3.17 4.84 3.17v-4c-.33 0-.83-.2-1.35-1.13a6.96 6.96 0 01-.81-3.28l-4-.02z" fill="#000" mask="url(#o)"/><path d="M247.9 221.21h1V219.55a3 3 0 00-3-3h-10.22a3 3 0 00-3 3V221.2h15.22z" fill="#fff" stroke="#000" stroke-width="2"/><mask id="p" maskUnits="userSpaceOnUse" x="266.46" y="202.21" width="12" height="18" fill="#000"><path fill="#fff" d="M266.46 202.21h12v18h-12z"/><path fill-rule="evenodd" clip-rule="evenodd" d="M273.96 211.13a3.56 3.56 0 10-2.32 0c.02 2.85-1.49 6.42-4.18 6.42h10.66c-2.69 0-4.18-3.59-4.16-6.42z"/></mask><path fill-rule="evenodd" clip-rule="evenodd" d="M273.96 211.13a3.56 3.56 0 10-2.32 0c.02 2.85-1.49 6.42-4.18 6.42h10.66c-2.69 0-4.18-3.59-4.16-6.42z" fill="#fff"/><path d="M273.96 211.13l-.66-1.9-1.33.47-.01 1.42h2zm-2.32 0l2-.02-.02-1.41-1.33-.46-.65 1.9zm2.7-3.36c0 .67-.43 1.26-1.04 1.47l1.31 3.78a5.56 5.56 0 003.74-5.25h-4zm-1.55-1.56c.86 0 1.56.7 1.56 1.56h4a5.56 5.56 0 00-5.56-5.56v4zm-1.56 1.56c0-.86.7-1.56 1.56-1.56v-4a5.55 5.55 0 00-5.56 5.56h4zm1.06 1.47a1.56 1.56 0 01-1.06-1.47h-4c0 2.44 1.58 4.5 3.76 5.25l1.3-3.78zm-4.83 10.3c2.35 0 3.95-1.57 4.85-3.14.9-1.6 1.34-3.55 1.33-5.29l-4 .04a6.83 6.83 0 01-.8 3.27c-.53.92-1.04 1.13-1.38 1.13v4zm10.66-4h-10.66v4h10.66v-4zm-6.16-4.42c-.01 1.72.43 3.68 1.33 5.26.88 1.58 2.47 3.17 4.83 3.17v-4c-.33 0-.83-.2-1.35-1.13a6.96 6.96 0 01-.81-3.28l-4-.02z" fill="#000" mask="url(#p)"/><path d="M279.9 221.21h1V219.55a3 3 0 00-3-3h-10.22a3 3 0 00-3 3V221.2h15.22z" fill="#fff" stroke="#000" stroke-width="2"/><path fill-rule="evenodd" clip-rule="evenodd" d="M115.65 199.18a3 3 0 01-1.1 2.32l1.8 7.16 3.88-3.66a3.04 3.04 0 01-.33-1.38 2.91 2.91 0 012.86-2.96 2.91 2.91 0 012.86 2.96 2.91 2.91 0 01-3.05 2.96l-2.67 10.08h-14.22L103 206.58a2.92 2.92 0 01-2.66-2.96 2.91 2.91 0 012.85-2.96 2.91 2.91 0 012.86 2.96c0 .6-.17 1.15-.46 1.62l3.64 3.42 1.78-7.16a3 3 0 01-1.09-2.32 2.91 2.91 0 012.86-2.97 2.91 2.91 0 012.86 2.97z" fill="#fff"/><path d="M114.56 201.5l-.64-.77-.49.4.16.62.97-.25zm1.79 7.16l-.97.24.4 1.65 1.25-1.16-.68-.73zm3.88-3.66l.69.73.54-.51-.34-.67-.89.45zm2.34 1.58l.07-1-.83-.06-.2.8.96.26zm-2.67 10.08v1h.77l.2-.75-.97-.25zm-14.22 0l-.97.25.2.75h.77v-1zM103 206.58l.97-.26-.19-.7-.71-.04-.07 1zm2.59-1.34l-.85-.54-.44.7.6.56.69-.72zm3.64 3.42l-.7.73 1.25 1.16.41-1.65-.97-.24zm1.78-7.16l.97.25.16-.62-.5-.4-.63.77zm4.17.78a4 4 0 001.46-3.1h-2a2 2 0 01-.73 1.55l1.27 1.55zm2.13 6.13l-1.8-7.15-1.93.49 1.79 7.15 1.94-.49zm2.23-4.14l-3.89 3.66 1.37 1.46 3.89-3.66-1.38-1.46zm-.65-.65c0 .66.16 1.28.44 1.84l1.78-.91a2.04 2.04 0 01-.22-.93h-2zm3.86-3.96a3.91 3.91 0 00-3.86 3.96h2c0-1.12.87-1.96 1.86-1.96v-2zm3.86 3.96c0-2.15-1.7-3.96-3.86-3.96v2c.99 0 1.86.84 1.86 1.96h2zm-3.86 3.96c2.16 0 3.86-1.8 3.86-3.96h-2c0 1.12-.87 1.96-1.86 1.96v2zm-.26 0h.26v-2h-.12l-.14 2zm-1.63 9.33l2.67-10.08-1.94-.5-2.66 10.07 1.93.51zm-15.2.75h14.23v-2h-14.22v2zm-3.63-10.83l2.67 10.08 1.94-.5-2.67-10.09-1.94.51zm1.04-1.25a1.92 1.92 0 01-1.73-1.96h-2a3.92 3.92 0 003.6 3.95l.13-2zm-1.73-1.96c0-1.12.86-1.96 1.85-1.96v-2a3.91 3.91 0 00-3.85 3.96h2zm1.85-1.96c1 0 1.86.84 1.86 1.96h2c0-2.15-1.7-3.96-3.86-3.96v2zm1.86 1.96c0 .4-.12.78-.3 1.08l1.69 1.07c.38-.62.61-1.36.61-2.15h-2zm4.86 4.3l-3.64-3.41-1.37 1.45 3.64 3.43 1.37-1.46zm.13-6.66l-1.79 7.16 1.94.48 1.8-7.15-1.95-.49zm-1.12-2.08a4 4 0 001.46 3.1l1.27-1.55a2 2 0 01-.73-1.55h-2zm3.86-3.97a3.91 3.91 0 00-3.86 3.97h2c0-1.12.87-1.97 1.86-1.97v-2zm3.86 3.97c0-2.16-1.7-3.97-3.86-3.97v2c1 0 1.86.85 1.86 1.97h2z" fill="#000"/><path d="M122.57 221.21h1v-2.55a3 3 0 00-3-3H105a3 3 0 00-3 3v2.55h20.56z" fill="#fff" stroke="#000" stroke-width="2"/><path fill-rule="evenodd" clip-rule="evenodd" d="M147.65 7.18a3 3 0 01-1.1 2.32l1.8 7.16 3.88-3.66a3.04 3.04 0 01-.33-1.38 2.91 2.91 0 012.86-2.96 2.91 2.91 0 012.86 2.96 2.91 2.91 0 01-3.05 2.96l-2.67 10.08h-14.22L135 14.58a2.92 2.92 0 01-2.66-2.96 2.91 2.91 0 012.85-2.96 2.91 2.91 0 012.86 2.96c0 .6-.17 1.15-.46 1.62l3.64 3.42 1.78-7.16a3 3 0 01-1.09-2.32 2.91 2.91 0 012.86-2.97 2.91 2.91 0 012.86 2.97z" fill="#5C5C5C"/><path d="M146.56 9.5l-.63-.77-.5.4.16.62.97-.25zm1.79 7.16l-.97.24.4 1.65 1.25-1.16-.68-.73zm3.88-3.66l.69.73.54-.51-.34-.67-.89.45zm2.34 1.58l.07-1-.83-.06-.2.8.96.26zm-2.67 10.08v1h.77l.2-.75-.97-.25zm-14.22 0l-.97.25.2.75h.77v-1zM135 14.58l.97-.26-.19-.7-.71-.04-.07 1zm2.59-1.34l-.85-.54-.44.7.6.56.69-.72zm3.64 3.42l-.7.73 1.25 1.16.42-1.65-.97-.24zm1.78-7.16l.97.25.16-.62-.5-.4-.63.77zm4.17.78a4 4 0 001.46-3.1h-2a2 2 0 01-.72 1.55l1.26 1.55zm2.13 6.13l-1.8-7.15-1.93.49 1.79 7.15 1.94-.49zm2.22-4.14l-3.88 3.66 1.37 1.46 3.88-3.66-1.37-1.46zm-.64-.65c0 .66.16 1.28.44 1.84l1.78-.91a2.05 2.05 0 01-.22-.93h-2zm3.86-3.96a3.91 3.91 0 00-3.86 3.96h2c0-1.12.87-1.96 1.86-1.96v-2zm3.86 3.96c0-2.15-1.7-3.96-3.86-3.96v2c.99 0 1.86.84 1.86 1.96h2zm-3.86 3.96c2.16 0 3.86-1.8 3.86-3.96h-2c0 1.12-.87 1.96-1.86 1.96v2zm-.26 0h.26v-2h-.12l-.14 2zm-1.63 9.33l2.67-10.08-1.94-.5-2.66 10.07 1.93.51zm-15.2.75h14.23v-2h-14.22v2zm-3.63-10.83l2.67 10.08 1.94-.5-2.67-10.09-1.94.51zm1.04-1.25a1.92 1.92 0 01-1.73-1.96h-2a3.92 3.92 0 003.6 3.95l.13-2zm-1.73-1.96c0-1.12.86-1.96 1.85-1.96v-2a3.91 3.91 0 00-3.85 3.96h2zm1.85-1.96c1 0 1.86.84 1.86 1.96h2c0-2.15-1.7-3.96-3.86-3.96v2zm1.86 1.96c0 .4-.12.78-.3 1.08l1.69 1.07c.39-.62.61-1.36.61-2.15h-2zm4.86 4.3l-3.64-3.41-1.37 1.45 3.64 3.43 1.37-1.46zm.13-6.66l-1.79 7.15 1.95.49 1.78-7.15-1.94-.49zm-1.12-2.08a4 4 0 001.46 3.1l1.27-1.55a2 2 0 01-.73-1.55h-2zm3.86-3.97a3.91 3.91 0 00-3.86 3.97h2c0-1.12.87-1.97 1.86-1.97v-2zm3.86 3.97c0-2.16-1.7-3.97-3.86-3.97v2c1 0 1.86.85 1.86 1.97h2z" fill="#000"/><path d="M154.57 29.21h1v-2.55a3 3 0 00-3-3H137a3 3 0 00-3 3v2.55h20.56z" fill="#5C5C5C" stroke="#000" stroke-width="2"/><path d="M268.79 236.99h-.88l-.11.88-1.34 10.66-.14 1.13h12.98l-.19-1.17-1.78-10.66-.14-.84h-8.4z" fill="#fff" stroke="#000" stroke-width="2"/><path d="M265.68 229.88h-1v9.11h16.22v-9.11h-3.12l-.24.66-1.18 3.23h-1.03l-.86-3.16-.2-.73h-2.95l-.2.74-.87 3.15h-1.03l-1.18-3.23-.24-.66h-2.12zM282.57 253.21h1v-2.55a3 3 0 00-3-3H265a3 3 0 00-3 3v2.55h20.56z" fill="#fff" stroke="#000" stroke-width="2"/><path d="M204.79 12.99h-.88l-.11.88-1.34 10.66-.14 1.13h12.98l-.19-1.17-1.78-10.66-.14-.84h-8.4z" fill="#5C5C5C" stroke="#000" stroke-width="2"/><path d="M201.68 5.88h-1v9.11h16.22V5.88h-3.12l-.24.66-1.18 3.23h-1.03l-.86-3.15-.2-.74h-2.95l-.2.74-.87 3.15h-1.03l-1.18-3.23-.24-.66h-2.12zM218.57 29.21h1v-2.55a3 3 0 00-3-3H201a3 3 0 00-3 3v2.55h20.56zM44.79 12.99h-.88l-.11.88-1.34 10.66-.14 1.13H55.3l-.19-1.17-1.78-10.66-.14-.84h-8.4z" fill="#5C5C5C" stroke="#000" stroke-width="2"/><path d="M41.68 5.88h-1v9.11H56.9V5.88h-3.12l-.24.66-1.18 3.23h-1.03l-.86-3.15-.2-.74h-2.95l-.2.74-.87 3.15h-1.03l-1.18-3.23-.24-.66h-2.12zM58.57 29.21h1v-2.55a3 3 0 00-3-3H41a3 3 0 00-3 3v2.55h20.56z" fill="#5C5C5C" stroke="#000" stroke-width="2"/><path d="M44.79 236.99h-.88l-.11.88-1.34 10.66-.14 1.13H55.3l-.19-1.17-1.78-10.66-.14-.84h-8.4z" fill="#fff" stroke="#000" stroke-width="2"/><path d="M41.68 229.88h-1v9.11H56.9v-9.11h-3.12l-.24.66-1.18 3.23h-1.03l-.86-3.16-.2-.73h-2.95l-.2.74-.87 3.15h-1.03l-1.18-3.23-.24-.66h-2.12zM58.57 253.21h1v-2.55a3 3 0 00-3-3H41a3 3 0 00-3 3v2.55h20.56zM84.57 248.77h.54l.3-.45-.84-.55.84.55h0v-.02l.03-.04.1-.15a33.11 33.11 0 001.44-2.53 28.54 28.54 0 002.4-6.06c.53-2.2.7-4.64-.41-6.58-1.16-2.02-3.49-3.15-7.14-3.15h-.02a.4.4 0 01-.13-.06s0 0 0 0c-.03-.01-.2-.12-.2-.63v-1h-1c-.51 0-.95.28-1.19.45-.28.21-.55.47-.78.7a11.71 11.71 0 00-.72.81l-2.59 1.9-.16.12-.1.16-2.72 4.4-.24.4.14.45 1 3.03.42 1.29 1.1-.78 2.31-1.62 1.7-1.14c.87.32 1.24.67 1.4.87l.07.1-.05.1a16.56 16.56 0 01-3.55 4.57 3.17 3.17 0 00-.66 3.96l.24.4.3.5h8.17z" fill="#fff" stroke="#000" stroke-width="2"/><path d="M90.57 253.21h1v-2.55a3 3 0 00-3-3H73a3 3 0 00-3 3v2.55h20.56z" fill="#fff" stroke="#000" stroke-width="2"/><path d="M76.35 233.55l.89-.45v.34a1 1 0 01-1 1h-.34l.45-.9z" fill="#000"/><mask id="q" maskUnits="userSpaceOnUse" x="38.68" y="67.1" width="20" height="25" fill="#000"><path fill="#fff" d="M38.68 67.1h20v25h-20z"/><path fill-rule="evenodd" clip-rule="evenodd" d="M49.37 72.23c.55-.25.93-.83.93-1.5 0-.9-.7-1.63-1.55-1.63a1.6 1.6 0 00-1.54 1.63c0 .69.4 1.28.96 1.52l-6.49 9.39s3.12 7.54 7.09 7.48c3.96-.05 7.27-7.68 7.27-7.68l-6.67-9.2z"/></mask><path fill-rule="evenodd" clip-rule="evenodd" d="M49.37 72.23c.55-.25.93-.83.93-1.5 0-.9-.7-1.63-1.55-1.63a1.6 1.6 0 00-1.54 1.63c0 .69.4 1.28.96 1.52l-6.49 9.39s3.12 7.54 7.09 7.48c3.96-.05 7.27-7.68 7.27-7.68l-6.67-9.2z" fill="#5C5C5C"/><path d="M49.37 72.23l-.84-1.81-2.2 1.02 1.42 1.96 1.62-1.17zm-1.2.02l1.65 1.14 1.4-2.02-2.26-.96-.79 1.84zm-6.49 9.39l-1.65-1.14-.61.9.41 1 1.85-.76zm7.09 7.48l.02 2-.02-2zm7.27-7.68l1.83.8.46-1.05-.67-.93-1.62 1.18zm-7.74-10.7c0-.1.05-.24.23-.32l1.68 3.63a3.64 3.64 0 002.09-3.32h-4zm.45.36a.5.5 0 01-.36-.15.33.33 0 01-.1-.22h4c0-1.9-1.48-3.63-3.54-3.63v4zm.46-.37c0 .07-.03.15-.1.22a.5.5 0 01-.36.15v-4a3.59 3.59 0 00-3.54 3.63h4zm-.25-.32c.2.08.25.23.25.32h-4c0 1.47.85 2.8 2.18 3.36l1.57-3.68zm-5.64 12.37l6.5-9.4-3.3-2.27-6.49 9.39 3.3 2.28zm5.42 4.34c-.34 0-.83-.15-1.48-.69-.65-.53-1.29-1.3-1.87-2.15a21.27 21.27 0 01-1.84-3.35l-.02-.05-1.85.76-1.85.76v.01l.02.03a7.62 7.62 0 00.15.34 25.35 25.35 0 002.08 3.75 14.3 14.3 0 002.63 3 6.33 6.33 0 004.08 1.6l-.05-4zm7.3-5.68l-1.83-.8v.01a3.6 3.6 0 01-.13.26 22.73 22.73 0 01-1.84 3.21c-.6.88-1.27 1.68-1.95 2.24-.69.58-1.2.76-1.55.76l.05 4a6.57 6.57 0 004.07-1.68c1.06-.89 1.96-2 2.68-3.04a26.93 26.93 0 002.32-4.13l.01-.02v-.01l-1.83-.8zm-8.29-8.04l6.67 9.21 3.24-2.35-6.67-9.2-3.24 2.34z" fill="#000" mask="url(#q)"/><path d="M58.57 93.21h1v-2.55a3 3 0 00-3-3H41a3 3 0 00-3 3v2.55h20.56z" fill="#5C5C5C" stroke="#000" stroke-width="2"/><path d="M48.8 78.88l3.55-2.67L53.68 78l-4.89 3.56v-2.67z" fill="#000"/></g><defs><clipPath id="clip0"><path fill="#fff" transform="translate(.8 .77)" d="M0 0h320v288H0z"/></clipPath></defs></svg>