<svg width="32" height="32" fill="none" xmlns="http://www.w3.org/2000/svg"><path d="M19.78 24h.54l.3-.45-.84-.55.84.55h0v-.02l.03-.04a16.57 16.57 0 00.44-.7c.29-.48.68-1.17 1.1-1.98a28.53 28.53 0 002.39-6.06c.54-2.2.7-4.64-.4-6.57-1.16-2.02-3.49-3.15-7.14-3.16h-.02a.4.4 0 01-.13-.05s0 0 0 0c-.03-.02-.2-.12-.2-.64v-1h-1c-.51 0-.95.28-1.19.46-.28.2-.56.46-.78.69a11.67 11.67 0 00-.72.81l-2.6 1.9-.15.12-.1.16-2.72 4.41-.25.4.15.44 1 3.04.41 1.28 1.1-.78 2.32-1.62 1.7-1.14c.87.32 1.24.68 1.4.88l.06.1a10.31 10.31 0 01-.67 1.22c-.6.94-1.53 2.2-2.92 3.45a3.17 3.17 0 00-.66 3.95l.24.41.29.49h8.18z" fill="#fff" stroke="#000" stroke-width="2"/><path d="M25.78 28.44h1V25.9a3 3 0 00-3-3H8.22a3 3 0 00-3 3v2.55h20.56z" fill="#fff" stroke="#000" stroke-width="2"/><path d="M11.56 8.78l.88-.45v.34a1 1 0 01-1 1h-.33l.45-.9z" fill="#000"/></svg>