<svg width="321" height="289" fill="none" xmlns="http://www.w3.org/2000/svg"><g clip-path="url(#clip0)"><path fill="#FEE6C1" d="M32.5.37h256v256h-256z"/><path d="M32.5 224.37h32v32h-32v-32zM32.5 96.37h32v32h-32v-32zM32.5 160.37h32v32h-32v-32zM32.5 32.37h32v32h-32v-32zM64.5 192.37h32v32h-32v-32zM64.5 64.37h32v32h-32v-32zM64.5 128.37h32v32h-32v-32zM64.5.37h32v32h-32v-32zM160.5 224.37h32v32h-32v-32zM160.5 96.37h32v32h-32v-32zM160.5 160.37h32v32h-32v-32zM160.5 32.37h32v32h-32v-32zM192.5 192.37h32v32h-32v-32zM192.5 64.37h32v32h-32v-32zM192.5 128.37h32v32h-32v-32zM192.5.37h32v32h-32v-32zM96.5 224.37h32v32h-32v-32zM96.5 96.37h32v32h-32v-32zM96.5 160.37h32v32h-32v-32zM96.5 32.37h32v32h-32v-32zM128.5 192.37h32v32h-32v-32zM128.5 64.37h32v32h-32v-32zM128.5 128.37h32v32h-32v-32zM128.5.37h32v32h-32v-32zM224.5 224.37h32v32h-32v-32zM224.5 96.37h32v32h-32v-32zM224.5 160.37h32v32h-32v-32zM224.5 32.37h32v32h-32v-32zM256.5 192.37h32v32h-32v-32zM256.5 64.37h32v32h-32v-32zM256.5 128.37h32v32h-32v-32zM256.5.37h32v32h-32v-32z" fill="#866C4A"/><path d="M13.92 237.73v-2.54h4.43v11.68H15.5v-9.14h-1.58zM12.55 212.68l.5-.4a59.07 59.07 0 002.46-2.13c.6-.56 1.12-1.14 1.54-1.75.41-.6.62-1.2.62-1.77 0-.44-.1-.78-.3-1.03-.2-.24-.51-.36-.92-.36-.4 0-.72.15-.96.46-.22.3-.33.73-.33 1.28h-2.64c.02-.9.21-1.66.57-2.27.38-.61.86-1.06 1.46-1.35.6-.29 1.28-.43 2.02-.43 1.27 0 2.22.33 2.86.98.65.65.98 1.5.98 2.54 0 1.14-.4 2.2-1.17 3.19-.78.97-1.77 1.92-2.98 2.84h4.32v2.23h-8.03v-2.03zM12.47 174.48a3.52 3.52 0 011.12-2.64c.7-.62 1.66-.93 2.86-.93.8 0 1.48.14 2.05.42a2.96 2.96 0 011.74 2.75c0 .7-.17 1.28-.52 1.73-.36.44-.77.74-1.24.9v.06c.61.2 1.1.54 1.44 1 .36.48.53 1.08.53 1.82a3.07 3.07 0 01-1.8 2.94c-.57.29-1.25.43-2.05.43a4.7 4.7 0 01-3.08-.94c-.75-.63-1.15-1.58-1.2-2.85h2.66c.01.47.14.84.4 1.12.26.27.63.4 1.12.4.42 0 .74-.12.96-.35.23-.25.35-.57.35-.96 0-.51-.16-.88-.5-1.1-.31-.24-.83-.36-1.55-.36h-.5v-2.22h.5c.55 0 .99-.1 1.32-.27.34-.2.5-.53.5-1.01 0-.38-.1-.68-.31-.9-.21-.21-.5-.32-.88-.32-.4 0-.71.13-.91.37-.2.25-.3.55-.34.91h-2.67zM11.87 148.79v-2.21l5.05-7.23h3.06v7.07h1.31v2.37h-1.31v2.08h-2.74v-2.08h-5.37zm5.56-6.44l-2.68 4.07h2.68v-4.06zM20.24 108.57h-5v2.2c.22-.22.52-.42.9-.57.38-.15.8-.22 1.25-.22a3.19 3.19 0 013.15 1.95c.25.58.37 1.2.37 1.87 0 1.25-.35 2.24-1.06 2.98-.7.72-1.7 1.09-2.97 1.09a5.3 5.3 0 01-2.23-.44c-.63-.3-1.11-.7-1.45-1.23a3.54 3.54 0 01-.56-1.8h2.67c.06.33.22.6.46.83.25.21.58.32 1.01.32.5 0 .88-.16 1.12-.48.25-.32.37-.75.37-1.28s-.13-.93-.38-1.2c-.26-.28-.63-.42-1.13-.42-.36 0-.66.1-.9.27-.23.17-.38.4-.46.7h-2.63v-6.97h7.47v2.4zM17.9 77.34a1.6 1.6 0 00-.45-.88c-.21-.2-.52-.3-.91-.3-.61 0-1.05.26-1.31.8-.27.52-.4 1.35-.42 2.5a2.4 2.4 0 011-.89c.46-.21.95-.32 1.48-.32a3.3 3.3 0 012.51 1c.64.65.96 1.58.96 2.76 0 .78-.16 1.46-.48 2.05a3.3 3.3 0 01-1.37 1.38c-.6.33-1.31.5-2.13.5-1.64 0-2.79-.52-3.43-1.54-.64-1.04-.96-2.52-.96-4.45 0-2.03.34-3.53 1.01-4.51.69-1 1.77-1.5 3.27-1.5.8 0 1.47.17 2.01.49.56.3.97.72 1.25 1.23.29.51.46 1.07.51 1.68H17.9zm-1.27 3.07c-.45 0-.84.14-1.15.42-.3.26-.45.65-.45 1.15 0 .51.14.91.42 1.2.29.29.7.43 1.22.43.47 0 .83-.14 1.1-.41.28-.3.42-.68.42-1.17 0-.5-.14-.9-.4-1.19-.27-.28-.65-.43-1.16-.43zM20.4 44.24l-4.03 9.63h-2.8l4.07-9.33h-4.98V42.2h7.73v2.04zM13.95 16.6c-1-.54-1.5-1.38-1.5-2.52a2.86 2.86 0 011.8-2.7c.61-.29 1.36-.43 2.24-.43.89 0 1.63.14 2.23.43.6.28 1.06.66 1.36 1.14.3.46.44.99.44 1.56a2.7 2.7 0 01-.41 1.5c-.27.43-.63.77-1.09 1.02a3.06 3.06 0 011.8 2.85 3.37 3.37 0 01-2.15 3.2c-.65.3-1.38.44-2.18.44-.8 0-1.53-.14-2.19-.43a3.37 3.37 0 01-2.13-3.22 3.04 3.04 0 011.78-2.85zm3.92-2.1c0-.44-.13-.77-.39-1a1.34 1.34 0 00-.99-.38c-.41 0-.75.13-1 .37-.25.25-.37.59-.37 1.03 0 .41.12.74.38.99.26.23.59.35 1 .35.4 0 .73-.12.98-.37.26-.24.39-.57.39-1zm-1.38 3.28c-.5 0-.9.14-1.21.42-.31.26-.47.64-.47 1.12 0 .44.15.81.45 1.1.31.29.72.43 1.23.43s.91-.14 1.2-.43c.3-.29.45-.66.45-1.1 0-.47-.15-.85-.46-1.12-.3-.28-.7-.42-1.19-.42zM273.58 269.34c1.03 0 1.85.35 2.47 1.03.62.67.93 1.6.93 2.78v5.22h-2.72v-4.85c0-.6-.16-1.06-.47-1.4-.3-.32-.72-.49-1.25-.49-.52 0-.93.17-1.24.5-.31.33-.47.8-.47 1.39v4.85h-2.73v-11.84h2.73v4.1c.28-.38.66-.7 1.14-.94a3.64 3.64 0 011.61-.35zM239.45 269.31c.63 0 1.18.13 1.65.38.48.26.85.6 1.1 1.01v-1.26h2.74v8.91a4.9 4.9 0 01-.5 2.22c-.32.68-.81 1.21-1.49 1.6-.66.4-1.48.6-2.48.6-1.32 0-2.39-.32-3.21-.95a3.5 3.5 0 01-1.41-2.52h2.7c.09.34.3.6.61.8.32.2.72.3 1.19.3.56 0 1.01-.17 1.34-.5.34-.32.51-.83.51-1.55v-1.26a3.08 3.08 0 01-2.75 1.4 3.7 3.7 0 01-3.42-2.17 5.51 5.51 0 01-.52-2.43c0-.92.18-1.72.52-2.42a3.7 3.7 0 013.42-2.16zm2.75 4.6c0-.69-.19-1.23-.57-1.62-.38-.4-.84-.6-1.38-.6-.54 0-1 .2-1.4.6a2.2 2.2 0 00-.55 1.6c0 .68.19 1.22.56 1.63.38.4.85.6 1.39.6.54 0 1-.2 1.38-.6.38-.4.57-.93.57-1.62zM211.09 271.71h-1.48v6.66h-2.73v-6.66h-1v-2.27h1v-.26c0-1.1.31-1.93.94-2.5.63-.57 1.55-.86 2.77-.86.2 0 .35 0 .45.02v2.32c-.53-.03-.9.04-1.1.22-.22.19-.33.51-.33.98v.08h1.47v2.27zM180.97 273.76c0 .25-.01.52-.04.8h-6.2c.05.55.22.98.53 1.28.32.29.71.43 1.17.43.68 0 1.16-.29 1.42-.86h2.92a3.93 3.93 0 01-.82 1.58c-.38.47-.87.84-1.46 1.1a4.7 4.7 0 01-1.96.4c-.88 0-1.66-.18-2.34-.56a3.98 3.98 0 01-1.6-1.6c-.38-.69-.58-1.5-.58-2.43 0-.92.2-1.73.56-2.43a4 4 0 011.6-1.6 4.83 4.83 0 012.36-.56c.86 0 1.63.18 2.3.55.67.36 1.2.88 1.57 1.55.38.67.57 1.45.57 2.35zm-2.8-.72c0-.47-.16-.84-.48-1.12a1.77 1.77 0 00-1.2-.42c-.45 0-.84.14-1.16.4-.31.27-.5.65-.58 1.14h3.42zM139.51 273.89c0-.92.18-1.72.52-2.42a3.7 3.7 0 015.02-1.8c.5.25.88.58 1.15 1v-4.14h2.74v11.84h-2.74v-1.28c-.25.42-.62.77-1.1 1.02-.47.26-1.02.38-1.65.38a3.7 3.7 0 01-3.42-2.17 5.51 5.51 0 01-.52-2.43zm6.7.01c0-.68-.2-1.22-.58-1.61-.38-.4-.84-.6-1.38-.6-.54 0-1 .2-1.4.6a2.2 2.2 0 00-.55 1.6c0 .68.19 1.22.56 1.63.38.4.85.6 1.39.6.54 0 1-.2 1.38-.6.38-.4.57-.93.57-1.62zM108.1 273.9c0-.92.19-1.73.56-2.43.38-.7.91-1.23 1.58-1.6a4.8 4.8 0 012.34-.56c1.12 0 2.05.3 2.8.88a4.13 4.13 0 011.49 2.48h-2.91c-.25-.68-.72-1.02-1.43-1.02-.5 0-.9.2-1.2.59-.3.38-.45.94-.45 1.66 0 .73.15 1.29.45 1.68.3.39.7.58 1.2.58.7 0 1.18-.34 1.43-1.03h2.9a4.18 4.18 0 01-1.48 2.47c-.76.6-1.69.9-2.8.9-.87 0-1.65-.2-2.34-.56a4 4 0 01-1.58-1.6c-.37-.7-.56-1.5-.56-2.44zM78.8 270.7c.25-.41.62-.75 1.1-1a3.45 3.45 0 011.65-.39 3.7 3.7 0 013.4 2.16c.36.7.53 1.5.53 2.42 0 .92-.17 1.73-.53 2.43-.34.7-.8 1.23-1.4 1.62a3.7 3.7 0 01-2 .56 3.5 3.5 0 01-1.65-.37c-.47-.26-.84-.6-1.1-1.01v1.25h-2.74v-11.84h2.73v4.17zm3.9 3.19c0-.69-.2-1.22-.58-1.6-.37-.4-.83-.6-1.39-.6-.54 0-1 .2-1.4.6-.36.4-.55.93-.55 1.61 0 .69.19 1.23.56 1.62.38.4.85.6 1.39.6.54 0 1-.2 1.4-.6.38-.4.57-.95.57-1.63zM43.51 273.89c0-.92.18-1.72.52-2.42a3.7 3.7 0 013.42-2.16c.63 0 1.18.13 1.65.38.48.26.85.6 1.1 1.01v-1.26h2.74v8.93H50.2v-1.27c-.26.42-.64.75-1.12 1.01-.47.26-1.02.38-1.65.38-.72 0-1.38-.18-1.98-.56a4.05 4.05 0 01-1.42-1.61 5.5 5.5 0 01-.52-2.43zm6.7.01c0-.68-.2-1.22-.58-1.61-.38-.4-.84-.6-1.38-.6-.54 0-1 .2-1.4.6a2.2 2.2 0 00-.55 1.6c0 .68.19 1.22.56 1.63.38.4.85.6 1.39.6.54 0 1-.2 1.38-.6.38-.4.57-.93.57-1.62z" fill="#000"/><mask id="a" maskUnits="userSpaceOnUse" x="102.39" y="226.7" width="20" height="25" fill="#000"><path fill="#fff" d="M102.39 226.7h20v25h-20z"/><path fill-rule="evenodd" clip-rule="evenodd" d="M113.08 231.83c.54-.25.92-.83.92-1.5 0-.9-.69-1.63-1.54-1.63a1.6 1.6 0 00-1.55 1.63c0 .69.4 1.27.97 1.52l-6.5 9.39s3.13 7.54 7.09 7.48c3.97-.05 7.28-7.68 7.28-7.68l-6.67-9.21z"/></mask><path fill-rule="evenodd" clip-rule="evenodd" d="M113.08 231.83c.54-.25.92-.83.92-1.5 0-.9-.69-1.63-1.54-1.63a1.6 1.6 0 00-1.55 1.63c0 .69.4 1.27.97 1.52l-6.5 9.39s3.13 7.54 7.09 7.48c3.97-.05 7.28-7.68 7.28-7.68l-6.67-9.21z" fill="#fff"/><path d="M113.08 231.83l-.84-1.82-2.2 1.02 1.42 1.97 1.62-1.17zm-1.2.02l1.64 1.14 1.4-2.02-2.25-.96-.8 1.84zm-6.5 9.39l-1.64-1.14-.62.9.42 1 1.84-.76zm7.09 7.48l.03 2-.03-2zm7.28-7.68l1.83.8.45-1.05-.67-.93-1.61 1.18zm-7.75-10.7c0-.1.06-.24.24-.33l1.68 3.64a3.64 3.64 0 002.08-3.32h-4zm.46.36a.5.5 0 01-.36-.15.33.33 0 01-.1-.22h4c0-1.9-1.48-3.63-3.54-3.63v4zm.45-.37c0 .07-.02.15-.1.22a.5.5 0 01-.35.15v-4a3.59 3.59 0 00-3.55 3.63h4zm-.24-.32c.19.08.24.23.24.32h-4c0 1.47.86 2.79 2.18 3.36l1.58-3.68zm-5.64 12.37l6.5-9.4-3.3-2.27-6.49 9.39 3.29 2.28zm5.41 4.34c-.33 0-.82-.15-1.48-.69-.64-.53-1.28-1.3-1.86-2.15a21.18 21.18 0 01-1.86-3.4v-.01l-1.85.77-1.85.76v.01l.01.03a33.14 33.14 0 00.6 1.27c.38.76.93 1.78 1.64 2.81a14.3 14.3 0 002.63 3 6.33 6.33 0 004.08 1.6l-.06-4zm7.3-5.68l-1.83-.8v.01l-.03.05-.1.21c-.08.2-.22.47-.39.8-.35.67-.84 1.54-1.44 2.41-.6.88-1.28 1.68-1.95 2.24-.7.58-1.2.76-1.56.76l.06 4a6.56 6.56 0 004.06-1.68c1.06-.89 1.97-2 2.68-3.04a26.83 26.83 0 002.29-4.06l.03-.07.02-.03-1.83-.8zm-8.28-8.04l6.67 9.21 3.23-2.35-6.66-9.2-3.24 2.34z" fill="#000" mask="url(#a)"/><path d="M122.27 252.81h1v-2.55a3 3 0 00-3-3h-15.55a3 3 0 00-3 3v2.55h20.55z" fill="#fff" stroke="#000" stroke-width="2"/><path d="M112.5 238.48l3.55-2.67 1.34 1.78-4.9 3.56v-2.67z" fill="#000"/><mask id="b" maskUnits="userSpaceOnUse" x="102.39" y="2.7" width="20" height="25" fill="#000"><path fill="#fff" d="M102.39 2.7h20v25h-20z"/><path fill-rule="evenodd" clip-rule="evenodd" d="M113.08 7.83c.54-.25.92-.83.92-1.5 0-.9-.69-1.63-1.54-1.63a1.6 1.6 0 00-1.55 1.63c0 .69.4 1.28.97 1.52l-6.5 9.39s3.13 7.54 7.09 7.48c3.97-.05 7.28-7.68 7.28-7.68l-6.67-9.21z"/></mask><path fill-rule="evenodd" clip-rule="evenodd" d="M113.08 7.83c.54-.25.92-.83.92-1.5 0-.9-.69-1.63-1.54-1.63a1.6 1.6 0 00-1.55 1.63c0 .69.4 1.28.97 1.52l-6.5 9.39s3.13 7.54 7.09 7.48c3.97-.05 7.28-7.68 7.28-7.68l-6.67-9.21z" fill="#5C5C5C"/><path d="M113.08 7.83l-.84-1.82-2.2 1.02L111.45 9l1.62-1.17zm-1.2.02l1.64 1.14 1.4-2.02-2.25-.96-.8 1.84zm-6.5 9.39l-1.64-1.14-.62.9.42 1 1.84-.76zm7.09 7.48l.03 2-.03-2zm7.28-7.68l1.83.8.45-1.05-.67-.93-1.61 1.18zM112 6.34c0-.1.06-.24.24-.33l1.68 3.64A3.64 3.64 0 00116 6.33h-4zm.46.36a.5.5 0 01-.36-.15.33.33 0 01-.1-.22h4c0-1.9-1.48-3.63-3.54-3.63v4zm.45-.37c0 .07-.02.15-.1.22a.5.5 0 01-.35.15v-4a3.59 3.59 0 00-3.55 3.63h4zm-.24-.32c.19.08.24.23.24.32h-4c0 1.47.86 2.79 2.18 3.36L112.67 6zm-5.64 12.36l6.5-9.38-3.3-2.28-6.49 9.39 3.29 2.27zm5.41 4.35c-.33 0-.82-.15-1.48-.69-.64-.53-1.28-1.3-1.86-2.15a21.2 21.2 0 01-1.75-3.14l-.1-.21a2.63 2.63 0 01-.01-.05v-.01l-1.85.77-1.85.76v.01l.01.03a10.95 10.95 0 00.15.34 25.86 25.86 0 002.09 3.74c.69 1.03 1.57 2.13 2.63 3a6.33 6.33 0 004.08 1.6l-.06-4zm7.3-5.68l-1.83-.8v.01l-.03.05-.1.21c-.08.2-.22.47-.39.8-.35.67-.84 1.54-1.44 2.41a11.4 11.4 0 01-1.95 2.24c-.7.58-1.2.76-1.56.76l.06 4a6.57 6.57 0 004.06-1.68c1.06-.89 1.97-2 2.68-3.04a26.77 26.77 0 002.29-4.06l.03-.07.02-.03-1.83-.8zM111.47 9l6.67 9.21 3.23-2.35-6.66-9.2L111.46 9z" fill="#000" mask="url(#b)"/><path d="M122.27 28.81h1v-2.55a3 3 0 00-3-3h-15.55a3 3 0 00-3 3v2.55h20.55z" fill="#5C5C5C" stroke="#000" stroke-width="2"/><path d="M112.5 14.48l3.55-2.67 1.34 1.78-4.9 3.56v-2.67z" fill="#000"/><mask id="c" maskUnits="userSpaceOnUse" x="102.39" y="130.7" width="20" height="25" fill="#000"><path fill="#fff" d="M102.39 130.7h20v25h-20z"/><path fill-rule="evenodd" clip-rule="evenodd" d="M113.08 135.83c.54-.25.92-.83.92-1.5 0-.9-.69-1.63-1.54-1.63a1.6 1.6 0 00-1.55 1.63c0 .69.4 1.27.97 1.52l-6.5 9.39s3.13 7.54 7.09 7.48c3.97-.05 7.28-7.68 7.28-7.68l-6.67-9.21z"/></mask><path fill-rule="evenodd" clip-rule="evenodd" d="M113.08 135.83c.54-.25.92-.83.92-1.5 0-.9-.69-1.63-1.54-1.63a1.6 1.6 0 00-1.55 1.63c0 .69.4 1.27.97 1.52l-6.5 9.39s3.13 7.54 7.09 7.48c3.97-.05 7.28-7.68 7.28-7.68l-6.67-9.21z" fill="#fff"/><path d="M113.08 135.83l-.84-1.82-2.2 1.02 1.42 1.97 1.62-1.17zm-1.2.02l1.64 1.14 1.4-2.02-2.25-.96-.8 1.84zm-6.5 9.39l-1.64-1.14-.62.9.42 1 1.84-.76zm7.09 7.48l.03 2-.03-2zm7.28-7.68l1.83.8.45-1.05-.67-.93-1.61 1.18zm-7.75-10.7c0-.1.06-.24.24-.33l1.68 3.64a3.64 3.64 0 002.08-3.32h-4zm.46.36a.5.5 0 01-.36-.15.33.33 0 01-.1-.22h4c0-1.9-1.48-3.63-3.54-3.63v4zm.45-.37c0 .07-.02.15-.1.22a.5.5 0 01-.35.15v-4a3.59 3.59 0 00-3.55 3.63h4zm-.24-.32c.19.08.24.23.24.32h-4c0 1.47.86 2.79 2.18 3.36l1.58-3.68zm-5.64 12.37l6.5-9.4-3.3-2.27-6.49 9.39 3.29 2.28zm5.41 4.34c-.33 0-.82-.15-1.48-.69-.64-.53-1.28-1.3-1.86-2.15a21.18 21.18 0 01-1.86-3.4v-.01l-1.85.77-1.85.76v.01l.01.03a33.14 33.14 0 00.6 1.27c.38.76.93 1.78 1.64 2.81a14.3 14.3 0 002.63 3 6.33 6.33 0 004.08 1.6l-.06-4zm7.3-5.68l-1.83-.8v.01l-.03.05-.1.21c-.08.2-.22.47-.39.8-.35.67-.84 1.54-1.44 2.41-.6.88-1.28 1.68-1.95 2.24-.7.58-1.2.76-1.56.76l.06 4a6.56 6.56 0 004.06-1.68c1.06-.89 1.97-2 2.68-3.04a26.83 26.83 0 002.29-4.06l.03-.07.02-.03-1.83-.8zm-8.28-8.04l6.67 9.21 3.23-2.35-6.66-9.2-3.24 2.34z" fill="#000" mask="url(#c)"/><path d="M122.27 156.81h1v-2.55a3 3 0 00-3-3h-15.55a3 3 0 00-3 3v2.55h20.55z" fill="#fff" stroke="#000" stroke-width="2"/><path d="M112.5 142.48l3.55-2.67 1.34 1.78-4.9 3.56v-2.67z" fill="#000"/><mask id="d" maskUnits="userSpaceOnUse" x="198.38" y="2.7" width="20" height="25" fill="#000"><path fill="#fff" d="M198.38 2.7h20v25h-20z"/><path fill-rule="evenodd" clip-rule="evenodd" d="M209.08 7.83c.54-.25.92-.83.92-1.5 0-.9-.69-1.63-1.54-1.63a1.6 1.6 0 00-1.55 1.63c0 .69.4 1.28.97 1.52l-6.5 9.39s3.13 7.54 7.09 7.48c3.97-.05 7.28-7.68 7.28-7.68l-6.67-9.21z"/></mask><path fill-rule="evenodd" clip-rule="evenodd" d="M209.08 7.83c.54-.25.92-.83.92-1.5 0-.9-.69-1.63-1.54-1.63a1.6 1.6 0 00-1.55 1.63c0 .69.4 1.28.97 1.52l-6.5 9.39s3.13 7.54 7.09 7.48c3.97-.05 7.28-7.68 7.28-7.68l-6.67-9.21z" fill="#5C5C5C"/><path d="M209.08 7.83l-.84-1.82-2.2 1.02L207.45 9l1.62-1.17zm-1.2.02l1.64 1.14 1.4-2.02-2.25-.96-.8 1.84zm-6.5 9.39l-1.64-1.14-.62.9.42 1 1.84-.76zm7.09 7.48l.03 2-.03-2zm7.28-7.68l1.83.8.45-1.05-.66-.93-1.63 1.18zM208 6.34c0-.1.06-.24.24-.33l1.68 3.64A3.64 3.64 0 00212 6.33h-4zm.46.36a.5.5 0 01-.36-.15.33.33 0 01-.1-.22h4c0-1.9-1.48-3.63-3.54-3.63v4zm.45-.37c0 .07-.02.15-.1.22a.5.5 0 01-.35.15v-4a3.59 3.59 0 00-3.55 3.63h4zm-.24-.32c.19.08.24.23.24.32h-4c0 1.47.86 2.79 2.18 3.36L208.67 6zm-5.64 12.36l6.5-9.38-3.3-2.28-6.49 9.39 3.29 2.27zm5.41 4.35c-.33 0-.82-.15-1.48-.69-.64-.53-1.28-1.3-1.87-2.15a21.2 21.2 0 01-1.74-3.14l-.1-.21a2.63 2.63 0 01-.01-.05v-.01l-1.86.77-1.84.76v.01l.01.03a10.95 10.95 0 00.15.34 25.86 25.86 0 002.09 3.74c.69 1.03 1.58 2.13 2.63 3a6.33 6.33 0 004.08 1.6l-.06-4zm7.3-5.68l-1.83-.8v.01l-.03.05-.1.21c-.08.2-.22.47-.39.8-.35.67-.84 1.54-1.44 2.41a11.4 11.4 0 01-1.95 2.24c-.7.58-1.2.76-1.56.76l.06 4a6.57 6.57 0 004.06-1.68c1.06-.89 1.97-2 2.68-3.04a26.77 26.77 0 002.29-4.06l.03-.07.01-.03h.01l-1.84-.8zM207.47 9l6.66 9.21 3.25-2.35-6.67-9.2L207.46 9z" fill="#000" mask="url(#d)"/><path d="M218.27 28.81h1v-2.55a3 3 0 00-3-3h-15.55a3 3 0 00-3 3v2.55h20.55z" fill="#5C5C5C" stroke="#000" stroke-width="2"/><path d="M208.5 14.48l3.55-2.67 1.33 1.78-4.88 3.56v-2.67z" fill="#000"/><mask id="e" maskUnits="userSpaceOnUse" x="163.33" y="224.92" width="26" height="26" fill="#000"><path fill="#fff" d="M163.33 224.92h26v26h-26z"/><path fill-rule="evenodd" clip-rule="evenodd" d="M183.6 248.26l2.93-7.99a2 2 0 00-1.02-2.5c-3.55-1.68-5.7-2.62-8.09-2.8v-3.6h2.79v-1.78h-2.79v-2.67h-1.85v2.67h-2.79v1.78h2.79v3.6c-2.38.19-4.54 1.12-8.1 2.8a2 2 0 00-1.01 2.5l2.92 7.99h14.23zm-8.88-10.72c-1.13.19-2.39.56-4.04 1.1a1.99 1.99 0 00-1.16 2.78l1.64 3.28h3.56v-7.16zm7.6 1.1c-1.66-.54-2.92-.91-4.05-1.1v7.16h3.56l1.64-3.28c.54-1.08 0-2.4-1.15-2.78z"/></mask><path fill-rule="evenodd" clip-rule="evenodd" d="M183.6 248.26l2.93-7.99a2 2 0 00-1.02-2.5c-3.55-1.68-5.7-2.62-8.09-2.8v-3.6h2.79v-1.78h-2.79v-2.67h-1.85v2.67h-2.79v1.78h2.79v3.6c-2.38.19-4.54 1.12-8.1 2.8a2 2 0 00-1.01 2.5l2.92 7.99h14.23zm-8.88-10.72c-1.13.19-2.39.56-4.04 1.1a1.99 1.99 0 00-1.16 2.78l1.64 3.28h3.56v-7.16zm7.6 1.1c-1.66-.54-2.92-.91-4.05-1.1v7.16h3.56l1.64-3.28c.54-1.08 0-2.4-1.15-2.78z" fill="#fff"/><path d="M175.65 235.96c.57-.05 1.12-.05 1.7 0l.16-2c-.68-.05-1.35-.05-2.02 0l.16 2zm10.88 4.31l1.88.69-1.88-.69zm-2.92 7.99v2h1.4l.47-1.31-1.87-.7zm1.9-10.48l.86-1.81-.86 1.8zm-8.09-2.82h-2v1.84l1.84.15.16-1.99zm0-3.6v-2h-2v2h2zm2.79 0v2h2v-2h-2zm0-1.77h2v-2h-2v2zm-2.79 0h-2v2h2v-2zm0-2.67h2v-2h-2v2zm-1.85 0v-2h-2v2h2zm0 2.67v2h2v-2h-2zm-2.79 0v-2h-2v2h2zm0 1.78h-2v2h2v-2zm2.79 0h2v-2h-2v2zm0 3.6l.16 1.98 1.84-.15v-1.84h-2zm-8.1 2.8l.86 1.81-.85-1.8zm-1.01 2.5l1.87-.69-1.87.7zm2.92 7.99l-1.87.69.48 1.3h1.4v-2zm1.3-9.62l-.63-1.9.63 1.9zm4.04-1.1h2v-2.38l-2.34.4.34 1.98zm-5.2 3.88l1.79-.9-1.79.9zm1.64 3.28l-1.79.9.56 1.1h1.23v-2zm3.56 0v2h2v-2h-2zm3.55-7.16l.34-1.97-2.34-.4v2.37h2zm4.05 1.1l-.63 1.9.63-1.9zm-4.05 6.06h-2v2h2v-2zm3.56 0v2h1.23l.56-1.1-1.8-.9zm1.64-3.28l1.79.9-1.8-.9zm1.19-1.84l-2.93 7.99 3.75 1.38 2.93-7.99-3.75-1.38zm0 0l3.75 1.38a4 4 0 00-2.04-5l-1.71 3.62zm-7.4-2.63c1.96.16 3.79.93 7.4 2.63l1.7-3.61c-3.5-1.66-5.97-2.77-8.77-3l-.33 3.98zm-1.84-5.58v3.6h4v-3.6h-4zm4.79-2h-2.79v4h2.79v-4zm-2 .22v1.78h4v-1.78h-4zm-.79 2h2.79v-4h-2.79v4zm-2-4.67v2.67h4v-2.67h-4zm.15 2h1.85v-4h-1.85v4zm2 .67v-2.67h-4v2.67h4zm-4.79 2h2.79v-4h-2.79v4zm2-.22v-1.78h-4v1.78h4zm.79-2h-2.79v4h2.79v-4zm2 5.6v-3.6h-4v3.6h4zm-9.24 4.61c3.61-1.7 5.44-2.47 7.4-2.63l-.32-3.98c-2.8.23-5.29 1.34-8.79 3l1.71 3.61zm0 0l-1.7-3.61a4 4 0 00-2.05 4.99l3.75-1.38zm2.93 7.99l-2.93-7.99-3.75 1.38 2.93 7.98 3.75-1.37zm12.35-1.31h-14.23v4h14.23v-4zm-12.31-5.72c1.64-.54 2.79-.86 3.76-1.03l-.68-3.94c-1.28.22-2.66.62-4.33 1.17l1.25 3.8zm.01-.01h-.01s0 .01 0 0l-1.25-3.8a3.99 3.99 0 00-2.32 5.58l3.58-1.78zm1.64 3.28l-1.64-3.28-3.58 1.78 1.64 3.28 3.58-1.78zm1.77-1.1h-3.56v4h3.56v-4zm-2-5.17v7.16h4v-7.16h-4zm5.22 1.97c.97.17 2.11.5 3.75 1.03l1.25-3.8a31.28 31.28 0 00-4.33-1.17l-.68 3.94zm2.33 5.2v-7.17h-4v7.16h4zm1.56-2h-3.56v4h3.56v-4zm-.15-2.18l-1.64 3.28 3.58 1.78 1.64-3.28-3.58-1.78zm.01 0c0 .01 0 0 0 0h-.01l3.58 1.78a3.99 3.99 0 00-2.32-5.57l-1.25 3.8z" fill="#000" mask="url(#e)"/><path d="M186.27 252.81h1v-2.55a3 3 0 00-3-3h-15.55a3 3 0 00-3 3v2.55h20.55z" fill="#fff" stroke="#000" stroke-width="2"/><mask id="f" maskUnits="userSpaceOnUse" x="163.33" y=".92" width="26" height="26" fill="#000"><path fill="#fff" d="M163.33.92h26v26h-26z"/><path fill-rule="evenodd" clip-rule="evenodd" d="M183.6 24.26l2.93-7.99a2 2 0 00-1.02-2.5c-3.55-1.68-5.7-2.61-8.09-2.8v-3.6h2.79V5.59h-2.79V2.92h-1.85V5.6h-2.79v1.78h2.79v3.6c-2.38.19-4.54 1.12-8.1 2.8a2 2 0 00-1.01 2.5l2.92 7.99h14.23zm-8.88-10.72c-1.13.19-2.39.56-4.04 1.1a1.99 1.99 0 00-1.16 2.78l1.64 3.28h3.56v-7.16zm7.6 1.1c-1.66-.54-2.92-.91-4.05-1.1v7.16h3.56l1.64-3.28c.54-1.09 0-2.4-1.15-2.78z"/></mask><path fill-rule="evenodd" clip-rule="evenodd" d="M183.6 24.26l2.93-7.99a2 2 0 00-1.02-2.5c-3.55-1.68-5.7-2.61-8.09-2.8v-3.6h2.79V5.59h-2.79V2.92h-1.85V5.6h-2.79v1.78h2.79v3.6c-2.38.19-4.54 1.12-8.1 2.8a2 2 0 00-1.01 2.5l2.92 7.99h14.23zm-8.88-10.72c-1.13.19-2.39.56-4.04 1.1a1.99 1.99 0 00-1.16 2.78l1.64 3.28h3.56v-7.16zm7.6 1.1c-1.66-.54-2.92-.91-4.05-1.1v7.16h3.56l1.64-3.28c.54-1.09 0-2.4-1.15-2.78z" fill="#5C5C5C"/><path d="M175.65 11.96c.57-.05 1.12-.05 1.7 0l.16-2c-.68-.05-1.35-.05-2.02 0l.16 2zm10.88 4.31l1.88.69-1.88-.69zm-2.92 7.99v2h1.4l.47-1.32-1.87-.68zm1.9-10.48l.86-1.81-.86 1.8zm-8.09-2.82h-2v1.84l1.84.15.16-1.99zm0-3.6v-2h-2v2h2zm2.79 0v2h2v-2h-2zm0-1.77h2v-2h-2v2zm-2.79 0h-2v2h2v-2zm0-2.67h2v-2h-2v2zm-1.85 0v-2h-2v2h2zm0 2.67v2h2v-2h-2zm-2.79 0v-2h-2v2h2zm0 1.78h-2v2h2v-2zm2.79 0h2v-2h-2v2zm0 3.6l.16 1.98 1.84-.15v-1.84h-2zm-8.1 2.8l.86 1.81-.85-1.8zm-1.01 2.5l1.87-.69-1.87.7zm2.92 7.99l-1.87.68.48 1.32h1.4v-2zm1.3-9.62l-.63-1.9.63 1.9zm4.04-1.1h2v-2.38l-2.34.4.34 1.98zm-5.2 3.88l1.79-.9-1.79.9zm1.64 3.28l-1.79.9.56 1.1h1.23v-2zm3.56 0v2h2v-2h-2zm3.55-7.16l.34-1.97-2.34-.4v2.37h2zm4.05 1.1l.62-1.9-.62 1.9zm-4.05 6.06h-2v2h2v-2zm3.56 0v2h1.23l.56-1.1-1.8-.9zm1.64-3.28l1.79.9-1.8-.9zm1.19-1.84l-2.93 7.99 3.75 1.37 2.93-7.98-3.75-1.38zm0 0l3.75 1.38a4 4 0 00-2.04-5l-1.71 3.62zm-7.4-2.63c1.96.16 3.79.93 7.4 2.63l1.7-3.61c-3.5-1.66-5.97-2.77-8.77-3l-.33 3.98zm-1.84-5.58v3.6h4v-3.6h-4zm4.79-2h-2.79v4h2.79v-4zm-2 .22v1.78h4V5.59h-4zm-.79 2h2.79v-4h-2.79v4zm-2-4.67V5.6h4V2.92h-4zm.15 2h1.85v-4h-1.85v4zm2 .67V2.92h-4V5.6h4zm-4.79 2h2.79v-4h-2.79v4zm2-.22V5.59h-4v1.78h4zm.79-2h-2.79v4h2.79v-4zm2 5.6v-3.6h-4v3.6h4zm-9.24 4.61c3.61-1.7 5.44-2.47 7.4-2.63l-.32-3.98c-2.8.23-5.29 1.34-8.79 3l1.71 3.61zm0 0l-1.7-3.61a4 4 0 00-2.05 4.99l3.75-1.38zm2.93 7.99l-2.93-7.99-3.75 1.38 2.93 7.98 3.75-1.37zm12.35-1.31h-14.23v4h14.23v-4zm-12.31-5.72a27.6 27.6 0 013.76-1.03l-.68-3.94c-1.28.21-2.66.62-4.33 1.17l1.25 3.8zm.01-.01h-.01s0 .01 0 0l-1.25-3.8a3.99 3.99 0 00-2.32 5.58l3.58-1.78zm1.64 3.28l-1.64-3.28-3.58 1.78 1.64 3.29 3.58-1.8zm1.77-1.1h-3.56v4h3.56v-4zm-2-5.17v7.16h4v-7.16h-4zm5.22 1.97c.97.16 2.11.5 3.75 1.03l1.25-3.8a31.3 31.3 0 00-4.33-1.17l-.68 3.94zm2.33 5.2v-7.17h-4v7.16h4zm1.56-2h-3.56v4h3.56v-4zm-.15-2.18l-1.64 3.28 3.58 1.79 1.64-3.29-3.58-1.78zm.01 0c0 .01 0 0 0 0h-.01l3.58 1.78a3.99 3.99 0 00-2.32-5.57l-1.25 3.8z" fill="#000" mask="url(#f)"/><path d="M186.27 28.81h1v-2.55a3 3 0 00-3-3h-15.55a3 3 0 00-3 3v2.55h20.55z" fill="#5C5C5C" stroke="#000" stroke-width="2"/><path d="M84.28 248.37h.54l.3-.45-.84-.55.83.54h0l.01-.01.03-.04.1-.15a30.01 30.01 0 001.44-2.53 28.52 28.52 0 002.39-6.06c.54-2.2.7-4.64-.4-6.58-1.16-2.02-3.5-3.15-7.14-3.15h-.03a.42.42 0 01-.12-.06s0 0 0 0c-.04-.02-.2-.12-.2-.63v-1h-1c-.52 0-.95.28-1.2.45a11.33 11.33 0 00-1.5 1.5l-2.58 1.91-.16.12-.1.16-2.73 4.4-.24.4.15.44.99 3.04.42 1.29 1.1-.78 2.32-1.62 1.7-1.14c.87.32 1.24.67 1.4.87l.06.1-.04.1c-.14.27-.34.66-.64 1.13-.59.94-1.53 2.2-2.91 3.44a3.17 3.17 0 00-.67 3.96l.25.4.29.5h8.18z" fill="#fff" stroke="#000" stroke-width="2"/><path d="M90.27 252.81h1v-2.55a3 3 0 00-3-3H72.72a3 3 0 00-3 3v2.55h20.55z" fill="#fff" stroke="#000" stroke-width="2"/><path d="M76.05 233.15l.9-.45v.33a1 1 0 01-1 1h-.34l.44-.88z" fill="#000"/><path d="M84.28 24.37h.54l.3-.45-.84-.55.83.54h0l.01-.01.03-.04a22.7 22.7 0 00.44-.71c.28-.48.67-1.16 1.1-1.97a28.53 28.53 0 002.39-6.06c.54-2.2.7-4.64-.4-6.58-1.16-2.02-3.5-3.15-7.14-3.15h-.03a.4.4 0 01-.12-.06s0 0 0 0c-.04-.02-.2-.12-.2-.63v-1h-1c-.52 0-.95.28-1.2.45a11.64 11.64 0 00-1.5 1.5l-2.58 1.91-.16.12-.1.16-2.73 4.4-.24.4.15.44.99 3.04.42 1.29 1.1-.78 2.32-1.62 1.7-1.14c.87.32 1.24.67 1.4.87l.06.1a10.2 10.2 0 01-.68 1.23c-.59.94-1.53 2.2-2.91 3.44a3.17 3.17 0 00-.67 3.96l.25.4.29.5h8.18z" fill="#5C5C5C" stroke="#000" stroke-width="2"/><path d="M90.27 28.81h1v-2.55a3 3 0 00-3-3H72.72a3 3 0 00-3 3v2.55h20.55z" fill="#5C5C5C" stroke="#000" stroke-width="2"/><path d="M76.05 9.15l.9-.45v.33a1 1 0 01-1 1h-.34l.44-.88z" fill="#000"/><path d="M244.28 249.37h.54l.3-.45-.84-.55.83.54h0l.01-.01.03-.04a10.23 10.23 0 00.44-.71c.28-.48.67-1.16 1.1-1.97a28.51 28.51 0 002.39-6.06c.54-2.2.7-4.64-.4-6.58-1.16-2.02-3.5-3.15-7.14-3.15h-.03a.42.42 0 01-.12-.06s0 0 0 0c-.03-.02-.2-.12-.2-.63v-1h-1c-.52 0-.95.28-1.2.45a11.5 11.5 0 00-1.5 1.5l-2.59 1.91-.15.12-.1.16-2.72 4.4-.25.4.14.44 1 3.04.42 1.29 1.1-.78 2.32-1.62 1.7-1.14c.87.32 1.24.67 1.4.87l.06.1-.04.1c-.14.27-.34.66-.64 1.13-.59.94-1.53 2.2-2.91 3.44a3.17 3.17 0 00-.67 3.96l.25.4.29.5h8.18z" fill="#fff" stroke="#000" stroke-width="2"/><path d="M250.27 253.81h1v-2.55a3 3 0 00-3-3h-15.55a3 3 0 00-3 3v2.55h20.55z" fill="#fff" stroke="#000" stroke-width="2"/><path d="M236.05 234.15l.9-.45v.33a1 1 0 01-1 1h-.34l.44-.88z" fill="#000"/><path d="M244.28 25.37h.54l.3-.45-.84-.55.83.54h0l.01-.01.03-.04a9.19 9.19 0 00.44-.71 38 38 0 001.1-1.97 28.52 28.52 0 002.39-6.06c.54-2.2.7-4.64-.4-6.58-1.16-2.02-3.5-3.15-7.14-3.15h-.03a.4.4 0 01-.12-.06s0 0 0 0c-.03-.02-.2-.12-.2-.63v-1h-1c-.52 0-.95.28-1.2.45a11.82 11.82 0 00-1.5 1.5l-2.59 1.91-.15.12-.1.16-2.72 4.4-.25.4.14.44 1 3.04.42 1.29 1.1-.78 2.32-1.62 1.7-1.14c.87.32 1.24.67 1.4.87l.06.1-.04.1c-.14.27-.34.66-.64 1.13-.59.94-1.53 2.2-2.91 3.44a3.17 3.17 0 00-.67 3.96l.25.4.29.5h8.18z" fill="#5C5C5C" stroke="#000" stroke-width="2"/><path d="M250.27 29.81h1v-2.55a3 3 0 00-3-3h-15.55a3 3 0 00-3 3v2.55h20.55z" fill="#5C5C5C" stroke="#000" stroke-width="2"/><mask id="g" maskUnits="userSpaceOnUse" x="42.16" y="201.81" width="12" height="18" fill="#000"><path fill="#fff" d="M42.16 201.81h12v18h-12z"/><path fill-rule="evenodd" clip-rule="evenodd" d="M49.66 210.73a3.56 3.56 0 10-2.32 0c.03 2.85-1.48 6.42-4.18 6.42h10.67c-2.7 0-4.18-3.59-4.17-6.42z"/></mask><path fill-rule="evenodd" clip-rule="evenodd" d="M49.66 210.73a3.56 3.56 0 10-2.32 0c.03 2.85-1.48 6.42-4.18 6.42h10.67c-2.7 0-4.18-3.59-4.17-6.42z" fill="#fff"/><path d="M49.66 210.73l-.65-1.9-1.34.47v1.42h2zm-2.32 0l2-.02-.01-1.41-1.34-.46-.65 1.9zm2.71-3.36c0 .67-.43 1.25-1.04 1.47l1.31 3.78a5.56 5.56 0 003.73-5.25h-4zm-1.55-1.56c.85 0 1.55.7 1.55 1.56h4a5.56 5.56 0 00-5.55-5.56v4zm-1.56 1.56c0-.86.7-1.56 1.56-1.56v-4a5.56 5.56 0 00-5.56 5.56h4zm1.05 1.47a1.56 1.56 0 01-1.05-1.47h-4c0 2.44 1.57 4.5 3.75 5.25l1.3-3.78zm-4.83 10.3c2.36 0 3.96-1.57 4.85-3.14.9-1.6 1.35-3.55 1.33-5.29l-4 .04a6.84 6.84 0 01-.8 3.27c-.53.92-1.04 1.13-1.38 1.13v4zm10.67-4H43.16v4h10.67v-4zm-6.17-4.42c0 1.72.43 3.68 1.33 5.26.89 1.57 2.48 3.17 4.84 3.17v-4c-.33 0-.83-.2-1.36-1.14a6.96 6.96 0 01-.8-3.27l-4-.02z" fill="#000" mask="url(#g)"/><path d="M236.05 10.15l.9-.45v.33a1 1 0 01-1 1h-.34l.44-.88z" fill="#000"/><path d="M55.6 220.81h1V219.15a3 3 0 00-3-3H43.39a3 3 0 00-3 3V220.8h15.23z" fill="#fff" stroke="#000" stroke-width="2"/><mask id="h" maskUnits="userSpaceOnUse" x="42.16" y="41.81" width="12" height="18" fill="#000"><path fill="#fff" d="M42.16 41.81h12v18h-12z"/><path fill-rule="evenodd" clip-rule="evenodd" d="M49.66 50.73a3.56 3.56 0 10-2.32 0c.03 2.85-1.48 6.42-4.18 6.42h10.67c-2.7 0-4.18-3.59-4.17-6.42z"/></mask><path fill-rule="evenodd" clip-rule="evenodd" d="M49.66 50.73a3.56 3.56 0 10-2.32 0c.03 2.85-1.48 6.42-4.18 6.42h10.67c-2.7 0-4.18-3.59-4.17-6.42z" fill="#5C5C5C"/><path d="M49.66 50.73l-.65-1.9-1.34.47v1.42h2zm-2.32 0l2-.02-.01-1.41-1.34-.46-.65 1.9zm2.71-3.36c0 .67-.43 1.26-1.04 1.47l1.31 3.78a5.56 5.56 0 003.73-5.25h-4zM48.5 45.8c.85 0 1.55.7 1.55 1.56h4a5.56 5.56 0 00-5.55-5.56v4zm-1.56 1.56c0-.86.7-1.56 1.56-1.56v-4a5.56 5.56 0 00-5.56 5.56h4zm1.05 1.47a1.56 1.56 0 01-1.05-1.47h-4c0 2.44 1.57 4.5 3.75 5.25l1.3-3.78zm-4.83 10.3c2.36 0 3.96-1.57 4.85-3.14.9-1.6 1.35-3.55 1.33-5.29l-4 .04a6.83 6.83 0 01-.8 3.27c-.53.92-1.04 1.13-1.38 1.13v4zm10.67-4H43.16v4h10.67v-4zm-6.17-4.42c0 1.72.43 3.67 1.33 5.26.89 1.57 2.48 3.17 4.84 3.17v-4c-.33 0-.83-.2-1.36-1.13a6.96 6.96 0 01-.8-3.28l-4-.02z" fill="#000" mask="url(#h)"/><path d="M55.6 60.81h1V59.15a3 3 0 00-3-3H43.39a3 3 0 00-3 3V60.8h15.23z" fill="#5C5C5C" stroke="#000" stroke-width="2"/><mask id="i" maskUnits="userSpaceOnUse" x="170.16" y="137.81" width="12" height="18" fill="#000"><path fill="#fff" d="M170.16 137.81h12v18h-12z"/><path fill-rule="evenodd" clip-rule="evenodd" d="M177.66 146.73a3.56 3.56 0 10-2.32 0c.03 2.85-1.48 6.42-4.18 6.42h10.67c-2.7 0-4.18-3.59-4.17-6.42z"/></mask><path fill-rule="evenodd" clip-rule="evenodd" d="M177.66 146.73a3.56 3.56 0 10-2.32 0c.03 2.85-1.48 6.42-4.18 6.42h10.67c-2.7 0-4.18-3.59-4.17-6.42z" fill="#fff"/><path d="M177.66 146.73l-.65-1.9-1.34.47v1.42h2zm-2.32 0l2-.02-.01-1.41-1.34-.46-.65 1.9zm2.71-3.36c0 .67-.43 1.25-1.04 1.47l1.31 3.78a5.56 5.56 0 003.73-5.25h-4zm-1.56-1.56c.86 0 1.56.7 1.56 1.56h4a5.56 5.56 0 00-5.56-5.56v4zm-1.55 1.56c0-.86.7-1.56 1.56-1.56v-4a5.56 5.56 0 00-5.56 5.56h4zm1.05 1.47a1.56 1.56 0 01-1.05-1.47h-4c0 2.44 1.57 4.5 3.75 5.25l1.3-3.78zm-4.83 10.3c2.36 0 3.96-1.57 4.85-3.14.9-1.6 1.35-3.55 1.33-5.29l-4 .04a6.84 6.84 0 01-.8 3.27c-.53.92-1.04 1.13-1.38 1.13v4zm10.67-4h-10.67v4h10.67v-4zm-6.17-4.42c0 1.72.43 3.68 1.33 5.26.89 1.57 2.48 3.17 4.84 3.17v-4c-.33 0-.83-.2-1.36-1.14a6.96 6.96 0 01-.8-3.27l-4-.02z" fill="#000" mask="url(#i)"/><path d="M183.6 156.81h1V155.15a3 3 0 00-3-3h-10.22a3 3 0 00-3 3V156.8h15.23z" fill="#fff" stroke="#000" stroke-width="2"/><mask id="j" maskUnits="userSpaceOnUse" x="170.16" y="105.81" width="12" height="18" fill="#000"><path fill="#fff" d="M170.16 105.81h12v18h-12z"/><path fill-rule="evenodd" clip-rule="evenodd" d="M177.66 114.73a3.56 3.56 0 10-2.32 0c.03 2.85-1.48 6.41-4.18 6.41h10.67c-2.7 0-4.18-3.58-4.17-6.41z"/></mask><path fill-rule="evenodd" clip-rule="evenodd" d="M177.66 114.73a3.56 3.56 0 10-2.32 0c.03 2.85-1.48 6.41-4.18 6.41h10.67c-2.7 0-4.18-3.58-4.17-6.41z" fill="#5C5C5C"/><path d="M177.66 114.73l-.65-1.9-1.34.47v1.42h2zm-2.32 0l2-.02-.01-1.41-1.34-.46-.65 1.9zm2.71-3.36c0 .67-.43 1.25-1.04 1.47l1.31 3.78a5.56 5.56 0 003.73-5.25h-4zm-1.56-1.56c.86 0 1.56.7 1.56 1.56h4a5.56 5.56 0 00-5.56-5.56v4zm-1.55 1.56c0-.86.7-1.56 1.56-1.56v-4a5.56 5.56 0 00-5.56 5.56h4zm1.05 1.47a1.56 1.56 0 01-1.05-1.47h-4c0 2.44 1.57 4.5 3.75 5.25l1.3-3.78zm-4.83 10.3c2.36 0 3.96-1.57 4.85-3.14.9-1.6 1.35-3.55 1.33-5.29l-4 .04a6.84 6.84 0 01-.8 3.27c-.53.92-1.04 1.13-1.38 1.13v4zm10.67-4h-10.67v4h10.67v-4zm-6.17-4.42c0 1.72.43 3.67 1.33 5.26.89 1.57 2.48 3.16 4.84 3.16v-4c-.33 0-.83-.2-1.36-1.13a6.96 6.96 0 01-.8-3.27l-4-.02z" fill="#000" mask="url(#j)"/><path d="M183.6 124.81h1v-1.67a3 3 0 00-3-3h-10.22a3 3 0 00-3 3v1.67h15.23z" fill="#5C5C5C" stroke="#000" stroke-width="2"/><mask id="k" maskUnits="userSpaceOnUse" x="74.16" y="201.81" width="12" height="18" fill="#000"><path fill="#fff" d="M74.16 201.81h12v18h-12z"/><path fill-rule="evenodd" clip-rule="evenodd" d="M81.66 210.73a3.56 3.56 0 10-2.32 0c.03 2.85-1.48 6.42-4.18 6.42h10.67c-2.7 0-4.18-3.59-4.17-6.42z"/></mask><path fill-rule="evenodd" clip-rule="evenodd" d="M81.66 210.73a3.56 3.56 0 10-2.32 0c.03 2.85-1.48 6.42-4.18 6.42h10.67c-2.7 0-4.18-3.59-4.17-6.42z" fill="#fff"/><path d="M81.66 210.73l-.65-1.9-1.34.47v1.42h2zm-2.32 0l2-.02-.01-1.41-1.34-.46-.65 1.9zm2.71-3.36c0 .67-.43 1.25-1.04 1.47l1.31 3.78a5.56 5.56 0 003.73-5.25h-4zm-1.55-1.56c.85 0 1.55.7 1.55 1.56h4a5.56 5.56 0 00-5.55-5.56v4zm-1.56 1.56c0-.86.7-1.56 1.56-1.56v-4a5.56 5.56 0 00-5.56 5.56h4zm1.05 1.47a1.56 1.56 0 01-1.05-1.47h-4c0 2.44 1.57 4.5 3.75 5.25l1.3-3.78zm-4.83 10.3c2.36 0 3.96-1.57 4.85-3.14.9-1.6 1.35-3.55 1.33-5.29l-4 .04a6.84 6.84 0 01-.8 3.27c-.53.92-1.04 1.13-1.38 1.13v4zm10.67-4H75.16v4h10.67v-4zm-6.17-4.42c0 1.72.43 3.68 1.33 5.26.89 1.57 2.48 3.17 4.84 3.17v-4c-.33 0-.83-.2-1.36-1.14a6.96 6.96 0 01-.8-3.27l-4-.02z" fill="#000" mask="url(#k)"/><path d="M87.6 220.81h1V219.15a3 3 0 00-3-3H75.39a3 3 0 00-3 3V220.8h15.23z" fill="#fff" stroke="#000" stroke-width="2"/><mask id="l" maskUnits="userSpaceOnUse" x="74.16" y="41.81" width="12" height="18" fill="#000"><path fill="#fff" d="M74.16 41.81h12v18h-12z"/><path fill-rule="evenodd" clip-rule="evenodd" d="M81.66 50.73a3.56 3.56 0 10-2.32 0c.03 2.85-1.48 6.42-4.18 6.42h10.67c-2.7 0-4.18-3.59-4.17-6.42z"/></mask><path fill-rule="evenodd" clip-rule="evenodd" d="M81.66 50.73a3.56 3.56 0 10-2.32 0c.03 2.85-1.48 6.42-4.18 6.42h10.67c-2.7 0-4.18-3.59-4.17-6.42z" fill="#5C5C5C"/><path d="M81.66 50.73l-.65-1.9-1.34.47v1.42h2zm-2.32 0l2-.02-.01-1.41-1.34-.46-.65 1.9zm2.71-3.36c0 .67-.43 1.26-1.04 1.47l1.31 3.78a5.56 5.56 0 003.73-5.25h-4zM80.5 45.8c.85 0 1.55.7 1.55 1.56h4a5.56 5.56 0 00-5.55-5.56v4zm-1.56 1.56c0-.86.7-1.56 1.56-1.56v-4a5.56 5.56 0 00-5.56 5.56h4zm1.05 1.47a1.56 1.56 0 01-1.05-1.47h-4c0 2.44 1.57 4.5 3.75 5.25l1.3-3.78zm-4.83 10.3c2.36 0 3.96-1.57 4.85-3.14.9-1.6 1.35-3.55 1.33-5.29l-4 .04a6.83 6.83 0 01-.8 3.27c-.53.92-1.04 1.13-1.38 1.13v4zm10.67-4H75.16v4h10.67v-4zm-6.17-4.42c0 1.72.43 3.67 1.33 5.26.89 1.57 2.48 3.17 4.84 3.17v-4c-.33 0-.83-.2-1.36-1.13a6.96 6.96 0 01-.8-3.28l-4-.02z" fill="#000" mask="url(#l)"/><path d="M87.6 60.81h1V59.15a3 3 0 00-3-3H75.39a3 3 0 00-3 3V60.8h15.23z" fill="#5C5C5C" stroke="#000" stroke-width="2"/><mask id="m" maskUnits="userSpaceOnUse" x="202.16" y="201.81" width="12" height="18" fill="#000"><path fill="#fff" d="M202.16 201.81h12v18h-12z"/><path fill-rule="evenodd" clip-rule="evenodd" d="M209.66 210.73a3.56 3.56 0 10-2.32 0c.03 2.85-1.48 6.42-4.18 6.42h10.67c-2.7 0-4.18-3.59-4.17-6.42z"/></mask><path fill-rule="evenodd" clip-rule="evenodd" d="M209.66 210.73a3.56 3.56 0 10-2.32 0c.03 2.85-1.48 6.42-4.18 6.42h10.67c-2.7 0-4.18-3.59-4.17-6.42z" fill="#fff"/><path d="M209.66 210.73l-.65-1.9-1.34.47v1.42h2zm-2.32 0l2-.02-.01-1.41-1.34-.46-.65 1.9zm2.71-3.36c0 .67-.43 1.25-1.04 1.47l1.31 3.78a5.56 5.56 0 003.73-5.25h-4zm-1.56-1.56c.86 0 1.56.7 1.56 1.56h4a5.56 5.56 0 00-5.56-5.56v4zm-1.55 1.56c0-.86.7-1.56 1.56-1.56v-4a5.56 5.56 0 00-5.56 5.56h4zm1.05 1.47a1.56 1.56 0 01-1.05-1.47h-4c0 2.44 1.57 4.5 3.75 5.25l1.3-3.78zm-4.83 10.3c2.36 0 3.96-1.57 4.85-3.14.9-1.6 1.35-3.55 1.33-5.29l-4 .04a6.84 6.84 0 01-.8 3.27c-.53.92-1.04 1.13-1.38 1.13v4zm10.67-4h-10.67v4h10.67v-4zm-6.17-4.42c0 1.72.43 3.68 1.33 5.26.89 1.57 2.48 3.17 4.84 3.17v-4c-.33 0-.83-.2-1.36-1.14a6.96 6.96 0 01-.8-3.27l-4-.02z" fill="#000" mask="url(#m)"/><path d="M215.6 220.81h1V219.15a3 3 0 00-3-3h-10.22a3 3 0 00-3 3V220.8h15.23z" fill="#fff" stroke="#000" stroke-width="2"/><mask id="n" maskUnits="userSpaceOnUse" x="202.16" y="41.81" width="12" height="18" fill="#000"><path fill="#fff" d="M202.16 41.81h12v18h-12z"/><path fill-rule="evenodd" clip-rule="evenodd" d="M209.66 50.73a3.56 3.56 0 10-2.32 0c.03 2.85-1.48 6.42-4.18 6.42h10.67c-2.7 0-4.18-3.59-4.17-6.42z"/></mask><path fill-rule="evenodd" clip-rule="evenodd" d="M209.66 50.73a3.56 3.56 0 10-2.32 0c.03 2.85-1.48 6.42-4.18 6.42h10.67c-2.7 0-4.18-3.59-4.17-6.42z" fill="#5C5C5C"/><path d="M209.66 50.73l-.65-1.9-1.34.47v1.42h2zm-2.32 0l2-.02-.01-1.41-1.34-.46-.65 1.9zm2.71-3.36c0 .67-.43 1.26-1.04 1.47l1.31 3.78a5.56 5.56 0 003.73-5.25h-4zm-1.56-1.56c.86 0 1.56.7 1.56 1.56h4a5.56 5.56 0 00-5.56-5.56v4zm-1.55 1.56c0-.86.7-1.56 1.56-1.56v-4a5.56 5.56 0 00-5.56 5.56h4zm1.05 1.47a1.56 1.56 0 01-1.05-1.47h-4c0 2.44 1.57 4.5 3.75 5.25l1.3-3.78zm-4.83 10.3c2.36 0 3.96-1.57 4.85-3.14.9-1.6 1.35-3.55 1.33-5.29l-4 .04a6.83 6.83 0 01-.8 3.27c-.53.92-1.04 1.13-1.38 1.13v4zm10.67-4h-10.67v4h10.67v-4zm-6.17-4.42c0 1.72.43 3.67 1.33 5.26.89 1.57 2.48 3.17 4.84 3.17v-4c-.33 0-.83-.2-1.36-1.13a6.96 6.96 0 01-.8-3.28l-4-.02z" fill="#000" mask="url(#n)"/><path d="M215.6 60.81h1V59.15a3 3 0 00-3-3h-10.22a3 3 0 00-3 3V60.8h15.23z" fill="#5C5C5C" stroke="#000" stroke-width="2"/><mask id="o" maskUnits="userSpaceOnUse" x="106.16" y="201.81" width="12" height="18" fill="#000"><path fill="#fff" d="M106.16 201.81h12v18h-12z"/><path fill-rule="evenodd" clip-rule="evenodd" d="M113.66 210.73a3.56 3.56 0 10-2.32 0c.03 2.85-1.48 6.42-4.18 6.42h10.67c-2.7 0-4.18-3.59-4.17-6.42z"/></mask><path fill-rule="evenodd" clip-rule="evenodd" d="M113.66 210.73a3.56 3.56 0 10-2.32 0c.03 2.85-1.48 6.42-4.18 6.42h10.67c-2.7 0-4.18-3.59-4.17-6.42z" fill="#fff"/><path d="M113.66 210.73l-.65-1.9-1.34.47v1.42h2zm-2.32 0l2-.02-.01-1.41-1.34-.46-.65 1.9zm2.71-3.36c0 .67-.43 1.25-1.04 1.47l1.31 3.78a5.56 5.56 0 003.73-5.25h-4zm-1.55-1.56c.86 0 1.55.7 1.55 1.56h4a5.56 5.56 0 00-5.55-5.56v4zm-1.56 1.56c0-.86.7-1.56 1.56-1.56v-4a5.56 5.56 0 00-5.56 5.56h4zm1.05 1.47a1.56 1.56 0 01-1.05-1.47h-4c0 2.44 1.57 4.5 3.75 5.25l1.3-3.78zm-4.83 10.3c2.36 0 3.96-1.57 4.85-3.14.9-1.6 1.35-3.55 1.33-5.29l-4 .04a6.84 6.84 0 01-.8 3.27c-.53.92-1.04 1.13-1.38 1.13v4zm10.67-4h-10.67v4h10.67v-4zm-6.17-4.42c0 1.72.43 3.68 1.33 5.26.89 1.57 2.48 3.17 4.84 3.17v-4c-.33 0-.83-.2-1.36-1.14a6.96 6.96 0 01-.8-3.27l-4-.02z" fill="#000" mask="url(#o)"/><path d="M119.6 220.81h1V219.15a3 3 0 00-3-3H107.4a3 3 0 00-3 3V220.8h15.22z" fill="#fff" stroke="#000" stroke-width="2"/><mask id="p" maskUnits="userSpaceOnUse" x="106.16" y="41.81" width="12" height="18" fill="#000"><path fill="#fff" d="M106.16 41.81h12v18h-12z"/><path fill-rule="evenodd" clip-rule="evenodd" d="M113.66 50.73a3.56 3.56 0 10-2.32 0c.03 2.85-1.48 6.42-4.18 6.42h10.67c-2.7 0-4.18-3.59-4.17-6.42z"/></mask><path fill-rule="evenodd" clip-rule="evenodd" d="M113.66 50.73a3.56 3.56 0 10-2.32 0c.03 2.85-1.48 6.42-4.18 6.42h10.67c-2.7 0-4.18-3.59-4.17-6.42z" fill="#5C5C5C"/><path d="M113.66 50.73l-.65-1.9-1.34.47v1.42h2zm-2.32 0l2-.02-.01-1.41-1.34-.46-.65 1.9zm2.71-3.36c0 .67-.43 1.26-1.04 1.47l1.31 3.78a5.56 5.56 0 003.73-5.25h-4zm-1.55-1.56c.86 0 1.55.7 1.55 1.56h4a5.56 5.56 0 00-5.55-5.56v4zm-1.56 1.56c0-.86.7-1.56 1.56-1.56v-4a5.56 5.56 0 00-5.56 5.56h4zm1.05 1.47a1.56 1.56 0 01-1.05-1.47h-4c0 2.44 1.57 4.5 3.75 5.25l1.3-3.78zm-4.83 10.3c2.36 0 3.96-1.57 4.85-3.14.9-1.6 1.35-3.55 1.33-5.29l-4 .04a6.83 6.83 0 01-.8 3.27c-.53.92-1.04 1.13-1.38 1.13v4zm10.67-4h-10.67v4h10.67v-4zm-6.17-4.42c0 1.72.43 3.67 1.33 5.26.89 1.57 2.48 3.17 4.84 3.17v-4c-.33 0-.83-.2-1.36-1.13a6.96 6.96 0 01-.8-3.28l-4-.02z" fill="#000" mask="url(#p)"/><path d="M119.6 60.81h1V59.15a3 3 0 00-3-3H107.4a3 3 0 00-3 3V60.8h15.22z" fill="#5C5C5C" stroke="#000" stroke-width="2"/><mask id="q" maskUnits="userSpaceOnUse" x="234.16" y="201.81" width="12" height="18" fill="#000"><path fill="#fff" d="M234.16 201.81h12v18h-12z"/><path fill-rule="evenodd" clip-rule="evenodd" d="M241.66 210.73a3.56 3.56 0 10-2.32 0c.03 2.85-1.48 6.42-4.18 6.42h10.67c-2.7 0-4.18-3.59-4.17-6.42z"/></mask><path fill-rule="evenodd" clip-rule="evenodd" d="M241.66 210.73a3.56 3.56 0 10-2.32 0c.03 2.85-1.48 6.42-4.18 6.42h10.67c-2.7 0-4.18-3.59-4.17-6.42z" fill="#fff"/><path d="M241.66 210.73l-.65-1.9-1.34.47v1.42h2zm-2.32 0l2-.02-.01-1.41-1.34-.46-.65 1.9zm2.71-3.36c0 .67-.43 1.25-1.04 1.47l1.31 3.78a5.56 5.56 0 003.73-5.25h-4zm-1.56-1.56c.86 0 1.56.7 1.56 1.56h4a5.56 5.56 0 00-5.56-5.56v4zm-1.55 1.56c0-.86.7-1.56 1.56-1.56v-4a5.56 5.56 0 00-5.56 5.56h4zm1.05 1.47a1.56 1.56 0 01-1.05-1.47h-4c0 2.44 1.57 4.5 3.75 5.25l1.3-3.78zm-4.83 10.3c2.36 0 3.96-1.57 4.85-3.14.9-1.6 1.35-3.55 1.33-5.29l-4 .04a6.84 6.84 0 01-.8 3.27c-.53.92-1.04 1.13-1.38 1.13v4zm10.67-4h-10.67v4h10.67v-4zm-6.17-4.42c0 1.72.43 3.68 1.33 5.26.89 1.57 2.48 3.17 4.84 3.17v-4c-.33 0-.83-.2-1.36-1.14a6.96 6.96 0 01-.8-3.27l-4-.02z" fill="#000" mask="url(#q)"/><path d="M247.6 220.81h1V219.15a3 3 0 00-3-3h-10.22a3 3 0 00-3 3V220.8h15.23z" fill="#fff" stroke="#000" stroke-width="2"/><mask id="r" maskUnits="userSpaceOnUse" x="234.16" y="41.81" width="12" height="18" fill="#000"><path fill="#fff" d="M234.16 41.81h12v18h-12z"/><path fill-rule="evenodd" clip-rule="evenodd" d="M241.66 50.73a3.56 3.56 0 10-2.32 0c.03 2.85-1.48 6.42-4.18 6.42h10.67c-2.7 0-4.18-3.59-4.17-6.42z"/></mask><path fill-rule="evenodd" clip-rule="evenodd" d="M241.66 50.73a3.56 3.56 0 10-2.32 0c.03 2.85-1.48 6.42-4.18 6.42h10.67c-2.7 0-4.18-3.59-4.17-6.42z" fill="#5C5C5C"/><path d="M241.66 50.73l-.65-1.9-1.34.47v1.42h2zm-2.32 0l2-.02-.01-1.41-1.34-.46-.65 1.9zm2.71-3.36c0 .67-.43 1.26-1.04 1.47l1.31 3.78a5.56 5.56 0 003.73-5.25h-4zm-1.56-1.56c.86 0 1.56.7 1.56 1.56h4a5.56 5.56 0 00-5.56-5.56v4zm-1.55 1.56c0-.86.7-1.56 1.56-1.56v-4a5.56 5.56 0 00-5.56 5.56h4zm1.05 1.47a1.56 1.56 0 01-1.05-1.47h-4c0 2.44 1.57 4.5 3.75 5.25l1.3-3.78zm-4.83 10.3c2.36 0 3.96-1.57 4.85-3.14.9-1.6 1.35-3.55 1.33-5.29l-4 .04a6.83 6.83 0 01-.8 3.27c-.53.92-1.04 1.13-1.38 1.13v4zm10.67-4h-10.67v4h10.67v-4zm-6.17-4.42c0 1.72.43 3.67 1.33 5.26.89 1.57 2.48 3.17 4.84 3.17v-4c-.33 0-.83-.2-1.36-1.13a6.96 6.96 0 01-.8-3.28l-4-.02z" fill="#000" mask="url(#r)"/><path d="M247.6 60.81h1V59.15a3 3 0 00-3-3h-10.22a3 3 0 00-3 3V60.8h15.23z" fill="#5C5C5C" stroke="#000" stroke-width="2"/><mask id="s" maskUnits="userSpaceOnUse" x="138.16" y="201.81" width="12" height="18" fill="#000"><path fill="#fff" d="M138.16 201.81h12v18h-12z"/><path fill-rule="evenodd" clip-rule="evenodd" d="M145.66 210.73a3.56 3.56 0 10-2.32 0c.03 2.85-1.48 6.42-4.18 6.42h10.67c-2.7 0-4.18-3.59-4.17-6.42z"/></mask><path fill-rule="evenodd" clip-rule="evenodd" d="M145.66 210.73a3.56 3.56 0 10-2.32 0c.03 2.85-1.48 6.42-4.18 6.42h10.67c-2.7 0-4.18-3.59-4.17-6.42z" fill="#fff"/><path d="M145.66 210.73l-.65-1.9-1.34.47v1.42h2zm-2.32 0l2-.02-.01-1.41-1.34-.46-.65 1.9zm2.71-3.36c0 .67-.43 1.25-1.04 1.47l1.31 3.78a5.56 5.56 0 003.73-5.25h-4zm-1.56-1.56c.86 0 1.56.7 1.56 1.56h4a5.56 5.56 0 00-5.56-5.56v4zm-1.55 1.56c0-.86.7-1.56 1.56-1.56v-4a5.56 5.56 0 00-5.56 5.56h4zm1.05 1.47a1.56 1.56 0 01-1.05-1.47h-4c0 2.44 1.57 4.5 3.75 5.25l1.3-3.78zm-4.83 10.3c2.36 0 3.96-1.57 4.85-3.14.9-1.6 1.35-3.55 1.33-5.29l-4 .04a6.84 6.84 0 01-.8 3.27c-.53.92-1.04 1.13-1.38 1.13v4zm10.67-4h-10.67v4h10.67v-4zm-6.17-4.42c0 1.72.43 3.68 1.33 5.26.89 1.57 2.48 3.17 4.84 3.17v-4c-.33 0-.83-.2-1.36-1.14a6.96 6.96 0 01-.8-3.27l-4-.02z" fill="#000" mask="url(#s)"/><path d="M151.6 220.81h1V219.15a3 3 0 00-3-3h-10.22a3 3 0 00-3 3V220.8h15.23z" fill="#fff" stroke="#000" stroke-width="2"/><mask id="t" maskUnits="userSpaceOnUse" x="138.16" y="41.81" width="12" height="18" fill="#000"><path fill="#fff" d="M138.16 41.81h12v18h-12z"/><path fill-rule="evenodd" clip-rule="evenodd" d="M145.66 50.73a3.56 3.56 0 10-2.32 0c.03 2.85-1.48 6.42-4.18 6.42h10.67c-2.7 0-4.18-3.59-4.17-6.42z"/></mask><path fill-rule="evenodd" clip-rule="evenodd" d="M145.66 50.73a3.56 3.56 0 10-2.32 0c.03 2.85-1.48 6.42-4.18 6.42h10.67c-2.7 0-4.18-3.59-4.17-6.42z" fill="#5C5C5C"/><path d="M145.66 50.73l-.65-1.9-1.34.47v1.42h2zm-2.32 0l2-.02-.01-1.41-1.34-.46-.65 1.9zm2.71-3.36c0 .67-.43 1.26-1.04 1.47l1.31 3.78a5.56 5.56 0 003.73-5.25h-4zm-1.56-1.56c.86 0 1.56.7 1.56 1.56h4a5.56 5.56 0 00-5.56-5.56v4zm-1.55 1.56c0-.86.7-1.56 1.56-1.56v-4a5.56 5.56 0 00-5.56 5.56h4zm1.05 1.47a1.56 1.56 0 01-1.05-1.47h-4c0 2.44 1.57 4.5 3.75 5.25l1.3-3.78zm-4.83 10.3c2.36 0 3.96-1.57 4.85-3.14.9-1.6 1.35-3.55 1.33-5.29l-4 .04a6.83 6.83 0 01-.8 3.27c-.53.92-1.04 1.13-1.38 1.13v4zm10.67-4h-10.67v4h10.67v-4zm-6.17-4.42c0 1.72.43 3.67 1.33 5.26.89 1.57 2.48 3.17 4.84 3.17v-4c-.33 0-.83-.2-1.36-1.13a6.96 6.96 0 01-.8-3.28l-4-.02z" fill="#000" mask="url(#t)"/><path d="M151.6 60.81h1V59.15a3 3 0 00-3-3h-10.22a3 3 0 00-3 3V60.8h15.23z" fill="#5C5C5C" stroke="#000" stroke-width="2"/><mask id="u" maskUnits="userSpaceOnUse" x="266.16" y="201.81" width="12" height="18" fill="#000"><path fill="#fff" d="M266.16 201.81h12v18h-12z"/><path fill-rule="evenodd" clip-rule="evenodd" d="M273.66 210.73a3.56 3.56 0 10-2.32 0c.03 2.85-1.48 6.42-4.18 6.42h10.67c-2.7 0-4.18-3.59-4.17-6.42z"/></mask><path fill-rule="evenodd" clip-rule="evenodd" d="M273.66 210.73a3.56 3.56 0 10-2.32 0c.03 2.85-1.48 6.42-4.18 6.42h10.67c-2.7 0-4.18-3.59-4.17-6.42z" fill="#fff"/><path d="M273.66 210.73l-.65-1.9-1.34.47v1.42h2zm-2.32 0l2-.02-.01-1.41-1.34-.46-.65 1.9zm2.71-3.36c0 .67-.43 1.25-1.04 1.47l1.31 3.78a5.56 5.56 0 003.73-5.25h-4zm-1.56-1.56c.87 0 1.56.7 1.56 1.56h4a5.56 5.56 0 00-5.56-5.56v4zm-1.55 1.56c0-.86.7-1.56 1.56-1.56v-4a5.56 5.56 0 00-5.56 5.56h4zm1.05 1.47a1.56 1.56 0 01-1.05-1.47h-4c0 2.44 1.57 4.5 3.75 5.25l1.3-3.78zm-4.83 10.3c2.36 0 3.96-1.57 4.85-3.14.9-1.6 1.35-3.55 1.33-5.29l-4 .04a6.84 6.84 0 01-.8 3.27c-.53.92-1.04 1.13-1.38 1.13v4zm10.67-4h-10.67v4h10.67v-4zm-6.17-4.42c0 1.72.43 3.68 1.33 5.26.89 1.57 2.48 3.17 4.84 3.17v-4c-.33 0-.83-.2-1.36-1.14a6.96 6.96 0 01-.8-3.27l-4-.02z" fill="#000" mask="url(#u)"/><path d="M279.6 220.81h1V219.15a3 3 0 00-3-3h-10.22a3 3 0 00-3 3V220.8h15.23z" fill="#fff" stroke="#000" stroke-width="2"/><mask id="v" maskUnits="userSpaceOnUse" x="266.16" y="41.81" width="12" height="18" fill="#000"><path fill="#fff" d="M266.16 41.81h12v18h-12z"/><path fill-rule="evenodd" clip-rule="evenodd" d="M273.66 50.73a3.56 3.56 0 10-2.32 0c.03 2.85-1.48 6.42-4.18 6.42h10.67c-2.7 0-4.18-3.59-4.17-6.42z"/></mask><path fill-rule="evenodd" clip-rule="evenodd" d="M273.66 50.73a3.56 3.56 0 10-2.32 0c.03 2.85-1.48 6.42-4.18 6.42h10.67c-2.7 0-4.18-3.59-4.17-6.42z" fill="#5C5C5C"/><path d="M273.66 50.73l-.65-1.9-1.34.47v1.42h2zm-2.32 0l2-.02-.01-1.41-1.34-.46-.65 1.9zm2.71-3.36c0 .67-.43 1.26-1.04 1.47l1.31 3.78a5.56 5.56 0 003.73-5.25h-4zm-1.56-1.56c.87 0 1.56.7 1.56 1.56h4a5.56 5.56 0 00-5.56-5.56v4zm-1.55 1.56c0-.86.7-1.56 1.56-1.56v-4a5.56 5.56 0 00-5.56 5.56h4zm1.05 1.47a1.56 1.56 0 01-1.05-1.47h-4c0 2.44 1.57 4.5 3.75 5.25l1.3-3.78zm-4.83 10.3c2.36 0 3.96-1.57 4.85-3.14.9-1.6 1.35-3.55 1.33-5.29l-4 .04a6.83 6.83 0 01-.8 3.27c-.53.92-1.04 1.13-1.38 1.13v4zm10.67-4h-10.67v4h10.67v-4zm-6.17-4.42c0 1.72.43 3.67 1.33 5.26.89 1.57 2.48 3.17 4.84 3.17v-4c-.33 0-.83-.2-1.36-1.13a6.96 6.96 0 01-.8-3.28l-4-.02z" fill="#000" mask="url(#v)"/><path d="M279.6 60.81h1V59.15a3 3 0 00-3-3h-10.22a3 3 0 00-3 3V60.8h15.23z" fill="#5C5C5C" stroke="#000" stroke-width="2"/><path fill-rule="evenodd" clip-rule="evenodd" d="M147.35 230.78a3 3 0 01-1.09 2.32l1.8 7.16 3.88-3.66a3.04 3.04 0 01-.33-1.38 2.91 2.91 0 012.85-2.96 2.91 2.91 0 012.86 2.96 2.91 2.91 0 01-3.04 2.96l-2.67 10.08h-14.23l-2.66-10.08a2.92 2.92 0 01-2.67-2.96 2.91 2.91 0 012.86-2.96 2.91 2.91 0 012.85 2.96c0 .6-.16 1.15-.46 1.61l3.64 3.43 1.79-7.16a3 3 0 01-1.1-2.32 2.91 2.91 0 012.87-2.97 2.91 2.91 0 012.85 2.97z" fill="#fff"/><path d="M146.26 233.1l-.63-.77-.5.4.16.62.97-.25zm1.8 7.16l-.98.24.41 1.65 1.25-1.16-.69-.73zm3.88-3.66l.68.73.55-.52-.34-.66-.9.45zm2.34 1.58l.06-1-.82-.06-.21.8.97.26zm-2.67 10.08v1h.77l.2-.75-.97-.25zm-14.23 0l-.96.25.2.75h.76v-1zm-2.66-10.08l.96-.26-.18-.7-.72-.04-.06 1zm2.58-1.35l-.84-.53-.44.7.6.56.68-.73zm3.64 3.43l-.69.73 1.25 1.16.41-1.65-.97-.24zm1.79-7.16l.97.25.15-.62-.49-.4-.63.77zm4.17.78a4 4 0 001.45-3.1h-2a2 2 0 01-.72 1.55l1.27 1.55zm2.12 6.13l-1.79-7.15-1.94.49 1.8 7.15 1.93-.49zm2.23-4.14l-3.88 3.66 1.37 1.46 3.88-3.66-1.37-1.46zm-.64-.65c0 .66.15 1.28.43 1.83l1.79-.9a2.04 2.04 0 01-.22-.93h-2zm3.85-3.96a3.91 3.91 0 00-3.85 3.96h2c0-1.12.86-1.96 1.85-1.96v-2zm3.86 3.96c0-2.16-1.7-3.96-3.86-3.96v2c1 0 1.86.84 1.86 1.96h2zm-3.86 3.96c2.17 0 3.86-1.8 3.86-3.96h-2c0 1.12-.86 1.96-1.86 1.96v2zm-.25 0h.25v-2h-.12l-.13 2zm-1.64 9.33l2.67-10.08-1.93-.51-2.67 10.08 1.93.51zm-15.19.75h14.23v-2h-14.23v2zm-3.63-10.83l2.67 10.08 1.93-.5-2.67-10.09-1.93.51zm1.03-1.25a1.92 1.92 0 01-1.73-1.96h-2a3.92 3.92 0 003.6 3.95l.13-2zm-1.73-1.96c0-1.12.87-1.96 1.86-1.96v-2a3.91 3.91 0 00-3.86 3.96h2zm1.86-1.96c.99 0 1.85.84 1.85 1.96h2c0-2.16-1.69-3.96-3.85-3.96v2zm1.85 1.96c0 .4-.1.77-.3 1.08l1.7 1.07c.38-.63.6-1.36.6-2.15h-2zm4.87 4.3l-3.64-3.41-1.37 1.45 3.63 3.43 1.38-1.46zm.13-6.66l-1.79 7.15 1.94.49 1.79-7.15-1.94-.49zm-1.12-2.09a4 4 0 001.46 3.1l1.26-1.54a2 2 0 01-.72-1.56h-2zm3.86-3.96a3.91 3.91 0 00-3.86 3.97h2c0-1.12.86-1.97 1.86-1.97v-2zm3.85 3.97c0-2.16-1.7-3.97-3.85-3.97v2c.99 0 1.85.85 1.85 1.97h2z" fill="#000"/><path d="M154.27 252.81h1v-2.55a3 3 0 00-3-3h-15.55a3 3 0 00-3 3v2.55h20.55z" fill="#fff" stroke="#000" stroke-width="2"/><path fill-rule="evenodd" clip-rule="evenodd" d="M147.35 6.77a3 3 0 01-1.09 2.33l1.8 7.16 3.88-3.66a3.04 3.04 0 01-.33-1.38 2.91 2.91 0 012.85-2.96 2.91 2.91 0 012.86 2.96 2.91 2.91 0 01-3.04 2.96l-2.67 10.08h-14.23l-2.66-10.08a2.92 2.92 0 01-2.67-2.96 2.91 2.91 0 012.86-2.96 2.91 2.91 0 012.85 2.96c0 .6-.16 1.15-.46 1.61l3.64 3.43 1.79-7.16a3 3 0 01-1.1-2.33 2.91 2.91 0 012.87-2.96 2.91 2.91 0 012.85 2.96z" fill="#5C5C5C"/><path d="M146.26 9.1l-.63-.77-.5.4.16.62.97-.25zm1.8 7.16l-.98.24.41 1.65 1.25-1.17-.69-.72zm3.88-3.66l.68.73.55-.51-.34-.67-.9.45zm2.34 1.58l.06-1-.82-.06-.21.8.97.26zm-2.67 10.08v1h.77l.2-.75-.97-.25zm-14.23 0l-.96.25.2.75h.76v-1zm-2.66-10.08l.96-.26-.18-.7-.72-.04-.06 1zm2.58-1.35l-.84-.53-.44.7.6.56.68-.73zm3.64 3.43l-.69.72 1.25 1.17.41-1.65-.97-.24zm1.79-7.16l.97.25.15-.62-.49-.4-.63.77zm4.17.78a4 4 0 001.45-3.1h-2a2 2 0 01-.72 1.55l1.27 1.55zm2.12 6.13l-1.79-7.15-1.94.49 1.8 7.15 1.93-.49zm2.23-4.14l-3.88 3.66 1.37 1.45 3.88-3.65-1.37-1.46zm-.64-.65c0 .66.15 1.28.43 1.83l1.79-.9a2.04 2.04 0 01-.22-.93h-2zm3.85-3.96a3.91 3.91 0 00-3.85 3.96h2c0-1.12.86-1.96 1.85-1.96v-2zm3.86 3.96c0-2.15-1.7-3.96-3.86-3.96v2c1 0 1.86.84 1.86 1.96h2zm-3.86 3.96c2.17 0 3.86-1.8 3.86-3.96h-2c0 1.12-.86 1.96-1.86 1.96v2zm-.25 0h.25v-2h-.12l-.13 2zm-1.64 9.33l2.67-10.08-1.93-.51L150.64 24l1.93.51zm-15.19.75h14.23v-2h-14.23v2zm-3.63-10.83l2.67 10.08 1.93-.51-2.67-10.08-1.93.51zm1.03-1.25a1.92 1.92 0 01-1.73-1.96h-2a3.92 3.92 0 003.6 3.95l.13-2zm-1.73-1.96c0-1.12.87-1.96 1.86-1.96v-2a3.91 3.91 0 00-3.86 3.96h2zm1.86-1.96c.99 0 1.85.84 1.85 1.96h2c0-2.15-1.69-3.96-3.85-3.96v2zm1.85 1.96c0 .4-.1.77-.3 1.08l1.7 1.07c.38-.62.6-1.36.6-2.15h-2zm4.87 4.3l-3.64-3.41-1.37 1.45 3.63 3.42 1.38-1.45zm.13-6.66l-1.79 7.15 1.94.49 1.79-7.15-1.94-.49zm-1.12-2.09a4 4 0 001.46 3.1l1.26-1.54a2 2 0 01-.72-1.56h-2zm3.86-3.96a3.91 3.91 0 00-3.86 3.96h2c0-1.11.86-1.96 1.86-1.96v-2zm3.85 3.96c0-2.15-1.7-3.96-3.85-3.96v2c.99 0 1.85.85 1.85 1.96h2z" fill="#000"/><path d="M154.27 28.81h1v-2.55a3 3 0 00-3-3h-15.55a3 3 0 00-3 3v2.55h20.55z" fill="#5C5C5C" stroke="#000" stroke-width="2"/><path d="M44.5 236.59h-.89l-.1.88-1.34 10.66-.14 1.13H55l-.2-1.17-1.77-10.66-.14-.84h-8.4z" fill="#fff" stroke="#000" stroke-width="2"/><path d="M41.38 229.48h-1v9.11h16.23v-9.11h-3.13l-.23.66-1.19 3.23h-1.02l-.87-3.16-.2-.73h-2.95l-.2.73-.86 3.16h-1.03l-1.18-3.24-.24-.65h-2.13zM58.27 252.81h1v-2.55a3 3 0 00-3-3H40.72a3 3 0 00-3 3v2.55h20.55z" fill="#fff" stroke="#000" stroke-width="2"/><path d="M44.5 12.59h-.89l-.1.88-1.34 10.66-.14 1.13H55l-.2-1.17-1.77-10.66-.14-.84h-8.4z" fill="#5C5C5C" stroke="#000" stroke-width="2"/><path d="M41.38 5.48h-1v9.11h16.23V5.48h-3.13l-.23.66-1.19 3.23h-1.02l-.87-3.16-.2-.73h-2.95l-.2.73-.86 3.16h-1.03l-1.18-3.23-.24-.66h-2.13zM58.27 28.81h1v-2.55a3 3 0 00-3-3H40.72a3 3 0 00-3 3v2.55h20.55z" fill="#5C5C5C" stroke="#000" stroke-width="2"/><path d="M268.5 236.59h-.89l-.1.88-1.34 10.66-.14 1.13H279l-.2-1.17-1.77-10.66-.14-.84h-8.41z" fill="#fff" stroke="#000" stroke-width="2"/><path d="M265.38 229.48h-1v9.11h16.23v-9.11h-3.13l-.23.66-1.19 3.23h-1.02l-.87-3.16-.2-.73H271.02l-.2.73-.87 3.16h-1.02l-1.18-3.24-.24-.65h-2.13zM282.27 252.81h1v-2.55a3 3 0 00-3-3h-15.55a3 3 0 00-3 3v2.55h20.55z" fill="#fff" stroke="#000" stroke-width="2"/><path d="M268.5 12.59h-.89l-.1.88-1.34 10.66-.14 1.13H279l-.2-1.17-1.77-10.66-.14-.84h-8.41z" fill="#5C5C5C" stroke="#000" stroke-width="2"/><path d="M265.38 5.48h-1v9.11h16.23V5.48h-3.13l-.23.66-1.19 3.23h-1.02l-.87-3.16-.2-.73H271.02l-.2.73-.87 3.16h-1.02l-1.18-3.23-.24-.66h-2.13zM282.27 28.81h1v-2.55a3 3 0 00-3-3h-15.55a3 3 0 00-3 3v2.55h20.55z" fill="#5C5C5C" stroke="#000" stroke-width="2"/></g><defs><clipPath id="clip0"><path fill="#fff" transform="translate(.5 .37)" d="M0 0h320v288H0z"/></clipPath></defs></svg>