<svg width="321" height="289" fill="none" xmlns="http://www.w3.org/2000/svg"><g clip-path="url(#clip0)"><path fill="#FEE6C1" d="M32.01.92h256v256h-256z"/><path d="M32.01 224.92h32v32h-32v-32zM32.01 96.92h32v32h-32v-32zM32.01 160.92h32v32h-32v-32zM32.01 32.92h32v32h-32v-32zM64.01 192.92h32v32h-32v-32zM64.01 64.92h32v32h-32v-32zM64.01 128.92h32v32h-32v-32zM64.01.92h32v32h-32v-32zM160.01 224.92h32v32h-32v-32zM160.01 96.92h32v32h-32v-32zM160.01 160.92h32v32h-32v-32zM160.01 32.92h32v32h-32v-32zM192.01 192.92h32v32h-32v-32zM192.01 64.92h32v32h-32v-32zM192.01 128.92h32v32h-32v-32zM192.01.92h32v32h-32v-32z" fill="#866C4A"/><path d="M96.01 224.92h32v32h-32v-32zM96.01 96.92h32v32h-32v-32zM96.01 160.92h32v32h-32v-32zM96.01 32.92h32v32h-32v-32zM128.01 192.92h32v32h-32v-32zM128.01 64.92h32v32h-32v-32zM128.01 128.92h32v32h-32v-32zM128.01.92h32v32h-32v-32zM224.01 224.92h32v32h-32v-32zM224.01 96.92h32v32h-32v-32zM224.01 160.92h32v32h-32v-32zM224.01 32.92h32v32h-32v-32zM256.01 192.92h32v32h-32v-32zM256.01 64.92h32v32h-32v-32zM256.01 128.92h32v32h-32v-32zM256.01.92h32v32h-32v-32z" fill="#866C4A"/><path d="M13.44 238.28v-2.54h4.43v11.68h-2.85v-9.13h-1.58zM12.07 213.23l.5-.4a59 59 0 002.46-2.13c.6-.55 1.12-1.13 1.53-1.74.42-.61.63-1.2.63-1.78 0-.44-.1-.78-.3-1.02-.21-.25-.52-.37-.92-.37s-.73.15-.96.46c-.22.3-.34.73-.34 1.28h-2.64c.02-.9.22-1.66.58-2.27.37-.6.86-1.05 1.46-1.34.6-.3 1.28-.43 2.01-.43 1.27 0 2.23.32 2.87.97.65.65.97 1.5.97 2.54 0 1.15-.39 2.2-1.17 3.19-.78.97-1.77 1.92-2.97 2.85h4.32v2.22h-8.03v-2.03zM11.98 175.04a3.51 3.51 0 011.12-2.64c.7-.62 1.66-.93 2.87-.93.8 0 1.48.14 2.05.41a2.95 2.95 0 011.74 2.76c0 .7-.18 1.28-.53 1.73a2.7 2.7 0 01-1.23.9v.05c.6.2 1.09.54 1.44 1.01.35.47.53 1.07.53 1.81 0 .66-.16 1.25-.47 1.76-.3.5-.74.9-1.32 1.19-.58.28-1.27.43-2.07.43a4.7 4.7 0 01-3.07-.95c-.76-.63-1.16-1.58-1.2-2.84h2.66c0 .46.14.84.4 1.12.25.26.63.4 1.12.4.41 0 .73-.12.96-.36.23-.24.35-.56.35-.96 0-.5-.17-.88-.5-1.1-.32-.24-.84-.35-1.55-.35h-.51v-2.23h.51c.54 0 .98-.09 1.31-.27.34-.2.51-.53.51-1 0-.4-.1-.69-.32-.9a1.2 1.2 0 00-.88-.32c-.4 0-.7.12-.9.37-.2.24-.31.54-.34.9h-2.68zM11.38 149.34v-2.2l5.06-7.24h3.05v7.07h1.32v2.37h-1.32v2.08h-2.73v-2.08h-5.38zm5.57-6.43l-2.69 4.06h2.69v-4.06zM19.75 109.13h-4.99v2.2c.21-.23.51-.42.9-.57.38-.15.8-.23 1.24-.23.8 0 1.47.18 1.99.55.53.36.92.83 1.17 1.4.24.58.36 1.2.36 1.88 0 1.25-.35 2.24-1.05 2.97-.7.73-1.7 1.1-2.98 1.1a5.3 5.3 0 01-2.22-.44c-.63-.3-1.12-.71-1.46-1.23a3.55 3.55 0 01-.56-1.81h2.67c.07.33.22.6.47.83.24.21.58.32 1 .32.5 0 .88-.16 1.13-.48.24-.32.36-.75.36-1.28 0-.52-.12-.92-.38-1.2-.26-.28-.63-.42-1.12-.42-.36 0-.66.1-.9.28-.23.17-.38.4-.46.69h-2.64v-6.97h7.47v2.4zM17.41 77.9a1.6 1.6 0 00-.44-.89c-.22-.2-.52-.3-.92-.3-.6 0-1.04.27-1.3.8-.27.52-.41 1.35-.42 2.5a2.4 2.4 0 011-.89c.45-.2.94-.32 1.48-.32a3.3 3.3 0 012.5 1c.65.66.97 1.58.97 2.76 0 .78-.16 1.47-.48 2.05A3.3 3.3 0 0118.42 86c-.6.33-1.3.5-2.13.5-1.64 0-2.78-.52-3.42-1.54-.64-1.04-.96-2.52-.96-4.45 0-2.03.34-3.53 1-4.51.7-1 1.78-1.49 3.27-1.49.8 0 1.47.16 2.02.48.55.31.97.72 1.25 1.23s.45 1.07.5 1.68h-2.54zm-1.26 3.06c-.46 0-.84.14-1.15.42-.3.27-.45.65-.45 1.15 0 .51.14.91.42 1.2.28.3.69.43 1.21.43.47 0 .84-.13 1.1-.41.28-.29.42-.68.42-1.17 0-.5-.13-.9-.4-1.18-.26-.3-.65-.44-1.15-.44zM19.9 44.79l-4 9.63h-2.81l4.06-9.33h-4.97v-2.33h7.73v2.03zM13.46 17.15c-1-.53-1.5-1.37-1.5-2.51a2.86 2.86 0 011.8-2.7c.62-.3 1.36-.44 2.25-.44.88 0 1.62.14 2.22.43.61.28 1.06.66 1.36 1.14.3.47.45 1 .45 1.57a2.83 2.83 0 01-1.5 2.51 3.06 3.06 0 011.8 2.85 3.37 3.37 0 01-2.16 3.21c-.65.3-1.37.43-2.17.43-.8 0-1.53-.14-2.2-.43A3.37 3.37 0 0111.69 20a3.04 3.04 0 011.78-2.85zm3.92-2.1c0-.43-.12-.77-.38-1a1.34 1.34 0 00-1-.37c-.4 0-.74.12-1 .36-.25.25-.37.6-.37 1.03 0 .41.13.75.39 1 .25.23.58.34.99.34.4 0 .73-.12.99-.37.26-.24.38-.57.38-.99zm-1.37 3.28c-.5 0-.9.14-1.22.42-.3.27-.46.64-.46 1.12 0 .45.15.81.45 1.1.3.3.72.43 1.23.43s.91-.14 1.2-.43c.3-.29.45-.65.45-1.1 0-.47-.16-.84-.47-1.12-.3-.28-.7-.42-1.18-.42zM273.1 269.9c1.02 0 1.85.34 2.46 1.02.62.67.93 1.6.93 2.78v5.22h-2.72v-4.85c0-.6-.15-1.06-.46-1.39-.31-.33-.73-.5-1.25-.5s-.94.17-1.25.5c-.3.33-.46.8-.46 1.4v4.84h-2.74v-11.84h2.74v4.11c.28-.4.65-.7 1.13-.94a3.63 3.63 0 011.62-.35zM238.97 269.87c.63 0 1.18.12 1.64.38.48.25.85.6 1.1 1V270h2.74v8.91a4.9 4.9 0 01-.5 2.23c-.31.67-.8 1.2-1.48 1.6-.66.4-1.49.6-2.48.6-1.32 0-2.4-.32-3.22-.95a3.5 3.5 0 01-1.4-2.53h2.7c.09.34.29.6.6.8.33.2.72.3 1.2.3.56 0 1-.16 1.34-.5.34-.31.5-.83.5-1.55v-1.26a3.1 3.1 0 01-2.74 1.4 3.7 3.7 0 01-3.43-2.17 5.51 5.51 0 01-.51-2.43c0-.92.17-1.72.51-2.42.35-.69.83-1.22 1.43-1.6a3.7 3.7 0 012-.56zm2.75 4.59c0-.69-.2-1.22-.58-1.62-.37-.4-.83-.6-1.37-.6-.55 0-1.01.2-1.4.6a2.2 2.2 0 00-.56 1.6c0 .68.2 1.23.56 1.63.39.4.85.6 1.4.6.54 0 1-.2 1.37-.6.39-.4.58-.93.58-1.61zM210.6 272.26h-1.47v6.66h-2.74v-6.66h-.99V270h1v-.25c0-1.1.3-1.93.94-2.5.63-.57 1.55-.86 2.76-.86l.45.01v2.32c-.52-.03-.89.05-1.1.23-.21.18-.32.5-.32.97v.08h1.47v2.27zM180.49 274.31c0 .26-.02.53-.05.8h-6.19c.04.56.22.98.53 1.28.32.3.7.44 1.17.44.68 0 1.15-.3 1.42-.87h2.91a3.93 3.93 0 01-.81 1.59c-.39.46-.87.83-1.46 1.1a4.7 4.7 0 01-1.97.4 4.8 4.8 0 01-2.33-.56 3.98 3.98 0 01-1.6-1.6c-.39-.7-.58-1.5-.58-2.43 0-.93.19-1.74.56-2.44.38-.69.92-1.22 1.6-1.6a4.83 4.83 0 012.35-.56c.87 0 1.63.19 2.3.55.68.36 1.2.88 1.57 1.55.39.67.58 1.46.58 2.35zm-2.8-.72c0-.47-.16-.84-.48-1.12a1.77 1.77 0 00-1.2-.41c-.46 0-.85.13-1.17.4-.3.26-.5.64-.57 1.13h3.42zM139.03 274.44c0-.92.17-1.72.51-2.42.35-.69.83-1.22 1.43-1.6a3.7 3.7 0 013.6-.19c.49.25.87.58 1.15 1v-4.15h2.73v11.84h-2.73v-1.28c-.26.43-.63.77-1.1 1.03-.47.25-1.03.38-1.65.38a3.7 3.7 0 01-3.43-2.18 5.51 5.51 0 01-.51-2.43zm6.69.02c0-.69-.2-1.22-.58-1.62-.37-.4-.83-.6-1.37-.6-.55 0-1.01.2-1.4.6a2.2 2.2 0 00-.56 1.6c0 .68.2 1.23.56 1.63.39.4.85.6 1.4.6.54 0 1-.2 1.37-.6.39-.4.58-.93.58-1.61zM107.62 274.46c0-.93.18-1.74.56-2.44.38-.69.9-1.22 1.58-1.6a4.8 4.8 0 012.34-.56c1.12 0 2.05.3 2.8.88a4.14 4.14 0 011.48 2.49h-2.9c-.25-.69-.73-1.03-1.43-1.03-.5 0-.9.2-1.2.6-.3.38-.45.93-.45 1.66 0 .72.15 1.28.45 1.68.3.38.7.57 1.2.57.7 0 1.18-.34 1.42-1.02h2.91a4.2 4.2 0 01-1.48 2.46c-.76.6-1.7.9-2.8.9a4.8 4.8 0 01-2.34-.56c-.67-.37-1.2-.9-1.58-1.6-.38-.7-.56-1.5-.56-2.43zM78.31 271.26c.26-.42.62-.75 1.1-1.01a3.45 3.45 0 011.65-.38 3.7 3.7 0 013.41 2.15c.35.7.53 1.5.53 2.42 0 .92-.18 1.73-.53 2.43-.34.7-.81 1.24-1.4 1.62a3.7 3.7 0 01-2 .56c-.64 0-1.19-.12-1.66-.37s-.83-.6-1.1-1v1.24h-2.74v-11.84h2.74v4.18zm3.9 3.18c0-.68-.19-1.21-.57-1.6-.38-.4-.84-.6-1.4-.6-.54 0-1 .2-1.39.6-.37.4-.56.93-.56 1.62 0 .68.2 1.22.56 1.61.39.4.85.6 1.4.6.54 0 1-.2 1.39-.6.38-.4.57-.95.57-1.63zM43.03 274.44c0-.92.17-1.72.51-2.42.35-.69.83-1.22 1.43-1.6a3.7 3.7 0 012-.56c.63 0 1.17.13 1.64.39.48.25.85.6 1.1 1V270h2.74v8.93h-2.73v-1.26c-.27.41-.64.75-1.12 1-.47.26-1.02.39-1.65.39a3.67 3.67 0 01-3.4-2.18 5.51 5.51 0 01-.52-2.43zm6.69.02c0-.69-.2-1.22-.58-1.62-.37-.4-.83-.6-1.37-.6-.55 0-1.01.2-1.4.6a2.2 2.2 0 00-.56 1.6c0 .68.2 1.23.56 1.63.39.4.85.6 1.4.6.54 0 1-.2 1.37-.6.39-.4.58-.93.58-1.61z" fill="#000"/><mask id="a" maskUnits="userSpaceOnUse" x="41.68" y="106.36" width="12" height="18" fill="#000"><path fill="#fff" d="M41.68 106.36h12v18h-12z"/><path fill-rule="evenodd" clip-rule="evenodd" d="M49.18 115.28a3.56 3.56 0 10-2.32 0c.02 2.85-1.48 6.42-4.18 6.42h10.66c-2.69 0-4.18-3.59-4.16-6.42z"/></mask><path fill-rule="evenodd" clip-rule="evenodd" d="M49.18 115.28a3.56 3.56 0 10-2.32 0c.02 2.85-1.48 6.42-4.18 6.42h10.66c-2.69 0-4.18-3.59-4.16-6.42z" fill="#fff"/><path d="M49.18 115.28l-.66-1.89-1.33.47-.01 1.4 2 .02zm-2.32 0l2-.01-.02-1.42-1.33-.46-.65 1.9zm2.7-3.36c0 .68-.43 1.26-1.04 1.47l1.32 3.78a5.56 5.56 0 003.73-5.25h-4zm-1.55-1.56c.86 0 1.56.7 1.56 1.56h4a5.56 5.56 0 00-5.56-5.56v4zm-1.55 1.56c0-.86.7-1.56 1.55-1.56v-4a5.56 5.56 0 00-5.55 5.56h4zm1.05 1.47a1.56 1.56 0 01-1.05-1.47h-4c0 2.44 1.57 4.5 3.75 5.26l1.3-3.79zm-4.83 10.3c2.35 0 3.95-1.57 4.85-3.14.9-1.59 1.34-3.55 1.33-5.28l-4 .03a6.84 6.84 0 01-.8 3.27c-.53.92-1.04 1.13-1.38 1.13v4zm10.66-4H42.68v4h10.66v-4zm-6.16-4.42c-.01 1.72.43 3.68 1.33 5.27.88 1.57 2.47 3.16 4.83 3.16v-4c-.33 0-.83-.2-1.35-1.13a6.96 6.96 0 01-.81-3.28l-4-.02z" fill="#000" mask="url(#a)"/><path d="M55.12 125.37h1v-1.67a3 3 0 00-3-3H42.9a3 3 0 00-3 3v1.67h15.22z" fill="#fff" stroke="#000" stroke-width="2"/><path fill="#198754" fill-opacity=".75" d="M224.01 96.92h32v32h-32z"/><mask id="b" maskUnits="userSpaceOnUse" x="73.68" y="138.37" width="12" height="18" fill="#000"><path fill="#fff" d="M73.68 138.37h12v18h-12z"/><path fill-rule="evenodd" clip-rule="evenodd" d="M81.18 147.28a3.56 3.56 0 10-2.32 0c.02 2.85-1.48 6.42-4.18 6.42h10.66c-2.69 0-4.18-3.58-4.16-6.42z"/></mask><path fill-rule="evenodd" clip-rule="evenodd" d="M81.18 147.28a3.56 3.56 0 10-2.32 0c.02 2.85-1.48 6.42-4.18 6.42h10.66c-2.69 0-4.18-3.58-4.16-6.42z" fill="#fff"/><path d="M81.18 147.28l-.66-1.89-1.33.47-.01 1.4 2 .02zm-2.32 0l2-.01-.02-1.42-1.33-.46-.65 1.9zm2.7-3.36c0 .68-.43 1.26-1.04 1.47l1.32 3.78a5.56 5.56 0 003.73-5.25h-4zm-1.55-1.55c.86 0 1.56.7 1.56 1.55h4a5.56 5.56 0 00-5.56-5.55v4zm-1.55 1.55c0-.86.7-1.55 1.55-1.55v-4a5.56 5.56 0 00-5.55 5.55h4zm1.05 1.47a1.56 1.56 0 01-1.05-1.47h-4c0 2.44 1.57 4.5 3.75 5.26l1.3-3.79zm-4.83 10.3c2.35 0 3.95-1.57 4.85-3.14.9-1.59 1.34-3.55 1.33-5.28l-4 .03a6.84 6.84 0 01-.8 3.27c-.53.92-1.04 1.13-1.38 1.13v4zm10.66-4H74.68v4h10.66v-4zm-6.16-4.42c-.01 1.72.43 3.68 1.33 5.27.88 1.57 2.47 3.16 4.83 3.16v-4c-.33 0-.83-.2-1.35-1.13a6.96 6.96 0 01-.81-3.28l-4-.02z" fill="#000" mask="url(#b)"/><path d="M87.12 157.37h1v-1.67a3 3 0 00-3-3H74.9a3 3 0 00-3 3v1.67h15.22z" fill="#fff" stroke="#000" stroke-width="2"/><mask id="c" maskUnits="userSpaceOnUse" x="201.68" y="138.37" width="12" height="18" fill="#000"><path fill="#fff" d="M201.68 138.37h12v18h-12z"/><path fill-rule="evenodd" clip-rule="evenodd" d="M209.18 147.28a3.56 3.56 0 10-2.32 0c.02 2.85-1.48 6.42-4.18 6.42h10.66c-2.69 0-4.18-3.58-4.16-6.42z"/></mask><path fill-rule="evenodd" clip-rule="evenodd" d="M209.18 147.28a3.56 3.56 0 10-2.32 0c.02 2.85-1.48 6.42-4.18 6.42h10.66c-2.69 0-4.18-3.58-4.16-6.42z" fill="#fff"/><path d="M209.18 147.28l-.66-1.89-1.33.47-.01 1.4 2 .02zm-2.32 0l2-.01-.02-1.42-1.33-.46-.65 1.9zm2.7-3.36c0 .68-.43 1.26-1.04 1.47l1.32 3.78a5.56 5.56 0 003.73-5.25h-4zm-1.55-1.55c.86 0 1.56.7 1.56 1.55h4a5.56 5.56 0 00-5.56-5.55v4zm-1.55 1.55c0-.86.7-1.55 1.55-1.55v-4a5.56 5.56 0 00-5.55 5.55h4zm1.05 1.47a1.56 1.56 0 01-1.05-1.47h-4c0 2.44 1.57 4.5 3.75 5.26l1.3-3.79zm-4.83 10.3c2.35 0 3.95-1.57 4.85-3.14.9-1.59 1.34-3.55 1.33-5.28l-4 .03a6.84 6.84 0 01-.8 3.27c-.53.92-1.04 1.13-1.38 1.13v4zm10.66-4h-10.66v4h10.66v-4zm-6.16-4.42c-.01 1.72.43 3.68 1.32 5.27.9 1.57 2.48 3.16 4.84 3.16v-4c-.33 0-.83-.2-1.35-1.13a6.95 6.95 0 01-.81-3.28l-4-.02z" fill="#000" mask="url(#c)"/><path d="M215.12 157.37h1v-1.67a3 3 0 00-3-3H202.9a3 3 0 00-3 3v1.67h15.22z" fill="#fff" stroke="#000" stroke-width="2"/><mask id="d" maskUnits="userSpaceOnUse" x="265.68" y="138.37" width="12" height="18" fill="#000"><path fill="#fff" d="M265.68 138.37h12v18h-12z"/><path fill-rule="evenodd" clip-rule="evenodd" d="M273.18 147.28a3.56 3.56 0 10-2.32 0c.02 2.85-1.48 6.42-4.18 6.42h10.66c-2.69 0-4.18-3.58-4.16-6.42z"/></mask><path fill-rule="evenodd" clip-rule="evenodd" d="M273.18 147.28a3.56 3.56 0 10-2.32 0c.02 2.85-1.48 6.42-4.18 6.42h10.66c-2.69 0-4.18-3.58-4.16-6.42z" fill="#fff"/><path d="M273.18 147.28l-.66-1.89-1.33.47-.01 1.4 2 .02zm-2.32 0l2-.01-.02-1.42-1.33-.46-.65 1.9zm2.7-3.36c0 .68-.43 1.26-1.04 1.47l1.32 3.78a5.56 5.56 0 003.73-5.25h-4zm-1.55-1.55c.86 0 1.56.7 1.56 1.55h4a5.56 5.56 0 00-5.56-5.55v4zm-1.55 1.55c0-.86.7-1.55 1.55-1.55v-4a5.56 5.56 0 00-5.55 5.55h4zm1.05 1.47a1.56 1.56 0 01-1.05-1.47h-4c0 2.44 1.57 4.5 3.75 5.26l1.3-3.79zm-4.83 10.3c2.36 0 3.95-1.57 4.85-3.14.9-1.59 1.34-3.55 1.33-5.28l-4 .03a6.84 6.84 0 01-.8 3.27c-.54.92-1.04 1.13-1.38 1.13v4zm10.66-4h-10.66v4h10.66v-4zm-6.16-4.42c-.01 1.72.43 3.68 1.32 5.27.9 1.57 2.48 3.16 4.84 3.16v-4c-.33 0-.83-.2-1.35-1.13a6.95 6.95 0 01-.81-3.28l-4-.02z" fill="#000" mask="url(#d)"/><path d="M279.12 157.37h1v-1.67a3 3 0 00-3-3H266.9a3 3 0 00-3 3v1.67h15.22z" fill="#fff" stroke="#000" stroke-width="2"/><mask id="e" maskUnits="userSpaceOnUse" x="137.68" y="138.37" width="12" height="18" fill="#000"><path fill="#fff" d="M137.68 138.37h12v18h-12z"/><path fill-rule="evenodd" clip-rule="evenodd" d="M145.18 147.28a3.56 3.56 0 10-2.32 0c.02 2.85-1.48 6.42-4.18 6.42h10.66c-2.69 0-4.18-3.58-4.16-6.42z"/></mask><path fill-rule="evenodd" clip-rule="evenodd" d="M145.18 147.28a3.56 3.56 0 10-2.32 0c.02 2.85-1.48 6.42-4.18 6.42h10.66c-2.69 0-4.18-3.58-4.16-6.42z" fill="#fff"/><path d="M145.18 147.28l-.66-1.89-1.33.47-.01 1.4 2 .02zm-2.32 0l2-.01-.02-1.42-1.33-.46-.65 1.9zm2.7-3.36c0 .68-.43 1.26-1.04 1.47l1.32 3.78a5.56 5.56 0 003.73-5.25h-4zm-1.55-1.55c.86 0 1.56.7 1.56 1.55h4a5.56 5.56 0 00-5.56-5.55v4zm-1.55 1.55c0-.86.7-1.55 1.55-1.55v-4a5.56 5.56 0 00-5.55 5.55h4zm1.05 1.47a1.56 1.56 0 01-1.05-1.47h-4c0 2.44 1.57 4.5 3.75 5.26l1.3-3.79zm-4.83 10.3c2.35 0 3.95-1.57 4.85-3.14.9-1.59 1.34-3.55 1.33-5.28l-4 .03a6.84 6.84 0 01-.8 3.27c-.53.92-1.04 1.13-1.38 1.13v4zm10.66-4h-10.66v4h10.66v-4zm-6.16-4.42c-.01 1.72.43 3.68 1.32 5.27.9 1.57 2.48 3.16 4.84 3.16v-4c-.33 0-.83-.2-1.35-1.13a6.95 6.95 0 01-.81-3.28l-4-.02z" fill="#000" mask="url(#e)"/><path d="M151.12 157.37h1v-1.67a3 3 0 00-3-3H138.9a3 3 0 00-3 3v1.67h15.22z" fill="#fff" stroke="#000" stroke-width="2"/><mask id="f" maskUnits="userSpaceOnUse" x="201.68" y="106.36" width="12" height="18" fill="#000"><path fill="#fff" d="M201.68 106.36h12v18h-12z"/><path fill-rule="evenodd" clip-rule="evenodd" d="M209.18 115.28a3.56 3.56 0 10-2.32 0c.02 2.85-1.48 6.42-4.18 6.42h10.66c-2.69 0-4.18-3.59-4.16-6.42z"/></mask><path fill-rule="evenodd" clip-rule="evenodd" d="M209.18 115.28a3.56 3.56 0 10-2.32 0c.02 2.85-1.48 6.42-4.18 6.42h10.66c-2.69 0-4.18-3.59-4.16-6.42z" fill="#5C5C5C"/><path d="M209.18 115.28l-.66-1.89-1.33.47-.01 1.4 2 .02zm-2.32 0l2-.01-.02-1.42-1.33-.46-.65 1.9zm2.7-3.36c0 .68-.43 1.26-1.04 1.47l1.32 3.78a5.56 5.56 0 003.73-5.25h-4zm-1.55-1.56c.86 0 1.56.7 1.56 1.56h4a5.56 5.56 0 00-5.56-5.56v4zm-1.55 1.56c0-.86.7-1.56 1.55-1.56v-4a5.56 5.56 0 00-5.55 5.56h4zm1.05 1.47a1.56 1.56 0 01-1.05-1.47h-4c0 2.44 1.57 4.5 3.75 5.26l1.3-3.79zm-4.83 10.3c2.35 0 3.95-1.57 4.85-3.14.9-1.59 1.34-3.55 1.33-5.28l-4 .03a6.84 6.84 0 01-.8 3.27c-.53.92-1.04 1.13-1.38 1.13v4zm10.66-4h-10.66v4h10.66v-4zm-6.16-4.42c-.01 1.72.43 3.68 1.32 5.27.9 1.57 2.48 3.16 4.84 3.16v-4c-.33 0-.83-.2-1.35-1.13a6.95 6.95 0 01-.81-3.28l-4-.02z" fill="#000" mask="url(#f)"/><path d="M215.12 125.37h1v-1.67a3 3 0 00-3-3H202.9a3 3 0 00-3 3v1.67h15.22z" fill="#5C5C5C" stroke="#000" stroke-width="2"/><mask id="g" maskUnits="userSpaceOnUse" x="169.68" y="74.37" width="12" height="18" fill="#000"><path fill="#fff" d="M169.68 74.37h12v18h-12z"/><path fill-rule="evenodd" clip-rule="evenodd" d="M177.18 83.28a3.56 3.56 0 10-2.32 0c.02 2.85-1.48 6.42-4.18 6.42h10.66c-2.69 0-4.18-3.58-4.16-6.42z"/></mask><path fill-rule="evenodd" clip-rule="evenodd" d="M177.18 83.28a3.56 3.56 0 10-2.32 0c.02 2.85-1.48 6.42-4.18 6.42h10.66c-2.69 0-4.18-3.58-4.16-6.42z" fill="#5C5C5C"/><path d="M177.18 83.28l-.66-1.89-1.33.47-.01 1.4 2 .02zm-2.32 0l2-.01-.02-1.42-1.33-.46-.65 1.9zm2.7-3.36c0 .68-.43 1.26-1.04 1.47l1.32 3.78a5.56 5.56 0 003.73-5.25h-4zm-1.55-1.55c.86 0 1.56.7 1.56 1.55h4a5.56 5.56 0 00-5.56-5.55v4zm-1.55 1.55c0-.86.7-1.55 1.55-1.55v-4a5.56 5.56 0 00-5.55 5.55h4zm1.05 1.47a1.56 1.56 0 01-1.05-1.47h-4c0 2.44 1.57 4.5 3.75 5.26l1.3-3.79zm-4.83 10.3c2.35 0 3.95-1.57 4.85-3.14.9-1.59 1.34-3.55 1.33-5.28l-4 .03a6.83 6.83 0 01-.8 3.27c-.53.92-1.04 1.13-1.38 1.13v4zm10.66-4h-10.66v4h10.66v-4zm-6.16-4.42c-.01 1.72.43 3.68 1.32 5.27.9 1.57 2.48 3.16 4.84 3.16v-4c-.33 0-.83-.2-1.35-1.13a6.95 6.95 0 01-.81-3.28l-4-.02z" fill="#000" mask="url(#g)"/><path d="M183.12 93.37h1V91.7a3 3 0 00-3-3H170.9a3 3 0 00-3 3v1.67h15.22z" fill="#5C5C5C" stroke="#000" stroke-width="2"/><mask id="h" maskUnits="userSpaceOnUse" x="137.68" y="106.36" width="12" height="18" fill="#000"><path fill="#fff" d="M137.68 106.36h12v18h-12z"/><path fill-rule="evenodd" clip-rule="evenodd" d="M145.18 115.28a3.56 3.56 0 10-2.32 0c.02 2.85-1.48 6.42-4.18 6.42h10.66c-2.69 0-4.18-3.59-4.16-6.42z"/></mask><path fill-rule="evenodd" clip-rule="evenodd" d="M145.18 115.28a3.56 3.56 0 10-2.32 0c.02 2.85-1.48 6.42-4.18 6.42h10.66c-2.69 0-4.18-3.59-4.16-6.42z" fill="#5C5C5C"/><path d="M145.18 115.28l-.66-1.89-1.33.47-.01 1.4 2 .02zm-2.32 0l2-.01-.02-1.42-1.33-.46-.65 1.9zm2.7-3.36c0 .68-.43 1.26-1.04 1.47l1.32 3.78a5.56 5.56 0 003.73-5.25h-4zm-1.55-1.56c.86 0 1.56.7 1.56 1.56h4a5.56 5.56 0 00-5.56-5.56v4zm-1.55 1.56c0-.86.7-1.56 1.55-1.56v-4a5.56 5.56 0 00-5.55 5.56h4zm1.05 1.47a1.56 1.56 0 01-1.05-1.47h-4c0 2.44 1.57 4.5 3.75 5.26l1.3-3.79zm-4.83 10.3c2.35 0 3.95-1.57 4.85-3.14.9-1.59 1.34-3.55 1.33-5.28l-4 .03a6.84 6.84 0 01-.8 3.27c-.53.92-1.04 1.13-1.38 1.13v4zm10.66-4h-10.66v4h10.66v-4zm-6.16-4.42c-.01 1.72.43 3.68 1.32 5.27.9 1.57 2.48 3.16 4.84 3.16v-4c-.33 0-.83-.2-1.35-1.13a6.95 6.95 0 01-.81-3.28l-4-.02z" fill="#000" mask="url(#h)"/><path d="M151.12 125.37h1v-1.67a3 3 0 00-3-3H138.9a3 3 0 00-3 3v1.67h15.22z" fill="#5C5C5C" stroke="#000" stroke-width="2"/><mask id="i" maskUnits="userSpaceOnUse" x="41.68" y="74.37" width="12" height="18" fill="#000"><path fill="#fff" d="M41.68 74.37h12v18h-12z"/><path fill-rule="evenodd" clip-rule="evenodd" d="M49.18 83.28a3.56 3.56 0 10-2.32 0c.02 2.85-1.48 6.42-4.18 6.42h10.66c-2.69 0-4.18-3.58-4.16-6.42z"/></mask><path fill-rule="evenodd" clip-rule="evenodd" d="M49.18 83.28a3.56 3.56 0 10-2.32 0c.02 2.85-1.48 6.42-4.18 6.42h10.66c-2.69 0-4.18-3.58-4.16-6.42z" fill="#5C5C5C"/><path d="M49.18 83.28l-.66-1.89-1.33.47-.01 1.4 2 .02zm-2.32 0l2-.01-.02-1.42-1.33-.46-.65 1.9zm2.7-3.36c0 .68-.43 1.26-1.04 1.47l1.32 3.78a5.56 5.56 0 003.73-5.25h-4zm-1.55-1.55c.86 0 1.56.7 1.56 1.55h4A5.56 5.56 0 0048 74.37v4zm-1.55 1.55c0-.86.7-1.55 1.55-1.55v-4a5.56 5.56 0 00-5.55 5.55h4zm1.05 1.47a1.56 1.56 0 01-1.05-1.47h-4c0 2.44 1.57 4.5 3.75 5.26l1.3-3.79zm-4.83 10.3c2.35 0 3.95-1.57 4.85-3.14.9-1.59 1.34-3.55 1.33-5.28l-4 .03a6.83 6.83 0 01-.8 3.27c-.53.92-1.04 1.13-1.38 1.13v4zm10.66-4H42.68v4h10.66v-4zm-6.16-4.42c-.01 1.72.43 3.68 1.33 5.27.88 1.57 2.47 3.16 4.83 3.16v-4c-.33 0-.83-.2-1.35-1.13a6.96 6.96 0 01-.81-3.28l-4-.02z" fill="#000" mask="url(#i)"/><path d="M55.12 93.37h1V91.7a3 3 0 00-3-3H42.9a3 3 0 00-3 3v1.67h15.22z" fill="#5C5C5C" stroke="#000" stroke-width="2"/><mask id="j" maskUnits="userSpaceOnUse" x="233.68" y="106.36" width="12" height="18" fill="#000"><path fill="#fff" d="M233.68 106.36h12v18h-12z"/><path fill-rule="evenodd" clip-rule="evenodd" d="M241.18 115.28a3.56 3.56 0 10-2.32 0c.02 2.85-1.48 6.42-4.18 6.42h10.66c-2.69 0-4.18-3.59-4.16-6.42z"/></mask><path fill-rule="evenodd" clip-rule="evenodd" d="M241.18 115.28a3.56 3.56 0 10-2.32 0c.02 2.85-1.48 6.42-4.18 6.42h10.66c-2.69 0-4.18-3.59-4.16-6.42z" fill="#fff"/><path d="M241.18 115.28l-.66-1.89-1.33.47-.01 1.4 2 .02zm-2.32 0l2-.01-.02-1.42-1.33-.46-.65 1.9zm2.7-3.36c0 .68-.43 1.26-1.04 1.47l1.32 3.78a5.56 5.56 0 003.73-5.25h-4zm-1.55-1.56c.86 0 1.56.7 1.56 1.56h4a5.56 5.56 0 00-5.56-5.56v4zm-1.55 1.56c0-.86.7-1.56 1.55-1.56v-4a5.56 5.56 0 00-5.55 5.56h4zm1.05 1.47a1.56 1.56 0 01-1.05-1.47h-4c0 2.44 1.57 4.5 3.75 5.26l1.3-3.79zm-4.83 10.3c2.35 0 3.95-1.57 4.85-3.14.9-1.59 1.34-3.55 1.33-5.28l-4 .03a6.84 6.84 0 01-.8 3.27c-.53.92-1.04 1.13-1.38 1.13v4zm10.66-4h-10.66v4h10.66v-4zm-6.16-4.42c-.01 1.72.43 3.68 1.32 5.27.9 1.57 2.48 3.16 4.84 3.16v-4c-.33 0-.83-.2-1.35-1.13a6.95 6.95 0 01-.81-3.28l-4-.02z" fill="#000" mask="url(#j)"/><path d="M247.12 125.37h1v-1.67a3 3 0 00-3-3H234.9a3 3 0 00-3 3v1.67h15.22z" fill="#fff" stroke="#000" stroke-width="2"/><path d="M240.01 10.92l-8.66 15h17.32l-8.66-15zm1.5 102v-2.45h-3v2.45h3zm0-5.4v-4.9h-3v4.9h3zm0-7.84v-4.9h-3v4.9h3zm0-7.85v-4.9h-3v4.9h3zm0-7.84v-4.9h-3v4.9h3zm0-7.85v-4.9h-3v4.9h3zm0-7.84v-4.9h-3v4.9h3zm0-7.85v-4.9h-3v4.9h3zm0-7.85v-4.9h-3v4.9h3zm0-7.84v-4.9h-3v4.9h3zm0-7.85v-4.9h-3v4.9h3zm0-7.84v-4.9h-3v4.9h3zm0-7.85v-4.9h-3v4.9h3z" fill="#FFC107"/></g><defs><clipPath id="clip0"><path fill="#fff" transform="translate(.01 .92)" d="M0 0h320v288H0z"/></clipPath></defs></svg>