<svg width="321" height="289" fill="none" xmlns="http://www.w3.org/2000/svg"><g clip-path="url(#clip0)"><path fill="#FEE6C1" d="M32.02.69h256v256h-256z"/><path d="M32.02 224.7h32v32h-32v-32zM32.02 96.7h32v32h-32v-32zM32.02 160.7h32v32h-32v-32zM32.02 32.7h32v32h-32v-32zM64.02 192.7h32v32h-32v-32z" fill="#866C4A"/><path d="M64.02 64.7h32v32h-32v-32zM64.02 128.7h32v32h-32v-32zM64.02.7h32v32h-32V.7zM160.02 224.7h32v32h-32v-32zM160.02 96.7h32v32h-32v-32zM160.02 160.7h32v32h-32v-32zM160.02 32.7h32v32h-32v-32zM192.02 192.7h32v32h-32v-32zM192.02 64.7h32v32h-32v-32zM192.02 128.7h32v32h-32v-32zM192.02.7h32v32h-32V.7zM96.02 224.7h32v32h-32v-32z" fill="#866C4A"/><path d="M96.02 96.7h32v32h-32v-32zM96.02 160.7h32v32h-32v-32zM96.02 32.7h32v32h-32v-32zM128.02 192.7h32v32h-32v-32zM128.02 64.7h32v32h-32v-32zM128.02 128.7h32v32h-32v-32zM128.02.7h32v32h-32V.7zM224.02 224.7h32v32h-32v-32zM224.02 96.7h32v32h-32v-32zM224.02 160.7h32v32h-32v-32zM224.02 32.7h32v32h-32v-32zM256.02 192.7h32v32h-32v-32zM256.02 64.7h32v32h-32v-32zM256.02 128.7h32v32h-32v-32zM256.02.7h32v32h-32V.7z" fill="#866C4A"/><path d="M13.44 238.06v-2.55h4.44v11.68h-2.85v-9.13h-1.59zM12.07 213l.5-.4a58.94 58.94 0 002.46-2.13c.61-.55 1.12-1.13 1.54-1.74.42-.61.62-1.2.62-1.78 0-.44-.1-.78-.3-1.02-.2-.25-.5-.37-.91-.37-.4 0-.73.15-.96.46-.23.3-.34.73-.34 1.28h-2.64c.02-.9.21-1.66.58-2.27.37-.6.86-1.06 1.45-1.34.61-.3 1.28-.44 2.02-.44 1.27 0 2.22.33 2.86.98.65.65.98 1.5.98 2.55 0 1.14-.39 2.2-1.17 3.18-.78.97-1.77 1.92-2.97 2.85h4.32v2.22h-8.04V213zM12 174.8a3.51 3.51 0 011.11-2.63c.7-.62 1.66-.93 2.87-.93.8 0 1.48.14 2.04.41a2.96 2.96 0 011.75 2.76c0 .7-.18 1.28-.53 1.72-.35.44-.76.74-1.23.9v.06c.6.2 1.09.54 1.44 1.01.35.47.53 1.08.53 1.81 0 .66-.16 1.25-.47 1.76-.3.5-.74.9-1.33 1.19-.57.28-1.26.43-2.06.43a4.7 4.7 0 01-3.07-.95c-.76-.63-1.16-1.58-1.2-2.84h2.65c.01.47.15.84.4 1.12.26.26.63.4 1.12.4.42 0 .74-.12.96-.36.24-.24.36-.56.36-.96 0-.5-.17-.88-.5-1.1-.32-.23-.84-.35-1.55-.35h-.51v-2.23h.5c.55 0 .99-.09 1.32-.27.34-.2.51-.53.51-1 0-.4-.1-.69-.32-.9a1.2 1.2 0 00-.88-.32c-.4 0-.7.12-.91.37-.2.24-.3.54-.34.9H12zM11.39 149.11v-2.2l5.06-7.24h3.05v7.07h1.31v2.37h-1.3v2.08h-2.74v-2.08h-5.38zm5.57-6.43l-2.69 4.06h2.69v-4.06zM19.76 108.9h-5v2.2c.22-.23.52-.42.9-.57.39-.15.8-.23 1.25-.23.8 0 1.46.19 1.99.55.53.36.92.83 1.16 1.4.25.58.37 1.2.37 1.88 0 1.25-.35 2.24-1.05 2.97-.7.73-1.7 1.1-2.98 1.1a5.3 5.3 0 01-2.22-.44c-.63-.3-1.12-.71-1.46-1.23a3.54 3.54 0 01-.56-1.81h2.67c.07.33.22.6.47.83.24.22.58.32 1 .32.5 0 .88-.16 1.12-.48.25-.32.37-.75.37-1.28 0-.52-.13-.92-.38-1.2-.26-.28-.63-.41-1.12-.41-.36 0-.66.09-.9.27-.23.17-.39.4-.46.69h-2.64v-6.96h7.47v2.4zM17.42 77.66a1.6 1.6 0 00-.45-.88c-.21-.2-.51-.3-.9-.3-.62 0-1.05.27-1.32.8-.27.52-.4 1.35-.42 2.5a2.4 2.4 0 011.01-.88c.45-.22.94-.32 1.47-.32a3.3 3.3 0 012.52.99c.64.66.96 1.58.96 2.77 0 .77-.16 1.46-.48 2.04a3.3 3.3 0 01-1.38 1.38c-.6.33-1.3.5-2.13.5-1.64 0-2.78-.52-3.42-1.54-.64-1.04-.96-2.52-.96-4.45 0-2.03.33-3.53 1-4.51.69-1 1.78-1.49 3.27-1.49.8 0 1.47.16 2.02.48.55.31.97.72 1.24 1.23.3.52.46 1.08.52 1.68h-2.55zm-1.26 3.08c-.46 0-.84.13-1.15.41-.3.27-.45.65-.45 1.15 0 .52.14.92.41 1.2.3.3.7.44 1.22.44.47 0 .84-.14 1.1-.42.28-.29.42-.68.42-1.17 0-.5-.13-.9-.4-1.18-.27-.3-.65-.43-1.15-.43zM19.91 44.56l-4.01 9.63h-2.8l4.06-9.33H12.2v-2.33h7.72v2.03zM13.47 16.92c-1-.53-1.5-1.37-1.5-2.51a2.86 2.86 0 011.8-2.7c.61-.3 1.36-.44 2.25-.44.88 0 1.62.15 2.22.43.6.28 1.06.66 1.36 1.14.3.47.45 1 .45 1.57a2.83 2.83 0 01-1.5 2.51 3.06 3.06 0 011.8 2.85 3.37 3.37 0 01-2.16 3.21c-.65.3-1.37.44-2.17.44-.8 0-1.53-.15-2.2-.44a3.37 3.37 0 01-2.13-3.22 3.04 3.04 0 011.78-2.85zm3.92-2.1c0-.43-.13-.77-.38-1a1.34 1.34 0 00-1-.37c-.41 0-.75.12-1 .37-.25.24-.37.58-.37 1.02 0 .42.13.75.38 1 .26.23.6.34 1 .34s.73-.12.99-.36c.25-.25.38-.58.38-1zm-1.37 3.28c-.5 0-.91.14-1.22.42-.3.27-.46.64-.46 1.12 0 .45.15.82.44 1.1.31.3.72.44 1.24.44.5 0 .9-.15 1.2-.44.3-.28.44-.65.44-1.1 0-.47-.15-.84-.46-1.12-.3-.28-.7-.42-1.18-.42zM273.1 269.67c1.03 0 1.85.34 2.47 1.02.62.67.93 1.6.93 2.79v5.21h-2.72v-4.85c0-.6-.15-1.06-.46-1.39-.31-.33-.73-.5-1.25-.5s-.94.17-1.25.5c-.3.33-.46.8-.46 1.4v4.84h-2.74v-11.84h2.74v4.11c.27-.4.65-.7 1.13-.94a3.64 3.64 0 011.62-.35zM238.97 269.63c.63 0 1.18.13 1.65.39.48.25.85.6 1.1 1v-1.26h2.74v8.92a4.9 4.9 0 01-.5 2.22c-.31.67-.81 1.2-1.48 1.6-.66.4-1.49.6-2.48.6-1.32 0-2.4-.32-3.22-.95a3.5 3.5 0 01-1.4-2.53h2.7c.08.34.29.6.6.8.33.2.72.3 1.19.3.56 0 1.01-.16 1.34-.5.34-.31.52-.83.52-1.55v-1.26a3.1 3.1 0 01-2.76 1.4 3.69 3.69 0 01-3.42-2.17 5.51 5.51 0 01-.51-2.43c0-.92.17-1.72.51-2.41a3.7 3.7 0 013.42-2.16zm2.76 4.6c0-.69-.2-1.22-.58-1.62-.37-.4-.83-.6-1.38-.6-.54 0-1 .2-1.39.6a2.2 2.2 0 00-.56 1.6c0 .68.19 1.23.56 1.63.39.4.85.6 1.4.6.54 0 1-.2 1.37-.6.38-.4.58-.93.58-1.61zM210.6 272.04h-1.46v6.65h-2.74v-6.65h-1v-2.28h1v-.25c0-1.1.31-1.93.94-2.5.63-.57 1.56-.86 2.77-.86l.45.01v2.32c-.52-.03-.89.05-1.1.23-.22.18-.32.5-.32.97v.08h1.47v2.28zM180.5 274.08c0 .26-.02.53-.05.8h-6.2c.05.56.23.99.54 1.28.32.3.7.44 1.16.44.69 0 1.16-.3 1.43-.87h2.91a3.93 3.93 0 01-.82 1.58c-.38.48-.87.84-1.45 1.1a4.7 4.7 0 01-1.97.4c-.88 0-1.65-.18-2.34-.55a3.97 3.97 0 01-1.6-1.6c-.38-.7-.57-1.5-.57-2.43 0-.93.19-1.74.56-2.44.38-.69.91-1.22 1.6-1.6a4.83 4.83 0 012.35-.56c.86 0 1.63.19 2.3.55.68.36 1.2.88 1.57 1.55.39.67.58 1.46.58 2.35zm-2.8-.72c0-.47-.16-.84-.48-1.12a1.77 1.77 0 00-1.2-.41c-.46 0-.85.13-1.17.4-.3.26-.5.64-.58 1.13h3.43zM139.04 274.21c0-.92.17-1.72.51-2.41a3.7 3.7 0 015.02-1.8c.5.25.88.58 1.16 1v-4.15h2.73v11.84h-2.73v-1.28c-.26.43-.63.77-1.1 1.02-.48.26-1.03.39-1.66.39a3.69 3.69 0 01-3.42-2.18 5.51 5.51 0 01-.51-2.43zm6.69.02c0-.69-.2-1.22-.58-1.62-.37-.4-.83-.6-1.38-.6-.54 0-1 .2-1.39.6a2.2 2.2 0 00-.56 1.6c0 .68.19 1.23.56 1.63.39.4.85.6 1.4.6.54 0 1-.2 1.37-.6.38-.4.58-.93.58-1.61zM107.62 274.23c0-.93.19-1.74.56-2.44.39-.69.92-1.22 1.59-1.6a4.79 4.79 0 012.33-.56c1.12 0 2.06.3 2.8.88a4.14 4.14 0 011.5 2.49h-2.92c-.25-.69-.72-1.03-1.42-1.03-.5 0-.9.2-1.2.6-.3.38-.45.93-.45 1.66 0 .72.15 1.28.45 1.68.3.38.7.57 1.2.57.7 0 1.17-.34 1.42-1.02h2.91a4.2 4.2 0 01-1.49 2.46c-.75.6-1.69.9-2.8.9-.87 0-1.65-.19-2.33-.56a4 4 0 01-1.59-1.6c-.37-.7-.56-1.5-.56-2.43zM78.32 271.03c.25-.42.62-.75 1.1-1.01a3.45 3.45 0 011.65-.38 3.7 3.7 0 013.4 2.16c.36.69.54 1.5.54 2.41 0 .92-.18 1.73-.53 2.43a3.7 3.7 0 01-3.4 2.18 3.5 3.5 0 01-1.66-.37c-.47-.25-.84-.6-1.1-1v1.24h-2.74v-11.84h2.74v4.18zm3.9 3.18c0-.68-.19-1.21-.57-1.6-.38-.4-.84-.6-1.4-.6-.54 0-1 .2-1.39.6-.37.4-.56.94-.56 1.62 0 .68.19 1.22.56 1.61.39.4.85.6 1.4.6.54 0 1-.2 1.39-.6.38-.4.57-.95.57-1.63zM43.04 274.21c0-.92.17-1.72.51-2.41a3.7 3.7 0 013.42-2.16c.63 0 1.18.12 1.65.38.48.25.85.6 1.1 1v-1.26h2.74v8.93h-2.73v-1.26c-.27.41-.64.75-1.12 1-.47.26-1.02.39-1.65.39-.73 0-1.39-.19-1.99-.56a4.05 4.05 0 01-1.42-1.62 5.5 5.5 0 01-.51-2.43zm6.69.02c0-.69-.2-1.22-.58-1.62-.37-.4-.83-.6-1.38-.6-.54 0-1 .2-1.39.6a2.2 2.2 0 00-.56 1.6c0 .68.19 1.23.56 1.63.39.4.85.6 1.4.6.54 0 1-.2 1.37-.6.38-.4.58-.93.58-1.61z" fill="#000"/><mask id="a" maskUnits="userSpaceOnUse" x="265.69" y="202.14" width="12" height="18" fill="#000"><path fill="#fff" d="M265.69 202.14h12v18h-12z"/><path fill-rule="evenodd" clip-rule="evenodd" d="M273.19 211.05a3.56 3.56 0 10-2.32 0c.02 2.85-1.49 6.42-4.18 6.42h10.66c-2.69 0-4.18-3.58-4.16-6.42z"/></mask><path fill-rule="evenodd" clip-rule="evenodd" d="M273.19 211.05a3.56 3.56 0 10-2.32 0c.02 2.85-1.49 6.42-4.18 6.42h10.66c-2.69 0-4.18-3.58-4.16-6.42z" fill="#fff"/><path d="M273.19 211.05l-.66-1.89-1.33.47-.01 1.41 2 .01zm-2.32 0l2-.01-.02-1.42-1.34-.46-.64 1.9zm2.7-3.36c0 .68-.43 1.26-1.04 1.47l1.31 3.78a5.56 5.56 0 003.73-5.25h-4zm-1.55-1.55c.86 0 1.55.7 1.55 1.55h4a5.55 5.55 0 00-5.55-5.55v4zm-1.56 1.55c0-.86.7-1.55 1.56-1.55v-4a5.56 5.56 0 00-5.56 5.55h4zm1.05 1.47a1.56 1.56 0 01-1.05-1.47h-4c0 2.44 1.58 4.5 3.76 5.26l1.3-3.79zm-4.82 10.3c2.35 0 3.95-1.57 4.85-3.14.9-1.59 1.34-3.55 1.32-5.28l-4 .03a6.83 6.83 0 01-.8 3.27c-.53.92-1.03 1.13-1.37 1.13v4zm10.66-4H266.7v4h10.66v-4zm-6.16-4.42c-.01 1.72.43 3.68 1.32 5.27.9 1.57 2.48 3.16 4.84 3.16v-4c-.33 0-.83-.2-1.36-1.13a6.96 6.96 0 01-.8-3.28l-4-.02z" fill="#000" mask="url(#a)"/><path d="M279.13 221.13h1V219.47a3 3 0 00-3-3h-10.22a3 3 0 00-3 3V221.13h15.22z" fill="#fff" stroke="#000" stroke-width="2"/><mask id="b" maskUnits="userSpaceOnUse" x="233.69" y="202.14" width="12" height="18" fill="#000"><path fill="#fff" d="M233.69 202.14h12v18h-12z"/><path fill-rule="evenodd" clip-rule="evenodd" d="M241.19 211.05a3.56 3.56 0 10-2.32 0c.02 2.85-1.49 6.42-4.18 6.42h10.66c-2.69 0-4.18-3.58-4.16-6.42z"/></mask><path fill-rule="evenodd" clip-rule="evenodd" d="M241.19 211.05a3.56 3.56 0 10-2.32 0c.02 2.85-1.49 6.42-4.18 6.42h10.66c-2.69 0-4.18-3.58-4.16-6.42z" fill="#fff"/><path d="M241.19 211.05l-.66-1.89-1.34.47v1.41l2 .01zm-2.32 0l2-.01-.02-1.42-1.34-.46-.64 1.9zm2.7-3.36c0 .68-.43 1.26-1.04 1.47l1.31 3.78a5.56 5.56 0 003.73-5.25h-4zm-1.55-1.55c.86 0 1.55.7 1.55 1.55h4a5.55 5.55 0 00-5.55-5.55v4zm-1.56 1.55c0-.86.7-1.55 1.56-1.55v-4a5.56 5.56 0 00-5.56 5.55h4zm1.05 1.47a1.56 1.56 0 01-1.05-1.47h-4c0 2.44 1.57 4.5 3.76 5.26l1.3-3.79zm-4.82 10.3c2.35 0 3.95-1.57 4.84-3.14.91-1.59 1.35-3.55 1.34-5.28l-4 .03a6.83 6.83 0 01-.81 3.27c-.53.92-1.03 1.13-1.37 1.13v4zm10.66-4H234.7v4h10.66v-4zm-6.16-4.42c-.01 1.72.43 3.68 1.32 5.27.9 1.57 2.48 3.16 4.84 3.16v-4c-.33 0-.83-.2-1.35-1.13a6.96 6.96 0 01-.81-3.28l-4-.02z" fill="#000" mask="url(#b)"/><path d="M247.13 221.13h1V219.47a3 3 0 00-3-3h-10.22a3 3 0 00-3 3V221.13h15.22z" fill="#fff" stroke="#000" stroke-width="2"/><mask id="c" maskUnits="userSpaceOnUse" x="201.69" y="202.14" width="12" height="18" fill="#000"><path fill="#fff" d="M201.69 202.14h12v18h-12z"/><path fill-rule="evenodd" clip-rule="evenodd" d="M209.19 211.05a3.56 3.56 0 10-2.32 0c.02 2.85-1.49 6.42-4.18 6.42h10.66c-2.69 0-4.18-3.58-4.16-6.42z"/></mask><path fill-rule="evenodd" clip-rule="evenodd" d="M209.19 211.05a3.56 3.56 0 10-2.32 0c.02 2.85-1.49 6.42-4.18 6.42h10.66c-2.69 0-4.18-3.58-4.16-6.42z" fill="#fff"/><path d="M209.19 211.05l-.66-1.89-1.34.47v1.41l2 .01zm-2.32 0l2-.01-.02-1.42-1.34-.46-.64 1.9zm2.7-3.36c0 .68-.43 1.26-1.04 1.47l1.31 3.78a5.56 5.56 0 003.73-5.25h-4zm-1.55-1.55c.86 0 1.55.7 1.55 1.55h4a5.55 5.55 0 00-5.55-5.55v4zm-1.56 1.55c0-.86.7-1.55 1.56-1.55v-4a5.56 5.56 0 00-5.56 5.55h4zm1.05 1.47a1.56 1.56 0 01-1.05-1.47h-4c0 2.44 1.57 4.5 3.76 5.26l1.3-3.79zm-4.82 10.3c2.35 0 3.95-1.57 4.84-3.14.91-1.59 1.35-3.55 1.34-5.28l-4 .03a6.83 6.83 0 01-.81 3.27c-.53.92-1.03 1.13-1.37 1.13v4zm10.66-4H202.7v4h10.66v-4zm-6.16-4.42c-.01 1.72.43 3.68 1.32 5.27.9 1.57 2.48 3.16 4.84 3.16v-4c-.33 0-.83-.2-1.35-1.13a6.96 6.96 0 01-.81-3.28l-4-.02z" fill="#000" mask="url(#c)"/><path d="M215.13 221.13h1V219.47a3 3 0 00-3-3h-10.22a3 3 0 00-3 3V221.13h15.22z" fill="#fff" stroke="#000" stroke-width="2"/><mask id="d" maskUnits="userSpaceOnUse" x="169.69" y="170.14" width="12" height="18" fill="#000"><path fill="#fff" d="M169.69 170.14h12v18h-12z"/><path fill-rule="evenodd" clip-rule="evenodd" d="M177.19 179.05a3.56 3.56 0 10-2.32 0c.02 2.85-1.49 6.42-4.18 6.42h10.66c-2.69 0-4.18-3.58-4.16-6.42z"/></mask><path fill-rule="evenodd" clip-rule="evenodd" d="M177.19 179.05a3.56 3.56 0 10-2.32 0c.02 2.85-1.49 6.42-4.18 6.42h10.66c-2.69 0-4.18-3.58-4.16-6.42z" fill="#fff"/><path d="M177.19 179.05l-.66-1.89-1.34.47v1.41l2 .01zm-2.32 0l2-.01-.02-1.42-1.34-.46-.64 1.9zm2.7-3.36c0 .68-.43 1.26-1.04 1.47l1.31 3.78a5.56 5.56 0 003.73-5.25h-4zm-1.55-1.55c.86 0 1.55.7 1.55 1.55h4a5.55 5.55 0 00-5.55-5.55v4zm-1.56 1.55c0-.86.7-1.55 1.56-1.55v-4a5.56 5.56 0 00-5.56 5.55h4zm1.05 1.47a1.56 1.56 0 01-1.05-1.47h-4c0 2.44 1.57 4.5 3.76 5.26l1.3-3.79zm-4.82 10.3c2.35 0 3.95-1.57 4.84-3.14.91-1.59 1.35-3.55 1.34-5.28l-4 .03a6.83 6.83 0 01-.81 3.27c-.53.92-1.03 1.13-1.37 1.13v4zm10.66-4H170.7v4h10.66v-4zm-6.16-4.42c-.01 1.72.43 3.68 1.32 5.27.9 1.57 2.48 3.16 4.84 3.16v-4c-.33 0-.83-.2-1.35-1.13a6.96 6.96 0 01-.81-3.28l-4-.02z" fill="#000" mask="url(#d)"/><path d="M183.13 189.13h1V187.47a3 3 0 00-3-3h-10.22a3 3 0 00-3 3V189.13h15.22z" fill="#fff" stroke="#000" stroke-width="2"/><mask id="e" maskUnits="userSpaceOnUse" x="137.69" y="138.14" width="12" height="18" fill="#000"><path fill="#fff" d="M137.69 138.14h12v18h-12z"/><path fill-rule="evenodd" clip-rule="evenodd" d="M145.19 147.05a3.56 3.56 0 10-2.32 0c.02 2.85-1.49 6.42-4.18 6.42h10.66c-2.69 0-4.18-3.58-4.16-6.42z"/></mask><path fill-rule="evenodd" clip-rule="evenodd" d="M145.19 147.05a3.56 3.56 0 10-2.32 0c.02 2.85-1.49 6.42-4.18 6.42h10.66c-2.69 0-4.18-3.58-4.16-6.42z" fill="#fff"/><path d="M145.19 147.05l-.66-1.89-1.34.47v1.41l2 .01zm-2.32 0l2-.01-.02-1.42-1.34-.46-.64 1.9zm2.7-3.36c0 .68-.43 1.26-1.04 1.47l1.31 3.78a5.56 5.56 0 003.73-5.25h-4zm-1.55-1.55c.86 0 1.55.7 1.55 1.55h4a5.55 5.55 0 00-5.55-5.55v4zm-1.56 1.55c0-.86.7-1.55 1.56-1.55v-4a5.56 5.56 0 00-5.56 5.55h4zm1.05 1.47a1.56 1.56 0 01-1.05-1.47h-4c0 2.44 1.57 4.5 3.76 5.26l1.3-3.79zm-4.82 10.3c2.35 0 3.95-1.57 4.84-3.14.91-1.59 1.35-3.55 1.34-5.28l-4 .03a6.83 6.83 0 01-.81 3.27c-.53.92-1.03 1.13-1.37 1.13v4zm10.66-4H138.7v4h10.66v-4zm-6.16-4.42c-.01 1.72.43 3.68 1.32 5.27.9 1.57 2.48 3.16 4.84 3.16v-4c-.33 0-.83-.2-1.35-1.13a6.96 6.96 0 01-.81-3.28l-4-.02z" fill="#000" mask="url(#e)"/><path d="M151.13 157.13h1V155.47a3 3 0 00-3-3h-10.22a3 3 0 00-3 3V157.13h15.22z" fill="#fff" stroke="#000" stroke-width="2"/><mask id="f" maskUnits="userSpaceOnUse" x="73.69" y="202.14" width="12" height="18" fill="#000"><path fill="#fff" d="M73.69 202.14h12v18h-12z"/><path fill-rule="evenodd" clip-rule="evenodd" d="M81.19 211.05a3.56 3.56 0 10-2.33 0c.03 2.85-1.48 6.42-4.17 6.42h10.66c-2.69 0-4.18-3.58-4.16-6.42z"/></mask><path fill-rule="evenodd" clip-rule="evenodd" d="M81.19 211.05a3.56 3.56 0 10-2.33 0c.03 2.85-1.48 6.42-4.17 6.42h10.66c-2.69 0-4.18-3.58-4.16-6.42z" fill="#fff"/><path d="M81.19 211.05l-.66-1.89-1.34.47v1.41l2 .01zm-2.33 0l2-.01v-1.42l-1.35-.46-.65 1.9zm2.71-3.36c0 .68-.43 1.26-1.04 1.47l1.31 3.78a5.56 5.56 0 003.73-5.25h-4zm-1.55-1.55c.86 0 1.55.7 1.55 1.55h4a5.56 5.56 0 00-5.55-5.55v4zm-1.56 1.55c0-.86.7-1.55 1.56-1.55v-4a5.56 5.56 0 00-5.56 5.55h4zm1.05 1.47a1.56 1.56 0 01-1.05-1.47h-4c0 2.44 1.58 4.5 3.76 5.26l1.3-3.79zm-4.82 10.3c2.35 0 3.95-1.57 4.84-3.14.91-1.59 1.35-3.55 1.33-5.28l-4 .03a6.83 6.83 0 01-.8 3.27c-.53.92-1.03 1.13-1.37 1.13v4zm10.66-4H74.7v4h10.66v-4zm-6.16-4.42c-.01 1.72.43 3.68 1.32 5.27.9 1.57 2.48 3.16 4.84 3.16v-4c-.33 0-.83-.2-1.35-1.13a6.96 6.96 0 01-.81-3.28l-4-.02z" fill="#000" mask="url(#f)"/><path d="M87.13 221.13h1V219.47a3 3 0 00-3-3H74.91a3 3 0 00-3 3V221.13h15.22z" fill="#fff" stroke="#000" stroke-width="2"/><mask id="g" maskUnits="userSpaceOnUse" x="41.69" y="202.14" width="12" height="18" fill="#000"><path fill="#fff" d="M41.69 202.14h12v18h-12z"/><path fill-rule="evenodd" clip-rule="evenodd" d="M49.19 211.05a3.56 3.56 0 10-2.33 0c.03 2.85-1.48 6.42-4.17 6.42h10.66c-2.69 0-4.18-3.58-4.16-6.42z"/></mask><path fill-rule="evenodd" clip-rule="evenodd" d="M49.19 211.05a3.56 3.56 0 10-2.33 0c.03 2.85-1.48 6.42-4.17 6.42h10.66c-2.69 0-4.18-3.58-4.16-6.42z" fill="#fff"/><path d="M49.19 211.05l-.66-1.89-1.34.47v1.41l2 .01zm-2.33 0l2-.01v-1.42l-1.35-.46-.65 1.9zm2.71-3.36c0 .68-.43 1.26-1.04 1.47l1.31 3.78a5.56 5.56 0 003.73-5.25h-4zm-1.55-1.55c.86 0 1.55.7 1.55 1.55h4a5.56 5.56 0 00-5.55-5.55v4zm-1.56 1.55c0-.86.7-1.55 1.56-1.55v-4a5.56 5.56 0 00-5.56 5.55h4zm1.05 1.47a1.56 1.56 0 01-1.05-1.47h-4c0 2.44 1.58 4.5 3.76 5.26l1.3-3.79zm-4.82 10.3c2.35 0 3.95-1.57 4.84-3.14.91-1.59 1.35-3.55 1.33-5.28l-4 .03a6.83 6.83 0 01-.8 3.27c-.53.92-1.03 1.13-1.37 1.13v4zm10.66-4H42.7v4h10.66v-4zm-6.16-4.42c-.01 1.72.43 3.68 1.32 5.27.9 1.57 2.48 3.16 4.84 3.16v-4c-.33 0-.83-.2-1.35-1.13a6.96 6.96 0 01-.81-3.28l-4-.02z" fill="#000" mask="url(#g)"/><path d="M55.13 221.13h1V219.47a3 3 0 00-3-3H42.91a3 3 0 00-3 3V221.13h15.22z" fill="#fff" stroke="#000" stroke-width="2"/><mask id="h" maskUnits="userSpaceOnUse" x="41.69" y="42.14" width="12" height="18" fill="#000"><path fill="#fff" d="M41.69 42.14h12v18h-12z"/><path fill-rule="evenodd" clip-rule="evenodd" d="M49.19 51.05a3.56 3.56 0 10-2.33 0c.03 2.85-1.48 6.42-4.17 6.42h10.66c-2.69 0-4.18-3.58-4.16-6.42z"/></mask><path fill-rule="evenodd" clip-rule="evenodd" d="M49.19 51.05a3.56 3.56 0 10-2.33 0c.03 2.85-1.48 6.42-4.17 6.42h10.66c-2.69 0-4.18-3.58-4.16-6.42z" fill="#5C5C5C"/><path d="M49.19 51.05l-.66-1.89-1.34.47v1.41l2 .01zm-2.33 0l2-.01v-1.42l-1.35-.46-.65 1.9zm2.71-3.36c0 .68-.43 1.26-1.04 1.47l1.31 3.78a5.56 5.56 0 003.73-5.25h-4zm-1.55-1.55c.86 0 1.55.7 1.55 1.55h4a5.56 5.56 0 00-5.55-5.55v4zm-1.56 1.55c0-.86.7-1.55 1.56-1.55v-4a5.56 5.56 0 00-5.56 5.55h4zm1.05 1.47a1.56 1.56 0 01-1.05-1.47h-4c0 2.44 1.58 4.5 3.76 5.26l1.3-3.79zm-4.82 10.3c2.35 0 3.95-1.57 4.84-3.14.91-1.59 1.35-3.55 1.33-5.28l-4 .03a6.83 6.83 0 01-.8 3.27c-.53.92-1.03 1.13-1.37 1.13v4zm10.66-4H42.7v4h10.66v-4zm-6.16-4.42c-.01 1.72.43 3.68 1.32 5.27.9 1.57 2.48 3.16 4.84 3.16v-4c-.33 0-.83-.2-1.35-1.13a6.96 6.96 0 01-.81-3.28l-4-.02z" fill="#000" mask="url(#h)"/><path d="M55.13 61.14h1v-1.67a3 3 0 00-3-3H42.91a3 3 0 00-3 3v1.67h15.22z" fill="#5C5C5C" stroke="#000" stroke-width="2"/><mask id="i" maskUnits="userSpaceOnUse" x="73.69" y="42.14" width="12" height="18" fill="#000"><path fill="#fff" d="M73.69 42.14h12v18h-12z"/><path fill-rule="evenodd" clip-rule="evenodd" d="M81.19 51.05a3.56 3.56 0 10-2.33 0c.03 2.85-1.48 6.42-4.17 6.42h10.66c-2.69 0-4.18-3.58-4.16-6.42z"/></mask><path fill-rule="evenodd" clip-rule="evenodd" d="M81.19 51.05a3.56 3.56 0 10-2.33 0c.03 2.85-1.48 6.42-4.17 6.42h10.66c-2.69 0-4.18-3.58-4.16-6.42z" fill="#5C5C5C"/><path d="M81.19 51.05l-.66-1.89-1.34.47v1.41l2 .01zm-2.33 0l2-.01v-1.42l-1.35-.46-.65 1.9zm2.71-3.36c0 .68-.43 1.26-1.04 1.47l1.31 3.78a5.56 5.56 0 003.73-5.25h-4zm-1.55-1.55c.86 0 1.55.7 1.55 1.55h4a5.56 5.56 0 00-5.55-5.55v4zm-1.56 1.55c0-.86.7-1.55 1.56-1.55v-4a5.56 5.56 0 00-5.56 5.55h4zm1.05 1.47a1.56 1.56 0 01-1.05-1.47h-4c0 2.44 1.58 4.5 3.76 5.26l1.3-3.79zm-4.82 10.3c2.35 0 3.95-1.57 4.84-3.14.91-1.59 1.35-3.55 1.33-5.28l-4 .03a6.83 6.83 0 01-.8 3.27c-.53.92-1.03 1.13-1.37 1.13v4zm10.66-4H74.7v4h10.66v-4zm-6.16-4.42c-.01 1.72.43 3.68 1.32 5.27.9 1.57 2.48 3.16 4.84 3.16v-4c-.33 0-.83-.2-1.35-1.13a6.96 6.96 0 01-.81-3.28l-4-.02z" fill="#000" mask="url(#i)"/><path d="M87.13 61.14h1v-1.67a3 3 0 00-3-3H74.91a3 3 0 00-3 3v1.67h15.22z" fill="#5C5C5C" stroke="#000" stroke-width="2"/><mask id="j" maskUnits="userSpaceOnUse" x="105.69" y="74.14" width="12" height="18" fill="#000"><path fill="#fff" d="M105.69 74.14h12v18h-12z"/><path fill-rule="evenodd" clip-rule="evenodd" d="M113.19 83.05a3.56 3.56 0 10-2.33 0c.03 2.85-1.48 6.42-4.17 6.42h10.66c-2.69 0-4.18-3.58-4.16-6.42z"/></mask><path fill-rule="evenodd" clip-rule="evenodd" d="M113.19 83.05a3.56 3.56 0 10-2.33 0c.03 2.85-1.48 6.42-4.17 6.42h10.66c-2.69 0-4.18-3.58-4.16-6.42z" fill="#5C5C5C"/><path d="M113.19 83.05l-.66-1.89-1.34.47v1.41l2 .01zm-2.33 0l2-.01v-1.42l-1.35-.46-.65 1.9zm2.71-3.36c0 .68-.43 1.26-1.04 1.47l1.31 3.78a5.56 5.56 0 003.73-5.25h-4zm-1.55-1.55c.86 0 1.55.7 1.55 1.55h4a5.56 5.56 0 00-5.55-5.55v4zm-1.56 1.55c0-.86.7-1.55 1.56-1.55v-4a5.56 5.56 0 00-5.56 5.55h4zm1.05 1.47a1.56 1.56 0 01-1.05-1.47h-4c0 2.44 1.58 4.5 3.76 5.26l1.3-3.79zm-4.82 10.3c2.35 0 3.95-1.57 4.84-3.14.91-1.59 1.35-3.55 1.33-5.28l-4 .03a6.83 6.83 0 01-.8 3.27c-.53.92-1.03 1.13-1.37 1.13v4zm10.66-4H106.7v4h10.66v-4zm-6.16-4.42c-.01 1.72.42 3.68 1.32 5.27.9 1.57 2.48 3.16 4.84 3.16v-4c-.33 0-.83-.2-1.35-1.13a6.96 6.96 0 01-.81-3.28l-4-.02z" fill="#000" mask="url(#j)"/><path d="M119.13 93.14h1v-1.67a3 3 0 00-3-3h-10.22a3 3 0 00-3 3v1.67h15.22z" fill="#5C5C5C" stroke="#000" stroke-width="2"/><mask id="k" maskUnits="userSpaceOnUse" x="137.69" y="106.14" width="12" height="18" fill="#000"><path fill="#fff" d="M137.69 106.14h12v18h-12z"/><path fill-rule="evenodd" clip-rule="evenodd" d="M145.19 115.05a3.56 3.56 0 10-2.32 0c.02 2.85-1.49 6.42-4.18 6.42h10.66c-2.69 0-4.18-3.58-4.16-6.42z"/></mask><path fill-rule="evenodd" clip-rule="evenodd" d="M145.19 115.05a3.56 3.56 0 10-2.32 0c.02 2.85-1.49 6.42-4.18 6.42h10.66c-2.69 0-4.18-3.58-4.16-6.42z" fill="#5C5C5C"/><path d="M145.19 115.05l-.66-1.89-1.34.47v1.41l2 .01zm-2.32 0l2-.01-.02-1.42-1.34-.46-.64 1.9zm2.7-3.36c0 .68-.43 1.26-1.04 1.47l1.31 3.78a5.56 5.56 0 003.73-5.25h-4zm-1.55-1.55c.86 0 1.55.7 1.55 1.55h4a5.55 5.55 0 00-5.55-5.55v4zm-1.56 1.55c0-.86.7-1.55 1.56-1.55v-4a5.56 5.56 0 00-5.56 5.55h4zm1.05 1.47a1.56 1.56 0 01-1.05-1.47h-4c0 2.44 1.57 4.5 3.76 5.26l1.3-3.79zm-4.82 10.3c2.35 0 3.95-1.57 4.84-3.14.91-1.59 1.35-3.55 1.34-5.28l-4 .03a6.83 6.83 0 01-.81 3.27c-.53.92-1.03 1.13-1.37 1.13v4zm10.66-4H138.7v4h10.66v-4zm-6.16-4.42c-.01 1.72.43 3.68 1.32 5.27.9 1.57 2.48 3.16 4.84 3.16v-4c-.33 0-.83-.2-1.35-1.13a6.96 6.96 0 01-.81-3.28l-4-.02z" fill="#000" mask="url(#k)"/><path d="M151.13 125.14h1v-1.67a3 3 0 00-3-3h-10.22a3 3 0 00-3 3v1.67h15.22z" fill="#5C5C5C" stroke="#000" stroke-width="2"/><mask id="l" maskUnits="userSpaceOnUse" x="201.69" y="42.14" width="12" height="18" fill="#000"><path fill="#fff" d="M201.69 42.14h12v18h-12z"/><path fill-rule="evenodd" clip-rule="evenodd" d="M209.19 51.05a3.56 3.56 0 10-2.32 0c.02 2.85-1.49 6.42-4.18 6.42h10.66c-2.69 0-4.18-3.58-4.16-6.42z"/></mask><path fill-rule="evenodd" clip-rule="evenodd" d="M209.19 51.05a3.56 3.56 0 10-2.32 0c.02 2.85-1.49 6.42-4.18 6.42h10.66c-2.69 0-4.18-3.58-4.16-6.42z" fill="#5C5C5C"/><path d="M209.19 51.05l-.66-1.89-1.34.47v1.41l2 .01zm-2.32 0l2-.01-.02-1.42-1.34-.46-.64 1.9zm2.7-3.36c0 .68-.43 1.26-1.04 1.47l1.31 3.78a5.56 5.56 0 003.73-5.25h-4zm-1.55-1.55c.86 0 1.55.7 1.55 1.55h4a5.56 5.56 0 00-5.55-5.55v4zm-1.56 1.55c0-.86.7-1.55 1.56-1.55v-4a5.56 5.56 0 00-5.56 5.55h4zm1.05 1.47a1.56 1.56 0 01-1.05-1.47h-4c0 2.44 1.57 4.5 3.76 5.26l1.3-3.79zm-4.82 10.3c2.35 0 3.95-1.57 4.84-3.14.91-1.59 1.35-3.55 1.34-5.28l-4 .03a6.83 6.83 0 01-.81 3.27c-.53.92-1.03 1.13-1.37 1.13v4zm10.66-4H202.7v4h10.66v-4zm-6.16-4.42c-.01 1.72.43 3.68 1.32 5.27.9 1.57 2.48 3.16 4.84 3.16v-4c-.33 0-.83-.2-1.35-1.13a6.96 6.96 0 01-.81-3.28l-4-.02z" fill="#000" mask="url(#l)"/><path d="M215.13 61.14h1v-1.67a3 3 0 00-3-3h-10.22a3 3 0 00-3 3v1.67h15.22z" fill="#5C5C5C" stroke="#000" stroke-width="2"/><mask id="m" maskUnits="userSpaceOnUse" x="233.69" y="42.14" width="12" height="18" fill="#000"><path fill="#fff" d="M233.69 42.14h12v18h-12z"/><path fill-rule="evenodd" clip-rule="evenodd" d="M241.19 51.05a3.56 3.56 0 10-2.32 0c.02 2.85-1.49 6.42-4.18 6.42h10.66c-2.69 0-4.18-3.58-4.16-6.42z"/></mask><path fill-rule="evenodd" clip-rule="evenodd" d="M241.19 51.05a3.56 3.56 0 10-2.32 0c.02 2.85-1.49 6.42-4.18 6.42h10.66c-2.69 0-4.18-3.58-4.16-6.42z" fill="#5C5C5C"/><path d="M241.19 51.05l-.66-1.89-1.34.47v1.41l2 .01zm-2.32 0l2-.01-.02-1.42-1.34-.46-.64 1.9zm2.7-3.36c0 .68-.43 1.26-1.04 1.47l1.31 3.78a5.56 5.56 0 003.73-5.25h-4zm-1.55-1.55c.86 0 1.55.7 1.55 1.55h4a5.56 5.56 0 00-5.55-5.55v4zm-1.56 1.55c0-.86.7-1.55 1.56-1.55v-4a5.56 5.56 0 00-5.56 5.55h4zm1.05 1.47a1.56 1.56 0 01-1.05-1.47h-4c0 2.44 1.57 4.5 3.76 5.26l1.3-3.79zm-4.82 10.3c2.35 0 3.95-1.57 4.84-3.14.91-1.59 1.35-3.55 1.34-5.28l-4 .03a6.83 6.83 0 01-.81 3.27c-.53.92-1.03 1.13-1.37 1.13v4zm10.66-4H234.7v4h10.66v-4zm-6.16-4.42c-.01 1.72.43 3.68 1.32 5.27.9 1.57 2.48 3.16 4.84 3.16v-4c-.33 0-.83-.2-1.35-1.13a6.96 6.96 0 01-.81-3.28l-4-.02z" fill="#000" mask="url(#m)"/><path d="M247.13 61.14h1v-1.67a3 3 0 00-3-3h-10.22a3 3 0 00-3 3v1.67h15.22z" fill="#5C5C5C" stroke="#000" stroke-width="2"/><mask id="n" maskUnits="userSpaceOnUse" x="265.69" y="42.14" width="12" height="18" fill="#000"><path fill="#fff" d="M265.69 42.14h12v18h-12z"/><path fill-rule="evenodd" clip-rule="evenodd" d="M273.19 51.05a3.56 3.56 0 10-2.32 0c.02 2.85-1.49 6.42-4.18 6.42h10.66c-2.69 0-4.18-3.58-4.16-6.42z"/></mask><path fill-rule="evenodd" clip-rule="evenodd" d="M273.19 51.05a3.56 3.56 0 10-2.32 0c.02 2.85-1.49 6.42-4.18 6.42h10.66c-2.69 0-4.18-3.58-4.16-6.42z" fill="#5C5C5C"/><path d="M273.19 51.05l-.66-1.89-1.33.47-.01 1.41 2 .01zm-2.32 0l2-.01-.02-1.42-1.34-.46-.64 1.9zm2.7-3.36c0 .68-.43 1.26-1.04 1.47l1.31 3.78a5.56 5.56 0 003.73-5.25h-4zm-1.55-1.55c.86 0 1.55.7 1.55 1.55h4a5.56 5.56 0 00-5.55-5.55v4zm-1.56 1.55c0-.86.7-1.55 1.56-1.55v-4a5.56 5.56 0 00-5.56 5.55h4zm1.05 1.47a1.56 1.56 0 01-1.05-1.47h-4c0 2.44 1.58 4.5 3.76 5.26l1.3-3.79zm-4.82 10.3c2.35 0 3.95-1.57 4.85-3.14.9-1.59 1.34-3.55 1.32-5.28l-4 .03a6.83 6.83 0 01-.8 3.27c-.53.92-1.03 1.13-1.37 1.13v4zm10.66-4H266.7v4h10.66v-4zm-6.16-4.42c-.01 1.72.43 3.68 1.32 5.27.9 1.57 2.48 3.16 4.84 3.16v-4c-.33 0-.83-.2-1.36-1.13a6.96 6.96 0 01-.8-3.28l-4-.02z" fill="#000" mask="url(#n)"/><path d="M279.13 61.14h1v-1.67a3 3 0 00-3-3h-10.22a3 3 0 00-3 3v1.67h15.22z" fill="#5C5C5C" stroke="#000" stroke-width="2"/><path d="M207.31 209.4l-2.99-11.16-8.16 8.17 11.15 2.99zm-64-64l3 11.15 8.16-8.16-11.16-3zm60.71 59.3l-3.64-3.64-1.41 1.4 3.63 3.65 1.42-1.42zm-5.82-5.83l-3.63-3.63-1.42 1.41 3.64 3.64 1.41-1.42zm-5.82-5.81l-3.63-3.64-1.42 1.41 3.64 3.64 1.41-1.41zm-5.81-5.82l-3.64-3.64-1.42 1.41 3.64 3.64 1.41-1.41zm-5.82-5.82l-3.64-3.64-1.41 1.42 3.63 3.63 1.42-1.41zm-5.82-5.82l-3.64-3.64-1.41 1.42 3.63 3.63 1.42-1.41zm-5.82-5.82l-3.64-3.63-1.41 1.41 3.64 3.64 1.41-1.42zm-5.82-5.82l-3.63-3.63-1.42 1.41 3.64 3.64 1.41-1.42zm-5.82-5.81l-3.63-3.64-1.42 1.41 3.64 3.64 1.41-1.41zm-5.81-5.82l-3.64-3.64-1.42 1.42 3.64 3.63 1.42-1.41zM143.31 113.4l-2.99-11.16-8.16 8.17 11.15 2.99zm-64-64l3 11.15 8.16-8.16-11.16-3zm60.71 59.3l-3.64-3.64-1.41 1.4 3.63 3.65 1.42-1.42zm-5.82-5.83l-3.63-3.63-1.42 1.41 3.64 3.64 1.41-1.42zm-5.82-5.81l-3.63-3.64-1.42 1.41 3.64 3.64 1.41-1.41zm-5.81-5.82l-3.64-3.64-1.42 1.41 3.64 3.64 1.41-1.41zm-5.82-5.82l-3.64-3.64-1.41 1.42 3.63 3.63 1.42-1.41zm-5.82-5.82l-3.64-3.64-1.41 1.42L109.5 81l1.42-1.41zm-5.82-5.82l-3.64-3.63-1.41 1.41 3.64 3.64 1.41-1.42zm-5.82-5.82l-3.63-3.63-1.42 1.41 3.64 3.64 1.41-1.42zm-5.82-5.81l-3.63-3.64-1.42 1.41 3.64 3.64 1.41-1.41zm-5.81-5.82l-3.64-3.64-1.41 1.42 3.63 3.63 1.42-1.41z" fill="#FFC107" mask="url(#)"/></g><defs><clipPath id="clip0"><path fill="#fff" transform="translate(.02 .7)" d="M0 0h320v288H0z"/></clipPath></defs></svg>