<svg width="32" height="32" fill="none" xmlns="http://www.w3.org/2000/svg"><mask id="a" maskUnits="userSpaceOnUse" x="9.67" y="9.44" width="12" height="18" fill="#000"><path fill="#fff" d="M9.67 9.44h12v18h-12z"/><path fill-rule="evenodd" clip-rule="evenodd" d="M17.17 18.36a3.56 3.56 0 10-2.32 0c.02 2.85-1.48 6.42-4.18 6.42h10.66c-2.69 0-4.18-3.59-4.16-6.42z"/></mask><path fill-rule="evenodd" clip-rule="evenodd" d="M17.17 18.36a3.56 3.56 0 10-2.32 0c.02 2.85-1.48 6.42-4.18 6.42h10.66c-2.69 0-4.18-3.59-4.16-6.42z" fill="#fff"/><path d="M17.17 18.36l-.66-1.89-1.33.46-.01 1.42h2zm-2.32 0l2-.01-.02-1.42-1.34-.46-.64 1.9zm2.7-3.36c0 .68-.43 1.26-1.04 1.47l1.32 3.78A5.56 5.56 0 0021.56 15h-4zM16 13.44c.86 0 1.56.7 1.56 1.56h4A5.56 5.56 0 0016 9.44v4zM14.44 15c0-.86.7-1.56 1.56-1.56v-4A5.56 5.56 0 0010.44 15h4zm1.05 1.47A1.56 1.56 0 0114.44 15h-4c0 2.44 1.58 4.5 3.76 5.26l1.3-3.79zm-4.82 10.3c2.35 0 3.95-1.57 4.85-3.14.9-1.59 1.34-3.55 1.33-5.28l-4 .03a6.83 6.83 0 01-.81 3.27c-.53.92-1.03 1.13-1.37 1.13v4zm10.66-4H10.67v4h10.66v-4zm-6.16-4.42c-.01 1.72.43 3.68 1.32 5.27.9 1.57 2.48 3.16 4.84 3.16v-4c-.33 0-.83-.2-1.35-1.13a6.96 6.96 0 01-.81-3.28l-4-.02z" fill="#000" mask="url(#a)"/><path d="M23.11 28.44h1V26.78a3 3 0 00-3-3H10.9a3 3 0 00-3 3V28.44H23.1z" fill="#fff" stroke="#000" stroke-width="2"/></svg>