<svg width="32" height="32" fill="none" xmlns="http://www.w3.org/2000/svg"><path fill-rule="evenodd" clip-rule="evenodd" d="M18.857 6.407c0 .945-.426 1.786-1.09 2.329l1.789 7.153 3.884-3.656a3.037 3.037 0 01-.329-1.381c0-1.637 1.28-2.963 2.857-2.963 1.578 0 2.857 1.326 2.857 2.963 0 1.636-1.279 2.963-2.857 2.963a2.81 2.81 0 01-.189-.006l-2.668 10.08H8.89L6.22 13.809c-1.488-.103-2.664-1.388-2.664-2.957 0-1.637 1.279-2.963 2.857-2.963 1.578 0 2.857 1.326 2.857 2.963 0 .596-.17 1.15-.461 1.615l3.636 3.422 1.788-7.153a2.998 2.998 0 01-1.09-2.329c0-1.636 1.28-2.963 2.857-2.963 1.578 0 2.857 1.327 2.857 2.963z" fill="#fff"/><path d="M17.767 8.736l-.633-.775-.49.402.153.615.97-.242zm1.789 7.153l-.97.242.413 1.655 1.242-1.169-.685-.728zm3.884-3.656l.685.728.546-.514-.34-.667-.891.453zm2.34 1.575l.067-.997-.823-.056-.211.798.966.255zm-2.669 10.08v1h.77l.197-.743-.967-.256zm-14.222 0l-.967.257.197.744h.77v-1zM6.22 13.809l.967-.256-.183-.692-.715-.05-.069.998zm2.589-1.341l-.847-.532-.438.696.6.564.685-.728zm3.636 3.422l-.686.728 1.242 1.169.414-1.655-.97-.242zm1.788-7.153l.97.242.154-.615-.491-.402-.633.775zm4.167.774a3.998 3.998 0 001.457-3.103h-2c0 .64-.287 1.199-.723 1.554L18.4 9.51zm2.126 6.136l-1.789-7.153-1.94.485 1.788 7.153 1.94-.485zm2.229-4.141L18.87 15.16l1.37 1.456 3.885-3.656-1.37-1.456zm-.644-.653c0 .659.157 1.284.438 1.835l1.782-.907a2.037 2.037 0 01-.22-.928h-2zm3.857-3.963c-2.164 0-3.857 1.809-3.857 3.963h2c0-1.119.866-1.963 1.857-1.963v-2zm3.857 3.963c0-2.154-1.693-3.963-3.857-3.963v2c.992 0 1.857.844 1.857 1.963h2zm-3.857 3.963c2.164 0 3.857-1.809 3.857-3.963h-2c0 1.119-.865 1.963-1.857 1.963v2zm-.256-.009c.085.006.17.009.256.009v-2c-.04 0-.081-.002-.121-.004l-.135 1.995zm-1.634 9.339l2.668-10.08-1.933-.512-2.669 10.08 1.934.512zm-15.19.744h14.223v-2H8.89v2zM5.255 14.064l2.668 10.08 1.934-.511-2.669-10.08-1.933.511zm1.035-1.253c-.937-.065-1.733-.888-1.733-1.96h-2c0 2.068 1.556 3.814 3.596 3.955l.137-1.995zm-1.733-1.96c0-1.118.865-1.962 1.857-1.962v-2c-2.165 0-3.857 1.809-3.857 3.963h2zM6.413 8.89c.991 0 1.857.844 1.857 1.963h2c0-2.154-1.693-3.963-3.857-3.963v2zm1.857 1.963c0 .404-.115.775-.308 1.083l1.693 1.064c.39-.621.615-1.36.615-2.147h-2zm4.86 4.309l-3.636-3.422-1.37 1.456 3.635 3.422 1.37-1.456zm.133-6.668l-1.789 7.153 1.94.485 1.789-7.153-1.94-.485zm-1.12-2.086c0 1.25.565 2.374 1.457 3.103l1.266-1.549a1.999 1.999 0 01-.723-1.554h-2zM16 2.444c-2.164 0-3.857 1.81-3.857 3.963h2c0-1.118.865-1.963 1.857-1.963v-2zm3.857 3.963c0-2.154-1.693-3.963-3.857-3.963v2c.992 0 1.857.845 1.857 1.963h2z" fill="#000"/><path d="M25.778 28.445h1v-2.556a3 3 0 00-3-3H8.222a3 3 0 00-3 3v2.556h20.556z" fill="#fff" stroke="#000" stroke-width="2"/></svg>