<svg width="321" height="289" fill="none" xmlns="http://www.w3.org/2000/svg"><g clip-path="url(#clip0)"><path fill="#FEE6C1" d="M32.1.92h256v256h-256z"/><path d="M32.1 224.92h32v32h-32v-32zM32.1 96.92h32v32h-32v-32zM32.1 160.92h32v32h-32v-32zM32.1 32.92h32v32h-32v-32zM64.1 192.92h32v32h-32v-32zM64.1 64.92h32v32h-32v-32zM64.1 128.92h32v32h-32v-32zM64.1.92h32v32h-32v-32zM160.1 224.92h32v32h-32v-32zM160.1 96.92h32v32h-32v-32zM160.1 160.92h32v32h-32v-32zM160.1 32.92h32v32h-32v-32zM192.1 192.92h32v32h-32v-32zM192.1 64.92h32v32h-32v-32zM192.1 128.92h32v32h-32v-32zM192.1.92h32v32h-32v-32zM96.1 224.92h32v32h-32v-32zM96.1 96.92h32v32h-32v-32zM96.1 160.92h32v32h-32v-32zM96.1 32.92h32v32h-32v-32zM128.1 192.92h32v32h-32v-32zM128.1 64.92h32v32h-32v-32zM128.1 128.92h32v32h-32v-32zM128.1.92h32v32h-32v-32zM224.1 224.92h32v32h-32v-32zM224.1 96.92h32v32h-32v-32zM224.1 160.92h32v32h-32v-32zM224.1 32.92h32v32h-32v-32zM256.1 192.92h32v32h-32v-32zM256.1 64.92h32v32h-32v-32zM256.1 128.92h32v32h-32v-32zM256.1.92h32v32h-32v-32z" fill="#866C4A"/><path d="M13.52 238.28v-2.54h4.43v11.68h-2.84v-9.13h-1.59zM12.15 213.23l.5-.4a58.94 58.94 0 002.46-2.13c.6-.55 1.12-1.13 1.54-1.74.41-.61.62-1.2.62-1.78 0-.44-.1-.78-.3-1.02-.2-.25-.5-.37-.91-.37-.41 0-.73.15-.96.46-.23.3-.34.73-.34 1.28h-2.64c.02-.9.21-1.66.58-2.27.37-.6.85-1.05 1.45-1.34.6-.3 1.28-.43 2.02-.43 1.27 0 2.22.32 2.86.97.65.65.98 1.5.98 2.54 0 1.15-.4 2.2-1.17 3.19-.78.97-1.77 1.92-2.98 2.85h4.32v2.22h-8.03v-2.03zM12.07 175.04a3.52 3.52 0 011.12-2.64c.7-.62 1.66-.93 2.86-.93.8 0 1.49.14 2.05.41a2.96 2.96 0 011.75 2.76c0 .7-.18 1.28-.53 1.73-.35.43-.76.73-1.23.9v.05c.6.2 1.08.54 1.44 1.01.35.47.52 1.07.52 1.81a3.07 3.07 0 01-1.8 2.94c-.56.3-1.25.44-2.05.44a4.7 4.7 0 01-3.07-.95c-.76-.63-1.16-1.57-1.2-2.84h2.65c.01.47.15.84.4 1.12.26.26.63.4 1.12.4.42 0 .74-.12.96-.36.24-.24.35-.56.35-.96 0-.5-.16-.88-.5-1.1-.31-.24-.83-.35-1.54-.35h-.52v-2.23h.52c.54 0 .98-.09 1.3-.27.35-.2.52-.53.52-1 0-.4-.1-.69-.32-.9a1.2 1.2 0 00-.88-.32c-.4 0-.7.12-.91.37-.2.24-.3.55-.34.9h-2.67zM11.47 149.34v-2.2l5.05-7.24h3.06v7.07h1.31v2.37h-1.31v2.08h-2.74v-2.08h-5.37zm5.57-6.43l-2.7 4.06h2.7v-4.06zM19.84 109.13h-5v2.2c.22-.23.52-.42.9-.57.39-.15.8-.23 1.25-.23.8 0 1.46.19 1.98.55.54.36.93.83 1.17 1.4.25.58.37 1.2.37 1.88 0 1.25-.35 2.24-1.06 2.97-.7.73-1.7 1.1-2.97 1.1a5.3 5.3 0 01-2.23-.44c-.62-.3-1.11-.71-1.45-1.23a3.54 3.54 0 01-.56-1.81h2.67c.06.33.22.6.46.83.25.22.59.32 1.01.32.5 0 .88-.16 1.12-.48.25-.32.37-.75.37-1.28 0-.52-.13-.92-.38-1.2-.26-.28-.63-.42-1.12-.42-.37 0-.66.1-.9.28-.23.17-.39.4-.46.69h-2.64v-6.97h7.47v2.4zM17.5 77.9a1.6 1.6 0 00-.45-.89c-.21-.2-.52-.3-.91-.3-.6 0-1.05.27-1.31.8-.27.52-.4 1.35-.42 2.5a2.4 2.4 0 011.01-.88c.45-.22.94-.32 1.47-.32a3.3 3.3 0 012.51.99c.64.66.96 1.58.96 2.77 0 .77-.16 1.46-.48 2.04A3.3 3.3 0 0118.51 86c-.6.33-1.3.5-2.13.5-1.64 0-2.78-.52-3.42-1.54-.64-1.04-.96-2.52-.96-4.45 0-2.03.33-3.53 1-4.51.69-1 1.77-1.49 3.27-1.49.8 0 1.47.16 2.01.48.56.31.97.72 1.25 1.23.29.52.46 1.08.51 1.68H17.5zm-1.26 3.07c-.46 0-.85.13-1.16.41-.3.27-.44.65-.44 1.15 0 .52.13.92.41 1.2.29.3.7.44 1.22.44.47 0 .84-.14 1.1-.42.28-.29.42-.68.42-1.17 0-.5-.14-.9-.4-1.18-.27-.3-.65-.43-1.15-.43zM20 44.79l-4.02 9.63h-2.8l4.06-9.33h-4.98v-2.33H20v2.03zM13.55 17.15c-1-.53-1.5-1.37-1.5-2.51a2.86 2.86 0 011.8-2.7c.61-.3 1.36-.44 2.24-.44.89 0 1.63.15 2.23.43.6.28 1.06.66 1.36 1.14.3.47.45 1 .45 1.57a2.7 2.7 0 01-.42 1.5c-.27.43-.63.76-1.09 1a3.06 3.06 0 011.8 2.85 3.37 3.37 0 01-2.15 3.22c-.65.3-1.38.44-2.18.44-.8 0-1.53-.15-2.19-.44A3.37 3.37 0 0111.77 20a3.04 3.04 0 011.78-2.85zm3.92-2.1c0-.43-.13-.77-.38-1a1.34 1.34 0 00-1-.37c-.41 0-.75.12-1 .37-.25.24-.37.58-.37 1.02 0 .42.13.75.38 1 .26.23.59.34 1 .34.4 0 .73-.12.99-.36.25-.25.38-.58.38-1zm-1.38 3.28c-.5 0-.9.14-1.21.42-.31.27-.47.64-.47 1.12 0 .45.15.82.45 1.1.31.3.72.44 1.23.44.52 0 .92-.15 1.2-.44.3-.28.45-.65.45-1.1 0-.47-.15-.84-.46-1.12-.3-.28-.7-.42-1.19-.42zM273.19 269.9c1.02 0 1.84.34 2.46 1.02.62.67.93 1.6.93 2.78v5.22h-2.72v-4.85c0-.6-.16-1.06-.47-1.39-.3-.33-.72-.5-1.24-.5-.53 0-.94.17-1.25.5-.31.33-.46.8-.46 1.4v4.84h-2.74v-11.84h2.74v4.11c.27-.4.65-.7 1.13-.94a3.64 3.64 0 011.62-.35zM239.05 269.87c.63 0 1.18.12 1.65.38.48.25.85.6 1.1 1V270h2.74v8.91a4.9 4.9 0 01-.5 2.23c-.32.67-.81 1.2-1.48 1.6-.66.4-1.5.6-2.48.6-1.33 0-2.4-.32-3.22-.95a3.5 3.5 0 01-1.4-2.53h2.7c.08.34.28.6.6.8.32.2.72.3 1.19.3.56 0 1.01-.16 1.34-.5.34-.31.51-.83.51-1.55v-1.26a3.1 3.1 0 01-2.75 1.4 3.69 3.69 0 01-3.42-2.17 5.51 5.51 0 01-.51-2.43c0-.92.17-1.72.5-2.42.36-.69.84-1.22 1.43-1.6a3.7 3.7 0 012-.56zm2.75 4.59c0-.69-.19-1.22-.57-1.62-.38-.4-.83-.6-1.38-.6-.54 0-1 .2-1.39.6a2.2 2.2 0 00-.56 1.6c0 .68.19 1.23.56 1.63.38.4.85.6 1.4.6.54 0 1-.2 1.37-.6.38-.4.57-.93.57-1.61zM210.69 272.26h-1.47v6.66h-2.74v-6.66h-1V270h1v-.25c0-1.1.31-1.93.94-2.5.63-.57 1.56-.86 2.77-.86l.45.01v2.32c-.52-.03-.9.05-1.1.23-.22.18-.32.5-.32.97v.08h1.47v2.27zM180.58 274.31c0 .26-.02.53-.05.8h-6.2c.05.56.22.99.53 1.28.32.3.71.44 1.17.44.69 0 1.16-.3 1.43-.87h2.9a3.93 3.93 0 01-.8 1.59c-.4.46-.88.83-1.46 1.1a4.7 4.7 0 01-1.97.4c-.88 0-1.66-.19-2.34-.56a3.97 3.97 0 01-1.6-1.6c-.38-.7-.57-1.5-.57-2.43 0-.93.18-1.74.56-2.44.38-.69.91-1.22 1.6-1.6a4.83 4.83 0 012.35-.56c.86 0 1.63.19 2.3.55.67.36 1.2.88 1.57 1.55.38.67.58 1.46.58 2.35zm-2.8-.72c0-.47-.16-.84-.48-1.12a1.77 1.77 0 00-1.2-.41c-.46 0-.85.13-1.17.4-.31.26-.5.64-.58 1.13h3.43zM139.12 274.44c0-.92.17-1.72.5-2.42.36-.69.84-1.22 1.43-1.6a3.7 3.7 0 013.6-.19c.5.25.88.58 1.15 1v-4.15h2.74v11.84h-2.74v-1.28c-.25.43-.62.77-1.1 1.03-.47.25-1.02.38-1.65.38a3.69 3.69 0 01-3.42-2.18 5.51 5.51 0 01-.51-2.43zm6.68.02c0-.69-.19-1.22-.57-1.62-.38-.4-.83-.6-1.38-.6-.54 0-1 .2-1.39.6a2.2 2.2 0 00-.56 1.6c0 .68.19 1.23.56 1.63.38.4.85.6 1.4.6.54 0 1-.2 1.37-.6.38-.4.57-.93.57-1.61zM107.7 274.46c0-.93.19-1.74.56-2.44.39-.69.91-1.22 1.59-1.6a4.8 4.8 0 012.33-.56c1.12 0 2.05.3 2.8.88a4.14 4.14 0 011.49 2.49h-2.91c-.25-.69-.72-1.03-1.43-1.03-.5 0-.9.2-1.2.6-.3.38-.44.93-.44 1.66 0 .72.15 1.28.44 1.68.3.38.7.57 1.2.57.7 0 1.18-.34 1.43-1.02h2.91a4.2 4.2 0 01-1.49 2.46c-.76.6-1.69.9-2.8.9-.87 0-1.65-.19-2.33-.56a4 4 0 01-1.59-1.6c-.37-.7-.56-1.5-.56-2.43zM78.4 271.26c.25-.42.62-.75 1.1-1.01a3.45 3.45 0 011.65-.38 3.7 3.7 0 013.4 2.15c.36.7.53 1.5.53 2.42 0 .92-.17 1.73-.52 2.43a3.7 3.7 0 01-3.4 2.18 3.5 3.5 0 01-1.66-.37c-.47-.25-.84-.6-1.1-1v1.24h-2.74v-11.84h2.74v4.18zm3.9 3.18c0-.68-.2-1.21-.58-1.6-.37-.4-.83-.6-1.39-.6-.54 0-1 .2-1.39.6-.37.4-.56.94-.56 1.62 0 .68.19 1.22.56 1.61.38.4.85.6 1.4.6.54 0 1-.2 1.38-.6.39-.4.58-.95.58-1.63zM43.12 274.44c0-.92.17-1.72.5-2.42.36-.69.83-1.22 1.43-1.6a3.7 3.7 0 012-.56c.63 0 1.18.13 1.65.39.48.25.85.6 1.1 1V270h2.74v8.93H49.8v-1.26c-.26.41-.64.75-1.12 1-.47.26-1.01.39-1.64.39-.73 0-1.4-.19-1.99-.56a4.05 4.05 0 01-1.42-1.62 5.5 5.5 0 01-.51-2.43zm6.68.02c0-.69-.19-1.22-.57-1.62-.38-.4-.83-.6-1.38-.6-.54 0-1 .2-1.39.6a2.2 2.2 0 00-.56 1.6c0 .68.19 1.23.56 1.63.38.4.85.6 1.4.6.54 0 1-.2 1.37-.6.38-.4.57-.93.57-1.61z" fill="#000"/><mask id="a" maskUnits="userSpaceOnUse" x="162.94" y="225.48" width="26" height="26" fill="#000"><path fill="#fff" d="M162.94 225.48h26v26h-26z"/><path fill-rule="evenodd" clip-rule="evenodd" d="M183.2 248.81l2.94-7.98a2 2 0 00-1.02-2.5c-3.56-1.68-5.72-2.62-8.1-2.82v-3.59h2.79v-1.78h-2.78v-2.66h-1.86v2.66h-2.78v1.78h2.78v3.6c-2.38.19-4.53 1.13-8.1 2.81a2 2 0 00-1.01 2.5l2.93 7.98h14.22zm-8.88-10.72c-1.13.2-2.39.56-4.04 1.1a1.99 1.99 0 00-1.16 2.78l1.64 3.28h3.56v-7.16zm7.6 1.1c-1.66-.54-2.92-.9-4.04-1.1v7.16h3.55l1.64-3.28a2 2 0 00-1.15-2.78z"/></mask><path fill-rule="evenodd" clip-rule="evenodd" d="M183.2 248.81l2.94-7.98a2 2 0 00-1.02-2.5c-3.56-1.68-5.72-2.62-8.1-2.82v-3.59h2.79v-1.78h-2.78v-2.66h-1.86v2.66h-2.78v1.78h2.78v3.6c-2.38.19-4.53 1.13-8.1 2.81a2 2 0 00-1.01 2.5l2.93 7.98h14.22zm-8.88-10.72c-1.13.2-2.39.56-4.04 1.1a1.99 1.99 0 00-1.16 2.78l1.64 3.28h3.56v-7.16zm7.6 1.1c-1.66-.54-2.92-.9-4.04-1.1v7.16h3.55l1.64-3.28a2 2 0 00-1.15-2.78z" fill="#fff"/><path d="M175.25 236.51c.57-.04 1.13-.04 1.7 0l.16-2c-.68-.05-1.35-.05-2.02 0l.16 2zm10.89 4.32l1.87.68-1.87-.68zm-2.93 7.98v2h1.4l.48-1.31-1.88-.69zm1.9-10.48l.86-1.8-.85 1.8zm-8.09-2.82h-2v1.85l1.84.15.16-2zm0-3.59v-2h-2v2h2zm2.79 0v2h2v-2h-2zm0-1.78h2v-2h-2v2zm-2.78 0h-2v2h2v-2zm0-2.66h2v-2h-2v2zm-1.86 0v-2h-2v2h2zm0 2.66v2h2v-2h-2zm-2.78 0v-2h-2v2h2zm0 1.78h-2v2h2v-2zm2.78 0h2v-2h-2v2zm0 3.6l.16 1.99 1.84-.15v-1.85h-2zm-8.1 2.81l.86 1.8-.85-1.8zm-1.01 2.5l1.88-.7-1.88.7zm2.93 7.98l-1.88.69.48 1.31h1.4v-2zm1.29-9.62l-.63-1.9.63 1.9zm4.04-1.1h2v-2.37l-2.34.4.34 1.97zm-5.2 3.88l1.8-.89-1.8.9zm1.64 3.28l-1.78.9.55 1.1h1.23v-2zm3.56 0v2h2v-2h-2zm3.56-7.16l.33-1.97-2.34-.4v2.37h2zm4.04 1.1l-.62 1.9.62-1.9zm-4.04 6.06h-2v2h2v-2zm3.55 0v2h1.24l.55-1.1-1.79-.9zm1.64-3.28l1.79.9-1.79-.9zm1.19-1.83l-2.93 7.98 3.76 1.38 2.92-7.99-3.75-1.37zm0 0l3.75 1.37a4 4 0 00-2.04-4.99l-1.71 3.62zm-7.4-2.63c1.96.16 3.79.92 7.4 2.63l1.71-3.62c-3.5-1.65-5.98-2.77-8.78-3l-.33 3.99zm-1.84-5.59v3.6h4v-3.6h-4zm4.79-2h-2.78v4h2.78v-4zm-2 .22v1.78h4v-1.78h-4zm-.78 2h2.78v-4h-2.78v4zm-2-4.66v2.66h4v-2.66h-4zm.14 2h1.86v-4h-1.86v4zm2 .66v-2.66h-4v2.66h4zm-4.78 2h2.78v-4h-2.78v4zm2-.22v-1.78h-4v1.78h4zm.78-2h-2.78v4h2.78v-4zm2 5.6v-3.6h-4v3.6h4zm-9.24 4.62c3.61-1.71 5.44-2.47 7.4-2.63l-.32-3.99c-2.8.23-5.29 1.35-8.79 3l1.71 3.62zm0 0l-1.7-3.62a4 4 0 00-2.05 5l3.76-1.38zm2.93 7.98l-2.92-7.98-3.76 1.37 2.93 7.99 3.75-1.38zm12.35-1.31h-14.22v4h14.22v-4zm-12.31-5.72c1.64-.53 2.79-.86 3.76-1.03l-.68-3.94c-1.28.22-2.66.63-4.32 1.17l1.24 3.8zm.01-.01v.01h-.01l-1.25-3.8a4 4 0 00-2.32 5.58l3.58-1.79zm1.64 3.28l-1.64-3.28-3.58 1.79 1.64 3.28 3.58-1.79zm1.77-1.1h-3.56v4h3.56v-4zm-2-5.17v7.16h4v-7.16h-4zm5.22 1.97c.97.17 2.11.5 3.76 1.03l1.24-3.8a31.32 31.32 0 00-4.33-1.17l-.67 3.94zm2.34 5.2v-7.17h-4v7.16h4zm1.55-2h-3.56v4h3.56v-4zm-.15-2.18l-1.64 3.28 3.58 1.79 1.64-3.28-3.58-1.79zm.02.01h-.02s0-.01 0 0v-.01l3.58 1.79a3.99 3.99 0 00-2.32-5.58l-1.24 3.8z" fill="#000" mask="url(#a)"/><path d="M185.88 253.37h1v-2.56a3 3 0 00-3-3h-15.56a3 3 0 00-3 3v2.56h20.56z" fill="#fff" stroke="#000" stroke-width="2"/><mask id="b" maskUnits="userSpaceOnUse" x="162.94" y="2.48" width="26" height="26" fill="#000"><path fill="#fff" d="M162.94 2.48h26v26h-26z"/><path fill-rule="evenodd" clip-rule="evenodd" d="M183.2 25.81l2.94-7.98a2 2 0 00-1.02-2.5c-3.56-1.68-5.72-2.62-8.1-2.81v-3.6h2.79V7.14h-2.78V4.48h-1.86v2.66h-2.78v1.78h2.78v3.6c-2.38.19-4.53 1.13-8.1 2.81a2 2 0 00-1.01 2.5l2.93 7.98h14.22zm-8.88-10.72c-1.13.2-2.39.56-4.04 1.1a1.99 1.99 0 00-1.16 2.78l1.64 3.28h3.56V15.1zm7.6 1.1c-1.66-.54-2.92-.9-4.04-1.1v7.16h3.55l1.64-3.28c.54-1.08 0-2.4-1.15-2.78z"/></mask><path fill-rule="evenodd" clip-rule="evenodd" d="M183.2 25.81l2.94-7.98a2 2 0 00-1.02-2.5c-3.56-1.68-5.72-2.62-8.1-2.81v-3.6h2.79V7.14h-2.78V4.48h-1.86v2.66h-2.78v1.78h2.78v3.6c-2.38.19-4.53 1.13-8.1 2.81a2 2 0 00-1.01 2.5l2.93 7.98h14.22zm-8.88-10.72c-1.13.2-2.39.56-4.04 1.1a1.99 1.99 0 00-1.16 2.78l1.64 3.28h3.56V15.1zm7.6 1.1c-1.66-.54-2.92-.9-4.04-1.1v7.16h3.55l1.64-3.28c.54-1.08 0-2.4-1.15-2.78z" fill="#5C5C5C"/><path d="M175.25 13.51c.57-.04 1.13-.04 1.7 0l.16-2c-.68-.05-1.35-.05-2.02 0l.16 2zm10.89 4.32l1.87.68-1.87-.68zm-2.93 7.98v2h1.4l.48-1.31-1.88-.69zm1.9-10.48l.86-1.8-.85 1.8zm-8.09-2.81h-2v1.84l1.84.15.16-2zm0-3.6v-2h-2v2h2zm2.79 0v2h2v-2h-2zm0-1.78h2v-2h-2v2zm-2.78 0h-2v2h2v-2zm0-2.66h2v-2h-2v2zm-1.86 0v-2h-2v2h2zm0 2.66v2h2v-2h-2zm-2.78 0v-2h-2v2h2zm0 1.78h-2v2h2v-2zm2.78 0h2v-2h-2v2zm0 3.6l.16 1.99 1.84-.15v-1.84h-2zm-8.1 2.81l.86 1.8-.85-1.8zm-1.01 2.5l1.88-.7-1.88.7zm2.93 7.98l-1.88.69.48 1.31h1.4v-2zm1.29-9.62l-.63-1.9.63 1.9zm4.04-1.1h2v-2.37l-2.34.4.34 1.97zm-5.2 3.88l1.8-.89-1.8.9zm1.64 3.28l-1.78.9.55 1.1h1.23v-2zm3.56 0v2h2v-2h-2zm3.56-7.16l.33-1.97-2.34-.4v2.37h2zm4.04 1.1l.62-1.9-.62 1.9zm-4.04 6.06h-2v2h2v-2zm3.55 0v2h1.24l.55-1.1-1.79-.9zm1.64-3.28l1.79.9-1.79-.9zm1.19-1.83l-2.93 7.98 3.76 1.38L188 18.5l-3.75-1.37zm0 0L188 18.5a4 4 0 00-2.04-4.99l-1.71 3.62zm-7.4-2.63c1.96.16 3.79.92 7.4 2.63l1.71-3.62c-3.5-1.65-5.98-2.77-8.78-3l-.33 3.99zm-1.84-5.59v3.6h4v-3.6h-4zm4.79-2h-2.78v4h2.78v-4zm-2 .22v1.78h4V7.14h-4zm-.78 2h2.78v-4h-2.78v4zm-2-4.66v2.66h4V4.48h-4zm.14 2h1.86v-4h-1.86v4zm2 .66V4.48h-4v2.66h4zm-4.78 2h2.78v-4h-2.78v4zm2-.22V7.14h-4v1.78h4zm.78-2h-2.78v4h2.78v-4zm2 5.6v-3.6h-4v3.6h4zm-9.24 4.62c3.61-1.71 5.44-2.47 7.4-2.63l-.32-3.99c-2.8.23-5.29 1.35-8.79 3l1.71 3.62zm0 0l-1.7-3.62a4 4 0 00-2.05 5l3.76-1.38zm2.93 7.98l-2.92-7.98-3.76 1.37 2.93 7.99 3.75-1.38zm12.35-1.31h-14.22v4h14.22v-4zm-12.31-5.72c1.64-.53 2.79-.86 3.76-1.03l-.68-3.94a31.3 31.3 0 00-4.32 1.17l1.24 3.8zm.01-.01v.01h-.01l-1.25-3.8a3.99 3.99 0 00-2.32 5.58l3.58-1.79zm1.64 3.28l-1.64-3.28-3.58 1.79 1.64 3.28 3.58-1.79zm1.77-1.1h-3.56v4h3.56v-4zm-2-5.17v7.16h4V15.1h-4zm5.22 1.97c.97.17 2.11.5 3.76 1.03l1.24-3.8a31.34 31.34 0 00-4.33-1.17l-.67 3.94zm2.34 5.2v-7.17h-4v7.16h4zm1.55-2h-3.56v4h3.56v-4zm-.15-2.18l-1.64 3.28 3.58 1.79 1.64-3.28-3.58-1.79zm.02.01h-.02s0-.01 0 0v-.01l3.58 1.79a3.99 3.99 0 00-2.32-5.58l-1.24 3.8z" fill="#000" mask="url(#b)"/><path d="M185.88 30.37h1V27.8a3 3 0 00-3-3h-15.56a3 3 0 00-3 3v2.56h20.56z" fill="#5C5C5C" stroke="#000" stroke-width="2"/><mask id="c" maskUnits="userSpaceOnUse" x="41.76" y="202.37" width="12" height="18" fill="#000"><path fill="#fff" d="M41.76 202.37h12v18h-12z"/><path fill-rule="evenodd" clip-rule="evenodd" d="M49.27 211.28a3.56 3.56 0 10-2.33 0c.03 2.85-1.48 6.42-4.18 6.42h10.67c-2.7 0-4.18-3.58-4.16-6.42z"/></mask><path fill-rule="evenodd" clip-rule="evenodd" d="M49.27 211.28a3.56 3.56 0 10-2.33 0c.03 2.85-1.48 6.42-4.18 6.42h10.67c-2.7 0-4.18-3.58-4.16-6.42z" fill="#fff"/><path d="M49.27 211.28l-.66-1.89-1.34.47v1.41l2 .01zm-2.33 0l2-.01-.01-1.42-1.34-.46-.65 1.9zm2.71-3.36c0 .68-.43 1.26-1.04 1.47l1.31 3.78a5.56 5.56 0 003.73-5.25h-4zm-1.55-1.55c.86 0 1.55.7 1.55 1.55h4a5.56 5.56 0 00-5.55-5.55v4zm-1.56 1.55c0-.86.7-1.55 1.56-1.55v-4a5.56 5.56 0 00-5.56 5.55h4zm1.05 1.47a1.56 1.56 0 01-1.05-1.47h-4c0 2.44 1.57 4.5 3.75 5.26l1.3-3.79zm-4.83 10.3c2.36 0 3.96-1.57 4.85-3.14.9-1.59 1.35-3.55 1.33-5.28l-4 .03a6.83 6.83 0 01-.8 3.27c-.53.92-1.03 1.13-1.38 1.13v4zm10.67-4H42.76v4h10.67v-4zm-6.16-4.42c-.01 1.72.42 3.68 1.32 5.27.89 1.57 2.48 3.16 4.84 3.16v-4c-.33 0-.83-.2-1.36-1.13a6.96 6.96 0 01-.8-3.28l-4-.02z" fill="#000" mask="url(#c)"/><path d="M55.2 221.37h1v-1.67a3 3 0 00-3-3H43a3 3 0 00-3 3v1.67H55.2z" fill="#fff" stroke="#000" stroke-width="2"/><mask id="d" maskUnits="userSpaceOnUse" x="41.76" y="106.37" width="12" height="18" fill="#000"><path fill="#fff" d="M41.76 106.37h12v18h-12z"/><path fill-rule="evenodd" clip-rule="evenodd" d="M49.27 115.28a3.56 3.56 0 10-2.33 0c.03 2.85-1.48 6.42-4.18 6.42h10.67c-2.7 0-4.18-3.58-4.16-6.42z"/></mask><path fill-rule="evenodd" clip-rule="evenodd" d="M49.27 115.28a3.56 3.56 0 10-2.33 0c.03 2.85-1.48 6.42-4.18 6.42h10.67c-2.7 0-4.18-3.58-4.16-6.42z" fill="#5C5C5C"/><path d="M49.27 115.28l-.66-1.89-1.34.47v1.41l2 .01zm-2.33 0l2-.01-.01-1.42-1.34-.46-.65 1.9zm2.71-3.36c0 .68-.43 1.26-1.04 1.47l1.31 3.78a5.56 5.56 0 003.73-5.25h-4zm-1.55-1.55c.86 0 1.55.7 1.55 1.55h4a5.56 5.56 0 00-5.55-5.55v4zm-1.56 1.55c0-.86.7-1.55 1.56-1.55v-4a5.56 5.56 0 00-5.56 5.55h4zm1.05 1.47a1.56 1.56 0 01-1.05-1.47h-4c0 2.44 1.57 4.5 3.75 5.26l1.3-3.79zm-4.83 10.3c2.36 0 3.96-1.57 4.85-3.14.9-1.59 1.35-3.55 1.33-5.28l-4 .03a6.83 6.83 0 01-.8 3.27c-.53.92-1.03 1.13-1.38 1.13v4zm10.67-4H42.76v4h10.67v-4zm-6.16-4.42c-.01 1.72.42 3.68 1.32 5.27.89 1.57 2.48 3.16 4.84 3.16v-4c-.33 0-.83-.2-1.36-1.13a6.96 6.96 0 01-.8-3.28l-4-.02z" fill="#000" mask="url(#d)"/><path d="M55.2 125.37h1v-1.67a3 3 0 00-3-3H43a3 3 0 00-3 3v1.67H55.2z" fill="#5C5C5C" stroke="#000" stroke-width="2"/><mask id="e" maskUnits="userSpaceOnUse" x="169.76" y="138.37" width="12" height="18" fill="#000"><path fill="#fff" d="M169.76 138.37h12v18h-12z"/><path fill-rule="evenodd" clip-rule="evenodd" d="M177.26 147.28a3.56 3.56 0 10-2.32 0c.03 2.85-1.48 6.42-4.18 6.42h10.67c-2.7 0-4.18-3.58-4.17-6.42z"/></mask><path fill-rule="evenodd" clip-rule="evenodd" d="M177.26 147.28a3.56 3.56 0 10-2.32 0c.03 2.85-1.48 6.42-4.18 6.42h10.67c-2.7 0-4.18-3.58-4.17-6.42z" fill="#fff"/><path d="M177.26 147.28l-.65-1.89-1.34.47v1.41l2 .01zm-2.32 0l2-.01-.01-1.42-1.34-.46-.65 1.9zm2.71-3.36c0 .68-.43 1.26-1.04 1.47l1.31 3.78a5.56 5.56 0 003.73-5.25h-4zm-1.55-1.55c.86 0 1.55.7 1.55 1.55h4a5.56 5.56 0 00-5.55-5.55v4zm-1.56 1.55c0-.86.7-1.55 1.56-1.55v-4a5.56 5.56 0 00-5.56 5.55h4zm1.05 1.47a1.56 1.56 0 01-1.05-1.47h-4c0 2.44 1.57 4.5 3.75 5.26l1.3-3.79zm-4.83 10.3c2.36 0 3.96-1.57 4.85-3.14.9-1.59 1.35-3.55 1.33-5.28l-4 .03a6.83 6.83 0 01-.8 3.27c-.53.92-1.03 1.13-1.38 1.13v4zm10.67-4h-10.67v4h10.67v-4zm-6.17-4.42c0 1.72.43 3.68 1.33 5.27.89 1.57 2.48 3.16 4.84 3.16v-4c-.33 0-.83-.2-1.36-1.13a6.95 6.95 0 01-.8-3.28l-4-.02z" fill="#000" mask="url(#e)"/><path d="M183.2 157.37h1v-1.67a3 3 0 00-3-3H171a3 3 0 00-3 3v1.67h15.22z" fill="#fff" stroke="#000" stroke-width="2"/><mask id="f" maskUnits="userSpaceOnUse" x="169.76" y="42.37" width="12" height="18" fill="#000"><path fill="#fff" d="M169.76 42.37h12v18h-12z"/><path fill-rule="evenodd" clip-rule="evenodd" d="M177.26 51.28a3.56 3.56 0 10-2.32 0c.03 2.85-1.48 6.42-4.18 6.42h10.67c-2.7 0-4.18-3.58-4.17-6.42z"/></mask><path fill-rule="evenodd" clip-rule="evenodd" d="M177.26 51.28a3.56 3.56 0 10-2.32 0c.03 2.85-1.48 6.42-4.18 6.42h10.67c-2.7 0-4.18-3.58-4.17-6.42z" fill="#5C5C5C"/><path d="M177.26 51.28l-.65-1.89-1.34.47v1.41l2 .01zm-2.32 0l2-.01-.01-1.42-1.34-.46-.65 1.9zm2.71-3.36c0 .68-.43 1.26-1.04 1.47l1.31 3.78a5.56 5.56 0 003.73-5.25h-4zm-1.55-1.55c.86 0 1.55.7 1.55 1.55h4a5.56 5.56 0 00-5.55-5.55v4zm-1.56 1.55c0-.86.7-1.55 1.56-1.55v-4a5.56 5.56 0 00-5.56 5.55h4zm1.05 1.47a1.56 1.56 0 01-1.05-1.47h-4c0 2.44 1.57 4.5 3.75 5.26l1.3-3.79zm-4.83 10.3c2.36 0 3.96-1.57 4.85-3.14.9-1.59 1.35-3.55 1.33-5.28l-4 .03a6.83 6.83 0 01-.8 3.27c-.53.92-1.03 1.13-1.38 1.13v4zm10.67-4h-10.67v4h10.67v-4zm-6.17-4.42c0 1.72.43 3.68 1.33 5.27.89 1.57 2.48 3.16 4.84 3.16v-4c-.33 0-.83-.2-1.36-1.13a6.95 6.95 0 01-.8-3.28l-4-.02z" fill="#000" mask="url(#f)"/><path d="M183.2 61.37h1V59.7a3 3 0 00-3-3H171a3 3 0 00-3 3v1.67h15.22z" fill="#5C5C5C" stroke="#000" stroke-width="2"/><mask id="g" maskUnits="userSpaceOnUse" x="73.76" y="202.37" width="12" height="18" fill="#000"><path fill="#fff" d="M73.76 202.37h12v18h-12z"/><path fill-rule="evenodd" clip-rule="evenodd" d="M81.27 211.28a3.56 3.56 0 10-2.33 0c.03 2.85-1.48 6.42-4.18 6.42h10.67c-2.7 0-4.18-3.58-4.16-6.42z"/></mask><path fill-rule="evenodd" clip-rule="evenodd" d="M81.27 211.28a3.56 3.56 0 10-2.33 0c.03 2.85-1.48 6.42-4.18 6.42h10.67c-2.7 0-4.18-3.58-4.16-6.42z" fill="#fff"/><path d="M81.27 211.28l-.66-1.89-1.34.47v1.41l2 .01zm-2.33 0l2-.01-.01-1.42-1.34-.46-.65 1.9zm2.71-3.36c0 .68-.43 1.26-1.04 1.47l1.31 3.78a5.56 5.56 0 003.73-5.25h-4zm-1.55-1.55c.86 0 1.55.7 1.55 1.55h4a5.56 5.56 0 00-5.55-5.55v4zm-1.56 1.55c0-.86.7-1.55 1.56-1.55v-4a5.56 5.56 0 00-5.56 5.55h4zm1.05 1.47a1.56 1.56 0 01-1.05-1.47h-4c0 2.44 1.57 4.5 3.75 5.26l1.3-3.79zm-4.83 10.3c2.36 0 3.96-1.57 4.85-3.14.9-1.59 1.35-3.55 1.33-5.28l-4 .03a6.83 6.83 0 01-.8 3.27c-.53.92-1.03 1.13-1.38 1.13v4zm10.67-4H74.76v4h10.67v-4zm-6.16-4.42c-.01 1.72.42 3.68 1.32 5.27.89 1.57 2.48 3.16 4.84 3.16v-4c-.33 0-.83-.2-1.36-1.13a6.96 6.96 0 01-.8-3.28l-4-.02z" fill="#000" mask="url(#g)"/><path d="M87.2 221.37h1v-1.67a3 3 0 00-3-3H75a3 3 0 00-3 3v1.67H87.2z" fill="#fff" stroke="#000" stroke-width="2"/><mask id="h" maskUnits="userSpaceOnUse" x="73.76" y="74.37" width="12" height="18" fill="#000"><path fill="#fff" d="M73.76 74.37h12v18h-12z"/><path fill-rule="evenodd" clip-rule="evenodd" d="M81.27 83.28a3.56 3.56 0 10-2.33 0c.03 2.85-1.48 6.42-4.18 6.42h10.67c-2.7 0-4.18-3.58-4.16-6.42z"/></mask><path fill-rule="evenodd" clip-rule="evenodd" d="M81.27 83.28a3.56 3.56 0 10-2.33 0c.03 2.85-1.48 6.42-4.18 6.42h10.67c-2.7 0-4.18-3.58-4.16-6.42z" fill="#5C5C5C"/><path d="M81.27 83.28l-.66-1.89-1.34.47v1.41l2 .01zm-2.33 0l2-.01-.01-1.42-1.34-.46-.65 1.9zm2.71-3.36c0 .68-.43 1.26-1.04 1.47l1.31 3.78a5.56 5.56 0 003.73-5.25h-4zm-1.55-1.55c.86 0 1.55.7 1.55 1.55h4a5.56 5.56 0 00-5.55-5.55v4zm-1.56 1.55c0-.86.7-1.55 1.56-1.55v-4a5.56 5.56 0 00-5.56 5.55h4zm1.05 1.47a1.56 1.56 0 01-1.05-1.47h-4c0 2.44 1.57 4.5 3.75 5.26l1.3-3.79zm-4.83 10.3c2.36 0 3.96-1.57 4.85-3.14.9-1.59 1.35-3.55 1.33-5.28l-4 .03a6.83 6.83 0 01-.8 3.27c-.53.92-1.03 1.13-1.38 1.13v4zm10.67-4H74.76v4h10.67v-4zm-6.16-4.42c-.01 1.72.42 3.68 1.32 5.27.89 1.57 2.48 3.16 4.84 3.16v-4c-.33 0-.83-.2-1.36-1.13a6.96 6.96 0 01-.8-3.28l-4-.02z" fill="#000" mask="url(#h)"/><path d="M87.2 93.37h1V91.7a3 3 0 00-3-3H75a3 3 0 00-3 3v1.67H87.2z" fill="#5C5C5C" stroke="#000" stroke-width="2"/><mask id="i" maskUnits="userSpaceOnUse" x="201.76" y="202.37" width="12" height="18" fill="#000"><path fill="#fff" d="M201.76 202.37h12v18h-12z"/><path fill-rule="evenodd" clip-rule="evenodd" d="M209.26 211.28a3.56 3.56 0 10-2.32 0c.03 2.85-1.48 6.42-4.18 6.42h10.67c-2.7 0-4.18-3.58-4.17-6.42z"/></mask><path fill-rule="evenodd" clip-rule="evenodd" d="M209.26 211.28a3.56 3.56 0 10-2.32 0c.03 2.85-1.48 6.42-4.18 6.42h10.67c-2.7 0-4.18-3.58-4.17-6.42z" fill="#fff"/><path d="M209.26 211.28l-.65-1.89-1.34.47v1.41l2 .01zm-2.32 0l2-.01-.01-1.42-1.34-.46-.65 1.9zm2.71-3.36c0 .68-.43 1.26-1.04 1.47l1.31 3.78a5.56 5.56 0 003.73-5.25h-4zm-1.55-1.55c.86 0 1.55.7 1.55 1.55h4a5.56 5.56 0 00-5.55-5.55v4zm-1.56 1.55c0-.86.7-1.55 1.56-1.55v-4a5.56 5.56 0 00-5.56 5.55h4zm1.05 1.47a1.56 1.56 0 01-1.05-1.47h-4c0 2.44 1.57 4.5 3.75 5.26l1.3-3.79zm-4.83 10.3c2.36 0 3.96-1.57 4.85-3.14.9-1.59 1.35-3.55 1.33-5.28l-4 .03a6.83 6.83 0 01-.8 3.27c-.53.92-1.03 1.13-1.38 1.13v4zm10.67-4h-10.67v4h10.67v-4zm-6.17-4.42c0 1.72.43 3.68 1.33 5.27.89 1.57 2.48 3.16 4.84 3.16v-4c-.33 0-.83-.2-1.36-1.13a6.95 6.95 0 01-.8-3.28l-4-.02z" fill="#000" mask="url(#i)"/><path d="M215.2 221.37h1v-1.67a3 3 0 00-3-3H203a3 3 0 00-3 3v1.67h15.22z" fill="#fff" stroke="#000" stroke-width="2"/><mask id="j" maskUnits="userSpaceOnUse" x="201.76" y="42.37" width="12" height="18" fill="#000"><path fill="#fff" d="M201.76 42.37h12v18h-12z"/><path fill-rule="evenodd" clip-rule="evenodd" d="M209.26 51.28a3.56 3.56 0 10-2.32 0c.03 2.85-1.48 6.42-4.18 6.42h10.67c-2.7 0-4.18-3.58-4.17-6.42z"/></mask><path fill-rule="evenodd" clip-rule="evenodd" d="M209.26 51.28a3.56 3.56 0 10-2.32 0c.03 2.85-1.48 6.42-4.18 6.42h10.67c-2.7 0-4.18-3.58-4.17-6.42z" fill="#5C5C5C"/><path d="M209.26 51.28l-.65-1.89-1.34.47v1.41l2 .01zm-2.32 0l2-.01-.01-1.42-1.34-.46-.65 1.9zm2.71-3.36c0 .68-.43 1.26-1.04 1.47l1.31 3.78a5.56 5.56 0 003.73-5.25h-4zm-1.55-1.55c.86 0 1.55.7 1.55 1.55h4a5.56 5.56 0 00-5.55-5.55v4zm-1.56 1.55c0-.86.7-1.55 1.56-1.55v-4a5.56 5.56 0 00-5.56 5.55h4zm1.05 1.47a1.56 1.56 0 01-1.05-1.47h-4c0 2.44 1.57 4.5 3.75 5.26l1.3-3.79zm-4.83 10.3c2.36 0 3.96-1.57 4.85-3.14.9-1.59 1.35-3.55 1.33-5.28l-4 .03a6.83 6.83 0 01-.8 3.27c-.53.92-1.03 1.13-1.38 1.13v4zm10.67-4h-10.67v4h10.67v-4zm-6.17-4.42c0 1.72.43 3.68 1.33 5.27.89 1.57 2.48 3.16 4.84 3.16v-4c-.33 0-.83-.2-1.36-1.13a6.95 6.95 0 01-.8-3.28l-4-.02z" fill="#000" mask="url(#j)"/><path d="M215.2 61.37h1V59.7a3 3 0 00-3-3H203a3 3 0 00-3 3v1.67h15.22z" fill="#5C5C5C" stroke="#000" stroke-width="2"/><mask id="k" maskUnits="userSpaceOnUse" x="105.76" y="202.37" width="12" height="18" fill="#000"><path fill="#fff" d="M105.76 202.37h12v18h-12z"/><path fill-rule="evenodd" clip-rule="evenodd" d="M113.27 211.28a3.56 3.56 0 10-2.33 0c.03 2.85-1.48 6.42-4.18 6.42h10.67c-2.7 0-4.18-3.58-4.17-6.42z"/></mask><path fill-rule="evenodd" clip-rule="evenodd" d="M113.27 211.28a3.56 3.56 0 10-2.33 0c.03 2.85-1.48 6.42-4.18 6.42h10.67c-2.7 0-4.18-3.58-4.17-6.42z" fill="#fff"/><path d="M113.27 211.28l-.66-1.89-1.34.47v1.41l2 .01zm-2.33 0l2-.01-.01-1.42-1.34-.46-.65 1.9zm2.71-3.36c0 .68-.43 1.26-1.04 1.47l1.31 3.78a5.56 5.56 0 003.73-5.25h-4zm-1.55-1.55c.86 0 1.55.7 1.55 1.55h4a5.56 5.56 0 00-5.55-5.55v4zm-1.56 1.55c0-.86.7-1.55 1.56-1.55v-4a5.56 5.56 0 00-5.56 5.55h4zm1.05 1.47a1.56 1.56 0 01-1.05-1.47h-4c0 2.44 1.57 4.5 3.75 5.26l1.3-3.79zm-4.83 10.3c2.36 0 3.96-1.57 4.85-3.14.9-1.59 1.35-3.55 1.33-5.28l-4 .03a6.83 6.83 0 01-.8 3.27c-.53.92-1.03 1.13-1.38 1.13v4zm10.67-4h-10.67v4h10.67v-4zm-6.17-4.42c0 1.72.43 3.68 1.33 5.27.89 1.57 2.48 3.16 4.84 3.16v-4c-.33 0-.83-.2-1.36-1.13a6.95 6.95 0 01-.8-3.28l-4-.02z" fill="#000" mask="url(#k)"/><path d="M119.2 221.37h1v-1.67a3 3 0 00-3-3H107a3 3 0 00-3 3v1.67h15.22z" fill="#fff" stroke="#000" stroke-width="2"/><mask id="l" maskUnits="userSpaceOnUse" x="105.76" y="42.37" width="12" height="18" fill="#000"><path fill="#fff" d="M105.76 42.37h12v18h-12z"/><path fill-rule="evenodd" clip-rule="evenodd" d="M113.27 51.28a3.56 3.56 0 10-2.33 0c.03 2.85-1.48 6.42-4.18 6.42h10.67c-2.7 0-4.18-3.58-4.17-6.42z"/></mask><path fill-rule="evenodd" clip-rule="evenodd" d="M113.27 51.28a3.56 3.56 0 10-2.33 0c.03 2.85-1.48 6.42-4.18 6.42h10.67c-2.7 0-4.18-3.58-4.17-6.42z" fill="#5C5C5C"/><path d="M113.27 51.28l-.66-1.89-1.34.47v1.41l2 .01zm-2.33 0l2-.01-.01-1.42-1.34-.46-.65 1.9zm2.71-3.36c0 .68-.43 1.26-1.04 1.47l1.31 3.78a5.56 5.56 0 003.73-5.25h-4zm-1.55-1.55c.86 0 1.55.7 1.55 1.55h4a5.56 5.56 0 00-5.55-5.55v4zm-1.56 1.55c0-.86.7-1.55 1.56-1.55v-4a5.56 5.56 0 00-5.56 5.55h4zm1.05 1.47a1.56 1.56 0 01-1.05-1.47h-4c0 2.44 1.57 4.5 3.75 5.26l1.3-3.79zm-4.83 10.3c2.36 0 3.96-1.57 4.85-3.14.9-1.59 1.35-3.55 1.33-5.28l-4 .03a6.83 6.83 0 01-.8 3.27c-.53.92-1.03 1.13-1.38 1.13v4zm10.67-4h-10.67v4h10.67v-4zm-6.17-4.42c0 1.72.43 3.68 1.33 5.27.89 1.57 2.48 3.16 4.84 3.16v-4c-.33 0-.83-.2-1.36-1.13a6.95 6.95 0 01-.8-3.28l-4-.02z" fill="#000" mask="url(#l)"/><path d="M119.2 61.37h1V59.7a3 3 0 00-3-3H107a3 3 0 00-3 3v1.67h15.22z" fill="#5C5C5C" stroke="#000" stroke-width="2"/><mask id="m" maskUnits="userSpaceOnUse" x="233.76" y="202.37" width="12" height="18" fill="#000"><path fill="#fff" d="M233.76 202.37h12v18h-12z"/><path fill-rule="evenodd" clip-rule="evenodd" d="M241.26 211.28a3.56 3.56 0 10-2.32 0c.03 2.85-1.48 6.42-4.18 6.42h10.67c-2.7 0-4.18-3.58-4.17-6.42z"/></mask><path fill-rule="evenodd" clip-rule="evenodd" d="M241.26 211.28a3.56 3.56 0 10-2.32 0c.03 2.85-1.48 6.42-4.18 6.42h10.67c-2.7 0-4.18-3.58-4.17-6.42z" fill="#fff"/><path d="M241.26 211.28l-.65-1.89-1.34.47v1.41l2 .01zm-2.32 0l2-.01-.01-1.42-1.34-.46-.65 1.9zm2.71-3.36c0 .68-.43 1.26-1.04 1.47l1.31 3.78a5.56 5.56 0 003.73-5.25h-4zm-1.55-1.55c.86 0 1.55.7 1.55 1.55h4a5.56 5.56 0 00-5.55-5.55v4zm-1.56 1.55c0-.86.7-1.55 1.56-1.55v-4a5.56 5.56 0 00-5.56 5.55h4zm1.05 1.47a1.56 1.56 0 01-1.05-1.47h-4c0 2.44 1.57 4.5 3.75 5.26l1.3-3.79zm-4.83 10.3c2.36 0 3.96-1.57 4.85-3.14.9-1.59 1.35-3.55 1.33-5.28l-4 .03a6.83 6.83 0 01-.8 3.27c-.53.92-1.03 1.13-1.38 1.13v4zm10.67-4h-10.67v4h10.67v-4zm-6.17-4.42c0 1.72.43 3.68 1.33 5.27.89 1.57 2.48 3.16 4.84 3.16v-4c-.33 0-.83-.2-1.36-1.13a6.95 6.95 0 01-.8-3.28l-4-.02z" fill="#000" mask="url(#m)"/><path d="M247.2 221.37h1v-1.67a3 3 0 00-3-3H235a3 3 0 00-3 3v1.67h15.22z" fill="#fff" stroke="#000" stroke-width="2"/><mask id="n" maskUnits="userSpaceOnUse" x="233.76" y="74.37" width="12" height="18" fill="#000"><path fill="#fff" d="M233.76 74.37h12v18h-12z"/><path fill-rule="evenodd" clip-rule="evenodd" d="M241.26 83.28a3.56 3.56 0 10-2.32 0c.03 2.85-1.48 6.42-4.18 6.42h10.67c-2.7 0-4.18-3.58-4.17-6.42z"/></mask><path fill-rule="evenodd" clip-rule="evenodd" d="M241.26 83.28a3.56 3.56 0 10-2.32 0c.03 2.85-1.48 6.42-4.18 6.42h10.67c-2.7 0-4.18-3.58-4.17-6.42z" fill="#5C5C5C"/><path d="M241.26 83.28l-.65-1.89-1.34.47v1.41l2 .01zm-2.32 0l2-.01-.01-1.42-1.34-.46-.65 1.9zm2.71-3.36c0 .68-.43 1.26-1.04 1.47l1.31 3.78a5.56 5.56 0 003.73-5.25h-4zm-1.55-1.55c.86 0 1.55.7 1.55 1.55h4a5.56 5.56 0 00-5.55-5.55v4zm-1.56 1.55c0-.86.7-1.55 1.56-1.55v-4a5.56 5.56 0 00-5.56 5.55h4zm1.05 1.47a1.56 1.56 0 01-1.05-1.47h-4c0 2.44 1.57 4.5 3.75 5.26l1.3-3.79zm-4.83 10.3c2.36 0 3.96-1.57 4.85-3.14.9-1.59 1.35-3.55 1.33-5.28l-4 .03a6.83 6.83 0 01-.8 3.27c-.53.92-1.03 1.13-1.38 1.13v4zm10.67-4h-10.67v4h10.67v-4zm-6.17-4.42c0 1.72.43 3.68 1.33 5.27.89 1.57 2.48 3.16 4.84 3.16v-4c-.33 0-.83-.2-1.36-1.13a6.95 6.95 0 01-.8-3.28l-4-.02z" fill="#000" mask="url(#n)"/><path d="M247.2 93.37h1V91.7a3 3 0 00-3-3H235a3 3 0 00-3 3v1.67h15.22z" fill="#5C5C5C" stroke="#000" stroke-width="2"/><mask id="o" maskUnits="userSpaceOnUse" x="137.76" y="138.37" width="12" height="18" fill="#000"><path fill="#fff" d="M137.76 138.37h12v18h-12z"/><path fill-rule="evenodd" clip-rule="evenodd" d="M145.26 147.28a3.56 3.56 0 10-2.32 0c.03 2.85-1.48 6.42-4.18 6.42h10.67c-2.7 0-4.18-3.58-4.17-6.42z"/></mask><path fill-rule="evenodd" clip-rule="evenodd" d="M145.26 147.28a3.56 3.56 0 10-2.32 0c.03 2.85-1.48 6.42-4.18 6.42h10.67c-2.7 0-4.18-3.58-4.17-6.42z" fill="#fff"/><path d="M145.26 147.28l-.65-1.89-1.34.47v1.41l2 .01zm-2.32 0l2-.01-.01-1.42-1.34-.46-.65 1.9zm2.71-3.36c0 .68-.43 1.26-1.04 1.47l1.31 3.78a5.56 5.56 0 003.73-5.25h-4zm-1.55-1.55c.86 0 1.55.7 1.55 1.55h4a5.56 5.56 0 00-5.55-5.55v4zm-1.56 1.55c0-.86.7-1.55 1.56-1.55v-4a5.56 5.56 0 00-5.56 5.55h4zm1.05 1.47a1.56 1.56 0 01-1.05-1.47h-4c0 2.44 1.57 4.5 3.75 5.26l1.3-3.79zm-4.83 10.3c2.36 0 3.96-1.57 4.85-3.14.9-1.59 1.35-3.55 1.33-5.28l-4 .03a6.83 6.83 0 01-.8 3.27c-.53.92-1.03 1.13-1.38 1.13v4zm10.67-4h-10.67v4h10.67v-4zm-6.17-4.42c0 1.72.43 3.68 1.33 5.27.89 1.57 2.48 3.16 4.84 3.16v-4c-.33 0-.83-.2-1.36-1.13a6.95 6.95 0 01-.8-3.28l-4-.02z" fill="#000" mask="url(#o)"/><path d="M151.2 157.37h1v-1.67a3 3 0 00-3-3H139a3 3 0 00-3 3v1.67h15.22z" fill="#fff" stroke="#000" stroke-width="2"/><mask id="p" maskUnits="userSpaceOnUse" x="137.76" y="42.37" width="12" height="18" fill="#000"><path fill="#fff" d="M137.76 42.37h12v18h-12z"/><path fill-rule="evenodd" clip-rule="evenodd" d="M145.26 51.28a3.56 3.56 0 10-2.32 0c.03 2.85-1.48 6.42-4.18 6.42h10.67c-2.7 0-4.18-3.58-4.17-6.42z"/></mask><path fill-rule="evenodd" clip-rule="evenodd" d="M145.26 51.28a3.56 3.56 0 10-2.32 0c.03 2.85-1.48 6.42-4.18 6.42h10.67c-2.7 0-4.18-3.58-4.17-6.42z" fill="#5C5C5C"/><path d="M145.26 51.28l-.65-1.89-1.34.47v1.41l2 .01zm-2.32 0l2-.01-.01-1.42-1.34-.46-.65 1.9zm2.71-3.36c0 .68-.43 1.26-1.04 1.47l1.31 3.78a5.56 5.56 0 003.73-5.25h-4zm-1.55-1.55c.86 0 1.55.7 1.55 1.55h4a5.56 5.56 0 00-5.55-5.55v4zm-1.56 1.55c0-.86.7-1.55 1.56-1.55v-4a5.56 5.56 0 00-5.56 5.55h4zm1.05 1.47a1.56 1.56 0 01-1.05-1.47h-4c0 2.44 1.57 4.5 3.75 5.26l1.3-3.79zm-4.83 10.3c2.36 0 3.96-1.57 4.85-3.14.9-1.59 1.35-3.55 1.33-5.28l-4 .03a6.83 6.83 0 01-.8 3.27c-.53.92-1.03 1.13-1.38 1.13v4zm10.67-4h-10.67v4h10.67v-4zm-6.17-4.42c0 1.72.43 3.68 1.33 5.27.89 1.57 2.48 3.16 4.84 3.16v-4c-.33 0-.83-.2-1.36-1.13a6.95 6.95 0 01-.8-3.28l-4-.02z" fill="#000" mask="url(#p)"/><path d="M151.2 61.37h1V59.7a3 3 0 00-3-3H139a3 3 0 00-3 3v1.67h15.22z" fill="#5C5C5C" stroke="#000" stroke-width="2"/><mask id="q" maskUnits="userSpaceOnUse" x="265.76" y="202.37" width="12" height="18" fill="#000"><path fill="#fff" d="M265.76 202.37h12v18h-12z"/><path fill-rule="evenodd" clip-rule="evenodd" d="M273.26 211.28a3.56 3.56 0 10-2.32 0c.03 2.85-1.48 6.42-4.18 6.42h10.67c-2.7 0-4.18-3.58-4.17-6.42z"/></mask><path fill-rule="evenodd" clip-rule="evenodd" d="M273.26 211.28a3.56 3.56 0 10-2.32 0c.03 2.85-1.48 6.42-4.18 6.42h10.67c-2.7 0-4.18-3.58-4.17-6.42z" fill="#fff"/><path d="M273.26 211.28l-.65-1.89-1.34.47v1.41l2 .01zm-2.32 0l2-.01-.01-1.42-1.34-.46-.65 1.9zm2.71-3.36c0 .68-.43 1.26-1.04 1.47l1.31 3.78a5.56 5.56 0 003.73-5.25h-4zm-1.55-1.55c.86 0 1.55.7 1.55 1.55h4a5.56 5.56 0 00-5.55-5.55v4zm-1.56 1.55c0-.86.7-1.55 1.56-1.55v-4a5.56 5.56 0 00-5.56 5.55h4zm1.05 1.47a1.56 1.56 0 01-1.05-1.47h-4c0 2.44 1.57 4.5 3.75 5.26l1.3-3.79zm-4.83 10.3c2.36 0 3.96-1.57 4.85-3.14.9-1.59 1.35-3.55 1.33-5.28l-4 .03a6.83 6.83 0 01-.8 3.27c-.53.92-1.03 1.13-1.38 1.13v4zm10.67-4h-10.67v4h10.67v-4zm-6.17-4.42c0 1.72.43 3.68 1.33 5.27.89 1.57 2.48 3.16 4.84 3.16v-4c-.33 0-.83-.2-1.36-1.13a6.95 6.95 0 01-.8-3.28l-4-.02z" fill="#000" mask="url(#q)"/><path d="M279.2 221.37h1v-1.67a3 3 0 00-3-3H267a3 3 0 00-3 3v1.67h15.22z" fill="#fff" stroke="#000" stroke-width="2"/><mask id="r" maskUnits="userSpaceOnUse" x="265.76" y="106.37" width="12" height="18" fill="#000"><path fill="#fff" d="M265.76 106.37h12v18h-12z"/><path fill-rule="evenodd" clip-rule="evenodd" d="M273.26 115.28a3.56 3.56 0 10-2.32 0c.03 2.85-1.48 6.42-4.18 6.42h10.67c-2.7 0-4.18-3.58-4.17-6.42z"/></mask><path fill-rule="evenodd" clip-rule="evenodd" d="M273.26 115.28a3.56 3.56 0 10-2.32 0c.03 2.85-1.48 6.42-4.18 6.42h10.67c-2.7 0-4.18-3.58-4.17-6.42z" fill="#5C5C5C"/><path d="M273.26 115.28l-.65-1.89-1.34.47v1.41l2 .01zm-2.32 0l2-.01-.01-1.42-1.34-.46-.65 1.9zm2.71-3.36c0 .68-.43 1.26-1.04 1.47l1.31 3.78a5.56 5.56 0 003.73-5.25h-4zm-1.55-1.55c.86 0 1.55.7 1.55 1.55h4a5.56 5.56 0 00-5.55-5.55v4zm-1.56 1.55c0-.86.7-1.55 1.56-1.55v-4a5.56 5.56 0 00-5.56 5.55h4zm1.05 1.47a1.56 1.56 0 01-1.05-1.47h-4c0 2.44 1.57 4.5 3.75 5.26l1.3-3.79zm-4.83 10.3c2.36 0 3.96-1.57 4.85-3.14.9-1.59 1.35-3.55 1.33-5.28l-4 .03a6.83 6.83 0 01-.8 3.27c-.53.92-1.03 1.13-1.38 1.13v4zm10.67-4h-10.67v4h10.67v-4zm-6.17-4.42c0 1.72.43 3.68 1.33 5.27.89 1.57 2.48 3.16 4.84 3.16v-4c-.33 0-.83-.2-1.36-1.13a6.95 6.95 0 01-.8-3.28l-4-.02z" fill="#000" mask="url(#r)"/><path d="M279.2 125.37h1v-1.67a3 3 0 00-3-3H267a3 3 0 00-3 3v1.67h15.22z" fill="#5C5C5C" stroke="#000" stroke-width="2"/><path d="M115.88 184.92h.54l.3-.45-.84-.55.84.55h0v-.02l.03-.04.1-.15a28.25 28.25 0 001.44-2.53 28.51 28.51 0 002.39-6.06c.54-2.2.7-4.64-.4-6.57-1.16-2.02-3.49-3.15-7.14-3.16h-.03a.42.42 0 01-.12-.05s0 0 0 0c-.03-.02-.2-.12-.2-.63v-1h-1c-.52 0-.95.28-1.19.45-.28.2-.56.46-.78.69-.23.23-.43.47-.57.63l-.15.19-2.6 1.9-.15.11-.1.17-2.72 4.4-.25.4.15.44 1 3.04.41 1.28 1.1-.78 2.32-1.62 1.7-1.13c.87.31 1.24.67 1.4.87l.06.1-.04.1a16.6 16.6 0 01-3.55 4.57 3.17 3.17 0 00-.66 3.96l.24.4.29.5h8.17z" fill="#fff" stroke="#000" stroke-width="2"/><path d="M121.88 189.37h1v-2.56a3 3 0 00-3-3h-15.56a3 3 0 00-3 3v2.56h20.56z" fill="#fff" stroke="#000" stroke-width="2"/><path d="M107.65 169.7l.9-.44v.33a1 1 0 01-1 1h-.34l.44-.9z" fill="#000"/><path d="M51.88 88.92h.54l.3-.45-.84-.55.83.55h0l.01-.02.03-.04a16.57 16.57 0 00.44-.7c.28-.48.67-1.16 1.1-1.98a28.53 28.53 0 002.39-6.06c.54-2.2.7-4.64-.4-6.57-1.16-2.02-3.49-3.15-7.14-3.16h-.03a.4.4 0 01-.12-.05s0 0 0 0c-.03-.02-.2-.12-.2-.64v-1h-1c-.52 0-.95.29-1.19.46-.29.2-.56.46-.78.69a11.7 11.7 0 00-.72.81l-2.6 1.9-.15.12-.1.17-2.72 4.4-.25.4.15.44 1 3.04.41 1.28 1.1-.78 2.32-1.62 1.7-1.13c.87.31 1.24.67 1.4.87l.06.1a10.31 10.31 0 01-.68 1.22c-.59.94-1.53 2.2-2.9 3.45a3.17 3.17 0 00-.68 3.96l.25.4.29.5h8.17z" fill="#5C5C5C" stroke="#000" stroke-width="2"/><path d="M57.88 93.37h1V90.8a3 3 0 00-3-3H40.32a3 3 0 00-3 3v2.56h20.56z" fill="#5C5C5C" stroke="#000" stroke-width="2"/><path d="M43.65 73.7l.9-.45v.34a1 1 0 01-1 1h-.34l.44-.9z" fill="#000"/><path d="M211.88 184.92h.54l.3-.45-.84-.55.84.55h0v-.02l.03-.04.1-.15a28.25 28.25 0 001.44-2.53 28.51 28.51 0 002.39-6.06c.54-2.2.7-4.64-.4-6.57-1.16-2.02-3.49-3.15-7.14-3.16h-.02a.42.42 0 01-.13-.05s0 0 0 0c-.03-.02-.2-.12-.2-.63v-1h-1c-.52 0-.95.28-1.19.45-.28.2-.56.46-.78.69-.23.23-.43.47-.57.63l-.15.19-2.6 1.9-.15.11-.1.17-2.72 4.4-.25.4.15.44 1 3.04.41 1.28 1.1-.78 2.32-1.62 1.7-1.13c.87.31 1.24.67 1.4.87l.06.1-.04.1a16.6 16.6 0 01-3.55 4.57 3.17 3.17 0 00-.67 3.96l.25.4.29.5h8.17z" fill="#fff" stroke="#000" stroke-width="2"/><path d="M217.88 189.37h1v-2.56a3 3 0 00-3-3h-15.56a3 3 0 00-3 3v2.56h20.56z" fill="#fff" stroke="#000" stroke-width="2"/><path d="M203.65 169.7l.9-.44v.33a1 1 0 01-1 1h-.34l.44-.9z" fill="#000"/><path d="M275.88 88.92h.54l.3-.45-.84-.55.83.55h0l.02-.02.02-.04.1-.15a28.75 28.75 0 001.44-2.53 28.52 28.52 0 002.39-6.06c.54-2.2.7-4.64-.4-6.57-1.16-2.02-3.49-3.15-7.14-3.16h-.02a.4.4 0 01-.13-.05c-.03-.02-.2-.12-.2-.64v-1h-1c-.52 0-.95.29-1.19.46-.29.2-.56.46-.78.69a11.91 11.91 0 00-.72.81l-2.6 1.9-.15.12-.1.17-2.72 4.4-.25.4.15.44 1 3.04.41 1.28 1.1-.78 2.32-1.62 1.7-1.13c.87.31 1.24.67 1.4.87l.06.1-.04.1a16.57 16.57 0 01-3.55 4.57 3.17 3.17 0 00-.66 3.96l.24.4.29.5h8.17z" fill="#5C5C5C" stroke="#000" stroke-width="2"/><path d="M281.88 93.37h1V90.8a3 3 0 00-3-3h-15.56a3 3 0 00-3 3v2.56h20.56z" fill="#5C5C5C" stroke="#000" stroke-width="2"/><path d="M267.65 73.7l.9-.45v.34a1 1 0 01-1 1h-.34l.44-.9z" fill="#000"/><mask id="s" maskUnits="userSpaceOnUse" x="197.99" y="131.25" width="20" height="25" fill="#000"><path fill="#fff" d="M197.99 131.25h20v25h-20z"/><path fill-rule="evenodd" clip-rule="evenodd" d="M208.68 136.38c.54-.25.93-.82.93-1.5 0-.9-.7-1.63-1.55-1.63a1.6 1.6 0 00-1.55 1.64c0 .68.4 1.27.97 1.51l-6.5 9.4s3.13 7.53 7.1 7.48c3.96-.06 7.27-7.69 7.27-7.69l-6.67-9.2z"/></mask><path fill-rule="evenodd" clip-rule="evenodd" d="M208.68 136.38c.54-.25.93-.82.93-1.5 0-.9-.7-1.63-1.55-1.63a1.6 1.6 0 00-1.55 1.64c0 .68.4 1.27.97 1.51l-6.5 9.4s3.13 7.53 7.1 7.48c3.96-.06 7.27-7.69 7.27-7.69l-6.67-9.2z" fill="#fff"/><path d="M208.68 136.38l-.84-1.81-2.2 1.02 1.42 1.97 1.62-1.18zm-1.2.02l1.65 1.14 1.39-2.01-2.25-.97-.79 1.84zm-6.5 9.4l-1.64-1.15-.62.9.42 1 1.85-.76zm7.1 7.48l.02 2-.03-2zm7.27-7.69l1.83.8.45-1.05-.66-.92-1.62 1.17zm-7.74-10.7c0-.1.05-.24.23-.32l1.68 3.63a3.64 3.64 0 002.09-3.31h-4zm.45.37a.5.5 0 01-.36-.15.32.32 0 01-.1-.22h4c0-1.9-1.48-3.63-3.54-3.63v4zm.45-.37c0 .06-.02.15-.09.22a.5.5 0 01-.36.14v-4a3.59 3.59 0 00-3.55 3.64h4zm-.24-.33c.19.08.24.23.24.33h-4c0 1.46.86 2.78 2.18 3.35l1.58-3.68zm-5.64 12.37l6.5-9.4-3.3-2.27-6.49 9.4 3.3 2.27zm5.41 4.35c-.33 0-.82-.16-1.48-.7-.64-.52-1.28-1.3-1.86-2.15a21.11 21.11 0 01-1.84-3.35l-.02-.05-1.85.76-1.85.77.01.03.04.08a22.17 22.17 0 00.56 1.2c.38.75.94 1.78 1.64 2.8.7 1.03 1.58 2.14 2.63 3a6.34 6.34 0 004.08 1.6l-.06-4zm7.3-5.69l-1.83-.8v.02l-.02.04a14.25 14.25 0 01-.5 1.01c-.34.67-.84 1.55-1.44 2.42-.6.88-1.27 1.68-1.95 2.24-.69.57-1.2.75-1.56.76l.06 4a6.57 6.57 0 004.06-1.69c1.06-.88 1.97-2 2.68-3.04a26.97 26.97 0 002.17-3.78c.05-.11.1-.2.12-.27a3.1 3.1 0 00.05-.1v-.01l-1.83-.8zm-8.28-8.03l6.67 9.2 3.24-2.34-6.67-9.2-3.24 2.34z" fill="#000" mask="url(#s)"/><path d="M217.88 157.37h1v-2.56a3 3 0 00-3-3h-15.56a3 3 0 00-3 3v2.56h20.56z" fill="#fff" stroke="#000" stroke-width="2"/><path d="M208.1 143.03l3.55-2.66 1.34 1.77-4.9 3.56v-2.67z" fill="#000"/><mask id="t" maskUnits="userSpaceOnUse" x="101.99" y="4.25" width="20" height="25" fill="#000"><path fill="#fff" d="M101.99 4.25h20v25h-20z"/><path fill-rule="evenodd" clip-rule="evenodd" d="M112.68 9.38c.54-.25.93-.82.93-1.5 0-.9-.7-1.63-1.55-1.63a1.6 1.6 0 00-1.55 1.64c0 .68.4 1.27.97 1.51l-6.5 9.4s3.13 7.53 7.1 7.48c3.96-.06 7.27-7.69 7.27-7.69l-6.67-9.2z"/></mask><path fill-rule="evenodd" clip-rule="evenodd" d="M112.68 9.38c.54-.25.93-.82.93-1.5 0-.9-.7-1.63-1.55-1.63a1.6 1.6 0 00-1.55 1.64c0 .68.4 1.27.97 1.51l-6.5 9.4s3.13 7.53 7.1 7.48c3.96-.06 7.27-7.69 7.27-7.69l-6.67-9.2z" fill="#5C5C5C"/><path d="M112.68 9.38l-.84-1.81-2.2 1.02 1.42 1.97 1.62-1.18zm-1.2.02l1.64 1.14 1.4-2.01-2.25-.97-.79 1.84zm-6.5 9.4l-1.64-1.15-.62.9.42 1 1.85-.76zm7.1 7.48l.02 2-.03-2zm7.27-7.69l1.83.8.45-1.05-.66-.92-1.62 1.17zM111.6 7.9c0-.1.05-.24.23-.32l1.68 3.63a3.64 3.64 0 002.09-3.31h-4zm.45.36a.5.5 0 01-.36-.14.32.32 0 01-.1-.22h4c0-1.9-1.48-3.64-3.54-3.64v4zm.45-.36c0 .06-.02.15-.09.22a.5.5 0 01-.36.14v-4a3.59 3.59 0 00-3.55 3.64h4zm-.24-.33c.19.08.25.23.25.33h-4c0 1.46.85 2.78 2.17 3.35l1.58-3.68zm-5.64 12.37l6.5-9.4-3.3-2.27-6.49 9.4 3.3 2.27zm5.41 4.35c-.33 0-.82-.15-1.48-.7-.64-.52-1.28-1.3-1.86-2.15a21.23 21.23 0 01-1.86-3.4l-1.85.76-1.85.77.01.03a10.95 10.95 0 00.16.35 25.86 25.86 0 002.08 3.74c.7 1.02 1.58 2.13 2.63 3a6.34 6.34 0 004.08 1.6l-.06-4zm7.3-5.69l-1.83-.8v.01l-.03.05a16.58 16.58 0 01-.49 1.01c-.34.67-.84 1.55-1.44 2.42-.6.88-1.27 1.67-1.95 2.24-.69.57-1.2.75-1.56.76l.06 4a6.57 6.57 0 004.06-1.69c1.06-.88 1.97-2 2.68-3.04a26.91 26.91 0 002.17-3.78c.05-.11.1-.2.12-.27l.04-.08v-.02h.01v-.01l-1.83-.8zm-8.28-8.03l6.67 9.2 3.24-2.34-6.67-9.2-3.24 2.34z" fill="#000" mask="url(#t)"/><path d="M121.88 30.37h1V27.8a3 3 0 00-3-3h-15.56a3 3 0 00-3 3v2.56h20.56z" fill="#5C5C5C" stroke="#000" stroke-width="2"/><path d="M112.1 16.03l3.55-2.66 1.34 1.77-4.9 3.56v-2.67z" fill="#000"/><mask id="u" maskUnits="userSpaceOnUse" x="101.99" y="131.25" width="20" height="25" fill="#000"><path fill="#fff" d="M101.99 131.25h20v25h-20z"/><path fill-rule="evenodd" clip-rule="evenodd" d="M112.68 136.38c.54-.25.93-.82.93-1.5 0-.9-.7-1.63-1.55-1.63a1.6 1.6 0 00-1.55 1.64c0 .68.4 1.27.97 1.51l-6.5 9.4s3.13 7.53 7.1 7.48c3.96-.06 7.27-7.69 7.27-7.69l-6.67-9.2z"/></mask><path fill-rule="evenodd" clip-rule="evenodd" d="M112.68 136.38c.54-.25.93-.82.93-1.5 0-.9-.7-1.63-1.55-1.63a1.6 1.6 0 00-1.55 1.64c0 .68.4 1.27.97 1.51l-6.5 9.4s3.13 7.53 7.1 7.48c3.96-.06 7.27-7.69 7.27-7.69l-6.67-9.2z" fill="#fff"/><path d="M112.68 136.38l-.84-1.81-2.2 1.02 1.42 1.97 1.62-1.18zm-1.2.02l1.64 1.14 1.4-2.01-2.25-.97-.79 1.84zm-6.5 9.4l-1.64-1.15-.62.9.42 1 1.85-.76zm7.1 7.48l.02 2-.03-2zm7.27-7.69l1.83.8.45-1.05-.66-.92-1.62 1.17zm-7.74-10.7c0-.1.05-.24.23-.32l1.68 3.63a3.64 3.64 0 002.09-3.31h-4zm.45.37a.5.5 0 01-.36-.15.32.32 0 01-.1-.22h4c0-1.9-1.48-3.63-3.54-3.63v4zm.45-.37c0 .06-.02.15-.09.22a.5.5 0 01-.36.14v-4a3.59 3.59 0 00-3.55 3.64h4zm-.24-.33c.19.08.25.23.25.33h-4c0 1.46.85 2.78 2.17 3.35l1.58-3.68zm-5.64 12.37l6.5-9.4-3.3-2.27-6.49 9.4 3.3 2.27zm5.41 4.35c-.33 0-.82-.16-1.48-.7-.64-.52-1.28-1.3-1.86-2.15a21.11 21.11 0 01-1.84-3.35l-.02-.05-1.85.76-1.85.77.01.03.04.08a22.17 22.17 0 00.56 1.2c.38.75.94 1.78 1.64 2.8.7 1.03 1.58 2.14 2.63 3a6.34 6.34 0 004.08 1.6l-.06-4zm7.3-5.69l-1.83-.8v.02l-.03.04a14.25 14.25 0 01-.49 1.01c-.34.67-.84 1.55-1.44 2.42-.6.88-1.27 1.68-1.95 2.24-.69.57-1.2.75-1.56.76l.06 4a6.57 6.57 0 004.06-1.69c1.06-.88 1.97-2 2.68-3.04a26.97 26.97 0 002.17-3.78c.05-.11.1-.2.12-.27a3.1 3.1 0 00.05-.1v-.01l-1.83-.8zm-8.28-8.03l6.67 9.2 3.24-2.34-6.67-9.2-3.24 2.34z" fill="#000" mask="url(#u)"/><path d="M121.88 157.37h1v-2.56a3 3 0 00-3-3h-15.56a3 3 0 00-3 3v2.56h20.56z" fill="#fff" stroke="#000" stroke-width="2"/><path d="M112.1 143.03l3.55-2.66 1.34 1.77-4.9 3.56v-2.67z" fill="#000"/><mask id="v" maskUnits="userSpaceOnUse" x="197.99" y="3.25" width="20" height="25" fill="#000"><path fill="#fff" d="M197.99 3.25h20v25h-20z"/><path fill-rule="evenodd" clip-rule="evenodd" d="M208.68 8.38c.54-.25.93-.82.93-1.5 0-.9-.7-1.63-1.55-1.63a1.6 1.6 0 00-1.55 1.64c0 .68.4 1.27.97 1.51l-6.5 9.4s3.13 7.53 7.1 7.48c3.96-.06 7.27-7.69 7.27-7.69l-6.67-9.2z"/></mask><path fill-rule="evenodd" clip-rule="evenodd" d="M208.68 8.38c.54-.25.93-.82.93-1.5 0-.9-.7-1.63-1.55-1.63a1.6 1.6 0 00-1.55 1.64c0 .68.4 1.27.97 1.51l-6.5 9.4s3.13 7.53 7.1 7.48c3.96-.06 7.27-7.69 7.27-7.69l-6.67-9.2z" fill="#5C5C5C"/><path d="M208.68 8.38l-.84-1.81-2.2 1.02 1.42 1.97 1.62-1.18zm-1.2.02l1.65 1.14 1.39-2.01-2.25-.97-.79 1.84zm-6.5 9.4l-1.64-1.15-.62.9.42 1 1.85-.76zm7.1 7.48l.02 2-.03-2zm7.27-7.69l1.83.8.45-1.05-.66-.92-1.62 1.17zM207.6 6.9c0-.1.05-.24.23-.32l1.68 3.63a3.64 3.64 0 002.09-3.31h-4zm.45.36a.5.5 0 01-.36-.14.32.32 0 01-.1-.22h4c0-1.9-1.48-3.64-3.54-3.64v4zm.45-.36c0 .06-.02.15-.09.22a.5.5 0 01-.36.14v-4a3.59 3.59 0 00-3.55 3.64h4zm-.24-.33c.19.08.24.23.24.33h-4c0 1.46.86 2.78 2.18 3.35l1.58-3.68zm-5.64 12.37l6.5-9.4-3.3-2.27-6.49 9.4 3.3 2.27zm5.41 4.35c-.33 0-.82-.15-1.48-.7-.64-.52-1.28-1.3-1.86-2.15a21.23 21.23 0 01-1.86-3.4l-1.85.76-1.85.77.01.03a10.95 10.95 0 00.16.35 25.86 25.86 0 002.08 3.74c.7 1.02 1.58 2.13 2.63 3a6.34 6.34 0 004.08 1.6l-.06-4zm7.3-5.69l-1.83-.8v.01l-.02.05a16.58 16.58 0 01-.5 1.01c-.34.67-.84 1.55-1.44 2.42-.6.88-1.27 1.67-1.95 2.24-.69.57-1.2.75-1.56.76l.06 4a6.57 6.57 0 004.06-1.69c1.06-.88 1.97-2 2.68-3.04a26.91 26.91 0 002.17-3.78c.05-.11.1-.2.12-.27l.04-.08v-.02h.01v-.01l-1.83-.8zm-8.28-8.03l6.67 9.2 3.24-2.34-6.67-9.2-3.24 2.34z" fill="#000" mask="url(#v)"/><path d="M217.88 29.37h1V26.8a3 3 0 00-3-3h-15.56a3 3 0 00-3 3v2.56h20.56z" fill="#5C5C5C" stroke="#000" stroke-width="2"/><path d="M208.1 15.03l3.55-2.66 1.34 1.77-4.9 3.56v-2.67z" fill="#000"/><path d="M44.1 237.14h-.89l-.1.88-1.34 10.67-.14 1.12h12.98l-.2-1.16-1.77-10.67-.14-.84h-8.4z" fill="#fff" stroke="#000" stroke-width="2"/><path d="M40.99 230.03h-1v9.11H56.2v-9.1h-3.12l-.24.65-1.19 3.23h-1.02l-.87-3.15-.2-.74H46.62l-.2.74-.86 3.15h-1.03l-1.18-3.23-.24-.66h-2.12zM57.88 253.37h1v-2.56a3 3 0 00-3-3H40.32a3 3 0 00-3 3v2.56h20.56z" fill="#fff" stroke="#000" stroke-width="2"/><path d="M44.1 13.14h-.89l-.1.88-1.34 10.67-.14 1.12h12.98l-.2-1.16-1.77-10.67-.14-.84h-8.4z" fill="#5C5C5C" stroke="#000" stroke-width="2"/><path d="M40.99 6.03h-1v9.11H56.2v-9.1h-3.12l-.24.65-1.19 3.23h-1.02l-.87-3.15-.2-.74H46.62l-.2.74-.86 3.15h-1.03L43.35 6.7l-.24-.66h-2.12zM57.88 29.37h1V26.8a3 3 0 00-3-3H40.32a3 3 0 00-3 3v2.56h20.56z" fill="#5C5C5C" stroke="#000" stroke-width="2"/><path d="M268.1 237.14h-.89l-.1.88-1.34 10.67-.14 1.12h12.98l-.2-1.16-1.77-10.67-.14-.84h-8.4z" fill="#fff" stroke="#000" stroke-width="2"/><path d="M264.99 230.03h-1v9.11h16.22v-9.1h-3.12l-.24.65-1.19 3.23h-1.02l-.87-3.15-.2-.74H270.62l-.2.74-.86 3.15h-1.03l-1.18-3.23-.24-.66h-2.12zM281.88 253.37h1v-2.56a3 3 0 00-3-3h-15.56a3 3 0 00-3 3v2.56h20.56z" fill="#fff" stroke="#000" stroke-width="2"/><path d="M268.1 13.14h-.89l-.1.88-1.34 10.67-.14 1.12h12.98l-.2-1.16-1.77-10.67-.14-.84h-8.4z" fill="#5C5C5C" stroke="#000" stroke-width="2"/><path d="M264.99 6.03h-1v9.11h16.22v-9.1h-3.12l-.24.65-1.19 3.23h-1.02l-.87-3.15-.2-.74H270.62l-.2.74-.86 3.15h-1.03l-1.18-3.23-.24-.66h-2.12zM281.88 29.37h1V26.8a3 3 0 00-3-3h-15.56a3 3 0 00-3 3v2.56h20.56z" fill="#5C5C5C" stroke="#000" stroke-width="2"/><path fill-rule="evenodd" clip-rule="evenodd" d="M146.95 231.33a3 3 0 01-1.09 2.33l1.8 7.15 3.88-3.66a3.03 3.03 0 01-.33-1.38 2.91 2.91 0 012.85-2.96 2.91 2.91 0 012.86 2.96 2.91 2.91 0 01-3.04 2.96l-2.67 10.08h-14.22l-2.67-10.08a2.92 2.92 0 01-2.67-2.96 2.91 2.91 0 012.86-2.96 2.91 2.91 0 012.86 2.96c0 .6-.17 1.15-.47 1.62l3.64 3.42 1.79-7.15a3 3 0 01-1.09-2.33 2.91 2.91 0 012.86-2.96 2.91 2.91 0 012.85 2.96z" fill="#fff"/><path d="M145.86 233.66l-.63-.78-.49.4.15.62.97-.24zm1.8 7.15l-.98.24.42 1.66 1.24-1.17-.69-.73zm3.88-3.66l.68.73.55-.51-.34-.67-.9.45zm2.34 1.58l.06-1-.82-.05-.21.8.97.25zm-2.67 10.08v1h.77l.2-.74-.97-.26zm-14.22 0l-.97.26.2.74h.77v-1zm-2.67-10.08l.96-.26-.18-.69-.71-.05-.07 1zm2.59-1.34l-.85-.53-.44.7.6.56.69-.73zm3.63 3.42l-.68.73 1.24 1.17.41-1.66-.97-.24zm1.79-7.15l.97.24.15-.62-.49-.4-.63.78zm4.17.77a4 4 0 001.45-3.1h-2a2 2 0 01-.72 1.55l1.27 1.55zm2.12 6.14l-1.79-7.16-1.94.49 1.8 7.15 1.93-.48zm2.23-4.14l-3.88 3.65 1.37 1.46 3.88-3.66-1.37-1.45zm-.64-.66c0 .66.16 1.29.44 1.84l1.78-.9a2.03 2.03 0 01-.22-.94h-2zm3.85-3.96a3.91 3.91 0 00-3.85 3.96h2c0-1.12.86-1.96 1.85-1.96v-2zm3.86 3.96c0-2.15-1.7-3.96-3.85-3.96v2c.99 0 1.85.84 1.85 1.96h2zm-3.85 3.97c2.16 0 3.85-1.81 3.85-3.97h-2c0 1.12-.86 1.97-1.85 1.97v2zm-.26-.01h.25v-2h-.12l-.13 2zm-1.63 9.34l2.66-10.08-1.93-.52-2.67 10.08 1.94.52zm-15.2.74h14.23v-2h-14.22v2zm-3.63-10.82l2.67 10.08 1.93-.52-2.67-10.08-1.93.52zm1.04-1.26a1.92 1.92 0 01-1.74-1.96h-2a3.92 3.92 0 003.6 3.96l.14-2zm-1.74-1.96c0-1.12.87-1.96 1.86-1.96v-2a3.91 3.91 0 00-3.86 3.96h2zm1.86-1.96c1 0 1.86.84 1.86 1.96h2c0-2.15-1.7-3.96-3.86-3.96v2zm1.86 1.96c0 .4-.12.78-.31 1.09l1.7 1.06c.38-.62.6-1.36.6-2.15h-2zm4.86 4.31l-3.64-3.42-1.37 1.46 3.64 3.42 1.37-1.46zm.13-6.67l-1.79 7.16 1.94.48 1.79-7.15-1.94-.49zm-1.12-2.08a4 4 0 001.46 3.1l1.26-1.55a2 2 0 01-.72-1.55h-2zm3.86-3.96a3.91 3.91 0 00-3.86 3.96h2c0-1.12.86-1.96 1.86-1.96v-2zm3.85 3.96c0-2.16-1.69-3.96-3.85-3.96v2c.99 0 1.85.84 1.85 1.96h2z" fill="#000"/><path d="M153.88 253.37h1v-2.56a3 3 0 00-3-3h-15.56a3 3 0 00-3 3v2.56h20.56z" fill="#fff" stroke="#000" stroke-width="2"/><path fill-rule="evenodd" clip-rule="evenodd" d="M146.95 7.33a3 3 0 01-1.09 2.33l1.8 7.15 3.88-3.66a3.04 3.04 0 01-.33-1.38 2.91 2.91 0 012.85-2.96 2.91 2.91 0 012.86 2.96 2.91 2.91 0 01-3.04 2.96l-2.67 10.08h-14.22l-2.67-10.08a2.92 2.92 0 01-2.67-2.96 2.91 2.91 0 012.86-2.96 2.91 2.91 0 012.86 2.96c0 .6-.17 1.15-.47 1.62l3.64 3.42 1.79-7.15a3 3 0 01-1.09-2.33 2.91 2.91 0 012.86-2.96 2.91 2.91 0 012.85 2.96z" fill="#5C5C5C"/><path d="M145.86 9.66l-.63-.78-.49.4.15.62.97-.24zm1.8 7.15l-.98.24.42 1.66 1.24-1.17-.69-.73zm3.88-3.66l.68.73.55-.51-.34-.67-.9.45zm2.34 1.58l.06-1-.82-.05-.21.8.97.25zm-2.67 10.08v1h.77l.2-.74-.97-.26zm-14.22 0l-.97.26.2.74h.77v-1zm-2.67-10.08l.96-.26-.18-.69-.71-.05-.07 1zm2.59-1.34l-.85-.53-.44.7.6.56.69-.73zm3.63 3.42l-.68.73 1.24 1.17.41-1.66-.97-.24zm1.79-7.15l.97.24.15-.62-.49-.4-.63.78zm4.17.77a4 4 0 001.45-3.1h-2a2 2 0 01-.72 1.55l1.27 1.55zm2.12 6.14l-1.79-7.16-1.94.49 1.8 7.15 1.93-.48zm2.23-4.14l-3.88 3.65 1.37 1.46 3.88-3.66-1.37-1.45zm-.64-.66c0 .66.16 1.29.44 1.84l1.78-.9a2.03 2.03 0 01-.22-.94h-2zm3.85-3.96a3.91 3.91 0 00-3.85 3.96h2c0-1.12.86-1.96 1.85-1.96v-2zm3.86 3.96c0-2.15-1.7-3.96-3.85-3.96v2c.99 0 1.85.84 1.85 1.96h2zm-3.85 3.97c2.16 0 3.85-1.81 3.85-3.97h-2c0 1.12-.86 1.97-1.85 1.97v2zm-.26-.01h.25v-2h-.12l-.13 2zm-1.63 9.34l2.66-10.08-1.93-.52-2.67 10.08 1.94.52zm-15.2.74h14.23v-2h-14.22v2zm-3.63-10.82l2.67 10.08 1.93-.52-2.67-10.08-1.93.52zm1.04-1.26a1.92 1.92 0 01-1.74-1.96h-2a3.92 3.92 0 003.6 3.96l.14-2zm-1.74-1.96c0-1.12.87-1.96 1.86-1.96v-2a3.91 3.91 0 00-3.86 3.96h2zm1.86-1.96c1 0 1.86.84 1.86 1.96h2c0-2.15-1.7-3.96-3.86-3.96v2zm1.86 1.96c0 .4-.12.78-.31 1.09l1.7 1.06c.38-.62.6-1.36.6-2.15h-2zm4.86 4.31l-3.64-3.42-1.37 1.46 3.64 3.42 1.37-1.46zm.13-6.67l-1.79 7.16 1.94.48 1.79-7.15-1.94-.49zm-1.12-2.08a4 4 0 001.46 3.1l1.26-1.55a2 2 0 01-.72-1.55h-2zm3.86-3.96a3.91 3.91 0 00-3.86 3.96h2c0-1.12.86-1.96 1.86-1.96v-2zm3.85 3.96c0-2.16-1.69-3.96-3.85-3.96v2c.99 0 1.85.84 1.85 1.96h2z" fill="#000"/><path d="M153.88 29.37h1V26.8a3 3 0 00-3-3h-15.56a3 3 0 00-3 3v2.56h20.56z" fill="#5C5C5C" stroke="#000" stroke-width="2"/></g><defs><clipPath id="clip0"><path fill="#fff" transform="translate(.1 .92)" d="M0 0h320v288H0z"/></clipPath></defs></svg>