<svg width="321" height="289" fill="none" xmlns="http://www.w3.org/2000/svg"><g clip-path="url(#clip0)"><path fill="#FEE6C1" d="M32.59.45h256v256h-256z"/><path d="M32.6 224.45h32v32h-32v-32zM32.6 96.45h32v32h-32v-32zM32.6 160.45h32v32h-32v-32zM32.6 32.45h32v32h-32v-32zM64.6 192.45h32v32h-32v-32zM64.6 64.45h32v32h-32v-32zM64.6 128.45h32v32h-32v-32zM64.6.45h32v32h-32v-32zM160.6 224.45h32v32h-32v-32zM160.6 96.45h32v32h-32v-32zM160.6 160.45h32v32h-32v-32zM160.6 32.45h32v32h-32v-32zM192.6 192.45h32v32h-32v-32zM192.6 64.45h32v32h-32v-32zM192.6 128.45h32v32h-32v-32zM192.6.45h32v32h-32v-32zM96.6 224.45h32v32h-32v-32zM96.6 96.45h32v32h-32v-32zM96.6 160.45h32v32h-32v-32zM96.6 32.45h32v32h-32v-32zM128.6 192.45h32v32h-32v-32zM128.6 64.45h32v32h-32v-32zM128.6 128.45h32v32h-32v-32zM128.6.45h32v32h-32v-32zM224.6 224.45h32v32h-32v-32zM224.6 96.45h32v32h-32v-32zM224.6 160.45h32v32h-32v-32zM224.6 32.45h32v32h-32v-32zM256.6 192.45h32v32h-32v-32zM256.6 64.45h32v32h-32v-32zM256.6 128.45h32v32h-32v-32zM256.6.45h32v32h-32v-32z" fill="#866C4A"/><path d="M14.02 237.81v-2.54h4.43v11.68H15.6v-9.14h-1.58zM12.65 212.76l.5-.4a59.77 59.77 0 002.46-2.13c.6-.55 1.12-1.14 1.53-1.74.42-.61.63-1.2.63-1.78 0-.44-.1-.78-.3-1.02-.21-.25-.52-.37-.92-.37s-.73.15-.96.46c-.22.3-.34.73-.34 1.28h-2.64c.02-.9.22-1.66.58-2.27.37-.6.86-1.06 1.46-1.34.6-.3 1.28-.44 2.01-.44 1.27 0 2.23.33 2.87.98.65.65.97 1.5.97 2.54 0 1.15-.39 2.2-1.17 3.19a17.4 17.4 0 01-2.97 2.85h4.32v2.22h-8.03v-2.03zM12.56 174.57a3.51 3.51 0 011.12-2.64c.7-.62 1.66-.93 2.87-.93.8 0 1.48.14 2.05.41a2.95 2.95 0 011.74 2.76c0 .7-.18 1.28-.53 1.72a2.7 2.7 0 01-1.23.9v.06c.6.2 1.09.54 1.44 1.01.35.47.53 1.07.53 1.81 0 .66-.16 1.25-.47 1.76-.3.5-.74.9-1.32 1.18-.58.3-1.27.44-2.07.44a4.7 4.7 0 01-3.07-.95c-.76-.63-1.16-1.58-1.2-2.85h2.66c0 .47.14.85.4 1.12.25.27.63.4 1.12.4.41 0 .73-.11.96-.35.23-.24.35-.56.35-.96 0-.51-.17-.88-.5-1.1-.32-.24-.84-.35-1.55-.35h-.51v-2.23h.51c.54 0 .98-.09 1.31-.27.34-.2.51-.53.51-1 0-.4-.1-.7-.32-.9-.2-.22-.5-.32-.88-.32-.4 0-.7.12-.9.36-.2.25-.31.55-.34.92h-2.68zM11.96 148.87v-2.2l5.06-7.24h3.05v7.07h1.32v2.37h-1.32v2.08h-2.73v-2.08h-5.38zm5.57-6.43l-2.69 4.06h2.69v-4.06zM20.33 108.65h-4.99v2.21c.21-.23.51-.42.9-.57.38-.15.8-.23 1.24-.23.8 0 1.47.18 1.99.55.53.36.92.83 1.17 1.4.24.58.36 1.2.36 1.88 0 1.24-.35 2.24-1.05 2.97-.7.73-1.7 1.09-2.98 1.09a5.3 5.3 0 01-2.22-.43 3.47 3.47 0 01-1.46-1.23 3.55 3.55 0 01-.56-1.81h2.67c.07.33.22.6.47.83.24.21.58.32 1 .32.5 0 .88-.16 1.13-.48.24-.32.36-.75.36-1.28 0-.52-.12-.92-.38-1.2-.26-.28-.63-.42-1.12-.42-.36 0-.66.1-.9.28-.23.17-.38.4-.46.68h-2.64v-6.96h7.47v2.4zM18 77.42a1.6 1.6 0 00-.45-.88c-.22-.2-.52-.3-.92-.3-.6 0-1.04.26-1.3.8-.27.52-.41 1.35-.42 2.5a2.4 2.4 0 011-.89c.45-.21.94-.32 1.48-.32a3.3 3.3 0 012.5 1c.65.66.97 1.58.97 2.76 0 .78-.16 1.47-.48 2.05A3.3 3.3 0 0119 85.52c-.6.33-1.3.5-2.13.5-1.64 0-2.78-.52-3.42-1.54-.64-1.04-.96-2.52-.96-4.45 0-2.03.34-3.53 1-4.51.7-1 1.78-1.49 3.27-1.49.8 0 1.47.16 2.02.48.55.3.97.72 1.25 1.23s.45 1.07.5 1.68H18zm-1.27 3.07c-.46 0-.84.14-1.15.42-.3.27-.45.65-.45 1.15 0 .51.14.91.42 1.2.28.29.69.43 1.21.43.47 0 .84-.13 1.1-.41.28-.29.42-.68.42-1.17 0-.5-.13-.9-.4-1.18-.26-.3-.65-.44-1.15-.44zM20.49 44.32l-4.02 9.63h-2.8l4.06-9.33h-4.97V42.3h7.73v2.03zM14.04 16.68c-1-.54-1.5-1.37-1.5-2.51a2.86 2.86 0 011.8-2.7c.62-.3 1.36-.44 2.25-.44.88 0 1.63.14 2.22.43.61.28 1.06.66 1.36 1.14.3.47.45.99.45 1.57a2.7 2.7 0 01-.42 1.5c-.26.43-.63.76-1.08 1a3.06 3.06 0 011.8 2.85 3.37 3.37 0 01-2.16 3.22c-.65.29-1.37.43-2.17.43-.8 0-1.53-.14-2.2-.43a3.37 3.37 0 01-2.13-3.22 3.04 3.04 0 011.78-2.85zm3.92-2.1c0-.44-.12-.77-.38-1a1.34 1.34 0 00-1-.37c-.4 0-.74.12-1 .36-.24.25-.37.59-.37 1.03 0 .41.13.74.39.99.25.23.58.35.99.35.4 0 .73-.12.99-.37.26-.24.38-.57.38-.99zm-1.37 3.28c-.5 0-.9.14-1.22.42-.3.26-.46.64-.46 1.12 0 .45.15.81.45 1.1.3.29.72.43 1.23.43s.91-.14 1.2-.43c.3-.29.45-.65.45-1.1 0-.47-.16-.84-.47-1.12-.3-.28-.7-.42-1.18-.42zM273.68 269.43c1.02 0 1.85.34 2.46 1.02.62.67.93 1.6.93 2.78v5.22h-2.72v-4.85c0-.6-.15-1.06-.46-1.39-.31-.33-.73-.5-1.25-.5s-.94.17-1.25.5c-.3.33-.46.8-.46 1.4v4.84h-2.74v-11.84h2.74v4.11c.28-.4.65-.7 1.13-.94a3.63 3.63 0 011.62-.35zM239.55 269.4c.63 0 1.17.12 1.64.38.48.25.85.59 1.1 1v-1.26h2.74v8.91a4.9 4.9 0 01-.5 2.23c-.31.67-.8 1.2-1.48 1.6-.66.4-1.49.59-2.48.59-1.32 0-2.4-.31-3.22-.94a3.5 3.5 0 01-1.4-2.53h2.7c.09.34.29.6.6.8.33.2.72.3 1.2.3.56 0 1-.16 1.34-.5.34-.31.5-.83.5-1.55v-1.26a3.1 3.1 0 01-2.74 1.4 3.7 3.7 0 01-3.43-2.17 5.51 5.51 0 01-.51-2.43c0-.92.17-1.72.51-2.42.35-.69.83-1.22 1.43-1.6.6-.37 1.26-.56 2-.56zm2.75 4.59c0-.69-.2-1.23-.58-1.62-.37-.4-.83-.6-1.37-.6-.55 0-1.01.2-1.4.6a2.2 2.2 0 00-.56 1.6c0 .68.2 1.23.56 1.63.39.4.85.6 1.4.6.54 0 1-.2 1.37-.6.39-.4.58-.93.58-1.61zM211.18 271.8h-1.47v6.65h-2.74v-6.66h-.99v-2.27h1v-.25c0-1.1.3-1.94.94-2.5.63-.58 1.55-.86 2.77-.86l.44.01v2.32c-.52-.03-.89.04-1.1.23-.21.18-.32.5-.32.97v.08h1.47v2.27zM181.07 273.84a7 7 0 01-.05.8h-6.19c.04.56.22.98.53 1.28.32.29.7.43 1.17.43.68 0 1.15-.28 1.42-.86h2.91a3.94 3.94 0 01-.81 1.58c-.39.47-.87.84-1.46 1.1-.59.27-1.24.4-1.97.4a4.8 4.8 0 01-2.33-.55 3.99 3.99 0 01-1.6-1.6c-.39-.7-.58-1.5-.58-2.43 0-.93.19-1.74.56-2.44.38-.69.92-1.22 1.6-1.6a4.82 4.82 0 012.35-.56c.87 0 1.63.19 2.3.55.68.36 1.2.88 1.57 1.55.39.67.58 1.46.58 2.35zm-2.8-.72c0-.47-.16-.84-.48-1.12a1.76 1.76 0 00-1.2-.41c-.46 0-.85.13-1.17.4-.3.26-.5.64-.57 1.13h3.42zM139.61 273.97c0-.92.17-1.72.51-2.42.35-.69.83-1.22 1.43-1.6.6-.37 1.26-.56 2-.56.58 0 1.12.13 1.6.37.49.25.87.58 1.15 1v-4.15h2.73v11.84h-2.73v-1.28c-.26.43-.63.77-1.1 1.02-.47.26-1.02.39-1.65.39a3.7 3.7 0 01-3.43-2.18 5.51 5.51 0 01-.51-2.43zm6.69.02c0-.69-.2-1.23-.58-1.62-.37-.4-.83-.6-1.37-.6-.55 0-1.01.2-1.4.6a2.2 2.2 0 00-.56 1.6c0 .68.2 1.23.56 1.63.39.4.85.6 1.4.6.54 0 1-.2 1.37-.6.39-.4.58-.93.58-1.61zM108.2 273.99c0-.93.18-1.74.56-2.44a4 4 0 011.58-1.6 4.78 4.78 0 012.34-.56c1.12 0 2.05.3 2.8.88a4.14 4.14 0 011.48 2.48h-2.9c-.25-.68-.73-1.02-1.43-1.02-.5 0-.9.2-1.2.6-.3.38-.45.93-.45 1.66 0 .72.15 1.28.45 1.68.3.38.7.57 1.2.57.7 0 1.18-.34 1.42-1.02h2.91a4.2 4.2 0 01-1.48 2.46c-.76.6-1.7.9-2.8.9a4.8 4.8 0 01-2.34-.56c-.67-.38-1.2-.9-1.58-1.6-.38-.7-.56-1.5-.56-2.43zM78.89 270.79c.26-.42.62-.76 1.1-1.01a3.45 3.45 0 011.65-.39 3.7 3.7 0 013.41 2.16c.35.7.53 1.5.53 2.42 0 .92-.18 1.73-.53 2.43-.34.7-.81 1.23-1.4 1.62a3.7 3.7 0 01-2 .56c-.64 0-1.19-.13-1.66-.37-.47-.26-.83-.6-1.1-1v1.24h-2.74v-11.84h2.74v4.18zm3.9 3.18c0-.68-.19-1.22-.57-1.6-.38-.4-.84-.6-1.4-.6-.54 0-1 .2-1.39.6-.37.4-.56.93-.56 1.62 0 .68.2 1.22.56 1.61.39.4.85.6 1.4.6.54 0 1-.2 1.39-.6.38-.4.57-.95.57-1.63zM43.61 273.97c0-.92.17-1.72.51-2.42.35-.69.83-1.22 1.43-1.6a3.7 3.7 0 012-.56c.63 0 1.17.13 1.64.39.48.25.85.59 1.1 1v-1.26h2.74v8.93H50.3v-1.26c-.27.41-.64.75-1.12 1-.47.26-1.02.39-1.65.39a3.67 3.67 0 01-3.4-2.18 5.51 5.51 0 01-.52-2.43zm6.69.02c0-.69-.2-1.23-.58-1.62-.37-.4-.83-.6-1.37-.6-.55 0-1.01.2-1.4.6a2.2 2.2 0 00-.56 1.6c0 .68.2 1.23.56 1.63.39.4.85.6 1.4.6.54 0 1-.2 1.37-.6.39-.4.58-.93.58-1.61z" fill="#000"/><path fill="#E94E58" fill-opacity=".75" d="M128.6 96.45h32v32h-32zM160.6 96.45h32v32h-32zM160.6 128.45h32v32h-32zM128.6 128.45h32v32h-32z"/></g><defs><clipPath id="clip0"><path fill="#fff" transform="translate(.6 .45)" d="M0 0h320v288H0z"/></clipPath></defs></svg>