<svg width="321" height="289" fill="none" xmlns="http://www.w3.org/2000/svg"><g clip-path="url(#clip0)"><path fill="#FEE6C1" d="M32.12.47h256v256h-256z"/><path d="M32.12 224.47h32v32h-32v-32zM32.12 96.47h32v32h-32v-32zM32.12 160.47h32v32h-32v-32zM32.12 32.47h32v32h-32v-32zM64.12 192.47h32v32h-32v-32zM64.12 64.47h32v32h-32v-32zM64.12 128.47h32v32h-32v-32zM64.12.47h32v32h-32v-32zM160.12 224.47h32v32h-32v-32zM160.12 96.47h32v32h-32v-32zM160.12 160.47h32v32h-32v-32zM160.12 32.47h32v32h-32v-32zM192.12 192.47h32v32h-32v-32zM192.12 64.47h32v32h-32v-32zM192.12 128.47h32v32h-32v-32zM192.12.47h32v32h-32v-32zM96.12 224.47h32v32h-32v-32zM96.12 96.47h32v32h-32v-32zM96.12 160.47h32v32h-32v-32zM96.12 32.47h32v32h-32v-32zM128.12 192.47h32v32h-32v-32zM128.12 64.47h32v32h-32v-32zM128.12 128.47h32v32h-32v-32zM128.12.47h32v32h-32v-32zM224.12 224.47h32v32h-32v-32zM224.12 96.47h32v32h-32v-32zM224.12 160.47h32v32h-32v-32zM224.12 32.47h32v32h-32v-32zM256.12 192.47h32v32h-32v-32zM256.12 64.47h32v32h-32v-32zM256.12 128.47h32v32h-32v-32zM256.12.47h32v32h-32v-32z" fill="#866C4A"/><path d="M13.54 237.84v-2.55h4.44v11.68h-2.85v-9.13h-1.59zM12.17 212.78l.5-.4a59.7 59.7 0 002.46-2.13c.61-.55 1.12-1.13 1.54-1.74.41-.61.62-1.2.62-1.78 0-.44-.1-.78-.3-1.02-.2-.25-.5-.37-.91-.37-.4 0-.73.15-.96.46-.23.3-.34.73-.34 1.28h-2.64c.02-.9.21-1.66.58-2.27.37-.6.86-1.05 1.45-1.34.61-.29 1.28-.43 2.02-.43 1.27 0 2.22.32 2.86.97.65.65.98 1.5.98 2.55 0 1.14-.39 2.2-1.17 3.18a17.4 17.4 0 01-2.98 2.85h4.32v2.22h-8.03v-2.03zM12.1 174.59a3.51 3.51 0 011.11-2.64c.7-.62 1.66-.93 2.87-.93.8 0 1.48.14 2.04.42a2.95 2.95 0 011.75 2.75c0 .7-.18 1.28-.53 1.73a2.7 2.7 0 01-1.23.9v.06c.6.2 1.09.53 1.44 1 .35.47.53 1.08.53 1.81 0 .66-.16 1.25-.47 1.76-.3.5-.74.9-1.33 1.19-.57.28-1.26.43-2.06.43a4.7 4.7 0 01-3.07-.95c-.76-.63-1.16-1.58-1.2-2.84h2.65c.01.47.15.84.4 1.12.26.26.63.4 1.12.4.42 0 .74-.12.96-.36.24-.24.36-.56.36-.96 0-.5-.17-.88-.5-1.1-.32-.23-.84-.35-1.55-.35h-.51v-2.23h.5c.55 0 .99-.09 1.32-.27.34-.19.51-.53.51-1 0-.39-.1-.69-.32-.9-.21-.22-.5-.32-.88-.32-.4 0-.7.12-.91.37-.2.24-.3.54-.34.9H12.1zM11.49 148.9v-2.22l5.06-7.23h3.05v7.07h1.31v2.37h-1.3v2.08h-2.74v-2.08h-5.38zm5.57-6.44l-2.7 4.06h2.7v-4.06zM19.86 108.68h-5v2.2c.22-.23.52-.42.9-.57.39-.15.8-.23 1.25-.23.8 0 1.46.19 1.99.55.53.36.92.83 1.16 1.4.25.58.37 1.2.37 1.88 0 1.25-.35 2.24-1.05 2.97-.7.73-1.7 1.1-2.98 1.1a5.3 5.3 0 01-2.22-.44 3.47 3.47 0 01-1.46-1.23 3.55 3.55 0 01-.56-1.81h2.67c.07.33.22.6.47.83.24.22.58.32 1 .32.5 0 .88-.16 1.12-.48.25-.32.37-.75.37-1.28 0-.52-.13-.92-.38-1.2-.26-.28-.63-.41-1.12-.41-.36 0-.66.09-.9.27-.23.17-.39.4-.46.69h-2.64v-6.96h7.47v2.4zM17.52 77.44a1.6 1.6 0 00-.45-.88c-.21-.2-.51-.3-.9-.3-.62 0-1.05.27-1.32.8-.27.52-.4 1.35-.42 2.5a2.4 2.4 0 011.01-.88c.45-.22.94-.32 1.47-.32a3.3 3.3 0 012.52.99c.64.66.96 1.58.96 2.77 0 .77-.16 1.46-.48 2.04a3.3 3.3 0 01-1.38 1.38c-.6.33-1.3.5-2.13.5-1.64 0-2.78-.52-3.42-1.54-.64-1.03-.96-2.52-.96-4.45 0-2.02.33-3.53 1-4.51.69-1 1.78-1.49 3.27-1.49.8 0 1.47.16 2.02.48.55.31.97.72 1.24 1.23.3.52.46 1.08.52 1.68h-2.55zm-1.26 3.08c-.46 0-.85.13-1.15.41-.3.27-.45.65-.45 1.15 0 .52.14.92.41 1.2.3.3.7.44 1.22.44.47 0 .84-.14 1.1-.42.28-.29.42-.68.42-1.17 0-.5-.13-.9-.4-1.18-.27-.29-.65-.43-1.15-.43zM20.01 44.34L16 53.97h-2.8l4.06-9.33H12.3v-2.33H20v2.03zM13.57 16.7c-1-.53-1.5-1.37-1.5-2.51a2.86 2.86 0 011.8-2.7c.61-.3 1.36-.44 2.25-.44.88 0 1.62.15 2.22.43.6.28 1.06.66 1.36 1.14.3.47.45 1 .45 1.57a2.7 2.7 0 01-.42 1.5c-.27.43-.63.76-1.09 1.01.58.28 1.02.66 1.33 1.15.31.48.47 1.05.47 1.7a3.37 3.37 0 01-2.15 3.21c-.65.3-1.37.44-2.17.44-.8 0-1.54-.15-2.2-.44a3.37 3.37 0 01-2.13-3.22 3.04 3.04 0 011.78-2.85zm3.92-2.1c0-.43-.13-.77-.38-1a1.34 1.34 0 00-1-.37c-.41 0-.75.12-1 .37-.25.24-.37.58-.37 1.02 0 .42.13.75.38 1 .26.23.59.34 1 .34.4 0 .73-.12.99-.36.25-.25.38-.58.38-1zm-1.37 3.28c-.5 0-.91.14-1.22.42-.31.27-.46.64-.46 1.12 0 .45.15.82.44 1.1.31.3.72.44 1.24.44.5 0 .9-.15 1.2-.44.3-.28.44-.65.44-1.1 0-.47-.15-.84-.46-1.12-.3-.28-.7-.42-1.18-.42zM273.2 269.45c1.03 0 1.85.34 2.47 1.02.62.67.93 1.6.93 2.79v5.21h-2.72v-4.85c0-.6-.15-1.06-.46-1.39-.31-.33-.73-.5-1.25-.5s-.94.17-1.25.5c-.3.33-.46.8-.46 1.4v4.84h-2.74v-11.84h2.74v4.11c.27-.4.65-.7 1.13-.94a3.62 3.62 0 011.62-.35zM239.07 269.42c.63 0 1.18.12 1.65.38.48.26.85.6 1.1 1v-1.26h2.74v8.92a4.9 4.9 0 01-.5 2.22c-.31.67-.81 1.2-1.48 1.6-.66.4-1.5.6-2.48.6-1.32 0-2.4-.32-3.22-.95a3.51 3.51 0 01-1.4-2.53h2.7c.08.34.28.6.6.8.32.2.72.3 1.19.3.56 0 1.01-.16 1.34-.5.34-.31.51-.83.51-1.54v-1.27a3.1 3.1 0 01-2.75 1.41 3.7 3.7 0 01-3.42-2.18 5.51 5.51 0 01-.51-2.43c0-.92.17-1.72.5-2.41.36-.7.84-1.23 1.43-1.6a3.7 3.7 0 012-.56zm2.75 4.59c0-.69-.19-1.22-.57-1.62-.37-.4-.83-.59-1.38-.59-.54 0-1 .2-1.39.6a2.2 2.2 0 00-.56 1.6c0 .67.19 1.22.56 1.62.39.4.85.6 1.4.6.54 0 1-.2 1.37-.6.38-.4.57-.93.57-1.61zM210.7 271.82h-1.46v6.65h-2.74v-6.65h-1v-2.28h1v-.25c0-1.1.31-1.93.94-2.5.63-.57 1.56-.86 2.77-.86l.45.01v2.32c-.52-.03-.89.05-1.1.23-.22.18-.32.5-.32.97v.08h1.47v2.28zM180.6 273.86a7 7 0 01-.05.8h-6.2c.05.56.23.98.53 1.28.33.3.72.44 1.17.44.69 0 1.16-.3 1.43-.87h2.9a3.94 3.94 0 01-.8 1.59c-.4.46-.88.83-1.46 1.1a4.7 4.7 0 01-1.97.4 4.8 4.8 0 01-2.34-.56 4 4 0 01-1.6-1.6c-.38-.7-.57-1.5-.57-2.43 0-.93.18-1.74.56-2.43.38-.7.92-1.23 1.6-1.6a4.82 4.82 0 012.35-.56c.86 0 1.63.18 2.3.54.68.36 1.2.88 1.57 1.55.38.67.58 1.46.58 2.35zm-2.8-.72c0-.47-.16-.84-.48-1.12a1.76 1.76 0 00-1.2-.41c-.46 0-.85.13-1.17.4-.31.26-.5.64-.58 1.13h3.43zM139.14 274c0-.93.17-1.73.5-2.42.36-.7.84-1.23 1.43-1.6a3.7 3.7 0 012-.56c.59 0 1.12.12 1.6.36.5.25.88.58 1.16 1v-4.15h2.73v11.84h-2.74v-1.28c-.25.43-.62.77-1.1 1.03-.47.25-1.02.38-1.65.38a3.7 3.7 0 01-3.42-2.18 5.51 5.51 0 01-.51-2.43zm6.69 0c0-.68-.2-1.21-.58-1.6-.37-.4-.83-.6-1.38-.6-.54 0-1 .2-1.39.6a2.2 2.2 0 00-.56 1.6c0 .67.19 1.22.56 1.62.39.4.85.6 1.4.6.54 0 1-.2 1.37-.6.38-.4.57-.93.57-1.61zM107.72 274c0-.92.19-1.73.56-2.42a4 4 0 011.59-1.6 4.78 4.78 0 012.33-.56c1.12 0 2.06.29 2.8.88a4.13 4.13 0 011.5 2.48h-2.92c-.25-.69-.72-1.03-1.42-1.03-.5 0-.9.2-1.2.6-.3.38-.45.93-.45 1.66 0 .72.15 1.28.44 1.68.3.38.7.57 1.2.57.7 0 1.18-.34 1.43-1.02h2.91a4.19 4.19 0 01-1.49 2.46c-.75.6-1.69.9-2.8.9a4.8 4.8 0 01-2.33-.56c-.68-.37-1.2-.9-1.59-1.6-.37-.7-.56-1.5-.56-2.43zM78.42 270.8c.25-.4.62-.74 1.1-1a3.45 3.45 0 011.65-.38 3.7 3.7 0 013.4 2.16c.36.69.54 1.5.54 2.41 0 .92-.18 1.73-.53 2.43a3.7 3.7 0 01-3.4 2.18c-.64 0-1.19-.12-1.66-.37s-.84-.59-1.1-1v1.24h-2.74v-11.84h2.74v4.18zm3.9 3.2c0-.7-.2-1.22-.57-1.6-.38-.4-.84-.6-1.4-.6-.54 0-1 .2-1.39.6-.37.39-.56.93-.56 1.6 0 .69.19 1.23.56 1.62.39.4.85.6 1.4.6.54 0 1-.2 1.39-.6.38-.4.57-.95.57-1.63zM43.14 274c0-.93.17-1.73.51-2.42a3.7 3.7 0 013.42-2.16c.63 0 1.18.12 1.65.38.48.26.85.6 1.1 1v-1.26h2.74v8.93h-2.73v-1.26c-.27.41-.64.75-1.12 1-.47.26-1.02.39-1.65.39-.73 0-1.39-.19-1.99-.56a4.05 4.05 0 01-1.42-1.62 5.5 5.5 0 01-.51-2.43zm6.69 0c0-.68-.2-1.21-.58-1.6-.37-.4-.83-.6-1.38-.6-.54 0-1 .2-1.39.6a2.2 2.2 0 00-.56 1.6c0 .67.19 1.22.56 1.62.39.4.85.6 1.4.6.54 0 1-.2 1.37-.6.38-.4.58-.93.58-1.61z" fill="#000"/><mask id="a" maskUnits="userSpaceOnUse" x="102.01" y="98.81" width="20" height="25" fill="#000"><path fill="#fff" d="M102.01 98.81h20v25h-20z"/><path fill-rule="evenodd" clip-rule="evenodd" d="M112.7 103.94c.55-.26.93-.83.93-1.5 0-.9-.7-1.63-1.55-1.63-.85 0-1.54.73-1.54 1.63 0 .68.4 1.27.96 1.51l-6.5 9.4s3.13 7.53 7.1 7.48c3.96-.06 7.27-7.69 7.27-7.69l-6.67-9.2z"/></mask><path fill-rule="evenodd" clip-rule="evenodd" d="M112.7 103.94c.55-.26.93-.83.93-1.5 0-.9-.7-1.63-1.55-1.63-.85 0-1.54.73-1.54 1.63 0 .68.4 1.27.96 1.51l-6.5 9.4s3.13 7.53 7.1 7.48c3.96-.06 7.27-7.69 7.27-7.69l-6.67-9.2z" fill="#5C5C5C"/><path d="M112.7 103.94l-.84-1.82-2.2 1.02 1.42 1.97 1.62-1.17zm-1.2.01l1.65 1.14 1.39-2.01-2.25-.97-.79 1.84zm-6.5 9.4l-1.64-1.15-.62.9.42 1 1.85-.76zm7.1 7.48l.02 2-.03-2zm7.27-7.69l1.83.8.46-1.05-.67-.92-1.62 1.17zm-7.74-10.7c0-.1.05-.24.23-.32l1.68 3.63a3.64 3.64 0 002.09-3.31h-4zm.45.37a.5.5 0 01-.36-.15.33.33 0 01-.1-.22h4c0-1.9-1.48-3.63-3.54-3.63v4zm.46-.37c0 .06-.03.15-.1.22a.5.5 0 01-.36.15v-4a3.59 3.59 0 00-3.54 3.63h4zm-.25-.33c.19.08.25.23.25.33h-4c0 1.46.85 2.78 2.17 3.35l1.58-3.68zm-5.64 12.37l6.5-9.39-3.3-2.28-6.49 9.4 3.3 2.27zm5.42 4.35c-.34 0-.83-.15-1.49-.7-.64-.52-1.28-1.3-1.86-2.15a21.27 21.27 0 01-1.75-3.14l-.09-.2-.02-.06-1.85.76-1.85.77.01.03a5.84 5.84 0 00.16.35 25.68 25.68 0 002.08 3.74 14.3 14.3 0 002.63 3 6.33 6.33 0 004.08 1.6l-.05-4zm7.3-5.69l-1.84-.8v.02l-.02.05a14.25 14.25 0 01-.5 1c-.34.67-.84 1.55-1.44 2.42-.6.88-1.27 1.67-1.95 2.24-.69.57-1.2.75-1.55.76l.05 4a6.57 6.57 0 004.06-1.69c1.06-.88 1.97-2 2.68-3.04a26.83 26.83 0 002.33-4.13v-.02h.01v-.01l-1.83-.8zm-8.29-8.03l6.67 9.2 3.24-2.34-6.67-9.2-3.24 2.34z" fill="#000" mask="url(#a)"/><path d="M121.9 124.92h1v-2.56a3 3 0 00-3-3h-15.56a3 3 0 00-3 3v2.56h20.56z" fill="#5C5C5C" stroke="#000" stroke-width="2"/><path d="M112.12 110.58l3.55-2.66 1.34 1.77-4.89 3.56v-2.67z" fill="#000"/><mask id="b" maskUnits="userSpaceOnUse" x="134.01" y="162.81" width="20" height="25" fill="#000"><path fill="#fff" d="M134.01 162.81h20v25h-20z"/><path fill-rule="evenodd" clip-rule="evenodd" d="M144.7 167.94c.55-.26.93-.83.93-1.5 0-.9-.7-1.63-1.55-1.63-.85 0-1.54.73-1.54 1.63 0 .68.4 1.27.96 1.51l-6.5 9.4s3.13 7.53 7.1 7.48c3.96-.06 7.27-7.69 7.27-7.69l-6.67-9.2z"/></mask><path fill-rule="evenodd" clip-rule="evenodd" d="M144.7 167.94c.55-.26.93-.83.93-1.5 0-.9-.7-1.63-1.55-1.63-.85 0-1.54.73-1.54 1.63 0 .68.4 1.27.96 1.51l-6.5 9.4s3.13 7.53 7.1 7.48c3.96-.06 7.27-7.69 7.27-7.69l-6.67-9.2z" fill="#fff"/><path d="M144.7 167.94l-.84-1.82-2.2 1.02 1.42 1.97 1.62-1.18zm-1.2.01l1.65 1.14 1.39-2.01-2.25-.97-.79 1.84zm-6.5 9.4l-1.64-1.15-.62.9.42 1 1.85-.76zm7.1 7.48l.02 2-.03-2zm7.27-7.69l1.83.8.46-1.05-.67-.92-1.62 1.17zm-7.74-10.7c0-.1.05-.24.23-.32l1.68 3.63a3.64 3.64 0 002.09-3.31h-4zm.45.37a.5.5 0 01-.36-.15.33.33 0 01-.1-.22h4c0-1.9-1.48-3.63-3.54-3.63v4zm.46-.37c0 .06-.03.15-.1.22a.5.5 0 01-.36.15v-4a3.59 3.59 0 00-3.54 3.63h4zm-.25-.33c.19.08.25.23.25.33h-4c0 1.46.85 2.78 2.18 3.35l1.57-3.68zm-5.64 12.37l6.5-9.39-3.3-2.28-6.49 9.4 3.3 2.27zm5.42 4.35c-.34 0-.83-.15-1.49-.7-.64-.52-1.28-1.3-1.86-2.15a21.27 21.27 0 01-1.75-3.14l-.09-.2-.02-.05v-.01l-1.85.76-1.85.77.01.03a5.84 5.84 0 00.16.35 25.68 25.68 0 002.08 3.74 14.3 14.3 0 002.63 3 6.33 6.33 0 004.08 1.6l-.05-4zm7.3-5.69l-1.84-.8v.01l-.02.06a14.25 14.25 0 01-.5 1c-.34.67-.84 1.55-1.44 2.42-.6.88-1.27 1.67-1.95 2.24-.69.57-1.2.75-1.55.76l.05 4a6.57 6.57 0 004.06-1.69c1.06-.88 1.97-2 2.68-3.04a26.83 26.83 0 002.33-4.13v-.02h.01v-.01l-1.83-.8zm-8.29-8.03l6.67 9.2 3.24-2.34-6.67-9.2-3.24 2.34z" fill="#000" mask="url(#b)"/><path d="M153.9 188.92h1v-2.56a3 3 0 00-3-3h-15.56a3 3 0 00-3 3v2.56h20.56z" fill="#fff" stroke="#000" stroke-width="2"/><path d="M144.12 174.58l3.56-2.66 1.33 1.77-4.89 3.56v-2.67z" fill="#000"/><mask id="c" maskUnits="userSpaceOnUse" x="226.96" y="1.03" width="26" height="26" fill="#000"><path fill="#fff" d="M226.96 1.03h26v26h-26z"/><path fill-rule="evenodd" clip-rule="evenodd" d="M247.23 24.36l2.93-7.98a2 2 0 00-1.02-2.5c-3.56-1.68-5.71-2.62-8.1-2.81v-3.6h2.8V5.7h-2.8V3.03h-1.85v2.66h-2.78v1.78h2.78v3.6c-2.38.19-4.53 1.13-8.09 2.81a2 2 0 00-1.02 2.5l2.93 7.98h14.22zm-8.89-10.72c-1.12.2-2.39.56-4.04 1.1a1.99 1.99 0 00-1.16 2.78l1.65 3.29h3.55v-7.17zm7.6 1.1c-1.66-.54-2.92-.9-4.04-1.1v7.17h3.55l1.64-3.29c.54-1.08 0-2.4-1.15-2.78z"/></mask><path fill-rule="evenodd" clip-rule="evenodd" d="M247.23 24.36l2.93-7.98a2 2 0 00-1.02-2.5c-3.56-1.68-5.71-2.62-8.1-2.81v-3.6h2.8V5.7h-2.8V3.03h-1.85v2.66h-2.78v1.78h2.78v3.6c-2.38.19-4.53 1.13-8.09 2.81a2 2 0 00-1.02 2.5l2.93 7.98h14.22zm-8.89-10.72c-1.12.2-2.39.56-4.04 1.1a1.99 1.99 0 00-1.16 2.78l1.65 3.29h3.55v-7.17zm7.6 1.1c-1.66-.54-2.92-.9-4.04-1.1v7.17h3.55l1.64-3.29c.54-1.08 0-2.4-1.15-2.78z" fill="#5C5C5C"/><path d="M239.27 12.06c.57-.04 1.13-.04 1.7 0l.16-2c-.68-.05-1.34-.05-2.02 0l.16 2zm10.89 4.32l1.88.68-1.88-.68zm-2.93 7.98v2h1.4l.48-1.31-1.88-.69zm1.9-10.48l.86-1.8-.85 1.8zm-8.08-2.81h-2v1.84l1.83.15.17-2zm0-3.6v-2h-2v2h2zm2.78 0v2h2v-2h-2zm0-1.78h2v-2h-2v2zm-2.78 0h-2v2h2v-2zm0-2.66h2v-2h-2v2zm-1.86 0v-2h-2v2h2zm0 2.66v2h2v-2h-2zm-2.78 0v-2h-2v2h2zm0 1.78h-2v2h2v-2zm2.78 0h2v-2h-2v2zm0 3.6l.16 1.99 1.84-.15v-1.84h-2zm-8.09 2.81l.86 1.8-.86-1.8zm-1.02 2.5l1.88-.7-1.88.7zm2.93 7.98l-1.88.69.48 1.31h1.4v-2zm1.29-9.62l-.62-1.9.62 1.9zm4.04-1.1h2v-2.37l-2.34.4.34 1.97zm-5.2 3.88l1.8-.89-1.8.9zm1.65 3.29l-1.8.89.56 1.1h1.23v-2zm3.55 0v2h2v-2h-2zm3.56-7.17l.33-1.97-2.33-.4v2.37h2zm4.04 1.1l.62-1.9-.62 1.9zm-4.04 6.07h-2v2h2v-2zm3.55 0v2h1.24l.55-1.11-1.79-.9zm1.64-3.29l1.8.9-1.8-.9zm1.19-1.83l-2.93 7.98 3.76 1.38 2.92-7.99-3.75-1.37zm0 0l3.75 1.37a4 4 0 00-2.04-4.99l-1.7 3.62zm-7.4-2.63c1.96.16 3.79.92 7.4 2.63l1.71-3.62c-3.5-1.65-5.98-2.77-8.78-3l-.33 3.99zm-1.83-5.59v3.6h4v-3.6h-4zm4.78-2h-2.78v4h2.78v-4zm-2 .22v1.78h4V5.7h-4zm-.78 2h2.78v-4h-2.78v4zm-2-4.66v2.66h4V3.03h-4zm.14 2h1.86v-4h-1.86v4zm2 .66V3.03h-4v2.66h4zm-4.78 2h2.78v-4h-2.78v4zm2-.22V5.7h-4v1.78h4zm.78-2h-2.78v4h2.78v-4zm2 5.6v-3.6h-4v3.6h4zm-9.23 4.62c3.6-1.71 5.44-2.47 7.4-2.63l-.33-3.99c-2.8.23-5.28 1.35-8.79 3l1.72 3.62zm0 0l-1.72-3.62a4 4 0 00-2.04 5l3.76-1.38zm2.92 7.98l-2.92-7.98-3.76 1.37 2.93 7.99 3.75-1.38zm12.35-1.3h-14.22v4h14.22v-4zm-12.31-5.73a27.6 27.6 0 013.76-1.03l-.68-3.94a31.3 31.3 0 00-4.32 1.17l1.24 3.8zm.01-.01v.01h-.01l-1.24-3.8a3.99 3.99 0 00-2.32 5.58l3.57-1.79zm1.64 3.28l-1.64-3.28-3.57 1.79L233 21.7l3.57-1.79zm1.77-1.1h-3.56v4h3.56v-4zm-2-5.17v7.17h4v-7.17h-4zm5.22 1.97c.97.17 2.11.5 3.76 1.03l1.24-3.8a31.3 31.3 0 00-4.33-1.17l-.67 3.94zm2.34 5.2v-7.17h-4v7.17h4zm1.55-2h-3.55v4h3.55v-4zm-.15-2.18l-1.64 3.28 3.58 1.79 1.64-3.28-3.58-1.79zm.02.01h-.01s0-.01 0 0v-.01l3.57 1.79a3.99 3.99 0 00-2.32-5.58l-1.24 3.8z" fill="#000" mask="url(#c)"/><path d="M249.9 28.92h1v-2.56a3 3 0 00-3-3h-15.56a3 3 0 00-3 3v2.56h20.56z" fill="#5C5C5C" stroke="#000" stroke-width="2"/><mask id="d" maskUnits="userSpaceOnUse" x="226.96" y="225.03" width="26" height="26" fill="#000"><path fill="#fff" d="M226.96 225.03h26v26h-26z"/><path fill-rule="evenodd" clip-rule="evenodd" d="M247.23 248.36l2.93-7.98a2 2 0 00-1.02-2.5c-3.56-1.68-5.71-2.62-8.1-2.81v-3.6h2.8v-1.78h-2.8v-2.66h-1.85v2.66h-2.78v1.78h2.78v3.6c-2.38.19-4.53 1.13-8.09 2.81a2 2 0 00-1.02 2.5l2.93 7.98h14.22zm-8.89-10.72c-1.12.2-2.39.56-4.04 1.1a1.99 1.99 0 00-1.16 2.78l1.65 3.28h3.55v-7.16zm7.6 1.1c-1.66-.54-2.92-.9-4.04-1.1v7.17h3.55l1.64-3.29c.54-1.08 0-2.4-1.15-2.78z"/></mask><path fill-rule="evenodd" clip-rule="evenodd" d="M247.23 248.36l2.93-7.98a2 2 0 00-1.02-2.5c-3.56-1.68-5.71-2.62-8.1-2.81v-3.6h2.8v-1.78h-2.8v-2.66h-1.85v2.66h-2.78v1.78h2.78v3.6c-2.38.19-4.53 1.13-8.09 2.81a2 2 0 00-1.02 2.5l2.93 7.98h14.22zm-8.89-10.72c-1.12.2-2.39.56-4.04 1.1a1.99 1.99 0 00-1.16 2.78l1.65 3.28h3.55v-7.16zm7.6 1.1c-1.66-.54-2.92-.9-4.04-1.1v7.17h3.55l1.64-3.29c.54-1.08 0-2.4-1.15-2.78z" fill="#fff"/><path d="M239.27 236.06a10.4 10.4 0 011.7 0l.16-2c-.68-.05-1.34-.05-2.02 0l.16 2zm10.89 4.32l1.88.69-1.88-.7zm-2.93 7.98v2h1.4l.48-1.31-1.88-.69zm1.9-10.48l.86-1.8-.85 1.8zm-8.08-2.81h-2v1.84l1.83.15.17-2zm0-3.6v-2h-2v2h2zm2.78 0v2h2v-2h-2zm0-1.78h2v-2h-2v2zm-2.78 0h-2v2h2v-2zm0-2.66h2v-2h-2v2zm-1.86 0v-2h-2v2h2zm0 2.66v2h2v-2h-2zm-2.78 0v-2h-2v2h2zm0 1.78h-2v2h2v-2zm2.78 0h2v-2h-2v2zm0 3.6l.16 1.99 1.84-.15v-1.84h-2zm-8.09 2.81l.86 1.8-.86-1.8zm-1.02 2.5l1.88-.7-1.88.7zm2.93 7.98l-1.88.69.48 1.31h1.4v-2zm1.29-9.62l-.62-1.9.62 1.9zm4.04-1.1h2v-2.37l-2.34.4.34 1.97zm-5.2 3.89l1.8-.9-1.8.9zm1.65 3.28l-1.8.89.56 1.1h1.23v-2zm3.55 0v2h2v-2h-2zm3.56-7.17l.33-1.97-2.33-.4v2.37h2zm4.04 1.1l-.62 1.9.62-1.9zm-4.04 6.06h-2v2h2v-2zm3.55 0v2h1.24l.55-1.1-1.79-.9zm1.64-3.28l1.8.9-1.8-.9zm1.19-1.83l-2.93 7.98 3.76 1.38 2.92-7.99-3.75-1.37zm0 0l3.75 1.38a4 4 0 00-2.04-5l-1.7 3.62zm-7.4-2.63c1.96.16 3.79.92 7.4 2.63l1.71-3.62c-3.5-1.65-5.98-2.77-8.78-3l-.33 3.99zm-1.83-5.59v3.6h4v-3.6h-4zm4.78-2h-2.78v4h2.78v-4zm-2 .22v1.78h4v-1.78h-4zm-.78 2h2.78v-4h-2.78v4zm-2-4.66v2.66h4v-2.66h-4zm.14 2h1.86v-4h-1.86v4zm2 .66v-2.66h-4v2.66h4zm-4.78 2h2.78v-4h-2.78v4zm2-.22v-1.78h-4v1.78h4zm.78-2h-2.78v4h2.78v-4zm2 5.6v-3.6h-4v3.6h4zm-9.23 4.62c3.6-1.71 5.44-2.47 7.4-2.63l-.33-3.99c-2.8.23-5.28 1.35-8.79 3l1.72 3.62zm0 0l-1.72-3.62a4 4 0 00-2.04 5l3.76-1.38zm2.92 7.98l-2.92-7.98-3.76 1.38 2.93 7.98 3.75-1.38zm12.35-1.3h-14.22v4h14.22v-4zm-12.31-5.73c1.64-.53 2.79-.86 3.76-1.03l-.68-3.94c-1.28.22-2.66.63-4.32 1.17l1.24 3.8zm.01-.01v.01h-.01l-1.24-3.8a3.99 3.99 0 00-2.32 5.58l3.57-1.79zm1.64 3.28l-1.64-3.28-3.57 1.79 1.64 3.28 3.57-1.79zm1.77-1.1h-3.56v4h3.56v-4zm-2-5.17v7.17h4v-7.17h-4zm5.22 1.97c.97.17 2.11.5 3.76 1.03l1.24-3.8a31.44 31.44 0 00-4.33-1.17l-.67 3.94zm2.34 5.2v-7.17h-4v7.17h4zm1.55-2h-3.55v4h3.55v-4zm-.15-2.18l-1.64 3.28 3.58 1.79 1.64-3.28-3.58-1.79zm.02.01h-.01s0-.01 0 0v-.01l3.57 1.79a3.99 3.99 0 00-2.32-5.58l-1.24 3.8z" fill="#000" mask="url(#d)"/><path d="M249.9 252.92h1v-2.56a3 3 0 00-3-3h-15.56a3 3 0 00-3 3v2.56h20.56zM115.9 184.47h.54l.3-.45-.84-.55.84.55h0V184l.03-.04.1-.15a29.16 29.16 0 001.44-2.53 28.52 28.52 0 002.39-6.06c.54-2.2.7-4.64-.4-6.57-1.16-2.02-3.49-3.15-7.14-3.16h-.02a.37.37 0 01-.13-.05s0 0 0 0c-.03-.02-.2-.12-.2-.63v-1h-1c-.51 0-.95.28-1.19.45-.28.2-.56.46-.78.69a11.53 11.53 0 00-.72.81l-2.6 1.9-.15.12-.1.17-2.72 4.4-.25.4.15.44 1 3.04.41 1.28 1.1-.77 2.32-1.63 1.7-1.13c.87.31 1.24.67 1.4.87a1 1 0 01.06.1l-.04.1a16.52 16.52 0 01-3.55 4.57 3.17 3.17 0 00-.66 3.96l.24.4.29.5h8.18z" fill="#fff" stroke="#000" stroke-width="2"/><path d="M121.9 188.92h1v-2.56a3 3 0 00-3-3h-15.56a3 3 0 00-3 3v2.56h20.56z" fill="#fff" stroke="#000" stroke-width="2"/><path d="M107.67 169.25l.9-.44v.33a1 1 0 01-1 1h-.34l.44-.89z" fill="#000"/><path d="M211.9 88.47h.54l.3-.45-.84-.55.84.55h0V88l.03-.04a9.19 9.19 0 00.44-.7 38 38 0 001.1-1.98 28.52 28.52 0 002.39-6.06c.54-2.2.7-4.64-.4-6.57-1.16-2.02-3.49-3.15-7.14-3.16h-.02a.4.4 0 01-.13-.05s0 0 0 0c-.03-.02-.2-.12-.2-.63v-1h-1c-.51 0-.95.28-1.19.45-.28.2-.56.46-.78.69a11.5 11.5 0 00-.72.81l-2.6 1.9-.15.12-.1.17-2.72 4.4-.25.4.15.44 1 3.04.41 1.28 1.1-.78 2.32-1.62 1.7-1.13c.87.31 1.24.67 1.4.87l.06.1-.04.1a16.53 16.53 0 01-3.54 4.57 3.17 3.17 0 00-.67 3.96l.24.4.29.5h8.18z" fill="#5C5C5C" stroke="#000" stroke-width="2"/><path d="M217.9 92.92h1v-2.56a3 3 0 00-3-3h-15.56a3 3 0 00-3 3v2.56h20.56z" fill="#5C5C5C" stroke="#000" stroke-width="2"/><path d="M203.68 73.25l.88-.44v.33a1 1 0 01-1 1h-.33l.45-.89z" fill="#000"/><mask id="e" maskUnits="userSpaceOnUse" x="41.79" y="201.92" width="12" height="18" fill="#000"><path fill="#fff" d="M41.79 201.92h12v18h-12z"/><path fill-rule="evenodd" clip-rule="evenodd" d="M49.29 210.83a3.56 3.56 0 10-2.33 0c.03 2.85-1.48 6.42-4.17 6.42h10.66c-2.7 0-4.18-3.58-4.16-6.42z"/></mask><path fill-rule="evenodd" clip-rule="evenodd" d="M49.29 210.83a3.56 3.56 0 10-2.33 0c.03 2.85-1.48 6.42-4.17 6.42h10.66c-2.7 0-4.18-3.58-4.16-6.42z" fill="#fff"/><path d="M49.29 210.83l-.66-1.89-1.34.47v1.41l2 .01zm-2.33 0l2-.01v-1.42l-1.35-.46-.65 1.9zm2.71-3.36c0 .68-.43 1.26-1.04 1.47l1.31 3.78a5.56 5.56 0 003.73-5.25h-4zm-1.55-1.55c.86 0 1.55.7 1.55 1.55h4a5.56 5.56 0 00-5.55-5.55v4zm-1.56 1.55c0-.86.7-1.55 1.56-1.55v-4a5.56 5.56 0 00-5.56 5.55h4zm1.05 1.47a1.56 1.56 0 01-1.05-1.47h-4c0 2.44 1.57 4.51 3.76 5.26l1.3-3.79zm-4.82 10.3c2.35 0 3.95-1.57 4.84-3.14.9-1.59 1.35-3.55 1.33-5.28l-4 .03a6.84 6.84 0 01-.8 3.27c-.53.92-1.03 1.13-1.37 1.13v4zm10.66-4H42.8v4h10.66v-4zm-6.16-4.42c-.01 1.72.42 3.68 1.32 5.27.89 1.57 2.48 3.16 4.84 3.16v-4c-.33 0-.83-.2-1.36-1.13a6.96 6.96 0 01-.8-3.28l-4-.02z" fill="#000" mask="url(#e)"/><path d="M55.23 220.92h1v-1.67a3 3 0 00-3-3H43.01a3 3 0 00-3 3v1.67h15.22z" fill="#fff" stroke="#000" stroke-width="2"/><mask id="f" maskUnits="userSpaceOnUse" x="41.79" y="41.92" width="12" height="18" fill="#000"><path fill="#fff" d="M41.79 41.92h12v18h-12z"/><path fill-rule="evenodd" clip-rule="evenodd" d="M49.29 50.83a3.56 3.56 0 10-2.33 0c.03 2.85-1.48 6.42-4.17 6.42h10.66c-2.7 0-4.18-3.58-4.16-6.42z"/></mask><path fill-rule="evenodd" clip-rule="evenodd" d="M49.29 50.83a3.56 3.56 0 10-2.33 0c.03 2.85-1.48 6.42-4.17 6.42h10.66c-2.7 0-4.18-3.58-4.16-6.42z" fill="#5C5C5C"/><path d="M49.29 50.83l-.66-1.89-1.34.47v1.41l2 .01zm-2.33 0l2-.01V49.4l-1.35-.46-.65 1.9zm2.71-3.36c0 .68-.43 1.26-1.04 1.47l1.31 3.78a5.56 5.56 0 003.73-5.25h-4zm-1.55-1.55c.86 0 1.55.7 1.55 1.55h4a5.56 5.56 0 00-5.55-5.55v4zm-1.56 1.55c0-.86.7-1.55 1.56-1.55v-4a5.56 5.56 0 00-5.56 5.55h4zm1.05 1.47a1.56 1.56 0 01-1.05-1.47h-4c0 2.44 1.57 4.51 3.76 5.26l1.3-3.79zm-4.82 10.3c2.35 0 3.95-1.57 4.84-3.14.9-1.59 1.35-3.55 1.33-5.28l-4 .03a6.83 6.83 0 01-.8 3.27c-.53.92-1.03 1.13-1.37 1.13v4zm10.66-4H42.8v4h10.66v-4zm-6.16-4.42c-.01 1.72.42 3.68 1.32 5.27.89 1.57 2.48 3.16 4.84 3.16v-4c-.33 0-.83-.2-1.36-1.13a6.96 6.96 0 01-.8-3.28l-4-.02z" fill="#000" mask="url(#f)"/><path d="M55.23 60.92h1v-1.67a3 3 0 00-3-3H43.01a3 3 0 00-3 3v1.67h15.22z" fill="#5C5C5C" stroke="#000" stroke-width="2"/><mask id="g" maskUnits="userSpaceOnUse" x="169.78" y="105.92" width="12" height="18" fill="#000"><path fill="#fff" d="M169.78 105.92h12v18h-12z"/><path fill-rule="evenodd" clip-rule="evenodd" d="M177.29 114.83a3.56 3.56 0 10-2.32 0c.02 2.85-1.49 6.42-4.19 6.42h10.67c-2.7 0-4.18-3.58-4.16-6.42z"/></mask><path fill-rule="evenodd" clip-rule="evenodd" d="M177.29 114.83a3.56 3.56 0 10-2.32 0c.02 2.85-1.49 6.42-4.19 6.42h10.67c-2.7 0-4.18-3.58-4.16-6.42z" fill="#5C5C5C"/><path d="M177.29 114.83l-.66-1.89-1.34.47v1.41l2 .01zm-2.32 0l2-.01-.02-1.42-1.34-.46-.65 1.9zm2.7-3.36c0 .68-.43 1.26-1.04 1.47l1.31 3.78a5.56 5.56 0 003.73-5.25h-4zm-1.55-1.55c.86 0 1.55.7 1.55 1.55h4a5.56 5.56 0 00-5.55-5.55v4zm-1.56 1.55c0-.86.7-1.55 1.56-1.55v-4a5.56 5.56 0 00-5.56 5.55h4zm1.05 1.47a1.56 1.56 0 01-1.05-1.47h-4c0 2.44 1.57 4.51 3.76 5.26l1.3-3.79zm-4.83 10.3c2.36 0 3.96-1.57 4.85-3.14.9-1.59 1.35-3.55 1.33-5.28l-4 .03a6.84 6.84 0 01-.8 3.27c-.53.92-1.03 1.13-1.38 1.13v4zm10.67-4H170.8v4h10.66v-4zm-6.16-4.42c-.01 1.72.43 3.68 1.32 5.27.89 1.57 2.48 3.16 4.84 3.16v-4c-.33 0-.83-.2-1.35-1.13a6.96 6.96 0 01-.81-3.28l-4-.02z" fill="#000" mask="url(#g)"/><path d="M183.23 124.92h1v-1.67a3 3 0 00-3-3h-10.22a3 3 0 00-3 3v1.67h15.22z" fill="#5C5C5C" stroke="#000" stroke-width="2"/><mask id="h" maskUnits="userSpaceOnUse" x="105.78" y="201.92" width="12" height="18" fill="#000"><path fill="#fff" d="M105.78 201.92h12v18h-12z"/><path fill-rule="evenodd" clip-rule="evenodd" d="M113.29 210.83a3.56 3.56 0 10-2.33 0c.03 2.85-1.48 6.42-4.17 6.42h10.66c-2.7 0-4.18-3.58-4.16-6.42z"/></mask><path fill-rule="evenodd" clip-rule="evenodd" d="M113.29 210.83a3.56 3.56 0 10-2.33 0c.03 2.85-1.48 6.42-4.17 6.42h10.66c-2.7 0-4.18-3.58-4.16-6.42z" fill="#fff"/><path d="M113.29 210.83l-.66-1.89-1.34.47v1.41l2 .01zm-2.33 0l2-.01v-1.42l-1.35-.46-.64 1.9zm2.71-3.36c0 .68-.43 1.26-1.04 1.47l1.31 3.78a5.56 5.56 0 003.73-5.25h-4zm-1.55-1.55c.86 0 1.55.7 1.55 1.55h4a5.56 5.56 0 00-5.55-5.55v4zm-1.56 1.55c0-.86.7-1.55 1.56-1.55v-4a5.56 5.56 0 00-5.56 5.55h4zm1.05 1.47a1.56 1.56 0 01-1.05-1.47h-4c0 2.44 1.58 4.51 3.76 5.26l1.3-3.79zm-4.83 10.3c2.36 0 3.96-1.57 4.85-3.14.9-1.59 1.35-3.55 1.33-5.28l-4 .03a6.84 6.84 0 01-.8 3.27c-.53.92-1.03 1.13-1.38 1.13v4zm10.67-4h-10.67v4h10.67v-4zm-6.16-4.42c-.01 1.72.42 3.68 1.32 5.27.89 1.57 2.48 3.16 4.84 3.16v-4c-.33 0-.83-.2-1.36-1.13a6.96 6.96 0 01-.8-3.28l-4-.02z" fill="#000" mask="url(#h)"/><path d="M119.23 220.92h1v-1.67a3 3 0 00-3-3h-10.22a3 3 0 00-3 3v1.67h15.22z" fill="#fff" stroke="#000" stroke-width="2"/><mask id="i" maskUnits="userSpaceOnUse" x="105.78" y="41.92" width="12" height="18" fill="#000"><path fill="#fff" d="M105.78 41.92h12v18h-12z"/><path fill-rule="evenodd" clip-rule="evenodd" d="M113.29 50.83a3.56 3.56 0 10-2.33 0c.03 2.85-1.48 6.42-4.17 6.42h10.66c-2.7 0-4.18-3.58-4.16-6.42z"/></mask><path fill-rule="evenodd" clip-rule="evenodd" d="M113.29 50.83a3.56 3.56 0 10-2.33 0c.03 2.85-1.48 6.42-4.17 6.42h10.66c-2.7 0-4.18-3.58-4.16-6.42z" fill="#5C5C5C"/><path d="M113.29 50.83l-.66-1.89-1.34.47v1.41l2 .01zm-2.33 0l2-.01V49.4l-1.35-.46-.64 1.9zm2.71-3.36c0 .68-.43 1.26-1.04 1.47l1.31 3.78a5.56 5.56 0 003.73-5.25h-4zm-1.55-1.55c.86 0 1.55.7 1.55 1.55h4a5.56 5.56 0 00-5.55-5.55v4zm-1.56 1.55c0-.86.7-1.55 1.56-1.55v-4a5.56 5.56 0 00-5.56 5.55h4zm1.05 1.47a1.56 1.56 0 01-1.05-1.47h-4c0 2.44 1.58 4.51 3.76 5.26l1.3-3.79zm-4.83 10.3c2.36 0 3.96-1.57 4.85-3.14.9-1.59 1.35-3.55 1.33-5.28l-4 .03a6.83 6.83 0 01-.8 3.27c-.53.92-1.03 1.13-1.38 1.13v4zm10.67-4h-10.67v4h10.67v-4zm-6.16-4.42c-.01 1.72.42 3.68 1.32 5.27.89 1.57 2.48 3.16 4.84 3.16v-4c-.33 0-.83-.2-1.36-1.13a6.96 6.96 0 01-.8-3.28l-4-.02z" fill="#000" mask="url(#i)"/><path d="M119.23 60.92h1v-1.67a3 3 0 00-3-3h-10.22a3 3 0 00-3 3v1.67h15.22z" fill="#5C5C5C" stroke="#000" stroke-width="2"/><mask id="j" maskUnits="userSpaceOnUse" x="233.78" y="201.92" width="12" height="18" fill="#000"><path fill="#fff" d="M233.78 201.92h12v18h-12z"/><path fill-rule="evenodd" clip-rule="evenodd" d="M241.29 210.83a3.56 3.56 0 10-2.32 0c.02 2.85-1.49 6.42-4.19 6.42h10.67c-2.7 0-4.18-3.58-4.16-6.42z"/></mask><path fill-rule="evenodd" clip-rule="evenodd" d="M241.29 210.83a3.56 3.56 0 10-2.32 0c.02 2.85-1.49 6.42-4.19 6.42h10.67c-2.7 0-4.18-3.58-4.16-6.42z" fill="#fff"/><path d="M241.29 210.83l-.66-1.89-1.34.47v1.41l2 .01zm-2.32 0l2-.01-.02-1.42-1.34-.46-.65 1.9zm2.7-3.36c0 .68-.43 1.26-1.04 1.47l1.31 3.78a5.56 5.56 0 003.73-5.25h-4zm-1.55-1.55c.86 0 1.55.7 1.55 1.55h4a5.56 5.56 0 00-5.55-5.55v4zm-1.56 1.55c0-.86.7-1.55 1.56-1.55v-4a5.56 5.56 0 00-5.56 5.55h4zm1.05 1.47a1.56 1.56 0 01-1.05-1.47h-4c0 2.44 1.57 4.51 3.76 5.26l1.3-3.79zm-4.83 10.3c2.36 0 3.96-1.57 4.85-3.14.9-1.59 1.35-3.55 1.33-5.28l-4 .03a6.84 6.84 0 01-.8 3.27c-.53.92-1.03 1.13-1.38 1.13v4zm10.67-4H234.8v4h10.66v-4zm-6.16-4.42c-.01 1.72.43 3.68 1.32 5.27.89 1.57 2.48 3.16 4.84 3.16v-4c-.33 0-.83-.2-1.35-1.13a6.96 6.96 0 01-.81-3.28l-4-.02z" fill="#000" mask="url(#j)"/><path d="M247.23 220.92h1v-1.67a3 3 0 00-3-3h-10.22a3 3 0 00-3 3v1.67h15.22z" fill="#fff" stroke="#000" stroke-width="2"/><mask id="k" maskUnits="userSpaceOnUse" x="233.78" y="41.92" width="12" height="18" fill="#000"><path fill="#fff" d="M233.78 41.92h12v18h-12z"/><path fill-rule="evenodd" clip-rule="evenodd" d="M241.29 50.83a3.56 3.56 0 10-2.32 0c.02 2.85-1.49 6.42-4.19 6.42h10.67c-2.7 0-4.18-3.58-4.16-6.42z"/></mask><path fill-rule="evenodd" clip-rule="evenodd" d="M241.29 50.83a3.56 3.56 0 10-2.32 0c.02 2.85-1.49 6.42-4.19 6.42h10.67c-2.7 0-4.18-3.58-4.16-6.42z" fill="#5C5C5C"/><path d="M241.29 50.83l-.66-1.89-1.34.47v1.41l2 .01zm-2.32 0l2-.01-.02-1.42-1.34-.46-.65 1.9zm2.7-3.36c0 .68-.43 1.26-1.04 1.47l1.31 3.78a5.56 5.56 0 003.73-5.25h-4zm-1.55-1.55c.86 0 1.55.7 1.55 1.55h4a5.56 5.56 0 00-5.55-5.55v4zm-1.56 1.55c0-.86.7-1.55 1.56-1.55v-4a5.56 5.56 0 00-5.56 5.55h4zm1.05 1.47a1.56 1.56 0 01-1.05-1.47h-4c0 2.44 1.57 4.51 3.76 5.26l1.3-3.79zm-4.83 10.3c2.36 0 3.96-1.57 4.85-3.14.9-1.59 1.35-3.55 1.33-5.28l-4 .03a6.83 6.83 0 01-.8 3.27c-.53.92-1.03 1.13-1.38 1.13v4zm10.67-4H234.8v4h10.66v-4zm-6.16-4.42c-.01 1.72.43 3.68 1.32 5.27.89 1.57 2.48 3.16 4.84 3.16v-4c-.33 0-.83-.2-1.35-1.13a6.96 6.96 0 01-.81-3.28l-4-.02z" fill="#000" mask="url(#k)"/><path d="M247.23 60.92h1v-1.67a3 3 0 00-3-3h-10.22a3 3 0 00-3 3v1.67h15.22z" fill="#5C5C5C" stroke="#000" stroke-width="2"/><mask id="l" maskUnits="userSpaceOnUse" x="73.79" y="201.92" width="12" height="18" fill="#000"><path fill="#fff" d="M73.79 201.92h12v18h-12z"/><path fill-rule="evenodd" clip-rule="evenodd" d="M81.29 210.83a3.56 3.56 0 10-2.33 0c.03 2.85-1.48 6.42-4.17 6.42h10.66c-2.7 0-4.18-3.58-4.16-6.42z"/></mask><path fill-rule="evenodd" clip-rule="evenodd" d="M81.29 210.83a3.56 3.56 0 10-2.33 0c.03 2.85-1.48 6.42-4.17 6.42h10.66c-2.7 0-4.18-3.58-4.16-6.42z" fill="#fff"/><path d="M81.29 210.83l-.66-1.89-1.34.47v1.41l2 .01zm-2.33 0l2-.01v-1.42l-1.35-.46-.65 1.9zm2.71-3.36c0 .68-.43 1.26-1.04 1.47l1.31 3.78a5.56 5.56 0 003.73-5.25h-4zm-1.55-1.55c.86 0 1.55.7 1.55 1.55h4a5.56 5.56 0 00-5.55-5.55v4zm-1.56 1.55c0-.86.7-1.55 1.56-1.55v-4a5.56 5.56 0 00-5.56 5.55h4zm1.05 1.47a1.56 1.56 0 01-1.05-1.47h-4c0 2.44 1.58 4.51 3.76 5.26l1.3-3.79zm-4.82 10.3c2.35 0 3.95-1.57 4.84-3.14.9-1.59 1.35-3.55 1.33-5.28l-4 .03a6.84 6.84 0 01-.8 3.27c-.53.92-1.03 1.13-1.37 1.13v4zm10.66-4H74.8v4h10.66v-4zm-6.16-4.42c-.01 1.72.42 3.68 1.32 5.27.89 1.57 2.48 3.16 4.84 3.16v-4c-.33 0-.83-.2-1.36-1.13a6.96 6.96 0 01-.8-3.28l-4-.02z" fill="#000" mask="url(#l)"/><path d="M87.23 220.92h1v-1.67a3 3 0 00-3-3H75.01a3 3 0 00-3 3v1.67h15.22z" fill="#fff" stroke="#000" stroke-width="2"/><mask id="m" maskUnits="userSpaceOnUse" x="73.79" y="41.92" width="12" height="18" fill="#000"><path fill="#fff" d="M73.79 41.92h12v18h-12z"/><path fill-rule="evenodd" clip-rule="evenodd" d="M81.29 50.83a3.56 3.56 0 10-2.33 0c.03 2.85-1.48 6.42-4.17 6.42h10.66c-2.7 0-4.18-3.58-4.16-6.42z"/></mask><path fill-rule="evenodd" clip-rule="evenodd" d="M81.29 50.83a3.56 3.56 0 10-2.33 0c.03 2.85-1.48 6.42-4.17 6.42h10.66c-2.7 0-4.18-3.58-4.16-6.42z" fill="#5C5C5C"/><path d="M81.29 50.83l-.66-1.89-1.34.47v1.41l2 .01zm-2.33 0l2-.01V49.4l-1.35-.46-.65 1.9zm2.71-3.36c0 .68-.43 1.26-1.04 1.47l1.31 3.78a5.56 5.56 0 003.73-5.25h-4zm-1.55-1.55c.86 0 1.55.7 1.55 1.55h4a5.56 5.56 0 00-5.55-5.55v4zm-1.56 1.55c0-.86.7-1.55 1.56-1.55v-4a5.56 5.56 0 00-5.56 5.55h4zm1.05 1.47a1.56 1.56 0 01-1.05-1.47h-4c0 2.44 1.58 4.51 3.76 5.26l1.3-3.79zm-4.82 10.3c2.35 0 3.95-1.57 4.84-3.14.9-1.59 1.35-3.55 1.33-5.28l-4 .03a6.83 6.83 0 01-.8 3.27c-.53.92-1.03 1.13-1.37 1.13v4zm10.66-4H74.8v4h10.66v-4zm-6.16-4.42c-.01 1.72.42 3.68 1.32 5.27.89 1.57 2.48 3.16 4.84 3.16v-4c-.33 0-.83-.2-1.36-1.13a6.96 6.96 0 01-.8-3.28l-4-.02z" fill="#000" mask="url(#m)"/><path d="M87.23 60.92h1v-1.67a3 3 0 00-3-3H75.01a3 3 0 00-3 3v1.67h15.22z" fill="#5C5C5C" stroke="#000" stroke-width="2"/><mask id="n" maskUnits="userSpaceOnUse" x="201.78" y="201.92" width="12" height="18" fill="#000"><path fill="#fff" d="M201.78 201.92h12v18h-12z"/><path fill-rule="evenodd" clip-rule="evenodd" d="M209.29 210.83a3.56 3.56 0 10-2.32 0c.02 2.85-1.49 6.42-4.19 6.42h10.67c-2.7 0-4.18-3.58-4.16-6.42z"/></mask><path fill-rule="evenodd" clip-rule="evenodd" d="M209.29 210.83a3.56 3.56 0 10-2.32 0c.02 2.85-1.49 6.42-4.19 6.42h10.67c-2.7 0-4.18-3.58-4.16-6.42z" fill="#fff"/><path d="M209.29 210.83l-.66-1.89-1.34.47v1.41l2 .01zm-2.32 0l2-.01-.02-1.42-1.34-.46-.65 1.9zm2.7-3.36c0 .68-.43 1.26-1.04 1.47l1.31 3.78a5.56 5.56 0 003.73-5.25h-4zm-1.55-1.55c.86 0 1.55.7 1.55 1.55h4a5.56 5.56 0 00-5.55-5.55v4zm-1.56 1.55c0-.86.7-1.55 1.56-1.55v-4a5.56 5.56 0 00-5.56 5.55h4zm1.05 1.47a1.56 1.56 0 01-1.05-1.47h-4c0 2.44 1.57 4.51 3.76 5.26l1.3-3.79zm-4.83 10.3c2.36 0 3.96-1.57 4.85-3.14.9-1.59 1.35-3.55 1.33-5.28l-4 .03a6.84 6.84 0 01-.8 3.27c-.53.92-1.03 1.13-1.38 1.13v4zm10.67-4H202.8v4h10.66v-4zm-6.16-4.42c-.01 1.72.43 3.68 1.32 5.27.89 1.57 2.48 3.16 4.84 3.16v-4c-.33 0-.83-.2-1.35-1.13a6.96 6.96 0 01-.81-3.28l-4-.02z" fill="#000" mask="url(#n)"/><path d="M215.23 220.92h1v-1.67a3 3 0 00-3-3h-10.22a3 3 0 00-3 3v1.67h15.22z" fill="#fff" stroke="#000" stroke-width="2"/><mask id="o" maskUnits="userSpaceOnUse" x="201.78" y="41.92" width="12" height="18" fill="#000"><path fill="#fff" d="M201.78 41.92h12v18h-12z"/><path fill-rule="evenodd" clip-rule="evenodd" d="M209.29 50.83a3.56 3.56 0 10-2.32 0c.02 2.85-1.49 6.42-4.19 6.42h10.67c-2.7 0-4.18-3.58-4.16-6.42z"/></mask><path fill-rule="evenodd" clip-rule="evenodd" d="M209.29 50.83a3.56 3.56 0 10-2.32 0c.02 2.85-1.49 6.42-4.19 6.42h10.67c-2.7 0-4.18-3.58-4.16-6.42z" fill="#5C5C5C"/><path d="M209.29 50.83l-.66-1.89-1.34.47v1.41l2 .01zm-2.32 0l2-.01-.02-1.42-1.34-.46-.65 1.9zm2.7-3.36c0 .68-.43 1.26-1.04 1.47l1.31 3.78a5.56 5.56 0 003.73-5.25h-4zm-1.55-1.55c.86 0 1.55.7 1.55 1.55h4a5.56 5.56 0 00-5.55-5.55v4zm-1.56 1.55c0-.86.7-1.55 1.56-1.55v-4a5.56 5.56 0 00-5.56 5.55h4zm1.05 1.47a1.56 1.56 0 01-1.05-1.47h-4c0 2.44 1.57 4.51 3.76 5.26l1.3-3.79zm-4.83 10.3c2.36 0 3.96-1.57 4.85-3.14.9-1.59 1.35-3.55 1.33-5.28l-4 .03a6.83 6.83 0 01-.8 3.27c-.53.92-1.03 1.13-1.38 1.13v4zm10.67-4H202.8v4h10.66v-4zm-6.16-4.42c-.01 1.72.43 3.68 1.32 5.27.89 1.57 2.48 3.16 4.84 3.16v-4c-.33 0-.83-.2-1.35-1.13a6.96 6.96 0 01-.81-3.28l-4-.02z" fill="#000" mask="url(#o)"/><path d="M215.23 60.92h1v-1.67a3 3 0 00-3-3h-10.22a3 3 0 00-3 3v1.67h15.22z" fill="#5C5C5C" stroke="#000" stroke-width="2"/><mask id="p" maskUnits="userSpaceOnUse" x="265.79" y="201.92" width="12" height="18" fill="#000"><path fill="#fff" d="M265.79 201.92h12v18h-12z"/><path fill-rule="evenodd" clip-rule="evenodd" d="M273.29 210.83a3.56 3.56 0 10-2.33 0c.03 2.85-1.48 6.42-4.17 6.42h10.66c-2.7 0-4.18-3.58-4.16-6.42z"/></mask><path fill-rule="evenodd" clip-rule="evenodd" d="M273.29 210.83a3.56 3.56 0 10-2.33 0c.03 2.85-1.48 6.42-4.17 6.42h10.66c-2.7 0-4.18-3.58-4.16-6.42z" fill="#fff"/><path d="M273.29 210.83l-.66-1.89-1.34.47v1.41l2 .01zm-2.33 0l2-.01v-1.42l-1.35-.46-.65 1.9zm2.71-3.36c0 .68-.43 1.26-1.04 1.47l1.31 3.78a5.56 5.56 0 003.73-5.25h-4zm-1.55-1.55c.86 0 1.55.7 1.55 1.55h4a5.56 5.56 0 00-5.55-5.55v4zm-1.56 1.55c0-.86.7-1.55 1.56-1.55v-4a5.56 5.56 0 00-5.56 5.55h4zm1.05 1.47a1.56 1.56 0 01-1.05-1.47h-4c0 2.44 1.57 4.51 3.76 5.26l1.3-3.79zm-4.82 10.3c2.35 0 3.95-1.57 4.84-3.14.9-1.59 1.35-3.55 1.33-5.28l-4 .03a6.84 6.84 0 01-.8 3.27c-.53.92-1.03 1.13-1.38 1.13v4zm10.66-4H266.8v4h10.66v-4zm-6.16-4.42c-.01 1.72.42 3.68 1.32 5.27.89 1.57 2.48 3.16 4.84 3.16v-4c-.33 0-.83-.2-1.35-1.13a6.96 6.96 0 01-.81-3.28l-4-.02z" fill="#000" mask="url(#p)"/><path d="M279.23 220.92h1v-1.67a3 3 0 00-3-3h-10.22a3 3 0 00-3 3v1.67h15.22z" fill="#fff" stroke="#000" stroke-width="2"/><mask id="q" maskUnits="userSpaceOnUse" x="265.79" y="41.92" width="12" height="18" fill="#000"><path fill="#fff" d="M265.79 41.92h12v18h-12z"/><path fill-rule="evenodd" clip-rule="evenodd" d="M273.29 50.83a3.56 3.56 0 10-2.33 0c.03 2.85-1.48 6.42-4.17 6.42h10.66c-2.7 0-4.18-3.58-4.16-6.42z"/></mask><path fill-rule="evenodd" clip-rule="evenodd" d="M273.29 50.83a3.56 3.56 0 10-2.33 0c.03 2.85-1.48 6.42-4.17 6.42h10.66c-2.7 0-4.18-3.58-4.16-6.42z" fill="#5C5C5C"/><path d="M273.29 50.83l-.66-1.89-1.34.47v1.41l2 .01zm-2.33 0l2-.01V49.4l-1.35-.46-.65 1.9zm2.71-3.36c0 .68-.43 1.26-1.04 1.47l1.31 3.78a5.56 5.56 0 003.73-5.25h-4zm-1.55-1.55c.86 0 1.55.7 1.55 1.55h4a5.56 5.56 0 00-5.55-5.55v4zm-1.56 1.55c0-.86.7-1.55 1.56-1.55v-4a5.56 5.56 0 00-5.56 5.55h4zm1.05 1.47a1.56 1.56 0 01-1.05-1.47h-4c0 2.44 1.57 4.51 3.76 5.26l1.3-3.79zm-4.82 10.3c2.35 0 3.95-1.57 4.84-3.14.9-1.59 1.35-3.55 1.33-5.28l-4 .03a6.83 6.83 0 01-.8 3.27c-.53.92-1.03 1.13-1.38 1.13v4zm10.66-4H266.8v4h10.66v-4zm-6.16-4.42c-.01 1.72.42 3.68 1.32 5.27.89 1.57 2.48 3.16 4.84 3.16v-4c-.33 0-.83-.2-1.35-1.13a6.96 6.96 0 01-.81-3.28l-4-.02z" fill="#000" mask="url(#q)"/><path d="M279.23 60.92h1v-1.67a3 3 0 00-3-3h-10.22a3 3 0 00-3 3v1.67h15.22z" fill="#5C5C5C" stroke="#000" stroke-width="2"/><path fill-rule="evenodd" clip-rule="evenodd" d="M242.97 166.88a3 3 0 01-1.08 2.33l1.78 7.15 3.89-3.66a3.04 3.04 0 01-.33-1.38 2.91 2.91 0 012.86-2.96 2.91 2.91 0 012.85 2.96 2.91 2.91 0 01-3.04 2.96l-2.67 10.08H233l-2.67-10.08a2.92 2.92 0 01-2.67-2.96 2.91 2.91 0 012.86-2.96 2.91 2.91 0 012.86 2.96c0 .6-.17 1.15-.46 1.62l3.63 3.42 1.8-7.15a3 3 0 01-1.1-2.33 2.91 2.91 0 012.86-2.96 2.91 2.91 0 012.85 2.96z" fill="#fff"/><path d="M241.89 169.2l-.64-.77-.49.4.16.62.97-.24zm1.78 7.16l-.97.24.42 1.66 1.24-1.17-.69-.73zm3.89-3.66l.68.73.55-.51-.34-.67-.9.46zm2.34 1.58l.06-1-.82-.05-.2.8.96.25zm-2.67 10.08v1h.77l.2-.74-.97-.26zm-14.22 0l-.97.26.2.74h.77v-1zm-2.67-10.08l.97-.26-.19-.69-.71-.05-.07 1zm2.59-1.34l-.85-.53-.44.7.6.56.69-.73zm3.63 3.42l-.68.73 1.24 1.17.41-1.66-.97-.24zm1.8-7.15l.96.24.16-.62-.5-.4-.63.78zm4.16.77a4 4 0 001.45-3.1h-2a2 2 0 01-.72 1.55l1.27 1.55zm2.12 6.14l-1.78-7.16-1.95.49 1.8 7.15 1.93-.48zm2.23-4.14l-3.88 3.65 1.37 1.46 3.88-3.66-1.37-1.45zm-.64-.66c0 .66.16 1.29.44 1.84l1.78-.9a2.04 2.04 0 01-.22-.94h-2zm3.86-3.96a3.91 3.91 0 00-3.86 3.96h2c0-1.11.87-1.96 1.86-1.96v-2zm3.85 3.96c0-2.15-1.69-3.96-3.85-3.96v2c.99 0 1.85.84 1.85 1.96h2zm-3.85 3.97c2.16 0 3.85-1.81 3.85-3.97h-2c0 1.12-.86 1.97-1.85 1.97v2zm-.26-.01h.26v-2h-.13l-.13 2zm-1.63 9.34l2.66-10.08-1.93-.52-2.67 10.08 1.94.52zm-15.2.74h14.23v-2H233v2zm-3.63-10.82l2.67 10.08 1.93-.52-2.66-10.08-1.94.52zm1.04-1.26a1.92 1.92 0 01-1.74-1.96h-2a3.92 3.92 0 003.6 3.96l.14-2zm-1.74-1.96c0-1.11.87-1.96 1.86-1.96v-2a3.91 3.91 0 00-3.86 3.96h2zm1.86-1.96c1 0 1.86.84 1.86 1.96h2c0-2.15-1.7-3.96-3.86-3.96v2zm1.86 1.96c0 .4-.12.78-.31 1.09l1.7 1.06c.38-.62.6-1.36.6-2.15h-2zm4.86 4.31l-3.64-3.42-1.37 1.46 3.64 3.42 1.37-1.46zm.13-6.66l-1.79 7.15 1.94.48 1.8-7.15-1.95-.48zm-1.12-2.1a4 4 0 001.46 3.11l1.26-1.55a2 2 0 01-.72-1.55h-2zm3.86-3.95a3.91 3.91 0 00-3.86 3.96h2c0-1.12.87-1.96 1.86-1.96v-2zm3.85 3.96c0-2.16-1.69-3.96-3.85-3.96v2c.99 0 1.85.84 1.85 1.96h2z" fill="#000"/><path d="M249.9 188.92h1v-2.56a3 3 0 00-3-3h-15.56a3 3 0 00-3 3v2.56h20.56z" fill="#fff" stroke="#000" stroke-width="2"/><path fill-rule="evenodd" clip-rule="evenodd" d="M146.97 6.88a3 3 0 01-1.08 2.33l1.78 7.15 3.89-3.66a3.04 3.04 0 01-.33-1.38 2.91 2.91 0 012.86-2.96 2.91 2.91 0 012.85 2.96 2.91 2.91 0 01-3.04 2.96l-2.67 10.08H137l-2.67-10.08a2.92 2.92 0 01-2.67-2.96 2.91 2.91 0 012.86-2.96 2.91 2.91 0 012.86 2.96c0 .6-.17 1.15-.46 1.62l3.63 3.42 1.8-7.15a3 3 0 01-1.1-2.33 2.91 2.91 0 012.86-2.96 2.91 2.91 0 012.85 2.96z" fill="#5C5C5C"/><path d="M145.89 9.2l-.64-.77-.49.4.16.62.97-.24zm1.78 7.16l-.97.24.42 1.66 1.24-1.17-.69-.73zm3.89-3.66l.68.73.55-.51-.34-.67-.9.45zm2.34 1.58l.06-1-.82-.05-.2.8.96.25zm-2.67 10.08v1h.77l.2-.74-.97-.26zm-14.22 0l-.97.26.2.74h.77v-1zm-2.67-10.08l.97-.26-.19-.69-.71-.05-.07 1zm2.59-1.34l-.85-.53-.44.7.6.56.69-.73zm3.63 3.42l-.68.73 1.24 1.17.41-1.66-.97-.24zm1.8-7.15l.96.24.16-.62-.5-.4-.63.78zm4.16.77a4 4 0 001.45-3.1h-2a2 2 0 01-.72 1.55l1.27 1.55zm2.12 6.14l-1.78-7.16-1.95.49 1.8 7.15 1.93-.48zm2.23-4.14L147 15.63l1.37 1.46 3.88-3.66-1.37-1.45zm-.64-.66c0 .66.16 1.29.44 1.84l1.78-.9a2.04 2.04 0 01-.22-.94h-2zm3.86-3.96a3.91 3.91 0 00-3.86 3.96h2c0-1.12.87-1.96 1.86-1.96v-2zm3.85 3.96c0-2.15-1.69-3.96-3.85-3.96v2c.99 0 1.85.84 1.85 1.96h2zm-3.85 3.97c2.16 0 3.85-1.81 3.85-3.97h-2c0 1.12-.86 1.97-1.85 1.97v2zm-.26-.01h.26v-2h-.13l-.13 2zm-1.63 9.34l2.66-10.08-1.93-.52-2.67 10.08 1.94.52zm-15.2.74h14.23v-2H137v2zm-3.63-10.82l2.67 10.08 1.93-.52-2.66-10.08-1.94.52zm1.04-1.26a1.92 1.92 0 01-1.74-1.96h-2a3.92 3.92 0 003.6 3.96l.14-2zm-1.74-1.96c0-1.12.87-1.96 1.86-1.96v-2a3.91 3.91 0 00-3.86 3.96h2zm1.86-1.96c1 0 1.86.84 1.86 1.96h2c0-2.15-1.7-3.96-3.86-3.96v2zm1.86 1.96c0 .4-.12.78-.31 1.09l1.7 1.06c.38-.62.6-1.36.6-2.15h-2zm4.86 4.31l-3.64-3.42-1.37 1.46 3.64 3.42 1.37-1.46zm.13-6.67l-1.79 7.16 1.94.48 1.8-7.15-1.95-.49zm-1.12-2.08a4 4 0 001.46 3.1l1.26-1.55a2 2 0 01-.72-1.55h-2zm3.86-3.96a3.91 3.91 0 00-3.86 3.96h2c0-1.12.87-1.96 1.86-1.96v-2zm3.85 3.96c0-2.16-1.69-3.96-3.85-3.96v2c.99 0 1.85.84 1.85 1.96h2z" fill="#000"/><path d="M153.9 28.92h1v-2.56a3 3 0 00-3-3h-15.56a3 3 0 00-3 3v2.56h20.56z" fill="#5C5C5C" stroke="#000" stroke-width="2"/><path d="M204.12 236.7h-.88l-.11.87-1.34 10.67-.14 1.12h12.98l-.2-1.16-1.77-10.67-.14-.84h-8.4z" fill="#fff" stroke="#000" stroke-width="2"/><path d="M201 229.58h-1v9.11h16.23v-9.1h-3.12l-.24.65-1.18 3.23h-1.03l-.87-3.15-.2-.74H206.65l-.2.74-.87 3.15h-1.03l-1.18-3.23-.24-.66H201zM217.9 252.92h1v-2.56a3 3 0 00-3-3h-15.56a3 3 0 00-3 3v2.56h20.56zM140.12 236.7h-.88l-.11.87-1.34 10.67-.14 1.12h12.98l-.2-1.16-1.77-10.67-.14-.84h-8.4z" fill="#fff" stroke="#000" stroke-width="2"/><path d="M137 229.58h-1v9.11h16.23v-9.1h-3.12l-.24.65-1.18 3.23h-1.03l-.87-3.15-.2-.74H142.65l-.2.74-.87 3.15h-1.03l-1.18-3.23-.24-.66H137zM153.9 252.92h1v-2.56a3 3 0 00-3-3h-15.56a3 3 0 00-3 3v2.56h20.56z" fill="#fff" stroke="#000" stroke-width="2"/><path d="M204.12 12.7h-.88l-.11.87-1.34 10.67-.14 1.12h12.98l-.2-1.16-1.77-10.67-.14-.84h-8.4z" fill="#5C5C5C" stroke="#000" stroke-width="2"/><path d="M201 5.58h-1v9.11h16.23V5.6h-3.12l-.24.65-1.18 3.23h-1.03l-.87-3.15-.2-.74H206.65l-.2.74-.87 3.15h-1.03l-1.18-3.23-.24-.66H201zM217.9 28.92h1v-2.56a3 3 0 00-3-3h-15.56a3 3 0 00-3 3v2.56h20.56zM44.12 12.7h-.88l-.11.87-1.34 10.67-.14 1.12h12.98l-.2-1.16-1.77-10.67-.14-.84h-8.4z" fill="#5C5C5C" stroke="#000" stroke-width="2"/><path d="M41 5.58h-1v9.11h16.23V5.6h-3.12l-.24.65-1.18 3.23h-1.03l-.87-3.15-.2-.74H46.65l-.2.74-.87 3.15h-1.03l-1.18-3.23-.24-.66H41zM57.9 28.92h1v-2.56a3 3 0 00-3-3H40.34a3 3 0 00-3 3v2.56H57.9z" fill="#5C5C5C" stroke="#000" stroke-width="2"/></g><defs><clipPath id="clip0"><path fill="#fff" transform="translate(.12 .47)" d="M0 0h320v288H0z"/></clipPath></defs></svg>