<svg width="321" height="289" fill="none" xmlns="http://www.w3.org/2000/svg"><g clip-path="url(#clip0)"><path fill="#FEE6C1" d="M32.61.24h256v256h-256z"/><path d="M32.61 224.24h32v32h-32v-32zM32.61 96.24h32v32h-32v-32zM32.61 160.24h32v32h-32v-32zM32.61 32.24h32v32h-32v-32zM64.61 192.24h32v32h-32v-32zM64.61 64.24h32v32h-32v-32zM64.61 128.24h32v32h-32v-32zM64.61.24h32v32h-32v-32zM160.61 224.24h32v32h-32v-32zM160.61 96.24h32v32h-32v-32zM160.61 160.24h32v32h-32v-32zM160.61 32.24h32v32h-32v-32zM192.61 192.24h32v32h-32v-32zM192.61 64.24h32v32h-32v-32zM192.61 128.24h32v32h-32v-32zM192.61.24h32v32h-32v-32zM96.61 224.24h32v32h-32v-32zM96.61 96.24h32v32h-32v-32zM96.61 160.24h32v32h-32v-32zM96.61 32.24h32v32h-32v-32zM128.61 192.24h32v32h-32v-32zM128.61 64.24h32v32h-32v-32zM128.61 128.24h32v32h-32v-32zM128.61.24h32v32h-32v-32zM224.61 224.24h32v32h-32v-32zM224.61 96.24h32v32h-32v-32zM224.61 160.24h32v32h-32v-32zM224.61 32.24h32v32h-32v-32zM256.61 192.24h32v32h-32v-32zM256.61 64.24h32v32h-32v-32zM256.61 128.24h32v32h-32v-32zM256.61.24h32v32h-32v-32z" fill="#866C4A"/><path d="M14.04 237.6v-2.54h4.43v11.68h-2.85v-9.14h-1.58zM12.67 212.54l.5-.4a59.07 59.07 0 002.46-2.12c.6-.56 1.12-1.14 1.53-1.75.42-.6.63-1.2.63-1.77 0-.44-.1-.78-.3-1.03-.21-.24-.51-.37-.92-.37-.4 0-.72.16-.96.47-.22.3-.33.72-.33 1.28h-2.64c.02-.9.2-1.67.57-2.27.37-.61.86-1.06 1.46-1.35.6-.29 1.28-.43 2.01-.43 1.27 0 2.23.32 2.87.98.65.65.97 1.5.97 2.54 0 1.14-.39 2.2-1.16 3.18-.78.97-1.78 1.92-2.98 2.85h4.32v2.23h-8.03v-2.04zM12.59 174.35a3.52 3.52 0 011.12-2.64c.7-.62 1.65-.93 2.86-.93.8 0 1.48.14 2.05.42a2.95 2.95 0 011.74 2.75c0 .7-.17 1.28-.53 1.73a2.7 2.7 0 01-1.23.9v.06c.6.2 1.09.54 1.44 1 .35.48.53 1.08.53 1.82a3.07 3.07 0 01-1.8 2.94c-.57.29-1.26.43-2.06.43a4.7 4.7 0 01-3.07-.94c-.76-.63-1.16-1.58-1.2-2.85h2.66c0 .47.14.84.4 1.12.25.27.63.4 1.12.4.41 0 .73-.12.96-.35.23-.25.35-.57.35-.96 0-.51-.17-.88-.5-1.1-.32-.24-.83-.36-1.55-.36h-.51v-2.22h.51c.55 0 .98-.1 1.31-.27.34-.2.52-.53.52-1.01 0-.39-.11-.69-.32-.9-.22-.21-.51-.32-.88-.32-.41 0-.71.13-.92.37-.19.25-.3.55-.33.91h-2.67zM11.98 148.66v-2.21l5.06-7.23h3.06v7.07h1.3v2.37h-1.3v2.08h-2.74v-2.08h-5.38zm5.57-6.44l-2.69 4.07h2.7v-4.07zM20.35 108.44h-4.99v2.2c.22-.23.51-.42.9-.57.38-.15.8-.22 1.25-.22a3.19 3.19 0 013.15 1.95c.24.58.37 1.2.37 1.87 0 1.25-.36 2.24-1.06 2.98-.7.72-1.7 1.09-2.98 1.09a5.3 5.3 0 01-2.22-.44c-.63-.3-1.11-.7-1.46-1.23a3.54 3.54 0 01-.56-1.8h2.68c.06.33.21.6.46.83.25.2.58.32 1 .32.5 0 .88-.16 1.13-.48.24-.32.37-.75.37-1.28s-.13-.93-.39-1.2c-.25-.28-.63-.42-1.12-.42-.36 0-.66.1-.9.27-.23.17-.38.4-.46.69h-2.64v-6.96h7.47v2.4zM18.02 77.2a1.6 1.6 0 00-.45-.87c-.22-.2-.52-.3-.91-.3-.61 0-1.05.26-1.32.8-.26.52-.4 1.35-.41 2.49a2.4 2.4 0 011-.88c.45-.21.94-.32 1.48-.32a3.3 3.3 0 012.5 1c.65.65.97 1.58.97 2.76 0 .78-.16 1.46-.48 2.05a3.3 3.3 0 01-1.38 1.37c-.6.33-1.3.5-2.12.5-1.65 0-2.79-.51-3.43-1.54-.64-1.03-.96-2.51-.96-4.44 0-2.03.34-3.53 1.01-4.52.68-.99 1.77-1.48 3.26-1.48.8 0 1.48.16 2.02.48.55.3.97.72 1.25 1.23.29.51.46 1.07.5 1.68h-2.53zm-1.27 3.08c-.46 0-.84.14-1.15.42-.3.26-.45.65-.45 1.15 0 .51.14.91.42 1.2.29.29.7.43 1.21.43.47 0 .84-.14 1.1-.42.28-.28.42-.67.42-1.16 0-.5-.13-.9-.4-1.19-.26-.29-.65-.43-1.15-.43zM20.5 44.1l-4 9.64h-2.8l4.06-9.33h-4.98v-2.34h7.73v2.03zM14.07 16.46c-1-.53-1.5-1.37-1.5-2.5a2.86 2.86 0 011.8-2.71c.6-.29 1.35-.43 2.24-.43.89 0 1.63.14 2.22.43a2.86 2.86 0 011.8 2.7 2.7 2.7 0 01-.4 1.5c-.27.43-.63.77-1.1 1.01a3.06 3.06 0 011.8 2.85 3.37 3.37 0 01-2.14 3.22c-.65.29-1.38.43-2.18.43-.8 0-1.53-.14-2.2-.43a3.37 3.37 0 01-2.13-3.22 3.04 3.04 0 011.78-2.85zm3.92-2.1c0-.43-.13-.77-.39-1a1.34 1.34 0 00-.99-.37c-.42 0-.75.12-1 .37s-.38.59-.38 1.02c0 .42.13.75.39 1 .25.23.58.35.99.35.4 0 .74-.12 1-.37.25-.25.38-.58.38-1zm-1.38 3.29c-.5 0-.9.14-1.22.41-.3.27-.46.64-.46 1.12 0 .45.15.82.45 1.1.3.3.72.44 1.23.44s.91-.14 1.2-.43c.3-.29.45-.66.45-1.1 0-.48-.16-.85-.47-1.13-.3-.27-.69-.41-1.18-.41zM273.7 269.21c1.03 0 1.85.34 2.47 1.03.62.67.93 1.6.93 2.78v5.22h-2.73v-4.85c0-.6-.15-1.06-.46-1.4-.3-.32-.73-.49-1.25-.49s-.94.17-1.25.5c-.3.33-.46.8-.46 1.39v4.85h-2.74V266.4h2.74v4.1c.28-.39.66-.7 1.14-.94a3.62 3.62 0 011.61-.35zM239.57 269.18c.63 0 1.18.13 1.65.38.48.26.84.6 1.1 1.01v-1.26h2.74v8.91c0 .82-.17 1.56-.5 2.22-.32.68-.82 1.2-1.49 1.6-.66.4-1.49.6-2.48.6-1.32 0-2.4-.32-3.21-.95a3.5 3.5 0 01-1.41-2.53h2.7c.09.34.29.61.61.8.32.2.71.3 1.18.3.57 0 1.02-.16 1.35-.49.34-.32.51-.83.51-1.55v-1.26a3.1 3.1 0 01-2.75 1.4 3.7 3.7 0 01-3.43-2.17 5.5 5.5 0 01-.5-2.43c0-.92.16-1.73.5-2.42.36-.7.83-1.23 1.43-1.6a3.7 3.7 0 012-.56zm2.75 4.6c0-.7-.2-1.23-.58-1.62-.37-.4-.83-.6-1.37-.6-.55 0-1.01.2-1.4.6a2.2 2.2 0 00-.55 1.6c0 .68.18 1.22.56 1.63.38.4.84.59 1.39.59.54 0 1-.2 1.37-.6.39-.39.58-.93.58-1.6zM211.2 271.58h-1.47v6.66h-2.74v-6.66H206v-2.27h1v-.26c0-1.1.3-1.93.94-2.5.63-.57 1.55-.86 2.77-.86.2 0 .35 0 .44.02v2.32c-.52-.03-.89.04-1.1.22-.21.18-.32.5-.32.98v.08h1.47v2.27zM181.1 273.63c0 .25-.02.52-.06.8h-6.19c.04.55.22.98.53 1.28.32.29.7.43 1.17.43.68 0 1.16-.29 1.42-.86h2.91a3.98 3.98 0 01-2.27 2.69 4.7 4.7 0 01-1.97.4c-.87 0-1.65-.2-2.33-.57a3.98 3.98 0 01-1.6-1.6c-.39-.69-.58-1.5-.58-2.43 0-.93.19-1.74.56-2.43.39-.7.92-1.23 1.6-1.6a4.82 4.82 0 012.35-.56c.87 0 1.64.18 2.3.54.68.37 1.2.88 1.58 1.56.38.67.57 1.45.57 2.35zm-2.8-.72c0-.47-.17-.85-.49-1.12a1.77 1.77 0 00-1.2-.42c-.46 0-.85.13-1.17.4-.3.27-.5.65-.57 1.14h3.42zM139.63 273.76c0-.92.17-1.73.51-2.42.36-.7.83-1.23 1.43-1.6a3.7 3.7 0 013.6-.2c.49.25.87.58 1.15 1v-4.14h2.74v11.84h-2.74v-1.28c-.26.42-.62.76-1.1 1.02a3.4 3.4 0 01-1.65.38 3.7 3.7 0 01-3.43-2.17 5.5 5.5 0 01-.5-2.43zm6.69.01c0-.68-.2-1.22-.58-1.61-.37-.4-.83-.6-1.37-.6-.55 0-1.01.2-1.4.6a2.2 2.2 0 00-.55 1.6c0 .68.18 1.22.56 1.63.38.4.84.59 1.39.59.54 0 1-.2 1.37-.6.39-.39.58-.93.58-1.6zM108.22 273.77c0-.93.18-1.74.56-2.43.38-.7.91-1.23 1.58-1.6a4.79 4.79 0 012.34-.56c1.12 0 2.05.3 2.8.88a4.14 4.14 0 011.49 2.48h-2.92c-.24-.68-.72-1.02-1.42-1.02-.5 0-.9.2-1.2.59-.3.38-.45.94-.45 1.66 0 .73.15 1.29.45 1.68.3.39.7.58 1.2.58.7 0 1.18-.34 1.42-1.03H117a4.2 4.2 0 01-1.5 2.47c-.75.6-1.68.9-2.8.9-.87 0-1.65-.2-2.33-.57-.67-.37-1.2-.9-1.58-1.6-.38-.69-.56-1.5-.56-2.43zM78.91 270.57c.26-.41.63-.75 1.1-1a3.45 3.45 0 011.65-.39 3.7 3.7 0 013.41 2.16c.35.7.53 1.5.53 2.42 0 .91-.18 1.72-.53 2.43a3.7 3.7 0 01-3.4 2.18c-.64 0-1.19-.13-1.65-.37-.47-.26-.84-.6-1.1-1.01v1.25h-2.74V266.4h2.73v4.17zm3.9 3.19c0-.69-.19-1.22-.57-1.6-.37-.4-.84-.6-1.4-.6-.54 0-1 .2-1.38.6-.38.4-.56.93-.56 1.61 0 .69.18 1.22.56 1.62.38.4.84.59 1.39.59.54 0 1-.2 1.39-.6.38-.4.58-.94.58-1.62zM43.63 273.76c0-.92.17-1.73.51-2.42.36-.7.83-1.23 1.43-1.6a3.7 3.7 0 012-.56c.63 0 1.18.13 1.65.38.48.26.84.6 1.1 1.01v-1.26h2.74v8.93h-2.74v-1.27c-.27.42-.64.75-1.12 1.01-.47.26-1.02.38-1.65.38a3.67 3.67 0 01-3.4-2.17 5.51 5.51 0 01-.52-2.43zm6.69.01c0-.68-.2-1.22-.58-1.61-.37-.4-.83-.6-1.37-.6-.55 0-1.01.2-1.4.6a2.2 2.2 0 00-.55 1.6c0 .68.18 1.22.56 1.63.38.4.84.59 1.39.59.54 0 1-.2 1.37-.6.39-.39.58-.93.58-1.6z" fill="#000"/><mask id="a" maskUnits="userSpaceOnUse" x="42.28" y="201.33" width="12" height="18" fill="#000"><path fill="#fff" d="M42.28 201.33h12v18h-12z"/><path fill-rule="evenodd" clip-rule="evenodd" d="M49.78 210.23a3.55 3.55 0 10-2.32 0c.02 2.85-1.48 6.4-4.18 6.4h10.67c-2.7 0-4.18-3.57-4.17-6.4z"/></mask><path fill-rule="evenodd" clip-rule="evenodd" d="M49.78 210.23a3.55 3.55 0 10-2.32 0c.02 2.85-1.48 6.4-4.18 6.4h10.67c-2.7 0-4.18-3.57-4.17-6.4z" fill="#fff"/><path d="M49.78 210.23l-.66-1.89-1.33.47v1.41l2 .01zm-2.32 0l2-.01-.01-1.42-1.34-.46-.65 1.9zm2.7-3.35c0 .67-.42 1.25-1.03 1.46l1.3 3.78a5.55 5.55 0 003.74-5.24h-4zm-1.55-1.55c.87 0 1.56.7 1.56 1.55h4c0-3.07-2.5-5.55-5.56-5.55v4zm-1.55 1.55c0-.85.69-1.55 1.55-1.55v-4a5.55 5.55 0 00-5.55 5.55h4zm1.05 1.46a1.55 1.55 0 01-1.05-1.46h-4c0 2.44 1.57 4.5 3.75 5.25l1.3-3.79zm-4.83 10.3c2.35 0 3.95-1.58 4.85-3.15.9-1.58 1.34-3.54 1.33-5.27l-4 .03a6.8 6.8 0 01-.8 3.26c-.53.92-1.04 1.13-1.38 1.13v4zm10.67-4H43.28v4h10.67v-4zm-6.17-4.42c0 1.72.43 3.67 1.33 5.26.89 1.57 2.48 3.16 4.84 3.16v-4c-.34 0-.84-.2-1.36-1.13a6.93 6.93 0 01-.8-3.27l-4-.02z" fill="#000" mask="url(#a)"/><path d="M55.72 220.3h1V218.64a3 3 0 00-3-3H43.5a3 3 0 00-3 3V220.3h15.22z" fill="#fff" stroke="#000" stroke-width="2"/><mask id="b" maskUnits="userSpaceOnUse" x="170.28" y="169.38" width="12" height="18" fill="#000"><path fill="#fff" d="M170.28 169.38h12v18h-12z"/><path fill-rule="evenodd" clip-rule="evenodd" d="M177.78 178.29a3.55 3.55 0 10-2.32 0c.03 2.84-1.48 6.4-4.18 6.4h10.67c-2.7 0-4.18-3.57-4.17-6.4z"/></mask><path fill-rule="evenodd" clip-rule="evenodd" d="M177.78 178.29a3.55 3.55 0 10-2.32 0c.03 2.84-1.48 6.4-4.18 6.4h10.67c-2.7 0-4.18-3.57-4.17-6.4z" fill="#fff"/><path d="M177.78 178.29l-.66-1.9-1.33.47v1.41l2 .02zm-2.32 0l2-.02-.02-1.41-1.33-.46-.65 1.9zm2.7-3.36c0 .67-.42 1.25-1.03 1.47l1.3 3.78a5.55 5.55 0 003.74-5.25h-4zm-1.55-1.55c.86 0 1.56.7 1.56 1.55h4a5.55 5.55 0 00-5.56-5.55v4zm-1.55 1.55c0-.85.69-1.55 1.55-1.55v-4a5.55 5.55 0 00-5.55 5.55h4zm1.05 1.47a1.55 1.55 0 01-1.05-1.47h-4c0 2.44 1.57 4.5 3.75 5.25l1.3-3.78zm-4.83 10.3c2.35 0 3.95-1.58 4.85-3.15a10.8 10.8 0 001.33-5.28l-4 .04a6.81 6.81 0 01-.8 3.26c-.53.92-1.04 1.12-1.38 1.12v4zm10.67-4h-10.67v4h10.67v-4zm-6.17-4.42c0 1.72.43 3.67 1.33 5.26.89 1.57 2.48 3.15 4.84 3.15v-4c-.34 0-.84-.2-1.36-1.12a6.94 6.94 0 01-.8-3.27l-4-.03z" fill="#000" mask="url(#b)"/><path d="M183.72 188.35h1V186.7a3 3 0 00-3-3H171.5a3 3 0 00-3 3V188.35h15.22z" fill="#fff" stroke="#000" stroke-width="2"/><mask id="c" maskUnits="userSpaceOnUse" x="106.28" y="169.38" width="12" height="18" fill="#000"><path fill="#fff" d="M106.28 169.38h12v18h-12z"/><path fill-rule="evenodd" clip-rule="evenodd" d="M113.78 178.29a3.55 3.55 0 10-2.32 0c.03 2.84-1.48 6.4-4.18 6.4h10.67c-2.7 0-4.18-3.57-4.17-6.4z"/></mask><path fill-rule="evenodd" clip-rule="evenodd" d="M113.78 178.29a3.55 3.55 0 10-2.32 0c.03 2.84-1.48 6.4-4.18 6.4h10.67c-2.7 0-4.18-3.57-4.17-6.4z" fill="#fff"/><path d="M113.78 178.29l-.66-1.9-1.33.47v1.41l2 .02zm-2.32 0l2-.02-.02-1.41-1.33-.46-.65 1.9zm2.7-3.36c0 .67-.42 1.25-1.03 1.47l1.3 3.78a5.55 5.55 0 003.74-5.25h-4zm-1.55-1.55c.86 0 1.56.7 1.56 1.55h4a5.55 5.55 0 00-5.56-5.55v4zm-1.55 1.55c0-.85.69-1.55 1.55-1.55v-4a5.55 5.55 0 00-5.55 5.55h4zm1.05 1.47a1.55 1.55 0 01-1.05-1.47h-4c0 2.44 1.57 4.5 3.75 5.25l1.3-3.78zm-4.83 10.3c2.35 0 3.95-1.58 4.85-3.15a10.8 10.8 0 001.33-5.28l-4 .04a6.81 6.81 0 01-.8 3.26c-.53.92-1.04 1.12-1.38 1.12v4zm10.67-4h-10.67v4h10.67v-4zm-6.17-4.42c0 1.72.43 3.67 1.33 5.26.89 1.57 2.48 3.15 4.84 3.15v-4c-.34 0-.84-.2-1.36-1.12a6.94 6.94 0 01-.8-3.27l-4-.03z" fill="#000" mask="url(#c)"/><path d="M119.72 188.35h1V186.7a3 3 0 00-3-3H107.5a3 3 0 00-3 3V188.35h15.22z" fill="#fff" stroke="#000" stroke-width="2"/><mask id="d" maskUnits="userSpaceOnUse" x="234.28" y="201.33" width="12" height="18" fill="#000"><path fill="#fff" d="M234.28 201.33h12v18h-12z"/><path fill-rule="evenodd" clip-rule="evenodd" d="M241.78 210.23a3.55 3.55 0 10-2.32 0c.03 2.85-1.48 6.4-4.18 6.4h10.67c-2.7 0-4.18-3.57-4.17-6.4z"/></mask><path fill-rule="evenodd" clip-rule="evenodd" d="M241.78 210.23a3.55 3.55 0 10-2.32 0c.03 2.85-1.48 6.4-4.18 6.4h10.67c-2.7 0-4.18-3.57-4.17-6.4z" fill="#fff"/><path d="M241.78 210.23l-.66-1.89-1.33.47v1.41l2 .01zm-2.32 0l2-.01-.02-1.42-1.33-.46-.65 1.9zm2.7-3.35c0 .67-.42 1.25-1.03 1.46l1.3 3.78a5.55 5.55 0 003.74-5.24h-4zm-1.55-1.55c.86 0 1.56.7 1.56 1.55h4a5.55 5.55 0 00-5.56-5.55v4zm-1.55 1.55c0-.85.69-1.55 1.55-1.55v-4a5.55 5.55 0 00-5.55 5.55h4zm1.05 1.46a1.55 1.55 0 01-1.05-1.46h-4c0 2.44 1.57 4.5 3.75 5.25l1.3-3.79zm-4.83 10.3c2.35 0 3.95-1.58 4.85-3.15a10.8 10.8 0 001.33-5.27l-4 .03a6.81 6.81 0 01-.8 3.26c-.53.92-1.04 1.13-1.38 1.13v4zm10.67-4h-10.67v4h10.67v-4zm-6.17-4.42c0 1.72.43 3.67 1.33 5.26.89 1.57 2.48 3.16 4.84 3.16v-4c-.34 0-.84-.2-1.36-1.13a6.94 6.94 0 01-.8-3.27l-4-.02z" fill="#000" mask="url(#d)"/><path d="M247.72 220.3h1V218.64a3 3 0 00-3-3H235.5a3 3 0 00-3 3V220.3h15.22z" fill="#fff" stroke="#000" stroke-width="2"/><mask id="e" maskUnits="userSpaceOnUse" x="74.28" y="201.33" width="12" height="18" fill="#000"><path fill="#fff" d="M74.28 201.33h12v18h-12z"/><path fill-rule="evenodd" clip-rule="evenodd" d="M81.78 210.23a3.55 3.55 0 10-2.32 0c.02 2.85-1.48 6.4-4.18 6.4h10.67c-2.7 0-4.18-3.57-4.17-6.4z"/></mask><path fill-rule="evenodd" clip-rule="evenodd" d="M81.78 210.23a3.55 3.55 0 10-2.32 0c.02 2.85-1.48 6.4-4.18 6.4h10.67c-2.7 0-4.18-3.57-4.17-6.4z" fill="#fff"/><path d="M81.78 210.23l-.66-1.89-1.33.47v1.41l2 .01zm-2.32 0l2-.01-.01-1.42-1.34-.46-.65 1.9zm2.7-3.35c0 .67-.42 1.25-1.03 1.46l1.3 3.78a5.55 5.55 0 003.74-5.24h-4zm-1.55-1.55c.86 0 1.56.7 1.56 1.55h4c0-3.07-2.5-5.55-5.56-5.55v4zm-1.55 1.55c0-.85.69-1.55 1.55-1.55v-4a5.55 5.55 0 00-5.55 5.55h4zm1.05 1.46a1.55 1.55 0 01-1.05-1.46h-4c0 2.44 1.57 4.5 3.75 5.25l1.3-3.79zm-4.83 10.3c2.35 0 3.95-1.58 4.85-3.15.9-1.58 1.34-3.54 1.33-5.27l-4 .03a6.8 6.8 0 01-.8 3.26c-.53.92-1.04 1.13-1.38 1.13v4zm10.67-4H75.28v4h10.67v-4zm-6.17-4.42c0 1.72.43 3.67 1.33 5.26.89 1.57 2.48 3.16 4.84 3.16v-4c-.34 0-.84-.2-1.36-1.13a6.93 6.93 0 01-.8-3.27l-4-.02z" fill="#000" mask="url(#e)"/><path d="M87.72 220.3h1V218.64a3 3 0 00-3-3H75.5a3 3 0 00-3 3V220.3h15.22z" fill="#fff" stroke="#000" stroke-width="2"/><mask id="f" maskUnits="userSpaceOnUse" x="202.28" y="201.33" width="12" height="18" fill="#000"><path fill="#fff" d="M202.28 201.33h12v18h-12z"/><path fill-rule="evenodd" clip-rule="evenodd" d="M209.78 210.23a3.55 3.55 0 10-2.32 0c.03 2.85-1.48 6.4-4.18 6.4h10.67c-2.7 0-4.18-3.57-4.17-6.4z"/></mask><path fill-rule="evenodd" clip-rule="evenodd" d="M209.78 210.23a3.55 3.55 0 10-2.32 0c.03 2.85-1.48 6.4-4.18 6.4h10.67c-2.7 0-4.18-3.57-4.17-6.4z" fill="#fff"/><path d="M209.78 210.23l-.66-1.89-1.33.47v1.41l2 .01zm-2.32 0l2-.01-.02-1.42-1.33-.46-.65 1.9zm2.7-3.35c0 .67-.42 1.25-1.03 1.46l1.3 3.78a5.55 5.55 0 003.74-5.24h-4zm-1.55-1.55c.86 0 1.56.7 1.56 1.55h4a5.55 5.55 0 00-5.56-5.55v4zm-1.55 1.55c0-.85.69-1.55 1.55-1.55v-4a5.55 5.55 0 00-5.55 5.55h4zm1.05 1.46a1.55 1.55 0 01-1.05-1.46h-4c0 2.44 1.57 4.5 3.75 5.25l1.3-3.79zm-4.83 10.3c2.35 0 3.95-1.58 4.85-3.15a10.8 10.8 0 001.33-5.27l-4 .03a6.81 6.81 0 01-.8 3.26c-.53.92-1.04 1.13-1.38 1.13v4zm10.67-4h-10.67v4h10.67v-4zm-6.17-4.42c0 1.72.43 3.67 1.33 5.26.89 1.57 2.48 3.16 4.84 3.16v-4c-.34 0-.84-.2-1.36-1.13a6.94 6.94 0 01-.8-3.27l-4-.02z" fill="#000" mask="url(#f)"/><path d="M215.72 220.3h1V218.64a3 3 0 00-3-3H203.5a3 3 0 00-3 3V220.3h15.22z" fill="#fff" stroke="#000" stroke-width="2"/><mask id="g" maskUnits="userSpaceOnUse" x="137.28" y="137.44" width="12" height="18" fill="#000"><path fill="#fff" d="M137.28 137.44h12v18h-12z"/><path fill-rule="evenodd" clip-rule="evenodd" d="M144.78 146.34a3.55 3.55 0 10-2.32 0c.03 2.85-1.48 6.4-4.18 6.4h10.67c-2.7 0-4.18-3.57-4.17-6.4z"/></mask><path fill-rule="evenodd" clip-rule="evenodd" d="M144.78 146.34a3.55 3.55 0 10-2.32 0c.03 2.85-1.48 6.4-4.18 6.4h10.67c-2.7 0-4.18-3.57-4.17-6.4z" fill="#fff"/><path d="M144.78 146.34l-.66-1.89-1.33.47v1.41l2 .01zm-2.32 0l2-.01-.02-1.42-1.33-.46-.65 1.9zm2.7-3.35c0 .67-.42 1.25-1.03 1.46l1.3 3.78a5.55 5.55 0 003.74-5.24h-4zm-1.55-1.55c.86 0 1.56.7 1.56 1.55h4a5.55 5.55 0 00-5.56-5.55v4zm-1.55 1.55c0-.85.69-1.55 1.55-1.55v-4a5.55 5.55 0 00-5.55 5.55h4zm1.05 1.46a1.55 1.55 0 01-1.05-1.46h-4c0 2.44 1.57 4.5 3.75 5.25l1.3-3.79zm-4.83 10.3c2.35 0 3.95-1.57 4.85-3.15a10.8 10.8 0 001.33-5.27l-4 .03a6.81 6.81 0 01-.8 3.26c-.53.92-1.04 1.13-1.38 1.13v4zm10.67-4h-10.67v4h10.67v-4zm-6.17-4.42c0 1.72.43 3.67 1.33 5.26.89 1.57 2.48 3.16 4.84 3.16v-4c-.34 0-.84-.2-1.36-1.13a6.94 6.94 0 01-.8-3.27l-4-.02z" fill="#000" mask="url(#g)"/><path d="M150.72 156.41h1V154.75a3 3 0 00-3-3H138.5a3 3 0 00-3 3V156.4h15.22z" fill="#fff" stroke="#000" stroke-width="2"/><mask id="h" maskUnits="userSpaceOnUse" x="266.28" y="201.33" width="12" height="18" fill="#000"><path fill="#fff" d="M266.28 201.33h12v18h-12z"/><path fill-rule="evenodd" clip-rule="evenodd" d="M273.78 210.23a3.55 3.55 0 10-2.32 0c.03 2.85-1.48 6.4-4.18 6.4h10.67c-2.7 0-4.18-3.57-4.17-6.4z"/></mask><path fill-rule="evenodd" clip-rule="evenodd" d="M273.78 210.23a3.55 3.55 0 10-2.32 0c.03 2.85-1.48 6.4-4.18 6.4h10.67c-2.7 0-4.18-3.57-4.17-6.4z" fill="#fff"/><path d="M273.78 210.23l-.65-1.89-1.34.47v1.41l2 .01zm-2.32 0l2-.01-.01-1.42-1.34-.46-.65 1.9zm2.7-3.35c0 .67-.42 1.25-1.04 1.46l1.32 3.78a5.55 5.55 0 003.73-5.24h-4zm-1.55-1.55c.87 0 1.56.7 1.56 1.55h4a5.55 5.55 0 00-5.56-5.55v4zm-1.55 1.55c0-.85.69-1.55 1.55-1.55v-4a5.55 5.55 0 00-5.55 5.55h4zm1.05 1.46a1.55 1.55 0 01-1.05-1.46h-4c0 2.44 1.57 4.5 3.75 5.25l1.3-3.79zm-4.83 10.3c2.35 0 3.95-1.58 4.85-3.15a10.8 10.8 0 001.33-5.27l-4 .03a6.81 6.81 0 01-.8 3.26c-.53.92-1.04 1.13-1.38 1.13v4zm10.67-4h-10.67v4h10.67v-4zm-6.17-4.42c0 1.72.43 3.67 1.33 5.26.89 1.57 2.48 3.16 4.84 3.16v-4c-.34 0-.84-.2-1.36-1.13a6.94 6.94 0 01-.8-3.27l-4-.02z" fill="#000" mask="url(#h)"/><path d="M279.72 220.3h1V218.64a3 3 0 00-3-3H267.5a3 3 0 00-3 3V220.3h15.22zM148.4 215.86h.53l.3-.45-.84-.55.84.55h0l.01-.01.03-.04a10.23 10.23 0 00.43-.71c.29-.48.68-1.16 1.1-1.97a28.5 28.5 0 002.4-6.05c.53-2.2.7-4.63-.4-6.57-1.16-2.01-3.5-3.14-7.14-3.15h-.03a.42.42 0 01-.13-.05s0 0 0 0c-.03-.02-.2-.12-.2-.63v-1h-1c-.51 0-.95.28-1.18.45-.29.2-.56.46-.79.7a11.6 11.6 0 00-.72.8l-2.59 1.9-.15.12-.1.16-2.73 4.4-.24.4.14.44 1 3.03.42 1.28 1.1-.77 2.31-1.62 1.7-1.13c.88.31 1.25.67 1.4.87l.07.1-.05.1a16.55 16.55 0 01-3.54 4.56 3.17 3.17 0 00-.67 3.95l.24.4.3.5h8.17z" fill="#fff" stroke="#000" stroke-width="2"/><path d="M154.4 220.3h1v-2.55a3 3 0 00-3-3h-15.56a3 3 0 00-3 3v2.55h20.55z" fill="#fff" stroke="#000" stroke-width="2"/><path d="M140.17 200.67l.89-.45v.33a1 1 0 01-1 1h-.34l.45-.88z" fill="#000"/><path d="M212.4 183.92h.53l.3-.45-.84-.55.84.55h0l.01-.02.03-.04a10.23 10.23 0 00.43-.7c.29-.48.68-1.16 1.1-1.98a28.5 28.5 0 002.4-6.05c.53-2.19.7-4.63-.4-6.56-1.16-2.02-3.5-3.15-7.14-3.15h-.03a.4.4 0 01-.13-.06s0 0 0 0c-.03-.01-.2-.12-.2-.63v-1h-1c-.51 0-.95.28-1.18.46-.29.2-.56.46-.79.69a11.98 11.98 0 00-.72.81l-2.59 1.9-.15.11-.1.17-2.73 4.4-.24.4.14.43 1 3.04.42 1.28 1.1-.78 2.31-1.62 1.7-1.13c.88.31 1.25.67 1.4.87l.07.1-.05.1a16.52 16.52 0 01-3.54 4.56 3.17 3.17 0 00-.67 3.96l.24.4.3.49h8.17z" fill="#fff" stroke="#000" stroke-width="2"/><path d="M218.4 188.35h1v-2.54a3 3 0 00-3-3h-15.56a3 3 0 00-3 3v2.54h20.55z" fill="#fff" stroke="#000" stroke-width="2"/><path d="M204.17 168.72l.89-.44v.33a1 1 0 01-1 1h-.34l.45-.89z" fill="#000"/><mask id="i" maskUnits="userSpaceOnUse" x="163.45" y="224.4" width="26" height="26" fill="#000"><path fill="#fff" d="M163.45 224.4h26v26h-26z"/><path fill-rule="evenodd" clip-rule="evenodd" d="M183.72 247.7l2.93-7.97a2 2 0 00-1.02-2.5c-3.56-1.68-5.7-2.61-8.09-2.8v-3.6h2.78v-1.77h-2.78v-2.66h-1.85v2.66h-2.79v1.78h2.78v3.58c-2.38.2-4.53 1.13-8.08 2.81a2 2 0 00-1.02 2.5l2.92 7.97h14.22zm-8.88-10.7c-1.13.19-2.39.55-4.04 1.1-1.16.37-1.7 1.7-1.16 2.78l1.64 3.27h3.56v-7.16zm7.59 1.1a29.4 29.4 0 00-4.04-1.1v7.15h3.56l1.63-3.27c.55-1.09 0-2.41-1.15-2.79z"/></mask><path fill-rule="evenodd" clip-rule="evenodd" d="M183.72 247.7l2.93-7.97a2 2 0 00-1.02-2.5c-3.56-1.68-5.7-2.61-8.09-2.8v-3.6h2.78v-1.77h-2.78v-2.66h-1.85v2.66h-2.79v1.78h2.78v3.58c-2.38.2-4.53 1.13-8.08 2.81a2 2 0 00-1.02 2.5l2.92 7.97h14.22zm-8.88-10.7c-1.13.19-2.39.55-4.04 1.1-1.16.37-1.7 1.7-1.16 2.78l1.64 3.27h3.56v-7.16zm7.59 1.1a29.4 29.4 0 00-4.04-1.1v7.15h3.56l1.63-3.27c.55-1.09 0-2.41-1.15-2.79z" fill="#fff"/><path d="M175.77 235.42a10.2 10.2 0 011.69 0l.16-2c-.67-.05-1.34-.05-2.02 0l.17 2zm10.88 4.3l1.88.7-1.88-.7zm-2.93 7.97v2h1.4l.48-1.3-1.88-.7zm1.9-10.46l.86-1.8-.85 1.8zm-8.08-2.8h-2v1.84l1.84.15.16-2zm0-3.6v-2h-2v2h2zm2.78 0v2h2v-2h-2zm0-1.77h2v-2h-2v2zm-2.78 0h-2v2h2v-2zm0-2.66h2v-2h-2v2zm-1.85 0v-2h-2v2h2zm0 2.66v2h2v-2h-2zm-2.79 0v-2h-2v2h2zm0 1.78h-2v2h2v-2zm2.78 0h2v-2h-2v2zm0 3.58l.17 2 1.84-.15v-1.85h-2zm-8.08 2.81l-.86-1.8.86 1.8zm-1.02 2.5l1.87-.69-1.87.69zm2.92 7.97l-1.88.69.49 1.3h1.4v-2zm1.3-9.6l-.63-1.9.63 1.9zm4.03-1.1h2v-2.38l-2.33.4.34 1.97zm-5.19 3.88l-1.79.9 1.8-.9zm1.64 3.27l-1.79.9.55 1.1h1.24v-2zm3.56 0v2h2v-2h-2zm3.55-7.16l.34-1.97-2.34-.4V237h2zm4.04 1.1l.62-1.9-.62 1.9zm-4.04 6.06h-2v2h2v-2zm3.56 0v2h1.23l.56-1.1-1.8-.9zm1.63-3.27l-1.78-.9 1.78.9zm1.2-1.84l-2.93 7.97 3.75 1.38 2.93-7.97-3.76-1.38zm0 0l3.75 1.38a4 4 0 00-2.05-5l-1.7 3.62zm-7.4-2.62c1.96.16 3.78.92 7.4 2.62l1.7-3.62c-3.5-1.65-5.97-2.76-8.78-2.99l-.32 3.99zm-1.84-5.58v3.58h4v-3.58h-4zm4.78-2h-2.78v4h2.78v-4zm-2 .22v1.78h4v-1.78h-4zm-.78 2h2.78v-4h-2.78v4zm-2-4.66v2.66h4v-2.66h-4zm.15 2h1.85v-4h-1.85v4zm2 .66v-2.66h-4v2.66h4zm-4.79 2h2.78v-4h-2.78v4zm2-.22v-1.78h-4v1.78h4zm.78-2h-2.78v4h2.78v-4zm2 5.58v-3.58h-4v3.58h4zm-9.23 4.62c3.61-1.7 5.44-2.46 7.4-2.62l-.33-3.99c-2.8.23-5.28 1.34-8.78 3l1.71 3.61zm0 0l-1.7-3.62a4 4 0 00-2.05 5l3.75-1.38zm2.93 7.97l-2.93-7.97-3.75 1.38 2.93 7.97 3.75-1.38zm12.34-1.31H169.5v4h14.22v-4zm-12.3-5.7a27.7 27.7 0 013.75-1.03l-.67-3.95c-1.28.22-2.66.63-4.32 1.17l1.24 3.8zm.01-.02l-.01.01-1.24-3.8a3.99 3.99 0 00-2.33 5.58l3.58-1.79zm1.64 3.27l-1.64-3.27-3.58 1.8 1.64 3.26 3.58-1.79zm1.77-1.1h-3.56v4h3.56v-4zm-2-5.16v7.16h4v-7.16h-4zm5.21 1.98c.97.16 2.12.49 3.76 1.02l1.24-3.8a31.48 31.48 0 00-4.32-1.17l-.68 3.95zm2.34 5.18v-7.16h-4v7.16h4zm1.56-2h-3.56v4h3.56v-4zm-.15-2.17l-1.64 3.27 3.58 1.8 1.63-3.28-3.57-1.79zm.01.01h-.01v-.01l3.57 1.8a3.99 3.99 0 00-2.32-5.59l-1.24 3.8z" fill="#000" mask="url(#i)"/><path d="M186.4 252.25h1v-2.56a3 3 0 00-3-3h-15.56a3 3 0 00-3 3v2.56h20.55zM268.61 236.05h-.88l-.11.87-1.33 10.65-.14 1.13h12.98l-.2-1.17-1.78-10.65-.13-.83h-8.41z" fill="#fff" stroke="#000" stroke-width="2"/><path d="M265.5 228.95h-1v9.1h16.22v-9.1h-3.12l-.24.65-1.18 3.23h-1.03l-.86-3.15-.2-.73h-2.95l-.2.73-.87 3.15h-1.02l-1.19-3.23-.24-.65h-2.12zM282.4 252.25h1v-2.56a3 3 0 00-3-3h-15.56a3 3 0 00-3 3v2.56h20.55zM44.61 237.04h-.88l-.11.88-1.33 10.65-.14 1.12h12.98l-.2-1.16-1.78-10.65-.13-.84H44.6z" fill="#fff" stroke="#000" stroke-width="2"/><path d="M41.5 229.95h-1v9.1h16.22v-9.1H53.6l-.24.65-1.18 3.23h-1.03l-.86-3.15-.2-.73h-2.95l-.2.73-.87 3.15h-1.02l-1.19-3.23-.24-.65H41.5zM58.4 253.24h1v-2.55a3 3 0 00-3-3H40.83a3 3 0 00-3 3v2.55h20.55z" fill="#fff" stroke="#000" stroke-width="2"/><mask id="j" maskUnits="userSpaceOnUse" x="134.5" y="162.28" width="20" height="24" fill="#000"><path fill="#fff" d="M134.5 162.28h20v24h-20z"/><path fill-rule="evenodd" clip-rule="evenodd" d="M145.2 167.4c.54-.24.92-.82.92-1.49 0-.9-.7-1.63-1.54-1.63-.86 0-1.55.73-1.55 1.63 0 .69.4 1.27.97 1.52l-6.5 9.37s3.12 7.53 7.09 7.47c3.96-.05 7.27-7.67 7.27-7.67l-6.67-9.2z"/></mask><path fill-rule="evenodd" clip-rule="evenodd" d="M145.2 167.4c.54-.24.92-.82.92-1.49 0-.9-.7-1.63-1.54-1.63-.86 0-1.55.73-1.55 1.63 0 .69.4 1.27.97 1.52l-6.5 9.37s3.12 7.53 7.09 7.47c3.96-.05 7.27-7.67 7.27-7.67l-6.67-9.2z" fill="#fff"/><path d="M145.2 167.4l-.84-1.8-2.21 1.01 1.43 1.97 1.61-1.17zm-1.2.03l1.64 1.13 1.4-2.01-2.26-.96-.78 1.84zm-6.5 9.37l-1.64-1.14-.62.9.41 1 1.85-.76zm7.09 7.47l-.03-2 .03 2zm7.27-7.67l1.84.8.45-1.05-.67-.92-1.62 1.17zm-7.74-10.69c0-.09.06-.23.24-.32l1.67 3.63a3.63 3.63 0 002.1-3.3h-4zm.46.37a.5.5 0 01-.36-.14.34.34 0 01-.1-.23h4c0-1.9-1.49-3.63-3.54-3.63v4zm.45-.37c0 .07-.03.16-.1.23a.5.5 0 01-.35.14v-4a3.59 3.59 0 00-3.55 3.63h4zm-.25-.32c.2.08.25.23.25.32h-4c0 1.47.86 2.79 2.18 3.35l1.57-3.67zm-5.63 12.35l6.49-9.38-3.29-2.27-6.5 9.37 3.3 2.28zm5.41 4.33c-.34 0-.83-.15-1.48-.69-.65-.53-1.29-1.3-1.87-2.15a21.32 21.32 0 01-1.74-3.13l-.1-.21-.02-.05-1.85.76-1.84.76v.04l.04.08.12.27.44.92c.38.76.94 1.78 1.64 2.81a14.3 14.3 0 002.64 3 6.34 6.34 0 004.08 1.6l-.06-4zm7.3-5.67l-1.83-.8v.01l-.03.05a23.97 23.97 0 01-1.93 3.42c-.61.88-1.28 1.67-1.95 2.23-.7.58-1.21.76-1.56.76l.06 4a6.57 6.57 0 004.06-1.68c1.06-.88 1.96-2 2.68-3.04a26.87 26.87 0 002.32-4.12l.01-.02v-.01l-1.83-.8zm-8.28-8.02l6.66 9.2 3.24-2.35-6.67-9.2-3.23 2.35z" fill="#000" mask="url(#j)"/><path d="M154.4 188.35h1v-2.54a3 3 0 00-3-3h-15.56a3 3 0 00-3 3v2.54h20.55z" fill="#fff" stroke="#000" stroke-width="2"/><path d="M144.61 174.04l3.56-2.66 1.33 1.78-4.89 3.55v-2.67z" fill="#000"/><mask id="k" maskUnits="userSpaceOnUse" x="198.5" y="130.34" width="20" height="24" fill="#000"><path fill="#fff" d="M198.5 130.34h20v24h-20z"/><path fill-rule="evenodd" clip-rule="evenodd" d="M209.2 135.46c.54-.25.92-.82.92-1.49 0-.9-.7-1.63-1.54-1.63-.86 0-1.55.73-1.55 1.63 0 .68.4 1.27.97 1.51l-6.5 9.37s3.12 7.53 7.09 7.48c3.96-.06 7.27-7.68 7.27-7.68l-6.67-9.19z"/></mask><path fill-rule="evenodd" clip-rule="evenodd" d="M209.2 135.46c.54-.25.92-.82.92-1.49 0-.9-.7-1.63-1.54-1.63-.86 0-1.55.73-1.55 1.63 0 .68.4 1.27.97 1.51l-6.5 9.37s3.12 7.53 7.09 7.48c3.96-.06 7.27-7.68 7.27-7.68l-6.67-9.19z" fill="#fff"/><path d="M209.2 135.46l-.84-1.81-2.21 1.02 1.43 1.97 1.61-1.18zm-1.2.02l1.64 1.14 1.4-2.02-2.26-.96-.78 1.84zm-6.5 9.37l-1.64-1.13-.62.9.41 1 1.85-.77zm7.09 7.48l-.03-2 .03 2zm7.27-7.68l1.84.8.45-1.04-.67-.93-1.62 1.18zm-7.74-10.68c0-.1.06-.24.24-.32l1.67 3.63a3.63 3.63 0 002.1-3.31h-4zm.46.37a.5.5 0 01-.36-.15.33.33 0 01-.1-.22h4c0-1.9-1.49-3.63-3.54-3.63v4zm.45-.37c0 .07-.03.15-.1.22a.5.5 0 01-.35.15v-4a3.59 3.59 0 00-3.55 3.63h4zm-.25-.33c.2.08.25.23.25.33h-4c0 1.46.86 2.78 2.18 3.35l1.57-3.68zM203.15 146l6.49-9.37-3.29-2.28-6.5 9.38 3.3 2.27zm5.41 4.34c-.34 0-.83-.16-1.48-.7a10.4 10.4 0 01-1.87-2.14 21.23 21.23 0 01-1.74-3.14l-.1-.2c0-.03-.01-.04-.02-.05v-.01l-1.85.76-1.84.77v.04a5.84 5.84 0 00.16.34 24.52 24.52 0 002.08 3.74 14.3 14.3 0 002.64 2.99 6.34 6.34 0 004.08 1.6l-.06-4zm7.3-5.68l-1.83-.8v.02l-.03.05a14.25 14.25 0 01-.5 1 23 23 0 01-1.43 2.41c-.61.88-1.28 1.68-1.95 2.24-.7.57-1.21.75-1.56.76l.06 4a6.57 6.57 0 004.06-1.69c1.06-.88 1.96-2 2.68-3.03a26.87 26.87 0 002.32-4.12l.01-.03-1.83-.8zm-8.28-8.01l6.66 9.19 3.24-2.35-6.67-9.19-3.23 2.35z" fill="#000" mask="url(#k)"/><path d="M218.4 156.41h1v-2.55a3 3 0 00-3-3h-15.56a3 3 0 00-3 3v2.55h20.55z" fill="#fff" stroke="#000" stroke-width="2"/><path d="M208.61 142.1l3.56-2.66 1.33 1.77-4.89 3.55v-2.66z" fill="#000"/><path fill-rule="evenodd" clip-rule="evenodd" d="M147.47 230.24a3 3 0 01-1.09 2.33l1.79 7.14 3.88-3.65a3.03 3.03 0 01-.33-1.38 2.9 2.9 0 012.86-2.96 2.9 2.9 0 012.86 2.96 2.9 2.9 0 01-3.05 2.95l-2.67 10.06H137.5l-2.67-10.06a2.92 2.92 0 01-2.66-2.95 2.9 2.9 0 012.86-2.96 2.9 2.9 0 012.85 2.96c0 .6-.17 1.15-.46 1.61l3.64 3.42 1.78-7.14a2.99 2.99 0 01-1.09-2.33 2.9 2.9 0 012.86-2.95 2.9 2.9 0 012.86 2.95z" fill="#fff"/><path d="M146.38 232.57l-.63-.78-.5.4.16.62.97-.24zm1.79 7.14l-.97.24.41 1.65 1.24-1.16-.68-.73zm3.88-3.65l.69.73.54-.52-.34-.67-.89.46zm2.34 1.57l.07-1-.82-.05-.21.8.96.25zm-2.67 10.06v1h.77l.2-.74-.97-.25zm-14.22 0l-.97.26.2.75h.77v-1zm-2.67-10.06l.97-.25-.18-.7-.72-.05-.07 1zm2.6-1.34l-.86-.53-.43.7.6.56.68-.73zm3.63 3.42l-.69.73 1.24 1.16.42-1.65-.97-.24zm1.78-7.14l.97.24.16-.62-.5-.4-.63.78zm4.17.77a4 4 0 001.46-3.1h-2c0 .64-.29 1.2-.72 1.55l1.26 1.55zm2.13 6.13l-1.79-7.15-1.94.5 1.79 7.13 1.94-.48zm2.23-4.14l-3.89 3.65 1.37 1.46 3.89-3.65-1.37-1.46zm-.65-.65c0 .66.16 1.28.44 1.83l1.78-.9a2.03 2.03 0 01-.22-.93h-2zm3.86-3.96a3.9 3.9 0 00-3.86 3.96h2a1.9 1.9 0 011.86-1.96v-2zm3.86 3.96a3.9 3.9 0 00-3.86-3.96v2c1 0 1.86.85 1.86 1.96h2zm-3.86 3.96a3.9 3.9 0 003.86-3.96h-2c0 1.11-.87 1.96-1.86 1.96v2zm-.26-.01h.26v-2h-.12l-.14 2zm-1.63 9.32l2.67-10.06-1.94-.51-2.66 10.06 1.93.51zm-15.19.75h14.22v-2H137.5v2zm-3.63-10.81l2.66 10.06 1.94-.51-2.67-10.06-1.93.5zm1.03-1.26a1.92 1.92 0 01-1.73-1.95h-2c0 2.07 1.56 3.8 3.6 3.95l.13-2zm-1.73-1.95a1.9 1.9 0 011.86-1.96v-2a3.9 3.9 0 00-3.86 3.96h2zm1.86-1.96c.99 0 1.85.85 1.85 1.96h2a3.9 3.9 0 00-3.85-3.96v2zm1.85 1.96c0 .4-.11.77-.3 1.08l1.69 1.06c.39-.61.61-1.35.61-2.14h-2zm4.86 4.3l-3.63-3.42-1.37 1.46 3.63 3.42 1.37-1.46zm.13-6.66l-1.78 7.15 1.94.48 1.78-7.14-1.94-.49zm-1.12-2.08a4 4 0 001.46 3.1l1.27-1.55a2 2 0 01-.72-1.55h-2zm3.86-3.95a3.9 3.9 0 00-3.86 3.95h2c0-1.11.87-1.95 1.86-1.95v-2zm3.86 3.95a3.9 3.9 0 00-3.86-3.95v2c1 0 1.86.84 1.86 1.95h2z" fill="#000"/><path d="M154.4 252.25h1v-2.56a3 3 0 00-3-3h-15.56a3 3 0 00-3 3v2.56h20.55z" fill="#fff" stroke="#000" stroke-width="2"/></g><defs><clipPath id="clip0"><path fill="#fff" transform="translate(.61 .24)" d="M0 0h320v288H0z"/></clipPath></defs></svg>