<svg width="321" height="289" fill="none" xmlns="http://www.w3.org/2000/svg"><g clip-path="url(#clip0)"><path fill="#FEE6C1" d="M32.55.88h256v256h-256z"/><path d="M32.55 224.88h32v32h-32v-32zM32.55 96.88h32v32h-32v-32zM32.55 160.88h32v32h-32v-32zM32.55 32.88h32v32h-32v-32zM64.55 192.88h32v32h-32v-32zM64.55 64.88h32v32h-32v-32zM64.55 128.88h32v32h-32v-32zM64.55.88h32v32h-32v-32zM160.55 224.88h32v32h-32v-32zM160.55 96.88h32v32h-32v-32zM160.55 160.88h32v32h-32v-32zM160.55 32.88h32v32h-32v-32zM192.55 192.88h32v32h-32v-32zM192.55 64.88h32v32h-32v-32zM192.55 128.88h32v32h-32v-32zM192.55.88h32v32h-32v-32zM96.55 224.88h32v32h-32v-32zM96.55 96.88h32v32h-32v-32zM96.55 160.88h32v32h-32v-32zM96.55 32.88h32v32h-32v-32zM128.55 192.88h32v32h-32v-32zM128.55 64.88h32v32h-32v-32zM128.55 128.88h32v32h-32v-32zM128.55.88h32v32h-32v-32zM224.55 224.88h32v32h-32v-32zM224.55 96.88h32v32h-32v-32zM224.55 160.88h32v32h-32v-32zM224.55 32.88h32v32h-32v-32zM256.55 192.88h32v32h-32v-32zM256.55 64.88h32v32h-32v-32zM256.55 128.88h32v32h-32v-32zM256.55.88h32v32h-32v-32z" fill="#866C4A"/><path d="M13.97 238.25v-2.55h4.43v11.68h-2.84v-9.13h-1.59zM12.6 213.19l.5-.4a59.07 59.07 0 002.46-2.13c.6-.55 1.12-1.13 1.54-1.74.41-.61.62-1.2.62-1.78 0-.43-.1-.78-.3-1.02-.2-.25-.51-.37-.92-.37-.4 0-.72.16-.96.46-.22.3-.33.73-.33 1.28h-2.64c.02-.9.21-1.66.57-2.27.38-.6.86-1.05 1.46-1.34.6-.29 1.28-.43 2.02-.43 1.27 0 2.22.32 2.86.97.65.65.98 1.5.98 2.55 0 1.14-.4 2.2-1.17 3.18-.78.97-1.77 1.92-2.98 2.85h4.32v2.22H12.6v-2.03zM12.52 175a3.52 3.52 0 011.12-2.64c.7-.62 1.66-.93 2.86-.93.8 0 1.49.14 2.05.42a2.95 2.95 0 011.75 2.75c0 .7-.18 1.28-.53 1.73a2.7 2.7 0 01-1.23.9v.06c.6.2 1.08.53 1.44 1 .35.47.52 1.08.52 1.81a3.07 3.07 0 01-1.8 2.94c-.56.3-1.25.44-2.05.44a4.7 4.7 0 01-3.07-.95c-.76-.63-1.16-1.57-1.2-2.84h2.65c.01.47.15.84.4 1.12.26.26.63.4 1.12.4.42 0 .74-.12.96-.36.24-.24.35-.56.35-.96 0-.5-.16-.88-.5-1.1-.31-.23-.83-.35-1.54-.35h-.52v-2.23h.52c.54 0 .98-.09 1.3-.27.35-.19.52-.53.52-1 0-.39-.1-.69-.32-.9-.21-.22-.5-.32-.88-.32-.4 0-.71.12-.91.37-.2.24-.3.54-.34.9h-2.67zM11.92 149.3v-2.2l5.05-7.24h3.06v7.07h1.31v2.37h-1.31v2.08h-2.74v-2.08h-5.37zm5.56-6.43l-2.68 4.06h2.68v-4.06zM20.29 109.09h-5v2.2c.22-.23.52-.42.9-.57.39-.15.8-.23 1.25-.23.8 0 1.46.19 1.98.55.54.36.93.83 1.17 1.4.25.58.37 1.2.37 1.88 0 1.25-.35 2.24-1.06 2.97-.7.73-1.7 1.1-2.97 1.1a5.3 5.3 0 01-2.23-.44c-.63-.3-1.11-.7-1.45-1.23a3.54 3.54 0 01-.56-1.81h2.67c.06.33.22.6.46.83.25.22.59.32 1.01.32.5 0 .88-.16 1.12-.48.25-.32.37-.75.37-1.28 0-.52-.13-.92-.38-1.2-.26-.27-.63-.41-1.12-.41-.37 0-.67.09-.9.27-.23.17-.39.4-.46.69h-2.64v-6.96h7.47v2.4zM17.95 77.85a1.6 1.6 0 00-.45-.88c-.21-.2-.52-.3-.91-.3-.6 0-1.05.27-1.31.8-.27.52-.4 1.35-.42 2.5a2.4 2.4 0 011-.88c.46-.22.95-.32 1.48-.32a3.3 3.3 0 012.51.99c.64.66.96 1.58.96 2.77 0 .77-.16 1.46-.48 2.04a3.3 3.3 0 01-1.37 1.38c-.6.33-1.3.5-2.13.5-1.64 0-2.78-.52-3.42-1.54-.64-1.03-.96-2.52-.96-4.45 0-2.02.33-3.53 1-4.51.69-1 1.77-1.49 3.27-1.49.8 0 1.47.16 2.01.48.56.31.97.72 1.25 1.23.29.52.46 1.08.51 1.68h-2.54zm-1.26 3.08c-.46 0-.85.13-1.16.41-.3.27-.44.65-.44 1.15 0 .52.13.92.41 1.2.29.3.7.44 1.22.44.47 0 .83-.14 1.1-.42.28-.29.42-.68.42-1.17 0-.5-.14-.9-.4-1.18-.27-.29-.65-.43-1.15-.43zM20.44 44.75l-4.01 9.63h-2.8l4.06-9.33h-4.98v-2.33h7.73v2.03zM14 17.11c-1-.53-1.5-1.37-1.5-2.51a2.86 2.86 0 011.8-2.7c.61-.3 1.36-.44 2.24-.44.89 0 1.63.15 2.23.43.6.28 1.06.66 1.36 1.14.3.47.45 1 .45 1.57a2.7 2.7 0 01-.42 1.5c-.27.43-.63.76-1.09 1.01.58.28 1.02.66 1.33 1.15.3.48.46 1.05.46 1.7a3.37 3.37 0 01-2.14 3.21c-.65.3-1.38.44-2.18.44-.8 0-1.53-.15-2.19-.44a3.37 3.37 0 01-2.13-3.22A3.04 3.04 0 0114 17.1zm3.92-2.1c0-.43-.13-.77-.38-1a1.34 1.34 0 00-1-.37c-.41 0-.75.12-1 .37-.25.24-.37.58-.37 1.02 0 .42.13.75.38 1 .26.23.59.34 1 .34.4 0 .73-.12.99-.36.25-.25.38-.58.38-1zm-1.38 3.28c-.5 0-.9.14-1.21.42-.31.27-.47.64-.47 1.12 0 .45.15.82.45 1.1.31.3.72.44 1.23.44.52 0 .92-.15 1.2-.44.3-.28.45-.65.45-1.1 0-.47-.15-.84-.46-1.12-.3-.28-.7-.42-1.19-.42zM273.64 269.86c1.02 0 1.84.34 2.46 1.02.62.67.93 1.6.93 2.79v5.21h-2.72v-4.85c0-.6-.16-1.06-.47-1.39-.3-.33-.72-.5-1.24-.5-.53 0-.94.17-1.25.5-.31.33-.47.8-.47 1.4v4.84h-2.73v-11.84h2.73v4.11c.28-.4.66-.7 1.14-.94a3.63 3.63 0 011.62-.35zM239.5 269.83c.63 0 1.18.12 1.65.38.48.26.85.6 1.1 1v-1.26H245v8.92a4.9 4.9 0 01-.5 2.22c-.32.67-.81 1.2-1.49 1.6-.66.4-1.48.6-2.47.6-1.33 0-2.4-.32-3.22-.95a3.51 3.51 0 01-1.4-2.53h2.7c.08.34.28.6.6.8.32.2.72.3 1.19.3.56 0 1.01-.16 1.34-.5.34-.31.51-.83.51-1.54v-1.27a3.1 3.1 0 01-2.75 1.41 3.7 3.7 0 01-3.42-2.18 5.51 5.51 0 01-.52-2.43c0-.91.18-1.72.52-2.41a3.7 3.7 0 013.42-2.16zm2.75 4.59c0-.69-.19-1.22-.57-1.62-.38-.4-.84-.59-1.38-.59-.54 0-1 .2-1.4.6a2.2 2.2 0 00-.55 1.6c0 .67.19 1.22.56 1.62.38.4.85.6 1.4.6.53 0 1-.2 1.37-.6.38-.4.57-.93.57-1.61zM211.14 272.23h-1.48v6.65h-2.73v-6.65h-1v-2.28h1v-.25c0-1.1.31-1.93.94-2.5.63-.57 1.55-.86 2.77-.86l.45.01v2.32c-.53-.03-.9.05-1.1.23-.22.18-.33.5-.33.97v.08h1.48v2.28zM181.03 274.27c0 .26-.02.53-.05.8h-6.2c.05.56.22.99.53 1.28.32.3.71.44 1.17.44.68 0 1.16-.3 1.43-.87h2.9a3.93 3.93 0 01-.8 1.59c-.4.47-.88.83-1.47 1.1a4.7 4.7 0 01-1.96.4 4.8 4.8 0 01-2.34-.56 3.99 3.99 0 01-1.6-1.6c-.38-.7-.57-1.5-.57-2.43 0-.93.18-1.74.56-2.43.38-.7.91-1.23 1.6-1.6a4.83 4.83 0 012.35-.56c.86 0 1.63.18 2.3.54.67.36 1.2.88 1.57 1.55.38.67.58 1.46.58 2.35zm-2.8-.72c0-.47-.16-.84-.48-1.12a1.77 1.77 0 00-1.2-.41c-.46 0-.85.13-1.17.4-.31.26-.5.64-.58 1.13h3.42zM139.56 274.4c0-.91.18-1.72.52-2.41a3.7 3.7 0 015.02-1.8c.5.25.88.58 1.15 1v-4.15H149v11.84h-2.74v-1.28c-.25.43-.62.77-1.1 1.03-.47.25-1.02.38-1.65.38a3.7 3.7 0 01-3.42-2.18 5.51 5.51 0 01-.52-2.43zm6.7.02c0-.69-.2-1.22-.58-1.62-.38-.4-.84-.59-1.38-.59-.54 0-1 .2-1.4.6a2.2 2.2 0 00-.55 1.6c0 .67.19 1.22.56 1.62.38.4.85.6 1.4.6.53 0 1-.2 1.37-.6.38-.4.57-.93.57-1.61zM108.15 274.42c0-.93.19-1.74.56-2.43.39-.7.91-1.23 1.59-1.6a4.8 4.8 0 012.33-.56c1.12 0 2.05.29 2.8.88a4.14 4.14 0 011.49 2.48H114c-.25-.69-.72-1.03-1.43-1.03-.5 0-.9.2-1.2.6-.3.38-.44.93-.44 1.66 0 .72.14 1.28.44 1.68.3.38.7.57 1.2.57.7 0 1.18-.34 1.43-1.02h2.9a4.2 4.2 0 01-1.48 2.46c-.76.6-1.69.9-2.8.9a4.8 4.8 0 01-2.33-.56c-.68-.37-1.2-.9-1.59-1.6-.37-.7-.56-1.5-.56-2.43zM78.85 271.22c.25-.42.62-.75 1.1-1.01a3.45 3.45 0 011.65-.38 3.7 3.7 0 013.4 2.16c.36.69.53 1.5.53 2.41 0 .92-.17 1.73-.52 2.43a3.7 3.7 0 01-3.4 2.18c-.64 0-1.2-.12-1.66-.37-.47-.25-.84-.59-1.1-1v1.24H76.1v-11.84h2.74v4.18zm3.9 3.18c0-.68-.2-1.21-.58-1.6-.37-.4-.83-.59-1.39-.59-.54 0-1 .2-1.4.6-.36.39-.55.93-.55 1.6 0 .7.19 1.23.56 1.62.38.4.85.6 1.4.6.54 0 1-.2 1.38-.6.39-.4.58-.94.58-1.63zM43.57 274.4c0-.91.17-1.72.5-2.41.36-.7.83-1.23 1.43-1.6a3.7 3.7 0 012-.56c.63 0 1.18.12 1.65.38.48.26.85.6 1.1 1v-1.26H53v8.93h-2.74v-1.26c-.26.41-.64.75-1.12 1-.47.26-1.02.39-1.64.39a3.67 3.67 0 01-3.41-2.18 5.51 5.51 0 01-.51-2.43zm6.68.02c0-.69-.19-1.22-.57-1.62-.38-.4-.83-.59-1.38-.59-.54 0-1 .2-1.4.6a2.2 2.2 0 00-.55 1.6c0 .67.19 1.22.56 1.62.38.4.85.6 1.4.6.54 0 1-.2 1.37-.6.38-.4.57-.93.57-1.61z" fill="#000"/><mask id="a" maskUnits="userSpaceOnUse" x="102.44" y="227.22" width="20" height="25" fill="#000"><path fill="#fff" d="M102.44 227.22h20v25h-20z"/><path fill-rule="evenodd" clip-rule="evenodd" d="M113.13 232.34c.54-.25.93-.82.93-1.5 0-.9-.7-1.63-1.55-1.63a1.6 1.6 0 00-1.55 1.64c0 .68.4 1.27.97 1.51l-6.5 9.4s3.13 7.53 7.1 7.48c3.96-.06 7.27-7.69 7.27-7.69l-6.67-9.2z"/></mask><path fill-rule="evenodd" clip-rule="evenodd" d="M113.13 232.34c.54-.25.93-.82.93-1.5 0-.9-.7-1.63-1.55-1.63a1.6 1.6 0 00-1.55 1.64c0 .68.4 1.27.97 1.51l-6.5 9.4s3.13 7.53 7.1 7.48c3.96-.06 7.27-7.69 7.27-7.69l-6.67-9.2z" fill="#fff"/><path d="M113.13 232.34l-.84-1.81-2.2 1.02 1.42 1.97 1.62-1.18zm-1.2.02l1.64 1.14 1.4-2.01-2.25-.97-.79 1.84zm-6.5 9.4l-1.64-1.15-.62.9.42 1 1.85-.76zm7.1 7.48l.02 2-.03-2zm7.27-7.69l1.83.8.45-1.05-.66-.92-1.62 1.17zm-7.74-10.7c0-.1.05-.24.23-.32l1.68 3.63a3.64 3.64 0 002.09-3.31h-4zm.45.37a.5.5 0 01-.36-.15.32.32 0 01-.1-.22h4c0-1.9-1.48-3.63-3.54-3.63v4zm.45-.37c0 .06-.02.15-.1.22a.5.5 0 01-.35.15v-4a3.59 3.59 0 00-3.55 3.63h4zm-.24-.33c.19.08.24.23.24.33h-4c0 1.46.86 2.78 2.18 3.35l1.58-3.68zm-5.64 12.37l6.5-9.39-3.3-2.28-6.49 9.4 3.29 2.27zm5.41 4.35c-.33 0-.82-.15-1.48-.7-.64-.52-1.28-1.29-1.86-2.15a21.36 21.36 0 01-1.84-3.35l-.02-.04v-.01l-1.85.76-1.85.77.01.03a5.84 5.84 0 00.16.35l.44.93c.38.75.94 1.77 1.64 2.8.69 1.03 1.58 2.14 2.63 3a6.33 6.33 0 004.08 1.6l-.06-4zm7.3-5.69l-1.83-.8v.01l-.03.06-.1.2c-.08.2-.22.47-.39.8-.34.67-.84 1.55-1.44 2.42-.6.88-1.28 1.67-1.95 2.24-.69.57-1.2.75-1.56.76l.06 4a6.57 6.57 0 004.06-1.69c1.06-.88 1.97-2 2.68-3.04a27.08 27.08 0 002.3-4.05c0-.03.02-.06.03-.08v-.02l.01-.01-1.83-.8zm-8.28-8.03l6.67 9.2 3.24-2.34-6.67-9.2-3.24 2.34z" fill="#000" mask="url(#a)"/><path d="M122.33 253.33h1v-2.56a3 3 0 00-3-3h-15.56a3 3 0 00-3 3v2.56h20.56z" fill="#fff" stroke="#000" stroke-width="2"/><path d="M112.55 239l3.55-2.67 1.34 1.77-4.9 3.56v-2.67z" fill="#000"/><mask id="b" maskUnits="userSpaceOnUse" x="70.44" y="99.22" width="20" height="25" fill="#000"><path fill="#fff" d="M70.44 99.22h20v25h-20z"/><path fill-rule="evenodd" clip-rule="evenodd" d="M81.13 104.34c.54-.25.92-.82.92-1.5 0-.9-.69-1.63-1.54-1.63a1.6 1.6 0 00-1.55 1.64c0 .68.4 1.27.97 1.51l-6.5 9.4s3.13 7.53 7.1 7.48c3.96-.06 7.27-7.69 7.27-7.69l-6.67-9.2z"/></mask><path fill-rule="evenodd" clip-rule="evenodd" d="M81.13 104.34c.54-.25.92-.82.92-1.5 0-.9-.69-1.63-1.54-1.63a1.6 1.6 0 00-1.55 1.64c0 .68.4 1.27.97 1.51l-6.5 9.4s3.13 7.53 7.1 7.48c3.96-.06 7.27-7.69 7.27-7.69l-6.67-9.2z" fill="#fff"/><path d="M81.13 104.34l-.84-1.81-2.2 1.02 1.42 1.97 1.62-1.17zm-1.2.02l1.64 1.14 1.4-2.01-2.25-.97-.79 1.84zm-6.5 9.4l-1.64-1.15-.62.9.42 1 1.85-.76zm7.1 7.48l.02 2-.03-2zm7.27-7.69l1.83.8.45-1.05-.66-.92-1.62 1.17zm-7.75-10.7c0-.1.06-.24.24-.32l1.68 3.63a3.64 3.64 0 002.08-3.31h-4zm.46.37a.5.5 0 01-.36-.15.33.33 0 01-.1-.22h4c0-1.9-1.48-3.63-3.54-3.63v4zm.45-.37c0 .06-.02.15-.09.22a.5.5 0 01-.36.15v-4a3.59 3.59 0 00-3.55 3.63h4zm-.24-.33c.19.09.24.23.24.33h-4c0 1.46.86 2.79 2.18 3.35l1.58-3.68zm-5.64 12.37l6.5-9.39-3.3-2.28-6.49 9.4 3.29 2.27zm5.41 4.35c-.33 0-.82-.15-1.48-.7-.64-.52-1.28-1.29-1.86-2.15a21.24 21.24 0 01-1.84-3.35l-.02-.05-1.85.76-1.85.77a.9.9 0 00.05.1 14.35 14.35 0 00.56 1.2c.38.76.93 1.79 1.64 2.82.69 1.02 1.58 2.13 2.63 3a6.33 6.33 0 004.08 1.6l-.06-4zm7.3-5.69l-1.83-.8v.02l-.03.05a12.82 12.82 0 01-.49 1c-.34.67-.84 1.55-1.44 2.42-.6.88-1.27 1.68-1.95 2.24-.69.57-1.2.75-1.56.76l.06 4a6.57 6.57 0 004.06-1.69c1.06-.88 1.97-2 2.68-3.04a26.87 26.87 0 002.34-4.15v-.01l-1.83-.8zm-8.28-8.03l6.67 9.2 3.24-2.34-6.67-9.2-3.24 2.34z" fill="#000" mask="url(#b)"/><path d="M90.33 125.33h1v-2.56a3 3 0 00-3-3H72.77a3 3 0 00-3 3v2.56h20.56z" fill="#fff" stroke="#000" stroke-width="2"/><path d="M80.55 111l3.55-2.67 1.34 1.77-4.9 3.56v-2.67z" fill="#000"/><mask id="c" maskUnits="userSpaceOnUse" x="198.44" y="3.22" width="20" height="25" fill="#000"><path fill="#fff" d="M198.44 3.22h20v25h-20z"/><path fill-rule="evenodd" clip-rule="evenodd" d="M209.13 8.34c.54-.25.93-.82.93-1.5 0-.9-.7-1.62-1.55-1.62a1.6 1.6 0 00-1.55 1.63c0 .68.4 1.27.97 1.51l-6.5 9.4s3.13 7.53 7.1 7.48c3.96-.06 7.27-7.69 7.27-7.69l-6.67-9.2z"/></mask><path fill-rule="evenodd" clip-rule="evenodd" d="M209.13 8.34c.54-.25.93-.82.93-1.5 0-.9-.7-1.62-1.55-1.62a1.6 1.6 0 00-1.55 1.63c0 .68.4 1.27.97 1.51l-6.5 9.4s3.13 7.53 7.1 7.48c3.96-.06 7.27-7.69 7.27-7.69l-6.67-9.2z" fill="#5C5C5C"/><path d="M209.13 8.34l-.84-1.81-2.2 1.02 1.42 1.97 1.62-1.18zm-1.2.02l1.64 1.14 1.4-2.01-2.25-.97-.79 1.84zm-6.5 9.4l-1.64-1.15-.62.9.42 1 1.85-.76zm7.1 7.48l.02 2-.03-2zm7.27-7.69l1.83.8.45-1.05-.66-.92-1.62 1.17zm-7.75-10.7c0-.1.06-.24.24-.32l1.68 3.63a3.64 3.64 0 002.09-3.31h-4zm.46.37a.5.5 0 01-.36-.15.32.32 0 01-.1-.22h4c0-1.9-1.48-3.63-3.54-3.63v4zm.45-.37c0 .06-.02.15-.1.22a.5.5 0 01-.35.15v-4a3.59 3.59 0 00-3.55 3.63h4zm-.24-.33c.19.08.24.24.24.33h-4c0 1.46.86 2.78 2.18 3.35l1.58-3.68zm-5.64 12.37l6.5-9.39-3.3-2.28-6.49 9.4 3.29 2.27zm5.41 4.35c-.33 0-.82-.15-1.48-.7-.64-.52-1.28-1.29-1.86-2.15a21.37 21.37 0 01-1.86-3.4l-1.85.76-1.85.77.01.03.03.08a14.01 14.01 0 00.57 1.2c.38.75.94 1.78 1.64 2.8.69 1.03 1.58 2.14 2.63 3a6.33 6.33 0 004.08 1.6l-.06-4zm7.3-5.69l-1.83-.8v.02l-.03.05-.1.2c-.08.2-.22.47-.39.8-.34.67-.84 1.55-1.44 2.42a11.4 11.4 0 01-1.95 2.24c-.69.57-1.2.75-1.56.76l.06 4a6.57 6.57 0 004.06-1.69c1.06-.88 1.97-2 2.68-3.04a27.1 27.1 0 002.3-4.05c0-.03.02-.06.03-.08v-.02l.01-.01-1.83-.8zm-8.28-8.03l6.67 9.2 3.24-2.34-6.67-9.2-3.24 2.34z" fill="#000" mask="url(#c)"/><path d="M218.32 29.33h1v-2.56a3 3 0 00-3-3h-15.55a3 3 0 00-3 3v2.56h20.55z" fill="#5C5C5C" stroke="#000" stroke-width="2"/><path d="M208.55 15l3.55-2.67 1.34 1.77-4.9 3.56v-2.67z" fill="#000"/><mask id="d" maskUnits="userSpaceOnUse" x="163.38" y="225.44" width="26" height="26" fill="#000"><path fill="#fff" d="M163.38 225.44h26v26h-26z"/><path fill-rule="evenodd" clip-rule="evenodd" d="M183.66 248.77l2.93-7.98a2 2 0 00-1.03-2.5c-3.55-1.68-5.7-2.62-8.09-2.81v-3.6h2.79v-1.78h-2.79v-2.66h-1.85v2.66h-2.79v1.78h2.79v3.6c-2.38.19-4.54 1.13-8.1 2.81a2 2 0 00-1.01 2.5l2.93 7.98h14.22zm-8.9-10.72c-1.11.2-2.38.56-4.03 1.1a2 2 0 00-1.16 2.78l1.64 3.28h3.56v-7.16zm7.6 1.1c-1.65-.54-2.91-.9-4.04-1.1v7.16h3.56l1.64-3.28c.54-1.08 0-2.4-1.15-2.78z"/></mask><path fill-rule="evenodd" clip-rule="evenodd" d="M183.66 248.77l2.93-7.98a2 2 0 00-1.03-2.5c-3.55-1.68-5.7-2.62-8.09-2.81v-3.6h2.79v-1.78h-2.79v-2.66h-1.85v2.66h-2.79v1.78h2.79v3.6c-2.38.19-4.54 1.13-8.1 2.81a2 2 0 00-1.01 2.5l2.93 7.98h14.22zm-8.9-10.72c-1.11.2-2.38.56-4.03 1.1a2 2 0 00-1.16 2.78l1.64 3.28h3.56v-7.16zm7.6 1.1c-1.65-.54-2.91-.9-4.04-1.1v7.16h3.56l1.64-3.28c.54-1.08 0-2.4-1.15-2.78z" fill="#fff"/><path d="M175.7 236.47c.57-.04 1.13-.04 1.7 0l.16-2c-.68-.05-1.35-.05-2.02 0l.16 2zm10.89 4.32l1.87.69-1.88-.7zm-2.93 7.98v2h1.4l.47-1.31-1.87-.69zm1.9-10.48l.86-1.8-.85 1.8zm-8.09-2.81h-2v1.84l1.84.15.16-2zm0-3.6v-2h-2v2h2zm2.79 0v2h2v-2h-2zm0-1.78h2v-2h-2v2zm-2.79 0h-2v2h2v-2zm0-2.66h2v-2h-2v2zm-1.85 0v-2h-2v2h2zm0 2.66v2h2v-2h-2zm-2.79 0v-2h-2v2h2zm0 1.78h-2v2h2v-2zm2.79 0h2v-2h-2v2zm0 3.6l.16 1.99 1.84-.15v-1.84h-2zm-8.1 2.81l.86 1.8-.85-1.8zm-1.01 2.5l1.88-.7-1.88.7zm2.93 7.98l-1.88.69.48 1.31h1.4v-2zm1.29-9.62l-.63-1.9.63 1.9zm4.04-1.1h2v-2.37l-2.34.4.34 1.97zm-5.2 3.88l1.8-.89-1.8.9zm1.64 3.28l-1.79.9.56 1.1h1.23v-2zm3.56 0v2h2v-2h-2zm3.55-7.16l.34-1.97-2.34-.4v2.37h2zm4.05 1.1l-.63 1.9.63-1.9zm-4.05 6.06h-2v2h2v-2zm3.56 0v2h1.24l.55-1.1-1.8-.9zm1.64-3.28l1.79.9-1.79-.9zm1.19-1.83l-2.93 7.98 3.75 1.38 2.93-7.99-3.75-1.37zm0 0l3.75 1.38a4 4 0 00-2.04-5l-1.71 3.62zm-7.4-2.63c1.96.16 3.79.92 7.4 2.63l1.71-3.62c-3.5-1.65-5.98-2.77-8.78-3l-.33 3.99zm-1.84-5.59v3.6h4v-3.6h-4zm4.79-2h-2.79v4h2.79v-4zm-2 .22v1.78h4v-1.78h-4zm-.79 2h2.79v-4h-2.79v4zm-2-4.66v2.66h4v-2.66h-4zm.15 2h1.85v-4h-1.85v4zm2 .66v-2.66h-4v2.66h4zm-4.79 2h2.79v-4h-2.79v4zm2-.22v-1.78h-4v1.78h4zm.79-2h-2.79v4h2.79v-4zm2 5.6v-3.6h-4v3.6h4zm-9.24 4.62c3.62-1.71 5.44-2.47 7.4-2.63l-.32-3.99c-2.8.23-5.29 1.35-8.79 3l1.71 3.62zm0 0l-1.7-3.62a4 4 0 00-2.05 5l3.75-1.38zm2.93 7.98l-2.93-7.98-3.75 1.38 2.93 7.98 3.75-1.38zm12.35-1.3h-14.22v4h14.22v-4zm-12.31-5.73a27.6 27.6 0 013.76-1.03l-.68-3.94c-1.28.22-2.66.63-4.33 1.17l1.25 3.8zm.01-.01l-.01.01-1.25-3.8a3.99 3.99 0 00-2.32 5.58l3.58-1.79zm1.64 3.28l-1.64-3.28-3.58 1.79 1.64 3.28 3.58-1.79zm1.77-1.1h-3.56v4h3.56v-4zm-2-5.17v7.16h4v-7.16h-4zm5.22 1.97c.97.17 2.11.5 3.75 1.03l1.25-3.8a31.28 31.28 0 00-4.33-1.17l-.67 3.94zm2.33 5.2v-7.17h-4v7.16h4zm1.56-2h-3.56v4h3.56v-4zm-.15-2.18l-1.64 3.28 3.58 1.79 1.64-3.28-3.58-1.79zm.02.01h-.02s0-.01 0 0v-.01l3.58 1.79a3.99 3.99 0 00-2.32-5.58l-1.25 3.8z" fill="#000" mask="url(#d)"/><path d="M186.32 253.33h1v-2.56a3 3 0 00-3-3h-15.55a3 3 0 00-3 3v2.56h20.55z" fill="#fff" stroke="#000" stroke-width="2"/><mask id="e" maskUnits="userSpaceOnUse" x="163.38" y="1.44" width="26" height="26" fill="#000"><path fill="#fff" d="M163.38 1.44h26v26h-26z"/><path fill-rule="evenodd" clip-rule="evenodd" d="M183.66 24.77l2.93-7.98a2 2 0 00-1.03-2.5c-3.55-1.68-5.7-2.62-8.09-2.81v-3.6h2.79V6.1h-2.79V3.44h-1.85V6.1h-2.79v1.78h2.79v3.6c-2.38.19-4.54 1.13-8.1 2.81a2 2 0 00-1.01 2.5l2.93 7.98h14.22zm-8.9-10.72c-1.11.2-2.38.56-4.03 1.1a1.99 1.99 0 00-1.16 2.78l1.64 3.29h3.56v-7.17zm7.6 1.1c-1.65-.54-2.91-.9-4.04-1.1v7.17h3.56l1.64-3.29c.54-1.08 0-2.4-1.15-2.78z"/></mask><path fill-rule="evenodd" clip-rule="evenodd" d="M183.66 24.77l2.93-7.98a2 2 0 00-1.03-2.5c-3.55-1.68-5.7-2.62-8.09-2.81v-3.6h2.79V6.1h-2.79V3.44h-1.85V6.1h-2.79v1.78h2.79v3.6c-2.38.19-4.54 1.13-8.1 2.81a2 2 0 00-1.01 2.5l2.93 7.98h14.22zm-8.9-10.72c-1.11.2-2.38.56-4.03 1.1a1.99 1.99 0 00-1.16 2.78l1.64 3.29h3.56v-7.17zm7.6 1.1c-1.65-.54-2.91-.9-4.04-1.1v7.17h3.56l1.64-3.29c.54-1.08 0-2.4-1.15-2.78z" fill="#5C5C5C"/><path d="M175.7 12.47c.57-.04 1.13-.04 1.7 0l.16-2c-.68-.05-1.35-.05-2.02 0l.16 2zm10.89 4.32l1.87.68-1.88-.68zm-2.93 7.98v2h1.4l.47-1.31-1.87-.69zm1.9-10.48l.86-1.8-.85 1.8zm-8.09-2.81h-2v1.84l1.84.15.16-2zm0-3.6v-2h-2v2h2zm2.79 0v2h2v-2h-2zm0-1.78h2v-2h-2v2zm-2.79 0h-2v2h2v-2zm0-2.66h2v-2h-2v2zm-1.85 0v-2h-2v2h2zm0 2.66v2h2v-2h-2zm-2.79 0v-2h-2v2h2zm0 1.78h-2v2h2v-2zm2.79 0h2v-2h-2v2zm0 3.6l.16 1.99 1.84-.15v-1.84h-2zm-8.1 2.81l.86 1.8-.85-1.8zm-1.01 2.5l1.88-.7-1.88.7zm2.93 7.98l-1.88.69.48 1.31h1.4v-2zm1.29-9.62l-.63-1.9.63 1.9zm4.04-1.1h2v-2.37l-2.34.4.34 1.97zm-5.2 3.88l1.8-.89-1.8.9zm1.64 3.29l-1.79.89.56 1.1h1.23v-2zm3.56 0v2h2v-2h-2zm3.55-7.17l.34-1.97-2.34-.4v2.37h2zm4.05 1.1l.62-1.9-.62 1.9zm-4.05 6.07h-2v2h2v-2zm3.56 0v2h1.24l.55-1.11-1.8-.9zm1.64-3.29l1.79.9-1.79-.9zm1.19-1.83l-2.93 7.98 3.75 1.38 2.93-7.99-3.75-1.37zm0 0l3.75 1.37a4 4 0 00-2.04-4.99l-1.71 3.62zm-7.4-2.63c1.96.16 3.79.92 7.4 2.63l1.71-3.62c-3.5-1.65-5.98-2.77-8.78-3l-.33 3.99zm-1.84-5.59v3.6h4v-3.6h-4zm4.79-2h-2.79v4h2.79v-4zm-2 .22v1.78h4V6.1h-4zm-.79 2h2.79v-4h-2.79v4zm-2-4.66V6.1h4V3.44h-4zm.15 2h1.85v-4h-1.85v4zm2 .66V3.44h-4V6.1h4zm-4.79 2h2.79v-4h-2.79v4zm2-.22V6.1h-4v1.78h4zm.79-2h-2.79v4h2.79v-4zm2 5.6v-3.6h-4v3.6h4zm-9.24 4.62c3.62-1.71 5.44-2.47 7.4-2.63l-.32-3.99c-2.8.23-5.29 1.35-8.79 3l1.71 3.62zm0 0l-1.7-3.62a4 4 0 00-2.05 5l3.75-1.38zm2.93 7.98l-2.93-7.98-3.75 1.37 2.93 7.99 3.75-1.38zm12.35-1.3h-14.22v4h14.22v-4zm-12.31-5.73a27.7 27.7 0 013.76-1.03l-.68-3.94c-1.28.22-2.66.63-4.33 1.17l1.25 3.8zm.01-.01l-.01.01-1.25-3.8a3.99 3.99 0 00-2.32 5.58l3.58-1.79zm1.64 3.28l-1.64-3.28-3.58 1.79 1.64 3.28 3.58-1.79zm1.77-1.1h-3.56v4h3.56v-4zm-2-5.17v7.17h4v-7.17h-4zm5.22 1.97c.97.17 2.11.5 3.75 1.03l1.25-3.8a31.28 31.28 0 00-4.33-1.17l-.67 3.94zm2.33 5.2v-7.17h-4v7.17h4zm1.56-2h-3.56v4h3.56v-4zm-.15-2.18l-1.64 3.28 3.58 1.79 1.64-3.28-3.58-1.79zm.02.01h-.02v-.01l3.58 1.79a3.99 3.99 0 00-2.32-5.58l-1.25 3.8z" fill="#000" mask="url(#e)"/><path d="M186.32 29.33h1v-2.56a3 3 0 00-3-3h-15.55a3 3 0 00-3 3v2.56h20.55z" fill="#5C5C5C" stroke="#000" stroke-width="2"/><path d="M148.33 120.88h.54l.3-.45-.84-.55.83.55h0l.01-.02.03-.04.1-.15a35.48 35.48 0 001.44-2.53 28.52 28.52 0 002.39-6.06c.54-2.2.7-4.64-.4-6.57-1.16-2.02-3.49-3.15-7.14-3.16h-.03a.37.37 0 01-.12-.05s0 0 0 0c-.03-.02-.2-.12-.2-.63v-1h-1c-.52 0-.95.28-1.19.45-.29.2-.56.46-.78.69a11.96 11.96 0 00-.72.81l-2.6 1.9-.15.12-.1.17-2.72 4.4-.25.4.15.44 1 3.04.41 1.28 1.1-.78 2.32-1.62 1.7-1.13c.87.31 1.24.67 1.4.87a1 1 0 01.06.1l-.04.1c-.14.26-.34.65-.64 1.12-.59.94-1.53 2.2-2.91 3.45a3.17 3.17 0 00-.67 3.96l.25.4.29.5h8.17z" fill="#fff" stroke="#000" stroke-width="2"/><path d="M154.32 125.33h1v-2.56a3 3 0 00-3-3h-15.55a3 3 0 00-3 3v2.56h20.55z" fill="#fff" stroke="#000" stroke-width="2"/><path d="M140.1 105.66l.9-.44v.33a1 1 0 01-1 1h-.34l.44-.89z" fill="#000"/><path d="M116.33 88.88h.54l.3-.45-.84-.55.83.55h0l.01-.02.03-.04a9.75 9.75 0 00.44-.7c.28-.48.67-1.16 1.1-1.98a28.52 28.52 0 002.39-6.06c.54-2.2.7-4.64-.4-6.57-1.16-2.02-3.49-3.15-7.14-3.16h-.03a.4.4 0 01-.13-.05c-.02-.02-.2-.12-.2-.63v-1h-1c-.5 0-.94.28-1.18.45-.29.2-.56.46-.78.69a11.87 11.87 0 00-.72.82l-2.6 1.9-.15.11-.1.17-2.73 4.4-.24.4.15.44 1 3.04.41 1.28 1.1-.78 2.32-1.62 1.7-1.13c.87.31 1.24.67 1.4.87l.06.1-.04.1c-.14.26-.34.65-.64 1.12-.59.94-1.53 2.2-2.91 3.45a3.17 3.17 0 00-.67 3.96l.25.4.29.5h8.17z" fill="#5C5C5C" stroke="#000" stroke-width="2"/><path d="M122.33 93.33h1v-2.56a3 3 0 00-3-3h-15.56a3 3 0 00-3 3v2.56h20.56z" fill="#5C5C5C" stroke="#000" stroke-width="2"/><path d="M108.1 73.66l.9-.44v.33a1 1 0 01-1 1h-.34l.44-.89z" fill="#000"/><path d="M244.33 24.88h.54l.3-.45-.84-.55.83.55h0l.01-.02.03-.04a9.75 9.75 0 00.44-.7c.28-.48.67-1.16 1.1-1.98a28.52 28.52 0 002.39-6.06c.54-2.2.7-4.64-.4-6.57-1.16-2.02-3.49-3.15-7.14-3.16a.38.38 0 01-.15-.05s0 0 0 0c-.03-.02-.2-.12-.2-.63v-1h-1c-.52 0-.95.28-1.19.45-.29.2-.56.46-.78.69a11.9 11.9 0 00-.72.82l-2.6 1.9-.15.11-.1.17-2.72 4.4-.25.4.15.44 1 3.04.41 1.28 1.1-.78 2.32-1.62 1.7-1.13c.87.31 1.24.67 1.4.87l.06.1-.04.1c-.14.26-.34.65-.64 1.12-.59.94-1.53 2.2-2.91 3.45a3.17 3.17 0 00-.67 3.96l.25.4.29.5h8.17z" fill="#5C5C5C" stroke="#000" stroke-width="2"/><path d="M250.32 29.33h1v-2.56a3 3 0 00-3-3h-15.55a3 3 0 00-3 3v2.56h20.55z" fill="#5C5C5C" stroke="#000" stroke-width="2"/><path d="M236.1 9.66l.9-.44v.33a1 1 0 01-1 1h-.34l.44-.89z" fill="#000"/><mask id="f" maskUnits="userSpaceOnUse" x="170.21" y="42.33" width="12" height="18" fill="#000"><path fill="#fff" d="M170.21 42.33h12v18h-12z"/><path fill-rule="evenodd" clip-rule="evenodd" d="M177.71 51.24a3.56 3.56 0 10-2.32 0c.03 2.85-1.48 6.42-4.18 6.42h10.67c-2.7 0-4.18-3.58-4.17-6.42z"/></mask><path fill-rule="evenodd" clip-rule="evenodd" d="M177.71 51.24a3.56 3.56 0 10-2.32 0c.03 2.85-1.48 6.42-4.18 6.42h10.67c-2.7 0-4.18-3.58-4.17-6.42z" fill="#5C5C5C"/><path d="M177.71 51.24l-.65-1.89-1.34.47v1.41l2 .01zm-2.32 0l2-.01-.01-1.42-1.34-.46-.65 1.9zm2.71-3.36c0 .68-.43 1.26-1.04 1.47l1.31 3.78a5.56 5.56 0 003.73-5.25h-4zm-1.55-1.55c.85 0 1.55.7 1.55 1.55h4a5.56 5.56 0 00-5.55-5.55v4zm-1.56 1.55c0-.86.7-1.55 1.56-1.55v-4a5.56 5.56 0 00-5.56 5.55h4zm1.05 1.47a1.56 1.56 0 01-1.05-1.47h-4c0 2.44 1.57 4.51 3.75 5.26l1.3-3.79zm-4.83 10.3c2.36.01 3.96-1.57 4.85-3.14.9-1.59 1.35-3.55 1.33-5.28l-4 .03a6.83 6.83 0 01-.8 3.27c-.53.92-1.03 1.13-1.38 1.13v4zm10.67-3.99h-10.67v4h10.67v-4zm-6.17-4.43c0 1.72.43 3.68 1.33 5.27.89 1.57 2.48 3.16 4.84 3.16v-4c-.33 0-.83-.2-1.36-1.13a6.95 6.95 0 01-.8-3.28l-4-.02z" fill="#000" mask="url(#f)"/><path d="M183.66 61.33h1v-1.67a3 3 0 00-3-3h-10.22a3 3 0 00-3 3v1.67h15.22z" fill="#5C5C5C" stroke="#000" stroke-width="2"/><mask id="g" maskUnits="userSpaceOnUse" x="266.21" y="170.33" width="12" height="18" fill="#000"><path fill="#fff" d="M266.21 170.33h12v18h-12z"/><path fill-rule="evenodd" clip-rule="evenodd" d="M273.71 179.24a3.56 3.56 0 10-2.32 0c.03 2.85-1.48 6.42-4.18 6.42h10.67c-2.7 0-4.18-3.58-4.17-6.42z"/></mask><path fill-rule="evenodd" clip-rule="evenodd" d="M273.71 179.24a3.56 3.56 0 10-2.32 0c.03 2.85-1.48 6.42-4.18 6.42h10.67c-2.7 0-4.18-3.58-4.17-6.42z" fill="#fff"/><path d="M273.71 179.24l-.65-1.89-1.34.47v1.41l2 .01zm-2.32 0l2-.01-.01-1.42-1.34-.46-.65 1.9zm2.71-3.36c0 .68-.43 1.26-1.04 1.47l1.31 3.78a5.56 5.56 0 003.73-5.25h-4zm-1.55-1.55c.85 0 1.55.7 1.55 1.55h4a5.56 5.56 0 00-5.55-5.55v4zm-1.56 1.55c0-.86.7-1.55 1.56-1.55v-4a5.56 5.56 0 00-5.56 5.55h4zm1.05 1.47a1.56 1.56 0 01-1.05-1.47h-4c0 2.44 1.57 4.51 3.75 5.26l1.3-3.79zm-4.83 10.31c2.36 0 3.96-1.58 4.85-3.15.9-1.59 1.35-3.55 1.33-5.28l-4 .03a6.84 6.84 0 01-.8 3.27c-.53.92-1.03 1.13-1.38 1.13v4zm10.67-4h-10.67v4h10.67v-4zm-6.17-4.43c0 1.72.43 3.68 1.33 5.27.89 1.57 2.48 3.16 4.84 3.16v-4c-.33 0-.83-.2-1.36-1.13a6.95 6.95 0 01-.8-3.28l-4-.02z" fill="#000" mask="url(#g)"/><path d="M279.66 189.33h1v-1.67a3 3 0 00-3-3h-10.22a3 3 0 00-3 3v1.67h15.22z" fill="#fff" stroke="#000" stroke-width="2"/><mask id="h" maskUnits="userSpaceOnUse" x="266.21" y="42.33" width="12" height="18" fill="#000"><path fill="#fff" d="M266.21 42.33h12v18h-12z"/><path fill-rule="evenodd" clip-rule="evenodd" d="M273.71 51.24a3.56 3.56 0 10-2.32 0c.03 2.85-1.48 6.42-4.18 6.42h10.67c-2.7 0-4.18-3.58-4.17-6.42z"/></mask><path fill-rule="evenodd" clip-rule="evenodd" d="M273.71 51.24a3.56 3.56 0 10-2.32 0c.03 2.85-1.48 6.42-4.18 6.42h10.67c-2.7 0-4.18-3.58-4.17-6.42z" fill="#5C5C5C"/><path d="M273.71 51.24l-.65-1.89-1.34.47v1.41l2 .01zm-2.32 0l2-.01-.01-1.42-1.34-.46-.65 1.9zm2.71-3.36c0 .68-.43 1.26-1.04 1.47l1.31 3.78a5.56 5.56 0 003.73-5.25h-4zm-1.55-1.55c.85 0 1.55.7 1.55 1.55h4a5.56 5.56 0 00-5.55-5.55v4zm-1.56 1.55c0-.86.7-1.55 1.56-1.55v-4a5.56 5.56 0 00-5.56 5.55h4zm1.05 1.47a1.56 1.56 0 01-1.05-1.47h-4c0 2.44 1.57 4.51 3.75 5.26l1.3-3.79zm-4.83 10.3c2.36.01 3.96-1.57 4.85-3.14.9-1.59 1.35-3.55 1.33-5.28l-4 .03a6.83 6.83 0 01-.8 3.27c-.53.92-1.03 1.13-1.38 1.13v4zm10.67-3.99h-10.67v4h10.67v-4zm-6.17-4.43c0 1.72.43 3.68 1.33 5.27.89 1.57 2.48 3.16 4.84 3.16v-4c-.33 0-.83-.2-1.36-1.13a6.95 6.95 0 01-.8-3.28l-4-.02z" fill="#000" mask="url(#h)"/><path d="M279.66 61.33h1v-1.67a3 3 0 00-3-3h-10.22a3 3 0 00-3 3v1.67h15.22z" fill="#5C5C5C" stroke="#000" stroke-width="2"/><mask id="i" maskUnits="userSpaceOnUse" x="106.21" y="202.33" width="12" height="18" fill="#000"><path fill="#fff" d="M106.21 202.33h12v18h-12z"/><path fill-rule="evenodd" clip-rule="evenodd" d="M113.71 211.24a3.56 3.56 0 10-2.32 0c.03 2.85-1.48 6.42-4.18 6.42h10.67c-2.7 0-4.18-3.58-4.17-6.42z"/></mask><path fill-rule="evenodd" clip-rule="evenodd" d="M113.71 211.24a3.56 3.56 0 10-2.32 0c.03 2.85-1.48 6.42-4.18 6.42h10.67c-2.7 0-4.18-3.58-4.17-6.42z" fill="#fff"/><path d="M113.71 211.24l-.65-1.89-1.34.47v1.41l2 .01zm-2.32 0l2-.01-.01-1.42-1.34-.46-.65 1.9zm2.71-3.36c0 .68-.43 1.26-1.04 1.47l1.31 3.78a5.56 5.56 0 003.73-5.25h-4zm-1.55-1.55c.86 0 1.55.7 1.55 1.55h4a5.56 5.56 0 00-5.55-5.55v4zm-1.56 1.55c0-.86.7-1.55 1.56-1.55v-4a5.56 5.56 0 00-5.56 5.55h4zm1.05 1.47a1.56 1.56 0 01-1.05-1.47h-4c0 2.44 1.57 4.51 3.75 5.26l1.3-3.79zm-4.83 10.31c2.36 0 3.96-1.58 4.85-3.15.9-1.59 1.35-3.55 1.33-5.28l-4 .03a6.84 6.84 0 01-.8 3.27c-.53.92-1.03 1.13-1.38 1.13v4zm10.67-4h-10.67v4h10.67v-4zm-6.17-4.43c0 1.72.43 3.68 1.33 5.27.89 1.57 2.48 3.16 4.84 3.16v-4c-.33 0-.83-.2-1.36-1.13a6.95 6.95 0 01-.8-3.28l-4-.02z" fill="#000" mask="url(#i)"/><path d="M119.66 221.33h1v-1.67a3 3 0 00-3-3h-10.22a3 3 0 00-3 3v1.67h15.22z" fill="#fff" stroke="#000" stroke-width="2"/><mask id="j" maskUnits="userSpaceOnUse" x="106.21" y="42.33" width="12" height="18" fill="#000"><path fill="#fff" d="M106.21 42.33h12v18h-12z"/><path fill-rule="evenodd" clip-rule="evenodd" d="M113.71 51.24a3.56 3.56 0 10-2.32 0c.03 2.85-1.48 6.42-4.18 6.42h10.67c-2.7 0-4.18-3.58-4.17-6.42z"/></mask><path fill-rule="evenodd" clip-rule="evenodd" d="M113.71 51.24a3.56 3.56 0 10-2.32 0c.03 2.85-1.48 6.42-4.18 6.42h10.67c-2.7 0-4.18-3.58-4.17-6.42z" fill="#5C5C5C"/><path d="M113.71 51.24l-.65-1.89-1.34.47v1.41l2 .01zm-2.32 0l2-.01-.01-1.42-1.34-.46-.65 1.9zm2.71-3.36c0 .68-.43 1.26-1.04 1.47l1.31 3.78a5.56 5.56 0 003.73-5.25h-4zm-1.55-1.55c.86 0 1.55.7 1.55 1.55h4a5.56 5.56 0 00-5.55-5.55v4zm-1.56 1.55c0-.86.7-1.55 1.56-1.55v-4a5.56 5.56 0 00-5.56 5.55h4zm1.05 1.47a1.56 1.56 0 01-1.05-1.47h-4c0 2.44 1.57 4.51 3.75 5.26l1.3-3.79zm-4.83 10.3c2.36.01 3.96-1.57 4.85-3.14.9-1.59 1.35-3.55 1.33-5.28l-4 .03a6.83 6.83 0 01-.8 3.27c-.53.92-1.03 1.13-1.38 1.13v4zm10.67-3.99h-10.67v4h10.67v-4zm-6.17-4.43c0 1.72.43 3.68 1.33 5.27.89 1.57 2.48 3.16 4.84 3.16v-4c-.33 0-.83-.2-1.36-1.13a6.95 6.95 0 01-.8-3.28l-4-.02z" fill="#000" mask="url(#j)"/><path d="M119.66 61.33h1v-1.67a3 3 0 00-3-3h-10.22a3 3 0 00-3 3v1.67h15.22z" fill="#5C5C5C" stroke="#000" stroke-width="2"/><mask id="k" maskUnits="userSpaceOnUse" x="202.21" y="202.33" width="12" height="18" fill="#000"><path fill="#fff" d="M202.21 202.33h12v18h-12z"/><path fill-rule="evenodd" clip-rule="evenodd" d="M209.71 211.24a3.56 3.56 0 10-2.32 0c.03 2.85-1.48 6.42-4.18 6.42h10.67c-2.7 0-4.18-3.58-4.17-6.42z"/></mask><path fill-rule="evenodd" clip-rule="evenodd" d="M209.71 211.24a3.56 3.56 0 10-2.32 0c.03 2.85-1.48 6.42-4.18 6.42h10.67c-2.7 0-4.18-3.58-4.17-6.42z" fill="#fff"/><path d="M209.71 211.24l-.65-1.89-1.34.47v1.41l2 .01zm-2.32 0l2-.01-.01-1.42-1.34-.46-.65 1.9zm2.71-3.36c0 .68-.43 1.26-1.04 1.47l1.31 3.78a5.56 5.56 0 003.73-5.25h-4zm-1.55-1.55c.85 0 1.55.7 1.55 1.55h4a5.56 5.56 0 00-5.55-5.55v4zm-1.56 1.55c0-.86.7-1.55 1.56-1.55v-4a5.56 5.56 0 00-5.56 5.55h4zm1.05 1.47a1.56 1.56 0 01-1.05-1.47h-4c0 2.44 1.57 4.51 3.75 5.26l1.3-3.79zm-4.83 10.31c2.36 0 3.96-1.58 4.85-3.15.9-1.59 1.35-3.55 1.33-5.28l-4 .03a6.84 6.84 0 01-.8 3.27c-.53.92-1.03 1.13-1.38 1.13v4zm10.67-4h-10.67v4h10.67v-4zm-6.17-4.43c0 1.72.43 3.68 1.33 5.27.89 1.57 2.48 3.16 4.84 3.16v-4c-.33 0-.83-.2-1.36-1.13a6.95 6.95 0 01-.8-3.28l-4-.02z" fill="#000" mask="url(#k)"/><path d="M215.66 221.33h1v-1.67a3 3 0 00-3-3h-10.22a3 3 0 00-3 3v1.67h15.22z" fill="#fff" stroke="#000" stroke-width="2"/><mask id="l" maskUnits="userSpaceOnUse" x="202.21" y="42.33" width="12" height="18" fill="#000"><path fill="#fff" d="M202.21 42.33h12v18h-12z"/><path fill-rule="evenodd" clip-rule="evenodd" d="M209.71 51.24a3.56 3.56 0 10-2.32 0c.03 2.85-1.48 6.42-4.18 6.42h10.67c-2.7 0-4.18-3.58-4.17-6.42z"/></mask><path fill-rule="evenodd" clip-rule="evenodd" d="M209.71 51.24a3.56 3.56 0 10-2.32 0c.03 2.85-1.48 6.42-4.18 6.42h10.67c-2.7 0-4.18-3.58-4.17-6.42z" fill="#5C5C5C"/><path d="M209.71 51.24l-.65-1.89-1.34.47v1.41l2 .01zm-2.32 0l2-.01-.01-1.42-1.34-.46-.65 1.9zm2.71-3.36c0 .68-.43 1.26-1.04 1.47l1.31 3.78a5.56 5.56 0 003.73-5.25h-4zm-1.55-1.55c.85 0 1.55.7 1.55 1.55h4a5.56 5.56 0 00-5.55-5.55v4zm-1.56 1.55c0-.86.7-1.55 1.56-1.55v-4a5.56 5.56 0 00-5.56 5.55h4zm1.05 1.47a1.56 1.56 0 01-1.05-1.47h-4c0 2.44 1.57 4.51 3.75 5.26l1.3-3.79zm-4.83 10.3c2.36.01 3.96-1.57 4.85-3.14.9-1.59 1.35-3.55 1.33-5.28l-4 .03a6.83 6.83 0 01-.8 3.27c-.53.92-1.03 1.13-1.38 1.13v4zm10.67-3.99h-10.67v4h10.67v-4zm-6.17-4.43c0 1.72.43 3.68 1.33 5.27.89 1.57 2.48 3.16 4.84 3.16v-4c-.33 0-.83-.2-1.36-1.13a6.95 6.95 0 01-.8-3.28l-4-.02z" fill="#000" mask="url(#l)"/><path d="M215.66 61.33h1v-1.67a3 3 0 00-3-3h-10.22a3 3 0 00-3 3v1.67h15.22z" fill="#5C5C5C" stroke="#000" stroke-width="2"/><mask id="m" maskUnits="userSpaceOnUse" x="138.21" y="202.33" width="12" height="18" fill="#000"><path fill="#fff" d="M138.21 202.33h12v18h-12z"/><path fill-rule="evenodd" clip-rule="evenodd" d="M145.71 211.24a3.56 3.56 0 10-2.32 0c.03 2.85-1.48 6.42-4.18 6.42h10.67c-2.7 0-4.18-3.58-4.17-6.42z"/></mask><path fill-rule="evenodd" clip-rule="evenodd" d="M145.71 211.24a3.56 3.56 0 10-2.32 0c.03 2.85-1.48 6.42-4.18 6.42h10.67c-2.7 0-4.18-3.58-4.17-6.42z" fill="#fff"/><path d="M145.71 211.24l-.65-1.89-1.34.47v1.41l2 .01zm-2.32 0l2-.01-.01-1.42-1.34-.46-.65 1.9zm2.71-3.36c0 .68-.43 1.26-1.04 1.47l1.31 3.78a5.56 5.56 0 003.73-5.25h-4zm-1.55-1.55c.85 0 1.55.7 1.55 1.55h4a5.56 5.56 0 00-5.55-5.55v4zm-1.56 1.55c0-.86.7-1.55 1.56-1.55v-4a5.56 5.56 0 00-5.56 5.55h4zm1.05 1.47a1.56 1.56 0 01-1.05-1.47h-4c0 2.44 1.57 4.51 3.75 5.26l1.3-3.79zm-4.83 10.31c2.36 0 3.96-1.58 4.85-3.15.9-1.59 1.35-3.55 1.33-5.28l-4 .03a6.84 6.84 0 01-.8 3.27c-.53.92-1.03 1.13-1.38 1.13v4zm10.67-4h-10.67v4h10.67v-4zm-6.17-4.43c0 1.72.43 3.68 1.33 5.27.89 1.57 2.48 3.16 4.84 3.16v-4c-.33 0-.83-.2-1.36-1.13a6.95 6.95 0 01-.8-3.28l-4-.02z" fill="#000" mask="url(#m)"/><path d="M151.66 221.33h1v-1.67a3 3 0 00-3-3h-10.22a3 3 0 00-3 3v1.67h15.22z" fill="#fff" stroke="#000" stroke-width="2"/><mask id="n" maskUnits="userSpaceOnUse" x="234.21" y="202.33" width="12" height="18" fill="#000"><path fill="#fff" d="M234.21 202.33h12v18h-12z"/><path fill-rule="evenodd" clip-rule="evenodd" d="M241.71 211.24a3.56 3.56 0 10-2.32 0c.03 2.85-1.48 6.42-4.18 6.42h10.67c-2.7 0-4.18-3.58-4.17-6.42z"/></mask><path fill-rule="evenodd" clip-rule="evenodd" d="M241.71 211.24a3.56 3.56 0 10-2.32 0c.03 2.85-1.48 6.42-4.18 6.42h10.67c-2.7 0-4.18-3.58-4.17-6.42z" fill="#fff"/><path d="M241.71 211.24l-.65-1.89-1.34.47v1.41l2 .01zm-2.32 0l2-.01-.01-1.42-1.34-.46-.65 1.9zm2.71-3.36c0 .68-.43 1.26-1.04 1.47l1.31 3.78a5.56 5.56 0 003.73-5.25h-4zm-1.55-1.55c.85 0 1.55.7 1.55 1.55h4a5.56 5.56 0 00-5.55-5.55v4zm-1.56 1.55c0-.86.7-1.55 1.56-1.55v-4a5.56 5.56 0 00-5.56 5.55h4zm1.05 1.47a1.56 1.56 0 01-1.05-1.47h-4c0 2.44 1.57 4.51 3.75 5.26l1.3-3.79zm-4.83 10.31c2.36 0 3.96-1.58 4.85-3.15.9-1.59 1.35-3.55 1.33-5.28l-4 .03a6.84 6.84 0 01-.8 3.27c-.53.92-1.03 1.13-1.38 1.13v4zm10.67-4h-10.67v4h10.67v-4zm-6.17-4.43c0 1.72.43 3.68 1.33 5.27.89 1.57 2.48 3.16 4.84 3.16v-4c-.33 0-.83-.2-1.36-1.13a6.95 6.95 0 01-.8-3.28l-4-.02z" fill="#000" mask="url(#n)"/><path d="M247.66 221.33h1v-1.67a3 3 0 00-3-3h-10.22a3 3 0 00-3 3v1.67h15.22z" fill="#fff" stroke="#000" stroke-width="2"/><mask id="o" maskUnits="userSpaceOnUse" x="234.21" y="42.33" width="12" height="18" fill="#000"><path fill="#fff" d="M234.21 42.33h12v18h-12z"/><path fill-rule="evenodd" clip-rule="evenodd" d="M241.71 51.24a3.56 3.56 0 10-2.32 0c.03 2.85-1.48 6.42-4.18 6.42h10.67c-2.7 0-4.18-3.58-4.17-6.42z"/></mask><path fill-rule="evenodd" clip-rule="evenodd" d="M241.71 51.24a3.56 3.56 0 10-2.32 0c.03 2.85-1.48 6.42-4.18 6.42h10.67c-2.7 0-4.18-3.58-4.17-6.42z" fill="#5C5C5C"/><path d="M241.71 51.24l-.65-1.89-1.34.47v1.41l2 .01zm-2.32 0l2-.01-.01-1.42-1.34-.46-.65 1.9zm2.71-3.36c0 .68-.43 1.26-1.04 1.47l1.31 3.78a5.56 5.56 0 003.73-5.25h-4zm-1.55-1.55c.85 0 1.55.7 1.55 1.55h4a5.56 5.56 0 00-5.55-5.55v4zm-1.56 1.55c0-.86.7-1.55 1.56-1.55v-4a5.56 5.56 0 00-5.56 5.55h4zm1.05 1.47a1.56 1.56 0 01-1.05-1.47h-4c0 2.44 1.57 4.51 3.75 5.26l1.3-3.79zm-4.83 10.3c2.36.01 3.96-1.57 4.85-3.14.9-1.59 1.35-3.55 1.33-5.28l-4 .03a6.83 6.83 0 01-.8 3.27c-.53.92-1.03 1.13-1.38 1.13v4zm10.67-3.99h-10.67v4h10.67v-4zm-6.17-4.43c0 1.72.43 3.68 1.33 5.27.89 1.57 2.48 3.16 4.84 3.16v-4c-.33 0-.83-.2-1.36-1.13a6.95 6.95 0 01-.8-3.28l-4-.02z" fill="#000" mask="url(#o)"/><path d="M247.66 61.33h1v-1.67a3 3 0 00-3-3h-10.22a3 3 0 00-3 3v1.67h15.22z" fill="#5C5C5C" stroke="#000" stroke-width="2"/><mask id="p" maskUnits="userSpaceOnUse" x="74.21" y="138.33" width="12" height="18" fill="#000"><path fill="#fff" d="M74.21 138.33h12v18h-12z"/><path fill-rule="evenodd" clip-rule="evenodd" d="M81.71 147.24a3.56 3.56 0 10-2.32 0c.03 2.85-1.48 6.42-4.18 6.42h10.67c-2.7 0-4.18-3.58-4.17-6.42z"/></mask><path fill-rule="evenodd" clip-rule="evenodd" d="M81.71 147.24a3.56 3.56 0 10-2.32 0c.03 2.85-1.48 6.42-4.18 6.42h10.67c-2.7 0-4.18-3.58-4.17-6.42z" fill="#fff"/><path d="M81.71 147.24l-.65-1.89-1.34.47v1.41l2 .01zm-2.32 0l2-.01-.01-1.42-1.34-.46-.65 1.9zm2.71-3.36c0 .68-.43 1.26-1.04 1.47l1.31 3.78a5.56 5.56 0 003.73-5.25h-4zm-1.55-1.55c.86 0 1.55.7 1.55 1.55h4a5.56 5.56 0 00-5.55-5.55v4zm-1.56 1.55c0-.86.7-1.55 1.56-1.55v-4a5.56 5.56 0 00-5.56 5.55h4zm1.05 1.47a1.56 1.56 0 01-1.05-1.47h-4c0 2.44 1.57 4.51 3.75 5.26l1.3-3.79zm-4.83 10.31c2.36 0 3.96-1.58 4.85-3.15.9-1.59 1.35-3.55 1.33-5.28l-4 .03a6.83 6.83 0 01-.8 3.27c-.53.92-1.04 1.13-1.38 1.13v4zm10.67-4H75.21v4h10.67v-4zm-6.17-4.43c0 1.72.43 3.68 1.33 5.27.89 1.57 2.48 3.16 4.84 3.16v-4c-.33 0-.83-.2-1.36-1.13a6.96 6.96 0 01-.8-3.28l-4-.02z" fill="#000" mask="url(#p)"/><path d="M87.66 157.33h1v-1.67a3 3 0 00-3-3H75.44a3 3 0 00-3 3v1.67h15.22z" fill="#fff" stroke="#000" stroke-width="2"/><mask id="q" maskUnits="userSpaceOnUse" x="74.21" y="42.33" width="12" height="18" fill="#000"><path fill="#fff" d="M74.21 42.33h12v18h-12z"/><path fill-rule="evenodd" clip-rule="evenodd" d="M81.71 51.24a3.56 3.56 0 10-2.32 0c.03 2.85-1.48 6.42-4.18 6.42h10.67c-2.7 0-4.18-3.58-4.17-6.42z"/></mask><path fill-rule="evenodd" clip-rule="evenodd" d="M81.71 51.24a3.56 3.56 0 10-2.32 0c.03 2.85-1.48 6.42-4.18 6.42h10.67c-2.7 0-4.18-3.58-4.17-6.42z" fill="#5C5C5C"/><path d="M81.71 51.24l-.65-1.89-1.34.47v1.41l2 .01zm-2.32 0l2-.01-.01-1.42-1.34-.46-.65 1.9zm2.71-3.36c0 .68-.43 1.26-1.04 1.47l1.31 3.78a5.56 5.56 0 003.73-5.25h-4zm-1.55-1.55c.86 0 1.55.7 1.55 1.55h4a5.56 5.56 0 00-5.55-5.55v4zm-1.56 1.55c0-.86.7-1.55 1.56-1.55v-4a5.56 5.56 0 00-5.56 5.55h4zm1.05 1.47A1.56 1.56 0 0179 47.88h-4c0 2.44 1.57 4.51 3.75 5.26l1.3-3.79zm-4.83 10.3c2.36.01 3.96-1.57 4.85-3.14.9-1.59 1.35-3.55 1.33-5.28l-4 .03a6.83 6.83 0 01-.8 3.27c-.53.92-1.04 1.13-1.38 1.13v4zm10.67-3.99H75.21v4h10.67v-4zm-6.17-4.43c0 1.72.43 3.68 1.33 5.27.89 1.57 2.48 3.16 4.84 3.16v-4c-.33 0-.83-.2-1.36-1.13a6.96 6.96 0 01-.8-3.28l-4-.02z" fill="#000" mask="url(#q)"/><path d="M87.66 61.33h1v-1.67a3 3 0 00-3-3H75.44a3 3 0 00-3 3v1.67h15.22z" fill="#5C5C5C" stroke="#000" stroke-width="2"/><mask id="r" maskUnits="userSpaceOnUse" x="42.21" y="202.33" width="12" height="18" fill="#000"><path fill="#fff" d="M42.21 202.33h12v18h-12z"/><path fill-rule="evenodd" clip-rule="evenodd" d="M49.71 211.24a3.56 3.56 0 10-2.32 0c.03 2.85-1.48 6.42-4.18 6.42h10.67c-2.7 0-4.18-3.58-4.17-6.42z"/></mask><path fill-rule="evenodd" clip-rule="evenodd" d="M49.71 211.24a3.56 3.56 0 10-2.32 0c.03 2.85-1.48 6.42-4.18 6.42h10.67c-2.7 0-4.18-3.58-4.17-6.42z" fill="#fff"/><path d="M49.71 211.24l-.65-1.89-1.34.47v1.41l2 .01zm-2.32 0l2-.01-.01-1.42-1.34-.46-.65 1.9zm2.71-3.36c0 .68-.43 1.26-1.04 1.47l1.31 3.78a5.56 5.56 0 003.73-5.25h-4zm-1.55-1.55c.86 0 1.55.7 1.55 1.55h4a5.56 5.56 0 00-5.55-5.55v4zm-1.56 1.55c0-.86.7-1.55 1.56-1.55v-4a5.56 5.56 0 00-5.56 5.55h4zm1.05 1.47a1.56 1.56 0 01-1.05-1.47h-4c0 2.44 1.57 4.51 3.75 5.26l1.3-3.79zm-4.83 10.31c2.36 0 3.96-1.58 4.85-3.15.9-1.59 1.35-3.55 1.33-5.28l-4 .03a6.83 6.83 0 01-.8 3.27c-.53.92-1.04 1.13-1.38 1.13v4zm10.67-4H43.21v4h10.67v-4zm-6.17-4.43c0 1.72.43 3.68 1.33 5.27.89 1.57 2.48 3.16 4.84 3.16v-4c-.33 0-.83-.2-1.36-1.13a6.96 6.96 0 01-.8-3.28l-4-.02z" fill="#000" mask="url(#r)"/><path d="M55.66 221.33h1v-1.67a3 3 0 00-3-3H43.44a3 3 0 00-3 3v1.67h15.22z" fill="#fff" stroke="#000" stroke-width="2"/><mask id="s" maskUnits="userSpaceOnUse" x="42.21" y="42.33" width="12" height="18" fill="#000"><path fill="#fff" d="M42.21 42.33h12v18h-12z"/><path fill-rule="evenodd" clip-rule="evenodd" d="M49.71 51.24a3.56 3.56 0 10-2.32 0c.03 2.85-1.48 6.42-4.18 6.42h10.67c-2.7 0-4.18-3.58-4.17-6.42z"/></mask><path fill-rule="evenodd" clip-rule="evenodd" d="M49.71 51.24a3.56 3.56 0 10-2.32 0c.03 2.85-1.48 6.42-4.18 6.42h10.67c-2.7 0-4.18-3.58-4.17-6.42z" fill="#5C5C5C"/><path d="M49.71 51.24l-.65-1.89-1.34.47v1.41l2 .01zm-2.32 0l2-.01-.01-1.42-1.34-.46-.65 1.9zm2.71-3.36c0 .68-.43 1.26-1.04 1.47l1.31 3.78a5.56 5.56 0 003.73-5.25h-4zm-1.55-1.55c.86 0 1.55.7 1.55 1.55h4a5.56 5.56 0 00-5.55-5.55v4zm-1.56 1.55c0-.86.7-1.55 1.56-1.55v-4a5.56 5.56 0 00-5.56 5.55h4zm1.05 1.47A1.56 1.56 0 0147 47.88h-4c0 2.44 1.57 4.51 3.75 5.26l1.3-3.79zm-4.83 10.3c2.36.01 3.96-1.57 4.85-3.14.9-1.59 1.35-3.55 1.33-5.28l-4 .03a6.83 6.83 0 01-.8 3.27c-.53.92-1.04 1.13-1.38 1.13v4zm10.67-3.99H43.21v4h10.67v-4zm-6.17-4.43c0 1.72.43 3.68 1.33 5.27.89 1.57 2.48 3.16 4.84 3.16v-4c-.33 0-.83-.2-1.36-1.13a6.96 6.96 0 01-.8-3.28l-4-.02z" fill="#000" mask="url(#s)"/><path d="M55.66 61.33h1v-1.67a3 3 0 00-3-3H43.44a3 3 0 00-3 3v1.67h15.22z" fill="#5C5C5C" stroke="#000" stroke-width="2"/><path fill-rule="evenodd" clip-rule="evenodd" d="M211.4 167.29a3 3 0 01-1.09 2.33l1.8 7.15 3.88-3.66a3.04 3.04 0 01-.33-1.38 2.91 2.91 0 012.85-2.96 2.91 2.91 0 012.86 2.96 2.91 2.91 0 01-3.04 2.96l-2.67 10.08h-14.22l-2.67-10.08a2.92 2.92 0 01-2.67-2.96 2.91 2.91 0 012.86-2.96 2.91 2.91 0 012.86 2.96c0 .6-.17 1.15-.47 1.62l3.64 3.42 1.79-7.15a3 3 0 01-1.1-2.33 2.91 2.91 0 012.87-2.96 2.91 2.91 0 012.85 2.96z" fill="#fff"/><path d="M210.31 169.62l-.63-.78-.5.4.16.62.97-.24zm1.8 7.15l-.98.24.41 1.66 1.25-1.17-.69-.73zm3.88-3.66l.68.73.55-.51-.34-.67-.9.46zm2.34 1.58l.06-1-.82-.05-.21.8.97.25zm-2.67 10.08v1h.77l.2-.74-.97-.26zm-14.22 0l-.97.26.2.74h.77v-1zm-2.67-10.08l.96-.26-.18-.69-.72-.05-.06 1zm2.58-1.34l-.84-.53-.44.7.6.56.69-.73zm3.64 3.42l-.69.73 1.25 1.17.41-1.66-.97-.24zm1.79-7.15l.97.24.15-.62-.49-.4-.63.78zm4.17.77a4 4 0 001.45-3.1h-2a2 2 0 01-.72 1.55l1.27 1.55zm2.12 6.14l-1.79-7.16-1.94.49 1.8 7.15 1.93-.48zm2.23-4.14l-3.88 3.65 1.37 1.46 3.88-3.66-1.37-1.45zm-.64-.66c0 .66.15 1.29.44 1.84l1.78-.9a2.04 2.04 0 01-.22-.94h-2zm3.85-3.96a3.91 3.91 0 00-3.85 3.96h2c0-1.11.86-1.96 1.85-1.96v-2zm3.86 3.96c0-2.15-1.7-3.96-3.86-3.96v2c1 0 1.86.84 1.86 1.96h2zm-3.86 3.97c2.17 0 3.86-1.81 3.86-3.97h-2c0 1.12-.86 1.97-1.86 1.97v2zm-.25-.01h.25v-2h-.12l-.13 2zm-1.64 9.34l2.67-10.08-1.93-.52-2.67 10.08 1.93.52zm-15.19.74h14.23v-2h-14.22v2zm-3.63-10.82l2.67 10.08 1.93-.52-2.67-10.08-1.93.52zm1.03-1.26a1.92 1.92 0 01-1.73-1.96h-2a3.92 3.92 0 003.6 3.96l.14-2zm-1.73-1.96c0-1.11.87-1.96 1.86-1.96v-2a3.91 3.91 0 00-3.86 3.96h2zm1.86-1.96c.99 0 1.86.84 1.86 1.96h2c0-2.15-1.7-3.96-3.86-3.96v2zm1.86 1.96c0 .4-.12.78-.31 1.09l1.7 1.06c.38-.62.6-1.36.6-2.15h-2zm4.86 4.31l-3.64-3.42-1.37 1.46 3.64 3.42 1.37-1.46zm.13-6.66l-1.79 7.15 1.94.48 1.79-7.15-1.94-.49zm-1.12-2.1a4 4 0 001.46 3.11l1.26-1.55a2 2 0 01-.72-1.55h-2zm3.86-3.95a3.91 3.91 0 00-3.86 3.96h2c0-1.12.86-1.96 1.86-1.96v-2zm3.85 3.96c0-2.16-1.69-3.96-3.85-3.96v2c.99 0 1.85.84 1.85 1.96h2z" fill="#000"/><path d="M218.32 189.33h1v-2.56a3 3 0 00-3-3h-15.55a3 3 0 00-3 3v2.56h20.55z" fill="#fff" stroke="#000" stroke-width="2"/><path fill-rule="evenodd" clip-rule="evenodd" d="M51.4 103.29a3 3 0 01-1.09 2.33l1.8 7.15 3.88-3.66a3.04 3.04 0 01-.33-1.38 2.91 2.91 0 012.85-2.96 2.91 2.91 0 012.86 2.96 2.91 2.91 0 01-3.04 2.96l-2.67 10.08H41.43l-2.66-10.08a2.92 2.92 0 01-2.67-2.96 2.91 2.91 0 012.86-2.96 2.91 2.91 0 012.86 2.96c0 .6-.17 1.15-.47 1.62l3.64 3.42 1.79-7.15a3 3 0 01-1.1-2.33 2.91 2.91 0 012.87-2.96 2.91 2.91 0 012.85 2.96z" fill="#5C5C5C"/><path d="M50.31 105.62l-.63-.78-.5.4.16.62.97-.24zm1.8 7.15l-.98.24.42 1.66 1.24-1.17-.69-.73zm3.88-3.66l.68.73.55-.51-.34-.67-.9.45zm2.34 1.58l.06-1-.82-.05-.21.8.97.25zm-2.67 10.08v1h.77l.2-.74-.97-.26zm-14.23 0l-.96.26.2.74h.76v-1zm-2.66-10.08l.96-.26-.18-.69-.71-.05-.07 1zm2.58-1.34l-.84-.53-.44.7.6.56.68-.73zm3.64 3.42l-.68.73 1.24 1.17.41-1.66-.97-.24zm1.79-7.15l.97.24.15-.61-.49-.4-.63.77zm4.17.77a4 4 0 001.45-3.1h-2a2 2 0 01-.72 1.55l1.27 1.55zm2.12 6.14l-1.79-7.16-1.94.49 1.8 7.15 1.93-.48zm2.23-4.14l-3.88 3.65 1.37 1.46 3.88-3.66-1.37-1.45zm-.64-.66c0 .66.15 1.29.43 1.84l1.79-.9a2.04 2.04 0 01-.22-.94h-2zm3.85-3.96a3.91 3.91 0 00-3.85 3.96h2c0-1.12.86-1.96 1.85-1.96v-2zm3.86 3.96c0-2.15-1.7-3.96-3.86-3.96v2c1 0 1.86.84 1.86 1.96h2zm-3.86 3.97c2.17 0 3.86-1.81 3.86-3.97h-2c0 1.12-.86 1.97-1.86 1.97v2zm-.25-.01h.25v-2h-.12l-.13 2zm-1.64 9.34l2.67-10.08-1.93-.52-2.67 10.08 1.93.52zm-15.19.74h14.23v-2H41.43v2zm-3.63-10.82l2.67 10.08 1.93-.52-2.67-10.08-1.93.52zm1.04-1.26a1.92 1.92 0 01-1.74-1.96h-2a3.92 3.92 0 003.6 3.96l.14-2zm-1.74-1.96c0-1.12.87-1.96 1.86-1.96v-2a3.91 3.91 0 00-3.86 3.96h2zm1.86-1.96c.99 0 1.86.84 1.86 1.96h2c0-2.15-1.7-3.96-3.86-3.96v2zm1.86 1.96c0 .4-.12.78-.31 1.09l1.7 1.06c.38-.62.6-1.36.6-2.15h-2zm4.86 4.31l-3.64-3.42-1.37 1.46 3.64 3.42 1.37-1.46zm.13-6.67l-1.79 7.16 1.94.48 1.79-7.15-1.94-.48zm-1.12-2.08a4 4 0 001.46 3.1l1.26-1.55a2 2 0 01-.72-1.55h-2zm3.86-3.96a3.91 3.91 0 00-3.86 3.96h2c0-1.12.86-1.96 1.86-1.96v-2zm3.85 3.96c0-2.16-1.69-3.96-3.85-3.96v2c.99 0 1.85.84 1.85 1.96h2z" fill="#000"/><path d="M58.33 125.33h1v-2.56a3 3 0 00-3-3H40.77a3 3 0 00-3 3v2.56h20.56z" fill="#5C5C5C" stroke="#000" stroke-width="2"/><path d="M268.55 237.1h-.89l-.1.88-1.34 10.67-.14 1.12h12.98l-.2-1.16-1.77-10.67-.14-.84h-8.4z" fill="#fff" stroke="#000" stroke-width="2"/><path d="M265.44 230h-1v9.1h16.22V230h-3.12l-.24.65-1.19 3.23h-1.02l-.87-3.15-.2-.74H271.07l-.2.74-.86 3.15h-1.03l-1.18-3.23-.24-.66h-2.12zM282.32 253.33h1v-2.56a3 3 0 00-3-3h-15.55a3 3 0 00-3 3v2.56h20.56z" fill="#fff" stroke="#000" stroke-width="2"/><path d="M268.55 13.1h-.89l-.1.88-1.34 10.67-.14 1.12h12.98l-.2-1.16-1.77-10.67-.14-.84h-8.4z" fill="#5C5C5C" stroke="#000" stroke-width="2"/><path d="M265.44 6h-1v9.1h16.22V6h-3.12l-.24.65-1.19 3.23h-1.02l-.87-3.15-.2-.74H271.07l-.2.74-.86 3.15h-1.03l-1.18-3.23-.24-.66h-2.12zM282.32 29.33h1v-2.56a3 3 0 00-3-3h-15.55a3 3 0 00-3 3v2.56h20.56z" fill="#5C5C5C" stroke="#000" stroke-width="2"/><path d="M44.55 237.1h-.89l-.1.88-1.34 10.67-.14 1.12h12.98l-.2-1.16-1.77-10.67-.14-.84h-8.4z" fill="#fff" stroke="#000" stroke-width="2"/><path d="M41.44 230h-1v9.1h16.22V230h-3.12l-.24.65-1.19 3.23H51.1l-.87-3.15-.2-.74H47.07l-.2.74-.86 3.15h-1.03l-1.18-3.23-.24-.66h-2.12zM58.33 253.33h1v-2.56a3 3 0 00-3-3H40.77a3 3 0 00-3 3v2.56h20.56z" fill="#fff" stroke="#000" stroke-width="2"/><path d="M44.55 13.1h-.89l-.1.88-1.34 10.67-.14 1.12h12.98l-.2-1.16-1.77-10.67-.14-.84h-8.4z" fill="#5C5C5C" stroke="#000" stroke-width="2"/><path d="M41.44 6h-1v9.1h16.22V6h-3.12l-.24.65-1.19 3.23H51.1l-.87-3.15-.2-.74H47.07l-.2.74-.86 3.15h-1.03L43.8 6.65l-.24-.66h-2.12zM58.33 29.33h1v-2.56a3 3 0 00-3-3H40.77a3 3 0 00-3 3v2.56h20.56z" fill="#5C5C5C" stroke="#000" stroke-width="2"/></g><defs><clipPath id="clip0"><path fill="#fff" transform="translate(.55 .88)" d="M0 0h320v288H0z"/></clipPath></defs></svg>