<svg width="321" height="289" fill="none" xmlns="http://www.w3.org/2000/svg"><g clip-path="url(#clip0)"><path fill="#FEE6C1" d="M32.71.84h256v256h-256z"/><path d="M32.7 224.84h32v32h-32v-32zM32.7 96.84h32v32h-32v-32zM32.7 160.84h32v32h-32v-32zM32.7 32.84h32v32h-32v-32zM64.7 192.84h32v32h-32v-32zM64.7 64.84h32v32h-32v-32zM64.7 128.84h32v32h-32v-32zM64.7.84h32v32h-32v-32zM160.7 224.84h32v32h-32v-32zM160.7 96.84h32v32h-32v-32zM160.7 160.84h32v32h-32v-32zM160.7 32.84h32v32h-32v-32zM192.7 192.84h32v32h-32v-32zM192.7 64.84h32v32h-32v-32zM192.7 128.84h32v32h-32v-32zM192.7.84h32v32h-32v-32zM96.7 224.84h32v32h-32v-32zM96.7 96.84h32v32h-32v-32zM96.7 160.84h32v32h-32v-32zM96.7 32.84h32v32h-32v-32zM128.7 192.84h32v32h-32v-32zM128.7 64.84h32v32h-32v-32zM128.7 128.84h32v32h-32v-32zM128.7.84h32v32h-32v-32zM224.7 224.84h32v32h-32v-32zM224.7 96.84h32v32h-32v-32zM224.7 160.84h32v32h-32v-32zM224.7 32.84h32v32h-32v-32zM256.7 192.84h32v32h-32v-32zM256.7 64.84h32v32h-32v-32zM256.7 128.84h32v32h-32v-32zM256.7.84h32v32h-32v-32z" fill="#866C4A"/><path d="M14.13 238.2v-2.54h4.44v11.68h-2.85v-9.13h-1.59zM12.76 213.15l.5-.4a59.84 59.84 0 002.46-2.13c.61-.55 1.12-1.13 1.54-1.74.41-.6.62-1.2.62-1.78 0-.44-.1-.78-.3-1.02-.2-.25-.5-.37-.91-.37-.4 0-.73.16-.96.47-.23.3-.34.72-.34 1.28h-2.64c.02-.91.21-1.67.58-2.28.37-.6.86-1.05 1.45-1.34.61-.29 1.28-.43 2.02-.43 1.27 0 2.22.32 2.86.97.65.65.98 1.5.98 2.55 0 1.14-.4 2.2-1.17 3.18a17.4 17.4 0 01-2.98 2.85h4.32v2.22h-8.03v-2.03zM12.68 174.96a3.51 3.51 0 011.12-2.64c.7-.62 1.66-.93 2.87-.93.8 0 1.48.14 2.04.42a2.95 2.95 0 011.75 2.75c0 .7-.18 1.28-.53 1.73a2.7 2.7 0 01-1.23.9v.06c.6.2 1.09.53 1.44 1 .35.47.53 1.08.53 1.81 0 .66-.16 1.25-.47 1.76-.3.5-.74.9-1.33 1.19-.57.28-1.26.43-2.06.43a4.7 4.7 0 01-3.07-.94c-.76-.63-1.16-1.58-1.2-2.85h2.65c.01.47.15.84.4 1.12.26.26.63.4 1.12.4.42 0 .74-.12.96-.35.24-.25.36-.57.36-.97 0-.5-.17-.88-.5-1.1-.32-.23-.84-.35-1.55-.35h-.51v-2.22h.5c.55 0 .99-.1 1.32-.28.34-.19.51-.53.51-1 0-.39-.1-.69-.32-.9-.21-.22-.5-.32-.88-.32-.4 0-.7.12-.91.37-.2.24-.3.55-.34.9h-2.67zM12.08 149.26v-2.2l5.05-7.24h3.06v7.08h1.31v2.36h-1.3v2.08h-2.75v-2.08h-5.37zm5.57-6.43l-2.7 4.06h2.7v-4.06zM20.45 109.05h-5v2.2c.22-.23.52-.42.9-.57.39-.15.8-.23 1.25-.23.8 0 1.46.19 1.99.55.53.36.92.83 1.16 1.4.25.58.37 1.2.37 1.88 0 1.25-.35 2.24-1.05 2.97-.7.73-1.7 1.1-2.98 1.1a5.3 5.3 0 01-2.22-.44 3.47 3.47 0 01-1.46-1.23 3.55 3.55 0 01-.56-1.8h2.67c.07.32.22.6.47.82.24.22.58.32 1 .32.5 0 .88-.16 1.12-.48.25-.32.37-.74.37-1.28 0-.52-.13-.92-.38-1.2-.26-.28-.63-.41-1.12-.41-.36 0-.66.09-.9.27-.23.17-.39.4-.46.69h-2.64v-6.96h7.47v2.4zM18.11 77.81a1.6 1.6 0 00-.45-.88c-.21-.2-.51-.3-.9-.3-.62 0-1.05.27-1.32.8-.27.52-.4 1.36-.42 2.5a2.4 2.4 0 011.01-.88c.45-.22.94-.32 1.47-.32a3.3 3.3 0 012.52.99c.64.66.96 1.58.96 2.77 0 .78-.16 1.46-.48 2.04a3.3 3.3 0 01-1.38 1.38c-.6.33-1.3.5-2.13.5-1.64 0-2.78-.52-3.42-1.54-.64-1.03-.96-2.52-.96-4.45 0-2.02.33-3.53 1-4.5.69-1 1.78-1.5 3.27-1.5.8 0 1.47.16 2.02.48.55.31.97.72 1.24 1.23.3.52.46 1.08.52 1.68H18.1zm-1.26 3.08c-.46 0-.85.14-1.15.41-.3.27-.45.65-.45 1.15 0 .52.14.92.41 1.2.3.3.7.44 1.22.44.47 0 .84-.14 1.1-.42.28-.29.42-.68.42-1.17 0-.5-.13-.9-.4-1.18-.27-.29-.65-.43-1.15-.43zM20.6 44.71l-4.01 9.63h-2.8l4.06-9.33h-4.97v-2.33h7.72v2.03zM14.16 17.07c-1-.53-1.5-1.37-1.5-2.51a2.86 2.86 0 011.8-2.7c.61-.3 1.36-.44 2.25-.44.88 0 1.62.15 2.22.43.6.28 1.06.66 1.36 1.14.3.47.45 1 .45 1.57a2.7 2.7 0 01-.42 1.5c-.27.43-.63.77-1.09 1.01.58.28 1.02.66 1.33 1.15.31.48.47 1.05.47 1.7a3.37 3.37 0 01-2.15 3.21c-.65.3-1.37.44-2.17.44-.8 0-1.54-.15-2.2-.44a3.37 3.37 0 01-2.13-3.22 3.04 3.04 0 011.78-2.85zm3.92-2.1c0-.43-.13-.77-.38-1a1.34 1.34 0 00-1-.37c-.41 0-.75.12-1 .37-.25.24-.37.58-.37 1.02 0 .42.13.75.38 1 .26.23.59.34 1 .34.4 0 .73-.12.99-.36.25-.25.38-.58.38-1zm-1.37 3.28c-.5 0-.91.14-1.22.42-.31.27-.46.64-.46 1.12 0 .45.14.82.44 1.1.31.3.72.44 1.24.44.5 0 .9-.15 1.2-.44.3-.28.44-.65.44-1.1 0-.47-.15-.84-.46-1.12-.3-.28-.7-.42-1.18-.42zM273.8 269.82c1.02 0 1.84.34 2.46 1.02.62.68.93 1.6.93 2.79v5.21h-2.72V274c0-.6-.15-1.07-.46-1.4-.31-.33-.73-.5-1.25-.5s-.94.17-1.25.5c-.3.33-.46.8-.46 1.4v4.84h-2.74V267h2.74v4.12c.27-.4.65-.72 1.13-.95a3.63 3.63 0 011.62-.35zM239.66 269.79c.63 0 1.18.13 1.65.38.48.26.85.6 1.1 1v-1.25h2.74v8.9a4.9 4.9 0 01-.5 2.23c-.31.67-.81 1.2-1.48 1.6-.66.4-1.5.6-2.48.6-1.32 0-2.4-.32-3.22-.95a3.51 3.51 0 01-1.4-2.53h2.7c.08.34.28.6.6.8.32.2.72.3 1.19.3.56 0 1.01-.16 1.34-.5.34-.31.51-.83.51-1.54v-1.27a3.1 3.1 0 01-2.75 1.41 3.7 3.7 0 01-3.42-2.18 5.51 5.51 0 01-.51-2.43c0-.92.17-1.72.5-2.41.36-.7.84-1.23 1.43-1.6a3.7 3.7 0 012-.56zm2.75 4.59c0-.68-.19-1.22-.57-1.62-.37-.4-.83-.59-1.38-.59-.54 0-1 .2-1.39.6a2.2 2.2 0 00-.56 1.6c0 .68.19 1.22.56 1.63.39.39.85.59 1.4.59.54 0 1-.2 1.37-.6.38-.39.57-.93.57-1.61zM211.3 272.19h-1.47v6.65h-2.74v-6.65h-1v-2.27h1v-.26c0-1.1.31-1.93.94-2.5.63-.57 1.56-.86 2.77-.86l.45.01v2.32c-.52-.03-.89.05-1.1.23-.22.18-.32.5-.32.97v.09h1.47v2.27zM181.19 274.24a7 7 0 01-.05.8h-6.2c.05.55.23.98.53 1.27.32.3.72.44 1.17.44.69 0 1.16-.3 1.43-.87h2.9a3.94 3.94 0 01-.8 1.59c-.4.47-.88.83-1.46 1.1a4.7 4.7 0 01-1.97.4 4.8 4.8 0 01-2.34-.56 4 4 0 01-1.6-1.6c-.38-.7-.57-1.5-.57-2.43 0-.93.18-1.74.56-2.43.38-.7.92-1.23 1.6-1.6a4.82 4.82 0 012.35-.56c.86 0 1.63.18 2.3.54.68.36 1.2.88 1.57 1.55.38.68.58 1.46.58 2.36zm-2.8-.73c0-.46-.16-.84-.48-1.12a1.76 1.76 0 00-1.2-.41c-.46 0-.85.13-1.17.4-.31.26-.5.64-.58 1.13h3.43zM139.73 274.36c0-.92.17-1.72.5-2.41.36-.7.84-1.23 1.43-1.6a3.7 3.7 0 012-.56c.59 0 1.12.12 1.6.36.5.25.88.58 1.16 1V267h2.73v11.84h-2.74v-1.28c-.25.43-.62.77-1.1 1.03-.47.25-1.02.38-1.65.38a3.7 3.7 0 01-3.42-2.18 5.51 5.51 0 01-.51-2.43zm6.69.02c0-.68-.2-1.22-.58-1.62-.37-.4-.83-.59-1.38-.59-.54 0-1 .2-1.39.6a2.2 2.2 0 00-.56 1.6c0 .68.19 1.22.56 1.63.39.39.85.59 1.4.59.54 0 1-.2 1.37-.6.38-.39.57-.93.57-1.61zM108.31 274.38c0-.93.19-1.74.56-2.43a4 4 0 011.59-1.6 4.78 4.78 0 012.33-.56c1.12 0 2.06.29 2.8.88a4.13 4.13 0 011.5 2.48h-2.92c-.25-.69-.72-1.03-1.42-1.03-.5 0-.9.2-1.2.6-.3.38-.45.93-.45 1.66 0 .72.15 1.28.45 1.68.3.38.7.57 1.2.57.7 0 1.17-.34 1.42-1.02h2.91a4.19 4.19 0 01-1.49 2.46c-.75.6-1.69.9-2.8.9a4.8 4.8 0 01-2.33-.56c-.67-.37-1.2-.9-1.59-1.6-.37-.7-.56-1.5-.56-2.43zM79 271.18c.26-.42.63-.75 1.11-1a3.45 3.45 0 011.65-.4 3.7 3.7 0 013.4 2.17c.36.69.54 1.5.54 2.41 0 .92-.18 1.73-.53 2.44a3.7 3.7 0 01-3.4 2.18c-.64 0-1.19-.13-1.66-.38s-.84-.59-1.1-1v1.24h-2.74V267h2.74v4.18zm3.91 3.18c0-.68-.2-1.21-.57-1.6-.38-.4-.84-.59-1.4-.59-.54 0-1 .2-1.39.6-.37.39-.56.93-.56 1.6 0 .7.19 1.23.56 1.63.39.39.85.59 1.4.59.54 0 1-.2 1.39-.6.38-.4.57-.94.57-1.63zM43.73 274.36c0-.92.17-1.72.5-2.41.36-.7.84-1.23 1.43-1.6a3.7 3.7 0 012-.56c.63 0 1.18.13 1.65.38.48.26.85.6 1.1 1v-1.25h2.74v8.92h-2.73v-1.26c-.27.42-.64.75-1.12 1a3.67 3.67 0 01-5.06-1.8 5.51 5.51 0 01-.51-2.42zm6.69.02c0-.68-.2-1.22-.58-1.62-.37-.4-.83-.59-1.38-.59-.54 0-1 .2-1.39.6a2.2 2.2 0 00-.56 1.6c0 .68.19 1.22.56 1.63.39.39.85.59 1.4.59.54 0 1-.2 1.37-.6.38-.39.58-.93.58-1.61z" fill="#000"/><mask id="a" maskUnits="userSpaceOnUse" x="198.6" y="3.18" width="20" height="25" fill="#000"><path fill="#fff" d="M198.6 3.18h20v25h-20z"/><path fill-rule="evenodd" clip-rule="evenodd" d="M209.29 8.3c.55-.25.93-.82.93-1.5 0-.9-.7-1.62-1.55-1.62a1.6 1.6 0 00-1.54 1.63c0 .68.4 1.27.96 1.51l-6.5 9.4s3.13 7.53 7.1 7.48c3.96-.06 7.27-7.69 7.27-7.69l-6.67-9.2z"/></mask><path fill-rule="evenodd" clip-rule="evenodd" d="M209.29 8.3c.55-.25.93-.82.93-1.5 0-.9-.7-1.62-1.55-1.62a1.6 1.6 0 00-1.54 1.63c0 .68.4 1.27.96 1.51l-6.5 9.4s3.13 7.53 7.1 7.48c3.96-.06 7.27-7.69 7.27-7.69l-6.67-9.2z" fill="#5C5C5C"/><path d="M209.29 8.3l-.84-1.81-2.2 1.02 1.42 1.97 1.62-1.17zm-1.2.02l1.65 1.14 1.39-2.01-2.25-.97-.79 1.84zm-6.5 9.4l-1.64-1.15-.62.9.42 1 1.85-.76zm7.1 7.48l.02 2-.03-2zm7.27-7.69l1.83.8.46-1.05-.67-.92-1.62 1.17zm-7.74-10.7c0-.1.05-.24.23-.32l1.68 3.63a3.64 3.64 0 002.09-3.31h-4zm.45.37a.5.5 0 01-.36-.15.33.33 0 01-.1-.22h4c0-1.9-1.48-3.63-3.54-3.63v4zm.46-.37c0 .06-.03.15-.1.22a.5.5 0 01-.36.15v-4a3.59 3.59 0 00-3.54 3.63h4zm-.25-.33c.19.09.25.24.25.33h-4c0 1.46.85 2.79 2.18 3.35l1.57-3.68zm-5.64 12.37l6.5-9.39-3.3-2.27-6.49 9.38 3.3 2.28zm5.42 4.35c-.34 0-.83-.15-1.49-.7-.64-.52-1.28-1.29-1.86-2.15a21.2 21.2 0 01-1.75-3.14l-.09-.2a2.63 2.63 0 01-.02-.05v-.01l-1.85.76-1.85.77.01.03a10.95 10.95 0 00.16.35A24.23 24.23 0 00202 22.6a14.3 14.3 0 002.63 3 6.33 6.33 0 004.08 1.6l-.05-4zm7.3-5.69l-1.84-.8v.02l-.02.05-.1.2a22.84 22.84 0 01-1.84 3.2 11.4 11.4 0 01-1.95 2.26c-.69.57-1.2.75-1.55.76l.05 4a6.57 6.57 0 004.06-1.69c1.06-.88 1.97-2 2.68-3.04a26.94 26.94 0 002.3-4.05c0-.03.02-.06.03-.08v-.02h.01v-.01l-1.83-.8zm-8.29-8.03l6.67 9.2 3.24-2.34-6.67-9.2-3.24 2.34z" fill="#000" mask="url(#a)"/><path d="M218.49 29.29h1v-2.56a3 3 0 00-3-3h-15.56a3 3 0 00-3 3v2.56h20.56z" fill="#5C5C5C" stroke="#000" stroke-width="2"/><path d="M208.7 14.95l3.56-2.66 1.34 1.78-4.9 3.55v-2.67z" fill="#000"/><mask id="b" maskUnits="userSpaceOnUse" x="166.6" y="163.18" width="20" height="25" fill="#000"><path fill="#fff" d="M166.6 163.18h20v25h-20z"/><path fill-rule="evenodd" clip-rule="evenodd" d="M177.29 168.3c.55-.25.93-.82.93-1.5 0-.9-.7-1.62-1.55-1.62a1.6 1.6 0 00-1.54 1.63c0 .68.4 1.27.96 1.51l-6.5 9.4s3.13 7.53 7.1 7.48c3.96-.06 7.27-7.69 7.27-7.69l-6.67-9.2z"/></mask><path fill-rule="evenodd" clip-rule="evenodd" d="M177.29 168.3c.55-.25.93-.82.93-1.5 0-.9-.7-1.62-1.55-1.62a1.6 1.6 0 00-1.54 1.63c0 .68.4 1.27.96 1.51l-6.5 9.4s3.13 7.53 7.1 7.48c3.96-.06 7.27-7.69 7.27-7.69l-6.67-9.2z" fill="#fff"/><path d="M177.29 168.3l-.84-1.81-2.2 1.02 1.42 1.97 1.62-1.17zm-1.2.02l1.65 1.14 1.39-2.01-2.25-.97-.79 1.84zm-6.5 9.4l-1.64-1.15-.62.9.42 1 1.85-.76zm7.1 7.48l.02 2-.03-2zm7.27-7.69l1.83.8.46-1.05-.67-.92-1.62 1.17zm-7.74-10.7c0-.1.05-.24.23-.32l1.68 3.63a3.64 3.64 0 002.09-3.31h-4zm.45.37a.5.5 0 01-.36-.15.33.33 0 01-.1-.22h4c0-1.9-1.48-3.63-3.54-3.63v4zm.46-.37c0 .06-.03.15-.1.22a.5.5 0 01-.36.15v-4a3.59 3.59 0 00-3.54 3.63h4zm-.25-.33c.19.09.25.24.25.33h-4c0 1.46.85 2.79 2.18 3.35l1.57-3.68zm-5.64 12.37l6.5-9.39-3.3-2.28-6.49 9.4 3.3 2.27zm5.42 4.35c-.34 0-.83-.15-1.49-.7-.64-.52-1.28-1.29-1.86-2.15a21.27 21.27 0 01-1.84-3.34l-.02-.05v-.01l-1.85.76-1.85.77.01.03a5.84 5.84 0 00.16.35 24.07 24.07 0 002.08 3.74 14.3 14.3 0 002.63 3 6.33 6.33 0 004.08 1.6l-.05-4zm7.3-5.69l-1.84-.8v.02l-.02.05-.1.2a22.86 22.86 0 01-1.84 3.2c-.6.9-1.27 1.7-1.95 2.26-.69.57-1.2.75-1.55.76l.05 4a6.56 6.56 0 004.06-1.69c1.06-.88 1.97-2 2.68-3.04a26.9 26.9 0 002.3-4.05c0-.03.02-.06.03-.08v-.02h.01v-.01l-1.83-.8zm-8.29-8.03l6.67 9.2 3.24-2.34-6.67-9.2-3.24 2.34z" fill="#000" mask="url(#b)"/><path d="M186.49 189.29h1v-2.56a3 3 0 00-3-3h-15.56a3 3 0 00-3 3v2.56h20.56z" fill="#fff" stroke="#000" stroke-width="2"/><path d="M176.7 174.95l3.56-2.66 1.34 1.78-4.9 3.55v-2.67z" fill="#000"/><mask id="c" maskUnits="userSpaceOnUse" x="134.6" y="163.18" width="20" height="25" fill="#000"><path fill="#fff" d="M134.6 163.18h20v25h-20z"/><path fill-rule="evenodd" clip-rule="evenodd" d="M145.29 168.3c.55-.25.93-.82.93-1.5 0-.9-.7-1.62-1.55-1.62a1.6 1.6 0 00-1.54 1.63c0 .68.4 1.27.96 1.51l-6.5 9.4s3.13 7.53 7.1 7.48c3.96-.06 7.27-7.69 7.27-7.69l-6.67-9.2z"/></mask><path fill-rule="evenodd" clip-rule="evenodd" d="M145.29 168.3c.55-.25.93-.82.93-1.5 0-.9-.7-1.62-1.55-1.62a1.6 1.6 0 00-1.54 1.63c0 .68.4 1.27.96 1.51l-6.5 9.4s3.13 7.53 7.1 7.48c3.96-.06 7.27-7.69 7.27-7.69l-6.67-9.2z" fill="#fff"/><path d="M145.29 168.3l-.84-1.81-2.2 1.02 1.42 1.97 1.62-1.17zm-1.2.02l1.65 1.14 1.39-2.01-2.25-.97-.79 1.84zm-6.5 9.4l-1.64-1.15-.62.9.42 1 1.85-.76zm7.1 7.48l.02 2-.03-2zm7.27-7.69l1.83.8.46-1.05-.67-.92-1.62 1.17zm-7.74-10.7c0-.1.05-.24.23-.32l1.68 3.63a3.64 3.64 0 002.09-3.31h-4zm.45.37a.5.5 0 01-.36-.15.33.33 0 01-.1-.22h4c0-1.9-1.48-3.63-3.54-3.63v4zm.46-.37c0 .06-.03.15-.1.22a.5.5 0 01-.36.15v-4a3.59 3.59 0 00-3.54 3.63h4zm-.25-.33c.19.09.25.24.25.33h-4c0 1.46.85 2.79 2.18 3.35l1.57-3.68zm-5.64 12.37l6.5-9.39-3.3-2.28-6.49 9.4 3.3 2.27zm5.42 4.35c-.34 0-.83-.15-1.49-.7-.64-.52-1.28-1.29-1.86-2.15a21.27 21.27 0 01-1.84-3.34l-.02-.05v-.01l-1.85.76-1.85.77.01.03a5.84 5.84 0 00.16.35 24.07 24.07 0 002.08 3.74 14.3 14.3 0 002.63 3 6.33 6.33 0 004.08 1.6l-.05-4zm7.3-5.69l-1.84-.8v.02l-.02.05-.1.2a22.86 22.86 0 01-1.84 3.2c-.6.9-1.27 1.7-1.95 2.26-.69.57-1.2.75-1.55.76l.05 4a6.56 6.56 0 004.06-1.69c1.06-.88 1.97-2 2.68-3.04a26.9 26.9 0 002.3-4.05c0-.03.02-.06.03-.08v-.02h.01v-.01l-1.83-.8zm-8.29-8.03l6.67 9.2 3.24-2.34-6.67-9.2-3.24 2.34z" fill="#000" mask="url(#c)"/><path d="M154.49 189.29h1v-2.56a3 3 0 00-3-3h-15.56a3 3 0 00-3 3v2.56h20.56z" fill="#fff" stroke="#000" stroke-width="2"/><path d="M144.7 174.95l3.56-2.66 1.34 1.78-4.9 3.55v-2.67z" fill="#000"/><mask id="d" maskUnits="userSpaceOnUse" x="102.6" y="3.18" width="20" height="25" fill="#000"><path fill="#fff" d="M102.6 3.18h20v25h-20z"/><path fill-rule="evenodd" clip-rule="evenodd" d="M113.29 8.3c.55-.25.93-.82.93-1.5 0-.9-.7-1.62-1.55-1.62a1.6 1.6 0 00-1.54 1.63c0 .68.4 1.27.96 1.51l-6.5 9.4s3.13 7.53 7.1 7.48c3.96-.06 7.27-7.69 7.27-7.69l-6.67-9.2z"/></mask><path fill-rule="evenodd" clip-rule="evenodd" d="M113.29 8.3c.55-.25.93-.82.93-1.5 0-.9-.7-1.62-1.55-1.62a1.6 1.6 0 00-1.54 1.63c0 .68.4 1.27.96 1.51l-6.5 9.4s3.13 7.53 7.1 7.48c3.96-.06 7.27-7.69 7.27-7.69l-6.67-9.2z" fill="#5C5C5C"/><path d="M113.29 8.3l-.84-1.81-2.2 1.02 1.42 1.97 1.62-1.17zm-1.2.02l1.65 1.14 1.39-2.01-2.25-.97-.79 1.84zm-6.5 9.4l-1.64-1.15-.62.9.42 1 1.85-.76zm7.1 7.48l.02 2-.03-2zm7.27-7.69l1.83.8.46-1.05-.67-.92-1.62 1.17zm-7.74-10.7c0-.1.05-.24.23-.32l1.68 3.63a3.64 3.64 0 002.09-3.31h-4zm.45.37a.5.5 0 01-.36-.15.33.33 0 01-.1-.22h4c0-1.9-1.48-3.63-3.54-3.63v4zm.46-.37c0 .06-.03.15-.1.22a.5.5 0 01-.36.15v-4a3.59 3.59 0 00-3.54 3.63h4zm-.25-.33c.19.09.25.24.25.33h-4c0 1.46.85 2.79 2.18 3.35l1.57-3.68zm-5.64 12.37l6.5-9.39-3.3-2.27-6.49 9.38 3.3 2.28zm5.42 4.35c-.34 0-.83-.15-1.49-.7-.64-.52-1.28-1.29-1.86-2.15a21.2 21.2 0 01-1.75-3.14l-.09-.2a2.63 2.63 0 01-.02-.05v-.01l-1.85.76-1.85.77.01.03a10.95 10.95 0 00.16.35A24.23 24.23 0 00106 22.6a14.3 14.3 0 002.63 3 6.33 6.33 0 004.08 1.6l-.05-4zm7.3-5.69l-1.84-.8v.02l-.02.05-.1.2a22.84 22.84 0 01-1.84 3.2 11.4 11.4 0 01-1.95 2.26c-.69.57-1.2.75-1.55.76l.05 4a6.57 6.57 0 004.06-1.69c1.06-.88 1.97-2 2.68-3.04a26.94 26.94 0 002.3-4.05c0-.03.02-.06.03-.08v-.02h.01v-.01l-1.83-.8zm-8.29-8.03l6.67 9.2 3.24-2.34-6.67-9.2-3.24 2.34z" fill="#000" mask="url(#d)"/><path d="M122.49 29.29h1v-2.56a3 3 0 00-3-3h-15.56a3 3 0 00-3 3v2.56h20.56z" fill="#5C5C5C" stroke="#000" stroke-width="2"/><path d="M112.7 14.95l3.56-2.66 1.34 1.78-4.9 3.55v-2.67z" fill="#000"/><mask id="e" maskUnits="userSpaceOnUse" x="163.55" y="225.4" width="26" height="26" fill="#000"><path fill="#fff" d="M163.55 225.4h26v26h-26z"/><path fill-rule="evenodd" clip-rule="evenodd" d="M183.82 248.73l2.93-7.98a2 2 0 00-1.02-2.5c-3.56-1.68-5.71-2.62-8.1-2.81v-3.6h2.79v-1.78h-2.78v-2.66h-1.86v2.66H173v1.78h2.78v3.6c-2.38.2-4.53 1.13-8.09 2.81a2 2 0 00-1.02 2.5l2.93 7.98h14.22zm-8.89-10.72c-1.12.2-2.39.56-4.04 1.1-1.15.38-1.7 1.7-1.15 2.79l1.63 3.28h3.56V238zm7.6 1.1c-1.66-.54-2.92-.9-4.04-1.1v7.17h3.55l1.64-3.28c.54-1.09 0-2.4-1.15-2.79z"/></mask><path fill-rule="evenodd" clip-rule="evenodd" d="M183.82 248.73l2.93-7.98a2 2 0 00-1.02-2.5c-3.56-1.68-5.71-2.62-8.1-2.81v-3.6h2.79v-1.78h-2.78v-2.66h-1.86v2.66H173v1.78h2.78v3.6c-2.38.2-4.53 1.13-8.09 2.81a2 2 0 00-1.02 2.5l2.93 7.98h14.22zm-8.89-10.72c-1.12.2-2.39.56-4.04 1.1-1.15.38-1.7 1.7-1.15 2.79l1.63 3.28h3.56V238zm7.6 1.1c-1.66-.54-2.92-.9-4.04-1.1v7.17h3.55l1.64-3.28c.54-1.09 0-2.4-1.15-2.79z" fill="#fff"/><path d="M175.86 236.43a10.4 10.4 0 011.7 0l.16-1.99c-.68-.06-1.34-.06-2.02 0l.16 2zm10.89 4.32l1.88.69-1.88-.7zm-2.93 7.98v2h1.4l.48-1.31-1.88-.69zm1.9-10.48l.86-1.8-.85 1.8zm-8.08-2.81h-2v1.84l1.83.15.17-2zm0-3.6v-2h-2v2h2zm2.78 0v2h2v-2h-2zm0-1.78h2v-2h-2v2zm-2.78 0h-2v2h2v-2zm0-2.66h2v-2h-2v2zm-1.86 0v-2h-2v2h2zm0 2.66v2h2v-2h-2zm-2.78 0v-2h-2v2h2zm0 1.78h-2v2h2v-2zm2.78 0h2v-2h-2v2zm0 3.6l.16 1.99 1.84-.15v-1.84h-2zm-8.09 2.81l.85 1.81-.85-1.8zm-1.02 2.5l1.88-.7-1.88.7zm2.93 7.98l-1.88.69.48 1.31h1.4v-2zm1.29-9.62l-.62-1.9.62 1.9zm4.04-1.1h2v-2.37l-2.34.4.34 1.97zm-5.2 3.89l1.8-.9-1.8.9zm1.65 3.28l-1.8.9.56 1.1h1.24v-2zm3.55 0v2h2v-2h-2zm3.56-7.17l.33-1.97-2.33-.4v2.37h2zm4.04 1.1l-.62 1.9.62-1.9zm-4.04 6.07h-2v2h2v-2zm3.55 0v2h1.24l.55-1.1-1.79-.9zm1.64-3.28l1.8.89-1.8-.9zm1.19-1.84l-2.93 7.98 3.76 1.38 2.93-7.98-3.76-1.38zm0 0l3.75 1.38a4 4 0 00-2.04-5l-1.7 3.62zm-7.4-2.63c1.96.16 3.79.92 7.4 2.63l1.71-3.62c-3.5-1.65-5.98-2.77-8.78-3l-.33 3.99zm-1.83-5.59v3.6h4v-3.6h-4zm4.78-2h-2.78v4h2.78v-4zm-2 .22v1.78h4v-1.78h-4zm-.78 2h2.78v-4h-2.78v4zm-2-4.66v2.66h4v-2.66h-4zm.14 2h1.86v-4h-1.86v4zm2 .66v-2.66h-4v2.66h4zm-4.78 2h2.78v-4H173v4zm2-.22v-1.78h-4v1.78h4zm.78-2H173v4h2.78v-4zm2 5.6v-3.6h-4v3.6h4zm-9.24 4.62c3.62-1.7 5.45-2.47 7.4-2.63l-.32-3.99c-2.8.23-5.28 1.35-8.79 3l1.71 3.62zm0 0l-1.7-3.62a4 4 0 00-2.05 5l3.76-1.38zm2.94 7.98l-2.93-7.98-3.76 1.38 2.93 7.98 3.75-1.38zm12.34-1.3H169.6v4h14.22v-4zM171.5 241a27.6 27.6 0 013.76-1.03l-.68-3.94c-1.28.22-2.66.63-4.32 1.17l1.24 3.8zm.01 0V241v.01h-.01l-1.24-3.8a3.99 3.99 0 00-2.32 5.58l3.57-1.79zm1.64 3.27l-1.64-3.28-3.57 1.79 1.64 3.28 3.57-1.79zm1.77-1.1h-3.56v4h3.56v-4zm-2-5.17v7.17h4V238h-4zm5.22 1.97c.97.17 2.11.5 3.76 1.03l1.24-3.8a31.44 31.44 0 00-4.33-1.17l-.67 3.94zm2.34 5.2V238h-4v7.17h4zm1.55-2h-3.55v4h3.55v-4zm-.15-2.18l-1.64 3.28 3.58 1.8 1.64-3.29-3.58-1.79zm.02.01h-.01V241l3.57 1.79a3.99 3.99 0 00-2.32-5.58l-1.24 3.8z" fill="#000" mask="url(#e)"/><path d="M186.49 253.29h1v-2.56a3 3 0 00-3-3h-15.56a3 3 0 00-3 3v2.56h20.56z" fill="#fff" stroke="#000" stroke-width="2"/><mask id="f" maskUnits="userSpaceOnUse" x="163.55" y="1.4" width="26" height="26" fill="#000"><path fill="#fff" d="M163.55 1.4h26v26h-26z"/><path fill-rule="evenodd" clip-rule="evenodd" d="M183.82 24.73l2.93-7.98a2 2 0 00-1.02-2.5c-3.56-1.68-5.71-2.62-8.1-2.81v-3.6h2.79V6.07h-2.78V3.4h-1.86v2.67H173v1.77h2.78v3.6c-2.38.2-4.53 1.13-8.09 2.81a2 2 0 00-1.02 2.5l2.93 7.98h14.22zm-8.89-10.72c-1.12.2-2.39.56-4.04 1.1a1.99 1.99 0 00-1.15 2.79l1.63 3.28h3.56V14zm7.6 1.1c-1.66-.54-2.92-.9-4.04-1.1v7.17h3.55l1.64-3.28c.54-1.09 0-2.4-1.15-2.79z"/></mask><path fill-rule="evenodd" clip-rule="evenodd" d="M183.82 24.73l2.93-7.98a2 2 0 00-1.02-2.5c-3.56-1.68-5.71-2.62-8.1-2.81v-3.6h2.79V6.07h-2.78V3.4h-1.86v2.67H173v1.77h2.78v3.6c-2.38.2-4.53 1.13-8.09 2.81a2 2 0 00-1.02 2.5l2.93 7.98h14.22zm-8.89-10.72c-1.12.2-2.39.56-4.04 1.1a1.99 1.99 0 00-1.15 2.79l1.63 3.28h3.56V14zm7.6 1.1c-1.66-.54-2.92-.9-4.04-1.1v7.17h3.55l1.64-3.28c.54-1.09 0-2.4-1.15-2.79z" fill="#5C5C5C"/><path d="M175.86 12.43c.57-.04 1.13-.04 1.7 0l.16-1.99c-.68-.06-1.34-.06-2.02 0l.16 2zm10.89 4.32l1.88.69-1.88-.7zm-2.93 7.98v2h1.4l.48-1.31-1.88-.69zm1.9-10.48l.86-1.8-.85 1.8zm-8.08-2.81h-2v1.84l1.83.15.17-2zm0-3.6v-2h-2v2h2zm2.78 0v2h2v-2h-2zm0-1.77h2v-2h-2v2zm-2.78 0h-2v2h2v-2zm0-2.67h2v-2h-2v2zm-1.86 0v-2h-2v2h2zm0 2.67v2h2v-2h-2zm-2.78 0v-2h-2v2h2zm0 1.77h-2v2h2v-2zm2.78 0h2v-2h-2v2zm0 3.6l.16 1.99 1.84-.15v-1.84h-2zm-8.09 2.81l.85 1.81-.85-1.8zm-1.02 2.5l1.88-.7-1.88.7zm2.93 7.98l-1.88.69.48 1.31h1.4v-2zm1.29-9.62l-.62-1.9.62 1.9zm4.04-1.1h2v-2.37l-2.34.4.34 1.97zm-5.2 3.89l1.8-.9-1.8.9zm1.65 3.28l-1.8.9.56 1.1h1.24v-2zm3.55 0v2h2v-2h-2zm3.56-7.17l.33-1.97-2.33-.4v2.37h2zm4.04 1.1l.62-1.9-.62 1.9zm-4.04 6.07h-2v2h2v-2zm3.55 0v2h1.24l.55-1.1-1.79-.9zm1.64-3.28l1.8.89-1.8-.9zm1.19-1.84l-2.93 7.98 3.76 1.38 2.93-7.98-3.76-1.38zm0 0l3.75 1.38a4 4 0 00-2.04-5l-1.7 3.62zm-7.4-2.63c1.96.16 3.79.92 7.4 2.63l1.71-3.62c-3.5-1.65-5.98-2.77-8.78-3l-.33 3.99zm-1.83-5.59v3.6h4v-3.6h-4zm4.78-2h-2.78v4h2.78v-4zm-2 .23v1.77h4V6.07h-4zm-.78 2h2.78v-4h-2.78v4zm-2-4.67v2.67h4V3.4h-4zm.14 2h1.86v-4h-1.86v4zm2 .67V3.4h-4v2.67h4zm-4.78 2h2.78v-4H173v4zm2-.23V6.07h-4v1.77h4zm.78-2H173v4h2.78v-4zm2 5.6v-3.6h-4v3.6h4zm-9.24 4.62c3.62-1.7 5.45-2.47 7.4-2.63l-.32-3.99c-2.8.23-5.28 1.35-8.79 3l1.71 3.62zm0 0l-1.7-3.62a4 4 0 00-2.05 5l3.76-1.38zm2.94 7.98l-2.93-7.98-3.76 1.38 2.93 7.98 3.75-1.38zm12.34-1.3H169.6v4h14.22v-4zM171.5 17c1.64-.53 2.79-.86 3.76-1.03l-.68-3.94c-1.28.22-2.66.63-4.32 1.17l1.24 3.8zm.01 0V17v.01h-.01l-1.24-3.8a3.99 3.99 0 00-2.32 5.58l3.57-1.79zm1.64 3.27L171.52 17l-3.57 1.79 1.64 3.28 3.57-1.79zm1.77-1.1h-3.56v4h3.56v-4zm-2-5.17v7.17h4V14h-4zm5.22 1.97c.97.17 2.11.5 3.76 1.03l1.24-3.8a31.3 31.3 0 00-4.33-1.17l-.67 3.94zm2.34 5.2V14h-4v7.17h4zm1.55-2h-3.55v4h3.55v-4zM181.9 17l-1.64 3.28 3.58 1.8 1.64-3.29L181.9 17zm.02.01h-.01V17l3.57 1.79a3.99 3.99 0 00-2.32-5.58l-1.24 3.8z" fill="#000" mask="url(#f)"/><path d="M186.49 29.29h1v-2.56a3 3 0 00-3-3h-15.56a3 3 0 00-3 3v2.56h20.56zM180.49 152.84h.54l.3-.45-.84-.55.84.55h0v-.01l.03-.04.1-.16a29.16 29.16 0 001.44-2.53 28.52 28.52 0 002.39-6.06c.54-2.2.7-4.63-.4-6.57-1.16-2.02-3.49-3.15-7.14-3.16h-.02a.37.37 0 01-.13-.05s0 0 0 0c-.03-.02-.2-.12-.2-.63v-1h-1c-.51 0-.95.28-1.19.45-.28.2-.56.46-.78.7a11.96 11.96 0 00-.72.8l-2.6 1.9-.15.12-.1.17-2.72 4.4-.25.4.15.44 1 3.04.41 1.28 1.1-.77 2.32-1.63 1.7-1.13c.87.31 1.24.67 1.4.87a1 1 0 01.06.1l-.04.1a16.52 16.52 0 01-3.54 4.57 3.17 3.17 0 00-.67 3.96l.24.4.29.5h8.17z" fill="#5C5C5C" stroke="#000" stroke-width="2"/><path d="M186.49 157.29h1v-2.56a3 3 0 00-3-3h-15.56a3 3 0 00-3 3v2.56h20.56z" fill="#5C5C5C" stroke="#000" stroke-width="2"/><path d="M172.26 137.62l.9-.44v.33a1 1 0 01-1 1h-.34l.44-.89z" fill="#000"/><path d="M84.49 248.84h.54l.3-.45-.84-.55.84.55h0v-.01l.03-.04a45.02 45.02 0 00.44-.71c.28-.48.68-1.16 1.1-1.98a28.53 28.53 0 002.39-6.06c.54-2.2.7-4.63-.4-6.57-1.16-2.02-3.49-3.15-7.14-3.16h-.02a.38.38 0 01-.13-.05s0 0 0 0c-.03-.02-.2-.12-.2-.63v-1h-1c-.51 0-.95.28-1.19.45-.28.2-.56.46-.78.7a11.7 11.7 0 00-.72.8l-2.6 1.9-.15.12-.1.17-2.72 4.4-.25.4.15.44 1 3.04.41 1.28 1.1-.77 2.32-1.63 1.7-1.13c.87.31 1.24.67 1.4.87l.06.1a9.01 9.01 0 01-.68 1.22c-.59.94-1.52 2.2-2.9 3.45a3.17 3.17 0 00-.67 3.96l.24.4.29.5h8.17z" fill="#fff" stroke="#000" stroke-width="2"/><path d="M90.49 253.29h1v-2.56a3 3 0 00-3-3H72.93a3 3 0 00-3 3v2.56H90.5z" fill="#fff" stroke="#000" stroke-width="2"/><path d="M76.26 233.62l.9-.44v.33a1 1 0 01-1 1h-.34l.44-.89z" fill="#000"/><path d="M244.49 248.84h.54l.3-.45-.84-.55.84.55h0v-.01l.03-.04.1-.16a29.16 29.16 0 001.44-2.53 28.52 28.52 0 002.39-6.06c.54-2.2.7-4.63-.4-6.57-1.16-2.02-3.49-3.15-7.14-3.16h-.02a.37.37 0 01-.13-.05s0 0 0 0c-.03-.02-.2-.12-.2-.63v-1h-1c-.51 0-.95.28-1.19.45-.28.2-.56.46-.78.7a11.96 11.96 0 00-.72.8l-2.6 1.9-.15.12-.1.17-2.72 4.4-.25.4.15.44 1 3.04.41 1.28 1.1-.77 2.32-1.63 1.7-1.13c.87.31 1.24.67 1.4.87a1 1 0 01.06.1l-.04.1a16.52 16.52 0 01-3.54 4.57 3.17 3.17 0 00-.67 3.96l.24.4.29.5h8.17z" fill="#fff" stroke="#000" stroke-width="2"/><path d="M250.49 253.29h1v-2.56a3 3 0 00-3-3h-15.56a3 3 0 00-3 3v2.56h20.56z" fill="#fff" stroke="#000" stroke-width="2"/><path d="M236.26 233.62l.9-.44v.33a1 1 0 01-1 1h-.34l.44-.89z" fill="#000"/><path d="M84.49 24.84h.54l.3-.45-.84-.55.84.55h0v-.01l.03-.05a20.77 20.77 0 00.44-.7c.28-.48.68-1.16 1.1-1.98a28.53 28.53 0 002.39-6.06c.54-2.2.7-4.64-.4-6.57C87.73 7 85.4 5.87 81.75 5.86h-.02a.4.4 0 01-.13-.05s0 0 0 0c-.03-.02-.2-.12-.2-.63v-1h-1c-.51 0-.95.28-1.19.45a11.64 11.64 0 00-1.5 1.5l-2.6 1.9-.15.12-.1.17-2.72 4.4-.25.4.15.44 1 3.04.41 1.28 1.1-.77 2.32-1.63 1.7-1.13c.87.31 1.24.67 1.4.87l.06.1a9.14 9.14 0 01-.68 1.22c-.59.94-1.52 2.2-2.9 3.45a3.17 3.17 0 00-.67 3.96l.24.4.29.5h8.17z" fill="#5C5C5C" stroke="#000" stroke-width="2"/><path d="M90.49 29.29h1v-2.56a3 3 0 00-3-3H72.93a3 3 0 00-3 3v2.56H90.5z" fill="#5C5C5C" stroke="#000" stroke-width="2"/><path d="M76.26 9.62l.9-.44v.33a1 1 0 01-1 1h-.34l.44-.89z" fill="#000"/><mask id="g" maskUnits="userSpaceOnUse" x="42.38" y="202.29" width="12" height="18" fill="#000"><path fill="#fff" d="M42.38 202.29h12v18h-12z"/><path fill-rule="evenodd" clip-rule="evenodd" d="M49.88 211.2a3.56 3.56 0 10-2.33 0c.03 2.85-1.48 6.42-4.17 6.42h10.66c-2.7 0-4.18-3.58-4.16-6.42z"/></mask><path fill-rule="evenodd" clip-rule="evenodd" d="M49.88 211.2a3.56 3.56 0 10-2.33 0c.03 2.85-1.48 6.42-4.17 6.42h10.66c-2.7 0-4.18-3.58-4.16-6.42z" fill="#fff"/><path d="M49.88 211.2l-.66-1.89-1.34.47v1.41l2 .01zm-2.33 0l2-.01v-1.42l-1.35-.46-.65 1.9zm2.71-3.36c0 .68-.43 1.26-1.04 1.47l1.31 3.78a5.56 5.56 0 003.73-5.25h-4zm-1.55-1.55c.86 0 1.55.7 1.55 1.55h4a5.56 5.56 0 00-5.55-5.55v4zm-1.56 1.55c0-.86.7-1.55 1.56-1.55v-4a5.56 5.56 0 00-5.56 5.55h4zm1.05 1.47a1.56 1.56 0 01-1.05-1.47h-4c0 2.44 1.57 4.51 3.76 5.26l1.3-3.78zm-4.83 10.31c2.36 0 3.96-1.58 4.85-3.15.9-1.59 1.35-3.55 1.33-5.28l-4 .03a6.83 6.83 0 01-.8 3.27c-.53.92-1.03 1.13-1.38 1.13v4zm10.67-4H43.38v4h10.66v-4zm-6.16-4.43c-.01 1.72.42 3.68 1.32 5.27.89 1.57 2.48 3.16 4.84 3.16v-4c-.33 0-.83-.2-1.36-1.13a6.96 6.96 0 01-.8-3.28l-4-.02z" fill="#000" mask="url(#g)"/><path d="M55.82 221.29h1v-1.67a3 3 0 00-3-3H43.6a3 3 0 00-3 3v1.67h15.22z" fill="#fff" stroke="#000" stroke-width="2"/><mask id="h" maskUnits="userSpaceOnUse" x="42.38" y="42.29" width="12" height="18" fill="#000"><path fill="#fff" d="M42.38 42.29h12v18h-12z"/><path fill-rule="evenodd" clip-rule="evenodd" d="M49.88 51.2a3.56 3.56 0 10-2.33 0c.03 2.85-1.48 6.42-4.17 6.42h10.66c-2.7 0-4.18-3.58-4.16-6.42z"/></mask><path fill-rule="evenodd" clip-rule="evenodd" d="M49.88 51.2a3.56 3.56 0 10-2.33 0c.03 2.85-1.48 6.42-4.17 6.42h10.66c-2.7 0-4.18-3.58-4.16-6.42z" fill="#5C5C5C"/><path d="M49.88 51.2l-.66-1.89-1.34.47v1.41l2 .01zm-2.33 0l2-.01v-1.42l-1.35-.46-.65 1.9zm2.71-3.36c0 .68-.43 1.26-1.04 1.47l1.31 3.78a5.56 5.56 0 003.73-5.25h-4zm-1.55-1.55c.86 0 1.55.7 1.55 1.55h4a5.56 5.56 0 00-5.55-5.55v4zm-1.56 1.55c0-.86.7-1.55 1.56-1.55v-4a5.56 5.56 0 00-5.56 5.55h4zm1.05 1.47a1.56 1.56 0 01-1.05-1.47h-4c0 2.44 1.57 4.51 3.76 5.26l1.3-3.79zm-4.83 10.31c2.36 0 3.96-1.58 4.85-3.15.9-1.59 1.35-3.55 1.33-5.28l-4 .04a6.83 6.83 0 01-.8 3.26c-.53.92-1.03 1.13-1.38 1.13v4zm10.67-4H43.38v4h10.66v-4zm-6.16-4.43c-.01 1.72.42 3.68 1.32 5.27.89 1.57 2.48 3.16 4.84 3.16v-4c-.33 0-.83-.2-1.36-1.13a6.96 6.96 0 01-.8-3.28l-4-.02z" fill="#000" mask="url(#h)"/><path d="M55.82 61.29h1v-1.67a3 3 0 00-3-3H43.6a3 3 0 00-3 3v1.67h15.22z" fill="#5C5C5C" stroke="#000" stroke-width="2"/><mask id="i" maskUnits="userSpaceOnUse" x="170.38" y="106.29" width="12" height="18" fill="#000"><path fill="#fff" d="M170.38 106.29h12v18h-12z"/><path fill-rule="evenodd" clip-rule="evenodd" d="M177.88 115.2a3.56 3.56 0 10-2.33 0c.03 2.85-1.48 6.42-4.18 6.42h10.67c-2.7 0-4.18-3.58-4.16-6.42z"/></mask><path fill-rule="evenodd" clip-rule="evenodd" d="M177.88 115.2a3.56 3.56 0 10-2.33 0c.03 2.85-1.48 6.42-4.18 6.42h10.67c-2.7 0-4.18-3.58-4.16-6.42z" fill="#fff"/><path d="M177.88 115.2l-.66-1.89-1.34.47v1.41l2 .01zm-2.33 0l2-.01v-1.42l-1.35-.45-.65 1.89zm2.71-3.36c0 .68-.43 1.26-1.04 1.47l1.31 3.78a5.56 5.56 0 003.73-5.25h-4zm-1.55-1.55c.86 0 1.55.7 1.55 1.55h4a5.56 5.56 0 00-5.55-5.55v4zm-1.56 1.55c0-.86.7-1.55 1.56-1.55v-4a5.56 5.56 0 00-5.56 5.55h4zm1.05 1.47a1.56 1.56 0 01-1.05-1.47h-4c0 2.44 1.57 4.51 3.76 5.26l1.3-3.78zm-4.82 10.31c2.35 0 3.95-1.58 4.84-3.15.9-1.59 1.35-3.55 1.33-5.28l-4 .03a6.84 6.84 0 01-.8 3.27c-.53.92-1.03 1.13-1.38 1.13v4zm10.66-4h-10.66v4h10.66v-4zm-6.16-4.43c-.01 1.73.43 3.68 1.32 5.27.89 1.57 2.48 3.16 4.84 3.16v-4c-.33 0-.83-.2-1.35-1.13a6.96 6.96 0 01-.81-3.28l-4-.02z" fill="#000" mask="url(#i)"/><path d="M183.82 125.29h1v-1.67a3 3 0 00-3-3H171.6a3 3 0 00-3 3v1.67h15.22z" fill="#fff" stroke="#000" stroke-width="2"/><mask id="j" maskUnits="userSpaceOnUse" x="170.38" y="42.29" width="12" height="18" fill="#000"><path fill="#fff" d="M170.38 42.29h12v18h-12z"/><path fill-rule="evenodd" clip-rule="evenodd" d="M177.88 51.2a3.56 3.56 0 10-2.33 0c.03 2.85-1.48 6.42-4.18 6.42h10.67c-2.7 0-4.18-3.58-4.16-6.42z"/></mask><path fill-rule="evenodd" clip-rule="evenodd" d="M177.88 51.2a3.56 3.56 0 10-2.33 0c.03 2.85-1.48 6.42-4.18 6.42h10.67c-2.7 0-4.18-3.58-4.16-6.42z" fill="#5C5C5C"/><path d="M177.88 51.2l-.66-1.89-1.34.47v1.41l2 .01zm-2.33 0l2-.01v-1.42l-1.35-.46-.65 1.9zm2.71-3.36c0 .68-.43 1.26-1.04 1.47l1.31 3.78a5.56 5.56 0 003.73-5.25h-4zm-1.55-1.55c.86 0 1.55.7 1.55 1.55h4a5.56 5.56 0 00-5.55-5.55v4zm-1.56 1.55c0-.86.7-1.55 1.56-1.55v-4a5.56 5.56 0 00-5.56 5.55h4zm1.05 1.47a1.56 1.56 0 01-1.05-1.47h-4c0 2.44 1.57 4.51 3.76 5.26l1.3-3.79zm-4.82 10.31c2.35 0 3.95-1.58 4.84-3.15.9-1.59 1.35-3.55 1.33-5.28l-4 .04a6.83 6.83 0 01-.8 3.26c-.53.92-1.03 1.13-1.38 1.13v4zm10.66-4h-10.66v4h10.66v-4zm-6.16-4.43c-.01 1.72.43 3.68 1.32 5.27.89 1.57 2.48 3.16 4.84 3.16v-4c-.33 0-.83-.2-1.35-1.13a6.96 6.96 0 01-.81-3.28l-4-.02z" fill="#000" mask="url(#j)"/><path d="M183.82 61.29h1v-1.67a3 3 0 00-3-3H171.6a3 3 0 00-3 3v1.67h15.22z" fill="#5C5C5C" stroke="#000" stroke-width="2"/><mask id="k" maskUnits="userSpaceOnUse" x="106.38" y="202.29" width="12" height="18" fill="#000"><path fill="#fff" d="M106.38 202.29h12v18h-12z"/><path fill-rule="evenodd" clip-rule="evenodd" d="M113.88 211.2a3.56 3.56 0 10-2.33 0c.03 2.85-1.48 6.42-4.17 6.42h10.66c-2.7 0-4.18-3.58-4.16-6.42z"/></mask><path fill-rule="evenodd" clip-rule="evenodd" d="M113.88 211.2a3.56 3.56 0 10-2.33 0c.03 2.85-1.48 6.42-4.17 6.42h10.66c-2.7 0-4.18-3.58-4.16-6.42z" fill="#fff"/><path d="M113.88 211.2l-.66-1.89-1.34.47v1.41l2 .01zm-2.33 0l2-.01v-1.42l-1.35-.46-.65 1.9zm2.71-3.36c0 .68-.43 1.26-1.04 1.47l1.31 3.78a5.56 5.56 0 003.73-5.25h-4zm-1.55-1.55c.86 0 1.55.7 1.55 1.55h4a5.56 5.56 0 00-5.55-5.55v4zm-1.56 1.55c0-.86.7-1.55 1.56-1.55v-4a5.56 5.56 0 00-5.56 5.55h4zm1.05 1.47a1.56 1.56 0 01-1.05-1.47h-4c0 2.44 1.57 4.51 3.76 5.26l1.3-3.78zm-4.83 10.31c2.36 0 3.96-1.58 4.85-3.15.9-1.59 1.35-3.55 1.33-5.28l-4 .03a6.84 6.84 0 01-.8 3.27c-.53.92-1.03 1.13-1.38 1.13v4zm10.67-4h-10.67v4h10.67v-4zm-6.16-4.43c-.01 1.72.43 3.68 1.32 5.27.89 1.57 2.48 3.16 4.84 3.16v-4c-.33 0-.83-.2-1.36-1.13a6.96 6.96 0 01-.8-3.28l-4-.02z" fill="#000" mask="url(#k)"/><path d="M119.82 221.29h1v-1.67a3 3 0 00-3-3H107.6a3 3 0 00-3 3v1.67h15.22z" fill="#fff" stroke="#000" stroke-width="2"/><mask id="l" maskUnits="userSpaceOnUse" x="106.38" y="42.29" width="12" height="18" fill="#000"><path fill="#fff" d="M106.38 42.29h12v18h-12z"/><path fill-rule="evenodd" clip-rule="evenodd" d="M113.88 51.2a3.56 3.56 0 10-2.33 0c.03 2.85-1.48 6.42-4.17 6.42h10.66c-2.7 0-4.18-3.58-4.16-6.42z"/></mask><path fill-rule="evenodd" clip-rule="evenodd" d="M113.88 51.2a3.56 3.56 0 10-2.33 0c.03 2.85-1.48 6.42-4.17 6.42h10.66c-2.7 0-4.18-3.58-4.16-6.42z" fill="#5C5C5C"/><path d="M113.88 51.2l-.66-1.89-1.34.47v1.41l2 .01zm-2.33 0l2-.01v-1.42l-1.35-.46-.65 1.9zm2.71-3.36c0 .68-.43 1.26-1.04 1.47l1.31 3.78a5.56 5.56 0 003.73-5.25h-4zm-1.55-1.55c.86 0 1.55.7 1.55 1.55h4a5.56 5.56 0 00-5.55-5.55v4zm-1.56 1.55c0-.86.7-1.55 1.56-1.55v-4a5.56 5.56 0 00-5.56 5.55h4zm1.05 1.47a1.56 1.56 0 01-1.05-1.47h-4c0 2.44 1.57 4.51 3.76 5.26l1.3-3.79zm-4.83 10.31c2.36 0 3.96-1.58 4.85-3.15.9-1.59 1.35-3.55 1.33-5.28l-4 .04a6.83 6.83 0 01-.8 3.26c-.53.92-1.03 1.13-1.38 1.13v4zm10.67-4h-10.67v4h10.67v-4zm-6.16-4.43c-.01 1.72.43 3.68 1.32 5.27.89 1.57 2.48 3.16 4.84 3.16v-4c-.33 0-.83-.2-1.36-1.13a6.96 6.96 0 01-.8-3.28l-4-.02z" fill="#000" mask="url(#l)"/><path d="M119.82 61.29h1v-1.67a3 3 0 00-3-3H107.6a3 3 0 00-3 3v1.67h15.22z" fill="#5C5C5C" stroke="#000" stroke-width="2"/><mask id="m" maskUnits="userSpaceOnUse" x="234.38" y="202.29" width="12" height="18" fill="#000"><path fill="#fff" d="M234.38 202.29h12v18h-12z"/><path fill-rule="evenodd" clip-rule="evenodd" d="M241.88 211.2a3.56 3.56 0 10-2.33 0c.03 2.85-1.48 6.42-4.18 6.42h10.67c-2.7 0-4.18-3.58-4.16-6.42z"/></mask><path fill-rule="evenodd" clip-rule="evenodd" d="M241.88 211.2a3.56 3.56 0 10-2.33 0c.03 2.85-1.48 6.42-4.18 6.42h10.67c-2.7 0-4.18-3.58-4.16-6.42z" fill="#fff"/><path d="M241.88 211.2l-.66-1.89-1.34.47v1.41l2 .01zm-2.33 0l2-.01v-1.42l-1.35-.46-.65 1.9zm2.71-3.36c0 .68-.43 1.26-1.04 1.47l1.31 3.78a5.56 5.56 0 003.73-5.25h-4zm-1.55-1.55c.86 0 1.55.7 1.55 1.55h4a5.56 5.56 0 00-5.55-5.55v4zm-1.56 1.55c0-.86.7-1.55 1.56-1.55v-4a5.56 5.56 0 00-5.56 5.55h4zm1.05 1.47a1.56 1.56 0 01-1.05-1.47h-4c0 2.44 1.57 4.51 3.76 5.26l1.3-3.78zm-4.82 10.31c2.35 0 3.95-1.58 4.84-3.15.9-1.59 1.35-3.55 1.33-5.28l-4 .03a6.84 6.84 0 01-.8 3.27c-.53.92-1.03 1.13-1.38 1.13v4zm10.66-4h-10.66v4h10.66v-4zm-6.16-4.43c-.01 1.72.43 3.68 1.32 5.27.89 1.57 2.48 3.16 4.84 3.16v-4c-.33 0-.83-.2-1.35-1.13a6.96 6.96 0 01-.81-3.28l-4-.02z" fill="#000" mask="url(#m)"/><path d="M247.82 221.29h1v-1.67a3 3 0 00-3-3H235.6a3 3 0 00-3 3v1.67h15.22z" fill="#fff" stroke="#000" stroke-width="2"/><mask id="n" maskUnits="userSpaceOnUse" x="234.38" y="42.29" width="12" height="18" fill="#000"><path fill="#fff" d="M234.38 42.29h12v18h-12z"/><path fill-rule="evenodd" clip-rule="evenodd" d="M241.88 51.2a3.56 3.56 0 10-2.33 0c.03 2.85-1.48 6.42-4.18 6.42h10.67c-2.7 0-4.18-3.58-4.16-6.42z"/></mask><path fill-rule="evenodd" clip-rule="evenodd" d="M241.88 51.2a3.56 3.56 0 10-2.33 0c.03 2.85-1.48 6.42-4.18 6.42h10.67c-2.7 0-4.18-3.58-4.16-6.42z" fill="#5C5C5C"/><path d="M241.88 51.2l-.66-1.89-1.34.47v1.41l2 .01zm-2.33 0l2-.01v-1.42l-1.35-.46-.65 1.9zm2.71-3.36c0 .68-.43 1.26-1.04 1.47l1.31 3.78a5.56 5.56 0 003.73-5.25h-4zm-1.55-1.55c.86 0 1.55.7 1.55 1.55h4a5.56 5.56 0 00-5.55-5.55v4zm-1.56 1.55c0-.86.7-1.55 1.56-1.55v-4a5.56 5.56 0 00-5.56 5.55h4zm1.05 1.47a1.56 1.56 0 01-1.05-1.47h-4c0 2.44 1.57 4.51 3.76 5.26l1.3-3.79zm-4.82 10.31c2.35 0 3.95-1.58 4.84-3.15.9-1.59 1.35-3.55 1.33-5.28l-4 .04a6.83 6.83 0 01-.8 3.26c-.53.92-1.03 1.13-1.38 1.13v4zm10.66-4h-10.66v4h10.66v-4zm-6.16-4.43c-.01 1.72.43 3.68 1.32 5.27.89 1.57 2.48 3.16 4.84 3.16v-4c-.33 0-.83-.2-1.35-1.13a6.96 6.96 0 01-.81-3.28l-4-.02z" fill="#000" mask="url(#n)"/><path d="M247.82 61.29h1v-1.67a3 3 0 00-3-3H235.6a3 3 0 00-3 3v1.67h15.22z" fill="#5C5C5C" stroke="#000" stroke-width="2"/><mask id="o" maskUnits="userSpaceOnUse" x="74.38" y="202.29" width="12" height="18" fill="#000"><path fill="#fff" d="M74.38 202.29h12v18h-12z"/><path fill-rule="evenodd" clip-rule="evenodd" d="M81.88 211.2a3.56 3.56 0 10-2.33 0c.03 2.85-1.48 6.42-4.17 6.42h10.66c-2.7 0-4.18-3.58-4.16-6.42z"/></mask><path fill-rule="evenodd" clip-rule="evenodd" d="M81.88 211.2a3.56 3.56 0 10-2.33 0c.03 2.85-1.48 6.42-4.17 6.42h10.66c-2.7 0-4.18-3.58-4.16-6.42z" fill="#fff"/><path d="M81.88 211.2l-.66-1.89-1.34.47v1.41l2 .01zm-2.33 0l2-.01v-1.42l-1.35-.46-.65 1.9zm2.71-3.36c0 .68-.43 1.26-1.04 1.47l1.31 3.78a5.56 5.56 0 003.73-5.25h-4zm-1.55-1.55c.86 0 1.55.7 1.55 1.55h4a5.56 5.56 0 00-5.55-5.55v4zm-1.56 1.55c0-.86.7-1.55 1.56-1.55v-4a5.56 5.56 0 00-5.56 5.55h4zm1.05 1.47a1.56 1.56 0 01-1.05-1.47h-4c0 2.44 1.57 4.51 3.76 5.26l1.3-3.78zm-4.83 10.31c2.36 0 3.96-1.58 4.85-3.15.9-1.59 1.35-3.55 1.33-5.28l-4 .03a6.83 6.83 0 01-.8 3.27c-.53.92-1.03 1.13-1.38 1.13v4zm10.67-4H75.37v4h10.67v-4zm-6.16-4.43c-.01 1.72.42 3.68 1.32 5.27.89 1.57 2.48 3.16 4.84 3.16v-4c-.33 0-.83-.2-1.36-1.13a6.96 6.96 0 01-.8-3.28l-4-.02z" fill="#000" mask="url(#o)"/><path d="M87.82 221.29h1v-1.67a3 3 0 00-3-3H75.6a3 3 0 00-3 3v1.67h15.22z" fill="#fff" stroke="#000" stroke-width="2"/><mask id="p" maskUnits="userSpaceOnUse" x="74.38" y="42.29" width="12" height="18" fill="#000"><path fill="#fff" d="M74.38 42.29h12v18h-12z"/><path fill-rule="evenodd" clip-rule="evenodd" d="M81.88 51.2a3.56 3.56 0 10-2.33 0c.03 2.85-1.48 6.42-4.17 6.42h10.66c-2.7 0-4.18-3.58-4.16-6.42z"/></mask><path fill-rule="evenodd" clip-rule="evenodd" d="M81.88 51.2a3.56 3.56 0 10-2.33 0c.03 2.85-1.48 6.42-4.17 6.42h10.66c-2.7 0-4.18-3.58-4.16-6.42z" fill="#5C5C5C"/><path d="M81.88 51.2l-.66-1.89-1.34.47v1.41l2 .01zm-2.33 0l2-.01v-1.42l-1.35-.46-.65 1.9zm2.71-3.36c0 .68-.43 1.26-1.04 1.47l1.31 3.78a5.56 5.56 0 003.73-5.25h-4zm-1.55-1.55c.86 0 1.55.7 1.55 1.55h4a5.56 5.56 0 00-5.55-5.55v4zm-1.56 1.55c0-.86.7-1.55 1.56-1.55v-4a5.56 5.56 0 00-5.56 5.55h4zm1.05 1.47a1.56 1.56 0 01-1.05-1.47h-4c0 2.44 1.57 4.51 3.76 5.26l1.3-3.79zm-4.83 10.31c2.36 0 3.96-1.58 4.85-3.15.9-1.59 1.35-3.55 1.33-5.28l-4 .04a6.83 6.83 0 01-.8 3.26c-.53.92-1.03 1.13-1.38 1.13v4zm10.67-4H75.37v4h10.67v-4zm-6.16-4.43c-.01 1.72.42 3.68 1.32 5.27.89 1.57 2.48 3.16 4.84 3.16v-4c-.33 0-.83-.2-1.36-1.13a6.96 6.96 0 01-.8-3.28l-4-.02z" fill="#000" mask="url(#p)"/><path d="M87.82 61.29h1v-1.67a3 3 0 00-3-3H75.6a3 3 0 00-3 3v1.67h15.22z" fill="#5C5C5C" stroke="#000" stroke-width="2"/><mask id="q" maskUnits="userSpaceOnUse" x="202.38" y="170.29" width="12" height="18" fill="#000"><path fill="#fff" d="M202.38 170.29h12v18h-12z"/><path fill-rule="evenodd" clip-rule="evenodd" d="M209.88 179.2a3.56 3.56 0 10-2.33 0c.03 2.85-1.48 6.42-4.18 6.42h10.67c-2.7 0-4.18-3.58-4.16-6.42z"/></mask><path fill-rule="evenodd" clip-rule="evenodd" d="M209.88 179.2a3.56 3.56 0 10-2.33 0c.03 2.85-1.48 6.42-4.18 6.42h10.67c-2.7 0-4.18-3.58-4.16-6.42z" fill="#fff"/><path d="M209.88 179.2l-.66-1.89-1.34.47v1.41l2 .01zm-2.33 0l2-.01v-1.42l-1.35-.46-.65 1.9zm2.71-3.36c0 .68-.43 1.26-1.04 1.47l1.31 3.78a5.56 5.56 0 003.73-5.25h-4zm-1.55-1.55c.86 0 1.55.7 1.55 1.55h4a5.56 5.56 0 00-5.55-5.55v4zm-1.56 1.55c0-.86.7-1.55 1.56-1.55v-4a5.56 5.56 0 00-5.56 5.55h4zm1.05 1.47a1.56 1.56 0 01-1.05-1.47h-4c0 2.44 1.57 4.51 3.76 5.26l1.3-3.78zm-4.82 10.31c2.35 0 3.95-1.58 4.84-3.15.9-1.59 1.35-3.55 1.33-5.28l-4 .03a6.84 6.84 0 01-.8 3.27c-.53.92-1.03 1.13-1.38 1.13v4zm10.66-4h-10.66v4h10.66v-4zm-6.16-4.43c-.01 1.72.43 3.68 1.32 5.27.89 1.57 2.48 3.16 4.84 3.16v-4c-.33 0-.83-.2-1.35-1.13a6.96 6.96 0 01-.81-3.28l-4-.02z" fill="#000" mask="url(#q)"/><path d="M215.82 189.29h1v-1.67a3 3 0 00-3-3H203.6a3 3 0 00-3 3v1.67h15.22z" fill="#fff" stroke="#000" stroke-width="2"/><mask id="r" maskUnits="userSpaceOnUse" x="202.38" y="106.29" width="12" height="18" fill="#000"><path fill="#fff" d="M202.38 106.29h12v18h-12z"/><path fill-rule="evenodd" clip-rule="evenodd" d="M209.88 115.2a3.56 3.56 0 10-2.33 0c.03 2.85-1.48 6.42-4.18 6.42h10.67c-2.7 0-4.18-3.58-4.16-6.42z"/></mask><path fill-rule="evenodd" clip-rule="evenodd" d="M209.88 115.2a3.56 3.56 0 10-2.33 0c.03 2.85-1.48 6.42-4.18 6.42h10.67c-2.7 0-4.18-3.58-4.16-6.42z" fill="#5C5C5C"/><path d="M209.88 115.2l-.66-1.89-1.34.47v1.41l2 .01zm-2.33 0l2-.01v-1.42l-1.35-.45-.65 1.89zm2.71-3.36c0 .68-.43 1.26-1.04 1.47l1.31 3.78a5.56 5.56 0 003.73-5.25h-4zm-1.55-1.55c.86 0 1.55.7 1.55 1.55h4a5.56 5.56 0 00-5.55-5.55v4zm-1.56 1.55c0-.86.7-1.55 1.56-1.55v-4a5.56 5.56 0 00-5.56 5.55h4zm1.05 1.47a1.56 1.56 0 01-1.05-1.47h-4c0 2.44 1.57 4.51 3.76 5.26l1.3-3.78zm-4.82 10.31c2.35 0 3.95-1.58 4.84-3.15.9-1.59 1.35-3.55 1.33-5.28l-4 .03a6.84 6.84 0 01-.8 3.27c-.53.92-1.03 1.13-1.38 1.13v4zm10.66-4h-10.66v4h10.66v-4zm-6.16-4.43c-.01 1.73.43 3.68 1.32 5.27.89 1.57 2.48 3.16 4.84 3.16v-4c-.33 0-.83-.2-1.35-1.13a6.96 6.96 0 01-.81-3.28l-4-.02z" fill="#000" mask="url(#r)"/><path d="M215.82 125.29h1v-1.67a3 3 0 00-3-3H203.6a3 3 0 00-3 3v1.67h15.22z" fill="#5C5C5C" stroke="#000" stroke-width="2"/><mask id="s" maskUnits="userSpaceOnUse" x="138.38" y="106.29" width="12" height="18" fill="#000"><path fill="#fff" d="M138.38 106.29h12v18h-12z"/><path fill-rule="evenodd" clip-rule="evenodd" d="M145.88 115.2a3.56 3.56 0 10-2.33 0c.03 2.85-1.48 6.42-4.18 6.42h10.67c-2.7 0-4.18-3.58-4.16-6.42z"/></mask><path fill-rule="evenodd" clip-rule="evenodd" d="M145.88 115.2a3.56 3.56 0 10-2.33 0c.03 2.85-1.48 6.42-4.18 6.42h10.67c-2.7 0-4.18-3.58-4.16-6.42z" fill="#fff"/><path d="M145.88 115.2l-.66-1.89-1.34.47v1.41l2 .01zm-2.33 0l2-.01v-1.42l-1.35-.45-.65 1.89zm2.71-3.36c0 .68-.43 1.26-1.04 1.47l1.31 3.78a5.56 5.56 0 003.73-5.25h-4zm-1.55-1.55c.86 0 1.55.7 1.55 1.55h4a5.56 5.56 0 00-5.55-5.55v4zm-1.56 1.55c0-.86.7-1.55 1.56-1.55v-4a5.56 5.56 0 00-5.56 5.55h4zm1.05 1.47a1.56 1.56 0 01-1.05-1.47h-4c0 2.44 1.57 4.51 3.76 5.26l1.3-3.78zm-4.82 10.31c2.35 0 3.95-1.58 4.84-3.15.9-1.59 1.35-3.55 1.33-5.28l-4 .03a6.84 6.84 0 01-.8 3.27c-.53.92-1.03 1.13-1.38 1.13v4zm10.66-4h-10.66v4h10.66v-4zm-6.16-4.43c-.01 1.73.43 3.68 1.32 5.27.89 1.57 2.48 3.16 4.84 3.16v-4c-.33 0-.83-.2-1.35-1.13a6.96 6.96 0 01-.81-3.28l-4-.02z" fill="#000" mask="url(#s)"/><path d="M151.82 125.29h1v-1.67a3 3 0 00-3-3H139.6a3 3 0 00-3 3v1.67h15.22z" fill="#fff" stroke="#000" stroke-width="2"/><mask id="t" maskUnits="userSpaceOnUse" x="138.38" y="42.29" width="12" height="18" fill="#000"><path fill="#fff" d="M138.38 42.29h12v18h-12z"/><path fill-rule="evenodd" clip-rule="evenodd" d="M145.88 51.2a3.56 3.56 0 10-2.33 0c.03 2.85-1.48 6.42-4.18 6.42h10.67c-2.7 0-4.18-3.58-4.16-6.42z"/></mask><path fill-rule="evenodd" clip-rule="evenodd" d="M145.88 51.2a3.56 3.56 0 10-2.33 0c.03 2.85-1.48 6.42-4.18 6.42h10.67c-2.7 0-4.18-3.58-4.16-6.42z" fill="#5C5C5C"/><path d="M145.88 51.2l-.66-1.89-1.34.47v1.41l2 .01zm-2.33 0l2-.01v-1.42l-1.35-.46-.65 1.9zm2.71-3.36c0 .68-.43 1.26-1.04 1.47l1.31 3.78a5.56 5.56 0 003.73-5.25h-4zm-1.55-1.55c.86 0 1.55.7 1.55 1.55h4a5.56 5.56 0 00-5.55-5.55v4zm-1.56 1.55c0-.86.7-1.55 1.56-1.55v-4a5.56 5.56 0 00-5.56 5.55h4zm1.05 1.47a1.56 1.56 0 01-1.05-1.47h-4c0 2.44 1.57 4.51 3.76 5.26l1.3-3.79zm-4.82 10.31c2.35 0 3.95-1.58 4.84-3.15.9-1.59 1.35-3.55 1.33-5.28l-4 .04a6.83 6.83 0 01-.8 3.26c-.53.92-1.03 1.13-1.38 1.13v4zm10.66-4h-10.66v4h10.66v-4zm-6.16-4.43c-.01 1.72.43 3.68 1.32 5.27.89 1.57 2.48 3.16 4.84 3.16v-4c-.33 0-.83-.2-1.35-1.13a6.96 6.96 0 01-.81-3.28l-4-.02z" fill="#000" mask="url(#t)"/><path d="M151.82 61.29h1v-1.67a3 3 0 00-3-3H139.6a3 3 0 00-3 3v1.67h15.22z" fill="#5C5C5C" stroke="#000" stroke-width="2"/><mask id="u" maskUnits="userSpaceOnUse" x="266.38" y="202.29" width="12" height="18" fill="#000"><path fill="#fff" d="M266.38 202.29h12v18h-12z"/><path fill-rule="evenodd" clip-rule="evenodd" d="M273.88 211.2a3.56 3.56 0 10-2.33 0c.03 2.85-1.48 6.42-4.18 6.42h10.67c-2.7 0-4.18-3.58-4.16-6.42z"/></mask><path fill-rule="evenodd" clip-rule="evenodd" d="M273.88 211.2a3.56 3.56 0 10-2.33 0c.03 2.85-1.48 6.42-4.18 6.42h10.67c-2.7 0-4.18-3.58-4.16-6.42z" fill="#fff"/><path d="M273.88 211.2l-.66-1.89-1.34.47v1.41l2 .01zm-2.33 0l2-.01v-1.42l-1.35-.46-.65 1.9zm2.71-3.36c0 .68-.43 1.26-1.04 1.47l1.31 3.78a5.56 5.56 0 003.73-5.25h-4zm-1.55-1.55c.86 0 1.55.7 1.55 1.55h4a5.56 5.56 0 00-5.55-5.55v4zm-1.56 1.55c0-.86.7-1.55 1.56-1.55v-4a5.56 5.56 0 00-5.56 5.55h4zm1.05 1.47a1.56 1.56 0 01-1.05-1.47h-4c0 2.44 1.58 4.51 3.76 5.26l1.3-3.78zm-4.82 10.31c2.35 0 3.95-1.58 4.84-3.15.9-1.59 1.35-3.55 1.33-5.28l-4 .03a6.84 6.84 0 01-.8 3.27c-.53.92-1.03 1.13-1.38 1.13v4zm10.66-4h-10.67v4h10.67v-4zm-6.16-4.43c-.01 1.72.43 3.68 1.32 5.27.89 1.57 2.48 3.16 4.84 3.16v-4c-.33 0-.83-.2-1.36-1.13a6.96 6.96 0 01-.8-3.28l-4-.02z" fill="#000" mask="url(#u)"/><path d="M279.82 221.29h1v-1.67a3 3 0 00-3-3H267.6a3 3 0 00-3 3v1.67h15.22z" fill="#fff" stroke="#000" stroke-width="2"/><mask id="v" maskUnits="userSpaceOnUse" x="266.38" y="42.29" width="12" height="18" fill="#000"><path fill="#fff" d="M266.38 42.29h12v18h-12z"/><path fill-rule="evenodd" clip-rule="evenodd" d="M273.88 51.2a3.56 3.56 0 10-2.33 0c.03 2.85-1.48 6.42-4.18 6.42h10.67c-2.7 0-4.18-3.58-4.16-6.42z"/></mask><path fill-rule="evenodd" clip-rule="evenodd" d="M273.88 51.2a3.56 3.56 0 10-2.33 0c.03 2.85-1.48 6.42-4.18 6.42h10.67c-2.7 0-4.18-3.58-4.16-6.42z" fill="#5C5C5C"/><path d="M273.88 51.2l-.66-1.89-1.34.47v1.41l2 .01zm-2.33 0l2-.01v-1.42l-1.35-.46-.65 1.9zm2.71-3.36c0 .68-.43 1.26-1.04 1.47l1.31 3.78a5.56 5.56 0 003.73-5.25h-4zm-1.55-1.55c.86 0 1.55.7 1.55 1.55h4a5.56 5.56 0 00-5.55-5.55v4zm-1.56 1.55c0-.86.7-1.55 1.56-1.55v-4a5.56 5.56 0 00-5.56 5.55h4zm1.05 1.47a1.56 1.56 0 01-1.05-1.47h-4c0 2.44 1.58 4.51 3.76 5.26l1.3-3.79zm-4.82 10.31c2.35 0 3.95-1.58 4.84-3.15.9-1.59 1.35-3.55 1.33-5.28l-4 .04a6.83 6.83 0 01-.8 3.26c-.53.92-1.03 1.13-1.38 1.13v4zm10.66-4h-10.67v4h10.67v-4zm-6.16-4.43c-.01 1.72.43 3.68 1.32 5.27.89 1.57 2.48 3.16 4.84 3.16v-4c-.33 0-.83-.2-1.36-1.13a6.96 6.96 0 01-.8-3.28l-4-.02z" fill="#000" mask="url(#v)"/><path d="M279.82 61.29h1v-1.67a3 3 0 00-3-3H267.6a3 3 0 00-3 3v1.67h15.22z" fill="#5C5C5C" stroke="#000" stroke-width="2"/><path fill-rule="evenodd" clip-rule="evenodd" d="M147.56 7.25a3 3 0 01-1.09 2.33l1.8 7.15 3.88-3.65a3.04 3.04 0 01-.33-1.39 2.91 2.91 0 012.86-2.96 2.91 2.91 0 012.85 2.96 2.91 2.91 0 01-3.04 2.96l-2.67 10.08H137.6l-2.67-10.08a2.92 2.92 0 01-2.67-2.96 2.91 2.91 0 012.86-2.96 2.91 2.91 0 012.86 2.96c0 .6-.17 1.15-.46 1.62l3.63 3.42 1.8-7.15a3 3 0 01-1.1-2.33 2.91 2.91 0 012.86-2.96 2.91 2.91 0 012.85 2.96z" fill="#5C5C5C"/><path d="M146.47 9.58l-.63-.78-.49.4.16.62.97-.24zm1.8 7.15l-.98.24.42 1.66 1.24-1.17-.69-.73zm3.88-3.65l.68.72.55-.51-.34-.67-.9.46zm2.34 1.57l.06-1-.82-.05-.2.8.96.25zm-2.67 10.08v1h.77l.2-.74-.97-.26zm-14.22 0l-.97.26.2.74h.77v-1zm-2.67-10.08l.97-.26-.19-.69-.71-.05-.07 1zm2.59-1.34l-.85-.53-.44.7.6.56.69-.73zm3.63 3.42l-.68.73 1.24 1.17.41-1.66-.97-.24zm1.8-7.15l.96.24.16-.61-.5-.4-.63.77zm4.16.77a4 4 0 001.45-3.1h-2a2 2 0 01-.72 1.55l1.27 1.55zm2.12 6.14l-1.78-7.15-1.94.48 1.78 7.15 1.94-.48zm2.23-4.14L147.58 16l1.37 1.46 3.88-3.66-1.37-1.45zm-.64-.66c0 .66.16 1.29.44 1.84l1.78-.9a2.04 2.04 0 01-.22-.94h-2zm3.86-3.96a3.91 3.91 0 00-3.86 3.96h2c0-1.11.87-1.96 1.86-1.96v-2zm3.85 3.96c0-2.15-1.69-3.96-3.85-3.96v2c.99 0 1.85.85 1.85 1.96h2zm-3.85 3.97c2.16 0 3.85-1.81 3.85-3.97h-2c0 1.12-.86 1.97-1.85 1.97v2zm-.26-.01h.26v-2h-.13l-.13 2zm-1.63 9.34l2.66-10.08-1.93-.51-2.67 10.08 1.94.5zm-15.2.74h14.23v-2H137.6v2zm-3.63-10.82l2.67 10.08 1.93-.51-2.66-10.09-1.94.52zm1.04-1.26a1.92 1.92 0 01-1.74-1.96h-2a3.92 3.92 0 003.6 3.96l.14-2zm-1.74-1.96c0-1.11.87-1.96 1.86-1.96v-2a3.91 3.91 0 00-3.86 3.96h2zm1.86-1.96c1 0 1.86.85 1.86 1.96h2c0-2.15-1.7-3.96-3.86-3.96v2zm1.86 1.96c0 .4-.12.78-.31 1.09l1.7 1.06c.38-.62.6-1.36.6-2.15h-2zm4.86 4.31l-3.64-3.42-1.37 1.46 3.64 3.42 1.37-1.46zm.13-6.66l-1.79 7.15 1.94.48 1.8-7.15-1.95-.48zm-1.12-2.09a4 4 0 001.46 3.1l1.26-1.55a2 2 0 01-.72-1.55h-2zm3.86-3.96a3.91 3.91 0 00-3.86 3.96h2c0-1.12.87-1.96 1.86-1.96v-2zm3.85 3.96c0-2.15-1.69-3.96-3.85-3.96v2c.99 0 1.85.84 1.85 1.96h2z" fill="#000"/><path d="M154.49 29.29h1v-2.56a3 3 0 00-3-3h-15.56a3 3 0 00-3 3v2.56h20.56z" fill="#5C5C5C" stroke="#000" stroke-width="2"/><path fill-rule="evenodd" clip-rule="evenodd" d="M147.56 231.25a3 3 0 01-1.09 2.33l1.8 7.15 3.88-3.65a3.04 3.04 0 01-.33-1.39 2.91 2.91 0 012.86-2.96 2.91 2.91 0 012.85 2.97 2.91 2.91 0 01-3.04 2.95l-2.67 10.08H137.6l-2.67-10.08a2.92 2.92 0 01-2.67-2.96 2.91 2.91 0 012.86-2.96 2.91 2.91 0 012.86 2.97c0 .59-.17 1.15-.46 1.6l3.63 3.43 1.8-7.15a3 3 0 01-1.1-2.33 2.91 2.91 0 012.86-2.96 2.91 2.91 0 012.85 2.96z" fill="#fff"/><path d="M146.47 233.58l-.63-.78-.49.4.16.62.97-.24zm1.8 7.15l-.98.24.42 1.66 1.24-1.17-.69-.73zm3.88-3.65l.68.72.55-.51-.34-.67-.9.46zm2.34 1.57l.06-1-.82-.05-.2.8.96.25zm-2.67 10.08v1h.77l.2-.74-.97-.26zm-14.22 0l-.97.26.2.74h.77v-1zm-2.67-10.08l.97-.25-.19-.7-.71-.05-.07 1zm2.59-1.34l-.85-.53-.44.7.6.56.69-.73zm3.63 3.42l-.68.73 1.24 1.17.41-1.66-.97-.24zm1.8-7.15l.96.24.16-.61-.5-.4-.63.77zm4.16.77a4 4 0 001.45-3.1h-2a2 2 0 01-.72 1.55l1.27 1.55zm2.12 6.14l-1.78-7.15-1.94.48 1.78 7.15 1.94-.48zm2.23-4.14l-3.88 3.65 1.37 1.46 3.88-3.66-1.37-1.45zm-.64-.66c0 .66.16 1.29.44 1.84l1.78-.9a2.04 2.04 0 01-.22-.94h-2zm3.86-3.96a3.91 3.91 0 00-3.86 3.97h2c0-1.12.87-1.97 1.86-1.97v-2zm3.85 3.97c0-2.16-1.69-3.97-3.85-3.97v2c.99 0 1.85.85 1.85 1.97h2zm-3.85 3.96c2.16 0 3.85-1.81 3.85-3.97h-2c0 1.12-.86 1.97-1.85 1.97v2zm-.26-.01h.26v-2h-.13l-.13 2zm-1.63 9.34l2.66-10.08-1.93-.51-2.67 10.08 1.94.5zm-15.2.74h14.23v-2H137.6v2zm-3.63-10.82l2.67 10.08 1.93-.51-2.66-10.08-1.94.5zm1.04-1.26a1.92 1.92 0 01-1.74-1.96h-2a3.92 3.92 0 003.6 3.96l.14-2zm-1.74-1.96c0-1.11.87-1.96 1.86-1.96v-2a3.91 3.91 0 00-3.86 3.97h2zm1.86-1.96c1 0 1.86.85 1.86 1.97h2c0-2.16-1.7-3.97-3.86-3.97v2zm1.86 1.97c0 .4-.12.77-.31 1.08l1.7 1.06c.38-.62.6-1.36.6-2.15h-2zm4.86 4.3l-3.64-3.42-1.37 1.46 3.64 3.42 1.37-1.46zm.13-6.66l-1.79 7.15 1.94.48 1.8-7.15-1.95-.48zm-1.12-2.09a4 4 0 001.46 3.1l1.26-1.55a2 2 0 01-.72-1.55h-2zm3.86-3.96a3.91 3.91 0 00-3.86 3.96h2c0-1.12.87-1.96 1.86-1.96v-2zm3.85 3.96c0-2.15-1.69-3.96-3.85-3.96v2c.99 0 1.85.84 1.85 1.96h2z" fill="#000"/><path d="M154.49 253.29h1v-2.56a3 3 0 00-3-3h-15.56a3 3 0 00-3 3v2.56h20.56zM268.7 237.06h-.87l-.11.88-1.34 10.67-.14 1.12h12.98l-.2-1.16-1.77-10.67-.14-.84h-8.4z" fill="#fff" stroke="#000" stroke-width="2"/><path d="M265.6 229.95h-1V239.07h16.22V229.94h-3.12l-.24.66-1.18 3.23h-1.03l-.87-3.15-.2-.74H271.24l-.2.74-.87 3.15h-1.03l-1.18-3.23-.24-.66h-2.12zM282.49 253.29h1v-2.56a3 3 0 00-3-3h-15.56a3 3 0 00-3 3v2.56h20.56z" fill="#fff" stroke="#000" stroke-width="2"/><path d="M268.7 13.06h-.87l-.11.88-1.34 10.67-.14 1.12h12.98l-.2-1.16-1.77-10.67-.14-.84h-8.4z" fill="#5C5C5C" stroke="#000" stroke-width="2"/><path d="M265.6 5.95h-1v9.11h16.22v-9.1h-3.12l-.24.65-1.18 3.23h-1.03l-.87-3.15-.2-.74H271.24l-.2.74-.87 3.15h-1.03l-1.18-3.23-.24-.66h-2.12zM282.49 29.29h1v-2.56a3 3 0 00-3-3h-15.56a3 3 0 00-3 3v2.56h20.56z" fill="#5C5C5C" stroke="#000" stroke-width="2"/><path d="M44.7 237.06h-.87l-.11.88-1.34 10.67-.14 1.12h12.98l-.2-1.16-1.77-10.67-.14-.84h-8.4z" fill="#fff" stroke="#000" stroke-width="2"/><path d="M41.6 229.95h-1V239.07h16.22V229.94H53.7l-.24.66-1.18 3.23h-1.03l-.87-3.15-.2-.74H47.23l-.2.74-.86 3.15h-1.03l-1.18-3.23-.24-.66H41.6zM58.49 253.29h1v-2.56a3 3 0 00-3-3H40.93a3 3 0 00-3 3v2.56H58.5z" fill="#fff" stroke="#000" stroke-width="2"/><path d="M44.7 13.06h-.87l-.11.88-1.34 10.67-.14 1.12h12.98l-.2-1.16-1.77-10.67-.14-.84h-8.4z" fill="#5C5C5C" stroke="#000" stroke-width="2"/><path d="M41.6 5.95h-1v9.11h16.22v-9.1H53.7l-.24.65-1.18 3.23h-1.03l-.87-3.15-.2-.74H47.23l-.2.74-.86 3.15h-1.03l-1.18-3.23-.24-.66H41.6zM58.49 29.29h1v-2.56a3 3 0 00-3-3H40.93a3 3 0 00-3 3v2.56H58.5z" fill="#5C5C5C" stroke="#000" stroke-width="2"/></g><defs><clipPath id="clip0"><path fill="#fff" transform="translate(.7 .84)" d="M0 0h320v288H0z"/></clipPath></defs></svg>