<svg xmlns="http://www.w3.org/2000/svg" width="320" height="288" fill="none"><path fill="#FEE6C1" d="M32 0h256v256H32z"/><path fill="#866C4A" d="M32 224h32v32H32v-32zM32 96h32v32H32V96zM32 160h32v32H32v-32zM32 32h32v32H32V32zM64 192h32v32H64v-32zM64 64h32v32H64V64zM64 128h32v32H64v-32zM64 0h32v32H64V0zM160 224h32v32h-32v-32zM160 96h32v32h-32V96zM160 160h32v32h-32v-32zM160 32h32v32h-32V32zM192 192h32v32h-32v-32zM192 64h32v32h-32V64zM192 128h32v32h-32v-32zM192 0h32v32h-32V0zM96 224h32v32H96v-32zM96 96h32v32H96V96zM96 160h32v32H96v-32zM96 32h32v32H96V32zM128 192h32v32h-32v-32zM128 64h32v32h-32V64zM128 128h32v32h-32v-32zM128 0h32v32h-32V0zM224 224h32v32h-32v-32zM224 96h32v32h-32V96zM224 160h32v32h-32v-32zM224 32h32v32h-32V32zM256 192h32v32h-32v-32zM256 64h32v32h-32V64zM256 128h32v32h-32v-32zM256 0h32v32h-32V0z"/></svg>