<svg width="320" height="288" fill="none" xmlns="http://www.w3.org/2000/svg"><path fill="#FEE6C1" d="M32 0h256v256H32z"/><path d="M32 224h32v32H32v-32zM32 96h32v32H32V96zM32 160h32v32H32v-32zM32 32h32v32H32V32zM64 192h32v32H64v-32zM64 64h32v32H64V64zM64 128h32v32H64v-32zM64 0h32v32H64V0zM160 224h32v32h-32v-32zM160 96h32v32h-32V96zM160 160h32v32h-32v-32zM160 32h32v32h-32V32zM192 192h32v32h-32v-32zM192 64h32v32h-32V64zM192 128h32v32h-32v-32zM192 0h32v32h-32V0zM96 224h32v32H96v-32zM96 96h32v32H96V96zM96 160h32v32H96v-32zM96 32h32v32H96V32zM128 192h32v32h-32v-32zM128 64h32v32h-32V64zM128 128h32v32h-32v-32zM128 0h32v32h-32V0zM224 224h32v32h-32v-32zM224 96h32v32h-32V96zM224 160h32v32h-32v-32zM224 32h32v32h-32V32zM256 192h32v32h-32v-32zM256 64h32v32h-32V64zM256 128h32v32h-32v-32zM256 0h32v32h-32V0z" fill="#866C4A"/><path d="M13.42 237.36v-2.54h4.44v11.68H15v-9.14h-1.59zM12.05 212.3a59 59 0 002.96-2.53c.61-.55 1.12-1.13 1.54-1.73.42-.61.62-1.2.62-1.78 0-.44-.1-.78-.3-1.02-.2-.25-.5-.37-.91-.37-.4 0-.73.15-.96.46-.23.3-.34.73-.34 1.28h-2.64c.02-.9.21-1.66.58-2.27.37-.6.86-1.06 1.45-1.34.61-.3 1.28-.44 2.02-.44 1.27 0 2.22.33 2.86.98.65.65.98 1.5.98 2.54 0 1.14-.39 2.2-1.17 3.19-.78.97-1.77 1.92-2.97 2.85h4.32v2.22h-8.04v-2.03zM11.97 174.12a3.51 3.51 0 011.12-2.64c.7-.62 1.66-.93 2.87-.93.8 0 1.48.14 2.04.41a2.95 2.95 0 011.75 2.76c0 .7-.18 1.28-.53 1.72a2.7 2.7 0 01-1.23.9v.06c.6.2 1.09.54 1.44 1.01.35.47.53 1.07.53 1.81 0 .66-.16 1.25-.47 1.76-.3.5-.74.9-1.33 1.18-.57.3-1.26.44-2.06.44a4.7 4.7 0 01-3.07-.95c-.76-.63-1.16-1.58-1.2-2.85h2.65c.01.47.15.85.4 1.12.26.27.63.4 1.12.4.42 0 .74-.11.96-.35.24-.24.36-.56.36-.96 0-.51-.17-.88-.5-1.1-.32-.24-.84-.35-1.55-.35h-.51v-2.23h.5c.55 0 .99-.09 1.32-.27.34-.2.51-.53.51-1 0-.4-.1-.7-.32-.9a1.2 1.2 0 00-.88-.32c-.4 0-.7.12-.91.36-.2.25-.3.55-.34.92h-2.67zM11.37 148.42v-2.2l5.06-7.24h3.05v7.07h1.31v2.37h-1.3v2.08h-2.74v-2.08h-5.38zm5.57-6.43l-2.69 4.06h2.69V142zM19.74 108.2h-5v2.21c.22-.23.52-.42.9-.57.39-.15.8-.23 1.25-.23.8 0 1.46.18 1.99.55.53.36.92.83 1.16 1.4.25.58.37 1.2.37 1.88 0 1.24-.35 2.24-1.05 2.97-.7.73-1.7 1.09-2.98 1.09a5.3 5.3 0 01-2.22-.43c-.63-.3-1.12-.71-1.46-1.23a3.54 3.54 0 01-.56-1.81h2.67c.07.33.22.6.47.83.24.21.58.32 1 .32.5 0 .88-.16 1.12-.48.25-.32.37-.75.37-1.28 0-.52-.13-.92-.38-1.2-.26-.28-.63-.42-1.12-.42-.36 0-.66.1-.9.28-.23.17-.39.4-.46.68h-2.64v-6.96h7.47v2.4zM17.4 76.97a1.6 1.6 0 00-.45-.88c-.2-.2-.51-.3-.9-.3-.62 0-1.05.26-1.32.8-.27.52-.4 1.35-.42 2.5a2.4 2.4 0 011.01-.89c.45-.2.94-.32 1.47-.32a3.3 3.3 0 012.52 1c.64.66.96 1.58.96 2.76 0 .78-.16 1.47-.48 2.05a3.3 3.3 0 01-1.38 1.38c-.6.33-1.3.5-2.13.5-1.64 0-2.78-.52-3.42-1.54-.64-1.04-.96-2.52-.96-4.45 0-2.03.33-3.53 1-4.51.69-1 1.78-1.49 3.27-1.49.8 0 1.47.16 2.02.48.55.3.97.72 1.24 1.23.3.51.46 1.07.52 1.68H17.4zm-1.26 3.07c-.46 0-.84.14-1.15.42-.3.27-.45.65-.45 1.15 0 .51.14.91.41 1.2.3.29.7.43 1.22.43.47 0 .84-.13 1.1-.41.28-.29.42-.68.42-1.17 0-.5-.13-.9-.4-1.18-.27-.3-.65-.44-1.15-.44zM19.9 43.87l-4.02 9.63h-2.8l4.06-9.33h-4.97v-2.33h7.72v2.03zM13.45 16.23c-1-.54-1.5-1.37-1.5-2.51a2.86 2.86 0 011.8-2.7c.61-.3 1.36-.44 2.25-.44.88 0 1.62.14 2.22.43.6.28 1.06.66 1.36 1.14.3.47.45.99.45 1.57a2.7 2.7 0 01-.42 1.5c-.26.43-.63.76-1.09 1a3.06 3.06 0 011.8 2.85 3.37 3.37 0 01-2.15 3.22c-.65.29-1.37.43-2.17.43-.8 0-1.53-.14-2.2-.43a3.37 3.37 0 01-2.13-3.22 3.04 3.04 0 011.78-2.85zm3.92-2.1c0-.44-.13-.77-.38-1a1.34 1.34 0 00-1-.37c-.4 0-.75.12-1 .36-.25.25-.37.6-.37 1.03 0 .41.13.74.38.99.26.23.6.35 1 .35s.73-.12.99-.37c.25-.24.38-.57.38-.99zM16 17.41c-.5 0-.91.14-1.22.42-.3.26-.46.64-.46 1.12 0 .45.15.81.44 1.1.31.29.72.43 1.24.43.5 0 .9-.14 1.2-.43.3-.29.44-.65.44-1.1 0-.47-.15-.84-.46-1.12-.3-.28-.7-.42-1.18-.42zM273.09 268.98c1.02 0 1.85.34 2.46 1.02.62.67.93 1.6.93 2.78V278h-2.72v-4.85c0-.6-.15-1.06-.46-1.39-.31-.33-.73-.5-1.25-.5s-.94.17-1.25.5c-.3.33-.46.8-.46 1.4V278h-2.74v-11.84h2.74v4.11c.28-.4.65-.7 1.13-.94a3.63 3.63 0 011.62-.35zM238.95 268.94c.63 0 1.18.13 1.65.39.48.25.85.59 1.1 1v-1.26h2.74v8.91a4.9 4.9 0 01-.5 2.23c-.31.67-.81 1.2-1.48 1.6-.66.4-1.49.59-2.48.59-1.32 0-2.4-.31-3.22-.94a3.51 3.51 0 01-1.4-2.53h2.7c.08.34.29.6.6.8.33.2.72.3 1.19.3.57 0 1.01-.16 1.34-.5.35-.31.52-.83.52-1.55v-1.26a3.1 3.1 0 01-2.76 1.4 3.7 3.7 0 01-3.42-2.17 5.51 5.51 0 01-.51-2.43c0-.92.17-1.72.51-2.42a3.7 3.7 0 013.42-2.16zm2.76 4.6c0-.69-.2-1.23-.58-1.62-.37-.4-.83-.6-1.38-.6-.54 0-1 .2-1.39.6a2.2 2.2 0 00-.56 1.6c0 .68.19 1.23.56 1.63.39.4.85.6 1.4.6.54 0 1-.2 1.37-.6.38-.4.58-.93.58-1.61zM210.59 271.34h-1.47V278h-2.74v-6.66h-1v-2.27h1v-.25c0-1.1.32-1.94.94-2.5.64-.58 1.56-.86 2.77-.86l.45.01v2.32c-.52-.03-.89.04-1.1.23-.22.18-.32.5-.32.97v.08h1.47v2.27zM180.48 273.4c0 .25-.02.52-.05.8h-6.2c.05.55.23.97.54 1.27.32.29.7.43 1.16.43.69 0 1.16-.28 1.43-.86h2.91a3.93 3.93 0 01-.82 1.58c-.38.47-.86.84-1.45 1.1a4.7 4.7 0 01-1.97.4 4.8 4.8 0 01-2.34-.55 3.99 3.99 0 01-1.6-1.6c-.38-.7-.57-1.5-.57-2.43 0-.93.19-1.74.56-2.44.38-.69.92-1.22 1.6-1.6a4.83 4.83 0 012.35-.56c.86 0 1.63.19 2.3.55.68.36 1.2.88 1.57 1.55.39.67.58 1.46.58 2.35zm-2.8-.73c0-.47-.16-.84-.48-1.12a1.77 1.77 0 00-1.2-.41c-.46 0-.85.13-1.17.4-.3.26-.5.64-.58 1.13h3.43zM139.02 273.52c0-.92.17-1.72.51-2.42a3.7 3.7 0 015.02-1.8c.5.26.88.59 1.16 1v-4.14h2.73V278h-2.73v-1.28c-.26.43-.63.77-1.1 1.02-.48.26-1.03.39-1.66.39a3.7 3.7 0 01-3.42-2.18 5.51 5.51 0 01-.51-2.43zm6.69.02c0-.69-.2-1.23-.58-1.62-.37-.4-.83-.6-1.38-.6-.54 0-1 .2-1.39.6a2.2 2.2 0 00-.56 1.6c0 .68.19 1.23.56 1.63.39.4.85.6 1.4.6.54 0 1-.2 1.37-.6.38-.4.58-.93.58-1.61zM107.6 273.54c0-.93.2-1.74.56-2.44.39-.69.92-1.22 1.59-1.6a4.8 4.8 0 012.33-.56c1.12 0 2.06.3 2.8.88a4.13 4.13 0 011.5 2.48h-2.92c-.24-.68-.72-1.02-1.42-1.02-.5 0-.9.2-1.2.6-.3.38-.45.93-.45 1.66 0 .72.15 1.28.45 1.68.3.38.7.57 1.2.57.7 0 1.17-.34 1.42-1.02h2.91a4.18 4.18 0 01-1.49 2.46c-.75.6-1.69.9-2.8.9a4.8 4.8 0 01-2.33-.56c-.67-.38-1.2-.9-1.59-1.6-.37-.7-.56-1.5-.56-2.43zM78.3 270.34c.25-.42.62-.76 1.1-1.01a3.45 3.45 0 011.65-.39 3.7 3.7 0 013.4 2.16c.36.7.54 1.5.54 2.42 0 .92-.18 1.73-.53 2.43a3.7 3.7 0 01-3.4 2.18c-.64 0-1.19-.13-1.66-.37-.47-.26-.84-.6-1.1-1V278h-2.74v-11.84h2.74v4.18zm3.9 3.18c0-.68-.19-1.22-.57-1.6-.38-.4-.84-.6-1.4-.6-.54 0-1 .2-1.39.6-.37.4-.56.93-.56 1.62 0 .68.19 1.22.56 1.61.39.4.85.6 1.4.6.54 0 1-.2 1.39-.6.38-.4.57-.95.57-1.63zM43.02 273.52c0-.92.17-1.72.51-2.42a3.7 3.7 0 013.42-2.16c.63 0 1.18.13 1.65.39.48.25.85.59 1.1 1v-1.26h2.74V278h-2.73v-1.26c-.27.41-.64.75-1.12 1-.47.26-1.02.39-1.65.39a3.67 3.67 0 01-3.41-2.18 5.51 5.51 0 01-.51-2.43zm6.69.02c0-.69-.2-1.23-.58-1.62-.37-.4-.83-.6-1.38-.6-.54 0-1 .2-1.39.6a2.2 2.2 0 00-.56 1.6c0 .68.19 1.23.56 1.63.39.4.85.6 1.4.6.54 0 1-.2 1.37-.6.38-.4.58-.93.58-1.61z" fill="#000"/><path fill="#E94E58" fill-opacity=".75" d="M224 32h32v32h-32z"/><mask id="a" maskUnits="userSpaceOnUse" x="233.67" y="41.44" width="12" height="18" fill="#000"><path fill="#fff" d="M233.67 41.44h12v18h-12z"/><path fill-rule="evenodd" clip-rule="evenodd" d="M241.17 50.36a3.56 3.56 0 10-2.32 0c.02 2.85-1.49 6.42-4.18 6.42h10.66c-2.69 0-4.18-3.59-4.16-6.42z"/></mask><path fill-rule="evenodd" clip-rule="evenodd" d="M241.17 50.36a3.56 3.56 0 10-2.32 0c.02 2.85-1.49 6.42-4.18 6.42h10.66c-2.69 0-4.18-3.59-4.16-6.42z" fill="#5C5C5C"/><path d="M241.17 50.36l-.66-1.89-1.33.46-.01 1.42h2zm-2.32 0l2-.01-.02-1.42-1.34-.46-.65 1.9zm2.7-3.36c0 .68-.43 1.26-1.04 1.47l1.31 3.78a5.56 5.56 0 003.74-5.25h-4zM240 45.44c.86 0 1.56.7 1.56 1.56h4a5.56 5.56 0 00-5.56-5.56v4zM238.44 47c0-.86.7-1.56 1.56-1.56v-4a5.56 5.56 0 00-5.56 5.56h4zm1.05 1.47a1.56 1.56 0 01-1.05-1.47h-4c0 2.44 1.58 4.5 3.76 5.26l1.3-3.79zm-4.82 10.3c2.35 0 3.95-1.57 4.84-3.14.91-1.59 1.35-3.55 1.34-5.28l-4 .03a6.83 6.83 0 01-.81 3.27c-.53.92-1.03 1.13-1.37 1.13v4zm10.66-4h-10.66v4h10.66v-4zm-6.16-4.42c-.01 1.72.43 3.68 1.32 5.27.9 1.57 2.48 3.16 4.84 3.16v-4c-.33 0-.83-.2-1.35-1.13a6.95 6.95 0 01-.81-3.28l-4-.02z" fill="#000" mask="url(#a)"/><path d="M247.11 60.44h1V58.78a3 3 0 00-3-3H234.9a3 3 0 00-3 3V60.44h15.22z" fill="#5C5C5C" stroke="#000" stroke-width="2"/><path fill="#E94E58" fill-opacity=".75" d="M224 0h32v32h-32zM256 32h32v32h-32z"/><path d="M211.78 56h.54l.3-.45-.84-.55.84.55h0v-.02l.03-.04a9.19 9.19 0 00.44-.7c.29-.48.68-1.17 1.1-1.98a28.51 28.51 0 002.39-6.06c.54-2.2.7-4.64-.4-6.57-1.16-2.02-3.49-3.15-7.14-3.16h-.02a.4.4 0 01-.13-.06c-.03-.01-.2-.11-.2-.63v-1h-1c-.51 0-.95.28-1.19.46-.28.2-.56.46-.78.69a11.87 11.87 0 00-.72.81l-2.6 1.9-.15.12-.1.16-2.72 4.41-.25.4.15.44 1 3.04.41 1.28 1.11-.78 2.31-1.62 1.7-1.14c.87.32 1.24.68 1.4.88l.06.1c0 .03-.02.06-.04.1a16.53 16.53 0 01-3.54 4.57 3.17 3.17 0 00-.67 3.95l.24.41.29.49h8.18z" fill="#fff" stroke="#000" stroke-width="2"/><path d="M217.78 60.44h1V57.9a3 3 0 00-3-3h-15.56a3 3 0 00-3 3v2.55h20.56z" fill="#fff" stroke="#000" stroke-width="2"/><path d="M203.56 40.78l.88-.45v.34a1 1 0 01-1 1h-.33l.45-.9z" fill="#000"/><path d="M236 12.22h-.88l-.11.88-1.34 10.66-.14 1.13h12.98l-.2-1.17-1.77-10.66-.14-.84H236z" fill="#5C5C5C" stroke="#000" stroke-width="2"/><path d="M232.89 5.11h-1v9.11h16.22v-9.1H245l-.24.65L243.57 9h-1.03l-.86-3.15-.2-.74h-2.95l-.2.74-.87 3.15h-1.03l-1.18-3.23-.24-.66h-2.12zM249.78 28.44h1V25.9a3 3 0 00-3-3h-15.56a3 3 0 00-3 3v2.55h20.56z" fill="#5C5C5C" stroke="#000" stroke-width="2"/><mask id="b" maskUnits="userSpaceOnUse" x="265.67" y="41.44" width="12" height="18" fill="#000"><path fill="#fff" d="M265.67 41.44h12v18h-12z"/><path fill-rule="evenodd" clip-rule="evenodd" d="M273.17 50.36a3.56 3.56 0 10-2.32 0c.02 2.85-1.49 6.42-4.18 6.42h10.66c-2.69 0-4.18-3.59-4.16-6.42z"/></mask><path fill-rule="evenodd" clip-rule="evenodd" d="M273.17 50.36a3.56 3.56 0 10-2.32 0c.02 2.85-1.49 6.42-4.18 6.42h10.66c-2.69 0-4.18-3.59-4.16-6.42z" fill="#5C5C5C"/><path d="M273.17 50.36l-.66-1.89-1.33.46-.01 1.42h2zm-2.32 0l2-.01-.02-1.42-1.34-.46-.64 1.9zm2.7-3.36c0 .68-.43 1.26-1.04 1.47l1.31 3.78a5.56 5.56 0 003.74-5.25h-4zM272 45.44c.86 0 1.56.7 1.56 1.56h4a5.56 5.56 0 00-5.56-5.56v4zM270.44 47c0-.86.7-1.56 1.56-1.56v-4a5.56 5.56 0 00-5.56 5.56h4zm1.05 1.47a1.56 1.56 0 01-1.05-1.47h-4c0 2.44 1.58 4.5 3.76 5.26l1.3-3.79zm-4.82 10.3c2.35 0 3.95-1.57 4.84-3.14.91-1.59 1.35-3.55 1.34-5.28l-4 .03a6.83 6.83 0 01-.81 3.27c-.53.92-1.03 1.13-1.37 1.13v4zm10.66-4h-10.66v4h10.66v-4zm-6.16-4.42c-.01 1.72.43 3.68 1.32 5.27.9 1.57 2.48 3.16 4.84 3.16v-4c-.33 0-.83-.2-1.35-1.13a6.95 6.95 0 01-.81-3.28l-4-.02z" fill="#000" mask="url(#b)"/><path d="M279.11 60.44h1V58.78a3 3 0 00-3-3H266.9a3 3 0 00-3 3V60.44h15.22z" fill="#5C5C5C" stroke="#000" stroke-width="2"/><mask id="c" maskUnits="userSpaceOnUse" x="258.84" y=".56" width="26" height="26" fill="#000"><path fill="#fff" d="M258.84.56h26v26h-26z"/><path fill-rule="evenodd" clip-rule="evenodd" d="M279.11 23.89l2.93-7.99a2 2 0 00-1.02-2.5c-3.56-1.67-5.71-2.61-8.1-2.8V7h2.8V5.22h-2.8V2.56h-1.85v2.66h-2.78V7h2.78v3.6c-2.38.19-4.53 1.13-8.09 2.8a2 2 0 00-1.02 2.5l2.93 7.99h14.22zm-8.89-10.72c-1.12.2-2.39.56-4.04 1.1a1.99 1.99 0 00-1.15 2.78l1.64 3.28h3.55v-7.16zm7.6 1.1a29.4 29.4 0 00-4.04-1.1v7.16h3.55l1.64-3.28c.54-1.08 0-2.4-1.15-2.78z"/></mask><path fill-rule="evenodd" clip-rule="evenodd" d="M279.11 23.89l2.93-7.99a2 2 0 00-1.02-2.5c-3.56-1.67-5.71-2.61-8.1-2.8V7h2.8V5.22h-2.8V2.56h-1.85v2.66h-2.78V7h2.78v3.6c-2.38.19-4.53 1.13-8.09 2.8a2 2 0 00-1.02 2.5l2.93 7.99h14.22zm-8.89-10.72c-1.12.2-2.39.56-4.04 1.1a1.99 1.99 0 00-1.15 2.78l1.64 3.28h3.55v-7.16zm7.6 1.1a29.4 29.4 0 00-4.04-1.1v7.16h3.55l1.64-3.28c.54-1.08 0-2.4-1.15-2.78z" fill="#5C5C5C"/><path d="M271.15 11.59c.57-.05 1.13-.05 1.7 0l.16-2c-.68-.05-1.34-.05-2.02 0l.16 2zm10.89 4.31l1.88.7-1.88-.7zm-2.93 7.99v2h1.4l.48-1.31-1.88-.7zm1.9-10.48l.86-1.8-.85 1.8zm-8.08-2.82h-2v1.85l1.83.15.17-2zm0-3.59V5h-2v2h2zm2.78 0v2h2V7h-2zm0-1.78h2v-2h-2v2zm-2.78 0h-2v2h2v-2zm0-2.66h2v-2h-2v2zm-1.86 0v-2h-2v2h2zm0 2.66v2h2v-2h-2zm-2.78 0v-2h-2v2h2zm0 1.78h-2v2h2V7zm2.78 0h2V5h-2v2zm0 3.6l.16 1.99 1.84-.15v-1.85h-2zm-8.09 2.8l.86 1.82-.86-1.81zm-1.02 2.5l1.88-.68-1.88.68zm2.93 7.99l-1.88.69.48 1.3h1.4v-2zm1.29-9.62l-.62-1.9.62 1.9zm4.04-1.1h2V10.8l-2.34.4.34 1.97zm-5.2 3.88l1.8-.9-1.8.9zm1.65 3.28l-1.8.9.56 1.1h1.24v-2zm3.55 0v2h2v-2h-2zm3.56-7.16l.34-1.97-2.34-.4v2.37h2zm4.04 1.1l.62-1.9-.62 1.9zm-4.04 6.06h-2v2h2v-2zm3.55 0v2h1.24l.55-1.1-1.79-.9zm1.64-3.28l1.8.9-1.8-.9zm1.19-1.83l-2.93 7.98 3.76 1.38 2.93-7.99-3.76-1.37zm0 0l3.76 1.37a4 4 0 00-2.05-4.99l-1.7 3.62zm-7.4-2.63c1.96.16 3.8.92 7.4 2.63l1.71-3.62c-3.5-1.66-5.98-2.77-8.78-3l-.33 3.99zM270.93 7v3.6h4V7h-4zm4.78-2h-2.78v4h2.78V5zm-2 .22V7h4V5.22h-4zm-.78 2h2.78v-4h-2.78v4zm-2-4.66v2.66h4V2.56h-4zm.14 2h1.86v-4h-1.86v4zm2 .66V2.56h-4v2.66h4zm-4.78 2h2.78v-4h-2.78v4zm2-.22V5.22h-4V7h4zm.78-2h-2.78v4h2.78V5zm2 5.6V7h-4v3.6h4zm-9.23 4.62c3.6-1.71 5.44-2.47 7.4-2.63l-.33-3.99c-2.8.23-5.28 1.34-8.79 3l1.72 3.62zm0 0l-1.71-3.62a4 4 0 00-2.05 5l3.76-1.38zm2.93 7.98l-2.93-7.98-3.76 1.37 2.93 7.99 3.76-1.38zm12.34-1.31h-14.22v4h14.22v-4zm-12.31-5.72c1.64-.54 2.79-.86 3.76-1.03l-.68-3.94c-1.27.22-2.66.62-4.32 1.17l1.24 3.8zm.01-.01a.04.04 0 01-.01.01l-1.24-3.8a3.99 3.99 0 00-2.32 5.58l3.57-1.8zm1.64 3.28l-1.64-3.28-3.57 1.79 1.64 3.28 3.57-1.8zm1.77-1.1h-3.55v4h3.55v-4zm-2-5.17v7.16h4v-7.16h-4zm5.22 1.97c.97.17 2.11.5 3.76 1.03l1.24-3.8a31.3 31.3 0 00-4.32-1.17l-.68 3.94zm2.34 5.2v-7.17h-4v7.16h4zm1.55-2h-3.55v4h3.55v-4zm-.15-2.18l-1.64 3.28 3.58 1.79 1.64-3.28-3.58-1.8zm.02.01h-.01c0-.01 0-.01 0 0v-.01l3.57 1.79a3.99 3.99 0 00-2.32-5.58l-1.24 3.8z" fill="#000" mask="url(#c)"/><path d="M281.78 28.44h1V25.9a3 3 0 00-3-3h-15.56a3 3 0 00-3 3v2.55h20.56z" fill="#5C5C5C" stroke="#000" stroke-width="2"/><mask id="d" maskUnits="userSpaceOnUse" x="226.84" y="224.56" width="26" height="26" fill="#000"><path fill="#fff" d="M226.84 224.56h26v26h-26z"/><path fill-rule="evenodd" clip-rule="evenodd" d="M247.11 247.89l2.93-7.98a2 2 0 00-1.02-2.5c-3.56-1.68-5.71-2.62-8.1-2.82V231h2.8v-1.78h-2.8v-2.66h-1.85v2.66h-2.78V231h2.78v3.6c-2.38.19-4.53 1.13-8.09 2.8a2 2 0 00-1.02 2.5l2.93 7.99h14.22zm-8.89-10.72c-1.12.2-2.38.56-4.04 1.1a1.99 1.99 0 00-1.15 2.78l1.64 3.28h3.55v-7.16zm7.6 1.1a29.5 29.5 0 00-4.04-1.1v7.16h3.55l1.64-3.28c.54-1.08 0-2.4-1.15-2.78z"/></mask><path fill-rule="evenodd" clip-rule="evenodd" d="M247.11 247.89l2.93-7.98a2 2 0 00-1.02-2.5c-3.56-1.68-5.71-2.62-8.1-2.82V231h2.8v-1.78h-2.8v-2.66h-1.85v2.66h-2.78V231h2.78v3.6c-2.38.19-4.53 1.13-8.09 2.8a2 2 0 00-1.02 2.5l2.93 7.99h14.22zm-8.89-10.72c-1.12.2-2.38.56-4.04 1.1a1.99 1.99 0 00-1.15 2.78l1.64 3.28h3.55v-7.16zm7.6 1.1a29.5 29.5 0 00-4.04-1.1v7.16h3.55l1.64-3.28c.54-1.08 0-2.4-1.15-2.78z" fill="#fff"/><path d="M239.15 235.59a10.4 10.4 0 011.7 0l.16-2c-.68-.05-1.34-.05-2.02 0l.16 2zm10.89 4.31l1.88.7-1.88-.7zm-2.93 7.99v2h1.4l.48-1.31-1.88-.7zm1.9-10.48l.86-1.8-.85 1.8zm-8.08-2.82h-2v1.85l1.83.15.17-2zm0-3.59v-2h-2v2h2zm2.78 0v2h2v-2h-2zm0-1.78h2v-2h-2v2zm-2.78 0h-2v2h2v-2zm0-2.66h2v-2h-2v2zm-1.86 0v-2h-2v2h2zm0 2.66v2h2v-2h-2zm-2.78 0v-2h-2v2h2zm0 1.78h-2v2h2v-2zm2.78 0h2v-2h-2v2zm0 3.6l.16 1.99 1.84-.15v-1.85h-2zm-8.09 2.8l.86 1.82-.86-1.81zm-1.02 2.5l1.88-.68-1.88.69zm2.93 7.99l-1.88.69.48 1.3h1.4v-2zm1.29-9.62l-.62-1.9.62 1.9zm4.04-1.1h2v-2.37l-2.34.4.34 1.97zm-5.2 3.88l1.8-.9-1.8.9zm1.65 3.28l-1.8.9.56 1.1h1.24v-2zm3.55 0v2h2v-2h-2zm3.56-7.16l.34-1.97-2.34-.4v2.37h2zm4.04 1.1l-.62 1.9.62-1.9zm-4.04 6.06h-2v2h2v-2zm3.55 0v2h1.24l.55-1.1-1.79-.9zm1.64-3.28l1.8.9-1.8-.9zm1.19-1.83l-2.93 7.98 3.76 1.38 2.93-7.99-3.76-1.37zm0 0l3.76 1.37a4 4 0 00-2.05-4.99l-1.7 3.62zm-7.4-2.63c1.96.16 3.8.92 7.4 2.63l1.71-3.62c-3.5-1.66-5.98-2.77-8.78-3l-.33 3.99zm-1.83-5.59v3.6h4V231h-4zm4.78-2h-2.78v4h2.78v-4zm-2 .22V231h4v-1.78h-4zm-.78 2h2.78v-4h-2.78v4zm-2-4.66v2.66h4v-2.66h-4zm.14 2h1.86v-4h-1.86v4zm2 .66v-2.66h-4v2.66h4zm-4.78 2h2.78v-4h-2.78v4zm2-.22v-1.78h-4V231h4zm.78-2h-2.78v4h2.78v-4zm2 5.6V231h-4v3.6h4zm-9.23 4.62c3.6-1.71 5.44-2.47 7.4-2.63l-.33-3.99c-2.8.23-5.28 1.34-8.78 3l1.7 3.62zm0 0l-1.72-3.62a4 4 0 00-2.04 5l3.76-1.38zm2.93 7.98l-2.93-7.98-3.76 1.37 2.93 7.99 3.76-1.38zm12.34-1.31h-14.22v4h14.22v-4zm-12.31-5.72a27.6 27.6 0 013.76-1.03l-.68-3.94c-1.27.22-2.66.63-4.32 1.17l1.24 3.8zm.01-.01v.01h-.01l-1.24-3.8a3.99 3.99 0 00-2.32 5.58l3.57-1.8zm1.65 3.28l-1.65-3.28-3.57 1.79 1.64 3.28 3.58-1.8zm1.76-1.1h-3.55v4h3.55v-4zm-2-5.17v7.16h4v-7.16h-4zm5.22 1.97c.97.17 2.11.5 3.76 1.03l1.24-3.8a31.28 31.28 0 00-4.32-1.17l-.68 3.94zm2.34 5.2v-7.17h-4v7.16h4zm1.55-2h-3.55v4h3.55v-4zm-.15-2.18l-1.64 3.28 3.58 1.79 1.64-3.28-3.58-1.8zm.02.01h-.01c0-.01 0-.01 0 0v-.01l3.57 1.79a3.99 3.99 0 00-2.32-5.58l-1.24 3.8z" fill="#000" mask="url(#d)"/><path d="M249.78 252.44h1v-2.55a3 3 0 00-3-3h-15.56a3 3 0 00-3 3v2.55h20.56z" fill="#fff" stroke="#000" stroke-width="2"/></svg>