<svg width="320" height="288" fill="none" xmlns="http://www.w3.org/2000/svg"><path fill="#FEE6C1" d="M32 0h256v256H32z"/><path d="M32 224h32v32H32v-32zM32 96h32v32H32V96zM32 160h32v32H32v-32zM32 32h32v32H32V32zM64 192h32v32H64v-32zM64 64h32v32H64V64zM64 128h32v32H64v-32zM64 0h32v32H64V0zM160 224h32v32h-32v-32zM160 96h32v32h-32V96zM160 160h32v32h-32v-32zM160 32h32v32h-32V32zM192 192h32v32h-32v-32zM192 64h32v32h-32V64zM192 128h32v32h-32v-32zM192 0h32v32h-32V0zM96 224h32v32H96v-32zM96 96h32v32H96V96zM96 160h32v32H96v-32zM96 32h32v32H96V32zM128 192h32v32h-32v-32zM128 64h32v32h-32V64zM128 128h32v32h-32v-32zM128 0h32v32h-32V0zM224 224h32v32h-32v-32zM224 96h32v32h-32V96zM224 160h32v32h-32v-32zM224 32h32v32h-32V32zM256 192h32v32h-32v-32zM256 64h32v32h-32V64zM256 128h32v32h-32v-32zM256 0h32v32h-32V0z" fill="#866C4A"/><path d="M13.4 237.4v-2.6H18v11.7H15v-9.1h-1.6zM12 212.3l.5-.4a59 59 0 004-3.9c.5-.6.7-1.2.7-1.7s-.1-.8-.3-1c-.2-.3-.5-.4-1-.4-.3 0-.7.1-.9.4-.2.3-.3.8-.3 1.3H12c0-.9.2-1.7.6-2.3.4-.6.9-1 1.5-1.3.6-.3 1.2-.4 2-.4 1.2 0 2.2.3 2.8 1 .7.6 1 1.4 1 2.5a5 5 0 01-1.2 3.2c-.7 1-1.7 1.9-3 2.8h4.4v2.2h-8v-2zM12 174.1c0-1.1.4-2 1-2.6.8-.6 1.8-1 3-1 .8 0 1.4.2 2 .5a3 3 0 011.7 2.7c0 .7-.1 1.3-.5 1.7-.3.5-.7.8-1.2 1 .6.2 1 .5 1.4 1 .4.5.6 1 .6 1.8 0 .7-.2 1.3-.5 1.8a3 3 0 01-1.3 1.2c-.6.3-1.3.4-2.1.4-1.3 0-2.3-.3-3-1-.8-.6-1.2-1.5-1.3-2.8h2.7c0 .5.1.8.4 1.1.2.3.6.4 1.1.4.4 0 .7 0 1-.3.2-.3.3-.6.3-1 0-.5-.1-.9-.5-1-.3-.3-.8-.4-1.5-.4h-.5v-2.3h.5c.5 0 1 0 1.3-.2.3-.2.5-.6.5-1s-.1-.7-.3-1c-.2-.2-.5-.3-1-.3-.3 0-.6.2-.8.4-.2.2-.3.6-.4 1H12zM11.4 148.4v-2.2l5-7.2h3v7h1.4v2.4h-1.3v2.1h-2.8v-2h-5.3zm5.5-6.4l-2.7 4H17v-4zM19.7 108.2h-5v2.2l1-.6 1.2-.2c.8 0 1.5.2 2 .6.5.3.9.8 1.1 1.4.3.5.4 1.2.4 1.8 0 1.3-.3 2.3-1 3a4 4 0 01-3 1.1c-.9 0-1.6-.1-2.2-.4-.7-.3-1.2-.7-1.5-1.3-.3-.5-.5-1-.6-1.8h2.7c0 .4.2.6.5.9.2.2.6.3 1 .3.5 0 .9-.2 1.1-.5.3-.3.4-.7.4-1.3 0-.5-.2-.9-.4-1.2-.3-.3-.6-.4-1.1-.4-.4 0-.7 0-1 .3-.2.1-.3.4-.4.7h-2.6v-7h7.4v2.4zM17.4 77c0-.4-.2-.7-.4-1l-1-.2c-.6 0-1 .3-1.3.8a6 6 0 00-.4 2.5c.2-.4.6-.7 1-.9l1.5-.3c1 0 1.9.3 2.5 1 .6.6 1 1.6 1 2.7 0 .8-.2 1.5-.5 2-.3.7-.8 1.1-1.4 1.5-.6.3-1.3.5-2.1.5-1.7 0-2.8-.5-3.4-1.6-.7-1-1-2.5-1-4.4a8 8 0 011-4.5c.7-1 1.8-1.5 3.3-1.5a4 4 0 012 .5c.5.3 1 .7 1.2 1.2.3.5.5 1 .5 1.7h-2.5zm-1.3 3c-.4 0-.8.2-1.1.5-.3.2-.5.6-.5 1.1 0 .5.2 1 .5 1.2.2.3.6.4 1.2.4.4 0 .8 0 1-.4.4-.3.5-.6.5-1.1 0-.5-.1-1-.4-1.2-.3-.3-.7-.5-1.2-.5zM19.9 43.9l-4 9.6H13l4-9.3h-5v-2.4H20v2zM13.5 16.2c-1-.5-1.6-1.3-1.6-2.5a2.9 2.9 0 011.9-2.7c.6-.3 1.3-.4 2.2-.4.9 0 1.6.1 2.2.4.6.3 1 .7 1.4 1.1.3.5.4 1 .4 1.6 0 .6-.1 1-.4 1.5-.3.4-.6.8-1 1 .5.3 1 .7 1.3 1.2.3.5.4 1 .4 1.7a3.4 3.4 0 01-2.1 3.2c-.7.3-1.4.4-2.2.4-.8 0-1.5-.1-2.2-.4-.6-.3-1.2-.7-1.5-1.3-.4-.5-.6-1.2-.6-2 0-.6.1-1.2.4-1.6a3 3 0 011.4-1.2zm3.9-2c0-.5-.2-.8-.4-1-.3-.3-.6-.4-1-.4s-.8 0-1 .3c-.3.3-.4.6-.4 1 0 .5.1.8.4 1 .3.3.6.4 1 .4s.7-.1 1-.4c.2-.2.4-.6.4-1zM16 17.3c-.5 0-1 .2-1.2.4-.3.3-.5.7-.5 1.1 0 .5.2.9.5 1.2.3.2.7.4 1.2.4s1-.2 1.2-.4c.3-.3.4-.7.4-1.2 0-.4-.1-.8-.4-1-.3-.3-.7-.5-1.2-.5zM273 269c1.1 0 2 .3 2.6 1a4 4 0 01.9 2.8v5.2h-2.7v-4.8c0-.6-.2-1.1-.5-1.4-.3-.4-.7-.5-1.3-.5-.5 0-.9.1-1.2.5a2 2 0 00-.5 1.4v4.8h-2.7v-11.8h2.7v4a3 3 0 011.2-.9c.5-.2 1-.3 1.6-.3zM239 269a2.8 2.8 0 012.8 1.4V269h2.6v8.9c0 .8-.1 1.5-.5 2.2-.3.7-.8 1.2-1.4 1.6-.7.4-1.5.6-2.5.6-1.3 0-2.4-.3-3.2-1a3.5 3.5 0 01-1.4-2.5h2.7c0 .4.2.6.6.8.3.2.7.3 1.2.3s1-.1 1.3-.5c.3-.3.5-.8.5-1.5v-1.3a3 3 0 01-2.7 1.4 3.7 3.7 0 01-3.5-2.1c-.3-.8-.5-1.6-.5-2.5 0-.9.2-1.7.5-2.4a3.7 3.7 0 013.4-2.2zm2.7 4.5c0-.6-.2-1.2-.6-1.6-.3-.4-.8-.6-1.3-.6-.6 0-1 .2-1.4.6-.4.4-.6 1-.6 1.6 0 .7.2 1.2.6 1.7.3.3.8.5 1.4.5.5 0 1-.2 1.3-.5.4-.4.6-1 .6-1.7zM210.6 271.3H209v6.7h-2.7v-6.7h-1v-2.2h1v-.3c0-1 .3-2 1-2.5.6-.6 1.5-.8 2.7-.8h.4v2.3c-.5 0-.8 0-1 .2-.3.2-.4.5-.4 1h1.5v2.3zM180.5 273.4v.8h-6.3c0 .5.3 1 .6 1.3.3.3.7.4 1.1.4.7 0 1.2-.3 1.5-.9h2.9a4 4 0 01-.8 1.6 4 4 0 01-1.5 1.1c-.6.3-1.2.4-2 .4s-1.6-.2-2.3-.5a4 4 0 01-1.6-1.6 5 5 0 01-.6-2.5c0-.9.2-1.7.6-2.4a4 4 0 011.6-1.6c.7-.4 1.4-.6 2.3-.6.9 0 1.7.2 2.3.6.7.4 1.2.9 1.6 1.5.4.7.6 1.5.6 2.4zm-2.8-.7c0-.5-.2-.9-.5-1.1-.3-.3-.7-.5-1.2-.5s-.8.2-1.2.4c-.3.3-.5.7-.5 1.2h3.4zM139 273.5c0-.9.2-1.7.5-2.4a3.7 3.7 0 015-1.8c.5.3 1 .6 1.2 1v-4.1h2.7V278h-2.7v-1.3c-.3.4-.6.8-1.1 1a3.7 3.7 0 01-5-1.8c-.4-.7-.6-1.5-.6-2.4zm6.7 0c0-.6-.2-1.2-.6-1.6-.3-.4-.8-.6-1.3-.6-.6 0-1 .2-1.4.6-.4.4-.6 1-.6 1.6 0 .7.2 1.2.6 1.7.3.3.8.5 1.4.5.5 0 1-.2 1.3-.5.4-.4.6-1 .6-1.7zM107.6 273.5c0-.9.2-1.7.6-2.4a4 4 0 011.5-1.6c.7-.4 1.5-.6 2.4-.6 1.1 0 2 .3 2.8 1 .7.5 1.2 1.3 1.5 2.4h-3c-.2-.7-.7-1-1.4-1-.5 0-.9.2-1.2.6-.3.4-.4 1-.4 1.6 0 .8.1 1.3.4 1.7.3.4.7.6 1.2.6.7 0 1.2-.3 1.5-1h2.9c-.3 1-.8 1.8-1.5 2.4-.8.6-1.7 1-2.8 1-.9 0-1.7-.3-2.4-.6a4 4 0 01-1.5-1.6 5 5 0 01-.6-2.5zM78.3 270.3c.3-.4.6-.7 1.1-1 .5-.2 1-.4 1.7-.4a3.7 3.7 0 013.4 2.2c.3.7.5 1.5.5 2.4 0 1-.2 1.7-.5 2.5a3.7 3.7 0 01-3.4 2.2c-.7 0-1.2-.2-1.7-.4a3 3 0 01-1.1-1v1.2h-2.7v-11.8h2.7v4.1zm3.9 3.2c0-.7-.2-1.2-.6-1.6-.3-.4-.8-.6-1.4-.6-.5 0-1 .2-1.4.6-.3.4-.5 1-.5 1.6 0 .7.2 1.3.5 1.7.4.3.9.5 1.4.5.6 0 1-.2 1.4-.5.4-.5.6-1 .6-1.7zM43 273.5c0-.9.2-1.7.5-2.4a3.7 3.7 0 013.4-2.2c.7 0 1.2.2 1.7.4.5.3.9.6 1.1 1v-1.2h2.7v8.9h-2.7v-1.3a3 3 0 01-1.1 1c-.5.3-1 .4-1.7.4a3.7 3.7 0 01-3.4-2.1c-.3-.8-.5-1.6-.5-2.5zm6.7 0c0-.6-.2-1.2-.6-1.6-.3-.4-.8-.6-1.3-.6-.6 0-1 .2-1.4.6-.4.4-.6 1-.6 1.6 0 .7.2 1.2.6 1.7.3.3.8.5 1.4.5.5 0 1-.2 1.3-.5.4-.4.6-1 .6-1.7z" fill="#000"/><mask id="a" maskUnits="userSpaceOnUse" x="98.8" y="128.6" width="26" height="26" fill="#000"><path fill="#fff" d="M98.8 128.6h26v26h-26z"/><path fill-rule="evenodd" clip-rule="evenodd" d="M119.1 151.9l3-8c.3-1-.1-2-1-2.5a23.7 23.7 0 00-8.2-2.8V135h2.8v-1.8H113v-2.6h-1.8v2.6h-2.8v1.8h2.8v3.6c-2.4.2-4.6 1.1-8.1 2.8a2 2 0 00-1 2.5l2.9 8H119zm-8.9-10.7l-4 1a2 2 0 00-1.2 2.9l1.7 3.2h3.5v-7.1zm7.6 1l-4-1v7.1h3.5l1.7-3.2a2 2 0 00-1.2-2.8z"/></mask><path fill-rule="evenodd" clip-rule="evenodd" d="M119.1 151.9l3-8c.3-1-.1-2-1-2.5a23.7 23.7 0 00-8.2-2.8V135h2.8v-1.8H113v-2.6h-1.8v2.6h-2.8v1.8h2.8v3.6c-2.4.2-4.6 1.1-8.1 2.8a2 2 0 00-1 2.5l2.9 8H119zm-8.9-10.7l-4 1a2 2 0 00-1.2 2.9l1.7 3.2h3.5v-7.1zm7.6 1l-4-1v7.1h3.5l1.7-3.2a2 2 0 00-1.2-2.8z" fill="#fff"/><path d="M111.2 139.6h1.6l.2-2h-2l.2 2zm10.8 4.3l2 .7-2-.7zm-2.9 8v2h1.4l.5-1.3-1.9-.7zm2-10.5l.8-1.8-.9 1.8zm-8.2-2.8h-2v1.8l1.9.2.1-2zm0-3.6v-2h-2v2h2zm2.8 0v2h2v-2h-2zm0-1.8h2v-2h-2v2zm-2.8 0h-2v2h2v-2zm0-2.6h2v-2h-2v2zm-1.8 0v-2h-2v2h2zm0 2.6v2h2v-2h-2zm-2.8 0v-2h-2v2h2zm0 1.8h-2v2h2v-2zm2.8 0h2v-2h-2v2zm0 3.6l.1 2 1.9-.2v-1.8h-2zm-8.1 2.8l.8 1.8-.8-1.8zm-1 2.5l1.8-.7-1.8.7zm2.9 8l-1.9.7.5 1.3h1.4v-2zm1.3-9.6l-.6-2 .6 2zm4-1.1h2v-2.4l-2.3.4.3 2zM105 145l1.8-1-1.8 1zm1.7 3.2l-1.8 1 .5 1h1.3v-2zm3.5 0v2h2v-2h-2zm3.6-7.1l.3-2-2.3-.4v2.4h2zm4 1l-.6 2 .6-2zm-4 6.1h-2v2h2v-2zm3.5 0v2h1.3l.5-1-1.8-1zm1.7-3.2l1.8.8-1.8-.8zm1.2-1.9l-3 8 3.8 1.4 3-8-3.8-1.4zm0 0l3.7 1.4a4 4 0 00-2-5l-1.7 3.6zm-7.4-2.6c2 .1 3.8 1 7.4 2.6l1.7-3.6c-3.5-1.7-6-2.8-8.8-3l-.3 4zm-1.9-5.6v3.6h4V135h-4zm4.8-2H113v4h2.8v-4zm-2 .2v1.8h4v-1.8h-4zm-.8 2h2.8v-4H113v4zm-2-4.6v2.6h4v-2.6h-4zm.2 2h1.8v-4h-1.8v4zm2 .6v-2.6h-4v2.6h4zm-4.8 2h2.8v-4h-2.8v4zm2-.2v-1.8h-4v1.8h4zm.8-2h-2.8v4h2.8v-4zm2 5.6V135h-4v3.6h4zm-9.3 4.6a22 22 0 017.4-2.6l-.3-4c-2.8.2-5.3 1.3-8.8 3l1.7 3.6zm0 0l-1.7-3.6a4 4 0 00-2 5l3.7-1.4zm3 8l-3-8-3.7 1.4 3 8 3.7-1.4zm12.3-1.3H105v4H119v-4zm-12.3-5.7c1.6-.6 2.8-.9 3.8-1l-.7-4c-1.3.2-2.7.6-4.3 1.2l1.2 3.8zm0 0l-1.2-3.8a4 4 0 00-2.4 5.5l3.6-1.7zm1.7 3.2l-1.7-3.2-3.6 1.7 1.7 3.3 3.6-1.8zm1.7-1h-3.5v4h3.5v-4zm-2-5.2v7.1h4v-7.1h-4zm5.2 2c1 .1 2.2.4 3.8 1l1.2-3.8c-1.6-.6-3-1-4.3-1.2l-.7 4zm2.4 5.1v-7.1h-4v7.1h4zm1.5-2h-3.5v4h3.5v-4zm-.1-2.1l-1.7 3.2 3.6 1.8 1.7-3.3-3.6-1.7zm0 0l3.6 1.7a4 4 0 00-2.4-5.5l-1.2 3.8z" fill="#000" mask="url(#a)"/><path d="M121.8 156.4h1V154a3 3 0 00-3-3h-15.6a3 3 0 00-3 3v2.5h20.6z" fill="#fff" stroke="#000" stroke-width="2"/><path fill="#E94E58" fill-opacity=".8" d="M96 96h32v32H96z"/><circle cx="112" cy="112" r="4" fill="#FFC107"/><path fill="#E94E58" fill-opacity=".8" d="M128 96h32v32h-32z"/><circle cx="144" cy="112" r="4" fill="#FFC107"/><path fill="#E94E58" fill-opacity=".8" d="M128 128h32v32h-32z"/><circle cx="144" cy="144" r="4" fill="#FFC107"/><path fill="#E94E58" fill-opacity=".8" d="M128 160h32v32h-32z"/><circle cx="144" cy="176" r="4" fill="#FFC107"/><path fill="#E94E58" fill-opacity=".8" d="M96 160h32v32H96z"/><circle cx="112" cy="176" r="4" fill="#FFC107"/><path fill="#E94E58" fill-opacity=".8" d="M64 160h32v32H64z"/><circle cx="80" cy="176" r="4" fill="#FFC107"/><path fill="#E94E58" fill-opacity=".8" d="M64 128h32v32H64z"/><circle cx="80" cy="144" r="4" fill="#FFC107"/><path fill="#E94E58" fill-opacity=".8" d="M64 96h32v32H64z"/><circle cx="80" cy="112" r="4" fill="#FFC107"/></svg>