<svg width="320" height="288" fill="none" xmlns="http://www.w3.org/2000/svg"><path fill="#FEE6C1" d="M32 0h256v256H32z"/><path d="M32 224h32v32H32v-32zM32 96h32v32H32V96zM32 160h32v32H32v-32zM32 32h32v32H32V32zM64 192h32v32H64v-32zM64 64h32v32H64V64zM64 128h32v32H64v-32zM64 0h32v32H64V0zM160 224h32v32h-32v-32zM160 96h32v32h-32V96zM160 160h32v32h-32v-32zM160 32h32v32h-32V32zM192 192h32v32h-32v-32zM192 64h32v32h-32V64zM192 128h32v32h-32v-32zM192 0h32v32h-32V0zM96 224h32v32H96v-32zM96 96h32v32H96V96zM96 160h32v32H96v-32zM96 32h32v32H96V32zM128 192h32v32h-32v-32zM128 64h32v32h-32V64zM128 128h32v32h-32v-32zM128 0h32v32h-32V0zM224 224h32v32h-32v-32zM224 96h32v32h-32V96zM224 160h32v32h-32v-32zM224 32h32v32h-32V32zM256 192h32v32h-32v-32zM256 64h32v32h-32V64zM256 128h32v32h-32v-32zM256 0h32v32h-32V0z" fill="#866C4A"/><path d="M13.42 237.36v-2.54h4.44v11.68H15v-9.14h-1.59zM12.05 212.3a59 59 0 002.96-2.53c.61-.55 1.12-1.13 1.54-1.73.42-.61.62-1.2.62-1.78 0-.44-.1-.78-.3-1.02-.2-.25-.5-.37-.91-.37-.4 0-.73.15-.96.46-.23.3-.34.73-.34 1.28h-2.64c.02-.9.21-1.66.58-2.27.37-.6.86-1.06 1.45-1.34.61-.3 1.28-.44 2.02-.44 1.27 0 2.22.33 2.86.98.65.65.98 1.5.98 2.54 0 1.14-.39 2.2-1.17 3.19-.78.97-1.77 1.92-2.97 2.85h4.32v2.22h-8.04v-2.03zM11.97 174.12a3.51 3.51 0 011.12-2.64c.7-.62 1.66-.93 2.87-.93.8 0 1.48.14 2.04.41a2.95 2.95 0 011.75 2.76c0 .7-.18 1.28-.53 1.72a2.7 2.7 0 01-1.23.9v.06c.6.2 1.09.54 1.44 1.01.35.47.53 1.07.53 1.81 0 .66-.16 1.25-.47 1.76-.3.5-.74.9-1.33 1.18-.57.3-1.26.44-2.06.44a4.7 4.7 0 01-3.07-.95c-.76-.63-1.16-1.58-1.2-2.85h2.65c.01.47.15.85.4 1.12.26.27.63.4 1.12.4.42 0 .74-.11.96-.35.24-.24.36-.56.36-.96 0-.51-.17-.88-.5-1.1-.32-.24-.84-.35-1.55-.35h-.51v-2.23h.5c.55 0 .99-.09 1.32-.27.34-.2.51-.53.51-1 0-.4-.1-.7-.32-.9a1.2 1.2 0 00-.88-.32c-.4 0-.7.12-.91.36-.2.25-.3.55-.34.92h-2.67zM11.37 148.42v-2.2l5.06-7.24h3.05v7.07h1.31v2.37h-1.3v2.08h-2.74v-2.08h-5.38zm5.57-6.43l-2.69 4.06h2.69V142zM19.74 108.2h-5v2.21c.22-.23.52-.42.9-.57.39-.15.8-.23 1.25-.23.8 0 1.46.18 1.99.55.53.36.92.83 1.16 1.4.25.58.37 1.2.37 1.88 0 1.24-.35 2.24-1.05 2.97-.7.73-1.7 1.09-2.98 1.09a5.3 5.3 0 01-2.22-.43c-.63-.3-1.12-.71-1.46-1.23a3.54 3.54 0 01-.56-1.81h2.67c.07.33.22.6.47.83.24.21.58.32 1 .32.5 0 .88-.16 1.12-.48.25-.32.37-.75.37-1.28 0-.52-.13-.92-.38-1.2-.26-.28-.63-.42-1.12-.42-.36 0-.66.1-.9.28-.23.17-.39.4-.46.68h-2.64v-6.96h7.47v2.4zM17.4 76.97a1.6 1.6 0 00-.45-.88c-.2-.2-.51-.3-.9-.3-.62 0-1.05.26-1.32.8-.27.52-.4 1.35-.42 2.5a2.4 2.4 0 011.01-.89c.45-.2.94-.32 1.47-.32a3.3 3.3 0 012.52 1c.64.66.96 1.58.96 2.76 0 .78-.16 1.47-.48 2.05a3.3 3.3 0 01-1.38 1.38c-.6.33-1.3.5-2.13.5-1.64 0-2.78-.52-3.42-1.54-.64-1.04-.96-2.52-.96-4.45 0-2.03.33-3.53 1-4.51.69-1 1.78-1.49 3.27-1.49.8 0 1.47.16 2.02.48.55.3.97.72 1.24 1.23.3.51.46 1.07.52 1.68H17.4zm-1.26 3.07c-.46 0-.84.14-1.15.42-.3.27-.45.65-.45 1.15 0 .51.14.91.41 1.2.3.29.7.43 1.22.43.47 0 .84-.13 1.1-.41.28-.29.42-.68.42-1.17 0-.5-.13-.9-.4-1.18-.27-.3-.65-.44-1.15-.44zM19.9 43.87l-4.02 9.63h-2.8l4.06-9.33h-4.97v-2.33h7.72v2.03zM13.45 16.23c-1-.54-1.5-1.37-1.5-2.51a2.86 2.86 0 011.8-2.7c.61-.3 1.36-.44 2.25-.44.88 0 1.62.14 2.22.43.6.28 1.06.66 1.36 1.14.3.47.45.99.45 1.57a2.7 2.7 0 01-.42 1.5c-.26.43-.63.76-1.09 1a3.06 3.06 0 011.8 2.85 3.37 3.37 0 01-2.15 3.22c-.65.29-1.37.43-2.17.43-.8 0-1.53-.14-2.2-.43a3.37 3.37 0 01-2.13-3.22 3.04 3.04 0 011.78-2.85zm3.92-2.1c0-.44-.13-.77-.38-1a1.34 1.34 0 00-1-.37c-.4 0-.75.12-1 .36-.25.25-.37.6-.37 1.03 0 .41.13.74.38.99.26.23.6.35 1 .35s.73-.12.99-.37c.25-.24.38-.57.38-.99zM16 17.41c-.5 0-.91.14-1.22.42-.3.26-.46.64-.46 1.12 0 .45.15.81.44 1.1.31.29.72.43 1.24.43.5 0 .9-.14 1.2-.43.3-.29.44-.65.44-1.1 0-.47-.15-.84-.46-1.12-.3-.28-.7-.42-1.18-.42zM273.09 268.98c1.02 0 1.85.34 2.46 1.02.62.67.93 1.6.93 2.78V278h-2.72v-4.85c0-.6-.15-1.06-.46-1.39-.31-.33-.73-.5-1.25-.5s-.94.17-1.25.5c-.3.33-.46.8-.46 1.4V278h-2.74v-11.84h2.74v4.11c.28-.4.65-.7 1.13-.94a3.63 3.63 0 011.62-.35zM238.95 268.94c.63 0 1.18.13 1.65.39.48.25.85.59 1.1 1v-1.26h2.74v8.91a4.9 4.9 0 01-.5 2.23c-.31.67-.81 1.2-1.48 1.6-.66.4-1.49.59-2.48.59-1.32 0-2.4-.31-3.22-.94a3.51 3.51 0 01-1.4-2.53h2.7c.08.34.29.6.6.8.33.2.72.3 1.19.3.57 0 1.01-.16 1.34-.5.35-.31.52-.83.52-1.55v-1.26a3.1 3.1 0 01-2.76 1.4 3.7 3.7 0 01-3.42-2.17 5.51 5.51 0 01-.51-2.43c0-.92.17-1.72.51-2.42a3.7 3.7 0 013.42-2.16zm2.76 4.6c0-.69-.2-1.23-.58-1.62-.37-.4-.83-.6-1.38-.6-.54 0-1 .2-1.39.6a2.2 2.2 0 00-.56 1.6c0 .68.19 1.23.56 1.63.39.4.85.6 1.4.6.54 0 1-.2 1.37-.6.38-.4.58-.93.58-1.61zM210.59 271.34h-1.47V278h-2.74v-6.66h-1v-2.27h1v-.25c0-1.1.32-1.94.94-2.5.64-.58 1.56-.86 2.77-.86l.45.01v2.32c-.52-.03-.89.04-1.1.23-.22.18-.32.5-.32.97v.08h1.47v2.27zM180.48 273.4c0 .25-.02.52-.05.8h-6.2c.05.55.23.97.54 1.27.32.29.7.43 1.16.43.69 0 1.16-.28 1.43-.86h2.91a3.93 3.93 0 01-.82 1.58c-.38.47-.86.84-1.45 1.1a4.7 4.7 0 01-1.97.4 4.8 4.8 0 01-2.34-.55 3.99 3.99 0 01-1.6-1.6c-.38-.7-.57-1.5-.57-2.43 0-.93.19-1.74.56-2.44.38-.69.92-1.22 1.6-1.6a4.83 4.83 0 012.35-.56c.86 0 1.63.19 2.3.55.68.36 1.2.88 1.57 1.55.39.67.58 1.46.58 2.35zm-2.8-.73c0-.47-.16-.84-.48-1.12a1.77 1.77 0 00-1.2-.41c-.46 0-.85.13-1.17.4-.3.26-.5.64-.58 1.13h3.43zM139.02 273.52c0-.92.17-1.72.51-2.42a3.7 3.7 0 015.02-1.8c.5.26.88.59 1.16 1v-4.14h2.73V278h-2.73v-1.28c-.26.43-.63.77-1.1 1.02-.48.26-1.03.39-1.66.39a3.7 3.7 0 01-3.42-2.18 5.51 5.51 0 01-.51-2.43zm6.69.02c0-.69-.2-1.23-.58-1.62-.37-.4-.83-.6-1.38-.6-.54 0-1 .2-1.39.6a2.2 2.2 0 00-.56 1.6c0 .68.19 1.23.56 1.63.39.4.85.6 1.4.6.54 0 1-.2 1.37-.6.38-.4.58-.93.58-1.61zM107.6 273.54c0-.93.2-1.74.56-2.44.39-.69.92-1.22 1.59-1.6a4.8 4.8 0 012.33-.56c1.12 0 2.06.3 2.8.88a4.13 4.13 0 011.5 2.48h-2.92c-.24-.68-.72-1.02-1.42-1.02-.5 0-.9.2-1.2.6-.3.38-.45.93-.45 1.66 0 .72.15 1.28.45 1.68.3.38.7.57 1.2.57.7 0 1.17-.34 1.42-1.02h2.91a4.18 4.18 0 01-1.49 2.46c-.75.6-1.69.9-2.8.9a4.8 4.8 0 01-2.33-.56c-.67-.38-1.2-.9-1.59-1.6-.37-.7-.56-1.5-.56-2.43zM78.3 270.34c.25-.42.62-.76 1.1-1.01a3.45 3.45 0 011.65-.39 3.7 3.7 0 013.4 2.16c.36.7.54 1.5.54 2.42 0 .92-.18 1.73-.53 2.43a3.7 3.7 0 01-3.4 2.18c-.64 0-1.19-.13-1.66-.37-.47-.26-.84-.6-1.1-1V278h-2.74v-11.84h2.74v4.18zm3.9 3.18c0-.68-.19-1.22-.57-1.6-.38-.4-.84-.6-1.4-.6-.54 0-1 .2-1.39.6-.37.4-.56.93-.56 1.62 0 .68.19 1.22.56 1.61.39.4.85.6 1.4.6.54 0 1-.2 1.39-.6.38-.4.57-.95.57-1.63zM43.02 273.52c0-.92.17-1.72.51-2.42a3.7 3.7 0 013.42-2.16c.63 0 1.18.13 1.65.39.48.25.85.59 1.1 1v-1.26h2.74V278h-2.73v-1.26c-.27.41-.64.75-1.12 1-.47.26-1.02.39-1.65.39a3.67 3.67 0 01-3.41-2.18 5.51 5.51 0 01-.51-2.43zm6.69.02c0-.69-.2-1.23-.58-1.62-.37-.4-.83-.6-1.38-.6-.54 0-1 .2-1.39.6a2.2 2.2 0 00-.56 1.6c0 .68.19 1.23.56 1.63.39.4.85.6 1.4.6.54 0 1-.2 1.37-.6.38-.4.58-.93.58-1.61z" fill="#000"/><mask id="a" maskUnits="userSpaceOnUse" x="133" y="130.33" width="21" height="23" fill="#000"><path fill="#fff" d="M133 130.33h21v23h-21z"/><path d="M147.78 151h-7.61l-.24-.4a2.17 2.17 0 01.47-2.71c2.93-2.64 3.99-5.33 3.99-5.33s0-1.38-2.7-2.15l-2.1 1.4-2.32 1.63s-1.99-1.83-1-3.03c1-1.2 1.08-2.04 2-3.19 1.14-1.43 3.43-3.2 3.43-3.2s.97-1.69 1.99-1.69c-.58 1.69 1.33 1.69 1.33 1.69 13.9 0 2.76 16.98 2.76 16.98z"/></mask><path d="M147.78 151h-7.61l-.24-.4a2.17 2.17 0 01.47-2.71c2.93-2.64 3.99-5.33 3.99-5.33s0-1.38-2.7-2.15l-2.1 1.4-2.32 1.63s-1.99-1.83-1-3.03c1-1.2 1.08-2.04 2-3.19 1.14-1.43 3.43-3.2 3.43-3.2s.97-1.69 1.99-1.69c-.58 1.69 1.33 1.69 1.33 1.69 13.9 0 2.76 16.98 2.76 16.98z" fill="#fff"/><path d="M147.78 151h-7.61l-.24-.4a2.17 2.17 0 01.47-2.71c2.93-2.64 3.99-5.33 3.99-5.33s0-1.38-2.7-2.15l-2.1 1.4-2.32 1.63s-1.99-1.83-1-3.03c1-1.2 1.08-2.04 2-3.19 1.14-1.43 3.43-3.2 3.43-3.2s.97-1.69 1.99-1.69c-.58 1.69 1.33 1.69 1.33 1.69 13.9 0 2.76 16.98 2.76 16.98z" stroke="#000" stroke-width="4" mask="url(#a)"/><mask id="b" maskUnits="userSpaceOnUse" x="132.22" y="149.89" width="24" height="8" fill="#000"><path fill="#fff" d="M132.22 149.89h24v8h-24z"/><path d="M134.22 153.89c0-1.1.9-2 2-2h15.56a2 2 0 012 2v1.55h-19.56v-1.55z"/></mask><path d="M134.22 153.89c0-1.1.9-2 2-2h15.56a2 2 0 012 2v1.55h-19.56v-1.55z" fill="#fff"/><path d="M134.22 153.89c0-1.1.9-2 2-2h15.56a2 2 0 012 2v1.55h-19.56v-1.55z" stroke="#000" stroke-width="4" mask="url(#b)"/><path d="M139.56 136.78l.88-.45v.34a1 1 0 01-1 1h-.33l.45-.9z" fill="#000"/><path fill="#E94E58" fill-opacity=".75" d="M160 64h32v32h-32z"/><circle cx="176" cy="80" r="4" fill="#FFC107"/><path fill="#E94E58" fill-opacity=".75" d="M192 96h32v32h-32z"/><circle cx="208" cy="112" r="4" fill="#FFC107"/><path fill="#E94E58" fill-opacity=".75" d="M192 160h32v32h-32z"/><circle cx="208" cy="176" r="4" fill="#FFC107"/><path fill="#E94E58" fill-opacity=".75" d="M160 192h32v32h-32z"/><circle cx="176" cy="208" r="4" fill="#FFC107"/><path fill="#E94E58" fill-opacity=".75" d="M96 192h32v32H96z"/><circle cx="112" cy="208" r="4" fill="#FFC107"/><path fill="#E94E58" fill-opacity=".75" d="M64 160h32v32H64z"/><circle cx="80" cy="176" r="4" fill="#FFC107"/><path fill="#E94E58" fill-opacity=".75" d="M64 96h32v32H64z"/><circle cx="80" cy="112" r="4" fill="#FFC107"/><path fill="#E94E58" fill-opacity=".75" d="M96 64h32v32H96z"/><circle cx="112" cy="80" r="4" fill="#FFC107"/></svg>