<svg width="320" height="288" fill="none" xmlns="http://www.w3.org/2000/svg"><path fill="#FEE6C1" d="M32 0h256v256H32z"/><path d="M32 224h32v32H32v-32zM32 96h32v32H32V96zM32 160h32v32H32v-32zM32 32h32v32H32V32zM64 192h32v32H64v-32zM64 64h32v32H64V64zM64 128h32v32H64v-32zM64 0h32v32H64V0zM160 224h32v32h-32v-32zM160 96h32v32h-32V96zM160 160h32v32h-32v-32zM160 32h32v32h-32V32zM192 192h32v32h-32v-32zM192 64h32v32h-32V64zM192 128h32v32h-32v-32zM192 0h32v32h-32V0zM96 224h32v32H96v-32zM96 96h32v32H96V96zM96 160h32v32H96v-32zM96 32h32v32H96V32zM128 192h32v32h-32v-32zM128 64h32v32h-32V64zM128 128h32v32h-32v-32zM128 0h32v32h-32V0zM224 224h32v32h-32v-32zM224 96h32v32h-32V96zM224 160h32v32h-32v-32zM224 32h32v32h-32V32zM256 192h32v32h-32v-32zM256 64h32v32h-32V64zM256 128h32v32h-32v-32zM256 0h32v32h-32V0z" fill="#866C4A"/><path d="M13.4 237.4v-2.6H18v11.7H15v-9.1h-1.6zM12 212.3l.5-.4a59 59 0 004-3.9c.5-.6.7-1.2.7-1.7s-.1-.8-.3-1c-.2-.3-.5-.4-1-.4-.3 0-.7.1-.9.4-.2.3-.3.8-.3 1.3H12c0-.9.2-1.7.6-2.3.4-.6.9-1 1.5-1.3.6-.3 1.2-.4 2-.4 1.2 0 2.2.3 2.8 1 .7.6 1 1.4 1 2.5a5 5 0 01-1.2 3.2c-.7 1-1.7 1.9-3 2.8h4.4v2.2h-8v-2zM12 174.1c0-1.1.4-2 1-2.6.8-.6 1.8-1 3-1 .8 0 1.4.2 2 .5a3 3 0 011.7 2.7c0 .7-.1 1.3-.5 1.7-.3.5-.7.8-1.2 1 .6.2 1 .5 1.4 1 .4.5.6 1 .6 1.8 0 .7-.2 1.3-.5 1.8a3 3 0 01-1.3 1.2c-.6.3-1.3.4-2.1.4-1.3 0-2.3-.3-3-1-.8-.6-1.2-1.5-1.3-2.8h2.7c0 .5.1.8.4 1.1.2.3.6.4 1.1.4.4 0 .7 0 1-.3.2-.3.3-.6.3-1 0-.5-.1-.9-.5-1-.3-.3-.8-.4-1.5-.4h-.5v-2.3h.5c.5 0 1 0 1.3-.2.3-.2.5-.6.5-1s-.1-.7-.3-1c-.2-.2-.5-.3-1-.3-.3 0-.6.2-.8.4-.2.2-.3.6-.4 1H12zM11.4 148.4v-2.2l5-7.2h3v7h1.4v2.4h-1.3v2.1h-2.8v-2h-5.3zm5.5-6.4l-2.7 4H17v-4zM19.7 108.2h-5v2.2l1-.6 1.2-.2c.8 0 1.5.2 2 .6.5.3.9.8 1.1 1.4.3.5.4 1.2.4 1.8 0 1.3-.3 2.3-1 3a4 4 0 01-3 1.1c-.9 0-1.6-.1-2.2-.4-.7-.3-1.2-.7-1.5-1.3-.3-.5-.5-1-.6-1.8h2.7c0 .4.2.6.5.9.2.2.6.3 1 .3.5 0 .9-.2 1.1-.5.3-.3.4-.7.4-1.3 0-.5-.2-.9-.4-1.2-.3-.3-.6-.4-1.1-.4-.4 0-.7 0-1 .3-.2.1-.3.4-.4.7h-2.6v-7h7.4v2.4zM17.4 77c0-.4-.2-.7-.4-1l-1-.2c-.6 0-1 .3-1.3.8a6 6 0 00-.4 2.5c.2-.4.6-.7 1-.9l1.5-.3c1 0 1.9.3 2.5 1 .6.6 1 1.6 1 2.7 0 .8-.2 1.5-.5 2-.3.7-.8 1.1-1.4 1.5-.6.3-1.3.5-2.1.5-1.7 0-2.8-.5-3.4-1.6-.7-1-1-2.5-1-4.4a8 8 0 011-4.5c.7-1 1.8-1.5 3.3-1.5a4 4 0 012 .5c.5.3 1 .7 1.2 1.2.3.5.5 1 .5 1.7h-2.5zm-1.3 3c-.4 0-.8.2-1.1.5-.3.2-.5.6-.5 1.1 0 .5.2 1 .5 1.2.2.3.6.4 1.2.4.4 0 .8 0 1-.4.4-.3.5-.6.5-1.1 0-.5-.1-1-.4-1.2-.3-.3-.7-.5-1.2-.5zM19.9 43.9l-4 9.6H13l4-9.3h-5v-2.4H20v2zM13.5 16.2c-1-.5-1.6-1.3-1.6-2.5a2.9 2.9 0 011.9-2.7c.6-.3 1.3-.4 2.2-.4.9 0 1.6.1 2.2.4.6.3 1 .7 1.4 1.1.3.5.4 1 .4 1.6 0 .6-.1 1-.4 1.5-.3.4-.6.8-1 1 .5.3 1 .7 1.3 1.2.3.5.4 1 .4 1.7a3.4 3.4 0 01-2.1 3.2c-.7.3-1.4.4-2.2.4-.8 0-1.5-.1-2.2-.4-.6-.3-1.2-.7-1.5-1.3-.4-.5-.6-1.2-.6-2 0-.6.1-1.2.4-1.6a3 3 0 011.4-1.2zm3.9-2c0-.5-.2-.8-.4-1-.3-.3-.6-.4-1-.4s-.8 0-1 .3c-.3.3-.4.6-.4 1 0 .5.1.8.4 1 .3.3.6.4 1 .4s.7-.1 1-.4c.2-.2.4-.6.4-1zM16 17.3c-.5 0-1 .2-1.2.4-.3.3-.5.7-.5 1.1 0 .5.2.9.5 1.2.3.2.7.4 1.2.4s1-.2 1.2-.4c.3-.3.4-.7.4-1.2 0-.4-.1-.8-.4-1-.3-.3-.7-.5-1.2-.5zM273 269c1.1 0 2 .3 2.6 1a4 4 0 01.9 2.8v5.2h-2.7v-4.8c0-.6-.2-1.1-.5-1.4-.3-.4-.7-.5-1.3-.5-.5 0-.9.1-1.2.5a2 2 0 00-.5 1.4v4.8h-2.7v-11.8h2.7v4a3 3 0 011.2-.9c.5-.2 1-.3 1.6-.3zM239 269a2.8 2.8 0 012.8 1.4V269h2.6v8.9c0 .8-.1 1.5-.5 2.2-.3.7-.8 1.2-1.4 1.6-.7.4-1.5.6-2.5.6-1.3 0-2.4-.3-3.2-1a3.5 3.5 0 01-1.4-2.5h2.7c0 .4.2.6.6.8.3.2.7.3 1.2.3s1-.1 1.3-.5c.3-.3.5-.8.5-1.5v-1.3a3 3 0 01-2.7 1.4 3.7 3.7 0 01-3.5-2.1c-.3-.8-.5-1.6-.5-2.5 0-.9.2-1.7.5-2.4a3.7 3.7 0 013.4-2.2zm2.7 4.5c0-.6-.2-1.2-.6-1.6-.3-.4-.8-.6-1.3-.6-.6 0-1 .2-1.4.6-.4.4-.6 1-.6 1.6 0 .7.2 1.2.6 1.7.3.3.8.5 1.4.5.5 0 1-.2 1.3-.5.4-.4.6-1 .6-1.7zM210.6 271.3H209v6.7h-2.7v-6.7h-1v-2.2h1v-.3c0-1 .3-2 1-2.5.6-.6 1.5-.8 2.7-.8h.4v2.3c-.5 0-.8 0-1 .2-.3.2-.4.5-.4 1h1.5v2.3zM180.5 273.4v.8h-6.3c0 .5.3 1 .6 1.3.3.3.7.4 1.1.4.7 0 1.2-.3 1.5-.9h2.9a4 4 0 01-.8 1.6 4 4 0 01-1.5 1.1c-.6.3-1.2.4-2 .4s-1.6-.2-2.3-.5a4 4 0 01-1.6-1.6 5 5 0 01-.6-2.5c0-.9.2-1.7.6-2.4a4 4 0 011.6-1.6c.7-.4 1.4-.6 2.3-.6.9 0 1.7.2 2.3.6.7.4 1.2.9 1.6 1.5.4.7.6 1.5.6 2.4zm-2.8-.7c0-.5-.2-.9-.5-1.1-.3-.3-.7-.5-1.2-.5s-.8.2-1.2.4c-.3.3-.5.7-.5 1.2h3.4zM139 273.5c0-.9.2-1.7.5-2.4a3.7 3.7 0 015-1.8c.5.3 1 .6 1.2 1v-4.1h2.7V278h-2.7v-1.3c-.3.4-.6.8-1.1 1a3.7 3.7 0 01-5-1.8c-.4-.7-.6-1.5-.6-2.4zm6.7 0c0-.6-.2-1.2-.6-1.6-.3-.4-.8-.6-1.3-.6-.6 0-1 .2-1.4.6-.4.4-.6 1-.6 1.6 0 .7.2 1.2.6 1.7.3.3.8.5 1.4.5.5 0 1-.2 1.3-.5.4-.4.6-1 .6-1.7zM107.6 273.5c0-.9.2-1.7.6-2.4a4 4 0 011.5-1.6c.7-.4 1.5-.6 2.4-.6 1.1 0 2 .3 2.8 1 .7.5 1.2 1.3 1.5 2.4h-3c-.2-.7-.7-1-1.4-1-.5 0-.9.2-1.2.6-.3.4-.4 1-.4 1.6 0 .8.1 1.3.4 1.7.3.4.7.6 1.2.6.7 0 1.2-.3 1.5-1h2.9c-.3 1-.8 1.8-1.5 2.4-.8.6-1.7 1-2.8 1-.9 0-1.7-.3-2.4-.6a4 4 0 01-1.5-1.6 5 5 0 01-.6-2.5zM78.3 270.3c.3-.4.6-.7 1.1-1 .5-.2 1-.4 1.7-.4a3.7 3.7 0 013.4 2.2c.3.7.5 1.5.5 2.4 0 1-.2 1.7-.5 2.5a3.7 3.7 0 01-3.4 2.2c-.7 0-1.2-.2-1.7-.4a3 3 0 01-1.1-1v1.2h-2.7v-11.8h2.7v4.1zm3.9 3.2c0-.7-.2-1.2-.6-1.6-.3-.4-.8-.6-1.4-.6-.5 0-1 .2-1.4.6-.3.4-.5 1-.5 1.6 0 .7.2 1.3.5 1.7.4.3.9.5 1.4.5.6 0 1-.2 1.4-.5.4-.5.6-1 .6-1.7zM43 273.5c0-.9.2-1.7.5-2.4a3.7 3.7 0 013.4-2.2c.7 0 1.2.2 1.7.4.5.3.9.6 1.1 1v-1.2h2.7v8.9h-2.7v-1.3a3 3 0 01-1.1 1c-.5.3-1 .4-1.7.4a3.7 3.7 0 01-3.4-2.1c-.3-.8-.5-1.6-.5-2.5zm6.7 0c0-.6-.2-1.2-.6-1.6-.3-.4-.8-.6-1.3-.6-.6 0-1 .2-1.4.6-.4.4-.6 1-.6 1.6 0 .7.2 1.2.6 1.7.3.3.8.5 1.4.5.5 0 1-.2 1.3-.5.4-.4.6-1 .6-1.7z" fill="#000"/><mask id="a" maskUnits="userSpaceOnUse" x="169.7" y="9.4" width="12" height="18" fill="#000"><path fill="#fff" d="M169.7 9.4h12v18h-12z"/><path fill-rule="evenodd" clip-rule="evenodd" d="M177.2 18.4a3.6 3.6 0 10-2.4 0c0 2.8-1.4 6.4-4.1 6.4h10.6c-2.7 0-4.1-3.6-4.1-6.4z"/></mask><path fill-rule="evenodd" clip-rule="evenodd" d="M177.2 18.4a3.6 3.6 0 10-2.4 0c0 2.8-1.4 6.4-4.1 6.4h10.6c-2.7 0-4.1-3.6-4.1-6.4z" fill="#fff"/><path d="M177.2 18.4l-.7-2-1.3.5v1.4h2zm-2.4 0h2v-1.5l-1.3-.4-.7 1.9zm2.8-3.4c0 .7-.5 1.3-1 1.5l1.2 3.7a5.6 5.6 0 003.8-5.2h-4zm-1.6-1.6c.9 0 1.6.7 1.6 1.6h4c0-3-2.5-5.6-5.6-5.6v4zm-1.6 1.6c0-.9.7-1.6 1.6-1.6v-4c-3 0-5.6 2.5-5.6 5.6h4zm1 1.5c-.5-.2-1-.8-1-1.5h-4c0 2.4 1.6 4.5 3.8 5.3l1.3-3.8zm-4.7 10.3c2.3 0 4-1.6 4.8-3.2 1-1.6 1.4-3.5 1.3-5.3h-4c0 1.2-.2 2.4-.8 3.3-.5 1-1 1.2-1.3 1.2v4zm10.6-4h-10.6v4h10.6v-4zm-6.1-4.5c0 1.8.4 3.7 1.3 5.3.9 1.6 2.5 3.2 4.8 3.2v-4c-.3 0-.8-.2-1.3-1.2a7 7 0 01-.8-3.2h-4z" fill="#000" mask="url(#a)"/><mask id="b" maskUnits="userSpaceOnUse" x="166.9" y="22.8" width="19" height="7" fill="#000"><path fill="#fff" d="M166.9 22.8h19v7h-19z"/><path d="M168.9 26.8c0-1.1.9-2 2-2H181a2 2 0 012 2v.6H169v-.6z"/></mask><path d="M168.9 26.8c0-1.1.9-2 2-2H181a2 2 0 012 2v.6H169v-.6z" fill="#fff"/><path d="M168.9 26.8c0-1.1.9-2 2-2H181a2 2 0 012 2v.6H169v-.6z" stroke="#000" stroke-width="4" mask="url(#b)"/><path fill="#198754" fill-opacity=".8" d="M192 0h32v128h-32z"/><path fill-rule="evenodd" clip-rule="evenodd" d="M210.9 6.4a3 3 0 01-1.1 2.3l1.8 7.2 3.8-3.7a3 3 0 01-.3-1.3 3 3 0 012.9-3 3 3 0 012.8 3 3 3 0 01-3 3l-2.7 10H201l-2.7-10a3 3 0 01-2.6-3 3 3 0 012.8-3 3 3 0 012.9 3 3 3 0 01-.5 1.6l3.6 3.4 1.8-7.2a3 3 0 01-1-2.3 3 3 0 012.8-3 3 3 0 012.9 3z" fill="#fff"/><path d="M209.8 8.7L209 8l-.5.4.2.6 1-.3zm1.8 7.2l-1 .2.4 1.7 1.2-1.2-.6-.7zm3.8-3.7l.7.8.6-.6-.4-.6-.9.4zm2.4 1.6v-1h-.8l-.2.8 1 .2zm-2.7 10v1h.8l.2-.7-1-.2zm-14.2 0l-1 .3.2.8h.8v-1zm-2.7-10l1-.2-.2-.7h-.7v1zm2.6-1.3l-.8-.6-.5.7.6.6.7-.7zm3.6 3.4l-.6.7 1.2 1.2.4-1.7-1-.2zm1.8-7.2l1 .3.2-.6-.5-.4-.7.7zm4.2.8a4 4 0 001.5-3h-2A2 2 0 01209 8l1.3 1.5zm2.1 6.1l-1.8-7.1-1.9.5 1.8 7.1 2-.5zm2.3-4.1l-4 3.7 1.4 1.4 4-3.6-1.4-1.5zm-.7-.6c0 .6.2 1.2.4 1.8l1.8-1a2 2 0 01-.2-.8h-2zm3.9-4a4 4 0 00-3.9 4h2c0-1.2.9-2 1.9-2v-2zm3.8 4a4 4 0 00-3.8-4v2c1 0 1.8.8 1.8 2h2zm-3.8 4a4 4 0 003.8-4h-2a2 2 0 01-1.8 2v2zm-.3 0h.3v-2h-.2v2zm-1.6 9.2l2.6-10-1.9-.5-2.7 10 2 .5zm-15.2.8H215v-2H201v2zM197.3 14l2.6 10 2-.5-2.7-10-2 .5zm1-1.3a2 2 0 01-1.7-2h-2a4 4 0 003.6 4v-2zm-1.7-2c0-1 .8-2 1.8-2v-2a4 4 0 00-3.8 4h2zm1.8-2c1 0 1.9 1 1.9 2h2a4 4 0 00-3.9-4v2zm1.9 2c0 .5-.1.8-.3 1.1l1.7 1.1a4 4 0 00.6-2.1h-2zm4.8 4.4l-3.6-3.5-1.4 1.5 3.7 3.4 1.3-1.4zm.2-6.7l-1.8 7.1 2 .5 1.7-7.1-2-.5zm-1.2-2a4 4 0 001.5 3l1.3-1.5a2 2 0 01-.8-1.6h-2zm3.9-4a4 4 0 00-3.9 4h2c0-1.2 1-2 1.9-2v-2zm3.9 4a4 4 0 00-3.9-4v2c1 0 1.9.8 1.9 2h2z" fill="#000"/><mask id="c" maskUnits="userSpaceOnUse" x="196.2" y="21.9" width="24" height="8" fill="#000"><path fill="#fff" d="M196.2 21.9h24v8h-24z"/><path d="M198.2 25.9c0-1.1 1-2 2-2h15.6a2 2 0 012 2v1.5h-19.6V26z"/></mask><path d="M198.2 25.9c0-1.1 1-2 2-2h15.6a2 2 0 012 2v1.5h-19.6V26z" fill="#fff"/><path d="M198.2 25.9c0-1.1 1-2 2-2h15.6a2 2 0 012 2v1.5h-19.6V26z" stroke="#000" stroke-width="4" mask="url(#c)"/><mask id="d" maskUnits="userSpaceOnUse" x="199.7" y="43.2" width="17" height="15" fill="#000"><path fill="#fff" d="M199.7 43.2h17v15h-17z"/><path d="M204 45.2h7.6l1.7 10.7h-10.6l1.3-10.7z"/></mask><path d="M204 45.2h7.6l1.7 10.7h-10.6l1.3-10.7z" fill="#fff"/><path d="M204 45.2h7.6l1.7 10.7h-10.6l1.3-10.7z" stroke="#000" stroke-width="4" mask="url(#d)"/><mask id="e" maskUnits="userSpaceOnUse" x="198.9" y="36.1" width="19" height="12" fill="#000"><path fill="#fff" d="M198.9 36.1h19v12h-19z"/><path d="M200.9 38.1h1.4l1.4 3.9h2.5l1-3.9h1.5l1 3.9h2.6l1.4-3.9h1.4v7.1H201v-7z"/></mask><path d="M200.9 38.1h1.4l1.4 3.9h2.5l1-3.9h1.5l1 3.9h2.6l1.4-3.9h1.4v7.1H201v-7z" fill="#fff"/><path d="M200.9 38.1h1.4l1.4 3.9h2.5l1-3.9h1.5l1 3.9h2.6l1.4-3.9h1.4v7.1H201v-7z" stroke="#000" stroke-width="4" mask="url(#e)"/><mask id="f" maskUnits="userSpaceOnUse" x="196.2" y="53.9" width="24" height="8" fill="#000"><path fill="#fff" d="M196.2 53.9h24v8h-24z"/><path d="M198.2 57.9c0-1.1 1-2 2-2h15.6a2 2 0 012 2v1.5h-19.6V58z"/></mask><path d="M198.2 57.9c0-1.1 1-2 2-2h15.6a2 2 0 012 2v1.5h-19.6V58z" fill="#fff"/><path d="M198.2 57.9c0-1.1 1-2 2-2h15.6a2 2 0 012 2v1.5h-19.6V58z" stroke="#000" stroke-width="4" mask="url(#f)"/><mask id="g" maskUnits="userSpaceOnUse" x="197" y="66.3" width="21" height="23" fill="#000"><path fill="#fff" d="M197 66.3h21v23h-21z"/><path d="M211.8 87h-7.6l-.3-.4c-.5-.9-.3-2 .5-2.7 3-2.7 4-5.3 4-5.3s0-1.4-2.7-2.2l-2.1 1.4-2.3 1.6s-2-1.8-1-3 1-2 2-3.2c1.1-1.4 3.4-3.2 3.4-3.2s1-1.7 2-1.7C207 70 209 70 209 70c14 0 2.8 17 2.8 17z"/></mask><path d="M211.8 87h-7.6l-.3-.4c-.5-.9-.3-2 .5-2.7 3-2.7 4-5.3 4-5.3s0-1.4-2.7-2.2l-2.1 1.4-2.3 1.6s-2-1.8-1-3 1-2 2-3.2c1.1-1.4 3.4-3.2 3.4-3.2s1-1.7 2-1.7C207 70 209 70 209 70c14 0 2.8 17 2.8 17z" fill="#fff"/><path d="M211.8 87h-7.6l-.3-.4c-.5-.9-.3-2 .5-2.7 3-2.7 4-5.3 4-5.3s0-1.4-2.7-2.2l-2.1 1.4-2.3 1.6s-2-1.8-1-3 1-2 2-3.2c1.1-1.4 3.4-3.2 3.4-3.2s1-1.7 2-1.7C207 70 209 70 209 70c14 0 2.8 17 2.8 17z" stroke="#000" stroke-width="4" mask="url(#g)"/><mask id="h" maskUnits="userSpaceOnUse" x="196.2" y="85.9" width="24" height="8" fill="#000"><path fill="#fff" d="M196.2 85.9h24v8h-24z"/><path d="M198.2 89.9c0-1.1 1-2 2-2h15.6a2 2 0 012 2v1.5h-19.6V90z"/></mask><path d="M198.2 89.9c0-1.1 1-2 2-2h15.6a2 2 0 012 2v1.5h-19.6V90z" fill="#fff"/><path d="M198.2 89.9c0-1.1 1-2 2-2h15.6a2 2 0 012 2v1.5h-19.6V90z" stroke="#000" stroke-width="4" mask="url(#h)"/><path d="M203.6 72.8l.8-.5v.4c0 .5-.4 1-1 1h-.3l.5-1z" fill="#000"/><mask id="i" maskUnits="userSpaceOnUse" x="197.9" y="98.3" width="20" height="25" fill="#000"><path fill="#fff" d="M197.9 98.3h20v25h-20z"/><path fill-rule="evenodd" clip-rule="evenodd" d="M208.6 103.5c.5-.3 1-.9 1-1.5 0-1-.8-1.7-1.6-1.7-.9 0-1.6.8-1.6 1.7 0 .7.4 1.2 1 1.5l-6.5 9.4s3.1 7.5 7 7.5c4-.1 7.3-7.7 7.3-7.7l-6.6-9.2z"/></mask><path fill-rule="evenodd" clip-rule="evenodd" d="M208.6 103.5c.5-.3 1-.9 1-1.5 0-1-.8-1.7-1.6-1.7-.9 0-1.6.8-1.6 1.7 0 .7.4 1.2 1 1.5l-6.5 9.4s3.1 7.5 7 7.5c4-.1 7.3-7.7 7.3-7.7l-6.6-9.2z" fill="#fff"/><path d="M208.6 103.5l-.9-1.9-2.2 1 1.5 2 1.6-1.1zm-1.2 0l1.6 1.1 1.4-2-2.2-1-.8 1.9zm-6.5 9.4l-1.7-1.2-.6 1 .4 1 1.9-.8zm7 7.5l.1 2v-2zm7.3-7.7l1.9.8.4-1-.6-1-1.7 1.2zm-7.7-10.7c0-.1 0-.3.2-.4l1.7 3.7c1.3-.6 2.1-1.9 2.1-3.3h-4zm.5.3l-.4-.1v-.2h4c0-2-1.6-3.7-3.6-3.7v4zm.4-.3v.2l-.4.1v-4c-2.1 0-3.6 1.8-3.6 3.7h4zm-.2-.4c.2.1.2.3.2.4h-4c0 1.4.9 2.8 2.2 3.3l1.6-3.7zm-5.7 12.4l6.5-9.4-3.3-2.3-6.5 9.4 3.3 2.3zm5.4 4.4c-.3 0-.8-.2-1.4-.7-.7-.6-1.3-1.3-1.9-2.2a21.2 21.2 0 01-1.7-3.1l-.1-.2v-.1l-2 .8-1.8.7a5.8 5.8 0 00.2.4 24.1 24.1 0 002 3.8l2.7 3c1 .8 2.5 1.6 4.1 1.6v-4zm7.3-5.7l-1.8-.8a12.3 12.3 0 01-.5 1l-1.4 2.5c-.7.8-1.3 1.6-2 2.2-.7.6-1.2.8-1.6.8l.1 4c1.6 0 3-.9 4-1.7 1.1-1 2-2 2.7-3a26.8 26.8 0 002.3-4.1v-.1l-1.8-.8zm-8.2-8l6.6 9.1 3.3-2.3-6.7-9.2-3.2 2.3z" fill="#000" mask="url(#i)"/><mask id="j" maskUnits="userSpaceOnUse" x="196.2" y="117.9" width="24" height="8" fill="#000"><path fill="#fff" d="M196.2 117.9h24v8h-24z"/><path d="M198.2 121.9c0-1.1 1-2 2-2h15.6a2 2 0 012 2v1.5h-19.6V122z"/></mask><path d="M198.2 121.9c0-1.1 1-2 2-2h15.6a2 2 0 012 2v1.5h-19.6V122z" fill="#fff"/><path d="M198.2 121.9c0-1.1 1-2 2-2h15.6a2 2 0 012 2v1.5h-19.6V122z" stroke="#000" stroke-width="4" mask="url(#j)"/><path d="M208 110.1l3.6-2.7 1.3 1.8-4.9 3.6V110z" fill="#000"/></svg>