<svg width="321" height="289" fill="none" xmlns="http://www.w3.org/2000/svg"><g clip-path="url(#clip0)"><path fill="#FEE6C1" d="M32.75.28h256v256h-256z"/><path d="M32.75 224.28h32v32h-32v-32zM32.75 96.28h32v32h-32v-32zM32.75 160.28h32v32h-32v-32zM32.75 32.28h32v32h-32v-32zM64.75 192.28h32v32h-32v-32zM64.75 64.28h32v32h-32v-32zM64.75 128.28h32v32h-32v-32zM64.75.28h32v32h-32v-32zM160.75 224.28h32v32h-32v-32zM160.75 96.28h32v32h-32v-32zM160.75 160.28h32v32h-32v-32zM160.75 32.28h32v32h-32v-32zM192.75 192.28h32v32h-32v-32zM192.75 64.28h32v32h-32v-32zM192.75 128.28h32v32h-32v-32zM192.75.28h32v32h-32v-32zM96.75 224.28h32v32h-32v-32zM96.75 96.28h32v32h-32v-32zM96.75 160.28h32v32h-32v-32zM96.75 32.28h32v32h-32v-32zM128.75 192.28h32v32h-32v-32zM128.75 64.28h32v32h-32v-32zM128.75 128.28h32v32h-32v-32zM128.75.28h32v32h-32v-32zM224.75 224.28h32v32h-32v-32zM224.75 96.28h32v32h-32v-32zM224.75 160.28h32v32h-32v-32zM224.75 32.28h32v32h-32v-32zM256.75 192.28h32v32h-32v-32zM256.75 64.28h32v32h-32v-32zM256.75 128.28h32v32h-32v-32zM256.75.28h32v32h-32v-32z" fill="#866C4A"/><path d="M14.17 237.64v-2.54h4.43v11.68h-2.84v-9.14h-1.59zM12.8 212.58l.5-.4a58.94 58.94 0 002.46-2.13c.61-.55 1.12-1.13 1.54-1.74.41-.6.62-1.2.62-1.78 0-.43-.1-.77-.3-1.02-.2-.24-.5-.37-.91-.37-.41 0-.73.16-.96.47-.23.3-.34.72-.34 1.28h-2.64c.02-.9.21-1.67.58-2.27.37-.61.85-1.06 1.45-1.35.61-.29 1.28-.43 2.02-.43 1.27 0 2.22.32 2.86.97.65.66.98 1.5.98 2.55 0 1.14-.4 2.2-1.17 3.18-.78.97-1.77 1.92-2.98 2.85h4.32v2.23H12.8v-2.04zM12.72 174.4a3.52 3.52 0 011.12-2.65c.7-.62 1.66-.93 2.86-.93.8 0 1.49.14 2.05.42a2.96 2.96 0 011.75 2.75c0 .7-.18 1.28-.53 1.73-.35.44-.76.74-1.23.9v.06c.6.2 1.08.54 1.44 1 .35.48.52 1.08.52 1.81a3.07 3.07 0 01-1.8 2.94c-.56.3-1.25.44-2.05.44a4.7 4.7 0 01-3.07-.94c-.76-.63-1.16-1.58-1.2-2.85h2.65c.01.47.15.84.4 1.12.26.27.63.4 1.12.4.42 0 .74-.12.96-.35.24-.25.35-.57.35-.96 0-.51-.16-.88-.5-1.1-.31-.24-.83-.36-1.54-.36h-.52v-2.22h.52c.54 0 .98-.1 1.3-.28.35-.19.52-.52.52-1 0-.39-.1-.69-.32-.9a1.2 1.2 0 00-.88-.32c-.4 0-.7.12-.91.37-.2.25-.3.55-.34.91h-2.67zM12.12 148.7v-2.21l5.05-7.24h3.06v7.08h1.31v2.36h-1.31v2.09h-2.74v-2.09h-5.37zm5.57-6.44l-2.7 4.07h2.7v-4.07zM20.49 108.48h-5v2.2c.22-.23.52-.42.9-.57.39-.15.8-.22 1.25-.22a3.19 3.19 0 013.15 1.95c.25.58.37 1.2.37 1.87 0 1.25-.35 2.24-1.06 2.98-.7.72-1.7 1.09-2.97 1.09a5.3 5.3 0 01-2.23-.44c-.62-.3-1.11-.7-1.45-1.23a3.54 3.54 0 01-.56-1.8h2.67c.06.32.22.6.46.83.25.2.59.31 1.01.31.5 0 .88-.16 1.12-.48.25-.31.37-.74.37-1.28 0-.52-.13-.92-.38-1.2-.26-.27-.63-.41-1.12-.41-.37 0-.66.09-.9.27-.23.17-.39.4-.46.69h-2.64v-6.96h7.47v2.4zM18.15 77.25a1.6 1.6 0 00-.45-.88c-.21-.2-.52-.3-.91-.3-.6 0-1.04.26-1.31.8-.27.52-.4 1.35-.42 2.49a2.4 2.4 0 011.01-.88c.45-.21.94-.32 1.47-.32a3.3 3.3 0 012.51 1c.64.65.96 1.58.96 2.76 0 .78-.16 1.46-.48 2.05a3.3 3.3 0 01-1.37 1.37c-.6.33-1.3.5-2.13.5-1.64 0-2.78-.51-3.42-1.54-.64-1.03-.96-2.51-.96-4.44 0-2.03.33-3.54 1-4.52.69-.99 1.78-1.48 3.27-1.48.8 0 1.47.16 2.01.48.56.3.98.72 1.25 1.23.29.5.46 1.07.51 1.68h-2.54zm-1.26 3.07c-.46 0-.85.14-1.16.42-.3.26-.44.65-.44 1.15 0 .5.14.9.41 1.2.29.29.7.43 1.22.43.47 0 .84-.14 1.1-.42.28-.28.42-.67.42-1.16 0-.5-.14-.9-.4-1.19-.27-.29-.65-.43-1.15-.43zM20.64 44.14l-4.01 9.64h-2.8l4.06-9.33h-4.98V42.1h7.73v2.03zM14.2 16.5c-1-.53-1.5-1.37-1.5-2.5a2.86 2.86 0 011.8-2.71c.61-.3 1.36-.43 2.24-.43.89 0 1.63.14 2.23.43a2.86 2.86 0 011.8 2.7 2.83 2.83 0 01-1.5 2.51 3.06 3.06 0 011.8 2.85 3.37 3.37 0 01-2.15 3.22c-.65.29-1.38.43-2.18.43-.8 0-1.53-.14-2.19-.43a3.37 3.37 0 01-2.13-3.22 3.04 3.04 0 011.78-2.85zm3.92-2.1c0-.43-.13-.77-.38-1a1.34 1.34 0 00-1-.37c-.41 0-.75.12-1 .37-.25.24-.37.59-.37 1.02 0 .42.13.75.38 1 .26.23.59.35 1 .35.4 0 .73-.13.99-.37.25-.25.38-.58.38-1zm-1.38 3.29c-.5 0-.9.14-1.21.41-.31.27-.47.64-.47 1.12 0 .45.15.82.45 1.1.31.3.72.44 1.23.44.52 0 .92-.14 1.2-.43.3-.3.45-.66.45-1.1 0-.48-.15-.85-.46-1.13-.3-.27-.7-.41-1.19-.41zM273.84 269.25c1.02 0 1.84.34 2.46 1.02.62.68.93 1.6.93 2.79v5.21h-2.72v-4.84c0-.6-.15-1.06-.46-1.4-.31-.32-.73-.5-1.25-.5-.53 0-.94.18-1.25.5-.31.34-.47.8-.47 1.4v4.84h-2.73v-11.83h2.73v4.1c.28-.39.66-.7 1.14-.94a3.64 3.64 0 011.62-.35zM239.7 269.22c.63 0 1.18.13 1.65.38.48.26.85.6 1.1 1.01v-1.26h2.74v8.9a4.9 4.9 0 01-.5 2.23c-.32.67-.81 1.2-1.48 1.6-.67.4-1.5.6-2.48.6-1.33 0-2.4-.32-3.22-.95a3.5 3.5 0 01-1.4-2.53h2.7c.08.35.28.61.6.8.32.2.72.3 1.19.3.56 0 1.01-.16 1.34-.49.34-.32.51-.84.51-1.55V277a3.08 3.08 0 01-2.75 1.4 3.7 3.7 0 01-3.42-2.17 5.51 5.51 0 01-.51-2.44c0-.91.17-1.72.5-2.41.36-.7.83-1.23 1.43-1.6a3.7 3.7 0 012-.56zm2.75 4.6c0-.7-.19-1.23-.57-1.63-.38-.39-.83-.59-1.38-.59-.54 0-1 .2-1.39.6a2.2 2.2 0 00-.56 1.6c0 .68.19 1.22.56 1.63.38.4.85.59 1.4.59.54 0 1-.2 1.37-.6.38-.39.57-.93.57-1.6zM211.34 271.62h-1.47v6.65h-2.74v-6.65h-1v-2.27h1v-.26c0-1.1.31-1.93.94-2.5.63-.57 1.56-.86 2.77-.86.2 0 .35 0 .45.02v2.32c-.52-.03-.9.04-1.1.22-.22.18-.32.5-.32.98v.08h1.47v2.27zM181.23 273.67c0 .25-.02.52-.05.8h-6.2c.05.55.23.98.53 1.28.32.29.71.43 1.17.43.69 0 1.16-.29 1.43-.87h2.9a3.93 3.93 0 01-.8 1.59c-.4.47-.88.84-1.46 1.1a4.7 4.7 0 01-1.97.4c-.88 0-1.66-.18-2.34-.56a3.98 3.98 0 01-1.6-1.6c-.38-.69-.57-1.5-.57-2.43 0-.93.18-1.74.56-2.43a4 4 0 011.6-1.6 4.83 4.83 0 012.35-.56c.86 0 1.63.18 2.3.54.67.37 1.2.88 1.57 1.56.38.67.58 1.45.58 2.35zm-2.8-.72c0-.47-.16-.84-.48-1.12a1.77 1.77 0 00-1.2-.42c-.46 0-.85.13-1.17.4-.31.27-.5.65-.58 1.14h3.43zM139.77 273.8c0-.92.17-1.73.5-2.42.36-.7.83-1.23 1.43-1.6a3.7 3.7 0 013.6-.2c.5.25.88.58 1.15 1v-4.14h2.74v11.83h-2.74V277c-.25.42-.62.76-1.1 1.02-.47.25-1.02.38-1.65.38a3.7 3.7 0 01-3.42-2.17 5.51 5.51 0 01-.51-2.44zm6.68.01c0-.68-.19-1.22-.57-1.62-.38-.39-.83-.59-1.38-.59-.54 0-1 .2-1.39.6a2.2 2.2 0 00-.56 1.6c0 .68.19 1.22.56 1.63.38.4.85.59 1.4.59.54 0 1-.2 1.37-.6.38-.39.57-.93.57-1.6zM108.35 273.81c0-.93.19-1.74.56-2.43.39-.7.91-1.23 1.59-1.6a4.8 4.8 0 012.33-.56c1.12 0 2.06.3 2.8.88a4.13 4.13 0 011.49 2.48h-2.91c-.25-.68-.72-1.02-1.43-1.02-.5 0-.9.2-1.2.59-.3.38-.44.94-.44 1.66 0 .73.15 1.29.44 1.68.3.38.7.58 1.2.58.7 0 1.18-.34 1.43-1.03h2.91a4.18 4.18 0 01-1.49 2.47c-.75.6-1.69.9-2.8.9-.87 0-1.65-.2-2.33-.57a4 4 0 01-1.59-1.6c-.37-.69-.56-1.5-.56-2.43zM79.05 270.61c.25-.42.62-.75 1.1-1a3.45 3.45 0 011.65-.4 3.7 3.7 0 013.4 2.17c.36.7.53 1.5.53 2.42 0 .91-.17 1.72-.52 2.43a3.7 3.7 0 01-3.4 2.18 3.5 3.5 0 01-1.66-.37c-.47-.26-.84-.6-1.1-1.01v1.25H76.3v-11.84h2.74v4.17zm3.9 3.19c0-.69-.2-1.22-.58-1.6-.37-.4-.83-.6-1.39-.6-.54 0-1 .2-1.39.6-.37.39-.56.93-.56 1.61s.19 1.22.56 1.62c.38.4.85.59 1.4.59.54 0 1-.2 1.38-.6.39-.4.58-.94.58-1.63zM43.77 273.8c0-.92.17-1.73.5-2.42.36-.7.83-1.23 1.43-1.6a3.7 3.7 0 012-.56c.63 0 1.18.13 1.65.38.48.26.85.6 1.1 1.01v-1.26h2.74v8.92h-2.74v-1.26c-.26.42-.64.75-1.12 1a3.66 3.66 0 01-3.63-.18 4.05 4.05 0 01-1.42-1.6 5.5 5.5 0 01-.51-2.44zm6.68.01c0-.68-.19-1.22-.57-1.62-.38-.39-.83-.59-1.38-.59-.54 0-1 .2-1.39.6a2.2 2.2 0 00-.56 1.6c0 .68.19 1.22.56 1.63.38.4.85.59 1.4.59.54 0 1-.2 1.37-.6.38-.39.57-.93.57-1.6z" fill="#000"/><path fill="#E94E58" fill-opacity=".75" d="M128.75 128.28h32v32h-32z"/><mask id="a" maskUnits="userSpaceOnUse" x="131.59" y="128.83" width="26" height="26" fill="#000"><path fill="#fff" d="M131.59 128.83h26v26h-26z"/><path fill-rule="evenodd" clip-rule="evenodd" d="M151.86 152.16l2.93-7.98a2 2 0 00-1.02-2.5c-3.56-1.68-5.71-2.62-8.1-2.81v-3.6h2.79v-1.77h-2.78v-2.67h-1.86v2.67h-2.78v1.78h2.78v3.59c-2.38.2-4.53 1.13-8.1 2.81a2 2 0 00-1.01 2.5l2.93 7.98h14.22zm-8.9-10.72c-1.11.2-2.38.56-4.03 1.1a1.99 1.99 0 00-1.16 2.79l1.64 3.28h3.56v-7.17zm7.6 1.1c-1.65-.53-2.91-.9-4.03-1.1v7.17h3.55l1.64-3.28c.54-1.09 0-2.4-1.15-2.78z"/></mask><path fill-rule="evenodd" clip-rule="evenodd" d="M151.86 152.16l2.93-7.98a2 2 0 00-1.02-2.5c-3.56-1.68-5.71-2.62-8.1-2.81v-3.6h2.79v-1.77h-2.78v-2.67h-1.86v2.67h-2.78v1.78h2.78v3.59c-2.38.2-4.53 1.13-8.1 2.81a2 2 0 00-1.01 2.5l2.93 7.98h14.22zm-8.9-10.72c-1.11.2-2.38.56-4.03 1.1a1.99 1.99 0 00-1.16 2.79l1.64 3.28h3.56v-7.17zm7.6 1.1c-1.65-.53-2.91-.9-4.03-1.1v7.17h3.55l1.64-3.28c.54-1.09 0-2.4-1.15-2.78z" fill="#5C5C5C"/><path d="M143.9 139.87c.57-.05 1.13-.05 1.7 0l.16-2c-.68-.05-1.35-.05-2.02 0l.16 2zm10.89 4.31l1.87.69-1.87-.69zm-2.93 7.98v2h1.4l.48-1.3-1.88-.7zm1.9-10.47l.86-1.81-.85 1.8zm-8.08-2.82h-2v1.84l1.83.15.17-2zm0-3.6v-2h-2v2h2zm2.78 0v2h2v-2h-2zm0-1.77h2v-2h-2v2zm-2.78 0h-2v2h2v-2zm0-2.67h2v-2h-2v2zm-1.86 0v-2h-2v2h2zm0 2.67v2h2v-2h-2zm-2.78 0v-2h-2v2h2zm0 1.78h-2v2h2v-2zm2.78 0h2v-2h-2v2zm0 3.59l.16 2 1.84-.16v-1.84h-2zm-8.1 2.81l.86 1.81-.85-1.8zm-1.01 2.5l1.88-.69-1.88.69zm2.93 7.98l-1.88.7.48 1.3h1.4v-2zm1.29-9.61l-.63-1.9.63 1.9zm4.04-1.1h2v-2.38l-2.34.4.34 1.97zm-5.2 3.88l1.8-.9-1.8.9zm1.64 3.28l-1.78.9.55 1.1h1.23v-2zm3.56 0v2h2v-2h-2zm3.56-7.17l.33-1.97-2.34-.4v2.38h2zm4.04 1.1l.62-1.9-.62 1.9zm-4.04 6.07h-2v2h2v-2zm3.55 0v2h1.24l.55-1.1-1.79-.9zm1.64-3.28l1.79.9-1.79-.9zm1.19-1.84l-2.93 7.99 3.76 1.37 2.92-7.98-3.75-1.38zm0 0l3.75 1.38a4 4 0 00-2.04-5l-1.71 3.62zm-7.4-2.63c1.96.16 3.79.92 7.4 2.63l1.71-3.61c-3.5-1.66-5.98-2.78-8.78-3l-.33 3.98zm-1.83-5.58v3.59h4v-3.6h-4zm4.78-2h-2.78v4h2.78v-4zm-2 .22v1.78h4v-1.78h-4zm-.78 2h2.78v-4h-2.78v4zm-2-4.67v2.67h4v-2.67h-4zm.14 2h1.86v-4h-1.86v4zm2 .67v-2.67h-4v2.67h4zm-4.78 2h2.78v-4h-2.78v4zm2-.22v-1.78h-4v1.78h4zm.78-2h-2.78v4h2.78v-4zm2 5.59v-3.6h-4v3.6h4zm-9.24 4.62c3.62-1.7 5.44-2.47 7.4-2.63l-.32-3.98c-2.8.22-5.28 1.34-8.79 3l1.71 3.61zm0 0l-1.7-3.61a4 4 0 00-2.05 4.99l3.76-1.38zm2.93 7.99l-2.92-7.99-3.76 1.38 2.93 7.98 3.75-1.37zm12.35-1.32h-14.22v4h14.22v-4zm-12.31-5.71c1.64-.54 2.79-.87 3.76-1.03l-.68-3.95c-1.28.22-2.66.63-4.32 1.18l1.24 3.8zm.01-.02v.01h-.01l-1.25-3.8a3.99 3.99 0 00-2.31 5.58l3.57-1.79zm1.64 3.28l-1.64-3.28-3.57 1.8 1.63 3.27 3.58-1.79zm1.77-1.1h-3.56v4h3.56v-4zm-2-5.17v7.17h4v-7.17h-4zm5.22 1.98c.97.16 2.11.49 3.76 1.03l1.24-3.8a31.28 31.28 0 00-4.33-1.18l-.67 3.95zm2.34 5.19v-7.17h-4v7.17h4zm1.55-2h-3.56v4h3.56v-4zm-.15-2.18l-1.64 3.28 3.58 1.8 1.64-3.29-3.58-1.79zm.02.02l-.01-.01c0-.01 0 0 0 0l3.57 1.78a4 4 0 00-2.32-5.57l-1.24 3.8z" fill="#000" mask="url(#a)"/><path d="M154.53 156.72h1v-2.56a3 3 0 00-3-3h-15.56a3 3 0 00-3 3v2.56h20.56z" fill="#5C5C5C" stroke="#000" stroke-width="2"/><mask id="b" maskUnits="userSpaceOnUse" x="195.59" y="128.83" width="26" height="26" fill="#000"><path fill="#fff" d="M195.59 128.83h26v26h-26z"/><path fill-rule="evenodd" clip-rule="evenodd" d="M215.86 152.16l2.93-7.98a2 2 0 00-1.02-2.5c-3.56-1.68-5.71-2.62-8.1-2.81v-3.6h2.79v-1.77h-2.78v-2.67h-1.86v2.67h-2.78v1.78h2.78v3.59c-2.38.2-4.53 1.13-8.1 2.81a2 2 0 00-1.01 2.5l2.93 7.98h14.22zm-8.89-10.72c-1.12.2-2.39.56-4.04 1.1a1.99 1.99 0 00-1.16 2.79l1.64 3.28h3.56v-7.17zm7.6 1.1c-1.66-.53-2.92-.9-4.04-1.1v7.17h3.55l1.64-3.28c.54-1.09 0-2.4-1.15-2.78z"/></mask><path fill-rule="evenodd" clip-rule="evenodd" d="M215.86 152.16l2.93-7.98a2 2 0 00-1.02-2.5c-3.56-1.68-5.71-2.62-8.1-2.81v-3.6h2.79v-1.77h-2.78v-2.67h-1.86v2.67h-2.78v1.78h2.78v3.59c-2.38.2-4.53 1.13-8.1 2.81a2 2 0 00-1.01 2.5l2.93 7.98h14.22zm-8.89-10.72c-1.12.2-2.39.56-4.04 1.1a1.99 1.99 0 00-1.16 2.79l1.64 3.28h3.56v-7.17zm7.6 1.1c-1.66-.53-2.92-.9-4.04-1.1v7.17h3.55l1.64-3.28c.54-1.09 0-2.4-1.15-2.78z" fill="#fff"/><path d="M207.9 139.87c.57-.05 1.13-.05 1.7 0l.16-2c-.68-.05-1.35-.05-2.02 0l.16 2zm10.89 4.31l1.87.69-1.87-.69zm-2.93 7.98v2h1.4l.48-1.3-1.88-.7zm1.9-10.47l.86-1.81-.85 1.8zm-8.08-2.82h-2v1.84l1.83.15.17-2zm0-3.6v-2h-2v2h2zm2.78 0v2h2v-2h-2zm0-1.77h2v-2h-2v2zm-2.78 0h-2v2h2v-2zm0-2.67h2v-2h-2v2zm-1.86 0v-2h-2v2h2zm0 2.67v2h2v-2h-2zm-2.78 0v-2h-2v2h2zm0 1.78h-2v2h2v-2zm2.78 0h2v-2h-2v2zm0 3.59l.16 2 1.84-.16v-1.84h-2zm-8.1 2.81l.86 1.81-.85-1.8zm-1.01 2.5l1.88-.69-1.88.69zm2.93 7.98l-1.88.7.48 1.3h1.4v-2zm1.29-9.61l-.63-1.9.63 1.9zm4.04-1.1h2v-2.38l-2.34.4.34 1.97zm-5.2 3.88l1.8-.9-1.8.9zm1.64 3.28l-1.78.9.55 1.1h1.23v-2zm3.56 0v2h2v-2h-2zm3.56-7.17l.33-1.97-2.34-.4v2.38h2zm4.04 1.1l-.62 1.9.62-1.9zm-4.04 6.07h-2v2h2v-2zm3.55 0v2h1.24l.55-1.1-1.79-.9zm1.64-3.28l1.79.9-1.79-.9zm1.19-1.84l-2.93 7.99 3.76 1.37 2.92-7.98-3.75-1.38zm0 0l3.75 1.38a4 4 0 00-2.04-5l-1.71 3.62zm-7.4-2.63c1.96.16 3.79.92 7.4 2.63l1.71-3.61c-3.5-1.66-5.98-2.78-8.78-3l-.33 3.98zm-1.83-5.58v3.59h4v-3.6h-4zm4.78-2h-2.78v4h2.78v-4zm-2 .22v1.78h4v-1.78h-4zm-.78 2h2.78v-4h-2.78v4zm-2-4.67v2.67h4v-2.67h-4zm.14 2h1.86v-4h-1.86v4zm2 .67v-2.67h-4v2.67h4zm-4.78 2h2.78v-4h-2.78v4zm2-.22v-1.78h-4v1.78h4zm.78-2h-2.78v4h2.78v-4zm2 5.59v-3.6h-4v3.6h4zm-9.24 4.62c3.62-1.7 5.44-2.47 7.4-2.63l-.32-3.98c-2.8.22-5.28 1.34-8.79 3l1.71 3.61zm0 0l-1.7-3.61a4 4 0 00-2.05 4.99l3.76-1.38zm2.93 7.99l-2.92-7.99-3.76 1.38 2.93 7.98 3.75-1.37zm12.35-1.32h-14.22v4h14.22v-4zm-12.31-5.71c1.64-.54 2.79-.87 3.76-1.03l-.68-3.95a31.3 31.3 0 00-4.32 1.18l1.24 3.8zm.01-.02v.01h-.01l-1.25-3.8a3.99 3.99 0 00-2.31 5.58l3.57-1.79zm1.64 3.28l-1.64-3.28-3.57 1.8 1.63 3.27 3.58-1.79zm1.77-1.1h-3.56v4h3.56v-4zm-2-5.17v7.17h4v-7.17h-4zm5.22 1.98c.97.16 2.11.49 3.76 1.03l1.24-3.8a31.28 31.28 0 00-4.33-1.18l-.67 3.95zm2.34 5.19v-7.17h-4v7.17h4zm1.55-2h-3.56v4h3.56v-4zm-.15-2.18l-1.64 3.28 3.58 1.8 1.64-3.29-3.58-1.79zm.02.02l-.01-.01c0-.01 0 0 0 0l3.57 1.78a4 4 0 00-2.32-5.57l-1.24 3.8z" fill="#000" mask="url(#b)"/><path d="M218.53 156.72h1v-2.56a3 3 0 00-3-3h-15.56a3 3 0 00-3 3v2.56h20.56z" fill="#fff" stroke="#000" stroke-width="2"/><mask id="c" maskUnits="userSpaceOnUse" x="234.41" y="41.72" width="12" height="18" fill="#000"><path fill="#fff" d="M234.41 41.72h12v18h-12z"/><path fill-rule="evenodd" clip-rule="evenodd" d="M241.92 50.63a3.56 3.56 0 10-2.33 0c.03 2.85-1.48 6.42-4.18 6.42h10.67c-2.7 0-4.18-3.58-4.16-6.42z"/></mask><path fill-rule="evenodd" clip-rule="evenodd" d="M241.92 50.63a3.56 3.56 0 10-2.33 0c.03 2.85-1.48 6.42-4.18 6.42h10.67c-2.7 0-4.18-3.58-4.16-6.42z" fill="#5C5C5C"/><path d="M241.92 50.63l-.66-1.88-1.34.46v1.41l2 .01zm-2.33 0h2l-.01-1.42-1.34-.46-.65 1.89zm2.71-3.35c0 .67-.43 1.25-1.04 1.47l1.31 3.77a5.56 5.56 0 003.73-5.24h-4zm-1.55-1.56c.86 0 1.55.7 1.55 1.56h4a5.56 5.56 0 00-5.55-5.56v4zm-1.56 1.56c0-.86.7-1.56 1.56-1.56v-4a5.56 5.56 0 00-5.56 5.56h4zm1.05 1.47a1.56 1.56 0 01-1.05-1.47h-4c0 2.44 1.57 4.5 3.75 5.25l1.3-3.78zm-4.83 10.3c2.36 0 3.96-1.57 4.85-3.15.9-1.59 1.35-3.54 1.33-5.28l-4 .04a6.82 6.82 0 01-.8 3.26c-.53.93-1.03 1.13-1.38 1.13v4zm10.67-4h-10.67v4h10.67v-4zm-6.16-4.43c-.01 1.73.42 3.68 1.32 5.27.89 1.57 2.48 3.16 4.84 3.16v-4c-.33 0-.83-.2-1.36-1.13a6.96 6.96 0 01-.8-3.27l-4-.03z" fill="#000" mask="url(#c)"/><path d="M247.86 60.72h1v-1.67a3 3 0 00-3-3h-10.22a3 3 0 00-3 3v1.67h15.22z" fill="#5C5C5C" stroke="#000" stroke-width="2"/><mask id="d" maskUnits="userSpaceOnUse" x="266.41" y="169.72" width="12" height="18" fill="#000"><path fill="#fff" d="M266.41 169.72h12v18h-12z"/><path fill-rule="evenodd" clip-rule="evenodd" d="M273.92 178.63a3.56 3.56 0 10-2.33 0c.03 2.86-1.48 6.42-4.18 6.42h10.67c-2.7 0-4.18-3.58-4.16-6.42z"/></mask><path fill-rule="evenodd" clip-rule="evenodd" d="M273.92 178.63a3.56 3.56 0 10-2.33 0c.03 2.86-1.48 6.42-4.18 6.42h10.67c-2.7 0-4.18-3.58-4.16-6.42z" fill="#5C5C5C"/><path d="M273.92 178.63l-.66-1.88-1.34.46v1.41l2 .01zm-2.33 0h2l-.01-1.42-1.34-.46-.65 1.89zm2.71-3.35c0 .67-.43 1.25-1.04 1.47l1.31 3.77a5.56 5.56 0 003.73-5.25h-4zm-1.55-1.56c.86 0 1.55.7 1.55 1.56h4a5.56 5.56 0 00-5.55-5.56v4zm-1.56 1.56c0-.86.7-1.56 1.56-1.56v-4a5.55 5.55 0 00-5.56 5.56h4zm1.05 1.47a1.56 1.56 0 01-1.05-1.47h-4c0 2.44 1.57 4.5 3.75 5.25l1.3-3.78zm-4.83 10.3c2.36 0 3.96-1.57 4.85-3.15.9-1.59 1.35-3.54 1.33-5.28l-4 .04a6.82 6.82 0 01-.8 3.26c-.53.93-1.03 1.13-1.38 1.13v4zm10.67-4h-10.67v4h10.67v-4zm-6.16-4.43c-.01 1.73.42 3.68 1.32 5.27.89 1.57 2.48 3.16 4.84 3.16v-4c-.33 0-.83-.2-1.36-1.13a6.96 6.96 0 01-.8-3.27l-4-.03z" fill="#000" mask="url(#d)"/><path d="M279.86 188.72h1v-1.67a3 3 0 00-3-3h-10.22a3 3 0 00-3 3v1.67h15.22z" fill="#5C5C5C" stroke="#000" stroke-width="2"/><path d="M144.75 225.28l8.66-15h-17.32l8.66 15zm-1.5-145v131.5h3V80.28h-3z" fill="#FFC107"/><mask id="e" maskUnits="userSpaceOnUse" x="266.41" y="201.72" width="12" height="18" fill="#000"><path fill="#fff" d="M266.41 201.72h12v18h-12z"/><path fill-rule="evenodd" clip-rule="evenodd" d="M273.92 210.63a3.56 3.56 0 10-2.33 0c.03 2.86-1.48 6.42-4.18 6.42h10.67c-2.7 0-4.18-3.58-4.16-6.42z"/></mask><path fill-rule="evenodd" clip-rule="evenodd" d="M273.92 210.63a3.56 3.56 0 10-2.33 0c.03 2.86-1.48 6.42-4.18 6.42h10.67c-2.7 0-4.18-3.58-4.16-6.42z" fill="#fff"/><path d="M273.92 210.63l-.66-1.88-1.34.46v1.41l2 .01zm-2.33 0h2l-.01-1.42-1.34-.46-.65 1.89zm2.71-3.35c0 .67-.43 1.25-1.04 1.47l1.31 3.77a5.56 5.56 0 003.73-5.25h-4zm-1.55-1.56c.86 0 1.55.7 1.55 1.56h4a5.56 5.56 0 00-5.55-5.56v4zm-1.56 1.56c0-.86.7-1.56 1.56-1.56v-4a5.55 5.55 0 00-5.56 5.56h4zm1.05 1.47a1.56 1.56 0 01-1.05-1.47h-4c0 2.44 1.57 4.5 3.75 5.25l1.3-3.78zm-4.83 10.3c2.36 0 3.96-1.57 4.85-3.15.9-1.59 1.35-3.54 1.33-5.28l-4 .04a6.82 6.82 0 01-.8 3.26c-.53.93-1.03 1.13-1.38 1.13v4zm10.67-4h-10.67v4h10.67v-4zm-6.16-4.43c-.01 1.73.42 3.68 1.32 5.27.89 1.57 2.48 3.16 4.84 3.16v-4c-.33 0-.83-.2-1.36-1.13a6.96 6.96 0 01-.8-3.27l-4-.03z" fill="#000" mask="url(#e)"/><path d="M279.86 220.72h1v-1.67a3 3 0 00-3-3h-10.22a3 3 0 00-3 3v1.67h15.22zM108.75 108.5h-.89l-.1.87-1.34 10.67-.14 1.12h12.98l-.2-1.16-1.77-10.67-.14-.83h-8.4z" fill="#fff" stroke="#000" stroke-width="2"/><path d="M105.64 101.39h-1v9.1h16.22v-9.1h-3.12l-.24.65-1.19 3.24h-1.02l-.87-3.16-.2-.73H111.27l-.2.73-.86 3.16h-1.03l-1.18-3.24-.24-.65h-2.12zM122.53 124.72h1v-2.56a3 3 0 00-3-3h-15.56a3 3 0 00-3 3v2.56h20.56z" fill="#fff" stroke="#000" stroke-width="2"/><path fill-rule="evenodd" clip-rule="evenodd" d="M147.6 230.68a3 3 0 01-1.09 2.33l1.8 7.15 3.88-3.65a3.03 3.03 0 01-.33-1.38 2.91 2.91 0 012.85-2.97 2.91 2.91 0 012.86 2.97 2.91 2.91 0 01-3.04 2.95l-2.67 10.08h-14.22l-2.67-10.08a2.92 2.92 0 01-2.67-2.95 2.91 2.91 0 012.86-2.97 2.91 2.91 0 012.86 2.97c0 .6-.17 1.15-.46 1.61l3.63 3.42 1.79-7.15a3 3 0 01-1.09-2.33 2.91 2.91 0 012.86-2.96 2.91 2.91 0 012.85 2.96z" fill="#5C5C5C"/><path d="M146.51 233.01l-.63-.77-.49.4.15.61.97-.24zm1.8 7.15l-.98.25.42 1.65 1.24-1.17-.69-.73zm3.88-3.65l.68.73.55-.52-.34-.66-.9.45zm2.34 1.57l.06-1-.82-.05-.21.8.97.25zm-2.67 10.08v1h.77l.2-.74-.97-.26zm-14.22 0l-.97.26.2.74h.77v-1zm-2.67-10.08l.96-.25-.18-.7-.71-.04-.07 1zm2.59-1.34l-.85-.53-.44.7.6.56.69-.73zm3.63 3.42l-.68.73 1.24 1.17.41-1.65-.97-.25zm1.79-7.15l.97.24.15-.61-.49-.4-.63.77zm4.17.78a4 4 0 001.45-3.1h-2a2 2 0 01-.72 1.55l1.27 1.54zm2.12 6.13l-1.78-7.15-1.95.48 1.8 7.16 1.93-.49zm2.23-4.14l-3.88 3.66 1.37 1.45 3.88-3.65-1.37-1.46zm-.64-.65c0 .66.16 1.28.44 1.83l1.78-.9a2.04 2.04 0 01-.22-.93h-2zm3.85-3.97a3.91 3.91 0 00-3.85 3.97h2c0-1.12.86-1.97 1.85-1.97v-2zm3.86 3.97c0-2.16-1.69-3.97-3.85-3.97v2c.99 0 1.85.85 1.85 1.97h2zm-3.85 3.96c2.16 0 3.85-1.8 3.85-3.96h-2c0 1.12-.86 1.96-1.85 1.96v2zm-.26 0h.25v-2h-.12l-.13 2zm-1.64 9.33l2.67-10.08-1.93-.51-2.67 10.08 1.94.51zm-15.18.74h14.22v-2h-14.22v2zM134 238.34l2.67 10.08 1.93-.51-2.67-10.08-1.93.5zm1.04-1.25a1.92 1.92 0 01-1.74-1.96h-2a3.92 3.92 0 003.6 3.95l.14-2zm-1.74-1.96c0-1.12.87-1.97 1.86-1.97v-2a3.91 3.91 0 00-3.86 3.97h2zm1.86-1.97c1 0 1.86.85 1.86 1.97h2c0-2.16-1.7-3.97-3.86-3.97v2zm1.86 1.97c0 .4-.12.77-.31 1.08l1.7 1.06c.38-.62.6-1.36.6-2.14h-2zm4.86 4.3l-3.64-3.42-1.37 1.46 3.64 3.42 1.37-1.45zm.13-6.66l-1.79 7.15 1.94.49 1.79-7.16-1.94-.48zm-1.12-2.09a4 4 0 001.46 3.1l1.26-1.54a2 2 0 01-.72-1.56h-2zm3.86-3.96a3.91 3.91 0 00-3.86 3.96h2c0-1.12.87-1.96 1.86-1.96v-2zm3.85 3.96c0-2.15-1.69-3.96-3.85-3.96v2c.99 0 1.85.84 1.85 1.96h2z" fill="#000"/><path d="M154.53 252.72h1v-2.56a3 3 0 00-3-3h-15.56a3 3 0 00-3 3v2.56h20.56z" fill="#5C5C5C" stroke="#000" stroke-width="2"/><path fill="#198754" fill-opacity=".75" d="M96.75 64.28h32v32h-32z"/><path stroke="#FD7E14" stroke-width="2" stroke-dasharray="5 3" d="M112.75 81.28h22"/><path d="M140.75 76.5h-.88l-.12.87-1.33 10.67-.14 1.12h12.98l-.2-1.16-1.77-10.67-.14-.83h-8.4z" fill="#fff" stroke="#000" stroke-width="2"/><path d="M137.64 69.39h-1v9.1h16.22v-9.1h-3.12l-.24.65-1.19 3.24h-1.02l-.87-3.16-.2-.73H143.27l-.2.73-.86 3.16h-1.03L140 70.04l-.24-.65h-2.12zM154.53 92.72h1v-2.56a3 3 0 00-3-3h-15.56a3 3 0 00-3 3v2.56h20.56z" fill="#fff" stroke="#000" stroke-width="2"/></g><defs><clipPath id="clip0"><path fill="#fff" transform="translate(.75 .28)" d="M0 0h320v288H0z"/></clipPath></defs></svg>