<svg width="321" height="289" fill="none" xmlns="http://www.w3.org/2000/svg"><g clip-path="url(#clip0)"><path fill="#FEE6C1" d="M32.38.96h256v256h-256z"/><path d="M32.38 224.96h32v32h-32v-32zM32.38 96.96h32v32h-32v-32zM32.38 160.96h32v32h-32v-32zM32.38 32.96h32v32h-32v-32zM64.38 192.96h32v32h-32v-32zM64.38 64.96h32v32h-32v-32zM64.38 128.96h32v32h-32v-32zM64.38.96h32v32h-32v-32zM160.38 224.96h32v32h-32v-32zM160.38 96.96h32v32h-32v-32zM160.38 160.96h32v32h-32v-32zM160.38 32.96h32v32h-32v-32zM192.38 192.96h32v32h-32v-32zM192.38 64.96h32v32h-32v-32zM192.38 128.96h32v32h-32v-32zM192.38.96h32v32h-32v-32zM96.38 224.96h32v32h-32v-32zM96.38 96.96h32v32h-32v-32zM96.38 160.96h32v32h-32v-32zM96.38 32.96h32v32h-32v-32zM128.38 192.96h32v32h-32v-32zM128.38 64.96h32v32h-32v-32zM128.38 128.96h32v32h-32v-32zM128.38.96h32v32h-32v-32zM224.38 224.96h32v32h-32v-32zM224.38 96.96h32v32h-32v-32zM224.38 160.96h32v32h-32v-32zM224.38 32.96h32v32h-32v-32zM256.38 192.96h32v32h-32v-32zM256.38 64.96h32v32h-32v-32zM256.38 128.96h32v32h-32v-32zM256.38.96h32v32h-32v-32z" fill="#866C4A"/><path d="M13.8 238.32v-2.54h4.43v11.68H15.4v-9.14H13.8zM12.43 213.27l.5-.4a58.94 58.94 0 002.46-2.13c.6-.55 1.12-1.14 1.54-1.74.41-.61.62-1.2.62-1.78 0-.44-.1-.78-.3-1.02-.2-.25-.51-.37-.92-.37-.4 0-.72.15-.96.46-.22.3-.33.73-.33 1.28H12.4c.02-.9.21-1.66.57-2.27.38-.6.86-1.06 1.46-1.34.6-.3 1.28-.44 2.02-.44 1.27 0 2.22.33 2.86.98.65.65.98 1.5.98 2.54 0 1.15-.4 2.2-1.17 3.19-.78.97-1.77 1.92-2.98 2.85h4.32v2.22h-8.03v-2.03zM12.35 175.08a3.52 3.52 0 011.12-2.64c.7-.62 1.66-.93 2.86-.93.8 0 1.49.14 2.05.41a2.96 2.96 0 011.75 2.76c0 .7-.18 1.28-.53 1.72-.35.44-.77.74-1.23.9v.06c.6.2 1.08.54 1.44 1.01.35.47.52 1.07.52 1.81a3.07 3.07 0 01-1.8 2.94c-.56.3-1.25.44-2.05.44a4.7 4.7 0 01-3.07-.95c-.76-.63-1.16-1.58-1.2-2.85h2.65c.01.47.15.85.4 1.12.26.27.63.4 1.12.4.42 0 .74-.11.96-.35.24-.24.35-.56.35-.96 0-.51-.16-.88-.5-1.1-.31-.24-.83-.35-1.54-.35h-.52v-2.23h.52c.54 0 .98-.09 1.3-.27.35-.2.52-.53.52-1 0-.4-.1-.69-.32-.9a1.2 1.2 0 00-.88-.32c-.4 0-.71.12-.91.36-.2.25-.3.55-.34.92h-2.67zM11.75 149.38v-2.2l5.05-7.24h3.06v7.07h1.31v2.37h-1.31v2.08h-2.74v-2.08h-5.37zm5.56-6.43L14.63 147h2.68v-4.06zM20.12 109.16h-5v2.21c.22-.23.52-.42.9-.57.39-.15.8-.23 1.25-.23.8 0 1.46.18 1.98.55.54.36.93.83 1.17 1.4.25.58.37 1.2.37 1.88 0 1.24-.35 2.24-1.06 2.97-.7.73-1.7 1.09-2.97 1.09a5.3 5.3 0 01-2.23-.43c-.63-.3-1.11-.71-1.45-1.23a3.54 3.54 0 01-.56-1.81h2.67c.06.33.22.6.46.83.25.21.59.32 1.01.32.5 0 .88-.16 1.12-.48.25-.32.37-.75.37-1.28 0-.52-.13-.92-.38-1.2-.26-.28-.63-.42-1.12-.42-.37 0-.67.1-.9.28-.23.17-.39.4-.46.68h-2.64v-6.96h7.47v2.4zM17.78 77.93a1.6 1.6 0 00-.45-.88c-.21-.2-.52-.3-.91-.3-.6 0-1.05.27-1.31.8-.27.52-.4 1.35-.42 2.5a2.4 2.4 0 011-.89c.46-.2.95-.32 1.48-.32a3.3 3.3 0 012.51 1c.64.66.96 1.58.96 2.76 0 .78-.16 1.47-.48 2.05a3.3 3.3 0 01-1.37 1.38c-.6.33-1.3.5-2.13.5-1.64 0-2.78-.52-3.42-1.54-.64-1.04-.96-2.52-.96-4.45 0-2.03.33-3.53 1-4.51.69-1 1.77-1.49 3.27-1.49.8 0 1.47.16 2.01.48.56.31.97.72 1.25 1.23.29.51.46 1.07.51 1.68h-2.54zM16.52 81c-.46 0-.85.14-1.16.42-.3.27-.44.65-.44 1.15 0 .51.13.91.41 1.2.29.29.7.43 1.22.43.47 0 .83-.13 1.1-.41.28-.29.42-.68.42-1.17 0-.5-.14-.9-.4-1.18-.27-.3-.65-.44-1.15-.44zM20.27 44.83l-4.01 9.63h-2.8l4.06-9.33h-4.98V42.8h7.73v2.03zM13.83 17.19c-1-.53-1.5-1.37-1.5-2.51a2.86 2.86 0 011.8-2.7c.61-.3 1.36-.44 2.24-.44.89 0 1.63.14 2.23.43.6.28 1.06.66 1.36 1.14.3.47.45.99.45 1.57a2.7 2.7 0 01-.42 1.5c-.27.43-.63.76-1.09 1a3.06 3.06 0 011.8 2.85 3.37 3.37 0 01-2.15 3.22c-.65.29-1.38.43-2.18.43-.8 0-1.53-.14-2.19-.43a3.37 3.37 0 01-2.13-3.22 3.04 3.04 0 011.78-2.85zm3.92-2.1c0-.43-.13-.77-.38-1a1.34 1.34 0 00-1-.37c-.41 0-.75.12-1 .36-.25.25-.37.6-.37 1.03 0 .41.13.75.38.99.26.24.59.35 1 .35.4 0 .73-.12.99-.37.25-.24.38-.57.38-.99zm-1.38 3.28c-.5 0-.9.14-1.21.42-.31.27-.47.64-.47 1.12 0 .45.15.81.45 1.1.31.29.72.43 1.23.43.52 0 .92-.14 1.2-.43.3-.29.45-.65.45-1.1 0-.47-.15-.84-.46-1.12-.3-.28-.7-.42-1.19-.42zM273.47 269.94c1.02 0 1.84.34 2.46 1.02.62.67.93 1.6.93 2.78v5.22h-2.72v-4.85c0-.6-.16-1.06-.47-1.39-.3-.33-.72-.5-1.24-.5-.53 0-.94.17-1.25.5-.31.33-.47.8-.47 1.4v4.84h-2.73v-11.84h2.73v4.11c.28-.4.66-.7 1.14-.94a3.64 3.64 0 011.62-.35zM239.33 269.9c.63 0 1.18.13 1.65.39.48.25.85.59 1.1 1v-1.26h2.74v8.91a4.9 4.9 0 01-.5 2.23c-.32.67-.81 1.2-1.48 1.6-.67.4-1.5.59-2.49.59-1.32 0-2.39-.31-3.21-.94a3.5 3.5 0 01-1.4-2.53h2.7c.08.34.28.6.6.8.32.2.72.3 1.19.3.56 0 1.01-.16 1.34-.5.34-.31.51-.83.51-1.55v-1.26a3.08 3.08 0 01-2.75 1.4 3.7 3.7 0 01-3.42-2.17 5.51 5.51 0 01-.51-2.43c0-.92.17-1.72.5-2.42.36-.69.83-1.22 1.43-1.6a3.7 3.7 0 012-.56zm2.75 4.6c0-.69-.19-1.23-.57-1.62-.38-.4-.83-.6-1.38-.6-.54 0-1 .2-1.4.6a2.2 2.2 0 00-.55 1.6c0 .68.19 1.23.56 1.63.38.4.85.6 1.4.6.54 0 1-.2 1.37-.6.38-.4.57-.93.57-1.61zM210.97 272.3h-1.48v6.66h-2.73v-6.66h-1v-2.27h1v-.25c0-1.1.31-1.93.94-2.5.63-.58 1.55-.86 2.77-.86l.45.01v2.32c-.52-.03-.9.05-1.1.23-.22.18-.33.5-.33.97v.08h1.48v2.27zM180.85 274.35c0 .26-.01.52-.04.8h-6.2c.05.56.22.98.53 1.28.32.29.71.43 1.17.43.68 0 1.16-.28 1.43-.86h2.9a3.93 3.93 0 01-.8 1.58c-.4.47-.88.84-1.47 1.1a4.7 4.7 0 01-1.96.4c-.88 0-1.66-.18-2.34-.55a3.98 3.98 0 01-1.6-1.6c-.38-.7-.57-1.5-.57-2.43 0-.93.18-1.74.56-2.44a4 4 0 011.6-1.6 4.83 4.83 0 012.35-.56c.86 0 1.63.19 2.3.55.67.36 1.2.88 1.57 1.55.38.67.57 1.46.57 2.35zm-2.8-.72c0-.47-.16-.84-.48-1.12a1.77 1.77 0 00-1.2-.41c-.45 0-.84.13-1.16.4-.31.26-.5.64-.58 1.13h3.43zM139.4 274.48c0-.92.17-1.72.5-2.42.36-.69.83-1.22 1.43-1.6a3.7 3.7 0 013.6-.19c.5.25.88.58 1.15 1v-4.15h2.74v11.84h-2.74v-1.28c-.25.43-.62.77-1.1 1.02-.47.26-1.02.39-1.65.39a3.7 3.7 0 01-3.42-2.18 5.51 5.51 0 01-.51-2.43zm6.68.02c0-.69-.19-1.23-.57-1.62-.38-.4-.83-.6-1.38-.6-.54 0-1 .2-1.4.6a2.2 2.2 0 00-.55 1.6c0 .68.19 1.23.56 1.63.38.4.85.6 1.4.6.54 0 1-.2 1.37-.6.38-.4.57-.93.57-1.61zM107.98 274.5c0-.93.19-1.74.56-2.44.38-.69.91-1.22 1.58-1.6a4.8 4.8 0 012.34-.56c1.12 0 2.06.3 2.8.88a4.13 4.13 0 011.49 2.48h-2.91c-.25-.68-.72-1.02-1.43-1.02-.5 0-.9.2-1.2.6-.3.38-.44.93-.44 1.66 0 .72.15 1.28.44 1.68.3.38.7.57 1.2.57.7 0 1.18-.34 1.43-1.02h2.9a4.18 4.18 0 01-1.48 2.46c-.76.6-1.69.9-2.8.9-.87 0-1.65-.19-2.33-.56a4 4 0 01-1.59-1.6c-.37-.7-.56-1.5-.56-2.43zM78.68 271.3c.25-.42.62-.76 1.1-1.01a3.45 3.45 0 011.65-.39 3.7 3.7 0 013.4 2.16c.36.7.53 1.5.53 2.42 0 .92-.17 1.73-.52 2.43a3.7 3.7 0 01-3.4 2.18 3.5 3.5 0 01-1.66-.37c-.47-.26-.84-.6-1.1-1v1.24h-2.74v-11.84h2.74v4.18zm3.9 3.18c0-.68-.2-1.22-.58-1.6-.37-.4-.83-.6-1.39-.6-.54 0-1 .2-1.4.6-.36.4-.55.93-.55 1.62 0 .68.19 1.22.56 1.61.38.4.85.6 1.4.6.54 0 1-.2 1.38-.6.39-.4.58-.95.58-1.63zM43.4 274.48c0-.92.17-1.72.5-2.42.36-.69.83-1.22 1.43-1.6a3.7 3.7 0 012-.56c.63 0 1.18.13 1.65.39.48.25.85.59 1.1 1v-1.26h2.74v8.93h-2.74v-1.26c-.26.41-.64.75-1.12 1-.47.26-1.02.39-1.64.39-.73 0-1.4-.19-1.99-.56a4.05 4.05 0 01-1.42-1.62 5.5 5.5 0 01-.51-2.43zm6.68.02c0-.69-.19-1.23-.57-1.62-.38-.4-.83-.6-1.38-.6-.54 0-1 .2-1.4.6a2.2 2.2 0 00-.55 1.6c0 .68.19 1.23.56 1.63.38.4.85.6 1.4.6.54 0 1-.2 1.37-.6.38-.4.57-.93.57-1.61z" fill="#000"/><path fill="#E94E58" fill-opacity=".75" d="M192.38 64.96h32v32h-32z"/><mask id="a" maskUnits="userSpaceOnUse" x="102.27" y="67.29" width="20" height="25" fill="#000"><path fill="#fff" d="M102.27 67.29h20v25h-20z"/><path fill-rule="evenodd" clip-rule="evenodd" d="M112.96 72.42c.54-.25.93-.82.93-1.5 0-.9-.7-1.63-1.55-1.63a1.6 1.6 0 00-1.55 1.64c0 .68.4 1.27.97 1.51l-6.5 9.39s3.13 7.54 7.1 7.49c3.96-.06 7.27-7.69 7.27-7.69l-6.67-9.2z"/></mask><path fill-rule="evenodd" clip-rule="evenodd" d="M112.96 72.42c.54-.25.93-.82.93-1.5 0-.9-.7-1.63-1.55-1.63a1.6 1.6 0 00-1.55 1.64c0 .68.4 1.27.97 1.51l-6.5 9.39s3.13 7.54 7.1 7.49c3.96-.06 7.27-7.69 7.27-7.69l-6.67-9.2z" fill="#5C5C5C"/><path d="M112.96 72.42l-.84-1.81-2.2 1.02 1.42 1.97 1.62-1.18zm-1.2.02l1.64 1.14 1.4-2.01-2.25-.97-.79 1.84zm-6.5 9.39l-1.64-1.14-.62.9.42 1 1.85-.76zm7.1 7.49l.02 2-.03-2zm7.27-7.69l1.83.8.45-1.05-.66-.92-1.62 1.17zm-7.74-10.7c0-.1.05-.24.23-.32l1.68 3.63a3.64 3.64 0 002.09-3.31h-4zm.45.36a.5.5 0 01-.36-.14.33.33 0 01-.1-.22h4c0-1.9-1.48-3.64-3.54-3.64v4zm.45-.36c0 .06-.02.14-.09.22a.5.5 0 01-.36.14v-4a3.59 3.59 0 00-3.55 3.64h4zm-.24-.33c.19.08.24.23.24.33h-4c0 1.46.86 2.78 2.18 3.35l1.58-3.68zm-5.64 12.37l6.5-9.4-3.3-2.27-6.49 9.4 3.3 2.27zm5.41 4.35c-.33 0-.82-.16-1.48-.7-.64-.53-1.28-1.3-1.86-2.15a21.2 21.2 0 01-1.75-3.14l-.1-.2a2.36 2.36 0 01-.01-.06l-1.85.76-1.85.77.01.03a13.46 13.46 0 00.6 1.27c.38.76.94 1.78 1.64 2.82.69 1.02 1.58 2.13 2.63 3a6.33 6.33 0 004.08 1.6l-.06-4zm7.3-5.69l-1.83-.8v.01l-.03.05-.1.22c-.08.19-.22.46-.39.8-.34.66-.84 1.54-1.44 2.4a11.4 11.4 0 01-1.95 2.25c-.69.57-1.2.75-1.56.76l.06 4a6.57 6.57 0 004.06-1.7c1.06-.88 1.97-2 2.68-3.03a27.1 27.1 0 002.3-4.05c0-.03.02-.06.03-.08v-.02l.01-.01-1.83-.8zm-8.28-8.03l6.67 9.2 3.24-2.34-6.67-9.21-3.24 2.35z" fill="#000" mask="url(#a)"/><path d="M122.16 93.4h1v-2.55a3 3 0 00-3-3H104.6a3 3 0 00-3 3v2.56h20.56z" fill="#5C5C5C" stroke="#000" stroke-width="2"/><path d="M112.38 79.07l3.55-2.67 1.34 1.78-4.9 3.56v-2.67z" fill="#000"/><mask id="b" maskUnits="userSpaceOnUse" x="38.27" y="99.29" width="20" height="25" fill="#000"><path fill="#fff" d="M38.27 99.29h20v25h-20z"/><path fill-rule="evenodd" clip-rule="evenodd" d="M48.96 104.42c.54-.25.92-.82.92-1.5 0-.9-.69-1.63-1.54-1.63a1.6 1.6 0 00-1.55 1.64c0 .68.4 1.27.97 1.51l-6.5 9.39s3.13 7.54 7.1 7.49c3.96-.06 7.27-7.69 7.27-7.69l-6.67-9.2z"/></mask><path fill-rule="evenodd" clip-rule="evenodd" d="M48.96 104.42c.54-.25.92-.82.92-1.5 0-.9-.69-1.63-1.54-1.63a1.6 1.6 0 00-1.55 1.64c0 .68.4 1.27.97 1.51l-6.5 9.39s3.13 7.54 7.1 7.49c3.96-.06 7.27-7.69 7.27-7.69l-6.67-9.2z" fill="#5C5C5C"/><path d="M48.96 104.42l-.84-1.81-2.2 1.02 1.42 1.97 1.62-1.18zm-1.2.02l1.64 1.14 1.4-2.02-2.25-.96-.79 1.84zm-6.5 9.39l-1.64-1.14-.62.9.42 1 1.85-.76zm7.1 7.49l.02 2-.03-2zm7.27-7.69l1.83.8.45-1.05-.66-.92-1.62 1.17zm-7.75-10.7c0-.1.06-.24.24-.32l1.68 3.63a3.64 3.64 0 002.09-3.31h-4zm.46.36a.5.5 0 01-.36-.14.33.33 0 01-.1-.22h4c0-1.9-1.48-3.64-3.54-3.64v4zm.45-.36c0 .06-.02.14-.09.22a.5.5 0 01-.36.14v-4a3.59 3.59 0 00-3.55 3.64h4zm-.24-.33c.19.08.24.23.24.33h-4c0 1.46.86 2.78 2.18 3.35l1.58-3.68zm-5.64 12.37l6.5-9.4-3.3-2.27-6.49 9.4 3.3 2.27zm5.41 4.35c-.33 0-.82-.15-1.48-.7a10.4 10.4 0 01-1.86-2.15 21.24 21.24 0 01-1.75-3.14l-.1-.2-.01-.06-1.85.76-1.85.77.01.03.04.08a18 18 0 00.56 1.2c.38.75.93 1.77 1.64 2.8a14.3 14.3 0 002.63 3 6.33 6.33 0 004.08 1.6l-.06-4zm7.3-5.69l-1.83-.8v.01l-.03.05a13.01 13.01 0 01-.49 1.01c-.35.67-.84 1.55-1.44 2.42-.6.88-1.27 1.67-1.95 2.24-.69.57-1.2.75-1.56.76l.06 4a6.57 6.57 0 004.06-1.7c1.06-.88 1.97-2 2.68-3.03a26.98 26.98 0 002.33-4.13v-.02l.01-.01-1.83-.8zm-8.28-8.03l6.67 9.2 3.24-2.34-6.67-9.21-3.24 2.35z" fill="#000" mask="url(#b)"/><path d="M58.16 125.4h1v-2.55a3 3 0 00-3-3H40.6a3 3 0 00-3 3v2.56h20.56z" fill="#5C5C5C" stroke="#000" stroke-width="2"/><path d="M48.38 111.07l3.55-2.66 1.34 1.77-4.9 3.56v-2.67z" fill="#000"/><mask id="c" maskUnits="userSpaceOnUse" x="195.22" y="66.52" width="26" height="26" fill="#000"><path fill="#fff" d="M195.22 66.52h26v26h-26z"/><path fill-rule="evenodd" clip-rule="evenodd" d="M215.49 89.85l2.92-7.98a2 2 0 00-1.01-2.5c-3.56-1.68-5.72-2.62-8.1-2.82v-3.59h2.79v-1.78h-2.79v-2.66h-1.85v2.66h-2.79v1.78h2.79v3.6c-2.38.19-4.54 1.13-8.1 2.81a2 2 0 00-1.01 2.5l2.92 7.98h14.23zm-8.9-10.72c-1.12.2-2.38.56-4.03 1.1a1.99 1.99 0 00-1.16 2.78l1.64 3.28h3.56v-7.16zm7.6 1.1c-1.65-.54-2.91-.9-4.04-1.1v7.16h3.56l1.64-3.28c.54-1.08 0-2.4-1.15-2.78z"/></mask><path fill-rule="evenodd" clip-rule="evenodd" d="M215.49 89.85l2.92-7.98a2 2 0 00-1.01-2.5c-3.56-1.68-5.72-2.62-8.1-2.82v-3.59h2.79v-1.78h-2.79v-2.66h-1.85v2.66h-2.79v1.78h2.79v3.6c-2.38.19-4.54 1.13-8.1 2.81a2 2 0 00-1.01 2.5l2.92 7.98h14.23zm-8.9-10.72c-1.12.2-2.38.56-4.03 1.1a1.99 1.99 0 00-1.16 2.78l1.64 3.28h3.56v-7.16zm7.6 1.1c-1.65-.54-2.91-.9-4.04-1.1v7.16h3.56l1.64-3.28c.54-1.08 0-2.4-1.15-2.78z" fill="#5C5C5C"/><path d="M207.53 77.55c.57-.05 1.13-.05 1.7 0l.16-2c-.68-.05-1.35-.05-2.02 0l.16 2zm10.88 4.31l1.88.7-1.88-.7zm-2.92 7.99v2h1.4l.48-1.31-1.88-.7zm1.9-10.48l.86-1.8-.85 1.8zm-8.09-2.82h-2v1.85l1.84.15.16-2zm0-3.59v-2h-2v2h2zm2.79 0v2h2v-2h-2zm0-1.78h2v-2h-2v2zm-2.79 0h-2v2h2v-2zm0-2.66h2v-2h-2v2zm-1.85 0v-2h-2v2h2zm0 2.66v2h2v-2h-2zm-2.79 0v-2h-2v2h2zm0 1.78h-2v2h2v-2zm2.79 0h2v-2h-2v2zm0 3.6l.16 1.99 1.84-.15v-1.85h-2zm-8.1 2.81l.86 1.8-.85-1.8zm-1.01 2.5l1.88-.7-1.88.7zm2.92 7.98l-1.87.69.48 1.3h1.4v-2zm1.3-9.62l-.63-1.9.63 1.9zm4.04-1.1h2v-2.37l-2.34.4.34 1.97zm-5.2 3.88l1.8-.9-1.8.9zm1.64 3.28l-1.79.9.56 1.1h1.23v-2zm3.56 0v2h2v-2h-2zm3.55-7.16l.34-1.97-2.34-.4v2.37h2zm4.05 1.1l.62-1.9-.62 1.9zm-4.05 6.06h-2v2h2v-2zm3.56 0v2h1.24l.55-1.1-1.79-.9zm1.64-3.28l1.79.9-1.79-.9zm1.19-1.83l-2.93 7.98 3.75 1.38 2.93-7.99-3.75-1.37zm0 0l3.75 1.37a4 4 0 00-2.04-4.99l-1.71 3.62zm-7.4-2.63c1.96.16 3.79.92 7.4 2.63l1.71-3.62c-3.5-1.65-5.98-2.77-8.78-3l-.33 3.99zm-1.84-5.59v3.6h4v-3.6h-4zm4.79-2h-2.79v4h2.79v-4zm-2 .22v1.78h4v-1.78h-4zm-.79 2h2.79v-4h-2.79v4zm-2-4.66v2.66h4v-2.66h-4zm.15 2h1.85v-4h-1.85v4zm2 .66v-2.66h-4v2.66h4zm-4.79 2h2.79v-4h-2.79v4zm2-.22v-1.78h-4v1.78h4zm.79-2h-2.79v4h2.79v-4zm2 5.6v-3.6h-4v3.6h4zm-9.24 4.62c3.61-1.71 5.44-2.47 7.4-2.63l-.33-3.99c-2.8.23-5.28 1.35-8.78 3l1.71 3.62zm0 0l-1.7-3.62a4 4 0 00-2.05 5l3.75-1.38zm2.93 7.98l-2.92-7.98-3.76 1.37 2.93 7.99 3.75-1.38zm12.35-1.31h-14.23v4h14.23v-4zm-12.31-5.72a27.7 27.7 0 013.76-1.03l-.68-3.94c-1.28.22-2.66.63-4.33 1.17l1.25 3.8zm.01-.01l-.01.01-1.25-3.8a3.99 3.99 0 00-2.32 5.58l3.58-1.8zm1.64 3.28l-1.64-3.28-3.58 1.79 1.64 3.28 3.58-1.8zm1.77-1.1h-3.56v4h3.56v-4zm-2-5.17v7.16h4v-7.16h-4zm5.22 1.97c.97.17 2.11.5 3.75 1.03l1.25-3.8a31.3 31.3 0 00-4.33-1.17l-.67 3.94zm2.33 5.2v-7.17h-4v7.16h4zm1.56-2h-3.56v4h3.56v-4zm-.15-2.18l-1.64 3.28 3.58 1.79 1.64-3.28-3.58-1.8zm.01.01c-.01 0-.01-.01 0 0v-.01l3.57 1.79a3.99 3.99 0 00-2.32-5.58l-1.25 3.8z" fill="#000" mask="url(#c)"/><path d="M218.16 94.4h1v-2.55a3 3 0 00-3-3H200.6a3 3 0 00-3 3v2.56h20.56z" fill="#5C5C5C" stroke="#000" stroke-width="2"/><mask id="d" maskUnits="userSpaceOnUse" x="227.22" y="225.52" width="26" height="26" fill="#000"><path fill="#fff" d="M227.22 225.52h26v26h-26z"/><path fill-rule="evenodd" clip-rule="evenodd" d="M247.49 248.85l2.92-7.98a2 2 0 00-1.01-2.5c-3.56-1.68-5.72-2.62-8.1-2.82v-3.59h2.79v-1.78h-2.79v-2.66h-1.85v2.66h-2.79v1.78h2.79v3.6c-2.38.19-4.54 1.13-8.1 2.81a2 2 0 00-1.01 2.5l2.92 7.98h14.23zm-8.9-10.72c-1.12.2-2.38.56-4.03 1.1a2 2 0 00-1.16 2.78l1.64 3.28h3.56v-7.16zm7.6 1.1a29.5 29.5 0 00-4.04-1.1v7.16h3.56l1.64-3.28c.54-1.08 0-2.4-1.15-2.78z"/></mask><path fill-rule="evenodd" clip-rule="evenodd" d="M247.49 248.85l2.92-7.98a2 2 0 00-1.01-2.5c-3.56-1.68-5.72-2.62-8.1-2.82v-3.59h2.79v-1.78h-2.79v-2.66h-1.85v2.66h-2.79v1.78h2.79v3.6c-2.38.19-4.54 1.13-8.1 2.81a2 2 0 00-1.01 2.5l2.92 7.98h14.23zm-8.9-10.72c-1.12.2-2.38.56-4.03 1.1a2 2 0 00-1.16 2.78l1.64 3.28h3.56v-7.16zm7.6 1.1a29.5 29.5 0 00-4.04-1.1v7.16h3.56l1.64-3.28c.54-1.08 0-2.4-1.15-2.78z" fill="#fff"/><path d="M239.53 236.55a10.4 10.4 0 011.7 0l.16-2c-.68-.05-1.35-.05-2.02 0l.16 2zm10.88 4.31l1.88.7-1.88-.7zm-2.92 7.99v2h1.4l.48-1.31-1.88-.7zm1.9-10.48l.86-1.8-.85 1.8zm-8.09-2.82h-2v1.85l1.84.15.16-2zm0-3.59v-2h-2v2h2zm2.79 0v2h2v-2h-2zm0-1.78h2v-2h-2v2zm-2.79 0h-2v2h2v-2zm0-2.66h2v-2h-2v2zm-1.85 0v-2h-2v2h2zm0 2.66v2h2v-2h-2zm-2.79 0v-2h-2v2h2zm0 1.78h-2v2h2v-2zm2.79 0h2v-2h-2v2zm0 3.6l.16 1.99 1.84-.15v-1.85h-2zm-8.1 2.81l.86 1.8-.85-1.8zm-1.01 2.5l1.88-.7-1.88.7zm2.92 7.98l-1.87.69.48 1.3h1.4v-2zm1.3-9.62l-.63-1.9.63 1.9zm4.04-1.1h2v-2.37l-2.34.4.34 1.97zm-5.2 3.88l1.8-.9-1.8.9zm1.64 3.28l-1.79.9.56 1.1h1.23v-2zm3.56 0v2h2v-2h-2zm3.55-7.16l.34-1.97-2.34-.4v2.37h2zm4.05 1.1l-.63 1.9.63-1.9zm-4.05 6.06h-2v2h2v-2zm3.56 0v2h1.24l.55-1.1-1.79-.9zm1.64-3.28l1.79.9-1.79-.9zm1.19-1.83l-2.93 7.98 3.75 1.38 2.93-7.99-3.75-1.37zm0 0l3.75 1.37a4 4 0 00-2.04-4.99l-1.71 3.62zm-7.4-2.63c1.96.16 3.79.92 7.4 2.63l1.71-3.62c-3.5-1.66-5.98-2.77-8.78-3l-.33 3.99zm-1.84-5.59v3.6h4v-3.6h-4zm4.79-2h-2.79v4h2.79v-4zm-2 .22v1.78h4v-1.78h-4zm-.79 2h2.79v-4h-2.79v4zm-2-4.66v2.66h4v-2.66h-4zm.15 2h1.85v-4h-1.85v4zm2 .66v-2.66h-4v2.66h4zm-4.79 2h2.79v-4h-2.79v4zm2-.22v-1.78h-4v1.78h4zm.79-2h-2.79v4h2.79v-4zm2 5.6v-3.6h-4v3.6h4zm-9.24 4.62c3.61-1.71 5.44-2.47 7.4-2.63l-.33-3.99c-2.8.23-5.28 1.34-8.78 3l1.71 3.62zm0 0l-1.7-3.62a4 4 0 00-2.05 5l3.75-1.38zm2.93 7.98l-2.92-7.98-3.76 1.37 2.93 7.99 3.75-1.38zm12.35-1.31h-14.23v4h14.23v-4zm-12.31-5.72a27.7 27.7 0 013.76-1.03l-.68-3.94c-1.28.22-2.66.63-4.33 1.17l1.25 3.8zm.01-.01l-.01.01-1.25-3.8a3.99 3.99 0 00-2.32 5.58l3.58-1.8zm1.64 3.28l-1.64-3.28-3.58 1.79 1.64 3.28 3.58-1.8zm1.77-1.1h-3.56v4h3.56v-4zm-2-5.17v7.16h4v-7.16h-4zm5.22 1.97c.97.17 2.11.5 3.75 1.03l1.25-3.8a31.28 31.28 0 00-4.33-1.17l-.67 3.94zm2.33 5.2v-7.17h-4v7.16h4zm1.56-2h-3.56v4h3.56v-4zm-.15-2.18l-1.64 3.28 3.58 1.79 1.64-3.28-3.58-1.8zm.01.01c-.01 0-.01-.01 0 0v-.01l3.57 1.79a4 4 0 00-2.32-5.58l-1.25 3.8z" fill="#000" mask="url(#d)"/><path d="M250.16 253.4h1v-2.55a3 3 0 00-3-3H232.6a3 3 0 00-3 3v2.56h20.56z" fill="#fff" stroke="#000" stroke-width="2"/><mask id="e" maskUnits="userSpaceOnUse" x="170.04" y="170.41" width="12" height="18" fill="#000"><path fill="#fff" d="M170.04 170.41h12v18h-12z"/><path fill-rule="evenodd" clip-rule="evenodd" d="M177.54 179.32a3.56 3.56 0 10-2.32 0c.03 2.85-1.48 6.42-4.18 6.42h10.67c-2.7 0-4.18-3.59-4.17-6.42z"/></mask><path fill-rule="evenodd" clip-rule="evenodd" d="M177.54 179.32a3.56 3.56 0 10-2.32 0c.03 2.85-1.48 6.42-4.18 6.42h10.67c-2.7 0-4.18-3.59-4.17-6.42z" fill="#fff"/><path d="M177.54 179.32l-.65-1.89-1.34.47v1.4l2 .02zm-2.32 0l2-.01-.01-1.42-1.34-.46-.65 1.9zm2.71-3.36c0 .68-.43 1.26-1.04 1.47l1.31 3.78a5.56 5.56 0 003.73-5.25h-4zm-1.55-1.56c.86 0 1.55.7 1.55 1.56h4a5.56 5.56 0 00-5.55-5.56v4zm-1.56 1.56c0-.86.7-1.56 1.56-1.56v-4a5.55 5.55 0 00-5.56 5.56h4zm1.05 1.47a1.56 1.56 0 01-1.05-1.47h-4c0 2.44 1.57 4.5 3.75 5.26l1.3-3.79zm-4.83 10.3c2.36 0 3.96-1.57 4.85-3.14.9-1.59 1.35-3.55 1.33-5.28l-4 .03a6.83 6.83 0 01-.8 3.27c-.53.92-1.03 1.13-1.38 1.13v4zm10.67-4h-10.67v4h10.67v-4zm-6.17-4.42c0 1.72.43 3.68 1.33 5.27.89 1.57 2.48 3.16 4.84 3.16v-4c-.33 0-.83-.2-1.36-1.13a6.95 6.95 0 01-.8-3.28l-4-.02z" fill="#000" mask="url(#e)"/><path d="M183.49 189.4h1V187.75a3 3 0 00-3-3h-10.22a3 3 0 00-3 3V189.4h15.22z" fill="#fff" stroke="#000" stroke-width="2"/><mask id="f" maskUnits="userSpaceOnUse" x="42.04" y="74.4" width="12" height="18" fill="#000"><path fill="#fff" d="M42.04 74.4h12v18h-12z"/><path fill-rule="evenodd" clip-rule="evenodd" d="M49.54 83.32a3.56 3.56 0 10-2.32 0c.03 2.85-1.48 6.42-4.18 6.42h10.67c-2.7 0-4.18-3.59-4.17-6.42z"/></mask><path fill-rule="evenodd" clip-rule="evenodd" d="M49.54 83.32a3.56 3.56 0 10-2.32 0c.03 2.85-1.48 6.42-4.18 6.42h10.67c-2.7 0-4.18-3.59-4.17-6.42z" fill="#5C5C5C"/><path d="M49.54 83.32l-.65-1.89-1.34.46v1.42l2 .01zm-2.32 0l2-.01-.01-1.42-1.34-.46-.65 1.9zm2.71-3.36c0 .68-.43 1.26-1.04 1.47l1.31 3.78a5.56 5.56 0 003.73-5.25h-4zm-1.55-1.56c.86 0 1.55.7 1.55 1.56h4a5.56 5.56 0 00-5.55-5.56v4zm-1.56 1.56c0-.86.7-1.56 1.56-1.56v-4a5.56 5.56 0 00-5.56 5.56h4zm1.05 1.47a1.56 1.56 0 01-1.05-1.47h-4c0 2.44 1.57 4.5 3.75 5.26l1.3-3.79zm-4.83 10.3c2.36 0 3.96-1.57 4.85-3.14.9-1.59 1.35-3.55 1.33-5.28l-4 .03a6.83 6.83 0 01-.8 3.27c-.53.92-1.04 1.13-1.38 1.13v4zm10.67-4H43.04v4h10.67v-4zm-6.17-4.42c0 1.72.43 3.68 1.33 5.27.89 1.57 2.48 3.16 4.84 3.16v-4c-.33 0-.83-.2-1.36-1.13a6.96 6.96 0 01-.8-3.28l-4-.02z" fill="#000" mask="url(#f)"/><path d="M55.49 93.4h1V91.74a3 3 0 00-3-3H43.27a3 3 0 00-3 3V93.4h15.22z" fill="#5C5C5C" stroke="#000" stroke-width="2"/><mask id="g" maskUnits="userSpaceOnUse" x="138.04" y="106.41" width="12" height="18" fill="#000"><path fill="#fff" d="M138.04 106.41h12v18h-12z"/><path fill-rule="evenodd" clip-rule="evenodd" d="M145.54 115.32a3.56 3.56 0 10-2.32 0c.03 2.85-1.48 6.42-4.18 6.42h10.67c-2.7 0-4.18-3.58-4.17-6.42z"/></mask><path fill-rule="evenodd" clip-rule="evenodd" d="M145.54 115.32a3.56 3.56 0 10-2.32 0c.03 2.85-1.48 6.42-4.18 6.42h10.67c-2.7 0-4.18-3.58-4.17-6.42z" fill="#5C5C5C"/><path d="M145.54 115.32l-.65-1.89-1.34.46v1.42l2 .01zm-2.32 0l2-.01-.01-1.42-1.34-.46-.65 1.9zm2.71-3.36c0 .68-.43 1.26-1.04 1.47l1.31 3.78a5.56 5.56 0 003.73-5.25h-4zm-1.55-1.55c.86 0 1.55.7 1.55 1.55h4a5.56 5.56 0 00-5.55-5.55v4zm-1.56 1.55c0-.86.7-1.55 1.56-1.55v-4a5.55 5.55 0 00-5.56 5.55h4zm1.05 1.47a1.56 1.56 0 01-1.05-1.47h-4c0 2.44 1.57 4.5 3.75 5.26l1.3-3.79zm-4.83 10.3c2.36 0 3.96-1.57 4.85-3.14.9-1.59 1.35-3.55 1.33-5.28l-4 .03a6.83 6.83 0 01-.8 3.27c-.53.92-1.03 1.13-1.38 1.13v4zm10.67-4h-10.67v4h10.67v-4zm-6.17-4.42c0 1.72.43 3.68 1.33 5.27.89 1.57 2.48 3.16 4.84 3.16v-4c-.33 0-.83-.2-1.36-1.13a6.95 6.95 0 01-.8-3.28l-4-.02z" fill="#000" mask="url(#g)"/><path d="M151.49 125.4h1V123.75a3 3 0 00-3-3h-10.22a3 3 0 00-3 3v1.67h15.22z" fill="#5C5C5C" stroke="#000" stroke-width="2"/><mask id="h" maskUnits="userSpaceOnUse" x="106.04" y="202.41" width="12" height="18" fill="#000"><path fill="#fff" d="M106.04 202.41h12v18h-12z"/><path fill-rule="evenodd" clip-rule="evenodd" d="M113.54 211.32a3.56 3.56 0 10-2.32 0c.03 2.85-1.48 6.42-4.18 6.42h10.67c-2.7 0-4.18-3.59-4.17-6.42z"/></mask><path fill-rule="evenodd" clip-rule="evenodd" d="M113.54 211.32a3.56 3.56 0 10-2.32 0c.03 2.85-1.48 6.42-4.18 6.42h10.67c-2.7 0-4.18-3.59-4.17-6.42z" fill="#5C5C5C"/><path d="M113.54 211.32l-.65-1.89-1.34.47v1.4l2 .02zm-2.32 0l2-.01-.01-1.42-1.34-.46-.65 1.9zm2.71-3.36c0 .68-.43 1.26-1.04 1.47l1.31 3.78a5.56 5.56 0 003.73-5.25h-4zm-1.55-1.56c.86 0 1.55.7 1.55 1.56h4a5.56 5.56 0 00-5.55-5.56v4zm-1.56 1.56c0-.86.7-1.56 1.56-1.56v-4a5.55 5.55 0 00-5.56 5.56h4zm1.05 1.47a1.56 1.56 0 01-1.05-1.47h-4c0 2.44 1.57 4.5 3.75 5.26l1.3-3.79zm-4.83 10.3c2.36 0 3.96-1.57 4.85-3.14.9-1.59 1.35-3.55 1.33-5.28l-4 .03a6.83 6.83 0 01-.8 3.27c-.53.92-1.03 1.13-1.38 1.13v4zm10.67-4h-10.67v4h10.67v-4zm-6.16-4.42c-.02 1.72.42 3.68 1.32 5.27.89 1.57 2.48 3.16 4.84 3.16v-4c-.33 0-.83-.2-1.36-1.13a6.95 6.95 0 01-.8-3.28l-4-.02z" fill="#000" mask="url(#h)"/><path d="M119.49 221.4h1V219.75a3 3 0 00-3-3h-10.22a3 3 0 00-3 3V221.4h15.22z" fill="#5C5C5C" stroke="#000" stroke-width="2"/><mask id="i" maskUnits="userSpaceOnUse" x="234.04" y="170.41" width="12" height="18" fill="#000"><path fill="#fff" d="M234.04 170.41h12v18h-12z"/><path fill-rule="evenodd" clip-rule="evenodd" d="M241.54 179.32a3.56 3.56 0 10-2.32 0c.03 2.85-1.48 6.42-4.18 6.42h10.67c-2.7 0-4.18-3.59-4.17-6.42z"/></mask><path fill-rule="evenodd" clip-rule="evenodd" d="M241.54 179.32a3.56 3.56 0 10-2.32 0c.03 2.85-1.48 6.42-4.18 6.42h10.67c-2.7 0-4.18-3.59-4.17-6.42z" fill="#fff"/><path d="M241.54 179.32l-.65-1.89-1.34.47v1.4l2 .02zm-2.32 0l2-.01-.01-1.42-1.34-.46-.65 1.9zm2.71-3.36c0 .68-.43 1.26-1.04 1.47l1.31 3.78a5.56 5.56 0 003.73-5.25h-4zm-1.55-1.56c.86 0 1.55.7 1.55 1.56h4a5.56 5.56 0 00-5.55-5.56v4zm-1.56 1.56c0-.86.7-1.56 1.56-1.56v-4a5.55 5.55 0 00-5.56 5.56h4zm1.05 1.47a1.56 1.56 0 01-1.05-1.47h-4c0 2.44 1.57 4.5 3.75 5.26l1.3-3.79zm-4.83 10.3c2.36 0 3.96-1.57 4.85-3.14.9-1.59 1.35-3.55 1.33-5.28l-4 .03a6.83 6.83 0 01-.8 3.27c-.53.92-1.03 1.13-1.38 1.13v4zm10.67-4h-10.67v4h10.67v-4zm-6.17-4.42c0 1.72.43 3.68 1.33 5.27.89 1.57 2.48 3.16 4.84 3.16v-4c-.33 0-.83-.2-1.36-1.13a6.95 6.95 0 01-.8-3.28l-4-.02z" fill="#000" mask="url(#i)"/><path d="M247.49 189.4h1V187.75a3 3 0 00-3-3h-10.22a3 3 0 00-3 3V189.4h15.22z" fill="#fff" stroke="#000" stroke-width="2"/><mask id="j" maskUnits="userSpaceOnUse" x="202.04" y="202.41" width="12" height="18" fill="#000"><path fill="#fff" d="M202.04 202.41h12v18h-12z"/><path fill-rule="evenodd" clip-rule="evenodd" d="M209.54 211.32a3.56 3.56 0 10-2.32 0c.03 2.85-1.48 6.42-4.18 6.42h10.67c-2.7 0-4.18-3.59-4.17-6.42z"/></mask><path fill-rule="evenodd" clip-rule="evenodd" d="M209.54 211.32a3.56 3.56 0 10-2.32 0c.03 2.85-1.48 6.42-4.18 6.42h10.67c-2.7 0-4.18-3.59-4.17-6.42z" fill="#fff"/><path d="M209.54 211.32l-.65-1.89-1.34.47v1.4l2 .02zm-2.32 0l2-.01-.01-1.42-1.34-.46-.65 1.9zm2.71-3.36c0 .68-.43 1.26-1.04 1.47l1.31 3.78a5.56 5.56 0 003.73-5.25h-4zm-1.55-1.56c.86 0 1.55.7 1.55 1.56h4a5.56 5.56 0 00-5.55-5.56v4zm-1.56 1.56c0-.86.7-1.56 1.56-1.56v-4a5.55 5.55 0 00-5.56 5.56h4zm1.05 1.47a1.56 1.56 0 01-1.05-1.47h-4c0 2.44 1.57 4.5 3.75 5.26l1.3-3.79zm-4.83 10.3c2.36 0 3.96-1.57 4.85-3.14.9-1.59 1.35-3.55 1.33-5.28l-4 .03a6.83 6.83 0 01-.8 3.27c-.53.92-1.03 1.13-1.38 1.13v4zm10.67-4h-10.67v4h10.67v-4zm-6.17-4.42c0 1.72.43 3.68 1.33 5.27.89 1.57 2.48 3.16 4.84 3.16v-4c-.33 0-.83-.2-1.36-1.13a6.95 6.95 0 01-.8-3.28l-4-.02z" fill="#000" mask="url(#j)"/><path d="M215.49 221.4h1V219.75a3 3 0 00-3-3h-10.22a3 3 0 00-3 3V221.4h15.22z" fill="#fff" stroke="#000" stroke-width="2"/><path d="M124.38 82.2l15 8.67V73.55l-15 8.66zm148-1.5h-134.5v3h134.5v-3z" fill="#FFC107"/><mask id="k" maskUnits="userSpaceOnUse" x="266.04" y="202.41" width="12" height="18" fill="#000"><path fill="#fff" d="M266.04 202.41h12v18h-12z"/><path fill-rule="evenodd" clip-rule="evenodd" d="M273.54 211.32a3.56 3.56 0 10-2.32 0c.03 2.85-1.48 6.42-4.18 6.42h10.67c-2.7 0-4.18-3.59-4.17-6.42z"/></mask><path fill-rule="evenodd" clip-rule="evenodd" d="M273.54 211.32a3.56 3.56 0 10-2.32 0c.03 2.85-1.48 6.42-4.18 6.42h10.67c-2.7 0-4.18-3.59-4.17-6.42z" fill="#fff"/><path d="M273.54 211.32l-.65-1.89-1.34.47v1.4l2 .02zm-2.32 0l2-.01-.01-1.42-1.34-.46-.65 1.9zm2.71-3.36c0 .68-.43 1.26-1.04 1.47l1.31 3.78a5.56 5.56 0 003.73-5.25h-4zm-1.55-1.56c.86 0 1.55.7 1.55 1.56h4a5.56 5.56 0 00-5.55-5.56v4zm-1.56 1.56c0-.86.7-1.56 1.56-1.56v-4a5.55 5.55 0 00-5.56 5.56h4zm1.05 1.47a1.56 1.56 0 01-1.05-1.47h-4c0 2.44 1.57 4.5 3.75 5.26l1.3-3.79zm-4.83 10.3c2.36 0 3.96-1.57 4.85-3.14.9-1.59 1.35-3.55 1.33-5.28l-4 .03a6.83 6.83 0 01-.8 3.27c-.53.92-1.04 1.13-1.38 1.13v4zm10.67-4h-10.67v4h10.67v-4zm-6.16-4.42c-.01 1.72.42 3.68 1.32 5.27.89 1.57 2.48 3.16 4.84 3.16v-4c-.33 0-.83-.2-1.36-1.13a6.95 6.95 0 01-.8-3.28l-4-.02z" fill="#000" mask="url(#k)"/><path d="M279.49 221.4h1V219.75a3 3 0 00-3-3h-10.22a3 3 0 00-3 3V221.4h15.22zM236.38 141.18h-.89l-.1.88-1.34 10.66-.14 1.13h12.98l-.2-1.16-1.77-10.67-.14-.84h-8.4z" fill="#fff" stroke="#000" stroke-width="2"/><path d="M233.27 134.07h-1v9.11h16.22v-9.1h-3.12l-.24.65-1.19 3.23h-1.02l-.87-3.15-.2-.74H238.9l-.2.74-.86 3.15h-1.03l-1.18-3.23-.24-.66h-2.12zM250.16 157.4h1v-2.55a3 3 0 00-3-3H232.6a3 3 0 00-3 3v2.56h20.56z" fill="#fff" stroke="#000" stroke-width="2"/><path d="M172.38 109.18h-.89l-.1.88-1.34 10.66-.14 1.13h12.98l-.2-1.16-1.77-10.67-.14-.84h-8.4z" fill="#5C5C5C" stroke="#000" stroke-width="2"/><path d="M169.27 102.07h-1v9.11h16.22v-9.1h-3.12l-.24.65-1.19 3.23h-1.02l-.87-3.15-.2-.74H174.9l-.2.74-.86 3.15h-1.03l-1.18-3.23-.24-.66h-2.12zM186.16 125.4h1v-2.55a3 3 0 00-3-3H168.6a3 3 0 00-3 3v2.56h20.56z" fill="#5C5C5C" stroke="#000" stroke-width="2"/><path fill="#198754" fill-opacity=".75" d="M256.38 128.96h32v32h-32z"/><path stroke="#FD7E14" stroke-width="2" stroke-dasharray="5 3" d="M272.88 144.97V95.96"/><path d="M268.38 77.18h-.89l-.1.88-1.34 10.67-.14 1.12h12.98l-.2-1.17-1.77-10.66-.14-.84h-8.4z" fill="#fff" stroke="#000" stroke-width="2"/><path d="M265.27 70.07h-1v9.11h16.22v-9.1h-3.12l-.24.65-1.19 3.23h-1.02l-.87-3.15-.2-.74H270.9l-.2.74-.86 3.15h-1.03l-1.18-3.23-.24-.66h-2.12zM282.15 93.4h1v-2.55a3 3 0 00-3-3H264.6a3 3 0 00-3 3v2.56h20.55z" fill="#fff" stroke="#000" stroke-width="2"/></g><defs><clipPath id="clip0"><path fill="#fff" transform="translate(.38 .96)" d="M0 0h320v288H0z"/></clipPath></defs></svg>