<svg width="321" height="288" fill="none" xmlns="http://www.w3.org/2000/svg"><path fill="#FEE6C1" d="M32.63 0h256v256h-256z"/><path d="M32.63 224h32v32h-32v-32zM32.63 96h32v32h-32V96zM32.63 160h32v32h-32v-32zM32.63 32h32v32h-32V32zM64.63 192h32v32h-32v-32zM64.63 64h32v32h-32V64zM64.63 128h32v32h-32v-32zM64.63 0h32v32h-32V0zM160.63 224h32v32h-32v-32zM160.63 96h32v32h-32V96zM160.63 160h32v32h-32v-32zM160.63 32h32v32h-32V32zM192.63 192h32v32h-32v-32zM192.63 64h32v32h-32V64zM192.63 128h32v32h-32v-32zM192.63 0h32v32h-32V0zM96.63 224h32v32h-32v-32zM96.63 96h32v32h-32V96zM96.63 160h32v32h-32v-32zM96.63 32h32v32h-32V32zM128.63 192h32v32h-32v-32zM128.63 64h32v32h-32V64zM128.63 128h32v32h-32v-32zM128.63 0h32v32h-32V0zM224.63 224h32v32h-32v-32zM224.63 96h32v32h-32V96zM224.63 160h32v32h-32v-32zM224.63 32h32v32h-32V32zM256.63 192h32v32h-32v-32zM256.63 64h32v32h-32V64zM256.63 128h32v32h-32v-32zM256.63 0h32v32h-32V0z" fill="#866C4A"/><path d="M14.05 237.36v-2.54h4.44v11.68h-2.85v-9.14h-1.59zM12.68 212.3a58.94 58.94 0 002.96-2.53c.61-.55 1.12-1.13 1.54-1.73.42-.61.62-1.2.62-1.78 0-.44-.1-.78-.3-1.02-.2-.25-.5-.37-.91-.37-.4 0-.73.15-.96.46-.23.3-.34.73-.34 1.28h-2.64c.02-.9.22-1.66.58-2.27.37-.6.86-1.06 1.45-1.34.61-.3 1.28-.44 2.02-.44 1.27 0 2.22.33 2.86.98.66.65.98 1.5.98 2.54 0 1.14-.39 2.2-1.17 3.19-.78.97-1.77 1.92-2.97 2.85h4.32v2.22h-8.04v-2.03zM12.6 174.12a3.52 3.52 0 011.12-2.64c.7-.62 1.66-.93 2.87-.93.8 0 1.48.14 2.05.41a2.95 2.95 0 011.74 2.76c0 .7-.18 1.28-.53 1.72a2.7 2.7 0 01-1.23.9v.06c.6.2 1.09.54 1.44 1.01.35.47.53 1.07.53 1.81 0 .66-.16 1.25-.47 1.76-.3.5-.74.9-1.32 1.18-.58.3-1.27.44-2.07.44a4.7 4.7 0 01-3.07-.95c-.76-.63-1.16-1.58-1.2-2.85h2.66c0 .47.14.85.4 1.12.25.27.62.4 1.12.4.41 0 .73-.11.96-.35.23-.24.35-.56.35-.96 0-.51-.17-.88-.5-1.1-.32-.24-.84-.35-1.55-.35h-.51v-2.23h.5c.55 0 .99-.09 1.32-.27.34-.2.51-.53.51-1 0-.4-.1-.7-.32-.9a1.2 1.2 0 00-.88-.32c-.4 0-.7.12-.9.36-.2.25-.31.55-.34.92H12.6zM12 148.42v-2.2l5.06-7.24h3.05v7.07h1.31v2.37h-1.3v2.08h-2.74v-2.08H12zm5.57-6.43l-2.69 4.06h2.69V142zM20.37 108.2h-4.99v2.21c.21-.23.51-.42.9-.57.38-.15.8-.23 1.24-.23.8 0 1.47.18 1.99.55.53.36.92.83 1.17 1.4.24.58.36 1.2.36 1.88 0 1.24-.35 2.24-1.05 2.97-.7.73-1.7 1.09-2.98 1.09a5.3 5.3 0 01-2.22-.43c-.63-.3-1.12-.71-1.46-1.23a3.55 3.55 0 01-.56-1.81h2.67c.07.33.22.6.47.83.24.21.58.32 1 .32.5 0 .88-.16 1.13-.48.24-.32.36-.75.36-1.28 0-.52-.12-.92-.38-1.2-.26-.28-.63-.42-1.12-.42-.36 0-.66.1-.9.28-.23.17-.39.4-.46.68H12.9v-6.96h7.47v2.4zM18.03 76.97a1.6 1.6 0 00-.44-.88c-.22-.2-.52-.3-.92-.3-.6 0-1.04.26-1.3.8-.28.52-.41 1.35-.42 2.5a2.4 2.4 0 011-.89c.45-.2.94-.32 1.48-.32a3.3 3.3 0 012.5 1c.65.66.97 1.58.97 2.76 0 .78-.16 1.47-.48 2.05a3.3 3.3 0 01-1.38 1.38c-.6.33-1.3.5-2.13.5-1.64 0-2.78-.52-3.42-1.54-.64-1.04-.96-2.52-.96-4.45 0-2.03.34-3.53 1-4.51.69-1 1.78-1.49 3.27-1.49.8 0 1.47.16 2.02.48.55.3.97.72 1.25 1.23s.45 1.07.5 1.68h-2.54zm-1.26 3.07c-.46 0-.84.14-1.15.42-.3.27-.45.65-.45 1.15 0 .51.14.91.42 1.2.28.29.69.43 1.21.43.47 0 .84-.13 1.1-.41.28-.29.42-.68.42-1.17 0-.5-.13-.9-.4-1.18-.27-.3-.65-.44-1.15-.44zM20.53 43.87L16.5 53.5h-2.8l4.06-9.33H12.8v-2.33h7.73v2.03zM14.08 16.23c-1-.54-1.5-1.37-1.5-2.51a2.86 2.86 0 011.8-2.7c.62-.3 1.36-.44 2.25-.44.88 0 1.62.14 2.22.43.6.28 1.06.66 1.36 1.14.3.47.45.99.45 1.57a2.7 2.7 0 01-.42 1.5c-.26.43-.63.76-1.08 1a3.06 3.06 0 011.8 2.85 3.37 3.37 0 01-2.16 3.22c-.65.29-1.37.43-2.17.43-.8 0-1.53-.14-2.2-.43a3.37 3.37 0 01-2.13-3.22 3.04 3.04 0 011.78-2.85zm3.92-2.1c0-.44-.12-.77-.38-1a1.34 1.34 0 00-1-.37c-.4 0-.74.12-1 .36-.25.25-.37.6-.37 1.03 0 .41.13.74.39.99.25.23.58.35.99.35.4 0 .73-.12.99-.37.26-.24.38-.57.38-.99zm-1.37 3.28c-.5 0-.9.14-1.22.42-.3.26-.46.64-.46 1.12 0 .45.15.81.45 1.1.3.29.72.43 1.23.43.5 0 .9-.14 1.2-.43.3-.29.45-.65.45-1.1 0-.47-.16-.84-.47-1.12-.3-.28-.7-.42-1.18-.42zM273.72 268.98c1.02 0 1.85.34 2.46 1.02.62.67.93 1.6.93 2.78V278h-2.72v-4.85c0-.6-.15-1.06-.46-1.39-.31-.33-.73-.5-1.25-.5s-.94.17-1.25.5c-.3.33-.46.8-.46 1.4V278h-2.74v-11.84h2.74v4.11c.28-.4.65-.7 1.13-.94a3.63 3.63 0 011.62-.35zM239.59 268.94c.63 0 1.17.13 1.64.39.48.25.85.59 1.1 1v-1.26h2.74v8.91a4.9 4.9 0 01-.5 2.23c-.31.67-.8 1.2-1.48 1.6-.66.4-1.49.59-2.48.59-1.32 0-2.4-.31-3.22-.94a3.51 3.51 0 01-1.4-2.53h2.7c.09.34.29.6.6.8.33.2.72.3 1.2.3.56 0 1-.16 1.33-.5.35-.31.52-.83.52-1.55v-1.26a3.1 3.1 0 01-2.75 1.4 3.7 3.7 0 01-3.43-2.17 5.51 5.51 0 01-.51-2.43c0-.92.17-1.72.51-2.42.35-.69.83-1.22 1.43-1.6a3.7 3.7 0 012-.56zm2.75 4.6c0-.69-.2-1.23-.58-1.62-.37-.4-.83-.6-1.38-.6-.54 0-1 .2-1.39.6a2.2 2.2 0 00-.56 1.6c0 .68.19 1.23.56 1.63.39.4.85.6 1.4.6.54 0 1-.2 1.37-.6.39-.4.58-.93.58-1.61zM211.22 271.34h-1.47V278H207v-6.66h-.99v-2.27h1v-.25c0-1.1.3-1.94.94-2.5.63-.58 1.55-.86 2.76-.86l.45.01v2.32c-.52-.03-.89.04-1.1.23-.22.18-.32.5-.32.97v.08h1.47v2.27zM181.1 273.4c0 .25 0 .52-.04.8h-6.2c.05.55.23.97.54 1.27.32.29.7.43 1.16.43.69 0 1.16-.28 1.43-.86h2.91a3.93 3.93 0 01-.81 1.58c-.39.47-.87.84-1.46 1.1a4.7 4.7 0 01-1.97.4 4.8 4.8 0 01-2.34-.55 3.99 3.99 0 01-1.6-1.6c-.38-.7-.57-1.5-.57-2.43 0-.93.19-1.74.56-2.44.38-.69.92-1.22 1.6-1.6a4.83 4.83 0 012.35-.56c.87 0 1.63.19 2.3.55.68.36 1.2.88 1.57 1.55.39.67.58 1.46.58 2.35zm-2.8-.73c0-.47-.15-.84-.47-1.12a1.77 1.77 0 00-1.2-.41c-.46 0-.85.13-1.17.4-.3.26-.5.64-.58 1.13h3.43zM139.65 273.52c0-.92.17-1.72.51-2.42.35-.69.83-1.22 1.43-1.6a3.7 3.7 0 013.6-.19c.49.25.87.58 1.15 1v-4.15h2.73V278h-2.73v-1.28c-.26.43-.63.77-1.1 1.02-.48.26-1.03.39-1.66.39a3.7 3.7 0 01-3.42-2.18 5.51 5.51 0 01-.51-2.43zm6.69.02c0-.69-.2-1.23-.58-1.62-.37-.4-.83-.6-1.38-.6-.54 0-1 .2-1.39.6a2.2 2.2 0 00-.56 1.6c0 .68.19 1.23.56 1.63.39.4.85.6 1.4.6.54 0 1-.2 1.37-.6.39-.4.58-.93.58-1.61zM108.23 273.54c0-.93.2-1.74.56-2.44.39-.69.92-1.22 1.59-1.6a4.8 4.8 0 012.34-.56c1.11 0 2.05.3 2.8.88a4.14 4.14 0 011.48 2.48h-2.9c-.25-.68-.73-1.02-1.43-1.02-.5 0-.9.2-1.2.6-.3.38-.45.93-.45 1.66 0 .72.15 1.28.45 1.68.3.38.7.57 1.2.57.7 0 1.18-.34 1.42-1.02H117a4.2 4.2 0 01-1.48 2.46c-.76.6-1.7.9-2.8.9a4.8 4.8 0 01-2.34-.56c-.67-.38-1.2-.9-1.58-1.6-.38-.7-.56-1.5-.56-2.43zM78.93 270.34c.26-.42.62-.76 1.1-1.01a3.45 3.45 0 011.65-.39 3.7 3.7 0 013.4 2.16c.36.7.54 1.5.54 2.42 0 .92-.18 1.73-.53 2.43-.34.7-.81 1.23-1.4 1.62a3.7 3.7 0 01-2 .56c-.64 0-1.19-.13-1.66-.37-.47-.26-.83-.6-1.1-1V278h-2.74v-11.84h2.74v4.18zm3.9 3.18c0-.68-.19-1.22-.57-1.6-.38-.4-.84-.6-1.4-.6-.54 0-1 .2-1.39.6-.37.4-.56.93-.56 1.62 0 .68.19 1.22.56 1.61.39.4.85.6 1.4.6.54 0 1-.2 1.39-.6.38-.4.57-.95.57-1.63zM43.65 273.52c0-.92.17-1.72.51-2.42.35-.69.83-1.22 1.43-1.6a3.7 3.7 0 012-.56c.62 0 1.17.13 1.64.39.48.25.85.59 1.1 1v-1.26h2.74V278h-2.73v-1.26c-.27.41-.64.75-1.12 1-.47.26-1.02.39-1.65.39-.73 0-1.39-.19-1.98-.56a4.05 4.05 0 01-1.43-1.62 5.5 5.5 0 01-.51-2.43zm6.69.02c0-.69-.2-1.23-.58-1.62-.37-.4-.83-.6-1.37-.6-.55 0-1.01.2-1.4.6a2.2 2.2 0 00-.56 1.6c0 .68.19 1.23.56 1.63.39.4.85.6 1.4.6.54 0 1-.2 1.37-.6.39-.4.58-.93.58-1.61z" fill="#000"/><path fill="#E94E58" fill-opacity=".75" d="M128.63 64h32v32h-32z"/><path fill="#358052" d="M64.63 224h32v32h-32z"/><mask id="a" maskUnits="userSpaceOnUse" x="227.47" y="224.56" width="26" height="26" fill="#000"><path fill="#fff" d="M227.47 224.56h26v26h-26z"/><path fill-rule="evenodd" clip-rule="evenodd" d="M247.74 247.89l2.93-7.98a2 2 0 00-1.02-2.5c-3.56-1.68-5.71-2.62-8.1-2.82V231h2.8v-1.78h-2.8v-2.66h-1.85v2.66h-2.78V231h2.78v3.6c-2.38.19-4.53 1.13-8.09 2.8a2 2 0 00-1.02 2.5l2.93 7.99h14.22zm-8.89-10.72c-1.12.2-2.38.56-4.04 1.1a2 2 0 00-1.15 2.78l1.64 3.28h3.55v-7.16zm7.6 1.1a29.5 29.5 0 00-4.04-1.1v7.16h3.55l1.64-3.28c.55-1.08 0-2.4-1.15-2.78z"/></mask><path fill-rule="evenodd" clip-rule="evenodd" d="M247.74 247.89l2.93-7.98a2 2 0 00-1.02-2.5c-3.56-1.68-5.71-2.62-8.1-2.82V231h2.8v-1.78h-2.8v-2.66h-1.85v2.66h-2.78V231h2.78v3.6c-2.38.19-4.53 1.13-8.09 2.8a2 2 0 00-1.02 2.5l2.93 7.99h14.22zm-8.89-10.72c-1.12.2-2.38.56-4.04 1.1a2 2 0 00-1.15 2.78l1.64 3.28h3.55v-7.16zm7.6 1.1a29.5 29.5 0 00-4.04-1.1v7.16h3.55l1.64-3.28c.55-1.08 0-2.4-1.15-2.78z" fill="#fff"/><path d="M239.78 235.59c.57-.05 1.13-.05 1.7 0l.16-2c-.68-.05-1.34-.05-2.02 0l.16 2zm10.89 4.31l1.88.7-1.88-.7zm-2.93 7.99v2h1.4l.48-1.31-1.88-.7zm1.9-10.48l.86-1.8-.85 1.8zm-8.08-2.82h-2v1.85l1.84.15.16-2zm0-3.59v-2h-2v2h2zm2.78 0v2h2v-2h-2zm0-1.78h2v-2h-2v2zm-2.78 0h-2v2h2v-2zm0-2.66h2v-2h-2v2zm-1.86 0v-2h-2v2h2zm0 2.66v2h2v-2h-2zm-2.78 0v-2h-2v2h2zm0 1.78h-2v2h2v-2zm2.78 0h2v-2h-2v2zm0 3.6l.17 1.99 1.83-.15v-1.85h-2zm-8.09 2.8l.86 1.82-.86-1.81zm-1.02 2.5l1.88-.68-1.88.69zm2.93 7.99l-1.88.69.48 1.3h1.4v-2zm1.29-9.62l-.62-1.9.62 1.9zm4.04-1.1h2v-2.37l-2.34.4.34 1.97zm-5.2 3.88l1.8-.9-1.8.9zm1.65 3.28l-1.8.9.56 1.1h1.24v-2zm3.55 0v2h2v-2h-2zm3.56-7.16l.34-1.97-2.34-.4v2.37h2zm4.04 1.1l-.62 1.9.62-1.9zm-4.04 6.06h-2v2h2v-2zm3.55 0v2h1.24l.55-1.1-1.79-.9zm1.64-3.28l1.8.9-1.8-.9zm1.2-1.83l-2.94 7.98 3.76 1.38 2.93-7.99-3.76-1.37zm0 0c-.01 0-.01 0 0 0l3.75 1.37a4 4 0 00-2.05-4.99l-1.7 3.62zm-7.4-2.63c1.95.16 3.78.92 7.4 2.63l1.7-3.62c-3.5-1.66-5.98-2.77-8.78-3l-.32 3.99zm-1.84-5.59v3.6h4V231h-4zm4.78-2h-2.78v4h2.78v-4zm-2 .22V231h4v-1.78h-4zm-.78 2h2.78v-4h-2.78v4zm-2-4.66v2.66h4v-2.66h-4zm.14 2h1.86v-4h-1.86v4zm2 .66v-2.66h-4v2.66h4zm-4.78 2h2.78v-4h-2.78v4zm2-.22v-1.78h-4V231h4zm.78-2h-2.78v4h2.78v-4zm2 5.6V231h-4v3.6h4zm-9.23 4.62c3.6-1.71 5.44-2.47 7.4-2.63l-.33-3.99c-2.8.23-5.28 1.34-8.78 3l1.7 3.62zm0 0l-1.71-3.62a4 4 0 00-2.05 5l3.76-1.38zm2.93 7.98l-2.93-7.98-3.76 1.37 2.93 7.99 3.76-1.38zm12.34-1.31h-14.22v4h14.22v-4zm-12.3-5.72a27.6 27.6 0 013.75-1.03l-.68-3.94c-1.27.22-2.66.63-4.32 1.17l1.24 3.8zm0-.01v.01s-.01 0 0 0l-1.25-3.8a3.99 3.99 0 00-2.32 5.58l3.57-1.8zm1.65 3.28l-1.65-3.28-3.57 1.79 1.64 3.28 3.58-1.8zm1.76-1.1h-3.55v4h3.55v-4zm-2-5.17v7.16h4v-7.16h-4zm5.22 1.97c.97.17 2.12.5 3.76 1.03l1.24-3.8a31.28 31.28 0 00-4.32-1.17l-.68 3.94zm2.34 5.2v-7.17h-4v7.16h4zm1.55-2h-3.55v4h3.55v-4zm-.15-2.18l-1.63 3.28 3.57 1.79 1.64-3.28-3.57-1.8zm.02.01h-.01c0-.01 0-.01 0 0v-.01l3.57 1.79a3.99 3.99 0 00-2.32-5.58l-1.24 3.8z" fill="#000" mask="url(#a)"/><path d="M250.4 252.44h1v-2.55a3 3 0 00-3-3h-15.55a3 3 0 00-3 3v2.55h20.56z" fill="#fff" stroke="#000" stroke-width="2"/><mask id="b" maskUnits="userSpaceOnUse" x="195.47" y=".56" width="26" height="26" fill="#000"><path fill="#fff" d="M195.47.56h26v26h-26z"/><path fill-rule="evenodd" clip-rule="evenodd" d="M215.74 23.89l2.93-7.99a2 2 0 00-1.02-2.5c-3.56-1.67-5.71-2.61-8.1-2.8V7h2.8V5.22h-2.8V2.56h-1.85v2.66h-2.78V7h2.78v3.6c-2.38.19-4.53 1.13-8.09 2.8a2 2 0 00-1.02 2.5l2.93 7.99h14.22zm-8.89-10.72c-1.12.2-2.38.56-4.04 1.1a1.99 1.99 0 00-1.15 2.78l1.64 3.28h3.55v-7.16zm7.6 1.1a29.4 29.4 0 00-4.04-1.1v7.16h3.55l1.64-3.28c.55-1.08 0-2.4-1.15-2.78z"/></mask><path fill-rule="evenodd" clip-rule="evenodd" d="M215.74 23.89l2.93-7.99a2 2 0 00-1.02-2.5c-3.56-1.67-5.71-2.61-8.1-2.8V7h2.8V5.22h-2.8V2.56h-1.85v2.66h-2.78V7h2.78v3.6c-2.38.19-4.53 1.13-8.09 2.8a2 2 0 00-1.02 2.5l2.93 7.99h14.22zm-8.89-10.72c-1.12.2-2.38.56-4.04 1.1a1.99 1.99 0 00-1.15 2.78l1.64 3.28h3.55v-7.16zm7.6 1.1a29.4 29.4 0 00-4.04-1.1v7.16h3.55l1.64-3.28c.55-1.08 0-2.4-1.15-2.78z" fill="#5C5C5C"/><path d="M207.78 11.59c.57-.05 1.13-.05 1.7 0l.16-2c-.68-.05-1.34-.05-2.02 0l.16 2zm10.89 4.31l1.88.7-1.88-.7zm-2.93 7.99v2h1.4l.48-1.31-1.88-.7zm1.9-10.48l.86-1.8-.85 1.8zm-8.08-2.82h-2v1.85l1.84.15.16-2zm0-3.59V5h-2v2h2zm2.78 0v2h2V7h-2zm0-1.78h2v-2h-2v2zm-2.78 0h-2v2h2v-2zm0-2.66h2v-2h-2v2zm-1.86 0v-2h-2v2h2zm0 2.66v2h2v-2h-2zm-2.78 0v-2h-2v2h2zm0 1.78h-2v2h2V7zm2.78 0h2V5h-2v2zm0 3.6l.17 1.99 1.83-.15v-1.85h-2zm-8.09 2.8l.86 1.82-.86-1.81zm-1.02 2.5l1.88-.68-1.88.68zm2.93 7.99l-1.88.69.48 1.3h1.4v-2zm1.29-9.62l-.62-1.9.62 1.9zm4.04-1.1h2V10.8l-2.34.4.34 1.97zm-5.2 3.88l1.8-.9-1.8.9zm1.65 3.28l-1.8.9.56 1.1h1.24v-2zm3.55 0v2h2v-2h-2zm3.56-7.16l.34-1.97-2.34-.4v2.37h2zm4.04 1.1l.62-1.9-.62 1.9zm-4.04 6.06h-2v2h2v-2zm3.55 0v2h1.24l.55-1.1-1.79-.9zm1.64-3.28l1.8.9-1.8-.9zm1.2-1.83l-2.94 7.98 3.76 1.38 2.93-7.99-3.76-1.37zm0 0c-.01 0-.01 0 0 0l3.75 1.37a4 4 0 00-2.05-4.99l-1.7 3.62zm-7.4-2.63c1.95.16 3.78.92 7.4 2.63l1.7-3.62c-3.5-1.66-5.98-2.77-8.78-3l-.32 3.99zM207.56 7v3.6h4V7h-4zm4.78-2h-2.78v4h2.78V5zm-2 .22V7h4V5.22h-4zm-.78 2h2.78v-4h-2.78v4zm-2-4.66v2.66h4V2.56h-4zm.14 2h1.86v-4h-1.86v4zm2 .66V2.56h-4v2.66h4zm-4.78 2h2.78v-4h-2.78v4zm2-.22V5.22h-4V7h4zm.78-2h-2.78v4h2.78V5zm2 5.6V7h-4v3.6h4zm-9.23 4.62c3.6-1.71 5.44-2.47 7.4-2.63l-.33-3.99c-2.8.23-5.28 1.34-8.78 3l1.7 3.62zm0 0l-1.71-3.62a4 4 0 00-2.05 5l3.76-1.38zm2.93 7.98l-2.93-7.98-3.76 1.37 2.93 7.99 3.76-1.38zm12.34-1.31h-14.22v4h14.22v-4zm-12.3-5.72c1.64-.54 2.78-.86 3.75-1.03l-.68-3.94c-1.27.22-2.66.62-4.32 1.17l1.24 3.8zm0-.01v.01s-.01 0 0 0l-1.25-3.8a3.99 3.99 0 00-2.32 5.58l3.57-1.8zm1.65 3.28l-1.65-3.28-3.57 1.79 1.64 3.28 3.58-1.8zm1.76-1.1h-3.55v4h3.55v-4zm-2-5.17v7.16h4v-7.16h-4zm5.22 1.97c.97.17 2.12.5 3.76 1.03l1.24-3.8a31.3 31.3 0 00-4.32-1.17l-.68 3.94zm2.34 5.2v-7.17h-4v7.16h4zm1.55-2h-3.55v4h3.55v-4zm-.15-2.18l-1.63 3.28 3.57 1.79 1.64-3.28-3.57-1.8zm.02.01h-.01c0-.01 0-.01 0 0v-.01l3.57 1.79a3.99 3.99 0 00-2.32-5.58l-1.24 3.8z" fill="#000" mask="url(#b)"/><path d="M218.4 28.44h1V25.9a3 3 0 00-3-3h-15.55a3 3 0 00-3 3v2.55h20.56z" fill="#5C5C5C" stroke="#000" stroke-width="2"/><mask id="c" maskUnits="userSpaceOnUse" x="198.52" y="34.33" width="20" height="25" fill="#000"><path fill="#fff" d="M198.52 34.33h20v25h-20z"/><path fill-rule="evenodd" clip-rule="evenodd" d="M209.21 39.46c.55-.25.93-.82.93-1.5 0-.9-.7-1.63-1.55-1.63a1.6 1.6 0 00-1.54 1.64c0 .68.4 1.27.96 1.51l-6.49 9.39s3.12 7.54 7.08 7.49c3.97-.06 7.28-7.69 7.28-7.69l-6.67-9.2z"/></mask><path fill-rule="evenodd" clip-rule="evenodd" d="M209.21 39.46c.55-.25.93-.82.93-1.5 0-.9-.7-1.63-1.55-1.63a1.6 1.6 0 00-1.54 1.64c0 .68.4 1.27.96 1.51l-6.49 9.39s3.12 7.54 7.08 7.49c3.97-.06 7.28-7.69 7.28-7.69l-6.67-9.2z" fill="#5C5C5C"/><path d="M209.21 39.46l-.84-1.81-2.2 1.02 1.42 1.97 1.62-1.18zm-1.2.02l1.65 1.14 1.4-2.02-2.26-.96-.79 1.84zm-6.49 9.39l-1.65-1.14-.62.9.42 1 1.85-.76zm7.08 7.49l.03 2-.03-2zm7.28-7.69l1.84.8.45-1.05-.67-.92-1.62 1.17zm-7.74-10.7c0-.1.05-.24.23-.32l1.68 3.63a3.64 3.64 0 002.09-3.31h-4zm.45.36a.5.5 0 01-.36-.14.32.32 0 01-.1-.22h4c0-1.9-1.48-3.64-3.54-3.64v4zm.46-.36c0 .06-.03.14-.1.22a.5.5 0 01-.36.14v-4a3.59 3.59 0 00-3.54 3.64h4zm-.25-.33c.2.08.25.23.25.33h-4c0 1.46.85 2.78 2.18 3.35l1.57-3.68zm-5.64 12.37l6.5-9.4-3.3-2.27-6.49 9.4 3.3 2.27zm5.42 4.35c-.34 0-.83-.16-1.48-.7-.65-.53-1.29-1.3-1.87-2.15a21.39 21.39 0 01-1.75-3.14l-.09-.2a2.63 2.63 0 01-.02-.06l-1.85.76-1.85.77.02.03a12.96 12.96 0 00.6 1.27c.37.76.93 1.78 1.63 2.82.7 1.02 1.58 2.13 2.64 3a6.33 6.33 0 004.07 1.6l-.05-4zm7.3-5.69l-1.84-.8v.01l-.02.05a15.96 15.96 0 01-.5 1.01c-.34.67-.84 1.55-1.44 2.42-.6.88-1.27 1.67-1.95 2.24-.69.57-1.2.75-1.55.76l.05 4a6.57 6.57 0 004.06-1.7c1.07-.88 1.97-2 2.69-3.03a27.12 27.12 0 002.28-4.05l.04-.08.01-.02v-.01l-1.83-.8zm-8.29-8.03l6.67 9.2 3.24-2.34-6.67-9.21-3.24 2.35z" fill="#000" mask="url(#c)"/><path d="M218.4 60.44h1V57.9a3 3 0 00-3-3h-15.55a3 3 0 00-3 3v2.55h20.56z" fill="#5C5C5C" stroke="#000" stroke-width="2"/><path d="M208.63 46.11l3.56-2.67 1.33 1.78-4.89 3.56V46.1z" fill="#000"/><path fill-rule="evenodd" clip-rule="evenodd" d="M83.49 230.4a3 3 0 01-1.1 2.34l1.8 7.15 3.88-3.66a3.04 3.04 0 01-.33-1.38 2.91 2.91 0 012.86-2.96 2.91 2.91 0 012.86 2.96 2.91 2.91 0 01-3.05 2.96l-2.67 10.08H73.52l-2.67-10.08a2.92 2.92 0 01-2.66-2.96 2.91 2.91 0 012.85-2.96 2.91 2.91 0 012.86 2.96c0 .6-.17 1.15-.46 1.62l3.63 3.42 1.8-7.15a3 3 0 01-1.1-2.33 2.91 2.91 0 012.86-2.97 2.91 2.91 0 012.86 2.97z" fill="#fff"/><path d="M82.4 232.74l-.64-.78-.49.4.16.62.97-.24zm1.79 7.15l-.97.24.4 1.66 1.25-1.17-.68-.73zm3.88-3.66l.69.73.54-.51-.34-.67-.89.45zm2.34 1.58l.07-1-.83-.06-.2.8.96.26zm-2.67 10.08v1h.77l.2-.74-.97-.26zm-14.22 0l-.97.26.2.74h.77v-1zm-2.67-10.08l.97-.26-.19-.69-.71-.05-.07 1zm2.59-1.34l-.85-.53-.44.7.6.56.69-.73zm3.63 3.42l-.68.73 1.24 1.17.41-1.66-.97-.24zm1.8-7.15l.96.24.16-.62-.5-.4-.63.78zm4.16.77a4 4 0 001.46-3.1h-2a2 2 0 01-.73 1.55l1.27 1.55zm2.13 6.14l-1.8-7.16-1.93.49 1.79 7.15 1.94-.48zm2.22-4.15l-3.88 3.66 1.37 1.46 3.89-3.66-1.38-1.46zm-.64-.65c0 .66.16 1.29.44 1.84l1.78-.91a2.04 2.04 0 01-.22-.93h-2zm3.86-3.96a3.91 3.91 0 00-3.86 3.96h2c0-1.12.87-1.96 1.86-1.96v-2zm3.86 3.96c0-2.15-1.7-3.96-3.86-3.96v2c.99 0 1.86.84 1.86 1.96h2zm-3.86 3.97c2.16 0 3.86-1.81 3.86-3.97h-2c0 1.12-.87 1.97-1.86 1.97v2zm-.26-.01h.26v-2h-.12l-.14 2zm-1.63 9.34l2.67-10.09-1.94-.5-2.67 10.07 1.94.52zm-15.2.74h14.23v-2H73.52v2zm-3.63-10.83l2.67 10.09 1.94-.52-2.67-10.08-1.94.51zm1.04-1.25a1.92 1.92 0 01-1.73-1.96h-2a3.92 3.92 0 003.6 3.96l.13-2zm-1.73-1.96c0-1.12.86-1.96 1.85-1.96v-2a3.91 3.91 0 00-3.85 3.96h2zm1.85-1.96c1 0 1.86.84 1.86 1.96h2c0-2.15-1.7-3.96-3.86-3.96v2zm1.86 1.96c0 .4-.11.78-.3 1.09l1.69 1.06c.39-.62.61-1.36.61-2.15h-2zm4.86 4.31l-3.64-3.42-1.37 1.45 3.64 3.43 1.37-1.46zm.13-6.67l-1.79 7.16 1.94.48 1.8-7.15-1.95-.49zm-1.12-2.08a4 4 0 001.46 3.1l1.27-1.55a2 2 0 01-.73-1.55h-2zm3.86-3.97a3.91 3.91 0 00-3.86 3.97h2c0-1.12.87-1.97 1.86-1.97v-2zm3.86 3.97c0-2.16-1.7-3.97-3.86-3.97v2c1 0 1.86.85 1.86 1.97h2z" fill="#000"/><path d="M90.4 252.44h1v-2.55a3 3 0 00-3-3H72.86a3 3 0 00-3 3v2.55h20.56z" fill="#fff" stroke="#000" stroke-width="2"/><path fill-rule="evenodd" clip-rule="evenodd" d="M147.49 70.4a3 3 0 01-1.1 2.34l1.8 7.15 3.88-3.66a3.04 3.04 0 01-.33-1.38 2.91 2.91 0 012.86-2.96 2.91 2.91 0 012.86 2.96 2.91 2.91 0 01-3.05 2.96l-2.67 10.08h-14.22l-2.67-10.08a2.92 2.92 0 01-2.66-2.96 2.91 2.91 0 012.85-2.96 2.91 2.91 0 012.86 2.96c0 .6-.17 1.15-.46 1.62l3.63 3.42 1.8-7.15a3 3 0 01-1.1-2.33 2.91 2.91 0 012.86-2.97 2.91 2.91 0 012.86 2.97z" fill="#5C5C5C"/><path d="M146.4 72.74l-.64-.78-.49.4.16.62.97-.24zm1.79 7.15l-.97.24.4 1.66 1.25-1.17-.68-.73zm3.88-3.66l.69.73.54-.51-.34-.67-.89.45zm2.34 1.58l.07-1-.83-.06-.2.8.96.26zm-2.67 10.08v1h.77l.2-.75-.97-.25zm-14.22 0l-.97.25.2.75h.77v-1zm-2.67-10.08l.97-.26-.19-.69-.71-.05-.07 1zm2.59-1.34l-.85-.54-.44.7.6.56.69-.72zm3.63 3.42l-.68.73 1.24 1.17.41-1.66-.97-.24zm1.8-7.15l.96.24.16-.62-.5-.4-.63.78zm4.16.77a4 4 0 001.46-3.1h-2a2 2 0 01-.73 1.55l1.27 1.55zm2.13 6.14l-1.8-7.16-1.93.49 1.78 7.15 1.95-.48zm2.22-4.15l-3.88 3.66 1.37 1.46 3.88-3.66-1.37-1.46zm-.64-.65c0 .66.16 1.29.44 1.84l1.78-.91a2.04 2.04 0 01-.22-.93h-2zm3.86-3.96a3.91 3.91 0 00-3.86 3.96h2c0-1.12.87-1.96 1.86-1.96v-2zm3.86 3.96c0-2.15-1.7-3.96-3.86-3.96v2c.99 0 1.86.84 1.86 1.96h2zm-3.86 3.96c2.16 0 3.86-1.8 3.86-3.96h-2c0 1.12-.87 1.96-1.86 1.96v2zm-.26 0h.26v-2h-.12l-.14 2zm-1.63 9.33l2.67-10.08-1.94-.5-2.67 10.07 1.94.51zm-15.2.75h14.23v-2h-14.22v2zm-3.63-10.83l2.67 10.08 1.94-.5-2.67-10.09-1.94.51zm1.04-1.25a1.92 1.92 0 01-1.73-1.96h-2a3.92 3.92 0 003.6 3.96l.13-2zm-1.73-1.96c0-1.12.86-1.96 1.85-1.96v-2a3.91 3.91 0 00-3.85 3.96h2zm1.85-1.96c1 0 1.86.84 1.86 1.96h2c0-2.15-1.7-3.96-3.86-3.96v2zm1.86 1.96c0 .4-.12.78-.3 1.08l1.69 1.07c.39-.62.61-1.36.61-2.15h-2zm4.86 4.31l-3.64-3.42-1.37 1.45 3.64 3.43 1.37-1.46zm.13-6.67l-1.79 7.16 1.94.48 1.8-7.15-1.95-.49zm-1.12-2.08a4 4 0 001.46 3.1l1.27-1.55a2 2 0 01-.73-1.55h-2zm3.86-3.97a3.91 3.91 0 00-3.86 3.97h2c0-1.12.87-1.97 1.86-1.97v-2zm3.86 3.97c0-2.16-1.7-3.97-3.86-3.97v2c1 0 1.86.85 1.86 1.97h2z" fill="#000"/><path d="M154.4 92.44h1V89.9a3 3 0 00-3-3h-15.55a3 3 0 00-3 3v2.55h20.56z" fill="#5C5C5C" stroke="#000" stroke-width="2"/><path d="M194.63 30l-16.74 4.43 12.2 12.29L194.64 30zM81.33 144.7L186.12 40.59 184 38.45 79.22 142.58l2.12 2.13z" fill="#FFC107"/><mask id="d" maskUnits="userSpaceOnUse" x="70.52" y="130.33" width="20" height="25" fill="#000"><path fill="#fff" d="M70.52 130.33h20v25h-20z"/><path fill-rule="evenodd" clip-rule="evenodd" d="M81.21 135.46c.55-.25.93-.82.93-1.5 0-.9-.7-1.63-1.55-1.63a1.6 1.6 0 00-1.54 1.64c0 .68.4 1.27.96 1.51l-6.5 9.39s3.13 7.54 7.1 7.49c3.96-.06 7.27-7.69 7.27-7.69l-6.67-9.2z"/></mask><path fill-rule="evenodd" clip-rule="evenodd" d="M81.21 135.46c.55-.25.93-.82.93-1.5 0-.9-.7-1.63-1.55-1.63a1.6 1.6 0 00-1.54 1.64c0 .68.4 1.27.96 1.51l-6.5 9.39s3.13 7.54 7.1 7.49c3.96-.06 7.27-7.69 7.27-7.69l-6.67-9.2z" fill="#fff"/><path d="M81.21 135.46l-.84-1.81-2.2 1.02 1.42 1.97 1.62-1.18zm-1.2.02l1.65 1.14 1.4-2.02-2.26-.96-.79 1.84zm-6.5 9.39l-1.64-1.14-.61.9.41 1 1.85-.76zm7.1 7.49l.02 2-.02-2zm7.27-7.69l1.83.8.46-1.05-.67-.92-1.62 1.17zm-7.74-10.7c0-.1.05-.24.23-.32l1.68 3.63a3.64 3.64 0 002.09-3.31h-4zm.45.36a.5.5 0 01-.36-.14.33.33 0 01-.1-.22h4c0-1.9-1.48-3.64-3.54-3.64v4zm.46-.36c0 .06-.03.14-.1.22a.5.5 0 01-.36.14v-4a3.59 3.59 0 00-3.54 3.64h4zm-.25-.33c.2.08.25.23.25.33h-4c0 1.46.85 2.78 2.18 3.35l1.57-3.68zm-5.64 12.37l6.5-9.4-3.3-2.27-6.49 9.4 3.3 2.27zm5.42 4.35c-.34 0-.83-.16-1.48-.7-.65-.53-1.29-1.3-1.87-2.15a21.24 21.24 0 01-1.84-3.35l-.02-.05-1.85.76-1.85.76v.02l.02.02a5.84 5.84 0 00.15.35 25.13 25.13 0 002.08 3.74c.7 1.02 1.58 2.13 2.63 3a6.33 6.33 0 004.08 1.6l-.05-4zm7.3-5.69l-1.83-.8v.01l-.03.05-.1.22a22.1 22.1 0 01-1.84 3.2c-.6.89-1.27 1.68-1.95 2.25-.69.57-1.2.75-1.55.76l.05 4a6.57 6.57 0 004.07-1.7c1.06-.88 1.96-2 2.67-3.03a26.77 26.77 0 002.3-4.05l.03-.08.01-.02v-.01l-1.83-.8zm-8.29-8.03l6.67 9.2 3.24-2.34-6.67-9.21-3.24 2.35z" fill="#000" mask="url(#d)"/><path d="M90.4 156.44h1v-2.55a3 3 0 00-3-3H72.86a3 3 0 00-3 3v2.55h20.56z" fill="#fff" stroke="#000" stroke-width="2"/><path d="M80.63 142.11l3.56-2.67 1.33 1.78-4.89 3.56v-2.67z" fill="#000"/><mask id="e" maskUnits="userSpaceOnUse" x="234.3" y="41.44" width="12" height="18" fill="#000"><path fill="#fff" d="M234.3 41.44h12v18h-12z"/><path fill-rule="evenodd" clip-rule="evenodd" d="M241.8 50.36a3.56 3.56 0 10-2.32 0c.02 2.85-1.48 6.42-4.18 6.42h10.66c-2.69 0-4.18-3.59-4.16-6.42z"/></mask><path fill-rule="evenodd" clip-rule="evenodd" d="M241.8 50.36a3.56 3.56 0 10-2.32 0c.02 2.85-1.48 6.42-4.18 6.42h10.66c-2.69 0-4.18-3.59-4.16-6.42z" fill="#5C5C5C"/><path d="M241.8 50.36l-.66-1.89-1.33.46-.01 1.42h2zm-2.32 0l2-.01-.02-1.42-1.34-.46-.64 1.9zm2.7-3.36c0 .68-.43 1.26-1.04 1.47l1.32 3.78a5.56 5.56 0 003.73-5.25h-4zm-1.55-1.56c.86 0 1.56.7 1.56 1.56h4a5.56 5.56 0 00-5.56-5.56v4zM239.07 47c0-.86.7-1.56 1.56-1.56v-4a5.56 5.56 0 00-5.56 5.56h4zm1.06 1.47a1.56 1.56 0 01-1.06-1.47h-4c0 2.44 1.58 4.5 3.76 5.26l1.3-3.79zm-4.83 10.3c2.35 0 3.95-1.57 4.85-3.14.9-1.59 1.34-3.55 1.33-5.28l-4 .03a6.83 6.83 0 01-.8 3.27c-.53.92-1.04 1.13-1.38 1.13v4zm10.66-4H235.3v4h10.66v-4zm-6.16-4.42c-.01 1.72.43 3.68 1.32 5.27.9 1.57 2.48 3.16 4.84 3.16v-4c-.33 0-.83-.2-1.35-1.13a6.95 6.95 0 01-.81-3.28l-4-.02z" fill="#000" mask="url(#e)"/><path d="M247.74 60.44h1V58.78a3 3 0 00-3-3h-10.22a3 3 0 00-3 3V60.44h15.22z" fill="#5C5C5C" stroke="#000" stroke-width="2"/><mask id="f" maskUnits="userSpaceOnUse" x="266.3" y="73.44" width="12" height="18" fill="#000"><path fill="#fff" d="M266.3 73.44h12v18h-12z"/><path fill-rule="evenodd" clip-rule="evenodd" d="M273.8 82.36a3.56 3.56 0 10-2.32 0c.02 2.85-1.49 6.42-4.18 6.42h10.66c-2.69 0-4.18-3.59-4.16-6.42z"/></mask><path fill-rule="evenodd" clip-rule="evenodd" d="M273.8 82.36a3.56 3.56 0 10-2.32 0c.02 2.85-1.49 6.42-4.18 6.42h10.66c-2.69 0-4.18-3.59-4.16-6.42z" fill="#5C5C5C"/><path d="M273.8 82.36l-.66-1.89-1.33.46-.01 1.42h2zm-2.32 0l2-.01-.02-1.42-1.33-.46-.65 1.9zm2.7-3.36c0 .68-.43 1.26-1.04 1.47l1.31 3.78A5.56 5.56 0 00278.2 79h-4zm-1.55-1.56c.86 0 1.56.7 1.56 1.56h4a5.56 5.56 0 00-5.56-5.56v4zM271.07 79c0-.86.7-1.56 1.56-1.56v-4a5.56 5.56 0 00-5.56 5.56h4zm1.06 1.47a1.56 1.56 0 01-1.06-1.47h-4c0 2.44 1.58 4.5 3.76 5.26l1.3-3.79zm-4.83 10.3c2.35 0 3.95-1.57 4.85-3.14.9-1.59 1.34-3.55 1.33-5.28l-4 .03a6.83 6.83 0 01-.8 3.27c-.54.92-1.04 1.13-1.38 1.13v4zm10.66-4H267.3v4h10.66v-4zm-6.16-4.42c-.01 1.72.43 3.68 1.32 5.27.9 1.57 2.48 3.16 4.84 3.16v-4c-.33 0-.83-.2-1.35-1.13a6.95 6.95 0 01-.81-3.28l-4-.02z" fill="#000" mask="url(#f)"/><path d="M279.74 92.44h1V90.78a3 3 0 00-3-3h-10.22a3 3 0 00-3 3V92.44h15.22z" fill="#5C5C5C" stroke="#000" stroke-width="2"/><mask id="g" maskUnits="userSpaceOnUse" x="202.3" y="105.44" width="12" height="18" fill="#000"><path fill="#fff" d="M202.3 105.44h12v18h-12z"/><path fill-rule="evenodd" clip-rule="evenodd" d="M209.8 114.36a3.56 3.56 0 10-2.32 0c.02 2.85-1.48 6.42-4.18 6.42h10.66c-2.69 0-4.18-3.59-4.16-6.42z"/></mask><path fill-rule="evenodd" clip-rule="evenodd" d="M209.8 114.36a3.56 3.56 0 10-2.32 0c.02 2.85-1.48 6.42-4.18 6.42h10.66c-2.69 0-4.18-3.59-4.16-6.42z" fill="#5C5C5C"/><path d="M209.8 114.36l-.66-1.89-1.33.46-.01 1.42h2zm-2.32 0l2-.01-.02-1.42-1.34-.46-.64 1.9zm2.7-3.36c0 .68-.43 1.26-1.04 1.47l1.32 3.78a5.56 5.56 0 003.73-5.25h-4zm-1.55-1.56c.86 0 1.56.7 1.56 1.56h4a5.56 5.56 0 00-5.56-5.56v4zm-1.56 1.56c0-.86.7-1.56 1.56-1.56v-4a5.56 5.56 0 00-5.56 5.56h4zm1.06 1.47a1.56 1.56 0 01-1.06-1.47h-4c0 2.44 1.58 4.5 3.76 5.26l1.3-3.79zm-4.83 10.3c2.35 0 3.95-1.57 4.85-3.14.9-1.59 1.34-3.55 1.33-5.28l-4 .03a6.84 6.84 0 01-.8 3.27c-.53.92-1.04 1.13-1.38 1.13v4zm10.66-4H203.3v4h10.66v-4zm-6.16-4.42c-.01 1.72.43 3.68 1.32 5.27.9 1.57 2.48 3.16 4.84 3.16v-4c-.33 0-.83-.2-1.35-1.13a6.95 6.95 0 01-.81-3.28l-4-.02z" fill="#000" mask="url(#g)"/><mask id="h" maskUnits="userSpaceOnUse" x="106.3" y="41.44" width="12" height="18" fill="#000"><path fill="#fff" d="M106.3 41.44h12v18h-12z"/><path fill-rule="evenodd" clip-rule="evenodd" d="M113.8 50.36a3.56 3.56 0 10-2.32 0c.02 2.85-1.48 6.42-4.18 6.42h10.66c-2.69 0-4.18-3.59-4.16-6.42z"/></mask><path fill-rule="evenodd" clip-rule="evenodd" d="M113.8 50.36a3.56 3.56 0 10-2.32 0c.02 2.85-1.48 6.42-4.18 6.42h10.66c-2.69 0-4.18-3.59-4.16-6.42z" fill="#5C5C5C"/><path d="M113.8 50.36l-.66-1.89-1.33.46-.01 1.42h2zm-2.32 0l2-.01-.02-1.42-1.33-.46-.65 1.9zm2.7-3.36c0 .68-.43 1.26-1.04 1.47l1.31 3.78A5.56 5.56 0 00118.2 47h-4zm-1.55-1.56c.86 0 1.56.7 1.56 1.56h4a5.56 5.56 0 00-5.56-5.56v4zM111.08 47c0-.86.7-1.56 1.55-1.56v-4a5.56 5.56 0 00-5.55 5.56h4zm1.05 1.47a1.56 1.56 0 01-1.05-1.47h-4c0 2.44 1.57 4.5 3.75 5.26l1.3-3.79zm-4.83 10.3c2.35 0 3.95-1.57 4.85-3.14.9-1.59 1.34-3.55 1.33-5.28l-4 .03a6.83 6.83 0 01-.8 3.27c-.54.92-1.04 1.13-1.38 1.13v4zm10.66-4H107.3v4h10.66v-4zm-6.16-4.42c-.01 1.72.43 3.68 1.32 5.27.9 1.57 2.48 3.16 4.84 3.16v-4c-.33 0-.83-.2-1.35-1.13a6.95 6.95 0 01-.81-3.28l-4-.02z" fill="#000" mask="url(#h)"/><path d="M119.74 60.44h1V58.78a3 3 0 00-3-3h-10.22a3 3 0 00-3 3V60.44h15.22zM215.74 124.44h1V122.78a3 3 0 00-3-3h-10.22a3 3 0 00-3 3V124.44h15.22z" fill="#5C5C5C" stroke="#000" stroke-width="2"/><mask id="i" maskUnits="userSpaceOnUse" x="234.3" y="201.44" width="12" height="18" fill="#000"><path fill="#fff" d="M234.3 201.44h12v18h-12z"/><path fill-rule="evenodd" clip-rule="evenodd" d="M241.8 210.36a3.56 3.56 0 10-2.32 0c.02 2.85-1.48 6.42-4.18 6.42h10.66c-2.69 0-4.18-3.59-4.16-6.42z"/></mask><path fill-rule="evenodd" clip-rule="evenodd" d="M241.8 210.36a3.56 3.56 0 10-2.32 0c.02 2.85-1.48 6.42-4.18 6.42h10.66c-2.69 0-4.18-3.59-4.16-6.42z" fill="#fff"/><path d="M241.8 210.36l-.66-1.89-1.33.46-.01 1.42h2zm-2.32 0l2-.01-.02-1.42-1.34-.46-.64 1.9zm2.7-3.36c0 .68-.43 1.26-1.04 1.47l1.32 3.78a5.56 5.56 0 003.73-5.25h-4zm-1.55-1.56c.86 0 1.56.7 1.56 1.56h4a5.56 5.56 0 00-5.56-5.56v4zm-1.56 1.56c0-.86.7-1.56 1.56-1.56v-4a5.56 5.56 0 00-5.56 5.56h4zm1.06 1.47a1.56 1.56 0 01-1.06-1.47h-4c0 2.44 1.58 4.5 3.76 5.26l1.3-3.79zm-4.83 10.3c2.35 0 3.95-1.57 4.85-3.14.9-1.59 1.34-3.55 1.33-5.28l-4 .03a6.84 6.84 0 01-.8 3.27c-.53.92-1.04 1.13-1.38 1.13v4zm10.66-4H235.3v4h10.66v-4zm-6.16-4.42c-.01 1.72.43 3.68 1.32 5.27.9 1.57 2.48 3.16 4.84 3.16v-4c-.33 0-.83-.2-1.35-1.13a6.95 6.95 0 01-.81-3.28l-4-.02z" fill="#000" mask="url(#i)"/><path d="M247.74 220.44h1V218.78a3 3 0 00-3-3h-10.22a3 3 0 00-3 3V220.44h15.22z" fill="#fff" stroke="#000" stroke-width="2"/><mask id="j" maskUnits="userSpaceOnUse" x="266.3" y="169.44" width="12" height="18" fill="#000"><path fill="#fff" d="M266.3 169.44h12v18h-12z"/><path fill-rule="evenodd" clip-rule="evenodd" d="M273.8 178.36a3.56 3.56 0 10-2.32 0c.02 2.85-1.49 6.42-4.18 6.42h10.66c-2.69 0-4.18-3.59-4.16-6.42z"/></mask><path fill-rule="evenodd" clip-rule="evenodd" d="M273.8 178.36a3.56 3.56 0 10-2.32 0c.02 2.85-1.49 6.42-4.18 6.42h10.66c-2.69 0-4.18-3.59-4.16-6.42z" fill="#fff"/><path d="M273.8 178.36l-.66-1.89-1.33.46-.01 1.42h2zm-2.32 0l2-.01-.02-1.42-1.33-.46-.65 1.9zm2.7-3.36c0 .68-.43 1.26-1.04 1.47l1.31 3.78a5.56 5.56 0 003.74-5.25h-4zm-1.55-1.56c.86 0 1.56.7 1.56 1.56h4a5.56 5.56 0 00-5.56-5.56v4zm-1.56 1.56c0-.86.7-1.56 1.56-1.56v-4a5.56 5.56 0 00-5.56 5.56h4zm1.06 1.47a1.56 1.56 0 01-1.06-1.47h-4c0 2.44 1.58 4.5 3.76 5.26l1.3-3.79zm-4.83 10.3c2.35 0 3.95-1.57 4.85-3.14.9-1.59 1.34-3.55 1.33-5.28l-4 .03a6.84 6.84 0 01-.8 3.27c-.54.92-1.04 1.13-1.38 1.13v4zm10.66-4H267.3v4h10.66v-4zm-6.16-4.42c-.01 1.72.43 3.68 1.32 5.27.9 1.57 2.48 3.16 4.84 3.16v-4c-.33 0-.83-.2-1.35-1.13a6.95 6.95 0 01-.81-3.28l-4-.02z" fill="#000" mask="url(#j)"/><path d="M279.74 188.44h1V186.78a3 3 0 00-3-3h-10.22a3 3 0 00-3 3V188.44h15.22z" fill="#fff" stroke="#000" stroke-width="2"/><mask id="k" maskUnits="userSpaceOnUse" x="202.3" y="201.44" width="12" height="18" fill="#000"><path fill="#fff" d="M202.3 201.44h12v18h-12z"/><path fill-rule="evenodd" clip-rule="evenodd" d="M209.8 210.36a3.56 3.56 0 10-2.32 0c.02 2.85-1.48 6.42-4.18 6.42h10.66c-2.69 0-4.18-3.59-4.16-6.42z"/></mask><path fill-rule="evenodd" clip-rule="evenodd" d="M209.8 210.36a3.56 3.56 0 10-2.32 0c.02 2.85-1.48 6.42-4.18 6.42h10.66c-2.69 0-4.18-3.59-4.16-6.42z" fill="#fff"/><path d="M209.8 210.36l-.66-1.89-1.33.46-.01 1.42h2zm-2.32 0l2-.01-.02-1.42-1.34-.46-.64 1.9zm2.7-3.36c0 .68-.43 1.26-1.04 1.47l1.32 3.78a5.56 5.56 0 003.73-5.25h-4zm-1.55-1.56c.86 0 1.56.7 1.56 1.56h4a5.56 5.56 0 00-5.56-5.56v4zm-1.56 1.56c0-.86.7-1.56 1.56-1.56v-4a5.56 5.56 0 00-5.56 5.56h4zm1.06 1.47a1.56 1.56 0 01-1.06-1.47h-4c0 2.44 1.58 4.5 3.76 5.26l1.3-3.79zm-4.83 10.3c2.35 0 3.95-1.57 4.85-3.14.9-1.59 1.34-3.55 1.33-5.28l-4 .03a6.84 6.84 0 01-.8 3.27c-.53.92-1.04 1.13-1.38 1.13v4zm10.66-4H203.3v4h10.66v-4zm-6.16-4.42c-.01 1.72.43 3.68 1.32 5.27.9 1.57 2.48 3.16 4.84 3.16v-4c-.33 0-.83-.2-1.35-1.13a6.95 6.95 0 01-.81-3.28l-4-.02z" fill="#000" mask="url(#k)"/><path d="M215.74 220.44h1V218.78a3 3 0 00-3-3h-10.22a3 3 0 00-3 3V220.44h15.22z" fill="#fff" stroke="#000" stroke-width="2"/><mask id="l" maskUnits="userSpaceOnUse" x="42.3" y="201.44" width="12" height="18" fill="#000"><path fill="#fff" d="M42.3 201.44h12v18h-12z"/><path fill-rule="evenodd" clip-rule="evenodd" d="M49.8 210.36a3.56 3.56 0 10-2.32 0c.02 2.85-1.48 6.42-4.18 6.42h10.66c-2.69 0-4.18-3.59-4.16-6.42z"/></mask><path fill-rule="evenodd" clip-rule="evenodd" d="M49.8 210.36a3.56 3.56 0 10-2.32 0c.02 2.85-1.48 6.42-4.18 6.42h10.66c-2.69 0-4.18-3.59-4.16-6.42z" fill="#fff"/><path d="M49.8 210.36l-.66-1.89-1.33.46-.01 1.42h2zm-2.32 0l2-.01-.02-1.42-1.34-.46-.64 1.9zm2.7-3.36c0 .68-.43 1.26-1.04 1.47l1.32 3.78a5.56 5.56 0 003.73-5.25h-4zm-1.55-1.56c.86 0 1.56.7 1.56 1.56h4a5.56 5.56 0 00-5.56-5.56v4zM47.07 207c0-.86.7-1.56 1.56-1.56v-4a5.56 5.56 0 00-5.56 5.56h4zm1.05 1.47a1.56 1.56 0 01-1.05-1.47h-4c0 2.44 1.58 4.5 3.76 5.26l1.3-3.79zm-4.82 10.3c2.35 0 3.95-1.57 4.85-3.14.9-1.59 1.34-3.55 1.33-5.28l-4 .03a6.83 6.83 0 01-.8 3.27c-.54.92-1.04 1.13-1.38 1.13v4zm10.66-4H43.3v4h10.66v-4zm-6.16-4.42c-.01 1.72.43 3.68 1.32 5.27.9 1.57 2.48 3.16 4.84 3.16v-4c-.33 0-.83-.2-1.35-1.13a6.96 6.96 0 01-.81-3.28l-4-.02z" fill="#000" mask="url(#l)"/><path d="M55.74 220.44h1V218.78a3 3 0 00-3-3H43.52a3 3 0 00-3 3V220.44h15.22z" fill="#fff" stroke="#000" stroke-width="2"/><mask id="m" maskUnits="userSpaceOnUse" x="74.3" y="105.44" width="12" height="18" fill="#000"><path fill="#fff" d="M74.3 105.44h12v18h-12z"/><path fill-rule="evenodd" clip-rule="evenodd" d="M81.8 114.36a3.56 3.56 0 10-2.32 0c.02 2.85-1.48 6.42-4.18 6.42h10.66c-2.69 0-4.18-3.59-4.16-6.42z"/></mask><path fill-rule="evenodd" clip-rule="evenodd" d="M81.8 114.36a3.56 3.56 0 10-2.32 0c.02 2.85-1.48 6.42-4.18 6.42h10.66c-2.69 0-4.18-3.59-4.16-6.42z" fill="#fff"/><path d="M81.8 114.36l-.66-1.89-1.33.46-.01 1.42h2zm-2.32 0l2-.01-.02-1.42-1.33-.46-.65 1.9zm2.7-3.36c0 .68-.43 1.26-1.04 1.47l1.32 3.78a5.56 5.56 0 003.73-5.25h-4zm-1.55-1.56c.86 0 1.56.7 1.56 1.56h4a5.56 5.56 0 00-5.56-5.56v4zM79.07 111c0-.86.7-1.56 1.56-1.56v-4a5.56 5.56 0 00-5.56 5.56h4zm1.06 1.47a1.56 1.56 0 01-1.06-1.47h-4c0 2.44 1.58 4.5 3.76 5.26l1.3-3.79zm-4.83 10.3c2.35 0 3.95-1.57 4.85-3.14.9-1.59 1.34-3.55 1.33-5.28l-4 .03a6.83 6.83 0 01-.8 3.27c-.54.92-1.04 1.13-1.38 1.13v4zm10.66-4H75.3v4h10.66v-4zm-6.16-4.42c-.01 1.72.43 3.68 1.32 5.27.9 1.57 2.48 3.16 4.84 3.16v-4c-.33 0-.83-.2-1.35-1.13a6.96 6.96 0 01-.81-3.28l-4-.02z" fill="#000" mask="url(#m)"/><path d="M87.74 124.44h1V122.78a3 3 0 00-3-3H75.52a3 3 0 00-3 3V124.44h15.22z" fill="#fff" stroke="#000" stroke-width="2"/><mask id="n" maskUnits="userSpaceOnUse" x="74.3" y="73.44" width="12" height="18" fill="#000"><path fill="#fff" d="M74.3 73.44h12v18h-12z"/><path fill-rule="evenodd" clip-rule="evenodd" d="M81.8 82.36a3.56 3.56 0 10-2.32 0c.02 2.85-1.48 6.42-4.18 6.42h10.66c-2.69 0-4.18-3.59-4.16-6.42z"/></mask><path fill-rule="evenodd" clip-rule="evenodd" d="M81.8 82.36a3.56 3.56 0 10-2.32 0c.02 2.85-1.48 6.42-4.18 6.42h10.66c-2.69 0-4.18-3.59-4.16-6.42z" fill="#5C5C5C"/><path d="M81.8 82.36l-.66-1.89-1.33.46-.01 1.42h2zm-2.32 0l2-.01-.02-1.42-1.33-.46-.65 1.9zm2.7-3.36c0 .68-.43 1.26-1.04 1.47l1.32 3.78A5.56 5.56 0 0086.19 79h-4zm-1.55-1.56c.86 0 1.56.7 1.56 1.56h4a5.56 5.56 0 00-5.56-5.56v4zM79.07 79c0-.86.7-1.56 1.56-1.56v-4A5.56 5.56 0 0075.07 79h4zm1.06 1.47A1.56 1.56 0 0179.06 79h-4c0 2.44 1.58 4.5 3.76 5.26l1.3-3.79zm-4.83 10.3c2.35 0 3.95-1.57 4.85-3.14.9-1.59 1.34-3.55 1.33-5.28l-4 .03a6.83 6.83 0 01-.8 3.27c-.54.92-1.04 1.13-1.38 1.13v4zm10.66-4H75.3v4h10.66v-4zm-6.16-4.42c-.01 1.72.43 3.68 1.32 5.27.9 1.57 2.48 3.16 4.84 3.16v-4c-.33 0-.83-.2-1.35-1.13a6.96 6.96 0 01-.81-3.28l-4-.02z" fill="#000" mask="url(#n)"/><path d="M87.74 92.44h1V90.78a3 3 0 00-3-3H75.52a3 3 0 00-3 3V92.44h15.22z" fill="#5C5C5C" stroke="#000" stroke-width="2"/><mask id="o" maskUnits="userSpaceOnUse" x="42.3" y="41.44" width="12" height="18" fill="#000"><path fill="#fff" d="M42.3 41.44h12v18h-12z"/><path fill-rule="evenodd" clip-rule="evenodd" d="M49.8 50.36a3.56 3.56 0 10-2.32 0c.02 2.85-1.48 6.42-4.18 6.42h10.66c-2.69 0-4.18-3.59-4.16-6.42z"/></mask><path fill-rule="evenodd" clip-rule="evenodd" d="M49.8 50.36a3.56 3.56 0 10-2.32 0c.02 2.85-1.48 6.42-4.18 6.42h10.66c-2.69 0-4.18-3.59-4.16-6.42z" fill="#5C5C5C"/><path d="M49.8 50.36l-.66-1.89-1.33.46-.01 1.42h2zm-2.32 0l2-.01-.02-1.42-1.34-.46-.64 1.9zm2.7-3.36c0 .68-.43 1.26-1.04 1.47l1.32 3.78A5.56 5.56 0 0054.19 47h-4zm-1.55-1.56c.86 0 1.56.7 1.56 1.56h4a5.56 5.56 0 00-5.56-5.56v4zM47.07 47c0-.86.7-1.56 1.56-1.56v-4A5.56 5.56 0 0043.07 47h4zm1.05 1.47A1.56 1.56 0 0147.08 47h-4c0 2.44 1.58 4.5 3.76 5.26l1.3-3.79zm-4.82 10.3c2.35 0 3.95-1.57 4.85-3.14.9-1.59 1.34-3.55 1.33-5.28l-4 .03a6.83 6.83 0 01-.8 3.27c-.54.92-1.04 1.13-1.38 1.13v4zm10.66-4H43.3v4h10.66v-4zm-6.16-4.42c-.01 1.72.43 3.68 1.32 5.27.9 1.57 2.48 3.16 4.84 3.16v-4c-.33 0-.83-.2-1.35-1.13a6.96 6.96 0 01-.81-3.28l-4-.02z" fill="#000" mask="url(#o)"/><path d="M55.74 60.44h1V58.78a3 3 0 00-3-3H43.52a3 3 0 00-3 3V60.44h15.22z" fill="#5C5C5C" stroke="#000" stroke-width="2"/></svg>