<svg width="320" height="289" fill="none" xmlns="http://www.w3.org/2000/svg"><g clip-path="url(#clip0)"><path fill="#FEE6C1" d="M32 .24h256v256H32z"/><path d="M32 224.24h32v32H32v-32zM32 96.24h32v32H32v-32zM32 160.24h32v32H32v-32zM32 32.24h32v32H32v-32zM64 192.24h32v32H64v-32zM64 64.24h32v32H64v-32zM64 128.24h32v32H64v-32zM64 .24h32v32H64v-32zM160 224.24h32v32h-32v-32zM160 96.24h32v32h-32v-32zM160 160.24h32v32h-32v-32zM160 32.24h32v32h-32v-32zM192 192.24h32v32h-32v-32zM192 64.24h32v32h-32v-32zM192 128.24h32v32h-32v-32zM192 .24h32v32h-32v-32zM96 224.24h32v32H96v-32zM96 96.24h32v32H96v-32zM96 160.24h32v32H96v-32zM96 32.24h32v32H96v-32zM128 192.24h32v32h-32v-32zM128 64.24h32v32h-32v-32zM128 128.24h32v32h-32v-32zM128 .24h32v32h-32v-32zM224 224.24h32v32h-32v-32zM224 96.24h32v32h-32v-32zM224 160.24h32v32h-32v-32zM224 32.24h32v32h-32v-32zM256 192.24h32v32h-32v-32zM256 64.24h32v32h-32v-32zM256 128.24h32v32h-32v-32zM256 .24h32v32h-32v-32z" fill="#866C4A"/><path d="M13.42 237.6v-2.54h4.44v11.68H15v-9.14h-1.59zM12.05 212.54a59 59 0 002.96-2.53c.61-.55 1.12-1.13 1.54-1.74.42-.6.62-1.2.62-1.77 0-.44-.1-.78-.3-1.03-.2-.24-.5-.37-.91-.37-.4 0-.73.16-.96.47-.23.3-.34.72-.34 1.28h-2.64c.02-.9.21-1.67.58-2.27.37-.61.86-1.06 1.45-1.35.61-.29 1.28-.43 2.02-.43 1.27 0 2.22.32 2.86.98.65.65.98 1.5.98 2.54 0 1.14-.39 2.2-1.17 3.18-.78.97-1.77 1.92-2.97 2.85h4.32v2.23h-8.04v-2.04zM11.97 174.35a3.51 3.51 0 011.12-2.64c.7-.62 1.66-.93 2.87-.93.8 0 1.48.14 2.04.42a2.95 2.95 0 011.75 2.75c0 .7-.18 1.28-.53 1.73a2.7 2.7 0 01-1.23.9v.06c.6.2 1.09.54 1.44 1 .35.48.53 1.08.53 1.82 0 .66-.16 1.24-.47 1.76-.3.5-.74.9-1.33 1.18-.57.29-1.26.43-2.06.43a4.7 4.7 0 01-3.07-.94c-.76-.63-1.16-1.58-1.2-2.85h2.65c.01.47.15.84.4 1.12.26.27.63.4 1.12.4.42 0 .74-.12.96-.35.24-.25.36-.57.36-.96 0-.51-.17-.88-.5-1.1-.32-.24-.84-.36-1.55-.36h-.51v-2.22h.5c.55 0 .99-.1 1.32-.27.34-.2.51-.53.51-1.01 0-.39-.1-.69-.32-.9a1.2 1.2 0 00-.88-.32c-.4 0-.7.13-.91.37-.2.25-.3.55-.34.91h-2.67zM11.37 148.66v-2.21l5.06-7.23h3.05v7.07h1.31v2.37h-1.3v2.08h-2.74v-2.08h-5.38zm5.57-6.44l-2.69 4.07h2.69v-4.07zM19.74 108.44h-5v2.2c.22-.23.52-.42.9-.57.39-.15.8-.22 1.25-.22a3.19 3.19 0 013.15 1.95c.25.58.37 1.2.37 1.87 0 1.25-.35 2.24-1.05 2.98-.7.72-1.7 1.09-2.98 1.09a5.3 5.3 0 01-2.22-.44c-.63-.3-1.12-.7-1.46-1.23a3.54 3.54 0 01-.56-1.8h2.67c.07.33.22.6.47.83.24.2.58.32 1 .32.5 0 .88-.16 1.12-.48.25-.32.37-.75.37-1.28s-.13-.93-.38-1.2c-.26-.28-.63-.42-1.12-.42-.36 0-.66.1-.9.27-.23.17-.39.4-.46.69h-2.64v-6.96h7.47v2.4zM17.4 77.2a1.6 1.6 0 00-.45-.87c-.2-.2-.51-.3-.9-.3-.62 0-1.05.26-1.32.8-.27.52-.4 1.35-.42 2.49a2.4 2.4 0 011.01-.88c.45-.21.94-.32 1.47-.32a3.3 3.3 0 012.52 1c.64.65.96 1.58.96 2.76 0 .78-.16 1.46-.48 2.05a3.3 3.3 0 01-1.38 1.37c-.6.33-1.3.5-2.13.5-1.64 0-2.78-.51-3.42-1.54-.64-1.03-.96-2.51-.96-4.44 0-2.03.33-3.53 1-4.52.69-.99 1.78-1.48 3.27-1.48.8 0 1.47.16 2.02.48.55.3.97.72 1.24 1.23.3.51.46 1.07.52 1.68H17.4zm-1.26 3.08c-.46 0-.84.14-1.15.42-.3.26-.45.65-.45 1.15 0 .51.14.91.41 1.2.3.29.7.43 1.22.43.47 0 .84-.14 1.1-.42.28-.28.42-.67.42-1.16 0-.5-.13-.9-.4-1.19-.27-.29-.65-.43-1.15-.43zM19.9 44.1l-4.02 9.64h-2.8l4.06-9.33h-4.97v-2.34h7.72v2.03zM13.45 16.46c-1-.53-1.5-1.37-1.5-2.5a2.86 2.86 0 011.8-2.71c.61-.29 1.36-.43 2.25-.43.88 0 1.62.14 2.22.43a2.86 2.86 0 011.8 2.7 2.7 2.7 0 01-.4 1.5c-.27.43-.64.77-1.1 1.01a3.06 3.06 0 011.8 2.85 3.37 3.37 0 01-2.15 3.22c-.65.29-1.37.43-2.17.43-.8 0-1.53-.14-2.2-.43a3.37 3.37 0 01-2.13-3.22 3.04 3.04 0 011.78-2.85zm3.92-2.1c0-.43-.13-.77-.38-1a1.34 1.34 0 00-1-.37c-.4 0-.75.12-1 .37s-.37.59-.37 1.02c0 .42.13.75.38 1 .26.23.6.35 1 .35s.73-.12.99-.37c.25-.25.38-.58.38-1zM16 17.66c-.5 0-.91.14-1.22.41-.3.27-.46.64-.46 1.12 0 .45.15.82.44 1.1.31.3.72.44 1.24.44.5 0 .9-.14 1.2-.43.3-.29.44-.66.44-1.1 0-.48-.15-.85-.46-1.13-.3-.27-.7-.41-1.18-.41zM273.09 269.21c1.02 0 1.85.34 2.46 1.03.62.67.93 1.6.93 2.78v5.22h-2.72v-4.85c0-.6-.15-1.06-.46-1.4-.31-.32-.73-.49-1.25-.49s-.94.17-1.25.5c-.3.33-.46.8-.46 1.39v4.85h-2.74V266.4h2.74v4.1c.28-.39.65-.7 1.13-.94a3.63 3.63 0 011.62-.35zM238.95 269.18c.63 0 1.18.13 1.65.38.48.26.85.6 1.1 1.01v-1.26h2.74v8.91a4.9 4.9 0 01-.5 2.22c-.31.68-.81 1.2-1.48 1.6-.66.4-1.49.6-2.48.6-1.32 0-2.4-.32-3.22-.95a3.51 3.51 0 01-1.4-2.53h2.7c.08.34.29.61.6.8.33.2.72.3 1.19.3.57 0 1.01-.16 1.34-.49.35-.32.52-.83.52-1.55v-1.26a3.1 3.1 0 01-2.76 1.4 3.7 3.7 0 01-3.42-2.17 5.51 5.51 0 01-.51-2.43c0-.92.17-1.73.51-2.42a3.7 3.7 0 013.42-2.16zm2.76 4.6c0-.7-.2-1.23-.58-1.62-.37-.4-.83-.6-1.38-.6-.54 0-1 .2-1.39.6a2.2 2.2 0 00-.56 1.6c0 .68.19 1.22.56 1.63.39.4.85.59 1.4.59.54 0 1-.2 1.37-.6.38-.39.58-.93.58-1.6zM210.59 271.58h-1.47v6.66h-2.74v-6.66h-1v-2.27h1v-.26c0-1.1.32-1.93.94-2.5.64-.57 1.56-.86 2.77-.86.2 0 .35 0 .45.02v2.32c-.52-.03-.89.04-1.1.22-.22.18-.32.5-.32.98v.08h1.47v2.27zM180.48 273.63c0 .25-.02.52-.05.8h-6.2c.05.55.23.98.54 1.28.32.29.7.43 1.16.43.69 0 1.16-.29 1.43-.86h2.91a3.93 3.93 0 01-.82 1.58c-.38.47-.86.84-1.45 1.1a4.7 4.7 0 01-1.97.4 4.8 4.8 0 01-2.34-.56 3.99 3.99 0 01-1.6-1.6c-.38-.69-.57-1.5-.57-2.43 0-.93.19-1.74.56-2.43.38-.7.92-1.23 1.6-1.6a4.83 4.83 0 012.35-.56c.86 0 1.63.18 2.3.54.68.37 1.2.88 1.57 1.56.39.67.58 1.45.58 2.35zm-2.8-.72c0-.47-.16-.85-.48-1.12a1.77 1.77 0 00-1.2-.42c-.46 0-.85.13-1.17.4-.3.27-.5.65-.58 1.14h3.43zM139.02 273.76c0-.92.17-1.73.51-2.42a3.7 3.7 0 015.02-1.8c.5.25.88.58 1.16 1v-4.14h2.73v11.84h-2.73v-1.28c-.26.42-.63.76-1.1 1.02-.48.26-1.03.38-1.66.38a3.7 3.7 0 01-3.42-2.17 5.51 5.51 0 01-.51-2.43zm6.69.01c0-.68-.2-1.22-.58-1.61-.37-.4-.83-.6-1.38-.6-.54 0-1 .2-1.39.6a2.2 2.2 0 00-.56 1.6c0 .68.19 1.22.56 1.63.39.4.85.59 1.4.59.54 0 1-.2 1.37-.6.38-.39.58-.93.58-1.6zM107.6 273.77c0-.93.2-1.74.56-2.43.39-.7.92-1.23 1.59-1.6a4.8 4.8 0 012.33-.56c1.12 0 2.06.3 2.8.88a4.13 4.13 0 011.5 2.48h-2.92c-.24-.68-.72-1.02-1.42-1.02-.5 0-.9.2-1.2.59-.3.38-.45.94-.45 1.66 0 .73.15 1.29.45 1.68.3.39.7.58 1.2.58.7 0 1.17-.34 1.42-1.03h2.91a4.18 4.18 0 01-1.49 2.47c-.75.6-1.69.9-2.8.9a4.8 4.8 0 01-2.33-.57c-.67-.37-1.2-.9-1.59-1.6-.37-.69-.56-1.5-.56-2.43zM78.3 270.57c.25-.41.62-.75 1.1-1a3.45 3.45 0 011.65-.39 3.7 3.7 0 013.4 2.16c.36.7.54 1.5.54 2.42 0 .91-.18 1.72-.53 2.43a3.7 3.7 0 01-3.4 2.18c-.64 0-1.19-.13-1.66-.37-.47-.26-.84-.6-1.1-1.01v1.25h-2.74V266.4h2.74v4.17zm3.9 3.19c0-.69-.19-1.22-.57-1.6-.38-.4-.84-.6-1.4-.6-.54 0-1 .2-1.39.6-.37.4-.56.93-.56 1.61 0 .69.19 1.22.56 1.62.39.4.85.59 1.4.59.54 0 1-.2 1.39-.6.38-.4.57-.94.57-1.62zM43.02 273.76c0-.92.17-1.73.51-2.42a3.7 3.7 0 013.42-2.16c.63 0 1.18.13 1.65.38.48.26.85.6 1.1 1.01v-1.26h2.74v8.93h-2.73v-1.27c-.27.42-.64.75-1.12 1.01-.47.26-1.02.38-1.65.38a3.67 3.67 0 01-3.41-2.17 5.51 5.51 0 01-.51-2.43zm6.69.01c0-.68-.2-1.22-.58-1.61-.37-.4-.83-.6-1.38-.6-.54 0-1 .2-1.39.6a2.2 2.2 0 00-.56 1.6c0 .68.19 1.22.56 1.63.39.4.85.59 1.4.59.54 0 1-.2 1.37-.6.38-.39.58-.93.58-1.6z" fill="#000"/><mask id="a" maskUnits="userSpaceOnUse" x="226.84" y="224.79" width="26" height="26" fill="#000"><path fill="#fff" d="M226.84 224.79h26v26h-26z"/><path fill-rule="evenodd" clip-rule="evenodd" d="M247.11 248.13l2.93-7.99a2 2 0 00-1.02-2.5c-3.56-1.68-5.71-2.62-8.1-2.81v-3.6h2.8v-1.77h-2.8v-2.67h-1.85v2.67h-2.78v1.78h2.78v3.59c-2.38.2-4.53 1.13-8.09 2.81a2 2 0 00-1.02 2.5l2.93 7.99h14.22zm-8.89-10.72c-1.12.19-2.38.56-4.04 1.1a1.99 1.99 0 00-1.15 2.78l1.64 3.28h3.55v-7.16zm7.6 1.1c-1.66-.54-2.92-.91-4.04-1.1v7.16h3.55l1.64-3.28c.54-1.09 0-2.4-1.15-2.78z"/></mask><path fill-rule="evenodd" clip-rule="evenodd" d="M247.11 248.13l2.93-7.99a2 2 0 00-1.02-2.5c-3.56-1.68-5.71-2.62-8.1-2.81v-3.6h2.8v-1.77h-2.8v-2.67h-1.85v2.67h-2.78v1.78h2.78v3.59c-2.38.2-4.53 1.13-8.09 2.81a2 2 0 00-1.02 2.5l2.93 7.99h14.22zm-8.89-10.72c-1.12.19-2.38.56-4.04 1.1a1.99 1.99 0 00-1.15 2.78l1.64 3.28h3.55v-7.16zm7.6 1.1c-1.66-.54-2.92-.91-4.04-1.1v7.16h3.55l1.64-3.28c.54-1.09 0-2.4-1.15-2.78z" fill="#fff"/><path d="M239.15 235.83a10.4 10.4 0 011.7 0l.16-2c-.68-.05-1.34-.05-2.02 0l.16 2zm10.89 4.31l1.88.69-1.88-.69zm-2.93 7.99v2h1.4l.48-1.32-1.88-.69zm1.9-10.48l.86-1.81-.85 1.8zm-8.08-2.82h-2v1.84l1.83.15.17-1.99zm0-3.6v-2h-2v2h2zm2.78 0v2h2v-2h-2zm0-1.77h2v-2h-2v2zm-2.78 0h-2v2h2v-2zm0-2.67h2v-2h-2v2zm-1.86 0v-2h-2v2h2zm0 2.67v2h2v-2h-2zm-2.78 0v-2h-2v2h2zm0 1.78h-2v2h2v-2zm2.78 0h2v-2h-2v2zm0 3.59l.16 2 1.84-.16v-1.84h-2zm-8.09 2.81l.86 1.81-.86-1.8zm-1.02 2.5l1.88-.69-1.88.69zm2.93 7.99l-1.88.68.48 1.31h1.4v-2zm1.29-9.62l-.62-1.9.62 1.9zm4.04-1.1h2v-2.38l-2.34.4.34 1.98zm-5.2 3.88l1.8-.9-1.8.9zm1.65 3.28l-1.8.9.56 1.1h1.24v-2zm3.55 0v2h2v-2h-2zm3.56-7.16l.34-1.97-2.34-.4v2.37h2zm4.04 1.1l-.62 1.9.62-1.9zm-4.04 6.06h-2v2h2v-2zm3.55 0v2h1.24l.55-1.1-1.79-.9zm1.64-3.28l1.8.9-1.8-.9zm1.19-1.84l-2.93 7.99 3.76 1.37 2.93-7.98-3.76-1.38zm0 0l3.76 1.38a4 4 0 00-2.05-5l-1.7 3.62zm-7.4-2.63c1.96.16 3.8.92 7.4 2.63l1.71-3.61c-3.5-1.66-5.98-2.78-8.78-3l-.33 3.98zm-1.83-5.58v3.59h4v-3.6h-4zm4.78-2h-2.78v4h2.78v-4zm-2 .22v1.78h4v-1.78h-4zm-.78 2h2.78v-4h-2.78v4zm-2-4.67v2.67h4v-2.67h-4zm.14 2h1.86v-4h-1.86v4zm2 .67v-2.67h-4v2.67h4zm-4.78 2h2.78v-4h-2.78v4zm2-.22v-1.78h-4v1.78h4zm.78-2h-2.78v4h2.78v-4zm2 5.59v-3.6h-4v3.6h4zm-9.23 4.62c3.6-1.7 5.44-2.47 7.4-2.63l-.33-3.98c-2.8.22-5.28 1.34-8.78 3l1.7 3.61zm0 0l-1.72-3.61a4 4 0 00-2.04 4.99l3.76-1.38zm2.93 7.99l-2.93-7.99-3.76 1.38 2.93 7.98 3.76-1.37zm12.34-1.31h-14.22v4h14.22v-4zm-12.31-5.72a27.6 27.6 0 013.76-1.03l-.68-3.94c-1.27.21-2.66.62-4.32 1.17l1.24 3.8zm.01-.02v.01h-.01l-1.24-3.8a3.99 3.99 0 00-2.32 5.58l3.57-1.79zm1.65 3.29l-1.65-3.29-3.57 1.8 1.64 3.27 3.58-1.78zm1.76-1.11h-3.55v4h3.55v-4zm-2-5.16v7.16h4v-7.16h-4zm5.22 1.97c.97.16 2.11.49 3.76 1.03l1.24-3.8a31.28 31.28 0 00-4.32-1.18l-.68 3.95zm2.34 5.19v-7.16h-4v7.16h4zm1.55-2h-3.55v4h3.55v-4zm-.15-2.18l-1.64 3.29 3.58 1.78 1.64-3.28-3.58-1.79zm.02.02l-.01-.01 3.57 1.78a3.99 3.99 0 00-2.32-5.57l-1.24 3.8z" fill="#000" mask="url(#a)"/><path d="M249.78 252.68h1v-2.56a3 3 0 00-3-3h-15.56a3 3 0 00-3 3v2.56h20.56z" fill="#fff" stroke="#000" stroke-width="2"/><mask id="b" maskUnits="userSpaceOnUse" x="265.67" y="201.68" width="12" height="18" fill="#000"><path fill="#fff" d="M265.67 201.68h12v18h-12z"/><path fill-rule="evenodd" clip-rule="evenodd" d="M273.17 210.6a3.56 3.56 0 10-2.32 0c.02 2.84-1.49 6.41-4.18 6.41h10.66c-2.69 0-4.18-3.58-4.16-6.41z"/></mask><path fill-rule="evenodd" clip-rule="evenodd" d="M273.17 210.6a3.56 3.56 0 10-2.32 0c.02 2.84-1.49 6.41-4.18 6.41h10.66c-2.69 0-4.18-3.58-4.16-6.41z" fill="#fff"/><path d="M273.17 210.6l-.66-1.9-1.33.47-.01 1.41 2 .01zm-2.32 0l2-.02-.02-1.41-1.34-.46-.64 1.89zm2.7-3.36c0 .67-.43 1.25-1.04 1.47l1.31 3.77a5.56 5.56 0 003.74-5.24h-4zm-1.55-1.56c.86 0 1.56.7 1.56 1.56h4a5.56 5.56 0 00-5.56-5.56v4zm-1.56 1.56c0-.86.7-1.56 1.56-1.56v-4a5.56 5.56 0 00-5.56 5.56h4zm1.05 1.47a1.56 1.56 0 01-1.05-1.47h-4c0 2.44 1.58 4.5 3.76 5.25l1.3-3.78zm-4.82 10.3c2.35 0 3.95-1.57 4.84-3.15.91-1.59 1.35-3.54 1.34-5.28l-4 .04a6.84 6.84 0 01-.81 3.26c-.53.93-1.03 1.13-1.37 1.13v4zm10.66-4h-10.66v4h10.66v-4zm-6.16-4.43c-.01 1.73.43 3.68 1.32 5.27.9 1.57 2.48 3.16 4.84 3.16v-4c-.33 0-.83-.2-1.35-1.13a6.95 6.95 0 01-.81-3.27l-4-.03z" fill="#000" mask="url(#b)"/><path d="M279.11 220.68h1v-1.67a3 3 0 00-3-3H266.9a3 3 0 00-3 3v1.67h15.22z" fill="#fff" stroke="#000" stroke-width="2"/><mask id="c" maskUnits="userSpaceOnUse" x="265.67" y="73.68" width="12" height="18" fill="#000"><path fill="#fff" d="M265.67 73.68h12v18h-12z"/><path fill-rule="evenodd" clip-rule="evenodd" d="M273.17 82.6a3.56 3.56 0 10-2.32 0c.02 2.85-1.49 6.41-4.18 6.41h10.66c-2.69 0-4.18-3.58-4.16-6.42z"/></mask><path fill-rule="evenodd" clip-rule="evenodd" d="M273.17 82.6a3.56 3.56 0 10-2.32 0c.02 2.85-1.49 6.41-4.18 6.41h10.66c-2.69 0-4.18-3.58-4.16-6.42z" fill="#5C5C5C"/><path d="M273.17 82.6l-.66-1.9-1.33.47-.01 1.41 2 .01zm-2.32 0l2-.02-.02-1.41-1.34-.46-.64 1.89zm2.7-3.36c0 .67-.43 1.25-1.04 1.47l1.31 3.77a5.56 5.56 0 003.74-5.24h-4zM272 77.68c.86 0 1.56.7 1.56 1.56h4a5.56 5.56 0 00-5.56-5.56v4zm-1.56 1.56c0-.86.7-1.56 1.56-1.56v-4a5.56 5.56 0 00-5.56 5.56h4zm1.05 1.47a1.56 1.56 0 01-1.05-1.47h-4c0 2.44 1.58 4.5 3.76 5.25l1.3-3.78zM266.67 91c2.35 0 3.95-1.57 4.84-3.15.91-1.58 1.35-3.54 1.34-5.28l-4 .04a6.83 6.83 0 01-.81 3.26c-.53.93-1.03 1.13-1.37 1.13v4zm10.66-4h-10.66v4h10.66v-4zm-6.16-4.43c-.01 1.73.43 3.68 1.32 5.27.9 1.57 2.48 3.16 4.84 3.16v-4c-.33 0-.83-.2-1.35-1.13a6.95 6.95 0 01-.81-3.27l-4-.03z" fill="#000" mask="url(#c)"/><path d="M279.11 92.68h1v-1.67a3 3 0 00-3-3H266.9a3 3 0 00-3 3v1.67h15.22z" fill="#5C5C5C" stroke="#000" stroke-width="2"/><mask id="d" maskUnits="userSpaceOnUse" x="233.67" y="41.68" width="12" height="18" fill="#000"><path fill="#fff" d="M233.67 41.68h12v18h-12z"/><path fill-rule="evenodd" clip-rule="evenodd" d="M241.17 50.6a3.56 3.56 0 10-2.32 0c.02 2.85-1.49 6.41-4.18 6.41h10.66c-2.69 0-4.18-3.58-4.16-6.42z"/></mask><path fill-rule="evenodd" clip-rule="evenodd" d="M241.17 50.6a3.56 3.56 0 10-2.32 0c.02 2.85-1.49 6.41-4.18 6.41h10.66c-2.69 0-4.18-3.58-4.16-6.42z" fill="#5C5C5C"/><path d="M241.17 50.6l-.66-1.9-1.33.47-.01 1.41 2 .01zm-2.32 0l2-.02-.02-1.41-1.34-.46-.65 1.89zm2.7-3.36c0 .67-.43 1.25-1.04 1.47l1.31 3.77a5.56 5.56 0 003.74-5.24h-4zM240 45.68c.86 0 1.56.7 1.56 1.56h4a5.56 5.56 0 00-5.56-5.56v4zm-1.56 1.56c0-.86.7-1.56 1.56-1.56v-4a5.56 5.56 0 00-5.56 5.56h4zm1.05 1.47a1.56 1.56 0 01-1.05-1.47h-4c0 2.44 1.58 4.5 3.76 5.25l1.3-3.78zM234.67 59c2.35 0 3.95-1.57 4.84-3.15.91-1.58 1.35-3.54 1.34-5.28l-4 .04a6.83 6.83 0 01-.81 3.26c-.53.93-1.03 1.13-1.37 1.13v4zm10.66-4h-10.66v4h10.66v-4zm-6.16-4.43c-.01 1.73.43 3.68 1.32 5.27.9 1.57 2.48 3.16 4.84 3.16v-4c-.33 0-.83-.2-1.35-1.13a6.95 6.95 0 01-.81-3.27l-4-.03z" fill="#000" mask="url(#d)"/><path d="M247.11 60.68h1v-1.67a3 3 0 00-3-3H234.9a3 3 0 00-3 3v1.67h15.22z" fill="#5C5C5C" stroke="#000" stroke-width="2"/><mask id="e" maskUnits="userSpaceOnUse" x="201.67" y="41.68" width="12" height="18" fill="#000"><path fill="#fff" d="M201.67 41.68h12v18h-12z"/><path fill-rule="evenodd" clip-rule="evenodd" d="M209.17 50.6a3.56 3.56 0 10-2.32 0c.02 2.85-1.49 6.41-4.18 6.41h10.66c-2.69 0-4.18-3.58-4.16-6.42z"/></mask><path fill-rule="evenodd" clip-rule="evenodd" d="M209.17 50.6a3.56 3.56 0 10-2.32 0c.02 2.85-1.49 6.41-4.18 6.41h10.66c-2.69 0-4.18-3.58-4.16-6.42z" fill="#5C5C5C"/><path d="M209.17 50.6l-.66-1.9-1.33.47-.01 1.41 2 .01zm-2.32 0l2-.02-.02-1.41-1.34-.46-.65 1.89zm2.7-3.36c0 .67-.43 1.25-1.04 1.47l1.31 3.77a5.56 5.56 0 003.74-5.24h-4zM208 45.68c.86 0 1.56.7 1.56 1.56h4a5.56 5.56 0 00-5.56-5.56v4zm-1.56 1.56c0-.86.7-1.56 1.56-1.56v-4a5.56 5.56 0 00-5.56 5.56h4zm1.05 1.47a1.56 1.56 0 01-1.05-1.47h-4c0 2.44 1.58 4.5 3.76 5.25l1.3-3.78zM202.67 59c2.35 0 3.95-1.57 4.84-3.15.91-1.58 1.35-3.54 1.34-5.28l-4 .04a6.83 6.83 0 01-.81 3.26c-.53.93-1.03 1.13-1.37 1.13v4zm10.66-4h-10.66v4h10.66v-4zm-6.16-4.43c-.01 1.73.43 3.68 1.32 5.27.9 1.57 2.48 3.16 4.84 3.16v-4c-.33 0-.83-.2-1.35-1.13a6.95 6.95 0 01-.81-3.27l-4-.03z" fill="#000" mask="url(#e)"/><path d="M215.11 60.68h1v-1.67a3 3 0 00-3-3H202.9a3 3 0 00-3 3v1.67h15.22z" fill="#5C5C5C" stroke="#000" stroke-width="2"/><mask id="f" maskUnits="userSpaceOnUse" x="73.67" y="41.68" width="12" height="18" fill="#000"><path fill="#fff" d="M73.67 41.68h12v18h-12z"/><path fill-rule="evenodd" clip-rule="evenodd" d="M81.17 50.6a3.56 3.56 0 10-2.32 0c.02 2.85-1.49 6.41-4.18 6.41h10.66c-2.69 0-4.18-3.58-4.16-6.42z"/></mask><path fill-rule="evenodd" clip-rule="evenodd" d="M81.17 50.6a3.56 3.56 0 10-2.32 0c.02 2.85-1.49 6.41-4.18 6.41h10.66c-2.69 0-4.18-3.58-4.16-6.42z" fill="#5C5C5C"/><path d="M81.17 50.6l-.66-1.9-1.33.47-.01 1.41 2 .01zm-2.32 0l2-.02-.02-1.41-1.34-.46-.64 1.89zm2.7-3.36c0 .67-.43 1.25-1.04 1.47l1.31 3.77a5.56 5.56 0 003.73-5.24h-4zM80 45.68c.86 0 1.55.7 1.55 1.56h4A5.56 5.56 0 0080 41.68v4zm-1.56 1.56c0-.86.7-1.56 1.56-1.56v-4a5.56 5.56 0 00-5.56 5.56h4zm1.05 1.47a1.56 1.56 0 01-1.05-1.47h-4c0 2.44 1.58 4.5 3.76 5.25l1.3-3.78zM74.67 59c2.35 0 3.95-1.57 4.85-3.15.9-1.58 1.34-3.54 1.33-5.28l-4 .04a6.83 6.83 0 01-.81 3.26c-.53.93-1.03 1.13-1.37 1.13v4zm10.66-4H74.67v4h10.66v-4zm-6.16-4.43c-.01 1.73.43 3.68 1.32 5.27.9 1.57 2.48 3.16 4.84 3.16v-4c-.33 0-.83-.2-1.35-1.13a6.96 6.96 0 01-.81-3.27l-4-.03z" fill="#000" mask="url(#f)"/><path d="M87.11 60.68h1v-1.67a3 3 0 00-3-3H74.9a3 3 0 00-3 3v1.67H87.1z" fill="#5C5C5C" stroke="#000" stroke-width="2"/><mask id="g" maskUnits="userSpaceOnUse" x="41.67" y="41.68" width="12" height="18" fill="#000"><path fill="#fff" d="M41.67 41.68h12v18h-12z"/><path fill-rule="evenodd" clip-rule="evenodd" d="M49.17 50.6a3.56 3.56 0 10-2.32 0c.02 2.85-1.49 6.41-4.18 6.41h10.66c-2.69 0-4.18-3.58-4.16-6.42z"/></mask><path fill-rule="evenodd" clip-rule="evenodd" d="M49.17 50.6a3.56 3.56 0 10-2.32 0c.02 2.85-1.49 6.41-4.18 6.41h10.66c-2.69 0-4.18-3.58-4.16-6.42z" fill="#5C5C5C"/><path d="M49.17 50.6l-.66-1.9-1.33.47-.01 1.41 2 .01zm-2.32 0l2-.02-.02-1.41-1.34-.46-.64 1.89zm2.7-3.36c0 .67-.43 1.25-1.04 1.47l1.31 3.77a5.56 5.56 0 003.73-5.24h-4zM48 45.68c.86 0 1.55.7 1.55 1.56h4A5.56 5.56 0 0048 41.68v4zm-1.56 1.56c0-.86.7-1.56 1.56-1.56v-4a5.56 5.56 0 00-5.56 5.56h4zm1.05 1.47a1.56 1.56 0 01-1.05-1.47h-4c0 2.44 1.58 4.5 3.76 5.25l1.3-3.78zM42.67 59c2.35 0 3.95-1.57 4.85-3.15.9-1.58 1.34-3.54 1.33-5.28l-4 .04a6.83 6.83 0 01-.81 3.26c-.53.93-1.03 1.13-1.37 1.13v4zm10.66-4H42.67v4h10.66v-4zm-6.16-4.43c-.01 1.73.43 3.68 1.32 5.27.9 1.57 2.48 3.16 4.84 3.16v-4c-.33 0-.83-.2-1.35-1.13a6.96 6.96 0 01-.81-3.27l-4-.03z" fill="#000" mask="url(#g)"/><path d="M55.11 60.68h1v-1.67a3 3 0 00-3-3H42.9a3 3 0 00-3 3v1.67H55.1z" fill="#5C5C5C" stroke="#000" stroke-width="2"/><mask id="h" maskUnits="userSpaceOnUse" x="233.67" y="201.68" width="12" height="18" fill="#000"><path fill="#fff" d="M233.67 201.68h12v18h-12z"/><path fill-rule="evenodd" clip-rule="evenodd" d="M241.17 210.6a3.56 3.56 0 10-2.32 0c.02 2.84-1.49 6.41-4.18 6.41h10.66c-2.69 0-4.18-3.58-4.16-6.41z"/></mask><path fill-rule="evenodd" clip-rule="evenodd" d="M241.17 210.6a3.56 3.56 0 10-2.32 0c.02 2.84-1.49 6.41-4.18 6.41h10.66c-2.69 0-4.18-3.58-4.16-6.41z" fill="#fff"/><path d="M241.17 210.6l-.66-1.9-1.33.47-.01 1.41 2 .01zm-2.32 0l2-.02-.02-1.41-1.34-.46-.65 1.89zm2.7-3.36c0 .67-.43 1.25-1.04 1.47l1.31 3.77a5.56 5.56 0 003.74-5.24h-4zm-1.55-1.56c.86 0 1.56.7 1.56 1.56h4a5.56 5.56 0 00-5.56-5.56v4zm-1.56 1.56c0-.86.7-1.56 1.56-1.56v-4a5.56 5.56 0 00-5.56 5.56h4zm1.05 1.47a1.56 1.56 0 01-1.05-1.47h-4c0 2.44 1.58 4.5 3.76 5.25l1.3-3.78zm-4.82 10.3c2.35 0 3.95-1.57 4.84-3.15.91-1.59 1.35-3.54 1.34-5.28l-4 .04a6.84 6.84 0 01-.81 3.26c-.53.93-1.03 1.13-1.37 1.13v4zm10.66-4h-10.66v4h10.66v-4zm-6.16-4.43c-.01 1.73.43 3.68 1.32 5.27.9 1.57 2.48 3.16 4.84 3.16v-4c-.33 0-.83-.2-1.35-1.13a6.95 6.95 0 01-.81-3.27l-4-.03z" fill="#000" mask="url(#h)"/><path d="M247.11 220.68h1v-1.67a3 3 0 00-3-3H234.9a3 3 0 00-3 3v1.67h15.22z" fill="#fff" stroke="#000" stroke-width="2"/><mask id="i" maskUnits="userSpaceOnUse" x="201.67" y="201.68" width="12" height="18" fill="#000"><path fill="#fff" d="M201.67 201.68h12v18h-12z"/><path fill-rule="evenodd" clip-rule="evenodd" d="M209.17 210.6a3.56 3.56 0 10-2.32 0c.02 2.84-1.49 6.41-4.18 6.41h10.66c-2.69 0-4.18-3.58-4.16-6.41z"/></mask><path fill-rule="evenodd" clip-rule="evenodd" d="M209.17 210.6a3.56 3.56 0 10-2.32 0c.02 2.84-1.49 6.41-4.18 6.41h10.66c-2.69 0-4.18-3.58-4.16-6.41z" fill="#fff"/><path d="M209.17 210.6l-.66-1.9-1.33.47-.01 1.41 2 .01zm-2.32 0l2-.02-.02-1.41-1.34-.46-.65 1.89zm2.7-3.36c0 .67-.43 1.25-1.04 1.47l1.31 3.77a5.56 5.56 0 003.74-5.24h-4zm-1.55-1.56c.86 0 1.56.7 1.56 1.56h4a5.56 5.56 0 00-5.56-5.56v4zm-1.56 1.56c0-.86.7-1.56 1.56-1.56v-4a5.56 5.56 0 00-5.56 5.56h4zm1.05 1.47a1.56 1.56 0 01-1.05-1.47h-4c0 2.44 1.58 4.5 3.76 5.25l1.3-3.78zm-4.82 10.3c2.35 0 3.95-1.57 4.84-3.15.91-1.59 1.35-3.54 1.34-5.28l-4 .04a6.84 6.84 0 01-.81 3.26c-.53.93-1.03 1.13-1.37 1.13v4zm10.66-4h-10.66v4h10.66v-4zm-6.16-4.43c-.01 1.73.43 3.68 1.32 5.27.9 1.57 2.48 3.16 4.84 3.16v-4c-.33 0-.83-.2-1.35-1.13a6.95 6.95 0 01-.81-3.27l-4-.03z" fill="#000" mask="url(#i)"/><path d="M215.11 220.68h1v-1.67a3 3 0 00-3-3H202.9a3 3 0 00-3 3v1.67h15.22z" fill="#fff" stroke="#000" stroke-width="2"/><mask id="j" maskUnits="userSpaceOnUse" x="41.67" y="201.68" width="12" height="18" fill="#000"><path fill="#fff" d="M41.67 201.68h12v18h-12z"/><path fill-rule="evenodd" clip-rule="evenodd" d="M49.17 210.6a3.56 3.56 0 10-2.32 0c.02 2.84-1.49 6.41-4.18 6.41h10.66c-2.69 0-4.18-3.58-4.16-6.41z"/></mask><path fill-rule="evenodd" clip-rule="evenodd" d="M49.17 210.6a3.56 3.56 0 10-2.32 0c.02 2.84-1.49 6.41-4.18 6.41h10.66c-2.69 0-4.18-3.58-4.16-6.41z" fill="#fff"/><path d="M49.17 210.6l-.66-1.9-1.33.47-.01 1.41 2 .01zm-2.32 0l2-.02-.02-1.41-1.34-.46-.64 1.89zm2.7-3.36c0 .67-.43 1.25-1.04 1.47l1.31 3.77a5.56 5.56 0 003.73-5.24h-4zM48 205.68c.86 0 1.55.7 1.55 1.56h4a5.56 5.56 0 00-5.55-5.56v4zm-1.56 1.56c0-.86.7-1.56 1.56-1.56v-4a5.56 5.56 0 00-5.56 5.56h4zm1.05 1.47a1.56 1.56 0 01-1.05-1.47h-4c0 2.44 1.58 4.5 3.76 5.25l1.3-3.78zM42.67 219c2.35 0 3.95-1.57 4.85-3.15.9-1.59 1.34-3.54 1.33-5.28l-4 .04a6.83 6.83 0 01-.81 3.26c-.53.93-1.03 1.13-1.37 1.13v4zm10.66-4H42.67v4h10.66v-4zm-6.16-4.43c-.01 1.73.43 3.68 1.32 5.27.9 1.57 2.48 3.16 4.84 3.16v-4c-.33 0-.83-.2-1.35-1.13a6.96 6.96 0 01-.81-3.27l-4-.03z" fill="#000" mask="url(#j)"/><path d="M55.11 220.68h1v-1.67a3 3 0 00-3-3H42.9a3 3 0 00-3 3v1.67H55.1z" fill="#fff" stroke="#000" stroke-width="2"/><mask id="k" maskUnits="userSpaceOnUse" x="73.67" y="169.68" width="12" height="18" fill="#000"><path fill="#fff" d="M73.67 169.68h12v18h-12z"/><path fill-rule="evenodd" clip-rule="evenodd" d="M81.17 178.6a3.56 3.56 0 10-2.32 0c.02 2.84-1.49 6.41-4.18 6.41h10.66c-2.69 0-4.18-3.58-4.16-6.41z"/></mask><path fill-rule="evenodd" clip-rule="evenodd" d="M81.17 178.6a3.56 3.56 0 10-2.32 0c.02 2.84-1.49 6.41-4.18 6.41h10.66c-2.69 0-4.18-3.58-4.16-6.41z" fill="#fff"/><path d="M81.17 178.6l-.66-1.9-1.33.47-.01 1.41 2 .01zm-2.32 0l2-.02-.02-1.41-1.34-.46-.64 1.89zm2.7-3.36c0 .67-.43 1.25-1.04 1.47l1.31 3.77a5.56 5.56 0 003.73-5.24h-4zM80 173.68c.86 0 1.55.7 1.55 1.56h4a5.56 5.56 0 00-5.55-5.56v4zm-1.56 1.56c0-.86.7-1.56 1.56-1.56v-4a5.56 5.56 0 00-5.56 5.56h4zm1.05 1.47a1.56 1.56 0 01-1.05-1.47h-4c0 2.44 1.58 4.5 3.76 5.25l1.3-3.78zM74.67 187c2.35 0 3.95-1.57 4.85-3.15.9-1.59 1.34-3.54 1.33-5.28l-4 .04a6.83 6.83 0 01-.81 3.26c-.53.93-1.03 1.13-1.37 1.13v4zm10.66-4H74.67v4h10.66v-4zm-6.16-4.43c-.01 1.73.43 3.68 1.32 5.27.9 1.57 2.48 3.16 4.84 3.16v-4c-.33 0-.83-.2-1.35-1.13a6.96 6.96 0 01-.81-3.27l-4-.03z" fill="#000" mask="url(#k)"/><path d="M87.11 188.68h1v-1.67a3 3 0 00-3-3H74.9a3 3 0 00-3 3v1.67H87.1z" fill="#fff" stroke="#000" stroke-width="2"/><path fill="#E94E58" fill-opacity=".75" d="M160 64.24h32v32h-32z"/><path fill="#198754" fill-opacity=".75" d="M160 160.24h32v32h-32z"/><path fill="#E94E58" fill-opacity=".75" d="M128 .24h32v32h-32z"/><path d="M140 12.46h-.88l-.11.87L137.67 24l-.14 1.12h12.98l-.2-1.16-1.77-10.67-.14-.83H140z" fill="#5C5C5C" stroke="#000" stroke-width="2"/><path d="M136.89 5.35h-1v9.1h16.22v-9.1H149l-.24.65-1.18 3.24h-1.03l-.86-3.16-.2-.73h-2.95l-.2.73-.87 3.16h-1.03L139.25 6l-.24-.65h-2.12zM153.78 28.68h1v-2.55a3 3 0 00-3-3h-15.56a3 3 0 00-3 3v2.55h20.56z" fill="#5C5C5C" stroke="#000" stroke-width="2"/><path fill-rule="evenodd" clip-rule="evenodd" d="M82.86 230.64a3 3 0 01-1.1 2.33l1.8 7.16 3.88-3.66a3.04 3.04 0 01-.33-1.38 2.91 2.91 0 012.86-2.97 2.91 2.91 0 012.85 2.97 2.91 2.91 0 01-3.04 2.95l-2.67 10.09H72.89l-2.67-10.09a2.92 2.92 0 01-2.67-2.95 2.91 2.91 0 012.86-2.97 2.91 2.91 0 012.86 2.97c0 .6-.17 1.15-.46 1.61l3.63 3.43 1.8-7.16a3 3 0 01-1.1-2.33 2.91 2.91 0 012.86-2.96 2.91 2.91 0 012.86 2.96z" fill="#fff"/><path d="M81.77 232.97l-.64-.77-.49.4.16.61.97-.24zm1.78 7.16l-.97.24.42 1.65 1.24-1.17-.69-.72zm3.89-3.66l.68.73.55-.52-.34-.67-.9.46zm2.34 1.57l.07-1-.83-.05-.2.8.96.25zm-2.67 10.09v1h.77l.2-.75-.97-.25zm-14.22 0l-.97.25.2.75h.77v-1zm-2.67-10.09l.97-.25-.19-.7-.71-.04-.07 1zm2.59-1.34l-.85-.53-.44.7.6.56.69-.73zm3.63 3.43l-.68.72 1.24 1.17.41-1.65-.97-.25zm1.8-7.16l.96.24.16-.61-.5-.4-.63.77zm4.16.78a4 4 0 001.46-3.1h-2a2 2 0 01-.73 1.55l1.27 1.55zm2.12 6.13l-1.78-7.15-1.94.48 1.78 7.16 1.94-.49zm2.23-4.14l-3.88 3.66 1.37 1.45 3.88-3.65-1.37-1.46zm-.64-.65c0 .66.16 1.28.44 1.83l1.78-.9a2.04 2.04 0 01-.22-.93h-2zm3.86-3.97a3.91 3.91 0 00-3.86 3.97h2c0-1.12.87-1.97 1.86-1.97v-2zm3.85 3.97c0-2.16-1.69-3.97-3.85-3.97v2c.99 0 1.85.85 1.85 1.97h2zm-3.85 3.96c2.16 0 3.85-1.8 3.85-3.96h-2c0 1.12-.86 1.96-1.85 1.96v2zm-.26 0h.26v-2h-.12l-.14 2zm-1.63 9.33l2.67-10.08-1.94-.51-2.67 10.08 1.94.51zm-15.2.75h14.23v-2H72.89v2zm-3.63-10.83l2.67 10.08 1.93-.51-2.66-10.08-1.94.51zm1.04-1.25a1.92 1.92 0 01-1.74-1.96h-2a3.92 3.92 0 003.6 3.95l.14-2zm-1.74-1.96c0-1.12.87-1.97 1.86-1.97v-2a3.91 3.91 0 00-3.86 3.97h2zm1.86-1.97c1 0 1.86.85 1.86 1.97h2c0-2.16-1.7-3.97-3.86-3.97v2zm1.86 1.97c0 .4-.12.77-.3 1.08l1.68 1.06c.4-.62.62-1.35.62-2.14h-2zm4.86 4.3l-3.64-3.42-1.37 1.46 3.64 3.42 1.37-1.45zm.13-6.66l-1.79 7.15 1.94.49 1.8-7.16-1.95-.48zm-1.12-2.09a4 4 0 001.46 3.1l1.26-1.54a2 2 0 01-.72-1.56h-2zm3.86-3.96a3.91 3.91 0 00-3.86 3.96h2c0-1.12.87-1.96 1.86-1.96v-2zm3.86 3.96c0-2.15-1.7-3.96-3.86-3.96v2c1 0 1.86.84 1.86 1.96h2z" fill="#000"/><path d="M89.78 252.68h1v-2.56a3 3 0 00-3-3H72.22a3 3 0 00-3 3v2.56h20.56z" fill="#fff" stroke="#000" stroke-width="2"/><path fill-rule="evenodd" clip-rule="evenodd" d="M178.86 70.64a3 3 0 01-1.1 2.33l1.8 7.15 3.88-3.65a3.04 3.04 0 01-.33-1.38 2.91 2.91 0 012.86-2.97 2.91 2.91 0 012.85 2.97 2.91 2.91 0 01-3.04 2.95l-2.67 10.08h-14.22l-2.67-10.08a2.92 2.92 0 01-2.66-2.95 2.91 2.91 0 012.85-2.97 2.91 2.91 0 012.86 2.97c0 .6-.17 1.15-.46 1.61l3.63 3.42 1.8-7.15a3 3 0 01-1.1-2.33 2.91 2.91 0 012.86-2.96 2.91 2.91 0 012.86 2.96z" fill="#5C5C5C"/><path d="M177.77 72.97l-.64-.77-.49.4.16.61.97-.24zm1.78 7.15l-.97.25.42 1.65 1.24-1.17-.69-.73zm3.89-3.65l.68.73.55-.52-.34-.66-.9.45zm2.34 1.57l.07-1-.83-.05-.2.8.96.25zm-2.67 10.08v1h.77l.2-.74-.97-.26zm-14.22 0l-.97.26.2.74h.77v-1zm-2.67-10.08l.97-.25-.19-.7-.71-.04-.07 1zm2.59-1.34l-.85-.53-.44.7.6.56.69-.73zm3.63 3.42l-.68.73 1.24 1.17.41-1.65-.97-.25zm1.8-7.15l.96.24.16-.61-.5-.4-.63.77zm4.16.78a4 4 0 001.46-3.1h-2a2 2 0 01-.73 1.55l1.27 1.55zm2.13 6.13l-1.8-7.15-1.93.48 1.78 7.16 1.94-.49zm2.22-4.14l-3.88 3.66 1.37 1.45 3.88-3.65-1.37-1.46zm-.64-.65c0 .66.16 1.28.44 1.83l1.78-.9a2.05 2.05 0 01-.22-.93h-2zm3.86-3.97a3.91 3.91 0 00-3.86 3.97h2c0-1.12.87-1.97 1.86-1.97v-2zm3.85 3.97c0-2.16-1.69-3.97-3.85-3.97v2c.99 0 1.85.85 1.85 1.97h2zm-3.85 3.96c2.16 0 3.85-1.8 3.85-3.96h-2c0 1.12-.86 1.96-1.85 1.96v2zm-.26 0h.26v-2h-.12l-.14 2zm-1.63 9.33l2.66-10.08-1.93-.51-2.67 10.08 1.94.51zm-15.2.74h14.23v-2h-14.22v2zm-3.63-10.82l2.67 10.08 1.94-.51-2.67-10.08-1.94.51zm1.04-1.25a1.92 1.92 0 01-1.73-1.96h-2a3.92 3.92 0 003.6 3.95l.13-2zm-1.73-1.96c0-1.12.86-1.97 1.85-1.97v-2a3.91 3.91 0 00-3.85 3.97h2zm1.85-1.97c1 0 1.86.85 1.86 1.97h2c0-2.16-1.7-3.97-3.86-3.97v2zm1.86 1.97c0 .4-.12.77-.3 1.08l1.68 1.06c.4-.62.62-1.36.62-2.14h-2zm4.86 4.3l-3.64-3.42-1.37 1.46 3.64 3.42 1.37-1.45zm.13-6.66l-1.79 7.15 1.94.49 1.8-7.16-1.95-.48zm-1.12-2.09a4 4 0 001.46 3.1l1.27-1.54a2 2 0 01-.73-1.56h-2zm3.86-3.96a3.91 3.91 0 00-3.86 3.96h2c0-1.12.87-1.96 1.86-1.96v-2zm3.86 3.96c0-2.15-1.7-3.96-3.86-3.96v2c1 0 1.86.84 1.86 1.96h2z" fill="#000"/><path d="M185.78 92.68h1v-2.56a3 3 0 00-3-3h-15.56a3 3 0 00-3 3v2.56h20.56z" fill="#5C5C5C" stroke="#000" stroke-width="2"/><mask id="l" maskUnits="userSpaceOnUse" x="226.84" y=".79" width="26" height="26" fill="#000"><path fill="#fff" d="M226.84.79h26v26h-26z"/><path fill-rule="evenodd" clip-rule="evenodd" d="M247.11 24.12l2.93-7.98a2 2 0 00-1.02-2.5c-3.56-1.68-5.71-2.62-8.1-2.81v-3.6h2.8V5.47h-2.8V2.79h-1.85v2.67h-2.78v1.78h2.78v3.59c-2.38.2-4.53 1.13-8.09 2.82a2 2 0 00-1.02 2.49l2.93 7.98h14.22zm-8.89-10.71c-1.12.19-2.38.56-4.04 1.1-1.15.37-1.7 1.7-1.15 2.78l1.64 3.28h3.55V13.4zm7.6 1.1c-1.66-.54-2.92-.91-4.04-1.1v7.16h3.55l1.64-3.28c.54-1.09 0-2.4-1.15-2.78z"/></mask><path fill-rule="evenodd" clip-rule="evenodd" d="M247.11 24.12l2.93-7.98a2 2 0 00-1.02-2.5c-3.56-1.68-5.71-2.62-8.1-2.81v-3.6h2.8V5.47h-2.8V2.79h-1.85v2.67h-2.78v1.78h2.78v3.59c-2.38.2-4.53 1.13-8.09 2.82a2 2 0 00-1.02 2.49l2.93 7.98h14.22zm-8.89-10.71c-1.12.19-2.38.56-4.04 1.1-1.15.37-1.7 1.7-1.15 2.78l1.64 3.28h3.55V13.4zm7.6 1.1c-1.66-.54-2.92-.91-4.04-1.1v7.16h3.55l1.64-3.28c.54-1.09 0-2.4-1.15-2.78z" fill="#5C5C5C"/><path d="M239.15 11.83c.57-.05 1.13-.05 1.7 0l.16-2c-.68-.05-1.34-.05-2.02 0l.16 2zm10.89 4.31l1.88.69-1.88-.69zm-2.93 7.98v2h1.4l.48-1.3-1.88-.7zm1.9-10.47l.86-1.81-.85 1.8zm-8.08-2.82h-2v1.84l1.83.15.17-1.99zm0-3.6v-2h-2v2h2zm2.78 0v2h2v-2h-2zm0-1.77h2v-2h-2v2zm-2.78 0h-2v2h2v-2zm0-2.67h2v-2h-2v2zm-1.86 0v-2h-2v2h2zm0 2.67v2h2v-2h-2zm-2.78 0v-2h-2v2h2zm0 1.78h-2v2h2v-2zm2.78 0h2v-2h-2v2zm0 3.59l.16 2 1.84-.16v-1.84h-2zm-8.09 2.82l.86 1.8-.86-1.8zm-1.02 2.49l1.88-.69-1.88.69zm2.93 7.98l-1.88.7.48 1.3h1.4v-2zm1.29-9.61l-.62-1.9.62 1.9zm4.04-1.1h2v-2.38l-2.34.4.34 1.98zm-5.2 3.88l1.8-.9-1.8.9zm1.65 3.28l-1.8.9.56 1.1h1.24v-2zm3.55 0v2h2v-2h-2zm3.56-7.16l.34-1.98-2.34-.4v2.38h2zm4.04 1.1l.62-1.9-.62 1.9zm-4.04 6.06h-2v2h2v-2zm3.55 0v2h1.24l.55-1.1-1.79-.9zm1.64-3.28l1.8.9-1.8-.9zm1.19-1.84l-2.93 7.99L249 24.8l2.93-7.98-3.76-1.38zm0 0l3.76 1.38a4 4 0 00-2.05-5l-1.7 3.62zm-7.4-2.63c1.96.16 3.8.92 7.4 2.63l1.71-3.61c-3.5-1.66-5.98-2.77-8.78-3l-.33 3.98zm-1.83-5.58v3.59h4v-3.6h-4zm4.78-2h-2.78v4h2.78v-4zm-2 .22v1.78h4V5.46h-4zm-.78 2h2.78v-4h-2.78v4zm-2-4.67v2.67h4V2.79h-4zm.14 2h1.86v-4h-1.86v4zm2 .67V2.79h-4v2.67h4zm-4.78 2h2.78v-4h-2.78v4zm2-.22V5.46h-4v1.78h4zm.78-2h-2.78v4h2.78v-4zm2 5.59v-3.6h-4v3.6h4zm-9.23 4.62c3.6-1.7 5.44-2.47 7.4-2.63l-.33-3.98c-2.8.23-5.28 1.34-8.78 3l1.7 3.61zm0 0l-1.72-3.61a4 4 0 00-2.04 4.99l3.76-1.38zm2.93 7.99l-2.93-7.99-3.76 1.38 2.93 7.98 3.76-1.37zm12.34-1.32h-14.22v4h14.22v-4zm-12.31-5.71a27.7 27.7 0 013.76-1.03l-.68-3.95c-1.27.22-2.66.63-4.32 1.18l1.24 3.8zm.01-.02v.01h-.01l-1.24-3.8a3.99 3.99 0 00-2.32 5.58l3.57-1.79zm1.65 3.28l-1.65-3.28-3.57 1.8 1.64 3.27 3.58-1.79zm1.76-1.1h-3.55v4h3.55v-4zm-2-5.16v7.16h4V13.4h-4zm5.22 1.97c.97.16 2.11.49 3.76 1.03l1.24-3.8a31.28 31.28 0 00-4.32-1.18l-.68 3.95zm2.34 5.19V13.4h-4v7.16h4zm1.55-2h-3.55v4h3.55v-4zm-.15-2.18l-1.64 3.28 3.58 1.8 1.64-3.29-3.58-1.79zm.02.02l-.01-.01 3.57 1.78a3.99 3.99 0 00-2.32-5.57l-1.24 3.8z" fill="#000" mask="url(#l)"/><path d="M249.78 28.68h1v-2.55a3 3 0 00-3-3h-15.56a3 3 0 00-3 3v2.55h20.56zM83.78 152.24h.54l.3-.46-.84-.54.84.54h0v-.01l.03-.04a45.02 45.02 0 00.44-.71c.29-.48.68-1.16 1.1-1.98a28.53 28.53 0 002.39-6.05c.54-2.2.7-4.64-.4-6.58-1.16-2.02-3.49-3.15-7.14-3.15h-.02a.37.37 0 01-.13-.06s0 0 0 0c-.03-.02-.2-.12-.2-.63v-1h-1c-.51 0-.95.28-1.19.45-.28.2-.56.47-.78.7a11.7 11.7 0 00-.72.8l-2.6 1.91-.15.11-.1.17-2.72 4.4-.25.4.15.44 1 3.04.41 1.28 1.11-.77 2.31-1.62 1.7-1.14c.87.31 1.24.67 1.4.87a1 1 0 01.07.1l-.05.1a16.53 16.53 0 01-3.55 4.57 3.17 3.17 0 00-.66 3.96l.24.4.29.5h8.18z" fill="#5C5C5C" stroke="#000" stroke-width="2"/><path d="M89.78 156.68h1v-2.56a3 3 0 00-3-3H72.22a3 3 0 00-3 3v2.56h20.56z" fill="#5C5C5C" stroke="#000" stroke-width="2"/><path d="M75.56 137.01l.88-.44v.33a1 1 0 01-1 1h-.33l.45-.89z" fill="#000"/><path d="M176 94.24l-8.66 15h17.32l-8.66-15zm1.5 146v-132.5h-3v132.5h3zM157 30.24l4.58 16.7 12.18-12.32L157 30.24zm84.05 80.93l-73.4-72.51-2.1 2.13 73.4 72.51 2.1-2.13z" fill="#FFC107"/><path d="M172 236.46h-.88l-.11.87-1.34 10.67-.14 1.13h12.98l-.2-1.17-1.77-10.67-.14-.83H172z" fill="#fff" stroke="#000" stroke-width="2"/><path d="M168.89 229.35h-1v9.1h16.22v-9.1H181l-.24.65-1.18 3.24h-1.03l-.86-3.16-.2-.73h-2.95l-.2.73-.87 3.16h-1.03l-1.18-3.24-.24-.65h-2.12zM185.78 252.68h1v-2.56a3 3 0 00-3-3h-15.56a3 3 0 00-3 3v2.56h20.56z" fill="#fff" stroke="#000" stroke-width="2"/><mask id="m" maskUnits="userSpaceOnUse" x="229.89" y="98.57" width="20" height="25" fill="#000"><path fill="#fff" d="M229.89 98.57h20v25h-20z"/><path fill-rule="evenodd" clip-rule="evenodd" d="M240.58 103.7c.55-.25.93-.83.93-1.5 0-.9-.7-1.63-1.55-1.63a1.6 1.6 0 00-1.54 1.63c0 .69.4 1.27.96 1.52l-6.5 9.39s3.13 7.54 7.1 7.48c3.96-.05 7.27-7.68 7.27-7.68l-6.67-9.21z"/></mask><path fill-rule="evenodd" clip-rule="evenodd" d="M240.58 103.7c.55-.25.93-.83.93-1.5 0-.9-.7-1.63-1.55-1.63a1.6 1.6 0 00-1.54 1.63c0 .69.4 1.27.96 1.52l-6.5 9.39s3.13 7.54 7.1 7.48c3.96-.05 7.27-7.68 7.27-7.68l-6.67-9.21z" fill="#fff"/><path d="M240.58 103.7l-.84-1.82-2.2 1.02 1.42 1.97 1.62-1.17zm-1.2.02l1.65 1.13 1.39-2-2.25-.97-.79 1.84zm-6.5 9.39l-1.64-1.14-.62.9.42 1 1.85-.77zm7.1 7.48l.02 2-.03-2zm7.27-7.68l1.83.8.46-1.05-.67-.93-1.62 1.18zm-7.74-10.7c0-.1.05-.24.23-.33l1.68 3.63a3.64 3.64 0 002.09-3.3h-4zm.45.36a.5.5 0 01-.36-.15.33.33 0 01-.1-.22h4c0-1.9-1.48-3.63-3.54-3.63v4zm.46-.37c0 .07-.03.15-.1.22a.5.5 0 01-.36.15v-4a3.59 3.59 0 00-3.54 3.63h4zm-.25-.32c.19.08.25.23.25.32h-4c0 1.47.85 2.79 2.18 3.36l1.57-3.68zm-5.64 12.36l6.5-9.39-3.3-2.27-6.49 9.39 3.3 2.27zm5.42 4.35c-.34 0-.83-.15-1.48-.69-.65-.53-1.29-1.3-1.87-2.15a21.18 21.18 0 01-1.84-3.35c0-.03-.02-.04-.02-.05v-.01l-1.85.77-1.85.76v.01l.02.03a5.84 5.84 0 00.15.34 24.07 24.07 0 002.08 3.74c.7 1.02 1.58 2.13 2.63 3a6.33 6.33 0 004.08 1.6l-.05-4zm7.3-5.68l-1.84-.8-.02.06-.1.21a22.86 22.86 0 01-1.84 3.2c-.6.9-1.27 1.69-1.95 2.25-.69.58-1.2.76-1.55.76l.05 4a6.56 6.56 0 004.06-1.69c1.06-.88 1.97-2 2.68-3.04a26.9 26.9 0 002.3-4.05c0-.03.02-.06.03-.07v-.03h.01l-1.83-.8zm-8.29-8.04l6.67 9.2 3.24-2.34-6.67-9.2-3.24 2.34z" fill="#000" mask="url(#m)"/><path d="M249.78 124.68h1v-2.56a3 3 0 00-3-3h-15.56a3 3 0 00-3 3v2.56h20.56z" fill="#fff" stroke="#000" stroke-width="2"/><path d="M240 110.35l3.56-2.67 1.33 1.78L240 113v-2.66z" fill="#000"/><path stroke="#FD7E14" stroke-width="2" stroke-dasharray="5 3" d="M175.29 177.53l51-51"/></g><defs><clipPath id="clip0"><path fill="#fff" transform="translate(0 .24)" d="M0 0h320v288H0z"/></clipPath></defs></svg>