<svg width="321" height="289" fill="none" xmlns="http://www.w3.org/2000/svg"><g clip-path="url(#clip0)"><path fill="#FEE6C1" d="M32.78.3h256v256h-256z"/><path d="M32.78 224.3h32v32h-32v-32zM32.78 96.3h32v32h-32v-32zM32.78 160.3h32v32h-32v-32zM32.78 32.3h32v32h-32v-32zM64.78 192.3h32v32h-32v-32zM64.78 64.3h32v32h-32v-32zM64.78 128.3h32v32h-32v-32zM64.78.3h32v32h-32V.3zM160.78 224.3h32v32h-32v-32zM160.78 96.3h32v32h-32v-32zM160.78 160.3h32v32h-32v-32zM160.78 32.3h32v32h-32v-32zM192.78 192.3h32v32h-32v-32zM192.78 64.3h32v32h-32v-32zM192.78 128.3h32v32h-32v-32zM192.78.3h32v32h-32V.3zM96.78 224.3h32v32h-32v-32zM96.78 96.3h32v32h-32v-32zM96.78 160.3h32v32h-32v-32zM96.78 32.3h32v32h-32v-32zM128.78 192.3h32v32h-32v-32zM128.78 64.3h32v32h-32v-32zM128.78 128.3h32v32h-32v-32zM128.78.3h32v32h-32V.3zM224.78 224.3h32v32h-32v-32zM224.78 96.3h32v32h-32v-32zM224.78 160.3h32v32h-32v-32zM224.78 32.3h32v32h-32v-32zM256.78 192.3h32v32h-32v-32zM256.78 64.3h32v32h-32v-32zM256.78 128.3h32v32h-32v-32zM256.78.3h32v32h-32V.3z" fill="#866C4A"/><path d="M14.2 237.66v-2.54h4.44v11.68h-2.85v-9.14H14.2zM12.83 212.6a59.7 59.7 0 002.96-2.53c.61-.55 1.12-1.13 1.54-1.74.42-.6.62-1.2.62-1.77 0-.44-.1-.78-.3-1.03-.2-.24-.5-.36-.91-.36-.4 0-.73.15-.96.46-.23.3-.34.72-.34 1.28H12.8c.02-.9.22-1.66.58-2.27.37-.61.86-1.06 1.45-1.35.61-.28 1.28-.43 2.02-.43 1.27 0 2.22.33 2.86.98.66.65.98 1.5.98 2.54 0 1.14-.39 2.2-1.17 3.19a17.4 17.4 0 01-2.97 2.84h4.32v2.23h-8.04v-2.03zM12.75 174.41a3.51 3.51 0 011.12-2.64c.7-.62 1.66-.92 2.87-.92.8 0 1.48.13 2.05.41a2.95 2.95 0 011.74 2.75c0 .7-.18 1.28-.53 1.73a2.7 2.7 0 01-1.23.9v.06c.6.2 1.09.54 1.44 1.01.35.47.53 1.07.53 1.8 0 .67-.16 1.26-.47 1.77-.3.5-.74.9-1.32 1.18-.58.29-1.27.43-2.07.43a4.7 4.7 0 01-3.07-.94c-.76-.63-1.16-1.58-1.2-2.85h2.66c0 .47.14.84.4 1.12.25.27.62.4 1.12.4.41 0 .73-.12.96-.35.23-.25.35-.57.35-.96 0-.51-.17-.88-.5-1.1-.32-.24-.84-.36-1.55-.36h-.51v-2.22h.5c.55 0 1-.1 1.32-.27.34-.2.51-.53.51-1.01 0-.38-.1-.68-.32-.9-.21-.21-.5-.32-.88-.32-.4 0-.7.13-.9.37-.2.25-.31.55-.34.91h-2.68zM12.15 148.72v-2.21l5.06-7.23h3.05v7.07h1.32v2.37h-1.32v2.08h-2.73v-2.08h-5.38zm5.57-6.43l-2.69 4.06h2.69v-4.06zM20.52 108.5h-4.99v2.21c.21-.23.51-.43.9-.58.38-.15.8-.22 1.24-.22.8 0 1.47.18 1.99.54.53.37.92.84 1.17 1.41.24.58.36 1.2.36 1.87 0 1.25-.35 2.24-1.05 2.98-.7.73-1.7 1.09-2.98 1.09a5.3 5.3 0 01-2.22-.43 3.47 3.47 0 01-1.46-1.24 3.55 3.55 0 01-.56-1.8h2.67c.07.33.22.6.47.83.24.21.58.32 1 .32.5 0 .88-.16 1.13-.48.24-.32.36-.75.36-1.28s-.12-.92-.38-1.2c-.26-.28-.63-.42-1.12-.42-.36 0-.66.1-.9.27-.23.17-.39.4-.46.7h-2.64v-6.97h7.47v2.4zM18.18 77.27a1.6 1.6 0 00-.44-.88c-.22-.2-.52-.3-.92-.3-.6 0-1.04.26-1.3.8-.28.52-.41 1.35-.42 2.5a2.4 2.4 0 011-.89c.45-.21.94-.32 1.48-.32a3.3 3.3 0 012.5 1c.65.66.97 1.58.97 2.76 0 .78-.16 1.46-.48 2.05a3.3 3.3 0 01-1.38 1.38c-.6.33-1.3.5-2.13.5-1.64 0-2.78-.52-3.42-1.54-.64-1.04-.96-2.52-.96-4.45 0-2.03.34-3.53 1-4.51.69-1 1.78-1.5 3.27-1.5.8 0 1.47.17 2.02.49.55.3.97.72 1.25 1.23s.45 1.07.5 1.68h-2.54zm-1.26 3.07c-.46 0-.84.14-1.15.42-.3.26-.45.65-.45 1.15 0 .51.14.91.42 1.2.28.29.69.43 1.21.43.47 0 .84-.14 1.1-.41.28-.3.42-.68.42-1.17 0-.5-.13-.9-.4-1.19-.27-.28-.65-.43-1.15-.43zM20.68 44.17l-4.02 9.63h-2.8l4.06-9.33h-4.97v-2.34h7.73v2.04zM14.23 16.53c-1-.54-1.5-1.37-1.5-2.52a2.86 2.86 0 011.8-2.7c.62-.29 1.36-.43 2.25-.43.88 0 1.62.14 2.22.43.61.28 1.06.66 1.36 1.14.3.47.45.99.45 1.56a2.7 2.7 0 01-.42 1.5c-.26.43-.63.77-1.08 1.02a3.06 3.06 0 011.8 2.85 3.37 3.37 0 01-2.16 3.21c-.65.29-1.37.43-2.17.43-.8 0-1.53-.14-2.2-.43a3.37 3.37 0 01-2.13-3.22 3.04 3.04 0 011.78-2.85zm3.92-2.1c0-.44-.12-.77-.38-1a1.34 1.34 0 00-1-.38c-.4 0-.74.13-1 .37-.25.25-.37.59-.37 1.03 0 .41.13.74.39.99.25.23.58.35.99.35.4 0 .73-.12.99-.37.26-.24.38-.57.38-.99zm-1.37 3.28c-.5 0-.9.14-1.22.42-.3.26-.46.64-.46 1.12 0 .44.15.81.45 1.1.3.29.72.43 1.23.43s.91-.14 1.2-.43c.3-.29.45-.66.45-1.1 0-.47-.16-.85-.47-1.12-.3-.28-.7-.42-1.18-.42zM273.87 269.27c1.02 0 1.85.35 2.46 1.03.62.67.93 1.6.93 2.78v5.22h-2.72v-4.85c0-.6-.15-1.06-.46-1.4-.31-.32-.73-.49-1.25-.49s-.94.17-1.25.5c-.3.33-.46.8-.46 1.39v4.85h-2.74v-11.84h2.74v4.11c.28-.4.65-.71 1.13-.94a3.62 3.62 0 011.62-.36zM239.74 269.24c.63 0 1.17.13 1.64.39.48.25.85.59 1.1 1v-1.26h2.74v8.91c0 .82-.16 1.56-.5 2.23-.31.67-.8 1.2-1.48 1.6-.66.39-1.49.59-2.48.59-1.32 0-2.4-.32-3.22-.95a3.5 3.5 0 01-1.4-2.52h2.7c.09.34.29.6.6.8.33.2.72.3 1.2.3.56 0 1-.17 1.34-.5.34-.32.5-.83.5-1.55v-1.26a3.1 3.1 0 01-2.74 1.4 3.7 3.7 0 01-3.43-2.17 5.5 5.5 0 01-.51-2.43c0-.92.17-1.72.51-2.42.35-.7.83-1.22 1.43-1.6.6-.37 1.26-.56 2-.56zm2.75 4.6c0-.69-.2-1.23-.58-1.62-.37-.4-.83-.6-1.37-.6-.55 0-1.01.2-1.4.6a2.2 2.2 0 00-.56 1.6c0 .68.19 1.22.56 1.63.39.4.85.6 1.4.6.54 0 1-.2 1.37-.6.39-.4.58-.93.58-1.62zM211.37 271.64h-1.47v6.66h-2.74v-6.66h-.99v-2.27h1v-.26c0-1.1.3-1.93.94-2.5.63-.57 1.55-.86 2.76-.86.2 0 .36 0 .45.02v2.32c-.52-.03-.89.04-1.1.22-.22.19-.32.51-.32.98v.08h1.47v2.27zM181.26 273.69a7 7 0 01-.05.8h-6.19c.04.55.22.98.53 1.28.32.29.7.43 1.17.43.68 0 1.15-.29 1.42-.86h2.91a3.98 3.98 0 01-2.27 2.69c-.59.26-1.24.4-1.97.4-.87 0-1.65-.2-2.33-.56a3.99 3.99 0 01-1.6-1.6c-.39-.7-.58-1.5-.58-2.44 0-.92.19-1.73.56-2.43.38-.7.92-1.22 1.6-1.6a4.81 4.81 0 012.35-.56c.87 0 1.63.18 2.3.55.68.36 1.2.88 1.57 1.55.39.67.58 1.45.58 2.35zm-2.8-.72c0-.47-.16-.84-.48-1.12a1.76 1.76 0 00-1.2-.42c-.46 0-.85.14-1.17.4-.3.27-.5.65-.57 1.14h3.42zM139.8 273.82c0-.92.17-1.72.51-2.42.35-.7.83-1.22 1.43-1.6.6-.37 1.26-.56 2-.56.58 0 1.12.12 1.6.37.49.25.87.58 1.15 1v-4.15h2.73v11.84h-2.73v-1.28c-.26.42-.63.77-1.1 1.02a3.4 3.4 0 01-1.65.39 3.7 3.7 0 01-3.43-2.18 5.5 5.5 0 01-.51-2.43zm6.69.01c0-.68-.2-1.22-.58-1.61-.37-.4-.83-.6-1.37-.6-.55 0-1.01.2-1.4.6a2.2 2.2 0 00-.56 1.6c0 .68.19 1.22.56 1.63.39.4.85.6 1.4.6.54 0 1-.2 1.37-.6.39-.4.58-.93.58-1.62zM108.39 273.83c0-.92.18-1.73.56-2.43a4 4 0 011.58-1.6 4.78 4.78 0 012.34-.56c1.12 0 2.05.3 2.8.88a4.14 4.14 0 011.48 2.48h-2.9c-.25-.68-.73-1.02-1.43-1.02-.5 0-.9.2-1.2.59-.3.38-.45.94-.45 1.66 0 .73.15 1.29.45 1.68.3.39.7.58 1.2.58.7 0 1.18-.34 1.42-1.02h2.91a4.2 4.2 0 01-1.48 2.46c-.76.6-1.7.9-2.8.9-.88 0-1.66-.2-2.34-.56-.67-.38-1.2-.91-1.58-1.6-.38-.7-.56-1.5-.56-2.44zM79.08 270.63c.26-.41.62-.75 1.1-1a3.45 3.45 0 011.65-.39 3.7 3.7 0 013.41 2.16c.35.7.53 1.5.53 2.42 0 .92-.18 1.73-.53 2.43-.34.7-.81 1.23-1.4 1.62a3.7 3.7 0 01-2 .56c-.64 0-1.19-.13-1.66-.37-.47-.26-.83-.6-1.1-1.01v1.25h-2.74v-11.84h2.74v4.17zm3.9 3.19c0-.69-.19-1.22-.57-1.6-.38-.4-.84-.6-1.4-.6-.54 0-1 .2-1.39.6-.37.4-.56.93-.56 1.61 0 .69.19 1.23.56 1.62.39.4.85.6 1.4.6.54 0 1-.2 1.39-.6.38-.4.57-.95.57-1.63zM43.8 273.82c0-.92.17-1.72.51-2.42.35-.7.83-1.22 1.43-1.6a3.7 3.7 0 012-.56c.62 0 1.17.13 1.64.39.48.25.85.59 1.1 1v-1.26h2.74v8.93H50.5v-1.27c-.27.42-.64.76-1.12 1.01-.47.26-1.02.39-1.65.39-.73 0-1.39-.2-1.98-.56a4.05 4.05 0 01-1.43-1.62 5.5 5.5 0 01-.51-2.43zm6.69.01c0-.68-.2-1.22-.58-1.61-.37-.4-.83-.6-1.37-.6-.55 0-1.01.2-1.4.6a2.2 2.2 0 00-.56 1.6c0 .68.19 1.22.56 1.63.39.4.85.6 1.4.6.54 0 1-.2 1.37-.6.39-.4.58-.93.58-1.62z" fill="#000"/><path fill="#E94E58" fill-opacity=".75" d="M96.78 64.3h32v32h-32zM160.78 64.3h32v32h-32z"/><path d="M123.78 95.3l-2.21 17.18 15.98-6.68-13.77-10.5zm21.94 48.64l-15.35-36.76-2.77 1.15 15.35 36.77 2.77-1.16z" fill="#FFC107"/><path d="M108.78 76.52h-.88l-.11.88-1.34 10.66-.14 1.13h12.98l-.19-1.17-1.78-10.66-.14-.84h-8.4z" fill="#5C5C5C" stroke="#000" stroke-width="2"/><path d="M105.67 69.4h-1V78.53h16.22v-9.11h-3.12l-.24.66-1.18 3.23h-1.03l-.86-3.16-.2-.73h-2.95l-.2.73-.87 3.16h-1.03l-1.18-3.23-.24-.66h-2.12zM122.56 92.74h1V90.2a3 3 0 00-3-3H105a3 3 0 00-3 3v2.55h20.56z" fill="#5C5C5C" stroke="#000" stroke-width="2"/><path d="M165.78 95.3l-13.93 10.29 15.88 6.92-1.95-17.21zm-20.07 49.82l16.05-36.85-2.75-1.2-16.05 36.85 2.75 1.2z" fill="#FFC107"/><path d="M172.78 76.52h-.88l-.11.88-1.33 10.66-.15 1.13h12.98l-.19-1.17-1.78-10.66-.14-.84h-8.4z" fill="#5C5C5C" stroke="#000" stroke-width="2"/><path d="M169.67 69.4h-1V78.53h16.22v-9.11h-3.12l-.24.66-1.18 3.23h-1.03l-.86-3.16-.2-.73h-2.95l-.2.73-.87 3.16h-1.03l-1.18-3.23-.24-.66h-2.12zM186.56 92.74h1V90.2a3 3 0 00-3-3H169a3 3 0 00-3 3v2.55h20.56z" fill="#5C5C5C" stroke="#000" stroke-width="2"/><path d="M148.56 152.3h.54l.3-.45-.84-.55.84.54h0v-.01l.03-.04.1-.15.34-.56c.29-.48.68-1.16 1.1-1.98a28.54 28.54 0 002.4-6.05c.53-2.2.7-4.64-.41-6.58-1.16-2.02-3.49-3.15-7.14-3.15h-.02a.38.38 0 01-.13-.06s0 0 0 0c-.03-.02-.2-.12-.2-.63v-1h-1c-.51 0-.95.28-1.19.45a11.53 11.53 0 00-1.5 1.5l-2.59 1.91-.16.12-.1.16-2.72 4.4-.24.4.14.44 1 3.04.42 1.29 1.1-.78 2.31-1.62 1.7-1.14c.87.32 1.24.67 1.4.87l.07.1-.05.1a16.52 16.52 0 01-3.55 4.57 3.17 3.17 0 00-.66 3.96l.24.4.3.5h8.17z" fill="#fff" stroke="#000" stroke-width="2"/><path d="M154.56 156.74h1v-2.55a3 3 0 00-3-3H137a3 3 0 00-3 3v2.55h20.56z" fill="#fff" stroke="#000" stroke-width="2"/><path d="M140.34 137.08l.89-.45v.33a1 1 0 01-1 1h-.34l.45-.88z" fill="#000"/></g><defs><clipPath id="clip0"><path fill="#fff" transform="translate(.78 .3)" d="M0 0h320v288H0z"/></clipPath></defs></svg>