<svg width="321" height="289" fill="none" xmlns="http://www.w3.org/2000/svg"><g clip-path="url(#clip0)"><path fill="#FEE6C1" d="M32.71.08h256v256h-256z"/><path d="M32.71 224.08h32v32h-32v-32zM32.71 96.08h32v32h-32v-32zM32.71 160.08h32v32h-32v-32zM32.71 32.08h32v32h-32v-32zM64.71 192.08h32v32h-32v-32z" fill="#866C4A"/><path d="M64.71 64.08h32v32h-32v-32zM64.71 128.08h32v32h-32v-32zM64.71.08h32v32h-32v-32zM160.71 224.08h32v32h-32v-32zM160.71 96.08h32v32h-32v-32zM160.71 160.08h32v32h-32v-32zM160.71 32.08h32v32h-32v-32zM192.71 192.08h32v32h-32v-32zM192.71 64.08h32v32h-32v-32zM192.71 128.08h32v32h-32v-32zM192.71.08h32v32h-32v-32zM96.71 224.08h32v32h-32v-32z" fill="#866C4A"/><path d="M96.71 96.08h32v32h-32v-32zM96.71 160.08h32v32h-32v-32zM96.71 32.08h32v32h-32v-32zM128.71 192.08h32v32h-32v-32zM128.71 64.08h32v32h-32v-32zM128.71 128.08h32v32h-32v-32zM128.71.08h32v32h-32v-32zM224.71 224.08h32v32h-32v-32zM224.71 96.08h32v32h-32v-32zM224.71 160.08h32v32h-32v-32zM224.71 32.08h32v32h-32v-32zM256.71 192.08h32v32h-32v-32z" fill="#866C4A"/><path d="M256.71 64.08h32v32h-32v-32zM256.71 128.08h32v32h-32v-32zM256.71.08h32v32h-32v-32z" fill="#866C4A"/><path d="M14.14 237.44v-2.54h4.43v11.68h-2.85v-9.14h-1.58zM12.77 212.38l.5-.4a59.07 59.07 0 002.46-2.12c.6-.56 1.12-1.14 1.53-1.75.42-.6.63-1.2.63-1.77 0-.44-.1-.78-.3-1.03-.21-.24-.51-.37-.92-.37-.4 0-.72.16-.96.47-.22.3-.34.72-.34 1.28h-2.64c.03-.9.22-1.66.58-2.27.37-.61.86-1.06 1.46-1.35.6-.28 1.28-.43 2.01-.43 1.27 0 2.23.33 2.87.98.65.65.97 1.5.97 2.54 0 1.14-.39 2.2-1.17 3.19-.77.97-1.77 1.91-2.97 2.84h4.32v2.23h-8.03v-2.03zM12.69 174.2a3.52 3.52 0 011.12-2.65c.7-.62 1.65-.93 2.86-.93.8 0 1.48.14 2.05.42a2.95 2.95 0 011.74 2.75c0 .7-.17 1.28-.53 1.73a2.7 2.7 0 01-1.23.9v.06c.6.2 1.09.54 1.44 1 .35.48.53 1.08.53 1.82a3.07 3.07 0 01-1.8 2.94c-.57.29-1.26.43-2.06.43a4.7 4.7 0 01-3.07-.94c-.76-.63-1.16-1.58-1.2-2.85h2.66c0 .47.14.84.4 1.12.25.27.63.4 1.12.4.41 0 .73-.12.96-.35.23-.25.35-.57.35-.96 0-.51-.17-.88-.5-1.1-.32-.24-.83-.36-1.55-.36h-.51v-2.22h.51c.55 0 .98-.1 1.31-.27.34-.2.52-.53.52-1.01 0-.38-.11-.68-.32-.9-.22-.21-.51-.32-.88-.32-.41 0-.71.13-.92.37-.19.25-.3.55-.33.91h-2.67zM12.08 148.5v-2.21l5.06-7.23h3.05v7.07h1.32v2.37h-1.32v2.08h-2.73v-2.08h-5.38zm5.57-6.44l-2.69 4.07h2.7v-4.06zM20.45 108.28h-4.99v2.2c.22-.23.51-.42.9-.57.38-.15.8-.22 1.25-.22a3.19 3.19 0 013.15 1.95c.24.58.37 1.2.37 1.87 0 1.25-.36 2.24-1.06 2.98-.7.72-1.7 1.09-2.98 1.09a5.3 5.3 0 01-2.22-.44c-.63-.3-1.11-.7-1.46-1.23a3.54 3.54 0 01-.56-1.8h2.68c.06.33.21.6.46.83.25.21.58.32 1 .32.5 0 .88-.16 1.13-.48.24-.32.37-.75.37-1.28s-.13-.93-.39-1.2c-.25-.28-.63-.42-1.12-.42-.36 0-.66.1-.9.27-.23.17-.38.4-.46.7h-2.64v-6.97h7.47v2.4zM18.12 77.05a1.6 1.6 0 00-.45-.88c-.22-.2-.52-.3-.91-.3-.61 0-1.05.26-1.32.8-.26.52-.4 1.35-.41 2.5a2.4 2.4 0 011-.89c.45-.21.94-.32 1.48-.32a3.3 3.3 0 012.5 1c.65.65.97 1.58.97 2.76 0 .78-.16 1.46-.48 2.05a3.3 3.3 0 01-1.38 1.38c-.6.33-1.3.5-2.12.5-1.65 0-2.79-.52-3.43-1.54-.64-1.04-.96-2.52-.96-4.45 0-2.03.34-3.53 1-4.51.7-1 1.78-1.5 3.27-1.5.8 0 1.48.17 2.02.49.55.3.97.72 1.25 1.23.29.51.46 1.07.5 1.68h-2.53zm-1.27 3.07c-.46 0-.84.14-1.15.42-.3.26-.45.65-.45 1.15 0 .51.14.91.42 1.2.29.29.69.43 1.21.43.47 0 .84-.14 1.1-.41.28-.3.42-.68.42-1.17 0-.5-.13-.9-.4-1.19-.26-.28-.65-.43-1.15-.43zM20.6 43.95l-4 9.63h-2.8l4.06-9.33h-4.98V41.9h7.73v2.04zM14.17 16.3c-1-.53-1.5-1.37-1.5-2.5a2.86 2.86 0 011.8-2.71c.6-.29 1.35-.43 2.24-.43.88 0 1.63.14 2.22.43.61.28 1.06.66 1.36 1.14.3.46.45.99.45 1.56a2.7 2.7 0 01-.41 1.5c-.27.43-.63.77-1.1 1.02.58.27 1.03.66 1.34 1.15.3.48.46 1.04.46 1.7a3.37 3.37 0 01-2.14 3.2c-.66.3-1.38.44-2.18.44-.8 0-1.53-.14-2.2-.43a3.37 3.37 0 01-2.13-3.22 3.04 3.04 0 011.78-2.85zm3.92-2.1c0-.43-.13-.76-.39-1a1.34 1.34 0 00-1-.37c-.4 0-.74.13-1 .37-.24.25-.37.59-.37 1.03 0 .41.13.74.39.99.25.23.58.35.99.35.4 0 .74-.12 1-.37.25-.24.38-.57.38-1zM16.7 17.5c-.5 0-.9.14-1.22.42-.3.26-.46.64-.46 1.12 0 .44.15.81.45 1.1.3.29.72.43 1.23.43s.91-.14 1.2-.43c.3-.29.45-.66.45-1.1 0-.47-.16-.85-.47-1.12-.3-.28-.69-.42-1.18-.42zM273.8 269.05c1.03 0 1.85.34 2.47 1.03.62.67.92 1.6.92 2.78v5.22h-2.72v-4.85c0-.6-.15-1.06-.46-1.4-.3-.32-.72-.49-1.25-.49-.52 0-.94.17-1.25.5-.3.33-.46.8-.46 1.39v4.85h-2.74v-11.84h2.74v4.1c.28-.39.66-.7 1.14-.94a3.63 3.63 0 011.61-.35zM239.67 269.02c.63 0 1.18.13 1.65.38.47.26.84.6 1.1 1.01v-1.26h2.74v8.91a4.9 4.9 0 01-.5 2.23c-.32.67-.82 1.2-1.49 1.6-.66.39-1.49.59-2.48.59-1.32 0-2.4-.32-3.22-.95a3.51 3.51 0 01-1.4-2.52h2.7c.09.34.29.6.6.8.33.2.72.3 1.2.3.56 0 1-.17 1.34-.5.34-.32.5-.83.5-1.55v-1.26a3.1 3.1 0 01-2.74 1.4 3.7 3.7 0 01-3.43-2.17 5.51 5.51 0 01-.5-2.43c0-.92.16-1.73.5-2.42.35-.7.83-1.23 1.43-1.6a3.7 3.7 0 012-.56zm2.75 4.6c0-.69-.2-1.23-.58-1.62-.37-.4-.83-.6-1.37-.6-.55 0-1.01.2-1.4.6a2.2 2.2 0 00-.56 1.6c0 .68.2 1.22.56 1.63.39.4.85.6 1.4.6.54 0 1-.2 1.37-.6.39-.4.58-.93.58-1.62zM211.3 271.42h-1.47v6.66h-2.74v-6.66h-.99v-2.27h1v-.26c0-1.1.3-1.93.94-2.5.63-.57 1.55-.86 2.77-.86.2 0 .35 0 .44.02v2.32c-.52-.03-.89.04-1.1.22-.21.18-.32.51-.32.98v.08h1.47v2.27zM181.2 273.47c0 .25-.02.52-.06.8h-6.19c.04.55.22.98.53 1.28.32.29.7.43 1.17.43.68 0 1.16-.29 1.42-.86h2.91a3.93 3.93 0 01-.81 1.58c-.39.47-.87.84-1.46 1.1a4.7 4.7 0 01-1.97.4 4.8 4.8 0 01-2.33-.56 3.99 3.99 0 01-1.6-1.6c-.39-.69-.58-1.5-.58-2.43 0-.93.19-1.74.56-2.43.39-.7.92-1.23 1.6-1.6a4.83 4.83 0 012.35-.56c.87 0 1.63.18 2.3.55.68.36 1.2.88 1.58 1.55.38.67.57 1.45.57 2.35zm-2.8-.72c0-.47-.17-.84-.49-1.12a1.77 1.77 0 00-1.2-.42c-.46 0-.85.14-1.17.4-.3.27-.5.65-.57 1.14h3.42zM139.73 273.6c0-.92.17-1.73.51-2.42.35-.7.83-1.23 1.43-1.6a3.7 3.7 0 013.6-.2c.49.25.87.58 1.15 1v-4.14h2.74v11.84h-2.74v-1.28c-.26.42-.63.76-1.1 1.02-.47.26-1.02.38-1.65.38a3.7 3.7 0 01-3.43-2.17 5.51 5.51 0 01-.5-2.43zm6.69.01c0-.68-.2-1.22-.58-1.61-.37-.4-.83-.6-1.37-.6-.55 0-1.01.2-1.4.6a2.2 2.2 0 00-.56 1.6c0 .68.2 1.22.56 1.63.39.4.85.6 1.4.6.54 0 1-.2 1.37-.6.39-.4.58-.93.58-1.62zM108.32 273.61c0-.93.18-1.74.56-2.43.38-.7.9-1.23 1.58-1.6a4.8 4.8 0 012.34-.56c1.12 0 2.05.3 2.8.88a4.14 4.14 0 011.48 2.48h-2.9c-.25-.68-.73-1.02-1.43-1.02-.5 0-.9.2-1.2.59-.3.38-.45.94-.45 1.66 0 .73.15 1.29.45 1.68.3.39.7.58 1.2.58.7 0 1.18-.34 1.42-1.02h2.91a4.2 4.2 0 01-1.48 2.46c-.76.6-1.7.9-2.8.9a4.8 4.8 0 01-2.34-.56c-.67-.38-1.2-.91-1.58-1.6-.38-.7-.56-1.5-.56-2.44zM79.01 270.41c.26-.41.63-.75 1.1-1a3.45 3.45 0 011.65-.39 3.7 3.7 0 013.41 2.16c.35.7.53 1.5.53 2.42 0 .91-.18 1.72-.53 2.43-.34.7-.8 1.23-1.4 1.62a3.7 3.7 0 01-2 .56c-.64 0-1.19-.13-1.65-.37-.47-.26-.84-.6-1.1-1.01v1.25h-2.74v-11.84H79v4.17zm3.9 3.19c0-.69-.19-1.22-.57-1.6-.37-.4-.84-.6-1.4-.6-.54 0-1 .2-1.38.6-.38.4-.56.93-.56 1.61 0 .69.18 1.22.56 1.62.38.4.84.6 1.39.6.54 0 1-.2 1.39-.6.38-.4.58-.95.58-1.63zM43.73 273.6c0-.92.17-1.73.51-2.42.36-.7.83-1.23 1.43-1.6a3.7 3.7 0 012-.56c.63 0 1.18.13 1.65.38.48.26.84.6 1.1 1.01v-1.26h2.74v8.93h-2.74v-1.27c-.27.42-.64.75-1.12 1.01-.47.26-1.02.38-1.65.38a3.67 3.67 0 01-3.4-2.17 5.51 5.51 0 01-.52-2.43zm6.69.01c0-.68-.2-1.22-.58-1.61-.37-.4-.83-.6-1.37-.6-.55 0-1.01.2-1.4.6a2.2 2.2 0 00-.55 1.6c0 .68.18 1.22.56 1.63.38.4.84.6 1.39.6.54 0 1-.2 1.37-.6.39-.4.58-.93.58-1.62z" fill="#000"/><mask id="a" maskUnits="userSpaceOnUse" x="102.6" y="226.41" width="20" height="25" fill="#000"><path fill="#fff" d="M102.6 226.41h20v25h-20z"/><path fill-rule="evenodd" clip-rule="evenodd" d="M113.3 231.54c.54-.25.92-.83.92-1.5 0-.9-.7-1.63-1.54-1.63a1.6 1.6 0 00-1.55 1.63c0 .69.4 1.28.97 1.52l-6.5 9.39s3.12 7.54 7.09 7.48c3.96-.05 7.27-7.68 7.27-7.68l-6.67-9.21z"/></mask><path fill-rule="evenodd" clip-rule="evenodd" d="M113.3 231.54c.54-.25.92-.83.92-1.5 0-.9-.7-1.63-1.54-1.63a1.6 1.6 0 00-1.55 1.63c0 .69.4 1.28.97 1.52l-6.5 9.39s3.12 7.54 7.09 7.48c3.96-.05 7.27-7.68 7.27-7.68l-6.67-9.21z" fill="#fff"/><path d="M113.3 231.54l-.84-1.82-2.21 1.02 1.42 1.97 1.62-1.17zm-1.2.02l1.64 1.13 1.4-2-2.26-.97-.78 1.84zm-6.5 9.39l-1.64-1.14-.62.9.41 1 1.85-.76zm7.09 7.48l.03 2-.03-2zm7.27-7.68l1.84.8.45-1.05-.67-.93-1.62 1.18zm-7.74-10.7c0-.1.06-.24.23-.33l1.68 3.64a3.64 3.64 0 002.1-3.32h-4zm.46.36a.5.5 0 01-.36-.15.32.32 0 01-.1-.22h4c0-1.9-1.48-3.63-3.54-3.63v4zm.45-.37c0 .07-.03.15-.1.22a.5.5 0 01-.35.15v-4a3.59 3.59 0 00-3.55 3.63h4zm-.25-.32c.2.08.25.23.25.32h-4c0 1.47.86 2.79 2.18 3.36l1.57-3.68zm-5.63 12.36l6.5-9.39-3.3-2.27-6.5 9.39 3.3 2.27zm5.4 4.35c-.33 0-.82-.15-1.47-.69-.65-.53-1.29-1.3-1.87-2.15a21.18 21.18 0 01-1.74-3.14l-.1-.21-.02-.05v-.01l-1.85.77-1.85.76v.01l.02.03a5.84 5.84 0 00.15.34l.44.93c.38.76.94 1.78 1.64 2.81.7 1.02 1.58 2.13 2.64 3a6.33 6.33 0 004.08 1.6l-.06-4zm7.31-5.68l-1.83-.8v.01l-.03.05-.1.21a22.87 22.87 0 01-1.84 3.21c-.6.88-1.27 1.68-1.94 2.24-.7.58-1.21.76-1.56.76l.06 4a6.57 6.57 0 004.06-1.68c1.06-.89 1.96-2 2.68-3.04a26.97 26.97 0 002.29-4.06l.03-.07.01-.03-1.83-.8zm-8.29-8.04l6.67 9.21 3.24-2.35-6.67-9.2-3.24 2.34z" fill="#000" mask="url(#a)"/><path d="M122.5 252.52h1v-2.55a3 3 0 00-3-3h-15.56a3 3 0 00-3 3v2.55h20.55z" fill="#fff" stroke="#000" stroke-width="2"/><path d="M112.71 238.19l3.56-2.67 1.33 1.78-4.89 3.55v-2.66z" fill="#000"/><mask id="b" maskUnits="userSpaceOnUse" x="102.6" y="2.41" width="20" height="25" fill="#000"><path fill="#fff" d="M102.6 2.41h20v25h-20z"/><path fill-rule="evenodd" clip-rule="evenodd" d="M113.3 7.54c.54-.25.92-.83.92-1.5 0-.9-.7-1.63-1.54-1.63a1.6 1.6 0 00-1.55 1.63c0 .69.4 1.27.97 1.52l-6.5 9.39s3.12 7.54 7.09 7.48c3.96-.05 7.27-7.68 7.27-7.68l-6.67-9.21z"/></mask><path fill-rule="evenodd" clip-rule="evenodd" d="M113.3 7.54c.54-.25.92-.83.92-1.5 0-.9-.7-1.63-1.54-1.63a1.6 1.6 0 00-1.55 1.63c0 .69.4 1.27.97 1.52l-6.5 9.39s3.12 7.54 7.09 7.48c3.96-.05 7.27-7.68 7.27-7.68l-6.67-9.21z" fill="#5C5C5C"/><path d="M113.3 7.54l-.84-1.82-2.21 1.02 1.42 1.97 1.62-1.17zm-1.2.02l1.64 1.13 1.4-2-2.26-.97-.78 1.84zm-6.5 9.39l-1.64-1.14-.62.9.41 1 1.85-.76zm7.09 7.48l.03 2-.03-2zm7.27-7.68l1.84.8.45-1.05-.67-.93-1.62 1.18zm-7.74-10.7c0-.1.06-.24.23-.33l1.68 3.64a3.64 3.64 0 002.1-3.32h-4zm.46.36a.5.5 0 01-.36-.15.32.32 0 01-.1-.22h4c0-1.9-1.48-3.63-3.54-3.63v4zm.45-.37c0 .07-.03.15-.1.22a.5.5 0 01-.35.15v-4a3.59 3.59 0 00-3.55 3.63h4zm-.25-.32c.2.08.25.23.25.32h-4c0 1.47.86 2.79 2.18 3.36l1.57-3.68zm-5.63 12.36l6.5-9.39-3.3-2.27-6.5 9.39 3.3 2.27zm5.4 4.35c-.33 0-.82-.15-1.47-.69-.65-.53-1.29-1.3-1.87-2.15a21.2 21.2 0 01-1.74-3.14l-.1-.21a2.97 2.97 0 01-.02-.05v-.01l-1.85.77-1.85.76v.01l.02.03a10.95 10.95 0 00.15.34l.44.93c.38.76.94 1.78 1.64 2.81a14.3 14.3 0 002.64 3 6.33 6.33 0 004.08 1.6l-.06-4zm7.31-5.68l-1.83-.8v.01l-.03.05-.1.21a22.84 22.84 0 01-1.84 3.2 11.4 11.4 0 01-1.94 2.25c-.7.58-1.21.76-1.56.76l.06 4a6.57 6.57 0 004.06-1.68c1.06-.89 1.96-2 2.68-3.04a27.12 27.12 0 002.29-4.06l.03-.07.01-.03-1.83-.8zm-8.29-8.04l6.67 9.21 3.24-2.35-6.67-9.2-3.24 2.34z" fill="#000" mask="url(#b)"/><path d="M122.5 28.52h1v-2.55a3 3 0 00-3-3h-15.56a3 3 0 00-3 3v2.55h20.55z" fill="#5C5C5C" stroke="#000" stroke-width="2"/><path d="M112.71 14.19l3.56-2.67 1.33 1.78-4.89 3.55V14.2z" fill="#000"/><mask id="c" maskUnits="userSpaceOnUse" x="198.6" y="2.41" width="20" height="25" fill="#000"><path fill="#fff" d="M198.6 2.41h20v25h-20z"/><path fill-rule="evenodd" clip-rule="evenodd" d="M209.3 7.54c.54-.25.92-.83.92-1.5 0-.9-.7-1.63-1.54-1.63a1.6 1.6 0 00-1.55 1.63c0 .69.4 1.27.97 1.52l-6.5 9.39s3.12 7.54 7.09 7.48c3.96-.05 7.27-7.68 7.27-7.68l-6.67-9.21z"/></mask><path fill-rule="evenodd" clip-rule="evenodd" d="M209.3 7.54c.54-.25.92-.83.92-1.5 0-.9-.7-1.63-1.54-1.63a1.6 1.6 0 00-1.55 1.63c0 .69.4 1.27.97 1.52l-6.5 9.39s3.12 7.54 7.09 7.48c3.96-.05 7.27-7.68 7.27-7.68l-6.67-9.21z" fill="#5C5C5C"/><path d="M209.3 7.54l-.84-1.82-2.21 1.02 1.42 1.97 1.62-1.17zm-1.2.02l1.64 1.13 1.4-2-2.26-.97-.78 1.84zm-6.5 9.39l-1.64-1.14-.62.9.41 1 1.85-.76zm7.09 7.48l.03 2-.03-2zm7.27-7.68l1.84.8.45-1.05-.67-.93-1.62 1.18zm-7.74-10.7c0-.1.06-.24.24-.33l1.67 3.64a3.64 3.64 0 002.1-3.32h-4zm.46.36a.5.5 0 01-.36-.15.32.32 0 01-.1-.22h4c0-1.9-1.48-3.63-3.54-3.63v4zm.45-.37c0 .07-.03.15-.1.22a.5.5 0 01-.35.15v-4a3.59 3.59 0 00-3.55 3.63h4zm-.25-.32c.2.08.25.23.25.32h-4c0 1.47.86 2.79 2.18 3.36l1.57-3.68zm-5.63 12.36l6.5-9.39-3.3-2.27-6.5 9.39 3.3 2.27zm5.4 4.35c-.33 0-.82-.15-1.47-.69-.65-.53-1.29-1.3-1.87-2.15a21.2 21.2 0 01-1.74-3.14l-.1-.21a2.97 2.97 0 01-.02-.05v-.01l-1.85.77-1.85.76v.01l.02.03a10.95 10.95 0 00.15.34l.44.93c.38.76.94 1.78 1.64 2.81a14.3 14.3 0 002.64 3 6.33 6.33 0 004.08 1.6l-.06-4zm7.31-5.68l-1.83-.8v.01l-.03.05-.1.21a22.84 22.84 0 01-1.84 3.2 11.4 11.4 0 01-1.94 2.25c-.7.58-1.21.76-1.56.76l.06 4a6.57 6.57 0 004.06-1.68c1.06-.89 1.96-2 2.68-3.04a27.12 27.12 0 002.29-4.06l.03-.07.01-.03-1.83-.8zm-8.29-8.04l6.67 9.21 3.24-2.35-6.67-9.2-3.24 2.34z" fill="#000" mask="url(#c)"/><path d="M218.5 28.52h1v-2.55a3 3 0 00-3-3h-15.56a3 3 0 00-3 3v2.55h20.55z" fill="#5C5C5C" stroke="#000" stroke-width="2"/><path d="M208.71 14.19l3.56-2.67 1.33 1.78-4.89 3.55V14.2z" fill="#000"/><mask id="d" maskUnits="userSpaceOnUse" x="163.55" y=".63" width="26" height="26" fill="#000"><path fill="#fff" d="M163.55.63h26v26h-26z"/><path fill-rule="evenodd" clip-rule="evenodd" d="M183.82 23.97l2.93-7.99a2 2 0 00-1.02-2.5c-3.56-1.68-5.7-2.61-8.09-2.8v-3.6h2.78V5.3h-2.78V2.63h-1.86V5.3H173v1.78h2.78v3.6c-2.38.19-4.53 1.12-8.09 2.8a2 2 0 00-1.02 2.5l2.93 7.99h14.22zm-8.89-10.72c-1.12.19-2.38.56-4.04 1.1a1.99 1.99 0 00-1.15 2.78l1.64 3.28h3.55v-7.16zm7.6 1.1c-1.65-.54-2.92-.91-4.04-1.1v7.16h3.55l1.65-3.28c.54-1.09 0-2.4-1.16-2.78z"/></mask><path fill-rule="evenodd" clip-rule="evenodd" d="M183.82 23.97l2.93-7.99a2 2 0 00-1.02-2.5c-3.56-1.68-5.7-2.61-8.09-2.8v-3.6h2.78V5.3h-2.78V2.63h-1.86V5.3H173v1.78h2.78v3.6c-2.38.19-4.53 1.12-8.09 2.8a2 2 0 00-1.02 2.5l2.93 7.99h14.22zm-8.89-10.72c-1.12.19-2.38.56-4.04 1.1a1.99 1.99 0 00-1.15 2.78l1.64 3.28h3.55v-7.16zm7.6 1.1c-1.65-.54-2.92-.91-4.04-1.1v7.16h3.55l1.65-3.28c.54-1.09 0-2.4-1.16-2.78z" fill="#5C5C5C"/><path d="M175.87 11.67c.56-.05 1.12-.05 1.69 0l.16-2c-.67-.05-1.34-.05-2.02 0l.17 2zm10.88 4.31l1.88.69-1.88-.69zm-2.93 7.99v2h1.4l.48-1.32-1.88-.68zm1.91-10.48l.86-1.81-.86 1.8zm-8.09-2.82h-2v1.84l1.84.15.16-1.99zm0-3.6v-2h-2v2h2zm2.78 0v2h2v-2h-2zm0-1.77h2v-2h-2v2zm-2.78 0h-2v2h2v-2zm0-2.67h2v-2h-2v2zm-1.86 0v-2h-2v2h2zm0 2.67v2h2v-2h-2zm-2.78 0v-2h-2v2h2zm0 1.78h-2v2h2v-2zm2.78 0h2v-2h-2v2zm0 3.6l.17 1.98 1.83-.15v-1.84h-2zm-8.09 2.8l.86 1.81-.86-1.8zm-1.02 2.5l1.88-.69-1.88.7zm2.93 7.99l-1.88.68.48 1.32h1.4v-2zm1.3-9.62l-.63-1.9.62 1.9zm4.03-1.1h2v-2.38l-2.33.4.33 1.98zm-5.2 3.88l1.8-.9-1.8.9zm1.65 3.28l-1.79.9.55 1.1h1.24v-2zm3.55 0v2h2v-2h-2zm3.56-7.16l.34-1.97-2.34-.4v2.37h2zm4.04 1.1l.62-1.9-.62 1.9zm-4.04 6.06h-2v2h2v-2zm3.55 0v2h1.24l.55-1.1-1.79-.9zm1.65-3.28l1.78.9-1.78-.9zm1.18-1.84l-2.92 7.99 3.75 1.37 2.93-7.98-3.76-1.38zm0 0l3.76 1.38a4 4 0 00-2.04-5l-1.72 3.62zm-7.4-2.63c1.97.16 3.8.93 7.4 2.63l1.72-3.61c-3.5-1.66-5.98-2.77-8.79-3l-.32 3.98zm-1.83-5.58v3.6h4v-3.6h-4zm4.78-2h-2.78v4h2.78v-4zm-2 .22v1.78h4V5.3h-4zm-.78 2h2.78v-4h-2.78v4zm-2-4.67V5.3h4V2.63h-4zm.14 2h1.86v-4h-1.86v4zm2 .67V2.63h-4V5.3h4zm-4.78 2h2.78v-4H173v4zm2-.22V5.3h-4v1.78h4zm.78-2H173v4h2.78v-4zm2 5.6v-3.6h-4v3.6h4zm-9.23 4.61c3.61-1.7 5.44-2.47 7.4-2.63l-.33-3.98c-2.8.23-5.28 1.34-8.78 3l1.7 3.61zm0 0l-1.71-3.61a4 4 0 00-2.04 4.99l3.75-1.38zm2.93 7.99l-2.93-7.99-3.75 1.38 2.92 7.98 3.76-1.37zm12.34-1.31H169.6v4h14.22v-4zm-12.3-5.72c1.64-.54 2.78-.87 3.75-1.03l-.67-3.94c-1.28.21-2.66.62-4.33 1.17l1.24 3.8zm0-.01s0 .01 0 0l-1.25-3.8a3.99 3.99 0 00-2.32 5.58l3.58-1.78zm1.65 3.28l-1.64-3.28-3.58 1.78 1.64 3.28 3.58-1.78zm1.76-1.11h-3.55v4h3.55v-4zm-2-5.16v7.16h4v-7.16h-4zm5.22 1.97c.97.16 2.12.5 3.76 1.03l1.24-3.8a31.3 31.3 0 00-4.32-1.17l-.68 3.94zm2.34 5.19v-7.16h-4v7.16h4zm1.55-2h-3.55v4h3.55v-4zm-.14-2.17l-1.64 3.28 3.57 1.78 1.64-3.28-3.57-1.78zm.01 0h-.01l3.57 1.78a3.99 3.99 0 00-2.32-5.57l-1.24 3.8z" fill="#000" mask="url(#d)"/><mask id="e" maskUnits="userSpaceOnUse" x="163.55" y="224.63" width="26" height="26" fill="#000"><path fill="#fff" d="M163.55 224.63h26v26h-26z"/><path fill-rule="evenodd" clip-rule="evenodd" d="M183.82 247.97l2.93-7.99a2 2 0 00-1.02-2.5c-3.56-1.68-5.7-2.61-8.09-2.8v-3.6h2.78v-1.78h-2.78v-2.67h-1.86v2.67H173v1.78h2.78v3.6c-2.38.19-4.53 1.12-8.09 2.8a2 2 0 00-1.02 2.5l2.93 7.99h14.22zm-8.89-10.72c-1.12.19-2.38.56-4.04 1.1a2 2 0 00-1.15 2.78l1.64 3.28h3.55v-7.16zm7.6 1.1a29.5 29.5 0 00-4.04-1.1v7.16h3.55l1.65-3.28c.54-1.09 0-2.4-1.16-2.78z"/></mask><path fill-rule="evenodd" clip-rule="evenodd" d="M183.82 247.97l2.93-7.99a2 2 0 00-1.02-2.5c-3.56-1.68-5.7-2.61-8.09-2.8v-3.6h2.78v-1.78h-2.78v-2.67h-1.86v2.67H173v1.78h2.78v3.6c-2.38.19-4.53 1.12-8.09 2.8a2 2 0 00-1.02 2.5l2.93 7.99h14.22zm-8.89-10.72c-1.12.19-2.38.56-4.04 1.1a2 2 0 00-1.15 2.78l1.64 3.28h3.55v-7.16zm7.6 1.1a29.5 29.5 0 00-4.04-1.1v7.16h3.55l1.65-3.28c.54-1.09 0-2.4-1.16-2.78z" fill="#fff"/><path d="M175.87 235.67c.56-.05 1.12-.05 1.69 0l.16-2c-.67-.05-1.34-.05-2.02 0l.17 2zm10.88 4.31l1.88.69-1.88-.69zm-2.93 7.99v2h1.4l.48-1.32-1.88-.68zm1.91-10.48l.86-1.81-.86 1.8zm-8.09-2.82h-2v1.84l1.84.15.16-1.99zm0-3.6v-2h-2v2h2zm2.78 0v2h2v-2h-2zm0-1.77h2v-2h-2v2zm-2.78 0h-2v2h2v-2zm0-2.67h2v-2h-2v2zm-1.86 0v-2h-2v2h2zm0 2.67v2h2v-2h-2zm-2.78 0v-2h-2v2h2zm0 1.78h-2v2h2v-2zm2.78 0h2v-2h-2v2zm0 3.6l.17 1.98 1.83-.15v-1.84h-2zm-8.09 2.8l.86 1.81-.86-1.8zm-1.02 2.5l1.88-.69-1.88.7zm2.93 7.99l-1.88.68.48 1.32h1.4v-2zm1.3-9.62l-.63-1.9.62 1.9zm4.03-1.1h2v-2.38l-2.33.4.33 1.98zm-5.2 3.88l1.8-.9-1.8.9zm1.65 3.28l-1.79.9.55 1.1h1.24v-2zm3.55 0v2h2v-2h-2zm3.56-7.16l.34-1.97-2.34-.4v2.37h2zm4.04 1.1l-.62 1.9.62-1.9zm-4.04 6.06h-2v2h2v-2zm3.55 0v2h1.24l.55-1.1-1.79-.9zm1.65-3.28l1.78.9-1.78-.9zm1.18-1.84l-2.92 7.99 3.75 1.37 2.93-7.98-3.76-1.38zm0 0l3.76 1.38a4 4 0 00-2.04-5l-1.72 3.62zm-7.4-2.63c1.97.16 3.8.93 7.4 2.63l1.72-3.61c-3.5-1.66-5.98-2.77-8.79-3l-.32 3.98zm-1.83-5.58v3.6h4v-3.6h-4zm4.78-2h-2.78v4h2.78v-4zm-2 .22v1.78h4v-1.78h-4zm-.78 2h2.78v-4h-2.78v4zm-2-4.67v2.67h4v-2.67h-4zm.14 2h1.86v-4h-1.86v4zm2 .67v-2.67h-4v2.67h4zm-4.78 2h2.78v-4H173v4zm2-.22v-1.78h-4v1.78h4zm.78-2H173v4h2.78v-4zm2 5.6v-3.6h-4v3.6h4zm-9.23 4.61c3.61-1.7 5.44-2.47 7.4-2.63l-.33-3.98c-2.8.23-5.28 1.34-8.78 3l1.7 3.61zm0 0l-1.71-3.61a4 4 0 00-2.04 4.99l3.75-1.38zm2.93 7.99l-2.93-7.99-3.75 1.38 2.92 7.98 3.76-1.37zm12.34-1.31H169.6v4h14.22v-4zm-12.3-5.72a27.6 27.6 0 013.75-1.03l-.67-3.94c-1.28.22-2.66.62-4.33 1.17l1.24 3.8zm0-.01l-1.25-3.8a3.99 3.99 0 00-2.32 5.58l3.58-1.78zm1.65 3.28l-1.64-3.28-3.58 1.78 1.64 3.28 3.58-1.78zm1.76-1.11h-3.55v4h3.55v-4zm-2-5.16v7.16h4v-7.16h-4zm5.22 1.97c.97.16 2.12.5 3.76 1.03l1.24-3.8a31.28 31.28 0 00-4.32-1.17l-.68 3.94zm2.34 5.19v-7.16h-4v7.16h4zm1.55-2h-3.55v4h3.55v-4zm-.14-2.17l-1.64 3.28 3.57 1.78 1.64-3.28-3.57-1.78zm.01 0h-.01l3.57 1.78a3.99 3.99 0 00-2.32-5.57l-1.24 3.8z" fill="#000" mask="url(#e)"/><path d="M186.5 252.52h1v-2.55a3 3 0 00-3-3h-15.56a3 3 0 00-3 3v2.55h20.55z" fill="#fff" stroke="#000" stroke-width="2"/><path d="M186.5 28.52h1v-2.55a3 3 0 00-3-3h-15.56a3 3 0 00-3 3v2.55h20.55z" fill="#5C5C5C" stroke="#000" stroke-width="2"/><path d="M84.5 248.08h.53l.3-.46-.84-.54.84.54h0l.01-.01.03-.04.1-.15a29.3 29.3 0 001.43-2.53 28.53 28.53 0 002.4-6.06c.53-2.2.7-4.64-.4-6.58-1.16-2.02-3.5-3.15-7.14-3.15h-.03a.38.38 0 01-.13-.06s0 0 0 0c-.03-.02-.2-.12-.2-.63v-1h-1c-.51 0-.95.28-1.18.45-.29.2-.56.47-.79.7a11.31 11.31 0 00-.72.81l-2.59 1.9-.16.12-.1.16-2.72 4.4-.24.4.14.44 1 3.04.42 1.29 1.1-.78 2.31-1.62 1.7-1.14c.87.32 1.25.67 1.4.87l.07.1-.05.1a16.5 16.5 0 01-3.55 4.57 3.17 3.17 0 00-.66 3.96l.24.4.3.5h8.17z" fill="#fff" stroke="#000" stroke-width="2"/><path d="M90.5 252.52h1v-2.55a3 3 0 00-3-3H72.93a3 3 0 00-3 3v2.55h20.55z" fill="#fff" stroke="#000" stroke-width="2"/><path d="M76.27 232.85l.89-.44v.33a1 1 0 01-1 1h-.34l.45-.89z" fill="#000"/><path d="M116.5 88.08h.53l.3-.45-.84-.55.84.54h0l.01-.01.03-.04a8.86 8.86 0 00.43-.71c.29-.48.68-1.16 1.1-1.98a28.52 28.52 0 002.4-6.05c.53-2.2.7-4.64-.4-6.58-1.16-2.02-3.5-3.15-7.14-3.15h-.03a.4.4 0 01-.13-.06c-.03-.02-.2-.12-.2-.63v-1h-1c-.51 0-.95.28-1.18.45-.29.2-.56.47-.79.7a11.91 11.91 0 00-.72.81l-2.59 1.9-.16.12-.1.16-2.72 4.4-.24.4.14.44 1 3.04.42 1.29 1.1-.78 2.31-1.62 1.7-1.14c.87.32 1.25.67 1.4.87l.07.1-.05.1a16.5 16.5 0 01-3.55 4.57 3.17 3.17 0 00-.66 3.96l.24.4.3.5h8.17z" fill="#5C5C5C" stroke="#000" stroke-width="2"/><path d="M122.5 92.52h1v-2.55a3 3 0 00-3-3h-15.56a3 3 0 00-3 3v2.55h20.55z" fill="#5C5C5C" stroke="#000" stroke-width="2"/><path d="M108.27 72.85l.89-.44v.33a1 1 0 01-1 1h-.34l.45-.89z" fill="#000"/><path d="M212.5 56.08h.53l.3-.45-.84-.55.84.54h0l.01-.01.03-.04a8.86 8.86 0 00.43-.71c.29-.48.68-1.16 1.1-1.98a28.52 28.52 0 002.4-6.05c.53-2.2.7-4.64-.4-6.58-1.16-2.02-3.5-3.15-7.14-3.15h-.03a.4.4 0 01-.13-.06c-.03-.02-.2-.12-.2-.63v-1h-1c-.51 0-.95.28-1.18.45-.29.2-.56.47-.79.7a11.91 11.91 0 00-.72.81l-2.59 1.9-.16.12-.1.16-2.72 4.4-.24.4.14.44 1 3.04.42 1.29 1.1-.78 2.31-1.62 1.7-1.14c.87.32 1.25.67 1.4.87l.07.1-.05.1a16.5 16.5 0 01-3.55 4.57 3.17 3.17 0 00-.66 3.96l.24.4.3.5h8.17z" fill="#fff" stroke="#000" stroke-width="2"/><path d="M218.5 60.52h1v-2.55a3 3 0 00-3-3h-15.56a3 3 0 00-3 3v2.55h20.55z" fill="#fff" stroke="#000" stroke-width="2"/><path d="M204.27 40.85l.89-.44v.33a1 1 0 01-1 1h-.34l.45-.89z" fill="#000"/><path d="M244.5 24.08h.53l.3-.45-.84-.55.84.54h0l.01-.01.03-.04a8.86 8.86 0 00.43-.71c.29-.48.68-1.16 1.1-1.98a28.52 28.52 0 002.4-6.05c.53-2.2.7-4.64-.4-6.58-1.16-2.02-3.5-3.15-7.14-3.15a.38.38 0 01-.16-.06s0 0 0 0c-.03-.02-.2-.12-.2-.63v-1h-1c-.51 0-.95.28-1.18.45-.29.2-.56.47-.79.7a11.9 11.9 0 00-.72.81l-2.59 1.9-.16.12-.1.16-2.72 4.4-.24.4.14.44 1 3.04.42 1.29 1.1-.78 2.31-1.62 1.7-1.14c.87.32 1.25.67 1.4.87l.07.1-.05.1a16.5 16.5 0 01-3.55 4.57 3.17 3.17 0 00-.66 3.96l.24.4.3.5h8.17z" fill="#5C5C5C" stroke="#000" stroke-width="2"/><path d="M250.5 28.52h1v-2.55a3 3 0 00-3-3h-15.56a3 3 0 00-3 3v2.55h20.55z" fill="#5C5C5C" stroke="#000" stroke-width="2"/><path d="M236.27 8.85l.89-.44v.33a1 1 0 01-1 1h-.34l.45-.89z" fill="#000"/><mask id="f" maskUnits="userSpaceOnUse" x="266.38" y="201.52" width="12" height="18" fill="#000"><path fill="#fff" d="M266.38 201.52h12v18h-12z"/><path fill-rule="evenodd" clip-rule="evenodd" d="M273.88 210.44a3.56 3.56 0 10-2.32 0c.02 2.85-1.48 6.41-4.18 6.41h10.67c-2.7 0-4.19-3.58-4.17-6.41z"/></mask><path fill-rule="evenodd" clip-rule="evenodd" d="M273.88 210.44a3.56 3.56 0 10-2.32 0c.02 2.85-1.48 6.41-4.18 6.41h10.67c-2.7 0-4.19-3.58-4.17-6.41z" fill="#fff"/><path d="M273.88 210.44l-.66-1.9-1.33.47-.01 1.42h2zm-2.32 0l2-.02-.01-1.41-1.34-.46-.65 1.9zm2.7-3.36c0 .67-.43 1.25-1.04 1.47l1.32 3.77a5.56 5.56 0 003.73-5.24h-4zm-1.55-1.56c.86 0 1.56.7 1.56 1.56h4a5.56 5.56 0 00-5.56-5.56v4zm-1.55 1.56c0-.86.7-1.56 1.55-1.56v-4a5.55 5.55 0 00-5.55 5.56h4zm1.05 1.47a1.56 1.56 0 01-1.05-1.47h-4c0 2.44 1.57 4.5 3.75 5.25l1.3-3.78zm-4.83 10.3c2.36 0 3.95-1.57 4.85-3.14.9-1.6 1.34-3.55 1.33-5.29l-4 .04a6.83 6.83 0 01-.8 3.26c-.53.93-1.04 1.13-1.38 1.13v4zm10.67-4h-10.67v4h10.67v-4zm-6.17-4.42c0 1.72.43 3.67 1.33 5.26.88 1.57 2.47 3.16 4.84 3.16v-4c-.34 0-.84-.2-1.36-1.13a6.95 6.95 0 01-.81-3.27l-4-.02z" fill="#000" mask="url(#f)"/><path d="M279.82 220.52h1v-1.67a3 3 0 00-3-3H267.6a3 3 0 00-3 3v1.67h15.22z" fill="#fff" stroke="#000" stroke-width="2"/><mask id="g" maskUnits="userSpaceOnUse" x="266.38" y="41.52" width="12" height="18" fill="#000"><path fill="#fff" d="M266.38 41.52h12v18h-12z"/><path fill-rule="evenodd" clip-rule="evenodd" d="M273.88 50.44a3.56 3.56 0 10-2.32 0c.02 2.85-1.48 6.41-4.18 6.41h10.67c-2.7 0-4.19-3.58-4.17-6.41z"/></mask><path fill-rule="evenodd" clip-rule="evenodd" d="M273.88 50.44a3.56 3.56 0 10-2.32 0c.02 2.85-1.48 6.41-4.18 6.41h10.67c-2.7 0-4.19-3.58-4.17-6.41z" fill="#5C5C5C"/><path d="M273.88 50.44l-.66-1.9-1.33.47-.01 1.42h2zm-2.32 0l2-.02-.01-1.41-1.34-.46-.65 1.9zm2.7-3.36c0 .67-.43 1.25-1.04 1.47l1.32 3.78a5.56 5.56 0 003.73-5.25h-4zm-1.55-1.56c.86 0 1.56.7 1.56 1.56h4a5.56 5.56 0 00-5.56-5.56v4zm-1.55 1.56c0-.86.7-1.56 1.55-1.56v-4a5.56 5.56 0 00-5.55 5.56h4zm1.05 1.47a1.56 1.56 0 01-1.05-1.47h-4c0 2.44 1.57 4.5 3.75 5.25l1.3-3.78zm-4.83 10.3c2.36 0 3.95-1.57 4.85-3.14.9-1.6 1.34-3.55 1.33-5.29l-4 .04a6.83 6.83 0 01-.8 3.27c-.53.92-1.04 1.12-1.38 1.12v4zm10.67-4h-10.67v4h10.67v-4zm-6.17-4.42c0 1.72.43 3.67 1.33 5.26.88 1.57 2.47 3.16 4.84 3.16v-4c-.34 0-.84-.2-1.36-1.13a6.95 6.95 0 01-.81-3.27l-4-.02z" fill="#000" mask="url(#g)"/><path d="M279.82 60.52h1v-1.67a3 3 0 00-3-3H267.6a3 3 0 00-3 3v1.67h15.22z" fill="#5C5C5C" stroke="#000" stroke-width="2"/><mask id="h" maskUnits="userSpaceOnUse" x="138.38" y="137.52" width="12" height="18" fill="#000"><path fill="#fff" d="M138.38 137.52h12v18h-12z"/><path fill-rule="evenodd" clip-rule="evenodd" d="M145.88 146.44a3.56 3.56 0 10-2.32 0c.03 2.85-1.48 6.41-4.18 6.41h10.67c-2.7 0-4.19-3.58-4.17-6.41z"/></mask><path fill-rule="evenodd" clip-rule="evenodd" d="M145.88 146.44a3.56 3.56 0 10-2.32 0c.03 2.85-1.48 6.41-4.18 6.41h10.67c-2.7 0-4.19-3.58-4.17-6.41z" fill="#fff"/><path d="M145.88 146.44l-.66-1.9-1.33.47-.01 1.42h2zm-2.32 0l2-.02-.02-1.41-1.33-.46-.65 1.9zm2.7-3.36c0 .67-.43 1.25-1.04 1.47l1.32 3.77a5.56 5.56 0 003.73-5.24h-4zm-1.55-1.56c.86 0 1.56.7 1.56 1.56h4a5.56 5.56 0 00-5.56-5.56v4zm-1.55 1.56c0-.86.7-1.56 1.55-1.56v-4a5.55 5.55 0 00-5.55 5.56h4zm1.05 1.47a1.56 1.56 0 01-1.05-1.47h-4c0 2.44 1.57 4.5 3.75 5.25l1.3-3.78zm-4.83 10.3c2.36 0 3.95-1.57 4.85-3.14.9-1.6 1.34-3.55 1.33-5.29l-4 .04a6.83 6.83 0 01-.8 3.26c-.53.93-1.04 1.13-1.38 1.13v4zm10.67-4h-10.67v4h10.67v-4zm-6.17-4.42c0 1.72.43 3.67 1.33 5.26.88 1.57 2.47 3.16 4.84 3.16v-4c-.34 0-.84-.2-1.36-1.13a6.95 6.95 0 01-.81-3.27l-4-.02z" fill="#000" mask="url(#h)"/><path d="M151.82 156.52h1v-1.67a3 3 0 00-3-3H139.6a3 3 0 00-3 3v1.67h15.22z" fill="#fff" stroke="#000" stroke-width="2"/><mask id="i" maskUnits="userSpaceOnUse" x="138.38" y="41.52" width="12" height="18" fill="#000"><path fill="#fff" d="M138.38 41.52h12v18h-12z"/><path fill-rule="evenodd" clip-rule="evenodd" d="M145.88 50.44a3.56 3.56 0 10-2.32 0c.03 2.85-1.48 6.41-4.18 6.41h10.67c-2.7 0-4.19-3.58-4.17-6.41z"/></mask><path fill-rule="evenodd" clip-rule="evenodd" d="M145.88 50.44a3.56 3.56 0 10-2.32 0c.03 2.85-1.48 6.41-4.18 6.41h10.67c-2.7 0-4.19-3.58-4.17-6.41z" fill="#5C5C5C"/><path d="M145.88 50.44l-.66-1.9-1.33.47-.01 1.42h2zm-2.32 0l2-.02-.02-1.41-1.33-.46-.65 1.9zm2.7-3.36c0 .67-.43 1.25-1.04 1.47l1.32 3.78a5.56 5.56 0 003.73-5.25h-4zm-1.55-1.56c.86 0 1.56.7 1.56 1.56h4a5.56 5.56 0 00-5.56-5.56v4zm-1.55 1.56c0-.86.7-1.56 1.55-1.56v-4a5.56 5.56 0 00-5.55 5.56h4zm1.05 1.47a1.56 1.56 0 01-1.05-1.47h-4c0 2.44 1.57 4.5 3.75 5.25l1.3-3.78zm-4.83 10.3c2.36 0 3.95-1.57 4.85-3.14.9-1.6 1.34-3.55 1.33-5.29l-4 .04a6.83 6.83 0 01-.8 3.27c-.53.92-1.04 1.12-1.38 1.12v4zm10.67-4h-10.67v4h10.67v-4zm-6.17-4.42c0 1.72.43 3.67 1.33 5.26.88 1.57 2.47 3.16 4.84 3.16v-4c-.34 0-.84-.2-1.36-1.13a6.95 6.95 0 01-.81-3.27l-4-.02z" fill="#000" mask="url(#i)"/><path d="M151.82 60.52h1v-1.67a3 3 0 00-3-3H139.6a3 3 0 00-3 3v1.67h15.22z" fill="#5C5C5C" stroke="#000" stroke-width="2"/><mask id="j" maskUnits="userSpaceOnUse" x="202.38" y="201.52" width="12" height="18" fill="#000"><path fill="#fff" d="M202.38 201.52h12v18h-12z"/><path fill-rule="evenodd" clip-rule="evenodd" d="M209.88 210.44a3.56 3.56 0 10-2.32 0c.03 2.85-1.48 6.41-4.18 6.41h10.67c-2.7 0-4.19-3.58-4.17-6.41z"/></mask><path fill-rule="evenodd" clip-rule="evenodd" d="M209.88 210.44a3.56 3.56 0 10-2.32 0c.03 2.85-1.48 6.41-4.18 6.41h10.67c-2.7 0-4.19-3.58-4.17-6.41z" fill="#fff"/><path d="M209.88 210.44l-.66-1.9-1.33.47-.01 1.42h2zm-2.32 0l2-.02-.02-1.41-1.33-.46-.65 1.9zm2.7-3.36c0 .67-.43 1.25-1.04 1.47l1.32 3.77a5.56 5.56 0 003.73-5.24h-4zm-1.55-1.56c.86 0 1.56.7 1.56 1.56h4a5.56 5.56 0 00-5.56-5.56v4zm-1.55 1.56c0-.86.7-1.56 1.55-1.56v-4a5.55 5.55 0 00-5.55 5.56h4zm1.05 1.47a1.56 1.56 0 01-1.05-1.47h-4c0 2.44 1.57 4.5 3.75 5.25l1.3-3.78zm-4.83 10.3c2.36 0 3.95-1.57 4.85-3.14.9-1.6 1.34-3.55 1.33-5.29l-4 .04a6.83 6.83 0 01-.8 3.26c-.53.93-1.04 1.13-1.38 1.13v4zm10.67-4h-10.67v4h10.67v-4zm-6.17-4.42c0 1.72.43 3.67 1.33 5.26.88 1.57 2.47 3.16 4.84 3.16v-4c-.34 0-.84-.2-1.36-1.13a6.95 6.95 0 01-.81-3.27l-4-.02z" fill="#000" mask="url(#j)"/><path d="M215.82 220.52h1v-1.67a3 3 0 00-3-3H203.6a3 3 0 00-3 3v1.67h15.22z" fill="#fff" stroke="#000" stroke-width="2"/><mask id="k" maskUnits="userSpaceOnUse" x="74.38" y="201.52" width="12" height="18" fill="#000"><path fill="#fff" d="M74.38 201.52h12v18h-12z"/><path fill-rule="evenodd" clip-rule="evenodd" d="M81.88 210.44a3.56 3.56 0 10-2.32 0c.02 2.85-1.48 6.41-4.18 6.41h10.67c-2.7 0-4.18-3.58-4.17-6.41z"/></mask><path fill-rule="evenodd" clip-rule="evenodd" d="M81.88 210.44a3.56 3.56 0 10-2.32 0c.02 2.85-1.48 6.41-4.18 6.41h10.67c-2.7 0-4.18-3.58-4.17-6.41z" fill="#fff"/><path d="M81.88 210.44l-.66-1.9-1.33.47-.01 1.42h2zm-2.32 0l2-.02-.01-1.41-1.34-.46-.65 1.9zm2.7-3.36c0 .67-.43 1.25-1.04 1.47l1.32 3.77a5.56 5.56 0 003.73-5.24h-4zm-1.55-1.56c.86 0 1.56.7 1.56 1.56h4a5.56 5.56 0 00-5.56-5.56v4zm-1.55 1.56c0-.86.7-1.56 1.55-1.56v-4a5.56 5.56 0 00-5.55 5.56h4zm1.05 1.47a1.56 1.56 0 01-1.05-1.47h-4c0 2.44 1.57 4.5 3.75 5.25l1.3-3.78zm-4.83 10.3c2.36 0 3.95-1.57 4.85-3.14.9-1.6 1.34-3.55 1.33-5.29l-4 .04a6.83 6.83 0 01-.8 3.26c-.53.93-1.04 1.13-1.38 1.13v4zm10.67-4H75.38v4h10.67v-4zm-6.17-4.42c0 1.72.43 3.67 1.33 5.26.88 1.57 2.47 3.16 4.84 3.16v-4c-.33 0-.84-.2-1.36-1.13a6.96 6.96 0 01-.81-3.27l-4-.02z" fill="#000" mask="url(#k)"/><path d="M87.82 220.52h1v-1.67a3 3 0 00-3-3H75.6a3 3 0 00-3 3v1.67h15.22z" fill="#fff" stroke="#000" stroke-width="2"/><mask id="l" maskUnits="userSpaceOnUse" x="74.38" y="41.52" width="12" height="18" fill="#000"><path fill="#fff" d="M74.38 41.52h12v18h-12z"/><path fill-rule="evenodd" clip-rule="evenodd" d="M81.88 50.44a3.56 3.56 0 10-2.32 0c.02 2.85-1.48 6.41-4.18 6.41h10.67c-2.7 0-4.18-3.58-4.17-6.41z"/></mask><path fill-rule="evenodd" clip-rule="evenodd" d="M81.88 50.44a3.56 3.56 0 10-2.32 0c.02 2.85-1.48 6.41-4.18 6.41h10.67c-2.7 0-4.18-3.58-4.17-6.41z" fill="#5C5C5C"/><path d="M81.88 50.44l-.66-1.9-1.33.47-.01 1.42h2zm-2.32 0l2-.02-.01-1.41-1.34-.46-.65 1.9zm2.7-3.36c0 .67-.43 1.25-1.04 1.47l1.32 3.78a5.56 5.56 0 003.73-5.25h-4zm-1.55-1.56c.86 0 1.56.7 1.56 1.56h4a5.56 5.56 0 00-5.56-5.56v4zm-1.55 1.56c0-.86.7-1.56 1.55-1.56v-4a5.56 5.56 0 00-5.55 5.56h4zm1.05 1.47a1.56 1.56 0 01-1.05-1.47h-4c0 2.44 1.57 4.5 3.75 5.25l1.3-3.78zm-4.83 10.3c2.36 0 3.95-1.57 4.85-3.14.9-1.6 1.34-3.55 1.33-5.29l-4 .04a6.83 6.83 0 01-.8 3.27c-.53.92-1.04 1.12-1.38 1.12v4zm10.67-4H75.38v4h10.67v-4zm-6.17-4.42c0 1.72.43 3.67 1.33 5.26.88 1.57 2.47 3.16 4.84 3.16v-4c-.33 0-.84-.2-1.36-1.13a6.96 6.96 0 01-.81-3.27l-4-.02z" fill="#000" mask="url(#l)"/><path d="M87.82 60.52h1v-1.67a3 3 0 00-3-3H75.6a3 3 0 00-3 3v1.67h15.22z" fill="#5C5C5C" stroke="#000" stroke-width="2"/><mask id="m" maskUnits="userSpaceOnUse" x="234.38" y="201.52" width="12" height="18" fill="#000"><path fill="#fff" d="M234.38 201.52h12v18h-12z"/><path fill-rule="evenodd" clip-rule="evenodd" d="M241.88 210.44a3.56 3.56 0 10-2.32 0c.03 2.85-1.48 6.41-4.18 6.41h10.67c-2.7 0-4.19-3.58-4.17-6.41z"/></mask><path fill-rule="evenodd" clip-rule="evenodd" d="M241.88 210.44a3.56 3.56 0 10-2.32 0c.03 2.85-1.48 6.41-4.18 6.41h10.67c-2.7 0-4.19-3.58-4.17-6.41z" fill="#fff"/><path d="M241.88 210.44l-.66-1.9-1.33.47-.01 1.42h2zm-2.32 0l2-.02-.02-1.41-1.33-.46-.65 1.9zm2.7-3.36c0 .67-.43 1.25-1.04 1.47l1.32 3.77a5.56 5.56 0 003.73-5.24h-4zm-1.55-1.56c.86 0 1.56.7 1.56 1.56h4a5.56 5.56 0 00-5.56-5.56v4zm-1.55 1.56c0-.86.7-1.56 1.55-1.56v-4a5.55 5.55 0 00-5.55 5.56h4zm1.05 1.47a1.56 1.56 0 01-1.05-1.47h-4c0 2.44 1.57 4.5 3.75 5.25l1.3-3.78zm-4.83 10.3c2.36 0 3.95-1.57 4.85-3.14.9-1.6 1.34-3.55 1.33-5.29l-4 .04a6.83 6.83 0 01-.8 3.26c-.53.93-1.04 1.13-1.38 1.13v4zm10.67-4h-10.67v4h10.67v-4zm-6.17-4.42c0 1.72.43 3.67 1.33 5.26.88 1.57 2.47 3.16 4.84 3.16v-4c-.34 0-.84-.2-1.36-1.13a6.95 6.95 0 01-.81-3.27l-4-.02z" fill="#000" mask="url(#m)"/><path d="M247.82 220.52h1v-1.67a3 3 0 00-3-3H235.6a3 3 0 00-3 3v1.67h15.22z" fill="#fff" stroke="#000" stroke-width="2"/><mask id="n" maskUnits="userSpaceOnUse" x="234.38" y="41.52" width="12" height="18" fill="#000"><path fill="#fff" d="M234.38 41.52h12v18h-12z"/><path fill-rule="evenodd" clip-rule="evenodd" d="M241.88 50.44a3.56 3.56 0 10-2.32 0c.03 2.85-1.48 6.41-4.18 6.41h10.67c-2.7 0-4.19-3.58-4.17-6.41z"/></mask><path fill-rule="evenodd" clip-rule="evenodd" d="M241.88 50.44a3.56 3.56 0 10-2.32 0c.03 2.85-1.48 6.41-4.18 6.41h10.67c-2.7 0-4.19-3.58-4.17-6.41z" fill="#5C5C5C"/><path d="M241.88 50.44l-.66-1.9-1.33.47-.01 1.42h2zm-2.32 0l2-.02-.02-1.41-1.33-.46-.65 1.9zm2.7-3.36c0 .67-.43 1.25-1.04 1.47l1.32 3.78a5.56 5.56 0 003.73-5.25h-4zm-1.55-1.56c.86 0 1.56.7 1.56 1.56h4a5.56 5.56 0 00-5.56-5.56v4zm-1.55 1.56c0-.86.7-1.56 1.55-1.56v-4a5.56 5.56 0 00-5.55 5.56h4zm1.05 1.47a1.56 1.56 0 01-1.05-1.47h-4c0 2.44 1.57 4.5 3.75 5.25l1.3-3.78zm-4.83 10.3c2.36 0 3.95-1.57 4.85-3.14.9-1.6 1.34-3.55 1.33-5.29l-4 .04a6.83 6.83 0 01-.8 3.27c-.53.92-1.04 1.12-1.38 1.12v4zm10.67-4h-10.67v4h10.67v-4zm-6.17-4.42c0 1.72.43 3.67 1.33 5.26.88 1.57 2.47 3.16 4.84 3.16v-4c-.34 0-.84-.2-1.36-1.13a6.95 6.95 0 01-.81-3.27l-4-.02z" fill="#000" mask="url(#n)"/><path d="M247.82 60.52h1v-1.67a3 3 0 00-3-3H235.6a3 3 0 00-3 3v1.67h15.22z" fill="#5C5C5C" stroke="#000" stroke-width="2"/><mask id="o" maskUnits="userSpaceOnUse" x="106.38" y="201.52" width="12" height="18" fill="#000"><path fill="#fff" d="M106.38 201.52h12v18h-12z"/><path fill-rule="evenodd" clip-rule="evenodd" d="M113.88 210.44a3.56 3.56 0 10-2.32 0c.02 2.85-1.48 6.41-4.18 6.41h10.67c-2.7 0-4.19-3.58-4.17-6.41z"/></mask><path fill-rule="evenodd" clip-rule="evenodd" d="M113.88 210.44a3.56 3.56 0 10-2.32 0c.02 2.85-1.48 6.41-4.18 6.41h10.67c-2.7 0-4.19-3.58-4.17-6.41z" fill="#fff"/><path d="M113.88 210.44l-.66-1.9-1.33.47-.01 1.42h2zm-2.32 0l2-.02-.02-1.41-1.33-.46-.65 1.9zm2.7-3.36c0 .67-.43 1.25-1.04 1.47l1.32 3.77a5.56 5.56 0 003.73-5.24h-4zm-1.55-1.56c.86 0 1.56.7 1.56 1.56h4a5.56 5.56 0 00-5.56-5.56v4zm-1.55 1.56c0-.86.7-1.56 1.55-1.56v-4a5.55 5.55 0 00-5.55 5.56h4zm1.05 1.47a1.56 1.56 0 01-1.05-1.47h-4c0 2.44 1.57 4.5 3.75 5.25l1.3-3.78zm-4.83 10.3c2.36 0 3.95-1.57 4.85-3.14.9-1.6 1.34-3.55 1.33-5.29l-4 .04a6.83 6.83 0 01-.8 3.26c-.53.93-1.04 1.13-1.38 1.13v4zm10.67-4h-10.67v4h10.67v-4zm-6.17-4.42c0 1.72.43 3.67 1.33 5.26.88 1.57 2.47 3.16 4.84 3.16v-4c-.33 0-.84-.2-1.36-1.13a6.95 6.95 0 01-.81-3.27l-4-.02z" fill="#000" mask="url(#o)"/><path d="M119.82 220.52h1v-1.67a3 3 0 00-3-3H107.6a3 3 0 00-3 3v1.67h15.22z" fill="#fff" stroke="#000" stroke-width="2"/><mask id="p" maskUnits="userSpaceOnUse" x="106.38" y="41.52" width="12" height="18" fill="#000"><path fill="#fff" d="M106.38 41.52h12v18h-12z"/><path fill-rule="evenodd" clip-rule="evenodd" d="M113.88 50.44a3.56 3.56 0 10-2.32 0c.02 2.85-1.48 6.41-4.18 6.41h10.67c-2.7 0-4.19-3.58-4.17-6.41z"/></mask><path fill-rule="evenodd" clip-rule="evenodd" d="M113.88 50.44a3.56 3.56 0 10-2.32 0c.02 2.85-1.48 6.41-4.18 6.41h10.67c-2.7 0-4.19-3.58-4.17-6.41z" fill="#5C5C5C"/><path d="M113.88 50.44l-.66-1.9-1.33.47-.01 1.42h2zm-2.32 0l2-.02-.02-1.41-1.33-.46-.65 1.9zm2.7-3.36c0 .67-.43 1.25-1.04 1.47l1.32 3.78a5.56 5.56 0 003.73-5.25h-4zm-1.55-1.56c.86 0 1.56.7 1.56 1.56h4a5.56 5.56 0 00-5.56-5.56v4zm-1.55 1.56c0-.86.7-1.56 1.55-1.56v-4a5.56 5.56 0 00-5.55 5.56h4zm1.05 1.47a1.56 1.56 0 01-1.05-1.47h-4c0 2.44 1.57 4.5 3.75 5.25l1.3-3.78zm-4.83 10.3c2.36 0 3.95-1.57 4.85-3.14.9-1.6 1.34-3.55 1.33-5.29l-4 .04a6.83 6.83 0 01-.8 3.27c-.53.92-1.04 1.12-1.38 1.12v4zm10.67-4h-10.67v4h10.67v-4zm-6.17-4.42c0 1.72.43 3.67 1.33 5.26.88 1.57 2.47 3.16 4.84 3.16v-4c-.33 0-.84-.2-1.36-1.13a6.95 6.95 0 01-.81-3.27l-4-.02z" fill="#000" mask="url(#p)"/><path d="M119.82 60.52h1v-1.67a3 3 0 00-3-3H107.6a3 3 0 00-3 3v1.67h15.22z" fill="#5C5C5C" stroke="#000" stroke-width="2"/><mask id="q" maskUnits="userSpaceOnUse" x="170.38" y="137.52" width="12" height="18" fill="#000"><path fill="#fff" d="M170.38 137.52h12v18h-12z"/><path fill-rule="evenodd" clip-rule="evenodd" d="M177.88 146.44a3.56 3.56 0 10-2.32 0c.03 2.85-1.48 6.41-4.18 6.41h10.67c-2.7 0-4.19-3.58-4.17-6.41z"/></mask><path fill-rule="evenodd" clip-rule="evenodd" d="M177.88 146.44a3.56 3.56 0 10-2.32 0c.03 2.85-1.48 6.41-4.18 6.41h10.67c-2.7 0-4.19-3.58-4.17-6.41z" fill="#fff"/><path d="M177.88 146.44l-.66-1.9-1.33.47-.01 1.42h2zm-2.32 0l2-.02-.02-1.41-1.33-.46-.65 1.9zm2.7-3.36c0 .67-.43 1.25-1.04 1.47l1.32 3.77a5.56 5.56 0 003.73-5.24h-4zm-1.55-1.56c.86 0 1.56.7 1.56 1.56h4a5.56 5.56 0 00-5.56-5.56v4zm-1.55 1.56c0-.86.7-1.56 1.55-1.56v-4a5.55 5.55 0 00-5.55 5.56h4zm1.05 1.47a1.56 1.56 0 01-1.05-1.47h-4c0 2.44 1.57 4.5 3.75 5.25l1.3-3.78zm-4.83 10.3c2.36 0 3.95-1.57 4.85-3.14.9-1.6 1.34-3.55 1.33-5.29l-4 .04a6.83 6.83 0 01-.8 3.26c-.53.93-1.04 1.13-1.38 1.13v4zm10.67-4h-10.67v4h10.67v-4zm-6.17-4.42c0 1.72.43 3.67 1.33 5.26.88 1.57 2.47 3.16 4.84 3.16v-4c-.34 0-.84-.2-1.36-1.13a6.95 6.95 0 01-.81-3.27l-4-.02z" fill="#000" mask="url(#q)"/><path d="M183.82 156.52h1v-1.67a3 3 0 00-3-3H171.6a3 3 0 00-3 3v1.67h15.22z" fill="#fff" stroke="#000" stroke-width="2"/><mask id="r" maskUnits="userSpaceOnUse" x="170.38" y="105.52" width="12" height="18" fill="#000"><path fill="#fff" d="M170.38 105.52h12v18h-12z"/><path fill-rule="evenodd" clip-rule="evenodd" d="M177.88 114.44a3.56 3.56 0 10-2.32 0c.03 2.85-1.48 6.42-4.18 6.42h10.67c-2.7 0-4.19-3.59-4.17-6.42z"/></mask><path fill-rule="evenodd" clip-rule="evenodd" d="M177.88 114.44a3.56 3.56 0 10-2.32 0c.03 2.85-1.48 6.42-4.18 6.42h10.67c-2.7 0-4.19-3.59-4.17-6.42z" fill="#5C5C5C"/><path d="M177.88 114.44l-.66-1.9-1.33.47-.01 1.42h2zm-2.32 0l2-.02-.02-1.41-1.33-.46-.65 1.9zm2.7-3.36c0 .67-.43 1.25-1.04 1.47l1.32 3.78a5.56 5.56 0 003.73-5.25h-4zm-1.55-1.56c.86 0 1.56.7 1.56 1.56h4a5.56 5.56 0 00-5.56-5.56v4zm-1.55 1.56c0-.86.7-1.56 1.55-1.56v-4a5.55 5.55 0 00-5.55 5.56h4zm1.05 1.47a1.56 1.56 0 01-1.05-1.47h-4c0 2.44 1.57 4.5 3.75 5.25l1.3-3.78zm-4.83 10.3c2.36 0 3.95-1.57 4.85-3.14.9-1.6 1.34-3.55 1.33-5.29l-4 .04a6.83 6.83 0 01-.8 3.27c-.53.92-1.04 1.13-1.38 1.13v4zm10.67-4h-10.67v4h10.67v-4zm-6.17-4.42c0 1.72.43 3.67 1.33 5.26.88 1.57 2.47 3.17 4.84 3.17v-4c-.34 0-.84-.2-1.36-1.14a6.95 6.95 0 01-.81-3.27l-4-.02z" fill="#000" mask="url(#r)"/><path d="M183.82 124.52h1V122.86a3 3 0 00-3-3H171.6a3 3 0 00-3 3V124.52h15.22z" fill="#5C5C5C" stroke="#000" stroke-width="2"/><mask id="s" maskUnits="userSpaceOnUse" x="42.38" y="201.52" width="12" height="18" fill="#000"><path fill="#fff" d="M42.38 201.52h12v18h-12z"/><path fill-rule="evenodd" clip-rule="evenodd" d="M49.88 210.44a3.56 3.56 0 10-2.32 0c.02 2.85-1.48 6.41-4.18 6.41h10.67c-2.7 0-4.18-3.58-4.17-6.41z"/></mask><path fill-rule="evenodd" clip-rule="evenodd" d="M49.88 210.44a3.56 3.56 0 10-2.32 0c.02 2.85-1.48 6.41-4.18 6.41h10.67c-2.7 0-4.18-3.58-4.17-6.41z" fill="#fff"/><path d="M49.88 210.44l-.66-1.9-1.33.47-.01 1.42h2zm-2.32 0l2-.02-.01-1.41-1.34-.46-.65 1.9zm2.7-3.36c0 .67-.43 1.25-1.04 1.47l1.32 3.77a5.56 5.56 0 003.73-5.24h-4zm-1.55-1.56c.86 0 1.56.7 1.56 1.56h4a5.56 5.56 0 00-5.56-5.56v4zm-1.55 1.56c0-.86.7-1.56 1.55-1.56v-4a5.56 5.56 0 00-5.55 5.56h4zm1.05 1.47a1.56 1.56 0 01-1.05-1.47h-4c0 2.44 1.57 4.5 3.75 5.25l1.3-3.78zm-4.83 10.3c2.36 0 3.95-1.57 4.85-3.14.9-1.6 1.34-3.55 1.33-5.29l-4 .04a6.83 6.83 0 01-.8 3.26c-.53.93-1.04 1.13-1.38 1.13v4zm10.67-4H43.38v4h10.67v-4zm-6.17-4.42c0 1.72.43 3.67 1.33 5.26.88 1.57 2.47 3.16 4.84 3.16v-4c-.33 0-.84-.2-1.36-1.13a6.96 6.96 0 01-.81-3.27l-4-.02z" fill="#000" mask="url(#s)"/><path d="M55.82 220.52h1v-1.67a3 3 0 00-3-3H43.6a3 3 0 00-3 3v1.67h15.22z" fill="#fff" stroke="#000" stroke-width="2"/><mask id="t" maskUnits="userSpaceOnUse" x="42.38" y="41.52" width="12" height="18" fill="#000"><path fill="#fff" d="M42.38 41.52h12v18h-12z"/><path fill-rule="evenodd" clip-rule="evenodd" d="M49.88 50.44a3.56 3.56 0 10-2.32 0c.02 2.85-1.48 6.41-4.18 6.41h10.67c-2.7 0-4.18-3.58-4.17-6.41z"/></mask><path fill-rule="evenodd" clip-rule="evenodd" d="M49.88 50.44a3.56 3.56 0 10-2.32 0c.02 2.85-1.48 6.41-4.18 6.41h10.67c-2.7 0-4.18-3.58-4.17-6.41z" fill="#5C5C5C"/><path d="M49.88 50.44l-.66-1.9-1.33.47-.01 1.42h2zm-2.32 0l2-.02-.01-1.41-1.34-.46-.65 1.9zm2.7-3.36c0 .67-.43 1.25-1.04 1.47l1.32 3.78a5.56 5.56 0 003.73-5.25h-4zm-1.55-1.56c.86 0 1.56.7 1.56 1.56h4a5.56 5.56 0 00-5.56-5.56v4zm-1.55 1.56c0-.86.7-1.56 1.55-1.56v-4a5.56 5.56 0 00-5.55 5.56h4zm1.05 1.47a1.56 1.56 0 01-1.05-1.47h-4c0 2.44 1.57 4.5 3.75 5.25l1.3-3.78zm-4.83 10.3c2.36 0 3.95-1.57 4.85-3.14.9-1.6 1.34-3.55 1.33-5.29l-4 .04a6.83 6.83 0 01-.8 3.27c-.53.92-1.04 1.12-1.38 1.12v4zm10.67-4H43.38v4h10.67v-4zm-6.17-4.42c0 1.72.43 3.67 1.33 5.26.88 1.57 2.47 3.16 4.84 3.16v-4c-.33 0-.84-.2-1.36-1.13a6.96 6.96 0 01-.81-3.27l-4-.02z" fill="#000" mask="url(#t)"/><path d="M55.82 60.52h1v-1.67a3 3 0 00-3-3H43.6a3 3 0 00-3 3v1.67h15.22z" fill="#5C5C5C" stroke="#000" stroke-width="2"/><path fill-rule="evenodd" clip-rule="evenodd" d="M147.57 230.49a3 3 0 01-1.1 2.32l1.8 7.16 3.88-3.66a3.03 3.03 0 01-.33-1.38 2.91 2.91 0 012.86-2.96 2.91 2.91 0 012.86 2.96 2.91 2.91 0 01-3.05 2.96l-2.67 10.08H137.6l-2.67-10.09a2.92 2.92 0 01-2.66-2.95 2.91 2.91 0 012.85-2.96 2.91 2.91 0 012.86 2.96c0 .6-.17 1.15-.46 1.61l3.64 3.43 1.78-7.16a3 3 0 01-1.09-2.32 2.91 2.91 0 012.86-2.97 2.91 2.91 0 012.86 2.97z" fill="#fff"/><path d="M146.48 232.81l-.63-.77-.5.4.16.62.97-.25zm1.79 7.16l-.97.24.41 1.65 1.24-1.17-.68-.72zm3.88-3.66l.69.73.54-.51-.34-.67-.89.45zm2.34 1.58l.07-1-.82-.06-.22.8.97.26zm-2.67 10.08v1h.77l.2-.75-.97-.25zm-14.22 0l-.97.25.2.75h.77v-1zm-2.67-10.09l.97-.25-.18-.7-.72-.04-.07 1zm2.6-1.34l-.86-.53-.43.7.6.56.68-.73zm3.63 3.43l-.69.72 1.24 1.17.42-1.65-.97-.24zm1.78-7.16l.97.25.16-.62-.5-.4-.63.77zm4.17.78a4 4 0 001.46-3.1h-2a2 2 0 01-.72 1.55l1.26 1.55zm2.13 6.13l-1.8-7.15-1.93.49 1.79 7.15 1.94-.49zm2.23-4.14l-3.89 3.66 1.37 1.45 3.89-3.65-1.37-1.46zm-.65-.65c0 .66.16 1.28.44 1.83l1.78-.9a2.05 2.05 0 01-.22-.93h-2zm3.86-3.96a3.91 3.91 0 00-3.86 3.96h2c0-1.12.87-1.96 1.86-1.96v-2zm3.86 3.96c0-2.16-1.7-3.96-3.86-3.96v2c1 0 1.86.84 1.86 1.96h2zm-3.86 3.96c2.16 0 3.86-1.8 3.86-3.96h-2c0 1.12-.87 1.96-1.86 1.96v2zm-.26 0h.26v-2h-.12l-.14 2zm-1.63 9.33l2.67-10.08-1.94-.51-2.66 10.08 1.93.51zm-15.19.75h14.22v-2H137.6v2zm-3.63-10.83l2.66 10.08 1.94-.51-2.67-10.08-1.93.51zm1.03-1.25a1.92 1.92 0 01-1.73-1.96h-2a3.92 3.92 0 003.6 3.95l.13-2zm-1.73-1.96c0-1.12.86-1.96 1.85-1.96v-2a3.91 3.91 0 00-3.85 3.96h2zm1.85-1.96c1 0 1.86.84 1.86 1.96h2c0-2.16-1.7-3.96-3.85-3.96v2zm1.86 1.96c0 .4-.11.77-.3 1.08l1.69 1.07c.39-.63.61-1.36.61-2.15h-2zm4.86 4.3l-3.63-3.41-1.38 1.45 3.64 3.42 1.37-1.45zm.13-6.66l-1.78 7.15 1.94.49 1.78-7.16-1.94-.48zm-1.12-2.08a4 4 0 001.46 3.1l1.27-1.55a2 2 0 01-.73-1.55h-2zm3.86-3.97a3.91 3.91 0 00-3.86 3.97h2c0-1.12.87-1.97 1.86-1.97v-2zm3.86 3.97c0-2.16-1.7-3.97-3.86-3.97v2c1 0 1.86.85 1.86 1.97h2z" fill="#000"/><path d="M154.5 252.52h1v-2.55a3 3 0 00-3-3h-15.56a3 3 0 00-3 3v2.55h20.55z" fill="#fff" stroke="#000" stroke-width="2"/><path fill="#E94E58" fill-opacity=".75" d="M128.71.08h32v32h-32zM256.71.08h32v32h-32z"/><path fill-rule="evenodd" clip-rule="evenodd" d="M147.57 6.48a3 3 0 01-1.1 2.33l1.8 7.16 3.88-3.66a3.04 3.04 0 01-.33-1.38 2.91 2.91 0 012.86-2.96 2.91 2.91 0 012.86 2.96 2.91 2.91 0 01-3.05 2.96l-2.67 10.08H137.6l-2.67-10.08a2.92 2.92 0 01-2.66-2.96 2.91 2.91 0 012.85-2.96 2.91 2.91 0 012.86 2.96c0 .6-.17 1.15-.46 1.61l3.64 3.43 1.78-7.16a3 3 0 01-1.09-2.33 2.91 2.91 0 012.86-2.96 2.91 2.91 0 012.86 2.96z" fill="#5C5C5C"/><path d="M146.48 8.81l-.63-.77-.5.4.16.62.97-.25zm1.79 7.16l-.97.24.41 1.65 1.24-1.17-.68-.72zm3.88-3.66l.69.73.54-.52-.34-.66-.89.45zm2.34 1.58l.07-1-.82-.06-.22.8.97.26zm-2.67 10.08v1h.77l.2-.75-.97-.25zm-14.22 0l-.97.25.2.75h.77v-1zm-2.67-10.08l.97-.26-.18-.7-.72-.04-.07 1zm2.6-1.35l-.86-.53-.43.7.6.56.68-.73zm3.63 3.43l-.69.72 1.24 1.17.42-1.65-.97-.24zm1.78-7.16l.97.25.16-.62-.5-.4-.63.77zm4.17.78a4 4 0 001.46-3.1h-2a2 2 0 01-.72 1.55l1.26 1.55zm2.13 6.13l-1.8-7.15-1.93.49 1.79 7.15 1.94-.49zm2.23-4.14l-3.89 3.66 1.37 1.45 3.89-3.65-1.37-1.46zm-.65-.65c0 .66.16 1.28.44 1.83l1.78-.9a2.04 2.04 0 01-.22-.93h-2zm3.86-3.96a3.91 3.91 0 00-3.86 3.96h2c0-1.12.87-1.96 1.86-1.96v-2zm3.86 3.96c0-2.16-1.7-3.96-3.86-3.96v2c1 0 1.86.84 1.86 1.96h2zm-3.86 3.96c2.16 0 3.86-1.8 3.86-3.96h-2c0 1.12-.87 1.96-1.86 1.96v2zm-.26 0h.26v-2h-.12l-.14 2zm-1.63 9.33l2.67-10.08-1.94-.51-2.66 10.08 1.93.51zm-15.19.75h14.22v-2H137.6v2zm-3.63-10.83l2.66 10.08 1.94-.51-2.67-10.08-1.93.51zM135 12.9a1.92 1.92 0 01-1.73-1.96h-2a3.92 3.92 0 003.6 3.95l.13-2zm-1.73-1.96c0-1.12.86-1.96 1.85-1.96v-2a3.91 3.91 0 00-3.85 3.96h2zm1.85-1.96c1 0 1.86.84 1.86 1.96h2c0-2.16-1.7-3.96-3.85-3.96v2zm1.86 1.96c0 .4-.11.77-.3 1.08l1.69 1.07c.39-.63.61-1.36.61-2.15h-2zm4.86 4.3l-3.63-3.41-1.38 1.45 3.64 3.42 1.37-1.45zm.13-6.66l-1.78 7.15 1.94.49 1.78-7.15-1.94-.49zm-1.12-2.09a4 4 0 001.46 3.1l1.27-1.54a2 2 0 01-.73-1.56h-2zm3.86-3.96a3.91 3.91 0 00-3.86 3.96h2c0-1.11.87-1.96 1.86-1.96v-2zm3.86 3.96c0-2.15-1.7-3.96-3.86-3.96v2c1 0 1.86.85 1.86 1.96h2z" fill="#000"/><path d="M154.5 28.52h1v-2.55a3 3 0 00-3-3h-15.56a3 3 0 00-3 3v2.55h20.55z" fill="#5C5C5C" stroke="#000" stroke-width="2"/><path d="M268.71 236.3h-.88l-.11.88-1.33 10.66-.14 1.13h12.98l-.2-1.17-1.78-10.67-.13-.83h-8.41z" fill="#fff" stroke="#000" stroke-width="2"/><path d="M265.6 229.19h-1v9.1h16.22v-9.1h-3.12l-.24.66-1.18 3.23h-1.03l-.86-3.16-.2-.73h-2.95l-.2.73-.87 3.16h-1.03l-1.18-3.24-.24-.65h-2.12zM282.5 252.52h1v-2.55a3 3 0 00-3-3h-15.56a3 3 0 00-3 3v2.55h20.55z" fill="#fff" stroke="#000" stroke-width="2"/><path d="M268.71 12.3h-.88l-.11.88-1.33 10.66-.14 1.13h12.98l-.2-1.17-1.78-10.67-.13-.83h-8.41z" fill="#5C5C5C" stroke="#000" stroke-width="2"/><path d="M265.6 5.19h-1v9.1h16.22V5.2h-3.12l-.24.65-1.18 3.24h-1.03l-.86-3.16-.2-.73h-2.95l-.2.73-.87 3.16h-1.03l-1.18-3.24-.24-.65h-2.12zM282.5 28.52h1v-2.55a3 3 0 00-3-3h-15.56a3 3 0 00-3 3v2.55h20.55z" fill="#5C5C5C" stroke="#000" stroke-width="2"/><path d="M44.71 236.3h-.88l-.11.88-1.33 10.66-.14 1.13h12.98l-.2-1.17-1.78-10.67-.14-.83h-8.4z" fill="#fff" stroke="#000" stroke-width="2"/><path d="M41.6 229.19h-1v9.1h16.22v-9.1H53.7l-.24.66-1.18 3.23h-1.03l-.86-3.16-.2-.73h-2.95l-.2.73-.87 3.16h-1.02l-1.19-3.24-.24-.65H41.6zM58.5 252.52h1v-2.55a3 3 0 00-3-3H40.93a3 3 0 00-3 3v2.55h20.55z" fill="#fff" stroke="#000" stroke-width="2"/><path d="M44.71 12.3h-.88l-.11.88-1.33 10.66-.14 1.13h12.98l-.2-1.17-1.78-10.67-.14-.83h-8.4z" fill="#5C5C5C" stroke="#000" stroke-width="2"/><path d="M41.6 5.19h-1v9.1h16.22V5.2H53.7l-.24.65-1.18 3.24h-1.03l-.86-3.16-.2-.73h-2.95l-.2.73-.87 3.16h-1.02l-1.19-3.24-.24-.65H41.6zM58.5 28.52h1v-2.55a3 3 0 00-3-3H40.93a3 3 0 00-3 3v2.55h20.55z" fill="#5C5C5C" stroke="#000" stroke-width="2"/><path d="M195.71 62.08l-16.75 4.38 12.17 12.32 4.58-16.7zm-81.94 83.06l73.4-72.5-2.11-2.14-73.4 72.51 2.1 2.13z" fill="#FFC107"/><mask id="u" maskUnits="userSpaceOnUse" x="102.6" y="130.41" width="20" height="25" fill="#000"><path fill="#fff" d="M102.6 130.41h20v25h-20z"/><path fill-rule="evenodd" clip-rule="evenodd" d="M113.3 135.54c.54-.25.92-.83.92-1.5 0-.9-.7-1.63-1.54-1.63a1.6 1.6 0 00-1.55 1.63c0 .69.4 1.28.97 1.52l-6.5 9.39s3.12 7.54 7.09 7.48c3.96-.05 7.27-7.68 7.27-7.68l-6.67-9.21z"/></mask><path fill-rule="evenodd" clip-rule="evenodd" d="M113.3 135.54c.54-.25.92-.83.92-1.5 0-.9-.7-1.63-1.54-1.63a1.6 1.6 0 00-1.55 1.63c0 .69.4 1.28.97 1.52l-6.5 9.39s3.12 7.54 7.09 7.48c3.96-.05 7.27-7.68 7.27-7.68l-6.67-9.21z" fill="#fff"/><path d="M113.3 135.54l-.84-1.82-2.21 1.02 1.42 1.97 1.62-1.17zm-1.2.02l1.64 1.13 1.4-2-2.26-.97-.78 1.84zm-6.5 9.39l-1.64-1.14-.62.9.41 1 1.85-.76zm7.09 7.48l.03 2-.03-2zm7.27-7.68l1.84.8.45-1.05-.67-.93-1.62 1.18zm-7.74-10.7c0-.1.06-.24.23-.33l1.68 3.64a3.64 3.64 0 002.1-3.32h-4zm.46.36a.5.5 0 01-.36-.15.32.32 0 01-.1-.22h4c0-1.9-1.48-3.63-3.54-3.63v4zm.45-.37c0 .07-.03.15-.1.22a.5.5 0 01-.35.15v-4a3.59 3.59 0 00-3.55 3.63h4zm-.25-.32c.2.08.25.23.25.32h-4c0 1.47.86 2.79 2.18 3.36l1.57-3.68zm-5.63 12.36l6.5-9.39-3.3-2.27-6.5 9.39 3.3 2.27zm5.4 4.35c-.33 0-.82-.15-1.47-.69-.65-.53-1.29-1.3-1.87-2.15a21.18 21.18 0 01-1.74-3.14l-.1-.21-.02-.05v-.01l-1.85.77-1.85.76v.01l.02.03a5.84 5.84 0 00.15.34l.44.93c.38.76.94 1.78 1.64 2.81.7 1.02 1.58 2.13 2.64 3a6.33 6.33 0 004.08 1.6l-.06-4zm7.31-5.68l-1.83-.8v.01l-.03.05-.1.21a22.87 22.87 0 01-1.84 3.21c-.6.88-1.27 1.68-1.94 2.24-.7.58-1.21.76-1.56.76l.06 4a6.57 6.57 0 004.06-1.68c1.06-.89 1.96-2 2.68-3.04a26.97 26.97 0 002.29-4.06l.03-.07.01-.03-1.83-.8zm-8.29-8.04l6.67 9.21 3.24-2.35-6.67-9.2-3.24 2.34z" fill="#000" mask="url(#u)"/><path d="M122.5 156.52h1v-2.55a3 3 0 00-3-3h-15.56a3 3 0 00-3 3v2.55h20.55z" fill="#fff" stroke="#000" stroke-width="2"/><path d="M112.71 142.19l3.56-2.67 1.33 1.78-4.89 3.55v-2.66z" fill="#000"/></g><defs><clipPath id="clip0"><path fill="#fff" transform="translate(.71 .08)" d="M0 0h320v288H0z"/></clipPath></defs></svg>