<svg width="321" height="289" fill="none" xmlns="http://www.w3.org/2000/svg"><g clip-path="url(#clip0)"><path fill="#FEE6C1" d="M32.71.92h256v256h-256z"/><path d="M32.71 224.92h32v32h-32v-32zM32.71 96.92h32v32h-32v-32zM32.71 160.92h32v32h-32v-32zM32.71 32.92h32v32h-32v-32z" fill="#866C4A"/><path d="M64.71 192.92h32v32h-32v-32zM64.71 64.92h32v32h-32v-32zM64.71 128.92h32v32h-32v-32zM64.71.92h32v32h-32v-32zM160.71 224.92h32v32h-32v-32zM160.71 96.92h32v32h-32v-32zM160.71 160.92h32v32h-32v-32zM160.71 32.92h32v32h-32v-32zM192.71 192.92h32v32h-32v-32zM192.71 64.92h32v32h-32v-32zM192.71 128.92h32v32h-32v-32zM192.71.92h32v32h-32v-32z" fill="#866C4A"/><path d="M96.71 224.92h32v32h-32v-32zM96.71 96.92h32v32h-32v-32zM96.71 160.92h32v32h-32v-32zM96.71 32.92h32v32h-32v-32zM128.71 192.92h32v32h-32v-32zM128.71 64.92h32v32h-32v-32zM128.71 128.92h32v32h-32v-32zM128.71.92h32v32h-32v-32zM224.71 224.92h32v32h-32v-32zM224.71 96.92h32v32h-32v-32zM224.71 160.92h32v32h-32v-32zM224.71 32.92h32v32h-32v-32z" fill="#866C4A"/><path d="M256.71 192.92h32v32h-32v-32zM256.71 64.92h32v32h-32v-32zM256.71 128.92h32v32h-32v-32zM256.71.92h32v32h-32v-32z" fill="#866C4A"/><path d="M14.14 238.29v-2.55h4.43v11.68h-2.85v-9.13h-1.58zM12.77 213.23l.5-.4a59.07 59.07 0 002.46-2.13c.6-.55 1.12-1.13 1.53-1.74.42-.6.63-1.2.63-1.78 0-.43-.1-.78-.3-1.02-.21-.25-.51-.37-.92-.37-.4 0-.72.16-.96.47-.22.3-.34.72-.34 1.28h-2.64c.03-.91.22-1.67.58-2.28.37-.6.86-1.05 1.46-1.34.6-.29 1.28-.43 2.01-.43 1.27 0 2.23.32 2.87.97.65.65.97 1.5.97 2.55 0 1.14-.39 2.2-1.17 3.18-.77.97-1.77 1.92-2.97 2.85h4.32v2.22h-8.03v-2.03zM12.69 175.04a3.52 3.52 0 011.12-2.64c.7-.62 1.65-.93 2.86-.93.8 0 1.48.14 2.05.42a2.95 2.95 0 011.74 2.75c0 .7-.17 1.28-.53 1.73a2.7 2.7 0 01-1.23.9v.06c.6.2 1.09.54 1.44 1 .35.47.53 1.08.53 1.81a3.07 3.07 0 01-1.8 2.94c-.57.3-1.26.44-2.06.44a4.7 4.7 0 01-3.07-.95c-.76-.62-1.16-1.57-1.2-2.84h2.66c0 .47.14.84.4 1.12.25.26.63.4 1.12.4.41 0 .73-.12.96-.35.23-.25.35-.57.35-.97 0-.5-.17-.88-.5-1.1-.32-.23-.83-.35-1.55-.35h-.51v-2.22h.51c.55 0 .98-.1 1.31-.28.34-.19.52-.52.52-1 0-.39-.11-.69-.32-.9-.22-.21-.51-.32-.88-.32-.41 0-.71.12-.92.37-.19.24-.3.55-.33.9h-2.67zM12.08 149.34v-2.2l5.06-7.24h3.05v7.07h1.32v2.37h-1.32v2.08h-2.73v-2.08h-5.38zm5.57-6.43l-2.69 4.06h2.7v-4.06zM20.45 109.13h-4.99v2.2c.22-.23.51-.42.9-.57.38-.15.8-.23 1.25-.23.8 0 1.46.19 1.98.55.53.36.92.83 1.17 1.4.24.58.37 1.2.37 1.88 0 1.25-.36 2.24-1.06 2.97-.7.73-1.7 1.1-2.98 1.1a5.3 5.3 0 01-2.22-.44c-.63-.3-1.11-.7-1.46-1.23a3.54 3.54 0 01-.56-1.8h2.68c.06.32.21.6.46.82.25.22.58.32 1 .32.5 0 .88-.16 1.13-.48.24-.32.37-.74.37-1.28 0-.52-.13-.92-.39-1.2-.25-.27-.63-.41-1.12-.41-.36 0-.66.09-.9.27-.23.17-.38.4-.46.69h-2.64v-6.96h7.47v2.4zM18.12 77.9a1.6 1.6 0 00-.45-.89c-.22-.2-.52-.3-.91-.3-.61 0-1.05.27-1.32.8-.26.52-.4 1.36-.41 2.5a2.4 2.4 0 011-.88c.45-.22.94-.32 1.48-.32a3.3 3.3 0 012.5.99c.65.66.97 1.58.97 2.77 0 .78-.16 1.46-.48 2.05a3.3 3.3 0 01-1.38 1.37c-.6.33-1.3.5-2.12.5-1.65 0-2.79-.52-3.43-1.54-.64-1.03-.96-2.52-.96-4.45 0-2.02.34-3.53 1-4.5.7-1 1.78-1.5 3.27-1.5.8 0 1.48.16 2.02.48.55.31.97.72 1.25 1.23.29.52.46 1.08.5 1.69h-2.53zm-1.27 3.07c-.46 0-.84.14-1.15.41-.3.27-.45.65-.45 1.16 0 .5.14.9.42 1.2.29.28.69.43 1.21.43.47 0 .84-.14 1.1-.42.28-.29.42-.68.42-1.17 0-.5-.13-.9-.4-1.18-.26-.29-.65-.43-1.15-.43zM20.6 44.8l-4 9.62h-2.8l4.06-9.33h-4.98v-2.33h7.73v2.03zM14.17 17.15c-1-.53-1.5-1.37-1.5-2.51a2.86 2.86 0 011.8-2.7c.6-.3 1.35-.44 2.24-.44.88 0 1.63.15 2.22.44a2.86 2.86 0 011.8 2.7 2.7 2.7 0 01-.4 1.5c-.27.43-.63.77-1.1 1.01.58.28 1.03.66 1.34 1.15.3.48.46 1.05.46 1.7a3.37 3.37 0 01-2.14 3.21c-.66.3-1.38.44-2.18.44-.8 0-1.53-.15-2.2-.43A3.37 3.37 0 0112.39 20a3.04 3.04 0 011.78-2.85zm3.92-2.1c0-.43-.13-.77-.39-1a1.34 1.34 0 00-1-.37c-.4 0-.74.12-1 .37-.24.24-.37.58-.37 1.02 0 .42.13.75.39 1 .25.23.58.34.99.34.4 0 .74-.12 1-.36.25-.25.38-.58.38-1zm-1.38 3.29c-.5 0-.9.13-1.22.41-.3.27-.46.64-.46 1.12 0 .45.15.82.45 1.1.3.3.72.44 1.23.44s.91-.15 1.2-.43c.3-.3.45-.66.45-1.1 0-.48-.16-.85-.47-1.13-.3-.28-.69-.41-1.18-.41zM273.8 269.9c1.03 0 1.85.34 2.47 1.02.62.68.92 1.6.92 2.79v5.21h-2.72v-4.85c0-.6-.15-1.06-.46-1.39-.3-.33-.72-.5-1.25-.5-.52 0-.94.17-1.25.5-.3.33-.46.8-.46 1.4v4.84h-2.74v-11.84h2.74v4.12c.28-.4.66-.71 1.14-.95a3.63 3.63 0 011.61-.35zM239.67 269.87c.63 0 1.18.13 1.65.38.47.26.84.6 1.1 1V270h2.74v8.9a4.9 4.9 0 01-.5 2.23c-.32.67-.82 1.2-1.49 1.6-.66.4-1.49.6-2.48.6-1.32 0-2.4-.32-3.22-.95a3.51 3.51 0 01-1.4-2.53h2.7c.09.34.29.6.6.8.33.2.72.3 1.2.3.56 0 1-.16 1.34-.5.34-.31.5-.83.5-1.54v-1.27a3.1 3.1 0 01-2.74 1.41 3.7 3.7 0 01-3.43-2.18 5.51 5.51 0 01-.5-2.43c0-.91.16-1.72.5-2.41.35-.7.83-1.23 1.43-1.6a3.7 3.7 0 012-.56zm2.75 4.59c0-.68-.2-1.22-.58-1.62-.37-.4-.83-.59-1.37-.59-.55 0-1.01.2-1.4.6a2.2 2.2 0 00-.56 1.6c0 .68.2 1.22.56 1.63.39.39.85.59 1.4.59.54 0 1-.2 1.37-.6.39-.39.58-.93.58-1.61zM211.3 272.27h-1.47v6.65h-2.74v-6.65h-.99V270h1v-.26c0-1.1.3-1.93.94-2.5.63-.57 1.55-.86 2.77-.86l.44.01v2.32c-.52-.03-.89.05-1.1.23-.21.18-.32.5-.32.98v.07h1.47v2.28zM181.2 274.31c0 .26-.02.53-.06.8h-6.19c.04.56.22.99.53 1.28.32.3.7.44 1.17.44.68 0 1.16-.3 1.42-.87h2.91a3.93 3.93 0 01-.81 1.59c-.39.47-.87.83-1.46 1.1a4.7 4.7 0 01-1.97.4 4.8 4.8 0 01-2.33-.56 3.99 3.99 0 01-1.6-1.6c-.39-.7-.58-1.5-.58-2.43 0-.93.19-1.74.56-2.43.39-.7.92-1.23 1.6-1.6a4.83 4.83 0 012.35-.56c.87 0 1.63.18 2.3.54.68.36 1.2.88 1.58 1.55.38.68.57 1.46.57 2.36zm-2.8-.71c0-.47-.17-.85-.49-1.13a1.77 1.77 0 00-1.2-.41c-.46 0-.85.13-1.17.4-.3.27-.5.64-.57 1.14h3.42zM139.73 274.44c0-.91.17-1.72.51-2.41.35-.7.83-1.23 1.43-1.6a3.7 3.7 0 013.6-.2c.49.25.87.58 1.15 1v-4.15h2.74v11.84h-2.74v-1.28c-.26.43-.63.77-1.1 1.03-.47.25-1.02.38-1.65.38a3.7 3.7 0 01-3.43-2.18 5.51 5.51 0 01-.5-2.43zm6.69.02c0-.68-.2-1.22-.58-1.62-.37-.4-.83-.59-1.37-.59-.55 0-1.01.2-1.4.6a2.2 2.2 0 00-.56 1.6c0 .68.2 1.22.56 1.63.39.39.85.59 1.4.59.54 0 1-.2 1.37-.6.39-.39.58-.93.58-1.61zM108.32 274.46c0-.93.18-1.74.56-2.43.38-.7.9-1.23 1.58-1.6a4.8 4.8 0 012.34-.56c1.12 0 2.05.29 2.8.88a4.14 4.14 0 011.48 2.48h-2.9c-.25-.69-.73-1.03-1.43-1.03-.5 0-.9.2-1.2.6-.3.38-.45.93-.45 1.66 0 .72.15 1.28.45 1.68.3.38.7.57 1.2.57.7 0 1.18-.34 1.42-1.02h2.91a4.2 4.2 0 01-1.48 2.46c-.76.6-1.7.9-2.8.9a4.8 4.8 0 01-2.34-.56c-.67-.37-1.2-.9-1.58-1.6-.38-.7-.56-1.5-.56-2.43zM79.01 271.26c.26-.42.63-.75 1.1-1a3.45 3.45 0 011.65-.4 3.7 3.7 0 013.41 2.17c.35.69.53 1.5.53 2.41 0 .92-.18 1.73-.53 2.44a3.7 3.7 0 01-3.4 2.18c-.64 0-1.19-.13-1.65-.38-.47-.25-.84-.59-1.1-1v1.24h-2.74v-11.84H79v4.18zm3.9 3.18c0-.68-.19-1.21-.57-1.6-.37-.4-.84-.59-1.4-.59-.54 0-1 .2-1.38.6-.38.39-.56.93-.56 1.6 0 .7.18 1.23.56 1.63.38.39.84.59 1.39.59.54 0 1-.2 1.39-.6.38-.4.58-.94.58-1.63zM43.73 274.44c0-.91.17-1.72.51-2.41.36-.7.83-1.23 1.43-1.6a3.7 3.7 0 012-.56c.63 0 1.18.13 1.65.38.48.26.84.6 1.1 1V270h2.74v8.92h-2.74v-1.26c-.27.41-.64.75-1.12 1a3.67 3.67 0 01-5.06-1.8 5.51 5.51 0 01-.5-2.42zm6.69.02c0-.68-.2-1.22-.58-1.62-.37-.4-.83-.59-1.37-.59-.55 0-1.01.2-1.4.6a2.2 2.2 0 00-.55 1.6c0 .68.18 1.22.56 1.63.38.39.84.59 1.39.59.54 0 1-.2 1.37-.6.39-.39.58-.93.58-1.61z" fill="#000"/><mask id="a" maskUnits="userSpaceOnUse" x="227.55" y="225.48" width="26" height="26" fill="#000"><path fill="#fff" d="M227.55 225.48h26v26h-26z"/><path fill-rule="evenodd" clip-rule="evenodd" d="M247.82 248.81l2.93-7.98a2 2 0 00-1.02-2.5c-3.56-1.68-5.7-2.62-8.09-2.81v-3.6h2.78v-1.77h-2.78v-2.67h-1.86v2.67H237v1.77h2.78v3.6c-2.38.2-4.53 1.13-8.09 2.81a2 2 0 00-1.02 2.5l2.93 7.98h14.22zm-8.89-10.72c-1.12.2-2.38.56-4.04 1.1a2 2 0 00-1.15 2.79l1.64 3.28h3.55v-7.17zm7.6 1.1c-1.65-.54-2.92-.9-4.04-1.1v7.17h3.55l1.65-3.28c.54-1.09 0-2.4-1.16-2.79z"/></mask><path fill-rule="evenodd" clip-rule="evenodd" d="M247.82 248.81l2.93-7.98a2 2 0 00-1.02-2.5c-3.56-1.68-5.7-2.62-8.09-2.81v-3.6h2.78v-1.77h-2.78v-2.67h-1.86v2.67H237v1.77h2.78v3.6c-2.38.2-4.53 1.13-8.09 2.81a2 2 0 00-1.02 2.5l2.93 7.98h14.22zm-8.89-10.72c-1.12.2-2.38.56-4.04 1.1a2 2 0 00-1.15 2.79l1.64 3.28h3.55v-7.17zm7.6 1.1c-1.65-.54-2.92-.9-4.04-1.1v7.17h3.55l1.65-3.28c.54-1.09 0-2.4-1.16-2.79z" fill="#fff"/><path d="M239.87 236.51c.56-.04 1.12-.04 1.69 0l.16-1.99c-.67-.06-1.34-.06-2.02 0l.17 2zm10.88 4.32l1.88.69-1.88-.7zm-2.93 7.98v2h1.4l.48-1.31-1.88-.69zm1.91-10.48l.86-1.8-.86 1.8zm-8.09-2.81h-2v1.84l1.84.15.16-2zm0-3.6v-2h-2v2h2zm2.78 0v2h2v-2h-2zm0-1.77h2v-2h-2v2zm-2.78 0h-2v2h2v-2zm0-2.67h2v-2h-2v2zm-1.86 0v-2h-2v2h2zm0 2.67v2h2v-2h-2zm-2.78 0v-2h-2v2h2zm0 1.77h-2v2h2v-2zm2.78 0h2v-2h-2v2zm0 3.6l.17 1.99 1.83-.15v-1.84h-2zm-8.09 2.81l.86 1.81-.86-1.8zm-1.02 2.5l1.88-.7-1.88.7zm2.93 7.98l-1.88.69.48 1.31h1.4v-2zm1.3-9.62l-.63-1.9.62 1.9zm4.03-1.1h2v-2.37l-2.33.4.33 1.97zm-5.2 3.89l1.8-.9-1.8.9zm1.65 3.28l-1.79.9.55 1.1h1.24v-2zm3.55 0v2h2v-2h-2zm3.56-7.17l.34-1.97-2.34-.4v2.37h2zm4.04 1.1l-.62 1.9.62-1.9zm-4.04 6.07h-2v2h2v-2zm3.55 0v2h1.24l.55-1.1-1.79-.9zm1.65-3.28l1.78.89-1.78-.9zm1.18-1.84l-2.92 7.98 3.75 1.38 2.93-7.98-3.76-1.38zm0 0l3.76 1.38a4 4 0 00-2.04-5l-1.72 3.62zm-7.4-2.63c1.97.16 3.8.92 7.4 2.63l1.72-3.62c-3.5-1.65-5.98-2.77-8.79-3l-.32 3.99zm-1.83-5.59v3.6h4v-3.6h-4zm4.78-2h-2.78v4h2.78v-4zm-2 .23v1.77h4v-1.77h-4zm-.78 2h2.78v-4h-2.78v4zm-2-4.67v2.67h4v-2.67h-4zm.14 2h1.86v-4h-1.86v4zm2 .67v-2.67h-4v2.67h4zm-4.78 2h2.78v-4H237v4zm2-.23v-1.77h-4v1.77h4zm.78-2H237v4h2.78v-4zm2 5.6v-3.6h-4v3.6h4zm-9.23 4.62c3.61-1.7 5.44-2.47 7.4-2.63l-.33-3.99c-2.8.23-5.28 1.35-8.78 3l1.7 3.62zm0 0l-1.71-3.62a4 4 0 00-2.04 5l3.75-1.38zm2.93 7.98l-2.93-7.98-3.75 1.38 2.92 7.98 3.76-1.38zm12.34-1.3H233.6v4h14.22v-4zm-12.3-5.72a27.6 27.6 0 013.75-1.04l-.67-3.94c-1.28.22-2.66.63-4.33 1.17l1.24 3.8zm0-.02v.01l-1.25-3.8a3.99 3.99 0 00-2.32 5.58l3.58-1.79zm1.65 3.28l-1.64-3.28-3.58 1.79 1.64 3.28 3.58-1.79zm1.76-1.1h-3.55v4h3.55v-4zm-2-5.17v7.17h4v-7.17h-4zm5.22 1.97c.97.17 2.12.5 3.76 1.03l1.24-3.8a31.28 31.28 0 00-4.32-1.17l-.68 3.94zm2.34 5.2v-7.17h-4v7.17h4zm1.55-2h-3.55v4h3.55v-4zm-.14-2.18l-1.64 3.28 3.57 1.8 1.64-3.29-3.57-1.79zm.01.01h-.01v-.01l3.57 1.79a3.99 3.99 0 00-2.32-5.58l-1.24 3.8z" fill="#000" mask="url(#a)"/><path d="M250.5 253.37h1v-2.56a3 3 0 00-3-3h-15.56a3 3 0 00-3 3v2.56h20.55z" fill="#fff" stroke="#000" stroke-width="2"/><mask id="b" maskUnits="userSpaceOnUse" x="227.55" y="1.48" width="26" height="26" fill="#000"><path fill="#fff" d="M227.55 1.48h26v26h-26z"/><path fill-rule="evenodd" clip-rule="evenodd" d="M247.82 24.81l2.93-7.98a2 2 0 00-1.02-2.5c-3.56-1.68-5.7-2.62-8.09-2.81v-3.6h2.78V6.15h-2.78V3.48h-1.86v2.67H237v1.77h2.78v3.6c-2.38.2-4.53 1.13-8.09 2.81a2 2 0 00-1.02 2.5l2.93 7.98h14.22zm-8.89-10.72c-1.12.2-2.38.56-4.04 1.1a1.99 1.99 0 00-1.15 2.79l1.64 3.28h3.55v-7.17zm7.6 1.1c-1.65-.54-2.92-.9-4.04-1.1v7.17h3.55l1.65-3.28c.54-1.09 0-2.4-1.16-2.79z"/></mask><path fill-rule="evenodd" clip-rule="evenodd" d="M247.82 24.81l2.93-7.98a2 2 0 00-1.02-2.5c-3.56-1.68-5.7-2.62-8.09-2.81v-3.6h2.78V6.15h-2.78V3.48h-1.86v2.67H237v1.77h2.78v3.6c-2.38.2-4.53 1.13-8.09 2.81a2 2 0 00-1.02 2.5l2.93 7.98h14.22zm-8.89-10.72c-1.12.2-2.38.56-4.04 1.1a1.99 1.99 0 00-1.15 2.79l1.64 3.28h3.55v-7.17zm7.6 1.1c-1.65-.54-2.92-.9-4.04-1.1v7.17h3.55l1.65-3.28c.54-1.09 0-2.4-1.16-2.79z" fill="#5C5C5C"/><path d="M239.87 12.51c.56-.04 1.12-.04 1.69 0l.16-1.99c-.67-.06-1.34-.06-2.02 0l.17 2zm10.88 4.32l1.88.69-1.88-.7zm-2.93 7.98v2h1.4l.48-1.31-1.88-.69zm1.91-10.48l.86-1.8-.86 1.8zm-8.09-2.81h-2v1.84l1.84.15.16-2zm0-3.6v-2h-2v2h2zm2.78 0v2h2v-2h-2zm0-1.77h2v-2h-2v2zm-2.78 0h-2v2h2v-2zm0-2.67h2v-2h-2v2zm-1.86 0v-2h-2v2h2zm0 2.67v2h2v-2h-2zm-2.78 0v-2h-2v2h2zm0 1.77h-2v2h2v-2zm2.78 0h2v-2h-2v2zm0 3.6l.17 1.99 1.83-.15v-1.84h-2zm-8.09 2.81l.86 1.81-.86-1.8zm-1.02 2.5l1.88-.7-1.88.7zm2.93 7.98l-1.88.69.48 1.31h1.4v-2zm1.3-9.62l-.63-1.9.62 1.9zm4.03-1.1h2v-2.37l-2.33.4.33 1.97zm-5.2 3.89l1.8-.9-1.8.9zm1.65 3.28l-1.79.9.55 1.1h1.24v-2zm3.55 0v2h2v-2h-2zm3.56-7.17l.34-1.97-2.34-.4v2.37h2zm4.04 1.1l.62-1.9-.62 1.9zm-4.04 6.07h-2v2h2v-2zm3.55 0v2h1.24l.55-1.1-1.79-.9zm1.65-3.28l1.78.89-1.78-.9zm1.18-1.84l-2.92 7.98 3.75 1.38 2.93-7.98-3.76-1.38zm0 0l3.76 1.38a4 4 0 00-2.04-5l-1.72 3.62zm-7.4-2.63c1.97.16 3.8.92 7.4 2.63l1.72-3.62c-3.5-1.65-5.98-2.77-8.79-3l-.32 3.99zm-1.83-5.59v3.6h4v-3.6h-4zm4.78-2h-2.78v4h2.78v-4zm-2 .23v1.77h4V6.15h-4zm-.78 2h2.78v-4h-2.78v4zm-2-4.67v2.67h4V3.48h-4zm.14 2h1.86v-4h-1.86v4zm2 .67V3.48h-4v2.67h4zm-4.78 2h2.78v-4H237v4zm2-.23V6.15h-4v1.77h4zm.78-2H237v4h2.78v-4zm2 5.6v-3.6h-4v3.6h4zm-9.23 4.62c3.61-1.7 5.44-2.47 7.4-2.63l-.33-3.99c-2.8.23-5.28 1.35-8.78 3l1.7 3.62zm0 0l-1.71-3.62a4 4 0 00-2.04 5l3.75-1.38zm2.93 7.98l-2.93-7.98-3.75 1.38 2.92 7.98 3.76-1.38zm12.34-1.3H233.6v4h14.22v-4zm-12.3-5.73a27.7 27.7 0 013.75-1.03l-.67-3.94c-1.28.22-2.66.63-4.33 1.17l1.24 3.8zm0 0v-.01.01l-1.25-3.8a3.99 3.99 0 00-2.32 5.58l3.58-1.79zm1.65 3.27l-1.64-3.28-3.58 1.79 1.64 3.28 3.58-1.79zm1.76-1.1h-3.55v4h3.55v-4zm-2-5.17v7.17h4v-7.17h-4zm5.22 1.97c.97.17 2.12.5 3.76 1.03l1.24-3.8a31.3 31.3 0 00-4.32-1.17l-.68 3.94zm2.34 5.2v-7.17h-4v7.17h4zm1.55-2h-3.55v4h3.55v-4zm-.14-2.18l-1.64 3.28 3.57 1.8 1.64-3.29-3.57-1.79zm.01.01h-.01v-.01l3.57 1.79a3.99 3.99 0 00-2.32-5.58l-1.24 3.8z" fill="#000" mask="url(#b)"/><path d="M250.5 29.37h1V26.8a3 3 0 00-3-3h-15.56a3 3 0 00-3 3v2.56h20.55z" fill="#5C5C5C" stroke="#000" stroke-width="2"/><path fill="#E94E58" fill-opacity=".75" d="M160.71 128.92h32v32h-32zM224.71 128.92h32v32h-32z"/><path d="M116.5 88.92h.53l.3-.45-.84-.55.84.55h0l.01-.01.03-.05a9.28 9.28 0 00.43-.7c.29-.48.68-1.16 1.1-1.98a28.52 28.52 0 002.4-6.06c.53-2.2.7-4.64-.4-6.57-1.16-2.02-3.5-3.15-7.14-3.16h-.03a.4.4 0 01-.13-.05s0 0 0 0c-.03-.02-.2-.12-.2-.63v-1h-1c-.51 0-.95.28-1.18.45-.29.2-.56.46-.79.7a11.91 11.91 0 00-.72.8l-2.59 1.9-.16.12-.1.17-2.72 4.4-.24.4.14.44 1 3.04.42 1.28 1.1-.77 2.31-1.63 1.7-1.13c.87.31 1.25.67 1.4.87l.07.1-.05.1a16.5 16.5 0 01-3.55 4.57 3.17 3.17 0 00-.66 3.96l.24.4.3.5h8.17z" fill="#fff" stroke="#000" stroke-width="2"/><path d="M122.5 93.37h1V90.8a3 3 0 00-3-3h-15.56a3 3 0 00-3 3v2.56h20.55z" fill="#fff" stroke="#000" stroke-width="2"/><path d="M108.27 73.7l.89-.44v.33a1 1 0 01-1 1h-.34l.45-.89z" fill="#000"/><path d="M180.5 152.92h.53l.3-.45-.84-.55.84.55h0l.01-.01.03-.05.1-.15a35.48 35.48 0 001.43-2.53 28.52 28.52 0 002.4-6.06c.53-2.2.7-4.63-.4-6.57-1.16-2.02-3.5-3.15-7.14-3.16h-.03a.37.37 0 01-.13-.05s0 0 0 0c-.03-.02-.2-.12-.2-.63v-1h-1c-.51 0-.95.28-1.18.45-.29.2-.56.46-.79.7a11.96 11.96 0 00-.72.8l-2.59 1.9-.16.12-.1.17-2.72 4.4-.24.4.14.44 1 3.04.42 1.28 1.1-.77 2.31-1.63 1.7-1.13c.87.31 1.25.67 1.4.87l.07.1-.05.1a16.5 16.5 0 01-3.55 4.57 3.17 3.17 0 00-.66 3.96l.24.4.3.5h8.17z" fill="#5C5C5C" stroke="#000" stroke-width="2"/><path d="M186.5 157.37h1v-2.56a3 3 0 00-3-3h-15.56a3 3 0 00-3 3v2.56h20.55z" fill="#5C5C5C" stroke="#000" stroke-width="2"/><path d="M172.27 137.7l.89-.44v.33a1 1 0 01-1 1h-.34l.45-.89z" fill="#000"/><path d="M244.5 152.92h.53l.3-.45-.84-.55.84.55h0l.01-.01.03-.05.1-.15a35.48 35.48 0 001.43-2.53 28.52 28.52 0 002.4-6.06c.53-2.2.7-4.63-.4-6.57-1.16-2.02-3.5-3.15-7.14-3.16h-.03a.37.37 0 01-.13-.05s0 0 0 0c-.03-.02-.2-.12-.2-.63v-1h-1c-.51 0-.95.28-1.18.45-.29.2-.56.46-.79.7a11.96 11.96 0 00-.72.8l-2.59 1.9-.16.12-.1.17-2.72 4.4-.24.4.14.44 1 3.04.42 1.28 1.1-.77 2.31-1.63 1.7-1.13c.87.31 1.25.67 1.4.87l.07.1-.05.1a16.5 16.5 0 01-3.55 4.57 3.17 3.17 0 00-.66 3.96l.24.4.3.5h8.17z" fill="#5C5C5C" stroke="#000" stroke-width="2"/><path d="M250.5 157.37h1v-2.56a3 3 0 00-3-3h-15.56a3 3 0 00-3 3v2.56h20.55z" fill="#5C5C5C" stroke="#000" stroke-width="2"/><path d="M236.27 137.7l.89-.44v.33a1 1 0 01-1 1h-.34l.45-.89z" fill="#000"/><mask id="c" maskUnits="userSpaceOnUse" x="266.38" y="202.37" width="12" height="18" fill="#000"><path fill="#fff" d="M266.38 202.37h12v18h-12z"/><path fill-rule="evenodd" clip-rule="evenodd" d="M273.88 211.28a3.56 3.56 0 10-2.32 0c.02 2.85-1.48 6.42-4.18 6.42h10.67c-2.7 0-4.19-3.58-4.17-6.42z"/></mask><path fill-rule="evenodd" clip-rule="evenodd" d="M273.88 211.28a3.56 3.56 0 10-2.32 0c.02 2.85-1.48 6.42-4.18 6.42h10.67c-2.7 0-4.19-3.58-4.17-6.42z" fill="#fff"/><path d="M273.88 211.28l-.66-1.89-1.33.47-.01 1.41 2 .01zm-2.32 0l2-.01-.01-1.42-1.34-.45-.65 1.89zm2.7-3.36c0 .68-.43 1.26-1.04 1.47l1.32 3.78a5.56 5.56 0 003.73-5.25h-4zm-1.55-1.55c.86 0 1.56.7 1.56 1.55h4a5.56 5.56 0 00-5.56-5.55v4zm-1.55 1.55c0-.86.7-1.55 1.55-1.55v-4a5.56 5.56 0 00-5.55 5.55h4zm1.05 1.48a1.56 1.56 0 01-1.05-1.48h-4c0 2.44 1.57 4.51 3.75 5.26l1.3-3.78zm-4.83 10.3c2.36 0 3.95-1.58 4.85-3.15.9-1.59 1.34-3.55 1.33-5.28l-4 .04a6.83 6.83 0 01-.8 3.26c-.53.92-1.04 1.13-1.38 1.13v4zm10.67-4h-10.67v4h10.67v-4zm-6.17-4.43c0 1.72.43 3.68 1.33 5.27.88 1.57 2.47 3.16 4.84 3.16v-4c-.34 0-.84-.2-1.36-1.13a6.95 6.95 0 01-.81-3.28l-4-.02z" fill="#000" mask="url(#c)"/><path d="M279.82 221.37h1v-1.67a3 3 0 00-3-3H267.6a3 3 0 00-3 3v1.67h15.22z" fill="#fff" stroke="#000" stroke-width="2"/><mask id="d" maskUnits="userSpaceOnUse" x="266.38" y="74.37" width="12" height="18" fill="#000"><path fill="#fff" d="M266.38 74.37h12v18h-12z"/><path fill-rule="evenodd" clip-rule="evenodd" d="M273.88 83.28a3.56 3.56 0 10-2.32 0c.02 2.85-1.48 6.42-4.18 6.42h10.67c-2.7 0-4.19-3.58-4.17-6.42z"/></mask><path fill-rule="evenodd" clip-rule="evenodd" d="M273.88 83.28a3.56 3.56 0 10-2.32 0c.02 2.85-1.48 6.42-4.18 6.42h10.67c-2.7 0-4.19-3.58-4.17-6.42z" fill="#5C5C5C"/><path d="M273.88 83.28l-.66-1.89-1.33.47-.01 1.41 2 .01zm-2.32 0l2-.01-.01-1.42-1.34-.45-.65 1.89zm2.7-3.36c0 .68-.43 1.26-1.04 1.47l1.32 3.78a5.56 5.56 0 003.73-5.25h-4zm-1.55-1.55c.86 0 1.56.7 1.56 1.55h4a5.56 5.56 0 00-5.56-5.55v4zm-1.55 1.55c0-.86.7-1.55 1.55-1.55v-4a5.56 5.56 0 00-5.55 5.55h4zm1.05 1.48a1.56 1.56 0 01-1.05-1.48h-4c0 2.44 1.57 4.51 3.75 5.26l1.3-3.78zm-4.83 10.3c2.36 0 3.95-1.58 4.85-3.15.9-1.59 1.34-3.55 1.33-5.28l-4 .04a6.83 6.83 0 01-.8 3.26c-.53.92-1.04 1.13-1.38 1.13v4zm10.67-4h-10.67v4h10.67v-4zm-6.17-4.43c0 1.73.43 3.68 1.33 5.27.88 1.57 2.47 3.16 4.84 3.16v-4c-.34 0-.84-.2-1.36-1.13a6.95 6.95 0 01-.81-3.28l-4-.02z" fill="#000" mask="url(#d)"/><path d="M279.82 93.37h1V91.7a3 3 0 00-3-3H267.6a3 3 0 00-3 3v1.67h15.22z" fill="#5C5C5C" stroke="#000" stroke-width="2"/><mask id="e" maskUnits="userSpaceOnUse" x="234.38" y="202.37" width="12" height="18" fill="#000"><path fill="#fff" d="M234.38 202.37h12v18h-12z"/><path fill-rule="evenodd" clip-rule="evenodd" d="M241.88 211.28a3.56 3.56 0 10-2.32 0c.03 2.85-1.48 6.42-4.18 6.42h10.67c-2.7 0-4.19-3.58-4.17-6.42z"/></mask><path fill-rule="evenodd" clip-rule="evenodd" d="M241.88 211.28a3.56 3.56 0 10-2.32 0c.03 2.85-1.48 6.42-4.18 6.42h10.67c-2.7 0-4.19-3.58-4.17-6.42z" fill="#fff"/><path d="M241.88 211.28l-.66-1.89-1.33.47-.01 1.41 2 .01zm-2.32 0l2-.01-.02-1.42-1.33-.45-.65 1.89zm2.7-3.36c0 .68-.43 1.26-1.04 1.47l1.32 3.78a5.56 5.56 0 003.73-5.25h-4zm-1.55-1.55c.86 0 1.56.7 1.56 1.55h4a5.56 5.56 0 00-5.56-5.55v4zm-1.55 1.55c0-.86.7-1.55 1.55-1.55v-4a5.56 5.56 0 00-5.55 5.55h4zm1.05 1.48a1.56 1.56 0 01-1.05-1.48h-4c0 2.44 1.57 4.51 3.75 5.26l1.3-3.78zm-4.83 10.3c2.36 0 3.95-1.58 4.85-3.15.9-1.59 1.34-3.55 1.33-5.28l-4 .04a6.83 6.83 0 01-.8 3.26c-.53.92-1.04 1.13-1.38 1.13v4zm10.67-4h-10.67v4h10.67v-4zm-6.17-4.43c0 1.72.43 3.68 1.33 5.27.88 1.57 2.47 3.16 4.84 3.16v-4c-.34 0-.84-.2-1.36-1.13a6.95 6.95 0 01-.81-3.28l-4-.02z" fill="#000" mask="url(#e)"/><path d="M247.82 221.37h1v-1.67a3 3 0 00-3-3H235.6a3 3 0 00-3 3v1.67h15.22z" fill="#fff" stroke="#000" stroke-width="2"/><mask id="f" maskUnits="userSpaceOnUse" x="234.38" y="42.37" width="12" height="18" fill="#000"><path fill="#fff" d="M234.38 42.37h12v18h-12z"/><path fill-rule="evenodd" clip-rule="evenodd" d="M241.88 51.28a3.56 3.56 0 10-2.32 0c.03 2.85-1.48 6.42-4.18 6.42h10.67c-2.7 0-4.19-3.58-4.17-6.42z"/></mask><path fill-rule="evenodd" clip-rule="evenodd" d="M241.88 51.28a3.56 3.56 0 10-2.32 0c.03 2.85-1.48 6.42-4.18 6.42h10.67c-2.7 0-4.19-3.58-4.17-6.42z" fill="#5C5C5C"/><path d="M241.88 51.28l-.66-1.89-1.33.47-.01 1.41 2 .01zm-2.32 0l2-.01-.02-1.42-1.33-.45-.65 1.89zm2.7-3.36c0 .68-.43 1.26-1.04 1.47l1.32 3.78a5.56 5.56 0 003.73-5.25h-4zm-1.55-1.55c.86 0 1.56.7 1.56 1.55h4a5.56 5.56 0 00-5.56-5.55v4zm-1.55 1.55c0-.86.7-1.55 1.55-1.55v-4a5.56 5.56 0 00-5.55 5.55h4zm1.05 1.48a1.56 1.56 0 01-1.05-1.48h-4c0 2.44 1.57 4.51 3.75 5.26l1.3-3.78zm-4.83 10.3c2.36 0 3.95-1.58 4.85-3.15.9-1.59 1.34-3.55 1.33-5.28l-4 .04a6.83 6.83 0 01-.8 3.26c-.53.92-1.04 1.13-1.38 1.13v4zm10.67-4h-10.67v4h10.67v-4zm-6.17-4.43c0 1.72.43 3.68 1.33 5.27.88 1.57 2.47 3.16 4.84 3.16v-4c-.34 0-.84-.2-1.36-1.13a6.95 6.95 0 01-.81-3.28l-4-.02z" fill="#000" mask="url(#f)"/><path d="M247.82 61.37h1V59.7a3 3 0 00-3-3H235.6a3 3 0 00-3 3v1.67h15.22z" fill="#5C5C5C" stroke="#000" stroke-width="2"/><mask id="g" maskUnits="userSpaceOnUse" x="106.38" y="202.37" width="12" height="18" fill="#000"><path fill="#fff" d="M106.38 202.37h12v18h-12z"/><path fill-rule="evenodd" clip-rule="evenodd" d="M113.88 211.28a3.56 3.56 0 10-2.32 0c.02 2.85-1.48 6.42-4.18 6.42h10.67c-2.7 0-4.19-3.58-4.17-6.42z"/></mask><path fill-rule="evenodd" clip-rule="evenodd" d="M113.88 211.28a3.56 3.56 0 10-2.32 0c.02 2.85-1.48 6.42-4.18 6.42h10.67c-2.7 0-4.19-3.58-4.17-6.42z" fill="#fff"/><path d="M113.88 211.28l-.66-1.89-1.33.47-.01 1.41 2 .01zm-2.32 0l2-.01-.02-1.42-1.33-.45-.65 1.89zm2.7-3.36c0 .68-.43 1.26-1.04 1.47l1.32 3.78a5.56 5.56 0 003.73-5.25h-4zm-1.55-1.55c.86 0 1.56.7 1.56 1.55h4a5.56 5.56 0 00-5.56-5.55v4zm-1.55 1.55c0-.86.7-1.55 1.55-1.55v-4a5.56 5.56 0 00-5.55 5.55h4zm1.05 1.48a1.56 1.56 0 01-1.05-1.48h-4c0 2.44 1.57 4.51 3.75 5.26l1.3-3.78zm-4.83 10.3c2.36 0 3.95-1.58 4.85-3.15.9-1.59 1.34-3.55 1.33-5.28l-4 .04a6.83 6.83 0 01-.8 3.26c-.53.92-1.04 1.13-1.38 1.13v4zm10.67-4h-10.67v4h10.67v-4zm-6.17-4.43c0 1.72.43 3.68 1.33 5.27.88 1.57 2.47 3.16 4.84 3.16v-4c-.33 0-.84-.2-1.36-1.13a6.95 6.95 0 01-.81-3.28l-4-.02z" fill="#000" mask="url(#g)"/><path d="M119.82 221.37h1v-1.67a3 3 0 00-3-3H107.6a3 3 0 00-3 3v1.67h15.22z" fill="#fff" stroke="#000" stroke-width="2"/><mask id="h" maskUnits="userSpaceOnUse" x="74.38" y="170.37" width="12" height="18" fill="#000"><path fill="#fff" d="M74.38 170.37h12v18h-12z"/><path fill-rule="evenodd" clip-rule="evenodd" d="M81.88 179.28a3.56 3.56 0 10-2.32 0c.02 2.85-1.48 6.42-4.18 6.42h10.67c-2.7 0-4.18-3.58-4.17-6.42z"/></mask><path fill-rule="evenodd" clip-rule="evenodd" d="M81.88 179.28a3.56 3.56 0 10-2.32 0c.02 2.85-1.48 6.42-4.18 6.42h10.67c-2.7 0-4.18-3.58-4.17-6.42z" fill="#fff"/><path d="M81.88 179.28l-.66-1.89-1.33.47-.01 1.41 2 .01zm-2.32 0l2-.01-.01-1.42-1.34-.45-.65 1.89zm2.7-3.36c0 .68-.43 1.26-1.04 1.47l1.32 3.78a5.56 5.56 0 003.73-5.25h-4zm-1.55-1.55c.86 0 1.56.7 1.56 1.55h4a5.56 5.56 0 00-5.56-5.55v4zm-1.55 1.55c0-.86.7-1.55 1.55-1.55v-4a5.56 5.56 0 00-5.55 5.55h4zm1.05 1.48a1.56 1.56 0 01-1.05-1.48h-4c0 2.44 1.57 4.51 3.75 5.26l1.3-3.78zm-4.83 10.3c2.36 0 3.95-1.58 4.85-3.15.9-1.59 1.34-3.55 1.33-5.28l-4 .04a6.83 6.83 0 01-.8 3.26c-.53.92-1.04 1.13-1.38 1.13v4zm10.67-4H75.38v4h10.67v-4zm-6.17-4.43c0 1.72.43 3.68 1.33 5.27.88 1.57 2.47 3.16 4.84 3.16v-4c-.33 0-.84-.2-1.36-1.13a6.96 6.96 0 01-.81-3.28l-4-.02z" fill="#000" mask="url(#h)"/><path d="M87.82 189.37h1v-1.67a3 3 0 00-3-3H75.6a3 3 0 00-3 3v1.67h15.22z" fill="#fff" stroke="#000" stroke-width="2"/><mask id="i" maskUnits="userSpaceOnUse" x="202.38" y="42.37" width="12" height="18" fill="#000"><path fill="#fff" d="M202.38 42.37h12v18h-12z"/><path fill-rule="evenodd" clip-rule="evenodd" d="M209.88 51.28a3.56 3.56 0 10-2.32 0c.03 2.85-1.48 6.42-4.18 6.42h10.67c-2.7 0-4.19-3.58-4.17-6.42z"/></mask><path fill-rule="evenodd" clip-rule="evenodd" d="M209.88 51.28a3.56 3.56 0 10-2.32 0c.03 2.85-1.48 6.42-4.18 6.42h10.67c-2.7 0-4.19-3.58-4.17-6.42z" fill="#5C5C5C"/><path d="M209.88 51.28l-.66-1.89-1.33.47-.01 1.41 2 .01zm-2.32 0l2-.01-.02-1.42-1.33-.45-.65 1.89zm2.7-3.36c0 .68-.43 1.26-1.04 1.47l1.32 3.78a5.56 5.56 0 003.73-5.25h-4zm-1.55-1.55c.86 0 1.56.7 1.56 1.55h4a5.56 5.56 0 00-5.56-5.55v4zm-1.55 1.55c0-.86.7-1.55 1.55-1.55v-4a5.56 5.56 0 00-5.55 5.55h4zm1.05 1.48a1.56 1.56 0 01-1.05-1.48h-4c0 2.44 1.57 4.51 3.75 5.26l1.3-3.78zm-4.83 10.3c2.36 0 3.95-1.58 4.85-3.15.9-1.59 1.34-3.55 1.33-5.28l-4 .04a6.83 6.83 0 01-.8 3.26c-.53.92-1.04 1.13-1.38 1.13v4zm10.67-4h-10.67v4h10.67v-4zm-6.17-4.43c0 1.72.43 3.68 1.33 5.27.88 1.57 2.47 3.16 4.84 3.16v-4c-.34 0-.84-.2-1.36-1.13a6.95 6.95 0 01-.81-3.28l-4-.02z" fill="#000" mask="url(#i)"/><path d="M215.82 61.37h1V59.7a3 3 0 00-3-3H203.6a3 3 0 00-3 3v1.67h15.22z" fill="#5C5C5C" stroke="#000" stroke-width="2"/><path d="M204.71 237.15h-.88l-.11.87-1.33 10.67-.14 1.12h12.98l-.2-1.16-1.78-10.67-.13-.83h-8.41z" fill="#fff" stroke="#000" stroke-width="2"/><path d="M201.6 230.03h-1V239.15h16.22V230.03h-3.12l-.24.66-1.18 3.23h-1.03l-.86-3.15-.2-.74h-2.95l-.2.74-.87 3.15h-1.02l-1.19-3.23-.24-.66h-2.12zM218.5 253.37h1v-2.56a3 3 0 00-3-3h-15.56a3 3 0 00-3 3v2.56h20.55z" fill="#fff" stroke="#000" stroke-width="2"/><path d="M172.71 13.15h-.88l-.11.87-1.33 10.67-.14 1.12h12.98l-.2-1.16-1.78-10.67-.13-.83h-8.41z" fill="#5C5C5C" stroke="#000" stroke-width="2"/><path d="M169.6 6.03h-1V15.15h16.22V6.03h-3.12l-.24.66-1.18 3.23h-1.03l-.86-3.15-.2-.74h-2.95l-.2.74-.87 3.15h-1.02l-1.19-3.23-.24-.66h-2.12zM186.5 29.37h1V26.8a3 3 0 00-3-3h-15.56a3 3 0 00-3 3v2.56h20.55z" fill="#5C5C5C" stroke="#000" stroke-width="2"/><path d="M44.71 141.15h-.88l-.11.87-1.33 10.67-.14 1.12h12.98l-.2-1.16-1.78-10.67-.14-.83h-8.4z" fill="#fff" stroke="#000" stroke-width="2"/><path d="M41.6 134.03h-1V143.15h16.22V134.03H53.7l-.24.66-1.18 3.23h-1.03l-.86-3.15-.2-.74h-2.95l-.2.74-.87 3.15h-1.02l-1.19-3.23-.24-.66H41.6zM58.5 157.37h1v-2.56a3 3 0 00-3-3H40.93a3 3 0 00-3 3v2.56h20.55z" fill="#fff" stroke="#000" stroke-width="2"/><path d="M226.71 158.92l-16.73 4.49 12.25 12.24 4.48-16.73zm-16.94 19.06l8.46-8.45-2.12-2.12-8.46 8.45 2.12 2.12z" fill="#FFC107"/><path d="M189.71 158.92l4.49 16.73 12.24-12.24-16.73-4.49zm20.06 17.94l-9.45-9.45-2.12 2.12 9.45 9.45 2.12-2.12z" fill="#FFC107"/><mask id="j" maskUnits="userSpaceOnUse" x="202.38" y="170.37" width="12" height="18" fill="#000"><path fill="#fff" d="M202.38 170.37h12v18h-12z"/><path fill-rule="evenodd" clip-rule="evenodd" d="M209.88 179.28a3.56 3.56 0 10-2.32 0c.03 2.85-1.48 6.42-4.18 6.42h10.67c-2.7 0-4.19-3.58-4.17-6.42z"/></mask><path fill-rule="evenodd" clip-rule="evenodd" d="M209.88 179.28a3.56 3.56 0 10-2.32 0c.03 2.85-1.48 6.42-4.18 6.42h10.67c-2.7 0-4.19-3.58-4.17-6.42z" fill="#fff"/><path d="M209.88 179.28l-.66-1.89-1.33.47-.01 1.41 2 .01zm-2.32 0l2-.01-.02-1.42-1.33-.45-.65 1.89zm2.7-3.36c0 .68-.43 1.26-1.04 1.47l1.32 3.78a5.56 5.56 0 003.73-5.25h-4zm-1.55-1.55c.86 0 1.56.7 1.56 1.55h4a5.56 5.56 0 00-5.56-5.55v4zm-1.55 1.55c0-.86.7-1.55 1.55-1.55v-4a5.56 5.56 0 00-5.55 5.55h4zm1.05 1.48a1.56 1.56 0 01-1.05-1.48h-4c0 2.44 1.57 4.51 3.75 5.26l1.3-3.78zm-4.83 10.3c2.36 0 3.95-1.58 4.85-3.15.9-1.59 1.34-3.55 1.33-5.28l-4 .04a6.83 6.83 0 01-.8 3.26c-.53.92-1.04 1.13-1.38 1.13v4zm10.67-4h-10.67v4h10.67v-4zm-6.17-4.43c0 1.72.43 3.68 1.33 5.27.88 1.57 2.47 3.16 4.84 3.16v-4c-.34 0-.84-.2-1.36-1.13a6.95 6.95 0 01-.81-3.28l-4-.02z" fill="#000" mask="url(#j)"/><path d="M215.82 189.37h1v-1.67a3 3 0 00-3-3H203.6a3 3 0 00-3 3v1.67h15.22z" fill="#fff" stroke="#000" stroke-width="2"/></g><defs><clipPath id="clip0"><path fill="#fff" transform="translate(.71 .92)" d="M0 0h320v288H0z"/></clipPath></defs></svg>