<svg width="321" height="289" fill="none" xmlns="http://www.w3.org/2000/svg"><g clip-path="url(#clip0)"><path fill="#FEE6C1" d="M32.59.84h256v256h-256z"/><path d="M32.6 224.84h32v32h-32v-32zM32.6 96.84h32v32h-32v-32zM32.6 160.84h32v32h-32v-32zM32.6 32.84h32v32h-32v-32zM64.6 192.84h32v32h-32v-32zM64.6 64.84h32v32h-32v-32zM64.6 128.84h32v32h-32v-32zM64.6.84h32v32h-32v-32zM160.6 224.84h32v32h-32v-32zM160.6 96.84h32v32h-32v-32zM160.6 160.84h32v32h-32v-32zM160.6 32.84h32v32h-32v-32zM192.6 192.84h32v32h-32v-32zM192.6 64.84h32v32h-32v-32zM192.6 128.84h32v32h-32v-32zM192.6.84h32v32h-32v-32zM96.6 224.84h32v32h-32v-32zM96.6 96.84h32v32h-32v-32zM96.6 160.84h32v32h-32v-32zM96.6 32.84h32v32h-32v-32zM128.6 192.84h32v32h-32v-32zM128.6 64.84h32v32h-32v-32zM128.6 128.84h32v32h-32v-32zM128.6.84h32v32h-32v-32zM224.6 224.84h32v32h-32v-32zM224.6 96.84h32v32h-32v-32zM224.6 160.84h32v32h-32v-32zM224.6 32.84h32v32h-32v-32zM256.6 192.84h32v32h-32v-32zM256.6 64.84h32v32h-32v-32zM256.6 128.84h32v32h-32v-32zM256.6.84h32v32h-32v-32z" fill="#866C4A"/><path d="M14.02 238.2v-2.54h4.43v11.68H15.6v-9.13h-1.58zM12.65 213.15l.5-.4a59.77 59.77 0 002.46-2.13c.6-.55 1.12-1.13 1.53-1.74.42-.6.63-1.2.63-1.78 0-.44-.1-.78-.3-1.02-.21-.25-.52-.37-.92-.37s-.73.16-.96.47c-.22.3-.34.72-.34 1.28h-2.64c.02-.91.22-1.67.58-2.28.37-.6.86-1.05 1.46-1.34.6-.29 1.28-.43 2.01-.43 1.27 0 2.23.32 2.87.97.65.65.97 1.5.97 2.55 0 1.14-.39 2.2-1.17 3.18a17.4 17.4 0 01-2.97 2.85h4.32v2.22h-8.03v-2.03zM12.56 174.96a3.51 3.51 0 011.12-2.64c.7-.62 1.66-.93 2.87-.93.8 0 1.48.14 2.05.42a2.95 2.95 0 011.74 2.75c0 .7-.18 1.28-.53 1.73a2.7 2.7 0 01-1.23.9v.06c.6.2 1.09.53 1.44 1 .35.47.53 1.08.53 1.81 0 .66-.16 1.25-.47 1.76-.3.5-.74.9-1.32 1.19-.58.28-1.27.43-2.07.43a4.7 4.7 0 01-3.07-.94c-.76-.63-1.16-1.58-1.2-2.85h2.66c0 .47.14.84.4 1.12.25.26.63.4 1.12.4.41 0 .73-.12.96-.35.23-.25.35-.57.35-.97 0-.5-.17-.88-.5-1.1-.32-.23-.84-.35-1.55-.35h-.51v-2.22h.51c.54 0 .98-.1 1.31-.28.34-.19.51-.53.51-1 0-.39-.1-.69-.32-.9-.2-.22-.5-.32-.88-.32-.4 0-.7.12-.9.37-.2.24-.31.55-.34.9h-2.68zM11.96 149.26v-2.2l5.06-7.24h3.05v7.08h1.32v2.36h-1.32v2.08h-2.73v-2.08h-5.38zm5.57-6.43l-2.69 4.06h2.69v-4.06zM20.33 109.05h-4.99v2.2c.21-.23.51-.42.9-.57.38-.15.8-.23 1.24-.23.8 0 1.47.19 1.99.55.53.36.92.83 1.17 1.4.24.58.36 1.2.36 1.88 0 1.25-.35 2.24-1.05 2.97-.7.73-1.7 1.1-2.98 1.1a5.3 5.3 0 01-2.22-.44 3.47 3.47 0 01-1.46-1.23 3.55 3.55 0 01-.56-1.8h2.67c.07.32.22.6.47.82.24.22.58.32 1 .32.5 0 .88-.16 1.13-.48.24-.32.36-.74.36-1.28 0-.52-.12-.92-.38-1.2-.26-.28-.63-.41-1.12-.41-.36 0-.66.09-.9.27-.23.17-.38.4-.46.69h-2.64v-6.96h7.47v2.4zM18 77.81a1.6 1.6 0 00-.45-.88c-.22-.2-.52-.3-.92-.3-.6 0-1.04.27-1.3.8-.27.52-.41 1.36-.42 2.5a2.4 2.4 0 011-.88c.45-.22.94-.32 1.48-.32a3.3 3.3 0 012.5.99c.65.66.97 1.58.97 2.77 0 .78-.16 1.46-.48 2.04A3.3 3.3 0 0119 85.91c-.6.33-1.3.5-2.13.5-1.64 0-2.78-.52-3.42-1.54-.64-1.03-.96-2.52-.96-4.45 0-2.02.34-3.53 1-4.5.7-1 1.78-1.5 3.27-1.5.8 0 1.47.16 2.02.48.55.31.97.72 1.25 1.23.28.52.45 1.08.5 1.68H18zm-1.27 3.08c-.46 0-.84.14-1.15.41-.3.27-.45.65-.45 1.15 0 .52.14.92.42 1.2.28.3.69.44 1.21.44.47 0 .84-.14 1.1-.42.28-.29.42-.68.42-1.17 0-.5-.13-.9-.4-1.18-.26-.29-.65-.43-1.15-.43zM20.49 44.71l-4.02 9.63h-2.8l4.06-9.33h-4.97v-2.33h7.73v2.03zM14.04 17.07c-1-.53-1.5-1.37-1.5-2.51a2.86 2.86 0 011.8-2.7c.62-.3 1.36-.44 2.25-.44.88 0 1.63.15 2.22.43.61.28 1.06.66 1.36 1.14.3.47.45 1 .45 1.57a2.7 2.7 0 01-.42 1.5c-.26.43-.63.77-1.08 1.01a3.06 3.06 0 011.8 2.85 3.37 3.37 0 01-2.16 3.21c-.65.3-1.37.44-2.17.44-.8 0-1.53-.15-2.2-.44a3.37 3.37 0 01-2.13-3.22 3.04 3.04 0 011.78-2.85zm3.92-2.1c0-.43-.12-.77-.38-1a1.34 1.34 0 00-1-.37c-.4 0-.74.12-1 .37-.24.24-.37.58-.37 1.02 0 .42.13.75.39 1 .25.23.58.34.99.34.4 0 .73-.12.99-.36.26-.25.38-.58.38-1zm-1.37 3.28c-.5 0-.9.14-1.22.42-.3.27-.46.64-.46 1.12 0 .45.15.82.45 1.1.3.3.72.44 1.23.44s.91-.15 1.2-.44c.3-.28.45-.65.45-1.1 0-.47-.16-.84-.47-1.12-.3-.28-.7-.42-1.18-.42zM273.68 269.82c1.02 0 1.85.34 2.46 1.02.62.68.93 1.6.93 2.79v5.21h-2.72V274c0-.6-.15-1.07-.46-1.4-.31-.33-.73-.5-1.25-.5s-.94.17-1.25.5c-.3.33-.46.8-.46 1.4v4.84h-2.74V267h2.74v4.12c.28-.4.65-.72 1.13-.95a3.63 3.63 0 011.62-.35zM239.55 269.79c.63 0 1.17.13 1.64.38.48.26.85.6 1.1 1v-1.25h2.74v8.9a4.9 4.9 0 01-.5 2.23c-.31.67-.8 1.2-1.48 1.6-.66.4-1.49.6-2.48.6-1.32 0-2.4-.32-3.22-.95a3.5 3.5 0 01-1.4-2.53h2.7c.09.34.29.6.6.8.33.2.72.3 1.2.3.56 0 1-.16 1.34-.5.34-.31.5-.83.5-1.54v-1.27a3.1 3.1 0 01-2.74 1.41 3.7 3.7 0 01-3.43-2.18 5.51 5.51 0 01-.51-2.43c0-.92.17-1.72.51-2.41.35-.7.83-1.23 1.43-1.6.6-.38 1.26-.56 2-.56zm2.75 4.59c0-.68-.2-1.22-.58-1.62-.37-.4-.83-.59-1.37-.59-.55 0-1.01.2-1.4.6a2.2 2.2 0 00-.56 1.6c0 .68.2 1.22.56 1.63.39.39.85.59 1.4.59.54 0 1-.2 1.37-.6.39-.39.58-.93.58-1.61zM211.18 272.19h-1.47v6.65h-2.74v-6.65h-.99v-2.27h1v-.26c0-1.1.3-1.93.94-2.5.63-.57 1.55-.86 2.77-.86l.44.01v2.32c-.52-.03-.89.05-1.1.23-.21.18-.32.5-.32.97v.09h1.47v2.27zM181.07 274.24a7 7 0 01-.05.8h-6.19c.04.55.22.98.53 1.27.32.3.7.44 1.17.44.68 0 1.15-.3 1.42-.87h2.91a3.94 3.94 0 01-.81 1.59c-.39.47-.87.83-1.46 1.1-.59.27-1.24.4-1.97.4a4.8 4.8 0 01-2.33-.56 3.99 3.99 0 01-1.6-1.6c-.39-.7-.58-1.5-.58-2.43 0-.93.19-1.74.56-2.43.38-.7.92-1.23 1.6-1.6a4.82 4.82 0 012.35-.56c.87 0 1.63.18 2.3.54.68.36 1.2.88 1.57 1.55.39.68.58 1.46.58 2.36zm-2.8-.73c0-.46-.16-.84-.48-1.12a1.76 1.76 0 00-1.2-.41c-.46 0-.85.13-1.17.4-.3.26-.5.64-.57 1.13h3.42zM139.61 274.36c0-.92.17-1.72.51-2.41.35-.7.83-1.23 1.43-1.6.6-.38 1.26-.56 2-.56.58 0 1.12.12 1.6.36.49.25.87.58 1.15 1V267h2.73v11.84h-2.73v-1.28c-.26.43-.63.77-1.1 1.03-.47.25-1.02.38-1.65.38a3.7 3.7 0 01-3.43-2.18 5.51 5.51 0 01-.51-2.43zm6.69.02c0-.68-.2-1.22-.58-1.62-.37-.4-.83-.59-1.37-.59-.55 0-1.01.2-1.4.6a2.2 2.2 0 00-.56 1.6c0 .68.2 1.22.56 1.63.39.39.85.59 1.4.59.54 0 1-.2 1.37-.6.39-.39.58-.93.58-1.61zM108.2 274.38c0-.93.18-1.74.56-2.43a4 4 0 011.58-1.6 4.78 4.78 0 012.34-.56c1.12 0 2.05.29 2.8.88a4.14 4.14 0 011.48 2.48h-2.9c-.25-.69-.73-1.03-1.43-1.03-.5 0-.9.2-1.2.6-.3.38-.45.93-.45 1.66 0 .72.15 1.28.45 1.68.3.38.7.57 1.2.57.7 0 1.18-.34 1.42-1.02h2.91a4.2 4.2 0 01-1.48 2.46c-.76.6-1.7.9-2.8.9a4.8 4.8 0 01-2.34-.56c-.67-.37-1.2-.9-1.58-1.6-.38-.7-.56-1.5-.56-2.43zM78.89 271.18c.26-.42.62-.75 1.1-1a3.45 3.45 0 011.65-.4 3.7 3.7 0 013.41 2.17c.35.69.53 1.5.53 2.41 0 .92-.18 1.73-.53 2.44-.34.69-.81 1.23-1.4 1.61a3.7 3.7 0 01-2 .56c-.64 0-1.19-.12-1.66-.37s-.83-.59-1.1-1v1.24h-2.74V267h2.74v4.18zm3.9 3.18c0-.68-.19-1.21-.57-1.6-.38-.4-.84-.59-1.4-.59-.54 0-1 .2-1.39.6-.37.39-.56.93-.56 1.6 0 .7.2 1.23.56 1.63.39.39.85.59 1.4.59.54 0 1-.2 1.39-.6.38-.4.57-.94.57-1.63zM43.61 274.36c0-.92.17-1.72.51-2.41.35-.7.83-1.23 1.43-1.6a3.7 3.7 0 012-.56c.63 0 1.17.13 1.64.38.48.26.85.6 1.1 1v-1.25h2.74v8.92H50.3v-1.26c-.27.42-.64.75-1.12 1a3.67 3.67 0 01-5.06-1.8 5.51 5.51 0 01-.51-2.42zm6.69.02c0-.68-.2-1.22-.58-1.62-.37-.4-.83-.59-1.37-.59-.55 0-1.01.2-1.4.6a2.2 2.2 0 00-.56 1.6c0 .68.2 1.22.56 1.63.39.39.85.59 1.4.59.54 0 1-.2 1.37-.6.39-.39.58-.93.58-1.61z" fill="#000"/><path fill="#E94E58" fill-opacity=".75" d="M96.6 32.84h32v32h-32z"/><mask id="a" maskUnits="userSpaceOnUse" x="99.43" y="1.4" width="26" height="26" fill="#000"><path fill="#fff" d="M99.43 1.4h26v26h-26z"/><path fill-rule="evenodd" clip-rule="evenodd" d="M119.7 24.73l2.93-7.98a2 2 0 00-1.02-2.5c-3.56-1.68-5.71-2.62-8.1-2.81v-3.6h2.8V6.07h-2.8V3.4h-1.85v2.67h-2.78v1.77h2.78v3.6c-2.38.2-4.53 1.13-8.09 2.81a2 2 0 00-1.02 2.5l2.93 7.98h14.22zm-8.89-10.72c-1.12.2-2.38.56-4.04 1.1a1.99 1.99 0 00-1.15 2.79l1.64 3.28h3.55V14zm7.6 1.1c-1.65-.54-2.92-.9-4.04-1.1v7.17h3.55l1.64-3.28c.55-1.09 0-2.4-1.15-2.79z"/></mask><path fill-rule="evenodd" clip-rule="evenodd" d="M119.7 24.73l2.93-7.98a2 2 0 00-1.02-2.5c-3.56-1.68-5.71-2.62-8.1-2.81v-3.6h2.8V6.07h-2.8V3.4h-1.85v2.67h-2.78v1.77h2.78v3.6c-2.38.2-4.53 1.13-8.09 2.81a2 2 0 00-1.02 2.5l2.93 7.98h14.22zm-8.89-10.72c-1.12.2-2.38.56-4.04 1.1a1.99 1.99 0 00-1.15 2.79l1.64 3.28h3.55V14zm7.6 1.1c-1.65-.54-2.92-.9-4.04-1.1v7.17h3.55l1.64-3.28c.55-1.09 0-2.4-1.15-2.79z" fill="#5C5C5C"/><path d="M111.74 12.43c.57-.04 1.13-.04 1.7 0l.16-1.99c-.67-.06-1.34-.06-2.02 0l.16 2zm10.89 4.32l1.88.69-1.88-.7zm-2.93 7.98v2h1.4l.48-1.31-1.88-.69zm1.91-10.48l.86-1.8-.86 1.8zm-8.1-2.81h-2v1.84l1.85.15.16-2zm0-3.6v-2h-2v2h2zm2.8 0v2h2v-2h-2zm0-1.77h2v-2h-2v2zm-2.8 0h-2v2h2v-2zm0-2.67h2v-2h-2v2zm-1.85 0v-2h-2v2h2zm0 2.67v2h2v-2h-2zm-2.78 0v-2h-2v2h2zm0 1.77h-2v2h2v-2zm2.78 0h2v-2h-2v2zm0 3.6l.17 1.99 1.83-.15v-1.84h-2zm-8.09 2.81l.86 1.81-.86-1.8zm-1.02 2.5l1.88-.7-1.88.7zm2.93 7.98l-1.88.69.48 1.31h1.4v-2zm1.3-9.62l-.63-1.9.62 1.9zm4.03-1.1h2v-2.37l-2.34.4.34 1.97zm-5.2 3.89l1.8-.9-1.8.9zm1.65 3.28l-1.8.9.56 1.1h1.24v-2zm3.55 0v2h2v-2h-2zm3.56-7.17l.34-1.97-2.34-.4v2.37h2zm4.04 1.1l.62-1.9-.62 1.9zm-4.04 6.07h-2v2h2v-2zm3.55 0v2h1.24l.55-1.1-1.79-.9zm1.64-3.28l1.8.89-1.8-.9zm1.2-1.84l-2.94 7.98 3.76 1.38 2.93-7.98-3.76-1.38zm0 0l3.75 1.38a4 4 0 00-2.05-5l-1.7 3.62zm-7.4-2.63c1.95.16 3.78.92 7.4 2.63l1.7-3.62c-3.5-1.65-5.97-2.77-8.78-3l-.32 3.99zm-1.84-5.59v3.6h4v-3.6h-4zm4.78-2h-2.78v4h2.78v-4zm-2 .23v1.77h4V6.07h-4zm-.78 2h2.78v-4h-2.78v4zm-2-4.67v2.67h4V3.4h-4zm.14 2h1.86v-4h-1.86v4zm2 .67V3.4h-4v2.67h4zm-4.78 2h2.78v-4h-2.78v4zm2-.23V6.07h-4v1.77h4zm.78-2h-2.78v4h2.78v-4zm2 5.6v-3.6h-4v3.6h4zm-9.23 4.62c3.61-1.7 5.44-2.47 7.4-2.63l-.33-3.99c-2.8.23-5.28 1.35-8.78 3l1.7 3.62zm0 0l-1.71-3.62a4 4 0 00-2.05 5l3.76-1.38zm2.93 7.98l-2.93-7.98-3.76 1.38 2.93 7.98 3.76-1.38zm12.34-1.3h-14.22v4h14.22v-4zM107.4 17c1.64-.53 2.78-.86 3.75-1.03l-.68-3.94a31.3 31.3 0 00-4.32 1.17l1.24 3.8zm0 0V17v.01s-.01 0 0 0l-1.25-3.8a3.99 3.99 0 00-2.32 5.58L107.4 17zm1.65 3.27L107.4 17l-3.58 1.79 1.64 3.28 3.58-1.79zm1.76-1.1h-3.55v4h3.55v-4zm-2-5.17v7.17h4V14h-4zm5.22 1.97c.97.17 2.12.5 3.76 1.03l1.24-3.8a31.3 31.3 0 00-4.32-1.17l-.68 3.94zm2.34 5.2V14h-4v7.17h4zm1.55-2h-3.55v4h3.55v-4zm-.14-2.18l-1.64 3.28 3.57 1.8 1.64-3.29-3.57-1.79zm.01.01h-.01V17l3.57 1.79a3.99 3.99 0 00-2.32-5.58l-1.24 3.8z" fill="#000" mask="url(#a)"/><path d="M122.37 29.29h1v-2.56a3 3 0 00-3-3h-15.56a3 3 0 00-3 3v2.56h20.56z" fill="#5C5C5C" stroke="#000" stroke-width="2"/><path fill="#E94E58" fill-opacity=".75" d="M192.6 32.84h32v32h-32z"/><path fill-rule="evenodd" clip-rule="evenodd" d="M115.45 39.25a3 3 0 01-1.1 2.33l1.8 7.15 3.88-3.65a3.04 3.04 0 01-.33-1.39 2.91 2.91 0 012.86-2.96 2.91 2.91 0 012.86 2.96 2.91 2.91 0 01-3.05 2.96l-2.67 10.08h-14.22l-2.67-10.08a2.92 2.92 0 01-2.66-2.96 2.91 2.91 0 012.85-2.96 2.91 2.91 0 012.86 2.96c0 .6-.17 1.15-.46 1.62l3.63 3.42 1.8-7.15a3 3 0 01-1.1-2.33 2.91 2.91 0 012.86-2.96 2.91 2.91 0 012.86 2.96z" fill="#5C5C5C"/><path d="M114.36 41.58l-.64-.78-.49.4.16.62.97-.24zm1.79 7.15l-.97.24.41 1.66 1.24-1.17-.68-.73zm3.88-3.65l.69.72.54-.51-.34-.67-.89.46zm2.34 1.57l.07-1-.83-.05-.2.8.96.25zm-2.67 10.08v1h.77l.2-.74-.97-.26zm-14.22 0l-.97.26.2.74h.77v-1zm-2.67-10.08l.97-.25-.19-.7-.71-.05-.07 1zm2.59-1.34l-.85-.53-.44.7.6.56.69-.73zm3.63 3.42l-.68.73 1.24 1.17.42-1.66-.98-.24zm1.8-7.15l.96.24.16-.61-.5-.4-.63.77zm4.16.77a4 4 0 001.46-3.1h-2a2 2 0 01-.73 1.55l1.27 1.55zm2.13 6.14l-1.8-7.15-1.93.48 1.79 7.15 1.94-.48zm2.22-4.14L115.47 48l1.37 1.46 3.89-3.66-1.38-1.45zm-.64-.66c0 .66.16 1.29.44 1.84l1.78-.9a2.03 2.03 0 01-.22-.94h-2zm3.86-3.96a3.91 3.91 0 00-3.86 3.96h2c0-1.11.87-1.96 1.86-1.96v-2zm3.86 3.96c0-2.15-1.7-3.96-3.86-3.96v2c1 0 1.86.85 1.86 1.96h2zm-3.86 3.97c2.16 0 3.86-1.81 3.86-3.97h-2c0 1.12-.87 1.97-1.86 1.97v2zm-.26-.01h.26v-2h-.12l-.14 2zm-1.63 9.34l2.67-10.08-1.94-.51-2.67 10.08 1.94.5zm-15.19.74h14.22v-2h-14.22v2zm-3.64-10.82l2.67 10.08 1.94-.51-2.67-10.08-1.94.5zm1.04-1.26a1.92 1.92 0 01-1.73-1.96h-2a3.92 3.92 0 003.6 3.96l.13-2zm-1.73-1.96c0-1.11.86-1.96 1.85-1.96v-2a3.91 3.91 0 00-3.85 3.96h2zm1.85-1.96c1 0 1.86.85 1.86 1.96h2c0-2.15-1.7-3.96-3.86-3.96v2zm1.86 1.96c0 .4-.11.78-.3 1.09l1.69 1.06c.39-.62.61-1.36.61-2.15h-2zm4.86 4.31l-3.64-3.42-1.37 1.46 3.64 3.42 1.37-1.46zm.13-6.66l-1.78 7.15 1.94.48 1.78-7.15-1.94-.48zm-1.12-2.09a4 4 0 001.46 3.1l1.27-1.55a2 2 0 01-.73-1.55h-2zm3.86-3.96a3.91 3.91 0 00-3.86 3.96h2c0-1.12.87-1.96 1.86-1.96v-2zm3.86 3.96c0-2.15-1.7-3.96-3.86-3.96v2c1 0 1.86.84 1.86 1.96h2z" fill="#000"/><path d="M122.37 61.29h1v-2.56a3 3 0 00-3-3h-15.56a3 3 0 00-3 3v2.56h20.56z" fill="#5C5C5C" stroke="#000" stroke-width="2"/><path fill-rule="evenodd" clip-rule="evenodd" d="M211.45 7.25a3 3 0 01-1.1 2.33l1.8 7.15 3.88-3.65a3.04 3.04 0 01-.33-1.39 2.91 2.91 0 012.86-2.96 2.91 2.91 0 012.86 2.96 2.91 2.91 0 01-3.05 2.96l-2.67 10.08h-14.22l-2.67-10.08a2.92 2.92 0 01-2.66-2.96A2.91 2.91 0 01199 8.73a2.91 2.91 0 012.86 2.96c0 .6-.17 1.15-.46 1.62l3.63 3.42 1.8-7.15a3 3 0 01-1.1-2.33 2.91 2.91 0 012.86-2.96 2.91 2.91 0 012.86 2.96z" fill="#5C5C5C"/><path d="M210.36 9.58l-.64-.78-.49.4.16.62.97-.24zm1.79 7.15l-.97.24.41 1.66 1.24-1.17-.68-.73zm3.88-3.65l.69.72.54-.51-.34-.67-.89.46zm2.34 1.57l.07-1-.82-.05-.22.8.97.25zm-2.67 10.08v1h.77l.2-.74-.97-.26zm-14.22 0l-.97.26.2.74h.77v-1zm-2.67-10.08l.97-.26-.19-.69-.71-.05-.07 1zm2.59-1.34l-.85-.53-.44.7.6.56.69-.73zm3.63 3.42l-.68.73 1.24 1.17.42-1.66-.97-.24zm1.8-7.15l.96.24.16-.61-.5-.4-.63.77zm4.16.77a4 4 0 001.46-3.1h-2a2 2 0 01-.72 1.55l1.26 1.55zm2.13 6.14l-1.8-7.15-1.93.48 1.79 7.15 1.94-.48zm2.22-4.14L211.47 16l1.37 1.46 3.89-3.66-1.38-1.45zm-.64-.66c0 .66.16 1.29.44 1.84l1.78-.9a2.03 2.03 0 01-.22-.94h-2zm3.86-3.96a3.91 3.91 0 00-3.86 3.96h2c0-1.11.87-1.96 1.86-1.96v-2zm3.86 3.96c0-2.15-1.7-3.96-3.86-3.96v2c1 0 1.86.85 1.86 1.96h2zm-3.86 3.97c2.16 0 3.86-1.81 3.86-3.97h-2c0 1.12-.87 1.97-1.86 1.97v2zm-.26-.01h.26v-2h-.12l-.14 2zm-1.63 9.34l2.67-10.08-1.94-.51-2.66 10.08 1.93.5zm-15.19.74h14.22v-2h-14.22v2zm-3.63-10.82l2.66 10.08 1.94-.51-2.67-10.09-1.94.52zm1.03-1.26a1.92 1.92 0 01-1.73-1.96h-2a3.92 3.92 0 003.6 3.96l.13-2zm-1.73-1.96c0-1.11.86-1.96 1.85-1.96v-2a3.91 3.91 0 00-3.85 3.96h2zM199 9.73c1 0 1.86.85 1.86 1.96h2c0-2.15-1.7-3.96-3.86-3.96v2zm1.86 1.96c0 .4-.11.78-.3 1.09l1.69 1.06c.39-.62.61-1.36.61-2.15h-2zm4.86 4.31l-3.63-3.42-1.38 1.46 3.64 3.42 1.37-1.46zm.13-6.66l-1.78 7.15 1.94.48 1.78-7.15-1.94-.48zm-1.12-2.09a4 4 0 001.46 3.1l1.27-1.55a2 2 0 01-.73-1.55h-2zm3.86-3.96a3.91 3.91 0 00-3.86 3.96h2c0-1.12.87-1.96 1.86-1.96v-2zm3.86 3.96c0-2.15-1.7-3.96-3.86-3.96v2c1 0 1.86.84 1.86 1.96h2z" fill="#000"/><path d="M218.37 29.29h1v-2.56a3 3 0 00-3-3h-15.56a3 3 0 00-3 3v2.56h20.56z" fill="#5C5C5C" stroke="#000" stroke-width="2"/><mask id="b" maskUnits="userSpaceOnUse" x="198.48" y="35.18" width="20" height="25" fill="#000"><path fill="#fff" d="M198.48 35.18h20v25h-20z"/><path fill-rule="evenodd" clip-rule="evenodd" d="M209.17 40.3c.55-.25.93-.82.93-1.5 0-.9-.7-1.62-1.54-1.62A1.6 1.6 0 00207 38.8c0 .68.4 1.27.97 1.51l-6.5 9.4s3.12 7.53 7.09 7.48c3.96-.06 7.27-7.69 7.27-7.69l-6.67-9.2z"/></mask><path fill-rule="evenodd" clip-rule="evenodd" d="M209.17 40.3c.55-.25.93-.82.93-1.5 0-.9-.7-1.62-1.54-1.62A1.6 1.6 0 00207 38.8c0 .68.4 1.27.97 1.51l-6.5 9.4s3.12 7.53 7.09 7.48c3.96-.06 7.27-7.69 7.27-7.69l-6.67-9.2z" fill="#5C5C5C"/><path d="M209.17 40.3l-.84-1.81-2.2 1.02 1.42 1.97 1.62-1.17zm-1.2.02l1.65 1.14 1.4-2.01-2.26-.97-.78 1.84zm-6.49 9.4l-1.64-1.15-.62.9.41 1 1.85-.76zm7.09 7.48l.02 2-.02-2zm7.27-7.69l1.84.8.45-1.05-.67-.92-1.62 1.17zm-7.74-10.7c0-.1.06-.24.23-.32l1.68 3.63a3.64 3.64 0 002.09-3.31h-4zm.46.37a.5.5 0 01-.37-.15.32.32 0 01-.09-.22h4c0-1.9-1.48-3.63-3.54-3.63v4zm.45-.37c0 .06-.03.15-.1.22a.5.5 0 01-.35.15v-4A3.59 3.59 0 00205 38.8h4zm-.25-.33c.2.09.25.24.25.33h-4c0 1.46.86 2.79 2.18 3.35l1.57-3.68zm-5.63 12.37l6.49-9.39-3.29-2.27-6.5 9.38 3.3 2.28zm5.4 4.35c-.33 0-.82-.15-1.47-.7-.65-.52-1.29-1.29-1.87-2.15a21.39 21.39 0 01-1.75-3.14l-.09-.2a2.63 2.63 0 01-.02-.05v-.01l-1.85.76-1.85.77.02.03a10.95 10.95 0 00.15.35 24.51 24.51 0 002.08 3.74 14.3 14.3 0 002.64 3 6.33 6.33 0 004.07 1.6l-.05-4zm7.31-5.69l-1.83-.8v.02l-.03.05a16.08 16.08 0 01-.5 1c-.34.67-.83 1.55-1.44 2.42-.6.88-1.27 1.68-1.94 2.24-.7.57-1.21.75-1.56.76l.05 4a6.57 6.57 0 004.07-1.69c1.06-.88 1.96-2 2.68-3.04a27.12 27.12 0 002.29-4.05l.03-.08.01-.02v-.01l-1.83-.8zm-8.29-8.03l6.67 9.2 3.24-2.34-6.67-9.2-3.24 2.34z" fill="#000" mask="url(#b)"/><path d="M218.37 61.29h1v-2.56a3 3 0 00-3-3h-15.56a3 3 0 00-3 3v2.56h20.56z" fill="#5C5C5C" stroke="#000" stroke-width="2"/><path d="M208.6 46.95l3.55-2.66 1.33 1.77-4.89 3.56v-2.67z" fill="#000"/><path d="M112.6 62.84l-8.67 15h17.32l-8.66-15zm1.5 178V76.34h-3v164.5h3zM208.6 62.84l-8.67 15h17.32l-8.66-15zm1.5 178V76.34h-3v164.5h3z" fill="#FFC107"/><path d="M108.6 237.06h-.9l-.1.88-1.33 10.67-.14 1.12H119.1l-.2-1.16-1.78-10.67-.14-.84h-8.4z" fill="#fff" stroke="#000" stroke-width="2"/><path d="M105.48 229.95h-1V239.07h16.22V229.94h-3.12l-.24.66-1.18 3.23h-1.03l-.86-3.15-.2-.74h-2.95l-.2.74-.87 3.15h-1.03l-1.18-3.23-.24-.66h-2.12zM122.37 253.29h1v-2.56a3 3 0 00-3-3h-15.56a3 3 0 00-3 3v2.56h20.56zM204.6 237.06h-.9l-.1.88-1.33 10.67-.15 1.12h12.99l-.2-1.16-1.78-10.67-.14-.84h-8.4z" fill="#fff" stroke="#000" stroke-width="2"/><path d="M201.48 229.95h-1V239.07h16.22V229.94h-3.12l-.24.66-1.18 3.23h-1.03l-.86-3.15-.2-.74h-2.95l-.2.74-.87 3.15h-1.03l-1.18-3.23-.24-.66h-2.12zM218.37 253.29h1v-2.56a3 3 0 00-3-3h-15.56a3 3 0 00-3 3v2.56h20.56z" fill="#fff" stroke="#000" stroke-width="2"/></g><defs><clipPath id="clip0"><path fill="#fff" transform="translate(.6 .84)" d="M0 0h320v288H0z"/></clipPath></defs></svg>