<svg width="321" height="289" fill="none" xmlns="http://www.w3.org/2000/svg"><g clip-path="url(#clip0)"><path fill="#FEE6C1" d="M32.63.94h256v256h-256z"/><path d="M32.63 224.94h32v32h-32v-32zM32.63 96.94h32v32h-32v-32zM32.63 160.94h32v32h-32v-32zM32.63 32.94h32v32h-32v-32zM64.63 192.94h32v32h-32v-32zM64.63 64.94h32v32h-32v-32zM64.63 128.94h32v32h-32v-32zM64.63.94h32v32h-32v-32zM160.63 224.94h32v32h-32v-32zM160.63 96.94h32v32h-32v-32zM160.63 160.94h32v32h-32v-32zM160.63 32.94h32v32h-32v-32zM192.63 192.94h32v32h-32v-32zM192.63 64.94h32v32h-32v-32zM192.63 128.94h32v32h-32v-32zM192.63.94h32v32h-32v-32zM96.63 224.94h32v32h-32v-32zM96.63 96.94h32v32h-32v-32zM96.63 160.94h32v32h-32v-32zM96.63 32.94h32v32h-32v-32zM128.63 192.94h32v32h-32v-32zM128.63 64.94h32v32h-32v-32zM128.63 128.94h32v32h-32v-32zM128.63.94h32v32h-32v-32zM224.63 224.94h32v32h-32v-32zM224.63 96.94h32v32h-32v-32zM224.63 160.94h32v32h-32v-32zM224.63 32.94h32v32h-32v-32zM256.63 192.94h32v32h-32v-32zM256.63 64.94h32v32h-32v-32zM256.63 128.94h32v32h-32v-32zM256.63.94h32v32h-32v-32z" fill="#866C4A"/><path d="M14.05 238.3v-2.54h4.44v11.68h-2.85v-9.13h-1.59zM12.68 213.25l.5-.4a58.94 58.94 0 002.46-2.13c.61-.55 1.12-1.13 1.54-1.74.42-.6.62-1.2.62-1.78 0-.43-.1-.77-.3-1.02-.2-.25-.5-.37-.91-.37-.4 0-.73.16-.96.47-.23.3-.34.72-.34 1.28h-2.64c.02-.91.22-1.67.58-2.28.37-.6.86-1.05 1.45-1.34.61-.29 1.28-.43 2.02-.43 1.27 0 2.22.32 2.86.97.66.65.98 1.5.98 2.55 0 1.14-.39 2.2-1.17 3.18-.78.97-1.77 1.92-2.97 2.85h4.32v2.22h-8.04v-2.03zM12.6 175.06a3.52 3.52 0 011.12-2.64c.7-.62 1.66-.93 2.87-.93.8 0 1.48.14 2.05.42a2.96 2.96 0 011.74 2.75c0 .7-.18 1.28-.53 1.73-.35.44-.76.73-1.23.9v.06c.6.2 1.09.54 1.44 1 .35.47.53 1.08.53 1.81 0 .66-.16 1.25-.47 1.76-.3.5-.74.9-1.32 1.19-.58.28-1.27.43-2.07.43a4.7 4.7 0 01-3.07-.94c-.76-.63-1.16-1.58-1.2-2.85h2.66c0 .47.14.84.4 1.12.25.26.62.4 1.12.4.41 0 .73-.12.96-.36.23-.24.35-.56.35-.95 0-.52-.17-.89-.5-1.1-.32-.24-.84-.36-1.55-.36h-.51v-2.22h.5c.55 0 .99-.1 1.32-.28.34-.19.51-.53.51-1 0-.39-.1-.69-.32-.9a1.2 1.2 0 00-.88-.32c-.4 0-.7.12-.9.37-.2.24-.31.55-.34.9H12.6zM12 149.36v-2.2l5.06-7.24h3.05V147h1.31v2.36h-1.3v2.08h-2.74v-2.08H12zm5.57-6.43L14.88 147h2.69v-4.06zM20.37 109.15h-4.99v2.2c.21-.23.51-.42.9-.57.38-.15.8-.22 1.24-.22a3.19 3.19 0 013.15 1.95c.25.57.37 1.2.37 1.87 0 1.25-.35 2.24-1.05 2.98-.7.72-1.7 1.08-2.98 1.08a5.3 5.3 0 01-2.22-.43c-.63-.3-1.12-.7-1.46-1.23a3.54 3.54 0 01-.56-1.8h2.67c.07.32.22.6.47.82.24.22.58.32 1 .32.5 0 .88-.16 1.13-.48.24-.32.36-.74.36-1.28 0-.52-.12-.92-.38-1.2-.26-.27-.63-.41-1.12-.41-.36 0-.66.09-.9.27-.23.17-.39.4-.46.69H12.9v-6.96h7.47v2.4zM18.03 77.92a1.6 1.6 0 00-.44-.88c-.22-.2-.52-.3-.92-.3-.6 0-1.04.26-1.3.8-.28.51-.41 1.35-.42 2.49a2.4 2.4 0 011-.88c.45-.22.94-.32 1.48-.32a3.3 3.3 0 012.5.99c.65.66.97 1.58.97 2.77 0 .78-.16 1.46-.48 2.05A3.3 3.3 0 0119.04 86c-.6.33-1.3.5-2.13.5-1.64 0-2.78-.51-3.42-1.54-.64-1.03-.96-2.52-.96-4.45 0-2.02.34-3.53 1-4.5.69-1 1.78-1.5 3.27-1.5.8 0 1.47.16 2.02.48.55.31.97.72 1.25 1.24.28.5.45 1.07.5 1.68h-2.54zm-1.26 3.07c-.46 0-.84.14-1.15.41-.3.27-.45.65-.45 1.16 0 .5.14.9.42 1.2.28.28.69.43 1.21.43.47 0 .84-.14 1.1-.42.28-.29.42-.68.42-1.17 0-.5-.13-.9-.4-1.18-.27-.29-.65-.43-1.15-.43zM20.53 44.81l-4.02 9.63h-2.8l4.06-9.32H12.8v-2.34h7.73v2.03zM14.08 17.17c-1-.53-1.5-1.37-1.5-2.51a2.86 2.86 0 011.8-2.7c.62-.3 1.36-.44 2.25-.44.88 0 1.62.15 2.22.44a2.86 2.86 0 011.8 2.7 2.7 2.7 0 01-.4 1.5c-.27.43-.64.77-1.1 1.01.58.28 1.02.66 1.33 1.15.31.48.47 1.05.47 1.7a3.37 3.37 0 01-2.15 3.22c-.65.28-1.37.43-2.17.43-.8 0-1.53-.15-2.2-.43a3.37 3.37 0 01-2.13-3.22 3.04 3.04 0 011.78-2.85zm3.92-2.1c0-.43-.12-.77-.38-1a1.34 1.34 0 00-1-.37c-.4 0-.74.12-1 .37-.25.24-.37.58-.37 1.02 0 .42.13.75.39 1 .25.23.58.35.99.35.4 0 .73-.13.99-.37.26-.25.38-.58.38-1zm-1.37 3.29c-.5 0-.9.13-1.22.41-.3.27-.46.64-.46 1.12 0 .45.15.82.45 1.1.3.3.72.44 1.23.44.5 0 .9-.15 1.2-.43.3-.3.45-.66.45-1.1 0-.48-.16-.85-.47-1.13-.3-.28-.7-.41-1.18-.41zM273.72 269.92c1.02 0 1.85.34 2.46 1.02.62.68.93 1.6.93 2.79v5.21h-2.72v-4.84c0-.6-.15-1.07-.46-1.4-.31-.33-.73-.5-1.25-.5s-.94.17-1.25.5c-.3.33-.46.8-.46 1.4v4.84h-2.74V267.1h2.74v4.11c.28-.39.65-.7 1.13-.94a3.64 3.64 0 011.62-.35zM239.59 269.89c.63 0 1.17.13 1.64.38.48.26.85.6 1.1 1v-1.25h2.74v8.9a4.9 4.9 0 01-.5 2.23c-.31.67-.8 1.2-1.48 1.6-.66.4-1.49.6-2.48.6-1.32 0-2.4-.32-3.22-.95a3.5 3.5 0 01-1.4-2.53h2.7c.09.34.29.6.6.8.33.2.72.3 1.2.3.56 0 1-.16 1.33-.5.35-.31.52-.83.52-1.54v-1.27a3.08 3.08 0 01-2.75 1.41 3.7 3.7 0 01-3.43-2.18 5.51 5.51 0 01-.51-2.43c0-.91.17-1.72.51-2.41.35-.7.83-1.23 1.43-1.6a3.7 3.7 0 012-.56zm2.75 4.59c0-.68-.2-1.22-.58-1.62-.37-.4-.83-.59-1.38-.59-.54 0-1 .2-1.39.6a2.2 2.2 0 00-.56 1.6c0 .68.19 1.22.56 1.63.39.39.85.59 1.4.59.54 0 1-.2 1.37-.6.39-.39.58-.93.58-1.61zM211.22 272.29h-1.47v6.65H207v-6.65h-.99V270h1v-.25c0-1.1.3-1.93.94-2.5.63-.57 1.55-.86 2.76-.86.2 0 .36 0 .45.02v2.31c-.52-.03-.89.05-1.1.23-.22.18-.32.5-.32.98v.07h1.47v2.28zM181.1 274.33c0 .26 0 .53-.04.8h-6.2c.05.56.23.99.54 1.29.32.28.7.43 1.16.43.69 0 1.16-.3 1.43-.87h2.91a3.93 3.93 0 01-.81 1.59c-.39.47-.87.83-1.46 1.1a4.7 4.7 0 01-1.97.4c-.87 0-1.65-.19-2.34-.56a3.98 3.98 0 01-1.6-1.6c-.38-.7-.57-1.5-.57-2.43 0-.93.19-1.74.56-2.43a4 4 0 011.6-1.6 4.83 4.83 0 012.35-.56c.87 0 1.63.18 2.3.54.68.36 1.2.88 1.57 1.55.39.67.58 1.46.58 2.35zm-2.8-.71c0-.47-.15-.85-.47-1.13a1.77 1.77 0 00-1.2-.41c-.46 0-.85.13-1.17.4-.3.27-.5.64-.58 1.13h3.43zM139.65 274.46c0-.91.17-1.72.51-2.41.35-.7.83-1.23 1.43-1.6a3.7 3.7 0 013.6-.2c.49.25.87.58 1.15 1v-4.15h2.73v11.84h-2.73v-1.28c-.26.43-.63.77-1.1 1.03-.48.25-1.03.38-1.66.38a3.7 3.7 0 01-3.42-2.18 5.51 5.51 0 01-.51-2.43zm6.69.02c0-.68-.2-1.22-.58-1.62-.37-.4-.83-.59-1.38-.59-.54 0-1 .2-1.39.6a2.2 2.2 0 00-.56 1.6c0 .68.19 1.22.56 1.63.39.39.85.59 1.4.59.54 0 1-.2 1.37-.6.39-.39.58-.93.58-1.61zM108.23 274.48c0-.93.2-1.74.56-2.43.39-.7.92-1.23 1.59-1.6a4.8 4.8 0 012.34-.56c1.11 0 2.05.3 2.8.88a4.14 4.14 0 011.48 2.48h-2.9c-.25-.69-.73-1.03-1.43-1.03-.5 0-.9.2-1.2.6-.3.38-.45.93-.45 1.66 0 .72.15 1.28.45 1.68.3.38.7.57 1.2.57.7 0 1.18-.34 1.42-1.02H117a4.2 4.2 0 01-1.48 2.47c-.76.6-1.7.9-2.8.9-.88 0-1.66-.2-2.34-.57a4 4 0 01-1.58-1.6c-.38-.7-.56-1.5-.56-2.43zM78.93 271.28c.26-.42.62-.75 1.1-1a3.45 3.45 0 011.65-.4 3.7 3.7 0 013.4 2.17c.36.7.54 1.5.54 2.41 0 .92-.18 1.73-.53 2.44a3.7 3.7 0 01-3.4 2.18 3.5 3.5 0 01-1.66-.38c-.47-.25-.83-.59-1.1-1v1.24h-2.74V267.1h2.74v4.18zm3.9 3.18c0-.68-.19-1.21-.57-1.6-.38-.4-.84-.59-1.4-.59-.54 0-1 .2-1.39.6-.37.39-.56.93-.56 1.6 0 .7.19 1.23.56 1.63.39.39.85.59 1.4.59.54 0 1-.2 1.39-.6.38-.4.57-.94.57-1.63zM43.65 274.46c0-.91.17-1.72.51-2.41.35-.7.83-1.23 1.43-1.6a3.7 3.7 0 012-.56c.62 0 1.17.13 1.64.38.48.26.85.6 1.1 1v-1.25h2.74v8.92h-2.73v-1.26c-.27.42-.64.75-1.12 1a3.66 3.66 0 01-3.63-.18 4.05 4.05 0 01-1.43-1.6 5.5 5.5 0 01-.51-2.44zm6.69.02c0-.68-.2-1.22-.58-1.62-.37-.4-.83-.59-1.37-.59-.55 0-1.01.2-1.4.6a2.2 2.2 0 00-.56 1.6c0 .68.19 1.22.56 1.63.39.39.85.59 1.4.59.54 0 1-.2 1.37-.6.39-.39.58-.93.58-1.61z" fill="#000"/><path fill="#198754" fill-opacity=".75" d="M224.63 160.94h32v32h-32z"/><mask id="a" maskUnits="userSpaceOnUse" x="230.52" y="163.28" width="20" height="25" fill="#000"><path fill="#fff" d="M230.52 163.28h20v25h-20z"/><path fill-rule="evenodd" clip-rule="evenodd" d="M241.21 168.4c.55-.25.93-.82.93-1.49 0-.9-.7-1.63-1.55-1.63a1.6 1.6 0 00-1.54 1.63c0 .69.4 1.27.96 1.51l-6.49 9.4s3.12 7.53 7.08 7.48c3.97-.06 7.28-7.69 7.28-7.69l-6.67-9.2z"/></mask><path fill-rule="evenodd" clip-rule="evenodd" d="M241.21 168.4c.55-.25.93-.82.93-1.49 0-.9-.7-1.63-1.55-1.63a1.6 1.6 0 00-1.54 1.63c0 .69.4 1.27.96 1.51l-6.49 9.4s3.12 7.53 7.08 7.48c3.97-.06 7.28-7.69 7.28-7.69l-6.67-9.2z" fill="#fff"/><path d="M241.21 168.4l-.84-1.8-2.2 1.01 1.42 1.97 1.62-1.17zm-1.2.02l1.65 1.14 1.4-2.01-2.26-.97-.79 1.84zm-6.49 9.4l-1.65-1.14-.62.9.42 1 1.85-.77zm7.08 7.48l.03 2-.03-2zm7.28-7.69l1.84.8.45-1.05-.67-.92-1.62 1.17zm-7.74-10.7c0-.1.05-.24.23-.32l1.68 3.63a3.64 3.64 0 002.09-3.31h-4zm.45.37a.5.5 0 01-.36-.15.32.32 0 01-.1-.22h4c0-1.9-1.48-3.63-3.54-3.63v4zm.46-.37c0 .06-.03.15-.1.22a.5.5 0 01-.36.15v-4a3.59 3.59 0 00-3.54 3.63h4zm-.25-.32c.2.08.25.23.25.32h-4c0 1.46.85 2.79 2.18 3.35l1.57-3.67zm-5.64 12.36l6.5-9.39-3.3-2.27-6.49 9.39 3.3 2.27zm5.42 4.35c-.34 0-.83-.15-1.48-.7-.65-.52-1.29-1.29-1.87-2.15a21.27 21.27 0 01-1.75-3.14l-.09-.2c0-.03-.01-.04-.02-.05v-.01l-1.85.76-1.85.77v.01l.02.02.03.08a14.06 14.06 0 00.56 1.2c.38.75.94 1.78 1.64 2.81a14.3 14.3 0 002.64 3 6.33 6.33 0 004.07 1.6l-.05-4zm7.3-5.69l-1.84-.8v.02l-.02.05a14.25 14.25 0 01-.5 1c-.34.67-.84 1.55-1.44 2.42-.6.88-1.27 1.68-1.95 2.24-.69.57-1.2.75-1.55.76l.05 4a6.57 6.57 0 004.06-1.69c1.07-.88 1.97-2 2.69-3.04a27.18 27.18 0 002.28-4.05l.04-.08.01-.02v-.01l-1.83-.8zm-8.29-8.03l6.67 9.2 3.24-2.34-6.67-9.2-3.24 2.34z" fill="#000" mask="url(#a)"/><path d="M250.4 189.39h1v-2.56a3 3 0 00-3-3h-15.55a3 3 0 00-3 3v2.56h20.56z" fill="#fff" stroke="#000" stroke-width="2"/><path d="M240.63 175.05l3.56-2.66 1.33 1.78-4.89 3.55v-2.67z" fill="#000"/><path fill="#198754" fill-opacity=".75" d="M128.63 128.94h32v32h-32z"/><path fill="#E94E58" fill-opacity=".75" d="M96.63 64.94h32v32h-32zM128.63 64.94h32v32h-32z"/><mask id="b" maskUnits="userSpaceOnUse" x="259.47" y="225.5" width="26" height="26" fill="#000"><path fill="#fff" d="M259.47 225.5h26v26h-26z"/><path fill-rule="evenodd" clip-rule="evenodd" d="M279.74 248.83l2.93-7.98a2 2 0 00-1.02-2.5c-3.56-1.68-5.71-2.62-8.1-2.81v-3.6h2.8v-1.77h-2.8v-2.67h-1.85v2.67h-2.78v1.77h2.78v3.6c-2.38.2-4.53 1.13-8.09 2.81a2 2 0 00-1.02 2.5l2.93 7.98h14.22zm-8.89-10.72c-1.12.2-2.39.56-4.04 1.1a2 2 0 00-1.15 2.79l1.64 3.28h3.55v-7.17zm7.6 1.1a29.5 29.5 0 00-4.04-1.1v7.17h3.55l1.64-3.28c.55-1.09 0-2.4-1.15-2.79z"/></mask><path fill-rule="evenodd" clip-rule="evenodd" d="M279.74 248.83l2.93-7.98a2 2 0 00-1.02-2.5c-3.56-1.68-5.71-2.62-8.1-2.81v-3.6h2.8v-1.77h-2.8v-2.67h-1.85v2.67h-2.78v1.77h2.78v3.6c-2.38.2-4.53 1.13-8.09 2.81a2 2 0 00-1.02 2.5l2.93 7.98h14.22zm-8.89-10.72c-1.12.2-2.39.56-4.04 1.1a2 2 0 00-1.15 2.79l1.64 3.28h3.55v-7.17zm7.6 1.1a29.5 29.5 0 00-4.04-1.1v7.17h3.55l1.64-3.28c.55-1.09 0-2.4-1.15-2.79z" fill="#fff"/><path d="M271.78 236.53a10.2 10.2 0 011.7 0l.16-1.99c-.68-.05-1.34-.05-2.02 0l.16 2zm10.89 4.32l1.88.69-1.88-.7zm-2.93 7.98v2h1.4l.48-1.3-1.88-.7zm1.9-10.48l.86-1.8-.85 1.8zm-8.08-2.81h-2v1.84l1.83.15.17-2zm0-3.6v-2h-2v2h2zm2.78 0v2h2v-2h-2zm0-1.77h2v-2h-2v2zm-2.78 0h-2v2h2v-2zm0-2.67h2v-2h-2v2zm-1.86 0v-2h-2v2h2zm0 2.67v2h2v-2h-2zm-2.78 0v-2h-2v2h2zm0 1.77h-2v2h2v-2zm2.78 0h2v-2h-2v2zm0 3.6l.17 1.99 1.83-.15v-1.84h-2zm-8.09 2.81l.86 1.81-.86-1.8zm-1.02 2.5l1.88-.7-1.88.7zm2.93 7.98l-1.88.7.48 1.3h1.4v-2zm1.29-9.62l-.62-1.9.62 1.9zm4.04-1.1h2v-2.37l-2.34.4.34 1.97zm-5.2 3.89l1.8-.9-1.8.9zm1.65 3.28l-1.8.9.56 1.1h1.24v-2zm3.55 0v2h2v-2h-2zm3.56-7.17l.34-1.97-2.34-.4v2.37h2zm4.04 1.1l-.62 1.9.62-1.9zm-4.04 6.07h-2v2h2v-2zm3.55 0v2h1.24l.55-1.1-1.79-.9zm1.64-3.28l1.8.9-1.8-.9zm1.2-1.84l-2.94 7.98 3.76 1.38 2.93-7.98-3.76-1.38zm0 0c-.01 0-.01 0 0 0l3.75 1.38a4 4 0 00-2.05-5l-1.7 3.62zm-7.4-2.63c1.95.16 3.78.92 7.4 2.63l1.7-3.62c-3.5-1.65-5.98-2.77-8.78-3l-.33 3.99zm-1.84-5.59v3.6h4v-3.6h-4zm4.78-2h-2.78v4h2.78v-4zm-2 .23v1.77h4v-1.77h-4zm-.78 2h2.78v-4h-2.78v4zm-2-4.67v2.67h4v-2.67h-4zm.14 2h1.86v-4h-1.86v4zm2 .67v-2.67h-4v2.67h4zm-4.78 2h2.78v-4h-2.78v4zm2-.23v-1.77h-4v1.77h4zm.78-2h-2.78v4h2.78v-4zm2 5.6v-3.6h-4v3.6h4zm-9.23 4.62c3.6-1.7 5.44-2.47 7.4-2.63l-.33-3.99c-2.8.23-5.28 1.35-8.78 3l1.7 3.62zm0 0l-1.71-3.62a4 4 0 00-2.05 5l3.76-1.38zm2.93 7.98l-2.93-7.98-3.76 1.38 2.93 7.98 3.76-1.38zm12.34-1.3h-14.22v4h14.22v-4zm-12.3-5.72a27.7 27.7 0 013.75-1.03l-.68-3.95c-1.27.22-2.65.63-4.32 1.17l1.24 3.8zm0-.02v.01s-.01 0 0 0l-1.25-3.8a3.99 3.99 0 00-2.32 5.58l3.57-1.79zm1.65 3.28l-1.64-3.28-3.58 1.8 1.64 3.27 3.58-1.79zm1.76-1.1h-3.55v4h3.55v-4zm-2-5.17v7.17h4v-7.17h-4zm5.22 1.97c.97.17 2.12.5 3.76 1.03l1.24-3.8a31.28 31.28 0 00-4.32-1.17l-.68 3.95zm2.34 5.2v-7.17h-4v7.17h4zm1.55-2h-3.55v4h3.55v-4zm-.14-2.18l-1.64 3.28 3.57 1.8 1.64-3.29-3.57-1.79zm0 .02c.01 0 0 0 0 0v-.01-.01l3.57 1.8a4 4 0 00-2.32-5.59l-1.24 3.8z" fill="#000" mask="url(#b)"/><path d="M282.4 253.39h1v-2.56a3 3 0 00-3-3h-15.55a3 3 0 00-3 3v2.56h20.56z" fill="#fff" stroke="#000" stroke-width="2"/><mask id="c" maskUnits="userSpaceOnUse" x="227.47" y="1.5" width="26" height="26" fill="#000"><path fill="#fff" d="M227.47 1.5h26v26h-26z"/><path fill-rule="evenodd" clip-rule="evenodd" d="M247.74 24.83l2.93-7.98a2 2 0 00-1.02-2.5c-3.56-1.68-5.71-2.62-8.1-2.81v-3.6h2.8V6.17h-2.8V3.5h-1.85v2.67h-2.78v1.77h2.78v3.6c-2.38.2-4.53 1.13-8.09 2.81a2 2 0 00-1.02 2.5l2.93 7.98h14.22zm-8.89-10.72c-1.12.2-2.38.56-4.04 1.1a1.99 1.99 0 00-1.15 2.79l1.64 3.28h3.55V14.1zm7.6 1.1c-1.66-.54-2.92-.9-4.04-1.1v7.17h3.55L247.6 18c.55-1.09 0-2.4-1.15-2.79z"/></mask><path fill-rule="evenodd" clip-rule="evenodd" d="M247.74 24.83l2.93-7.98a2 2 0 00-1.02-2.5c-3.56-1.68-5.71-2.62-8.1-2.81v-3.6h2.8V6.17h-2.8V3.5h-1.85v2.67h-2.78v1.77h2.78v3.6c-2.38.2-4.53 1.13-8.09 2.81a2 2 0 00-1.02 2.5l2.93 7.98h14.22zm-8.89-10.72c-1.12.2-2.38.56-4.04 1.1a1.99 1.99 0 00-1.15 2.79l1.64 3.28h3.55V14.1zm7.6 1.1c-1.66-.54-2.92-.9-4.04-1.1v7.17h3.55L247.6 18c.55-1.09 0-2.4-1.15-2.79z" fill="#5C5C5C"/><path d="M239.78 12.53c.57-.04 1.13-.04 1.7 0l.16-1.99c-.68-.05-1.34-.05-2.02 0l.16 2zm10.89 4.32l1.88.69-1.88-.7zm-2.93 7.98v2h1.4l.48-1.3-1.88-.7zm1.9-10.48l.86-1.8-.85 1.8zm-8.08-2.81h-2v1.84l1.84.15.16-2zm0-3.6v-2h-2v2h2zm2.78 0v2h2v-2h-2zm0-1.77h2v-2h-2v2zm-2.78 0h-2v2h2v-2zm0-2.67h2v-2h-2v2zm-1.86 0v-2h-2v2h2zm0 2.67v2h2v-2h-2zm-2.78 0v-2h-2v2h2zm0 1.77h-2v2h2v-2zm2.78 0h2v-2h-2v2zm0 3.6l.17 2 1.83-.16v-1.84h-2zm-8.09 2.81l.86 1.81-.86-1.8zm-1.02 2.5l1.88-.7-1.88.7zm2.93 7.98l-1.88.7.48 1.3h1.4v-2zm1.29-9.62l-.62-1.9.62 1.9zm4.04-1.1h2v-2.37l-2.34.4.34 1.97zm-5.2 3.89l1.8-.9-1.8.9zm1.65 3.28l-1.8.9.56 1.1h1.24v-2zm3.55 0v2h2v-2h-2zm3.56-7.17l.34-1.97-2.34-.4v2.37h2zm4.04 1.1l.62-1.9-.62 1.9zm-4.04 6.07h-2v2h2v-2zm3.55 0v2h1.24l.55-1.1-1.79-.9zM247.6 18l1.8.9-1.8-.9zm1.2-1.84l-2.94 7.98 3.76 1.38 2.93-7.98-3.76-1.38zm0 0c-.01 0-.01 0 0 0l3.75 1.38a4 4 0 00-2.05-5l-1.7 3.62zm-7.4-2.63c1.95.16 3.78.92 7.4 2.63l1.7-3.62c-3.5-1.65-5.98-2.77-8.78-3l-.32 4zm-1.84-5.59v3.6h4v-3.6h-4zm4.78-2h-2.78v4h2.78v-4zm-2 .23v1.77h4V6.17h-4zm-.78 2h2.78v-4h-2.78v4zm-2-4.67v2.67h4V3.5h-4zm.14 2h1.86v-4h-1.86v4zm2 .67V3.5h-4v2.67h4zm-4.78 2h2.78v-4h-2.78v4zm2-.23V6.17h-4v1.77h4zm.78-2h-2.78v4h2.78v-4zm2 5.6v-3.6h-4v3.6h4zm-9.23 4.62c3.6-1.7 5.44-2.47 7.4-2.63l-.33-3.99c-2.8.23-5.28 1.35-8.78 3l1.7 3.62zm0 0l-1.71-3.62a4 4 0 00-2.05 5l3.76-1.38zm2.93 7.98l-2.93-7.98-3.76 1.38 2.93 7.98 3.76-1.38zm12.34-1.3h-14.22v4h14.22v-4zm-12.3-5.72c1.64-.54 2.78-.87 3.75-1.04l-.68-3.94c-1.27.22-2.66.63-4.32 1.17l1.24 3.8zm0-.02v.01s-.01 0 0 0l-1.25-3.8a3.99 3.99 0 00-2.32 5.58l3.57-1.79zm1.65 3.28l-1.65-3.28-3.57 1.8 1.64 3.27 3.58-1.79zm1.76-1.1h-3.55v4h3.55v-4zm-2-5.17v7.17h4V14.1h-4zm5.22 1.97c.97.17 2.12.5 3.76 1.04l1.24-3.8a31.3 31.3 0 00-4.32-1.18l-.68 3.94zm2.34 5.2V14.1h-4v7.17h4zm1.55-2h-3.55v4h3.55v-4zm-.15-2.18l-1.63 3.28 3.57 1.8 1.64-3.29-3.57-1.79zm.02.02l-.01-.01v-.01l3.57 1.8a3.99 3.99 0 00-2.32-5.59l-1.24 3.8z" fill="#000" mask="url(#c)"/><path d="M250.4 29.39h1v-2.56a3 3 0 00-3-3h-15.55a3 3 0 00-3 3v2.56h20.56z" fill="#5C5C5C" stroke="#000" stroke-width="2"/><path d="M148.41 152.94h.54l.3-.45-.84-.55.84.55h0v-.01l.03-.04a10.23 10.23 0 00.44-.71c.29-.48.68-1.16 1.1-1.98a28.51 28.51 0 002.4-6.06c.53-2.19.7-4.63-.41-6.57-1.16-2.02-3.49-3.15-7.13-3.16h-.03a.42.42 0 01-.13-.05s0 0 0 0c-.03-.02-.2-.12-.2-.63v-1h-1c-.51 0-.95.28-1.19.45-.28.2-.56.46-.78.7-.23.23-.43.46-.57.63l-.15.18-2.59 1.9-.16.11-.1.17-2.72 4.4-.25.4.15.44 1 3.04.42 1.28 1.1-.77 2.31-1.63 1.7-1.13c.87.31 1.24.67 1.4.87l.07.1-.05.1a16.56 16.56 0 01-3.55 4.57 3.17 3.17 0 00-.66 3.96l.24.4.3.5h8.17z" fill="#fff" stroke="#000" stroke-width="2"/><path d="M154.4 157.39h1v-2.56a3 3 0 00-3-3h-15.55a3 3 0 00-3 3v2.56h20.56z" fill="#fff" stroke="#000" stroke-width="2"/><path d="M140.19 137.72l.89-.44v.33a1 1 0 01-1 1h-.34l.45-.89z" fill="#000"/><path d="M116.41 88.94h.54l.3-.45-.84-.55.84.55h0v-.01l.03-.04a8.86 8.86 0 00.44-.71c.29-.48.68-1.16 1.1-1.98a28.52 28.52 0 002.4-6.06c.53-2.19.7-4.63-.41-6.57-1.16-2.02-3.49-3.15-7.14-3.16h-.02a.4.4 0 01-.13-.05c-.03-.02-.2-.12-.2-.63v-1h-1c-.51 0-.95.28-1.19.45-.28.2-.55.46-.78.7a11.91 11.91 0 00-.72.8l-2.59 1.9-.16.12-.1.17-2.72 4.4-.25.4.15.44 1 3.04.42 1.28 1.1-.77 2.31-1.63 1.7-1.13c.87.31 1.24.67 1.4.87l.07.1-.05.1a16.54 16.54 0 01-3.55 4.57 3.17 3.17 0 00-.66 3.96l.24.4.3.5h8.17z" fill="#5C5C5C" stroke="#000" stroke-width="2"/><path d="M122.4 93.39h1v-2.56a3 3 0 00-3-3h-15.55a3 3 0 00-3 3v2.56h20.56z" fill="#5C5C5C" stroke="#000" stroke-width="2"/><path d="M108.19 73.72l.89-.44v.33a1 1 0 01-1 1h-.34l.45-.89z" fill="#000"/><mask id="d" maskUnits="userSpaceOnUse" x="42.3" y="202.39" width="12" height="18" fill="#000"><path fill="#fff" d="M42.3 202.39h12v18h-12z"/><path fill-rule="evenodd" clip-rule="evenodd" d="M49.8 211.3a3.56 3.56 0 10-2.32 0c.02 2.85-1.48 6.42-4.18 6.42h10.66c-2.69 0-4.18-3.58-4.16-6.42z"/></mask><path fill-rule="evenodd" clip-rule="evenodd" d="M49.8 211.3a3.56 3.56 0 10-2.32 0c.02 2.85-1.48 6.42-4.18 6.42h10.66c-2.69 0-4.18-3.58-4.16-6.42z" fill="#fff"/><path d="M49.8 211.3l-.66-1.89-1.33.47-.01 1.41 2 .01zm-2.32 0l2-.01-.02-1.42-1.34-.45-.64 1.89zm2.7-3.36c0 .68-.43 1.26-1.04 1.47l1.32 3.78a5.56 5.56 0 003.73-5.25h-4zm-1.55-1.55c.86 0 1.56.7 1.56 1.55h4a5.56 5.56 0 00-5.56-5.55v4zm-1.56 1.55c0-.86.7-1.55 1.56-1.55v-4a5.56 5.56 0 00-5.56 5.55h4zm1.05 1.48a1.56 1.56 0 01-1.05-1.48h-4c0 2.44 1.58 4.51 3.76 5.26l1.3-3.78zm-4.82 10.3c2.35 0 3.95-1.58 4.85-3.15.9-1.59 1.34-3.55 1.33-5.28l-4 .04a6.83 6.83 0 01-.8 3.26c-.54.92-1.04 1.13-1.38 1.13v4zm10.66-4H43.3v4h10.66v-4zm-6.16-4.43c-.01 1.72.43 3.68 1.32 5.27.9 1.57 2.48 3.16 4.84 3.16v-4c-.33 0-.83-.2-1.35-1.13a6.96 6.96 0 01-.81-3.28l-4-.02z" fill="#000" mask="url(#d)"/><path d="M55.74 221.39h1v-1.67a3 3 0 00-3-3H43.52a3 3 0 00-3 3v1.67h15.22z" fill="#fff" stroke="#000" stroke-width="2"/><mask id="e" maskUnits="userSpaceOnUse" x="42.3" y="42.39" width="12" height="18" fill="#000"><path fill="#fff" d="M42.3 42.39h12v18h-12z"/><path fill-rule="evenodd" clip-rule="evenodd" d="M49.8 51.3a3.56 3.56 0 10-2.32 0c.02 2.85-1.48 6.42-4.18 6.42h10.66c-2.69 0-4.18-3.58-4.16-6.42z"/></mask><path fill-rule="evenodd" clip-rule="evenodd" d="M49.8 51.3a3.56 3.56 0 10-2.32 0c.02 2.85-1.48 6.42-4.18 6.42h10.66c-2.69 0-4.18-3.58-4.16-6.42z" fill="#5C5C5C"/><path d="M49.8 51.3l-.66-1.89-1.33.47-.01 1.41 2 .01zm-2.32 0l2-.01-.02-1.42-1.34-.45-.64 1.89zm2.7-3.36c0 .68-.43 1.26-1.04 1.47l1.32 3.78a5.56 5.56 0 003.73-5.25h-4zm-1.55-1.55c.86 0 1.56.7 1.56 1.55h4a5.56 5.56 0 00-5.56-5.55v4zm-1.56 1.55c0-.86.7-1.55 1.56-1.55v-4a5.56 5.56 0 00-5.56 5.55h4zm1.05 1.48a1.56 1.56 0 01-1.05-1.48h-4c0 2.44 1.58 4.51 3.76 5.26l1.3-3.78zm-4.82 10.3c2.35 0 3.95-1.58 4.85-3.15.9-1.59 1.34-3.55 1.33-5.28l-4 .04a6.83 6.83 0 01-.8 3.26c-.54.92-1.04 1.13-1.38 1.13v4zm10.66-4H43.3v4h10.66v-4zM47.8 51.3c-.01 1.73.43 3.68 1.32 5.27.9 1.57 2.48 3.16 4.84 3.16v-4c-.33 0-.83-.2-1.35-1.13a6.96 6.96 0 01-.81-3.28l-4-.02z" fill="#000" mask="url(#e)"/><path d="M55.74 61.39h1v-1.67a3 3 0 00-3-3H43.52a3 3 0 00-3 3v1.67h15.22z" fill="#5C5C5C" stroke="#000" stroke-width="2"/><mask id="f" maskUnits="userSpaceOnUse" x="106.3" y="138.39" width="12" height="18" fill="#000"><path fill="#fff" d="M106.3 138.39h12v18h-12z"/><path fill-rule="evenodd" clip-rule="evenodd" d="M113.8 147.3a3.56 3.56 0 10-2.32 0c.02 2.85-1.48 6.42-4.18 6.42h10.66c-2.69 0-4.18-3.58-4.16-6.42z"/></mask><path fill-rule="evenodd" clip-rule="evenodd" d="M113.8 147.3a3.56 3.56 0 10-2.32 0c.02 2.85-1.48 6.42-4.18 6.42h10.66c-2.69 0-4.18-3.58-4.16-6.42z" fill="#fff"/><path d="M113.8 147.3l-.66-1.89-1.33.47-.01 1.41 2 .01zm-2.32 0l2-.01-.02-1.42-1.33-.45-.65 1.89zm2.7-3.36c0 .68-.43 1.26-1.04 1.47l1.31 3.78a5.56 5.56 0 003.74-5.25h-4zm-1.55-1.55c.86 0 1.56.7 1.56 1.55h4a5.56 5.56 0 00-5.56-5.55v4zm-1.55 1.55c0-.86.7-1.55 1.55-1.55v-4a5.55 5.55 0 00-5.55 5.55h4zm1.05 1.48a1.56 1.56 0 01-1.05-1.48h-4c0 2.44 1.57 4.51 3.75 5.26l1.3-3.78zm-4.83 10.3c2.35 0 3.95-1.58 4.85-3.15.9-1.59 1.34-3.55 1.33-5.28l-4 .04a6.83 6.83 0 01-.8 3.26c-.54.92-1.04 1.13-1.38 1.13v4zm10.66-4H107.3v4h10.66v-4zm-6.16-4.43c-.01 1.72.43 3.68 1.32 5.27.9 1.57 2.48 3.16 4.84 3.16v-4c-.33 0-.83-.2-1.35-1.13a6.95 6.95 0 01-.81-3.28l-4-.02z" fill="#000" mask="url(#f)"/><path d="M119.74 157.39h1v-1.67a3 3 0 00-3-3h-10.22a3 3 0 00-3 3v1.67h15.22z" fill="#fff" stroke="#000" stroke-width="2"/><mask id="g" maskUnits="userSpaceOnUse" x="234.3" y="202.39" width="12" height="18" fill="#000"><path fill="#fff" d="M234.3 202.39h12v18h-12z"/><path fill-rule="evenodd" clip-rule="evenodd" d="M241.8 211.3a3.56 3.56 0 10-2.32 0c.02 2.85-1.48 6.42-4.18 6.42h10.66c-2.69 0-4.18-3.58-4.16-6.42z"/></mask><path fill-rule="evenodd" clip-rule="evenodd" d="M241.8 211.3a3.56 3.56 0 10-2.32 0c.02 2.85-1.48 6.42-4.18 6.42h10.66c-2.69 0-4.18-3.58-4.16-6.42z" fill="#fff"/><path d="M241.8 211.3l-.66-1.89-1.33.47-.01 1.41 2 .01zm-2.32 0l2-.01-.02-1.42-1.34-.45-.64 1.89zm2.7-3.36c0 .68-.43 1.26-1.04 1.47l1.32 3.78a5.56 5.56 0 003.73-5.25h-4zm-1.55-1.55c.86 0 1.56.7 1.56 1.55h4a5.56 5.56 0 00-5.56-5.55v4zm-1.56 1.55c0-.86.7-1.55 1.56-1.55v-4a5.55 5.55 0 00-5.56 5.55h4zm1.06 1.48a1.56 1.56 0 01-1.06-1.48h-4c0 2.44 1.58 4.51 3.76 5.26l1.3-3.78zm-4.83 10.3c2.35 0 3.95-1.58 4.85-3.15.9-1.59 1.34-3.55 1.33-5.28l-4 .04a6.83 6.83 0 01-.8 3.26c-.53.92-1.04 1.13-1.38 1.13v4zm10.66-4H235.3v4h10.66v-4zm-6.16-4.43c-.01 1.72.43 3.68 1.32 5.27.9 1.57 2.48 3.16 4.84 3.16v-4c-.33 0-.83-.2-1.35-1.13a6.95 6.95 0 01-.81-3.28l-4-.02z" fill="#000" mask="url(#g)"/><path d="M247.74 221.39h1v-1.67a3 3 0 00-3-3h-10.22a3 3 0 00-3 3v1.67h15.22z" fill="#fff" stroke="#000" stroke-width="2"/><mask id="h" maskUnits="userSpaceOnUse" x="234.3" y="42.39" width="12" height="18" fill="#000"><path fill="#fff" d="M234.3 42.39h12v18h-12z"/><path fill-rule="evenodd" clip-rule="evenodd" d="M241.8 51.3a3.56 3.56 0 10-2.32 0c.02 2.85-1.48 6.42-4.18 6.42h10.66c-2.69 0-4.18-3.58-4.16-6.42z"/></mask><path fill-rule="evenodd" clip-rule="evenodd" d="M241.8 51.3a3.56 3.56 0 10-2.32 0c.02 2.85-1.48 6.42-4.18 6.42h10.66c-2.69 0-4.18-3.58-4.16-6.42z" fill="#5C5C5C"/><path d="M241.8 51.3l-.66-1.89-1.33.47-.01 1.41 2 .01zm-2.32 0l2-.01-.02-1.42-1.34-.45-.64 1.89zm2.7-3.36c0 .68-.43 1.26-1.04 1.47l1.32 3.78a5.56 5.56 0 003.73-5.25h-4zm-1.55-1.55c.86 0 1.56.7 1.56 1.55h4a5.56 5.56 0 00-5.56-5.55v4zm-1.56 1.55c0-.86.7-1.55 1.56-1.55v-4a5.56 5.56 0 00-5.56 5.55h4zm1.06 1.48a1.56 1.56 0 01-1.06-1.48h-4c0 2.44 1.58 4.51 3.76 5.26l1.3-3.78zm-4.83 10.3c2.35 0 3.95-1.58 4.85-3.15.9-1.59 1.34-3.55 1.33-5.28l-4 .04a6.83 6.83 0 01-.8 3.26c-.53.92-1.04 1.13-1.38 1.13v4zm10.66-4H235.3v4h10.66v-4zm-6.16-4.43c-.01 1.73.43 3.68 1.32 5.27.9 1.57 2.48 3.16 4.84 3.16v-4c-.33 0-.83-.2-1.35-1.13a6.95 6.95 0 01-.81-3.28l-4-.02z" fill="#000" mask="url(#h)"/><path d="M247.74 61.39h1v-1.67a3 3 0 00-3-3h-10.22a3 3 0 00-3 3v1.67h15.22z" fill="#5C5C5C" stroke="#000" stroke-width="2"/><mask id="i" maskUnits="userSpaceOnUse" x="74.3" y="170.39" width="12" height="18" fill="#000"><path fill="#fff" d="M74.3 170.39h12v18h-12z"/><path fill-rule="evenodd" clip-rule="evenodd" d="M81.8 179.3a3.56 3.56 0 10-2.32 0c.02 2.85-1.48 6.42-4.18 6.42h10.66c-2.69 0-4.18-3.58-4.16-6.42z"/></mask><path fill-rule="evenodd" clip-rule="evenodd" d="M81.8 179.3a3.56 3.56 0 10-2.32 0c.02 2.85-1.48 6.42-4.18 6.42h10.66c-2.69 0-4.18-3.58-4.16-6.42z" fill="#fff"/><path d="M81.8 179.3l-.66-1.89-1.33.47-.01 1.41 2 .01zm-2.32 0l2-.01-.02-1.42-1.33-.45-.65 1.89zm2.7-3.36c0 .68-.43 1.26-1.04 1.47l1.32 3.78a5.56 5.56 0 003.73-5.25h-4zm-1.55-1.55c.86 0 1.56.7 1.56 1.55h4a5.56 5.56 0 00-5.56-5.55v4zm-1.56 1.55c0-.86.7-1.55 1.56-1.55v-4a5.56 5.56 0 00-5.56 5.55h4zm1.06 1.48a1.56 1.56 0 01-1.06-1.48h-4c0 2.44 1.58 4.51 3.76 5.26l1.3-3.78zm-4.83 10.3c2.35 0 3.95-1.58 4.85-3.15.9-1.59 1.34-3.55 1.33-5.28l-4 .04a6.83 6.83 0 01-.8 3.26c-.54.92-1.04 1.13-1.38 1.13v4zm10.66-4H75.3v4h10.66v-4zm-6.16-4.43c-.01 1.72.43 3.68 1.32 5.27.9 1.57 2.48 3.16 4.84 3.16v-4c-.33 0-.83-.2-1.35-1.13a6.96 6.96 0 01-.81-3.28l-4-.02z" fill="#000" mask="url(#i)"/><path d="M87.74 189.39h1v-1.67a3 3 0 00-3-3H75.52a3 3 0 00-3 3v1.67h15.22z" fill="#fff" stroke="#000" stroke-width="2"/><mask id="j" maskUnits="userSpaceOnUse" x="74.3" y="74.39" width="12" height="18" fill="#000"><path fill="#fff" d="M74.3 74.39h12v18h-12z"/><path fill-rule="evenodd" clip-rule="evenodd" d="M81.8 83.3a3.56 3.56 0 10-2.32 0c.02 2.85-1.48 6.42-4.18 6.42h10.66c-2.69 0-4.18-3.58-4.16-6.42z"/></mask><path fill-rule="evenodd" clip-rule="evenodd" d="M81.8 83.3a3.56 3.56 0 10-2.32 0c.02 2.85-1.48 6.42-4.18 6.42h10.66c-2.69 0-4.18-3.58-4.16-6.42z" fill="#5C5C5C"/><path d="M81.8 83.3l-.66-1.89-1.33.47-.01 1.41 2 .01zm-2.32 0l2-.01-.02-1.42-1.33-.45-.65 1.89zm2.7-3.36c0 .68-.43 1.26-1.04 1.47l1.32 3.78a5.56 5.56 0 003.73-5.25h-4zm-1.55-1.55c.86 0 1.56.7 1.56 1.55h4a5.56 5.56 0 00-5.56-5.55v4zm-1.56 1.55c0-.86.7-1.55 1.56-1.55v-4a5.56 5.56 0 00-5.56 5.55h4zm1.06 1.48a1.56 1.56 0 01-1.06-1.48h-4c0 2.44 1.58 4.51 3.76 5.26l1.3-3.78zm-4.83 10.3c2.35 0 3.95-1.58 4.85-3.15.9-1.59 1.34-3.55 1.33-5.28l-4 .04a6.83 6.83 0 01-.8 3.26c-.54.92-1.04 1.13-1.38 1.13v4zm10.66-4H75.3v4h10.66v-4zM79.8 83.3c-.01 1.73.43 3.68 1.32 5.27.9 1.57 2.48 3.16 4.84 3.16v-4c-.33 0-.83-.2-1.35-1.13a6.96 6.96 0 01-.81-3.28l-4-.02z" fill="#000" mask="url(#j)"/><path d="M87.74 93.39h1v-1.67a3 3 0 00-3-3H75.52a3 3 0 00-3 3v1.67h15.22z" fill="#5C5C5C" stroke="#000" stroke-width="2"/><mask id="k" maskUnits="userSpaceOnUse" x="202.3" y="170.39" width="12" height="18" fill="#000"><path fill="#fff" d="M202.3 170.39h12v18h-12z"/><path fill-rule="evenodd" clip-rule="evenodd" d="M209.8 179.3a3.56 3.56 0 10-2.32 0c.02 2.85-1.48 6.42-4.18 6.42h10.66c-2.69 0-4.18-3.58-4.16-6.42z"/></mask><path fill-rule="evenodd" clip-rule="evenodd" d="M209.8 179.3a3.56 3.56 0 10-2.32 0c.02 2.85-1.48 6.42-4.18 6.42h10.66c-2.69 0-4.18-3.58-4.16-6.42z" fill="#fff"/><path d="M209.8 179.3l-.66-1.89-1.33.47-.01 1.41 2 .01zm-2.32 0l2-.01-.02-1.42-1.34-.45-.64 1.89zm2.7-3.36c0 .68-.43 1.26-1.04 1.47l1.32 3.78a5.56 5.56 0 003.73-5.25h-4zm-1.55-1.55c.86 0 1.56.7 1.56 1.55h4a5.56 5.56 0 00-5.56-5.55v4zm-1.56 1.55c0-.86.7-1.55 1.56-1.55v-4a5.55 5.55 0 00-5.56 5.55h4zm1.06 1.48a1.56 1.56 0 01-1.06-1.48h-4c0 2.44 1.58 4.51 3.76 5.26l1.3-3.78zm-4.83 10.3c2.35 0 3.95-1.58 4.85-3.15.9-1.59 1.34-3.55 1.33-5.28l-4 .04a6.83 6.83 0 01-.8 3.26c-.53.92-1.04 1.13-1.38 1.13v4zm10.66-4H203.3v4h10.66v-4zm-6.16-4.43c-.01 1.72.43 3.68 1.32 5.27.9 1.57 2.48 3.16 4.84 3.16v-4c-.33 0-.83-.2-1.35-1.13a6.95 6.95 0 01-.81-3.28l-4-.02z" fill="#000" mask="url(#k)"/><path d="M215.74 189.39h1v-1.67a3 3 0 00-3-3h-10.22a3 3 0 00-3 3v1.67h15.22z" fill="#fff" stroke="#000" stroke-width="2"/><mask id="l" maskUnits="userSpaceOnUse" x="202.3" y="42.39" width="12" height="18" fill="#000"><path fill="#fff" d="M202.3 42.39h12v18h-12z"/><path fill-rule="evenodd" clip-rule="evenodd" d="M209.8 51.3a3.56 3.56 0 10-2.32 0c.02 2.85-1.48 6.42-4.18 6.42h10.66c-2.69 0-4.18-3.58-4.16-6.42z"/></mask><path fill-rule="evenodd" clip-rule="evenodd" d="M209.8 51.3a3.56 3.56 0 10-2.32 0c.02 2.85-1.48 6.42-4.18 6.42h10.66c-2.69 0-4.18-3.58-4.16-6.42z" fill="#5C5C5C"/><path d="M209.8 51.3l-.66-1.89-1.33.47-.01 1.41 2 .01zm-2.32 0l2-.01-.02-1.42-1.34-.45-.64 1.89zm2.7-3.36c0 .68-.43 1.26-1.04 1.47l1.32 3.78a5.56 5.56 0 003.73-5.25h-4zm-1.55-1.55c.86 0 1.56.7 1.56 1.55h4a5.56 5.56 0 00-5.56-5.55v4zm-1.56 1.55c0-.86.7-1.55 1.56-1.55v-4a5.56 5.56 0 00-5.56 5.55h4zm1.06 1.48a1.56 1.56 0 01-1.06-1.48h-4c0 2.44 1.58 4.51 3.76 5.26l1.3-3.78zm-4.83 10.3c2.35 0 3.95-1.58 4.85-3.15.9-1.59 1.34-3.55 1.33-5.28l-4 .04a6.83 6.83 0 01-.8 3.26c-.53.92-1.04 1.13-1.38 1.13v4zm10.66-4H203.3v4h10.66v-4zm-6.16-4.43c-.01 1.73.43 3.68 1.32 5.27.9 1.57 2.48 3.16 4.84 3.16v-4c-.33 0-.83-.2-1.35-1.13a6.95 6.95 0 01-.81-3.28l-4-.02z" fill="#000" mask="url(#l)"/><path d="M215.74 61.39h1v-1.67a3 3 0 00-3-3h-10.22a3 3 0 00-3 3v1.67h15.22z" fill="#5C5C5C" stroke="#000" stroke-width="2"/><mask id="m" maskUnits="userSpaceOnUse" x="266.3" y="202.39" width="12" height="18" fill="#000"><path fill="#fff" d="M266.3 202.39h12v18h-12z"/><path fill-rule="evenodd" clip-rule="evenodd" d="M273.8 211.3a3.56 3.56 0 10-2.32 0c.02 2.85-1.49 6.42-4.18 6.42h10.66c-2.69 0-4.18-3.58-4.16-6.42z"/></mask><path fill-rule="evenodd" clip-rule="evenodd" d="M273.8 211.3a3.56 3.56 0 10-2.32 0c.02 2.85-1.49 6.42-4.18 6.42h10.66c-2.69 0-4.18-3.58-4.16-6.42z" fill="#fff"/><path d="M273.8 211.3l-.66-1.89-1.33.47-.01 1.41 2 .01zm-2.32 0l2-.01-.02-1.42-1.33-.45-.65 1.89zm2.7-3.36c0 .68-.43 1.26-1.04 1.47l1.31 3.78a5.56 5.56 0 003.74-5.25h-4zm-1.55-1.55c.86 0 1.56.7 1.56 1.55h4a5.56 5.56 0 00-5.56-5.55v4zm-1.56 1.55c0-.86.7-1.55 1.56-1.55v-4a5.55 5.55 0 00-5.56 5.55h4zm1.06 1.48a1.56 1.56 0 01-1.06-1.48h-4c0 2.44 1.58 4.51 3.76 5.26l1.3-3.78zm-4.83 10.3c2.35 0 3.95-1.58 4.85-3.15.9-1.59 1.34-3.55 1.33-5.28l-4 .04a6.83 6.83 0 01-.8 3.26c-.54.92-1.04 1.13-1.38 1.13v4zm10.66-4H267.3v4h10.66v-4zm-6.16-4.43c-.01 1.72.43 3.68 1.32 5.27.9 1.57 2.48 3.16 4.84 3.16v-4c-.33 0-.83-.2-1.35-1.13a6.95 6.95 0 01-.81-3.28l-4-.02z" fill="#000" mask="url(#m)"/><path d="M279.74 221.39h1v-1.67a3 3 0 00-3-3h-10.22a3 3 0 00-3 3v1.67h15.22z" fill="#fff" stroke="#000" stroke-width="2"/><mask id="n" maskUnits="userSpaceOnUse" x="266.3" y="42.39" width="12" height="18" fill="#000"><path fill="#fff" d="M266.3 42.39h12v18h-12z"/><path fill-rule="evenodd" clip-rule="evenodd" d="M273.8 51.3a3.56 3.56 0 10-2.32 0c.02 2.85-1.49 6.42-4.18 6.42h10.66c-2.69 0-4.18-3.58-4.16-6.42z"/></mask><path fill-rule="evenodd" clip-rule="evenodd" d="M273.8 51.3a3.56 3.56 0 10-2.32 0c.02 2.85-1.49 6.42-4.18 6.42h10.66c-2.69 0-4.18-3.58-4.16-6.42z" fill="#5C5C5C"/><path d="M273.8 51.3l-.66-1.89-1.33.47-.01 1.41 2 .01zm-2.32 0l2-.01-.02-1.42-1.33-.45-.65 1.89zm2.7-3.36c0 .68-.43 1.26-1.04 1.47l1.31 3.78a5.56 5.56 0 003.74-5.25h-4zm-1.55-1.55c.86 0 1.56.7 1.56 1.55h4a5.56 5.56 0 00-5.56-5.55v4zm-1.56 1.55c0-.86.7-1.55 1.56-1.55v-4a5.56 5.56 0 00-5.56 5.55h4zm1.06 1.48a1.56 1.56 0 01-1.06-1.48h-4c0 2.44 1.58 4.51 3.76 5.26l1.3-3.78zm-4.83 10.3c2.35 0 3.95-1.58 4.85-3.15.9-1.59 1.34-3.55 1.33-5.28l-4 .04a6.83 6.83 0 01-.8 3.26c-.54.92-1.04 1.13-1.38 1.13v4zm10.66-4H267.3v4h10.66v-4zm-6.16-4.43c-.01 1.73.43 3.68 1.32 5.27.9 1.57 2.48 3.16 4.84 3.16v-4c-.33 0-.83-.2-1.35-1.13a6.95 6.95 0 01-.81-3.28l-4-.02z" fill="#000" mask="url(#n)"/><path d="M279.74 61.39h1v-1.67a3 3 0 00-3-3h-10.22a3 3 0 00-3 3v1.67h15.22z" fill="#5C5C5C" stroke="#000" stroke-width="2"/><path fill-rule="evenodd" clip-rule="evenodd" d="M147.49 39.35a3 3 0 01-1.1 2.33l1.8 7.15 3.88-3.65a3.04 3.04 0 01-.33-1.38 2.91 2.91 0 012.86-2.97 2.91 2.91 0 012.86 2.97 2.91 2.91 0 01-3.05 2.95l-2.67 10.08h-14.22l-2.67-10.08a2.92 2.92 0 01-2.66-2.95 2.91 2.91 0 012.85-2.97 2.91 2.91 0 012.86 2.97c0 .6-.17 1.15-.46 1.61l3.63 3.42 1.8-7.15a3 3 0 01-1.1-2.33 2.91 2.91 0 012.86-2.96 2.91 2.91 0 012.86 2.96z" fill="#5C5C5C"/><path d="M146.4 41.68l-.64-.78-.49.4.16.62.97-.24zm1.79 7.15l-.97.24.4 1.66 1.25-1.17-.68-.73zm3.88-3.65l.69.72.54-.5-.34-.68-.89.46zm2.34 1.57l.07-1-.83-.05-.2.8.96.25zm-2.67 10.08v1h.77l.2-.74-.97-.26zm-14.22 0l-.97.26.2.74h.77v-1zm-2.67-10.08l.97-.25-.19-.7-.71-.05-.07 1zm2.59-1.34l-.85-.53-.44.7.6.56.69-.73zm3.63 3.42l-.68.73 1.24 1.17.41-1.66-.97-.24zm1.8-7.15l.96.24.16-.61-.5-.4-.63.77zm4.16.77a4 4 0 001.46-3.1h-2a2 2 0 01-.73 1.55l1.27 1.55zm2.13 6.14l-1.8-7.15-1.93.48 1.78 7.15 1.95-.48zm2.22-4.14l-3.88 3.65 1.37 1.46 3.88-3.66-1.37-1.45zm-.64-.65c0 .65.16 1.28.44 1.83l1.78-.9a2.05 2.05 0 01-.22-.93h-2zm3.86-3.97a3.91 3.91 0 00-3.86 3.97h2c0-1.12.87-1.97 1.86-1.97v-2zm3.86 3.97c0-2.16-1.7-3.97-3.86-3.97v2c.99 0 1.86.85 1.86 1.97h2zm-3.86 3.96c2.16 0 3.86-1.81 3.86-3.96h-2c0 1.11-.87 1.96-1.86 1.96v2zm-.26-.01h.26v-2h-.12l-.14 2zm-1.63 9.34L155.38 47l-1.94-.51-2.67 10.08 1.94.5zm-15.2.74h14.23v-2h-14.22v2zm-3.63-10.82l2.67 10.08 1.94-.51-2.67-10.08-1.94.5zm1.04-1.26a1.92 1.92 0 01-1.73-1.95h-2a3.92 3.92 0 003.6 3.95l.13-2zm-1.73-1.95c0-1.12.86-1.97 1.85-1.97v-2a3.91 3.91 0 00-3.85 3.97h2zm1.85-1.97c1 0 1.86.85 1.86 1.97h2c0-2.16-1.7-3.97-3.86-3.97v2zm1.86 1.97c0 .4-.12.77-.3 1.08l1.69 1.06c.39-.62.61-1.36.61-2.14h-2zm4.86 4.3l-3.64-3.42-1.37 1.46 3.64 3.42 1.37-1.46zm.13-6.66l-1.79 7.15 1.94.48 1.8-7.15-1.95-.48zm-1.12-2.09a4 4 0 001.46 3.1l1.27-1.55a2 2 0 01-.73-1.55h-2zm3.86-3.96a3.91 3.91 0 00-3.86 3.96h2c0-1.12.87-1.96 1.86-1.96v-2zm3.86 3.96c0-2.15-1.7-3.96-3.86-3.96v2c1 0 1.86.84 1.86 1.96h2z" fill="#000"/><path d="M154.4 61.39h1v-2.56a3 3 0 00-3-3h-15.55a3 3 0 00-3 3v2.56h20.56z" fill="#5C5C5C" stroke="#000" stroke-width="2"/><path d="M172.63 237.17h-.88l-.11.87-1.33 10.67-.15 1.12h12.98l-.19-1.16-1.78-10.67-.14-.83h-8.4z" fill="#fff" stroke="#000" stroke-width="2"/><path d="M169.52 230.05h-1V239.17h16.22V230.05h-3.12l-.24.66-1.18 3.23h-1.03l-.86-3.15-.2-.74h-2.95l-.2.74-.87 3.15h-1.03l-1.18-3.23-.24-.66h-2.12zM186.4 253.39h1v-2.56a3 3 0 00-3-3h-15.55a3 3 0 00-3 3v2.56h20.56z" fill="#fff" stroke="#000" stroke-width="2"/><path d="M44.63 13.17h-.88l-.11.87-1.34 10.67-.14 1.12h12.98l-.19-1.16L53.17 14l-.14-.83h-8.4z" fill="#5C5C5C" stroke="#000" stroke-width="2"/><path d="M41.52 6.05h-1V15.17h16.22V6.05h-3.12l-.24.66-1.18 3.23h-1.03l-.86-3.15-.2-.74h-2.95l-.2.74-.87 3.15h-1.03l-1.18-3.23-.24-.66h-2.12zM58.4 29.39h1v-2.56a3 3 0 00-3-3H40.86a3 3 0 00-3 3v2.56h20.56z" fill="#5C5C5C" stroke="#000" stroke-width="2"/><mask id="o" maskUnits="userSpaceOnUse" x="134.52" y="67.28" width="20" height="25" fill="#000"><path fill="#fff" d="M134.52 67.28h20v25h-20z"/><path fill-rule="evenodd" clip-rule="evenodd" d="M145.21 72.4c.55-.25.93-.82.93-1.49 0-.9-.7-1.63-1.55-1.63a1.6 1.6 0 00-1.54 1.63c0 .68.4 1.27.96 1.51l-6.49 9.4s3.12 7.53 7.08 7.48c3.97-.06 7.28-7.69 7.28-7.69l-6.67-9.2z"/></mask><path fill-rule="evenodd" clip-rule="evenodd" d="M145.21 72.4c.55-.25.93-.82.93-1.49 0-.9-.7-1.63-1.55-1.63a1.6 1.6 0 00-1.54 1.63c0 .68.4 1.27.96 1.51l-6.49 9.4s3.12 7.53 7.08 7.48c3.97-.06 7.28-7.69 7.28-7.69l-6.67-9.2z" fill="#5C5C5C"/><path d="M145.21 72.4l-.84-1.8-2.2 1.01 1.42 1.97 1.62-1.17zm-1.2.02l1.65 1.14 1.4-2.01-2.26-.97-.79 1.84zm-6.49 9.4l-1.65-1.14-.62.9.42 1 1.85-.77zm7.08 7.48l.03 2-.03-2zm7.28-7.69l1.84.8.45-1.05-.67-.92-1.62 1.17zm-7.74-10.7c0-.1.05-.24.23-.32l1.68 3.63a3.64 3.64 0 002.09-3.31h-4zm.45.37a.5.5 0 01-.36-.15.32.32 0 01-.1-.22h4c0-1.9-1.48-3.63-3.54-3.63v4zm.46-.37c0 .07-.03.15-.1.22a.5.5 0 01-.36.15v-4a3.59 3.59 0 00-3.54 3.63h4zm-.25-.33c.2.09.25.24.25.33h-4c0 1.46.85 2.79 2.18 3.35l1.57-3.68zm-5.64 12.37l6.5-9.39-3.3-2.27-6.49 9.39 3.3 2.27zm5.42 4.35c-.34 0-.83-.15-1.48-.7-.65-.52-1.29-1.29-1.87-2.15a21.38 21.38 0 01-1.75-3.14l-.09-.2a2.7 2.7 0 01-.02-.05v-.01l-1.85.76-1.85.77v.01l.02.02a10.95 10.95 0 00.15.35l.44.93c.38.75.94 1.78 1.64 2.81.7 1.02 1.58 2.13 2.64 3a6.33 6.33 0 004.07 1.6l-.05-4zm7.3-5.69l-1.84-.8v.02l-.02.05a16.08 16.08 0 01-.5 1c-.34.67-.84 1.55-1.44 2.42-.6.88-1.27 1.68-1.95 2.24-.69.57-1.2.76-1.55.76l.05 4a6.57 6.57 0 004.06-1.69c1.07-.88 1.97-2 2.69-3.04a27.12 27.12 0 002.28-4.05l.04-.08.01-.02v-.01l-1.83-.8zm-8.29-8.03l6.67 9.2 3.24-2.34-6.67-9.2-3.24 2.34z" fill="#000" mask="url(#o)"/><path d="M154.4 93.39h1v-2.56a3 3 0 00-3-3h-15.55a3 3 0 00-3 3v2.56h20.56z" fill="#5C5C5C" stroke="#000" stroke-width="2"/><path d="M144.63 79.05l3.56-2.66 1.33 1.78-4.89 3.55v-2.67z" fill="#000"/><path d="M61.63 29.94l4.48 16.73 12.25-12.24-16.73-4.49zm84.06 81.94L72.24 38.43l-2.12 2.12L143.57 114l2.12-2.12z" fill="#FFC107"/><path d="M144.63 62.94l-8.66 15h17.32l-8.66-15zm1.5 50v-36.5h-3v36.5h3z" fill="#FFC107" fill-opacity=".75"/><path fill-rule="evenodd" clip-rule="evenodd" d="M147.49 103.35a3 3 0 01-1.1 2.33l1.8 7.15 3.88-3.65a3.03 3.03 0 01-.33-1.39 2.91 2.91 0 012.86-2.96 2.91 2.91 0 012.86 2.97 2.91 2.91 0 01-3.05 2.95l-2.67 10.08h-14.22l-2.67-10.08a2.92 2.92 0 01-2.66-2.95 2.91 2.91 0 012.85-2.97 2.91 2.91 0 012.86 2.97c0 .6-.17 1.15-.46 1.61l3.63 3.42 1.8-7.15a3 3 0 01-1.1-2.33 2.91 2.91 0 012.86-2.96 2.91 2.91 0 012.86 2.96z" fill="#fff"/><path d="M146.4 105.68l-.64-.78-.49.4.16.62.97-.24zm1.79 7.15l-.97.25.4 1.65 1.25-1.17-.68-.73zm3.88-3.65l.69.72.54-.5-.34-.68-.89.46zm2.34 1.57l.07-1-.83-.05-.2.8.96.25zm-2.67 10.08v1h.77l.2-.74-.97-.26zm-14.22 0l-.97.26.2.74h.77v-1zm-2.67-10.08l.97-.25-.19-.7-.71-.05-.07 1zm2.59-1.34l-.85-.53-.44.7.6.56.69-.73zm3.63 3.42l-.68.73 1.24 1.17.41-1.66-.97-.24zm1.8-7.15l.96.24.16-.61-.5-.4-.63.77zm4.16.77a4 4 0 001.46-3.1h-2a2 2 0 01-.73 1.56l1.27 1.54zm2.13 6.14l-1.8-7.15-1.93.48 1.78 7.16 1.95-.49zm2.22-4.14l-3.88 3.65 1.37 1.46 3.88-3.66-1.37-1.45zm-.64-.66c0 .66.16 1.29.44 1.84l1.78-.9a2.04 2.04 0 01-.22-.94h-2zm3.86-3.96a3.91 3.91 0 00-3.86 3.97h2c0-1.12.87-1.97 1.86-1.97v-2zm3.86 3.97c0-2.16-1.7-3.97-3.86-3.97v2c.99 0 1.86.85 1.86 1.97h2zm-3.86 3.96c2.16 0 3.86-1.81 3.86-3.97h-2c0 1.12-.87 1.97-1.86 1.97v2zm-.26-.01h.26v-2h-.12l-.14 2zm-1.63 9.34l2.67-10.08-1.94-.51-2.67 10.08 1.94.5zm-15.2.74h14.23v-2h-14.22v2zm-3.63-10.82l2.67 10.08 1.94-.51-2.67-10.08-1.94.5zm1.04-1.26a1.92 1.92 0 01-1.73-1.95h-2a3.92 3.92 0 003.6 3.95l.13-2zm-1.73-1.95c0-1.12.86-1.97 1.85-1.97v-2a3.91 3.91 0 00-3.85 3.97h2zm1.85-1.97c1 0 1.86.85 1.86 1.97h2c0-2.16-1.7-3.97-3.86-3.97v2zm1.86 1.97c0 .4-.12.77-.3 1.08l1.69 1.06c.39-.62.61-1.36.61-2.14h-2zm4.86 4.3l-3.64-3.42-1.37 1.46 3.64 3.42 1.37-1.46zm.13-6.66l-1.79 7.15 1.94.48 1.8-7.15-1.95-.48zm-1.12-2.09a4 4 0 001.46 3.1l1.27-1.55a2 2 0 01-.73-1.55h-2zm3.86-3.96a3.91 3.91 0 00-3.86 3.96h2c0-1.12.87-1.96 1.86-1.96v-2zm3.86 3.96c0-2.15-1.7-3.96-3.86-3.96v2c1 0 1.86.84 1.86 1.96h2z" fill="#000"/><path d="M154.4 125.39h1v-2.56a3 3 0 00-3-3h-15.55a3 3 0 00-3 3v2.56h20.56z" fill="#fff" stroke="#000" stroke-width="2"/></g><defs><clipPath id="clip0"><path fill="#fff" transform="translate(.63 .94)" d="M0 0h320v288H0z"/></clipPath></defs></svg>