<svg width="321" height="289" fill="none" xmlns="http://www.w3.org/2000/svg"><g clip-path="url(#clip0)"><path fill="#FEE6C1" d="M32.3.16h256v256h-256z"/><path d="M32.3 224.16h32v32h-32v-32zM32.3 96.16h32v32h-32v-32zM32.3 160.16h32v32h-32v-32zM32.3 32.16h32v32h-32v-32zM64.3 192.16h32v32h-32v-32zM64.3 64.16h32v32h-32v-32zM64.3 128.16h32v32h-32v-32zM64.3.16h32v32h-32v-32zM160.3 224.16h32v32h-32v-32zM160.3 96.16h32v32h-32v-32zM160.3 160.16h32v32h-32v-32zM160.3 32.16h32v32h-32v-32zM192.3 192.16h32v32h-32v-32zM192.3 64.16h32v32h-32v-32zM192.3 128.16h32v32h-32v-32zM192.3.16h32v32h-32v-32zM96.3 224.16h32v32h-32v-32zM96.3 96.16h32v32h-32v-32zM96.3 160.16h32v32h-32v-32zM96.3 32.16h32v32h-32v-32zM128.3 192.16h32v32h-32v-32zM128.3 64.16h32v32h-32v-32zM128.3 128.16h32v32h-32v-32zM128.3.16h32v32h-32v-32zM224.3 224.16h32v32h-32v-32zM224.3 96.16h32v32h-32v-32zM224.3 160.16h32v32h-32v-32zM224.3 32.16h32v32h-32v-32zM256.3 192.16h32v32h-32v-32zM256.3 64.16h32v32h-32v-32zM256.3 128.16h32v32h-32v-32zM256.3.16h32v32h-32v-32z" fill="#866C4A"/><path d="M13.72 237.52v-2.54h4.44v11.68H15.3v-9.14h-1.59zM12.35 212.47l.5-.4a59 59 0 002.46-2.13c.61-.56 1.12-1.14 1.54-1.75.41-.6.62-1.2.62-1.77 0-.44-.1-.78-.3-1.03-.2-.24-.5-.36-.91-.36-.4 0-.73.15-.96.46-.23.3-.34.72-.34 1.28h-2.64c.02-.9.21-1.67.58-2.27.37-.61.86-1.06 1.45-1.35.61-.28 1.28-.43 2.02-.43 1.27 0 2.22.33 2.86.98.65.65.98 1.5.98 2.54 0 1.14-.4 2.2-1.17 3.19-.78.97-1.77 1.91-2.98 2.84h4.32v2.23h-8.03v-2.03zM12.27 174.27a3.51 3.51 0 011.12-2.64c.7-.62 1.66-.92 2.87-.92.8 0 1.48.13 2.04.41a2.96 2.96 0 011.75 2.75c0 .7-.18 1.28-.53 1.73-.35.44-.76.74-1.23.9v.06c.6.2 1.09.54 1.44 1 .35.48.53 1.08.53 1.82 0 .66-.16 1.25-.47 1.76-.3.5-.74.9-1.33 1.18-.57.29-1.26.43-2.06.43a4.7 4.7 0 01-3.07-.94c-.76-.63-1.16-1.58-1.2-2.85h2.65c.01.47.15.84.4 1.12.26.27.63.4 1.12.4.42 0 .74-.12.96-.35.24-.25.36-.57.36-.96 0-.51-.17-.88-.5-1.1-.32-.24-.84-.36-1.55-.36h-.51v-2.22h.5c.55 0 .99-.1 1.32-.27.34-.2.51-.53.51-1.01 0-.39-.1-.68-.32-.9a1.2 1.2 0 00-.88-.32c-.4 0-.7.13-.91.37-.2.25-.3.55-.34.91h-2.67zM11.67 148.58v-2.21l5.05-7.23h3.06v7.07h1.31v2.37h-1.3v2.08h-2.75v-2.08h-5.37zm5.57-6.44l-2.7 4.07h2.7v-4.06zM20.04 108.36h-5v2.2c.22-.23.52-.42.9-.57.39-.15.8-.22 1.25-.22a3.19 3.19 0 013.15 1.95c.25.58.37 1.2.37 1.87 0 1.25-.35 2.24-1.05 2.98-.7.73-1.7 1.09-2.98 1.09a5.3 5.3 0 01-2.22-.44c-.63-.3-1.12-.7-1.46-1.23a3.54 3.54 0 01-.56-1.8h2.67c.07.33.22.6.47.83.24.21.58.32 1 .32.5 0 .88-.16 1.12-.48.25-.32.37-.75.37-1.28 0-.52-.13-.92-.38-1.2-.26-.28-.63-.42-1.12-.42-.37 0-.66.1-.9.27-.23.17-.39.4-.46.7h-2.64v-6.97h7.47v2.4zM17.7 77.13a1.6 1.6 0 00-.45-.88c-.21-.2-.51-.3-.9-.3-.62 0-1.05.26-1.32.8-.27.52-.4 1.35-.42 2.5a2.4 2.4 0 011.01-.89c.45-.21.94-.32 1.47-.32a3.3 3.3 0 012.52 1c.64.65.96 1.58.96 2.76 0 .78-.16 1.46-.48 2.05a3.3 3.3 0 01-1.38 1.38c-.6.33-1.3.5-2.13.5-1.64 0-2.78-.52-3.42-1.54-.64-1.04-.96-2.52-.96-4.45 0-2.03.33-3.53 1-4.51.69-1 1.78-1.5 3.27-1.5.8 0 1.47.17 2.02.49.55.3.97.72 1.24 1.23.3.51.46 1.07.52 1.68H17.7zm-1.26 3.07c-.46 0-.85.14-1.15.42-.3.26-.45.65-.45 1.15 0 .51.14.91.41 1.2.3.29.7.43 1.22.43.47 0 .84-.14 1.1-.41.28-.3.42-.68.42-1.17 0-.5-.13-.9-.4-1.19-.27-.28-.65-.43-1.15-.43zM20.2 44.03l-4.02 9.63h-2.8l4.06-9.33h-4.97v-2.34h7.72v2.04zM13.75 16.39c-1-.54-1.5-1.38-1.5-2.52a2.86 2.86 0 011.8-2.7c.61-.29 1.36-.43 2.25-.43.88 0 1.62.14 2.22.43.6.28 1.06.66 1.36 1.14.3.46.45.99.45 1.56a2.83 2.83 0 01-1.5 2.51 3.06 3.06 0 011.8 2.85 3.37 3.37 0 01-2.16 3.22c-.65.29-1.37.43-2.17.43-.8 0-1.54-.14-2.2-.43a3.37 3.37 0 01-2.13-3.22 3.04 3.04 0 011.78-2.85zm3.92-2.1c0-.44-.13-.77-.38-1a1.34 1.34 0 00-1-.38c-.41 0-.75.13-1 .37-.25.25-.37.59-.37 1.03 0 .41.13.74.38.99.26.23.59.35 1 .35.4 0 .73-.12.99-.37.25-.24.38-.57.38-1zm-1.37 3.28c-.5 0-.91.14-1.22.42-.31.26-.46.64-.46 1.12 0 .44.14.81.44 1.1.31.29.72.43 1.24.43.5 0 .9-.14 1.2-.43.3-.29.44-.66.44-1.1 0-.47-.15-.85-.46-1.12-.3-.28-.7-.42-1.18-.42zM273.39 269.13c1.02 0 1.84.35 2.46 1.03.62.67.93 1.6.93 2.78v5.22h-2.72v-4.85c0-.6-.15-1.06-.46-1.4-.31-.32-.73-.49-1.25-.49s-.94.17-1.25.5c-.3.33-.46.8-.46 1.39v4.85h-2.74v-11.84h2.74v4.1c.27-.38.65-.7 1.13-.94a3.64 3.64 0 011.62-.35zM239.25 269.1c.63 0 1.18.13 1.65.38.48.26.85.6 1.1 1.01v-1.26h2.74v8.91a4.9 4.9 0 01-.5 2.23c-.31.67-.81 1.2-1.48 1.6-.66.39-1.5.59-2.48.59-1.33 0-2.4-.32-3.22-.95a3.5 3.5 0 01-1.4-2.53h2.7c.08.35.28.61.6.8.32.2.72.3 1.19.3.56 0 1.01-.16 1.34-.49.34-.32.51-.83.51-1.55v-1.26a3.1 3.1 0 01-2.75 1.4 3.69 3.69 0 01-3.42-2.17 5.51 5.51 0 01-.51-2.43c0-.92.17-1.73.5-2.42.36-.7.84-1.22 1.43-1.6a3.7 3.7 0 012-.56zm2.75 4.6c0-.69-.19-1.23-.57-1.62-.37-.4-.83-.6-1.38-.6-.54 0-1 .2-1.39.6a2.2 2.2 0 00-.56 1.6c0 .68.19 1.22.56 1.63.38.4.85.6 1.4.6.54 0 1-.2 1.37-.6.38-.4.57-.93.57-1.62zM210.89 271.5h-1.47v6.66h-2.74v-6.66h-1v-2.27h1v-.26c0-1.1.31-1.93.94-2.5.63-.57 1.56-.86 2.77-.86.2 0 .35 0 .45.02v2.32c-.52-.03-.9.04-1.1.22-.22.19-.32.51-.32.98v.08h1.47v2.27zM180.78 273.55c0 .25-.02.52-.05.8h-6.2c.05.55.23.98.53 1.28.32.29.71.43 1.17.43.69 0 1.16-.29 1.43-.86h2.9a3.93 3.93 0 01-.8 1.58c-.4.47-.88.84-1.46 1.1a4.7 4.7 0 01-1.97.4c-.88 0-1.65-.18-2.34-.55a3.97 3.97 0 01-1.6-1.6c-.38-.7-.57-1.5-.57-2.44 0-.93.18-1.74.56-2.43.38-.7.91-1.22 1.6-1.6a4.83 4.83 0 012.35-.56c.86 0 1.63.18 2.3.54.68.37 1.2.88 1.57 1.56.39.67.58 1.45.58 2.35zm-2.8-.72c0-.47-.16-.84-.48-1.12a1.77 1.77 0 00-1.2-.42c-.46 0-.85.14-1.17.4-.31.27-.5.65-.58 1.14h3.43zM139.32 273.68c0-.92.17-1.73.5-2.42.36-.7.84-1.22 1.43-1.6a3.7 3.7 0 013.6-.2c.5.25.88.59 1.16 1v-4.14h2.73v11.84H146v-1.28c-.25.42-.62.76-1.1 1.02-.47.26-1.02.39-1.65.39a3.69 3.69 0 01-3.42-2.18 5.51 5.51 0 01-.51-2.43zm6.69.01c0-.68-.2-1.22-.58-1.61-.37-.4-.83-.6-1.38-.6-.54 0-1 .2-1.39.6a2.2 2.2 0 00-.56 1.6c0 .68.19 1.22.56 1.63.38.4.85.6 1.4.6.54 0 1-.2 1.37-.6.38-.4.57-.93.57-1.62zM107.9 273.7c0-.94.19-1.75.56-2.44.39-.7.92-1.22 1.59-1.6a4.8 4.8 0 012.33-.56c1.12 0 2.06.3 2.8.88a4.14 4.14 0 011.5 2.48h-2.92c-.25-.68-.72-1.02-1.43-1.02-.5 0-.9.2-1.2.59-.3.38-.44.94-.44 1.66 0 .73.15 1.29.45 1.68.3.39.7.58 1.2.58.7 0 1.17-.34 1.42-1.02h2.91a4.2 4.2 0 01-1.49 2.46c-.75.6-1.69.9-2.8.9-.87 0-1.65-.2-2.33-.56a4 4 0 01-1.59-1.6c-.37-.7-.56-1.5-.56-2.44zM78.6 270.5c.25-.42.62-.76 1.1-1.01a3.45 3.45 0 011.65-.39 3.7 3.7 0 013.4 2.16c.36.7.54 1.5.54 2.42 0 .92-.18 1.72-.53 2.43a3.7 3.7 0 01-3.4 2.18 3.5 3.5 0 01-1.66-.37c-.47-.26-.84-.6-1.1-1.01v1.25h-2.74v-11.84h2.74v4.17zm3.9 3.18c0-.69-.2-1.22-.57-1.6-.38-.4-.84-.6-1.4-.6-.54 0-1 .2-1.39.6-.37.4-.56.93-.56 1.61 0 .69.19 1.23.56 1.62.39.4.85.6 1.4.6.54 0 1-.2 1.39-.6.38-.4.57-.95.57-1.63zM43.32 273.68c0-.92.17-1.73.5-2.42.36-.7.84-1.22 1.43-1.6a3.7 3.7 0 012-.56c.63 0 1.18.13 1.65.38.48.26.85.6 1.1 1.01v-1.26h2.74v8.93h-2.73v-1.27c-.27.42-.64.75-1.12 1.01-.47.26-1.02.39-1.65.39-.73 0-1.39-.2-1.99-.56a4.05 4.05 0 01-1.42-1.62 5.5 5.5 0 01-.51-2.43zm6.69.01c0-.68-.2-1.22-.58-1.61-.37-.4-.83-.6-1.38-.6-.54 0-1 .2-1.39.6a2.2 2.2 0 00-.56 1.6c0 .68.19 1.22.56 1.63.39.4.85.6 1.4.6.54 0 1-.2 1.37-.6.38-.4.58-.93.58-1.62z" fill="#000"/><mask id="a" maskUnits="userSpaceOnUse" x="227.14" y="224.71" width="26" height="26" fill="#000"><path fill="#fff" d="M227.14 224.71h26v26h-26z"/><path fill-rule="evenodd" clip-rule="evenodd" d="M247.4 248.05l2.94-7.99a2 2 0 00-1.02-2.5c-3.56-1.68-5.71-2.62-8.1-2.8v-3.6h2.79v-1.78h-2.78v-2.67h-1.86v2.67h-2.78v1.78h2.78v3.6c-2.38.19-4.53 1.12-8.09 2.8a2 2 0 00-1.02 2.5l2.93 7.99h14.22zm-8.88-10.72c-1.12.19-2.39.56-4.04 1.1a2 2 0 00-1.16 2.78l1.65 3.28h3.55v-7.16zm7.6 1.1c-1.66-.54-2.92-.91-4.04-1.1v7.16h3.55l1.64-3.28a2 2 0 00-1.15-2.78z"/></mask><path fill-rule="evenodd" clip-rule="evenodd" d="M247.4 248.05l2.94-7.99a2 2 0 00-1.02-2.5c-3.56-1.68-5.71-2.62-8.1-2.8v-3.6h2.79v-1.78h-2.78v-2.67h-1.86v2.67h-2.78v1.78h2.78v3.6c-2.38.19-4.53 1.12-8.09 2.8a2 2 0 00-1.02 2.5l2.93 7.99h14.22zm-8.88-10.72c-1.12.19-2.39.56-4.04 1.1a2 2 0 00-1.16 2.78l1.65 3.28h3.55v-7.16zm7.6 1.1c-1.66-.54-2.92-.91-4.04-1.1v7.16h3.55l1.64-3.28a2 2 0 00-1.15-2.78z" fill="#fff"/><path d="M239.45 235.75a10.2 10.2 0 011.7 0l.16-2c-.68-.05-1.35-.05-2.02 0l.16 2zm10.89 4.31l1.88.69-1.88-.69zm-2.93 7.99v2h1.4l.48-1.31-1.88-.7zm1.9-10.48l.86-1.81-.85 1.8zm-8.08-2.82h-2v1.84l1.83.15.17-1.99zm0-3.6v-2h-2v2h2zm2.78 0v2h2v-2h-2zm0-1.77h2v-2h-2v2zm-2.78 0h-2v2h2v-2zm0-2.67h2v-2h-2v2zm-1.86 0v-2h-2v2h2zm0 2.67v2h2v-2h-2zm-2.78 0v-2h-2v2h2zm0 1.78h-2v2h2v-2zm2.78 0h2v-2h-2v2zm0 3.6l.16 1.98 1.84-.15v-1.84h-2zm-8.09 2.8l.85 1.81-.85-1.8zm-1.02 2.5l1.88-.69-1.88.7zm2.93 7.99l-1.88.69.48 1.3h1.4v-2zm1.29-9.62l-.62-1.9.62 1.9zm4.04-1.1h2v-2.38l-2.34.4.34 1.98zm-5.2 3.88l1.8-.9-1.8.9zm1.65 3.28l-1.8.9.56 1.1h1.24v-2zm3.55 0v2h2v-2h-2zm3.56-7.16l.33-1.97-2.33-.4v2.37h2zm4.04 1.1l-.62 1.9.62-1.9zm-4.04 6.06h-2v2h2v-2zm3.55 0v2h1.24l.55-1.1-1.79-.9zm1.64-3.28l1.8.9-1.8-.9zm1.19-1.84l-2.93 7.99 3.76 1.38 2.93-7.99-3.76-1.38zm0 0l3.75 1.38a4 4 0 00-2.04-5l-1.7 3.62zm-7.4-2.63c1.96.16 3.79.93 7.4 2.63l1.71-3.61c-3.5-1.66-5.98-2.77-8.78-3l-.33 3.98zm-1.83-5.58v3.6h4v-3.6h-4zm4.78-2h-2.78v4H244v-4zm-2 .22v1.78h4v-1.78h-4zm-.78 2H244v-4h-2.78v4zm-2-4.67v2.67h4v-2.67h-4zm.14 2h1.86v-4h-1.86v4zm2 .67v-2.67h-4v2.67h4zm-4.78 2h2.78v-4h-2.78v4zm2-.22v-1.78h-4v1.78h4zm.78-2h-2.78v4h2.78v-4zm2 5.6v-3.6h-4v3.6h4zm-9.24 4.61c3.62-1.7 5.44-2.47 7.4-2.63l-.32-3.98c-2.8.23-5.28 1.34-8.79 3l1.72 3.61zm0 0l-1.7-3.61a4 4 0 00-2.05 4.99l3.76-1.38zm2.94 7.99l-2.93-7.99-3.76 1.38 2.93 7.99 3.75-1.38zm12.34-1.31h-14.22v4h14.22v-4zm-12.31-5.72c1.64-.54 2.79-.87 3.76-1.03l-.68-3.94c-1.28.21-2.66.62-4.32 1.17l1.24 3.8zm.01-.01h-.01l-1.24-3.8a3.99 3.99 0 00-2.32 5.58l3.57-1.78zm1.64 3.28l-1.64-3.28-3.57 1.78 1.64 3.28 3.57-1.78zm1.77-1.1h-3.56v4h3.56v-4zm-2-5.17v7.16h4v-7.16h-4zm5.22 1.97c.97.16 2.11.5 3.76 1.03l1.24-3.8a31.28 31.28 0 00-4.33-1.17l-.67 3.94zm2.34 5.2v-7.17h-4v7.16h4zm1.55-2h-3.55v4h3.55v-4zm-.15-2.18l-1.64 3.28 3.58 1.78 1.64-3.28-3.58-1.78zm.02 0c0 .01 0 0 0 0h-.01l3.57 1.78a3.99 3.99 0 00-2.32-5.57l-1.24 3.8z" fill="#000" mask="url(#a)"/><path d="M250.08 252.6h1v-2.55a3 3 0 00-3-3h-15.56a3 3 0 00-3 3v2.55h20.56z" fill="#fff" stroke="#000" stroke-width="2"/><mask id="b" maskUnits="userSpaceOnUse" x="227.14" y=".71" width="26" height="26" fill="#000"><path fill="#fff" d="M227.14.71h26v26h-26z"/><path fill-rule="evenodd" clip-rule="evenodd" d="M247.4 24.05l2.94-7.99a2 2 0 00-1.02-2.5c-3.56-1.68-5.71-2.61-8.1-2.8v-3.6h2.79V5.38h-2.78V2.71h-1.86v2.67h-2.78v1.78h2.78v3.6c-2.38.19-4.53 1.12-8.09 2.8a2 2 0 00-1.02 2.5l2.93 7.99h14.22zm-8.88-10.72c-1.12.19-2.39.56-4.04 1.1a1.99 1.99 0 00-1.16 2.78l1.65 3.28h3.55v-7.16zm7.6 1.1c-1.66-.54-2.92-.91-4.04-1.1v7.16h3.55l1.64-3.28c.54-1.09 0-2.4-1.15-2.78z"/></mask><path fill-rule="evenodd" clip-rule="evenodd" d="M247.4 24.05l2.94-7.99a2 2 0 00-1.02-2.5c-3.56-1.68-5.71-2.61-8.1-2.8v-3.6h2.79V5.38h-2.78V2.71h-1.86v2.67h-2.78v1.78h2.78v3.6c-2.38.19-4.53 1.12-8.09 2.8a2 2 0 00-1.02 2.5l2.93 7.99h14.22zm-8.88-10.72c-1.12.19-2.39.56-4.04 1.1a1.99 1.99 0 00-1.16 2.78l1.65 3.28h3.55v-7.16zm7.6 1.1c-1.66-.54-2.92-.91-4.04-1.1v7.16h3.55l1.64-3.28c.54-1.09 0-2.4-1.15-2.78z" fill="#5C5C5C"/><path d="M239.45 11.75c.57-.05 1.13-.05 1.7 0l.16-2c-.68-.05-1.35-.05-2.02 0l.16 2zm10.89 4.31l1.88.69-1.88-.69zm-2.93 7.99v2h1.4l.48-1.32-1.88-.68zm1.9-10.48l.86-1.81-.85 1.8zm-8.08-2.82h-2v1.84l1.83.15.17-1.99zm0-3.6v-2h-2v2h2zm2.78 0v2h2v-2h-2zm0-1.77h2v-2h-2v2zm-2.78 0h-2v2h2v-2zm0-2.67h2v-2h-2v2zm-1.86 0v-2h-2v2h2zm0 2.67v2h2v-2h-2zm-2.78 0v-2h-2v2h2zm0 1.78h-2v2h2v-2zm2.78 0h2v-2h-2v2zm0 3.6l.16 1.98 1.84-.15v-1.84h-2zm-8.09 2.8l.85 1.81-.85-1.8zm-1.02 2.5l1.88-.69-1.88.7zm2.93 7.99l-1.88.68.48 1.32h1.4v-2zm1.29-9.62l-.62-1.9.62 1.9zm4.04-1.1h2v-2.37l-2.34.4.34 1.97zm-5.2 3.88l1.8-.9-1.8.9zm1.65 3.28l-1.8.9.56 1.1h1.24v-2zm3.55 0v2h2v-2h-2zm3.56-7.16l.33-1.97-2.33-.4v2.37h2zm4.04 1.1l.62-1.9-.62 1.9zm-4.04 6.06h-2v2h2v-2zm3.55 0v2h1.24l.55-1.1-1.79-.9zm1.64-3.28l1.8.9-1.8-.9zm1.19-1.84l-2.93 7.99 3.76 1.37 2.93-7.98-3.76-1.38zm0 0l3.75 1.38a4 4 0 00-2.04-5l-1.7 3.62zm-7.4-2.63c1.96.16 3.79.93 7.4 2.63l1.71-3.61c-3.5-1.66-5.98-2.77-8.78-3l-.33 3.98zm-1.83-5.58v3.6h4v-3.6h-4zm4.78-2h-2.78v4H244v-4zm-2 .22v1.78h4V5.38h-4zm-.78 2H244v-4h-2.78v4zm-2-4.67v2.67h4V2.71h-4zm.14 2h1.86v-4h-1.86v4zm2 .67V2.71h-4v2.67h4zm-4.78 2h2.78v-4h-2.78v4zm2-.22V5.38h-4v1.78h4zm.78-2h-2.78v4h2.78v-4zm2 5.6v-3.6h-4v3.6h4zm-9.24 4.61c3.62-1.7 5.44-2.47 7.4-2.63l-.32-3.98c-2.8.23-5.28 1.34-8.79 3l1.72 3.61zm0 0l-1.7-3.61a4 4 0 00-2.05 4.99l3.76-1.38zm2.94 7.99l-2.93-7.99-3.76 1.38 2.93 7.98 3.75-1.37zm12.34-1.31h-14.22v4h14.22v-4zm-12.31-5.72c1.64-.54 2.79-.87 3.76-1.03l-.68-3.94c-1.28.22-2.66.62-4.32 1.17l1.24 3.8zm.01-.01h-.01l-1.24-3.8a3.99 3.99 0 00-2.32 5.58l3.57-1.78zm1.64 3.28l-1.64-3.28-3.57 1.78 1.64 3.29 3.57-1.8zm1.77-1.1h-3.56v4h3.56v-4zm-2-5.17v7.16h4v-7.16h-4zm5.22 1.97c.97.16 2.11.5 3.76 1.03l1.24-3.8a31.3 31.3 0 00-4.33-1.17l-.67 3.94zm2.34 5.2v-7.17h-4v7.16h4zm1.55-2h-3.55v4h3.55v-4zm-.15-2.18l-1.64 3.28 3.58 1.79 1.64-3.29-3.58-1.78zm.02 0c0 .01 0 0 0 0h-.01l3.57 1.78a3.99 3.99 0 00-2.32-5.57l-1.24 3.8z" fill="#000" mask="url(#b)"/><path d="M250.08 28.6h1v-2.55a3 3 0 00-3-3h-15.56a3 3 0 00-3 3v2.55h20.56zM148.08 120.16h.54l.3-.45-.84-.55.84.55h0v-.02l.03-.04.1-.15.34-.56c.28-.48.68-1.16 1.1-1.97a28.51 28.51 0 002.39-6.06c.54-2.2.7-4.64-.4-6.58-1.16-2.02-3.49-3.15-7.14-3.15h-.02a.42.42 0 01-.13-.06s0 0 0 0c-.03-.02-.2-.12-.2-.63v-1h-1c-.52 0-.95.28-1.19.45-.28.21-.56.47-.78.7a11.96 11.96 0 00-.72.81l-2.6 1.9-.15.12-.1.16-2.72 4.4-.25.4.15.44 1 3.04.41 1.29 1.1-.78 2.32-1.62 1.7-1.14c.87.32 1.24.67 1.4.87l.06.1-.04.1a16.56 16.56 0 01-3.55 4.57 3.17 3.17 0 00-.66 3.96l.24.4.29.5h8.17z" fill="#5C5C5C" stroke="#000" stroke-width="2"/><path d="M154.08 124.6h1v-2.55a3 3 0 00-3-3h-15.56a3 3 0 00-3 3v2.55h20.56z" fill="#5C5C5C" stroke="#000" stroke-width="2"/><path d="M139.85 104.94l.9-.45v.33a1 1 0 01-1 1h-.34l.44-.88z" fill="#000"/><mask id="c" maskUnits="userSpaceOnUse" x="265.96" y="201.6" width="12" height="18" fill="#000"><path fill="#fff" d="M265.96 201.6h12v18h-12z"/><path fill-rule="evenodd" clip-rule="evenodd" d="M273.47 210.52a3.56 3.56 0 10-2.33 0c.03 2.85-1.48 6.41-4.18 6.41h10.67c-2.7 0-4.18-3.58-4.16-6.41z"/></mask><path fill-rule="evenodd" clip-rule="evenodd" d="M273.47 210.52a3.56 3.56 0 10-2.33 0c.03 2.85-1.48 6.41-4.18 6.41h10.67c-2.7 0-4.18-3.58-4.16-6.41z" fill="#fff"/><path d="M273.47 210.52l-.66-1.9-1.34.47v1.42h2zm-2.33 0l2-.02v-1.41l-1.35-.46-.65 1.9zm2.71-3.36c0 .67-.43 1.25-1.04 1.47l1.31 3.78a5.56 5.56 0 003.73-5.25h-4zm-1.55-1.56c.86 0 1.55.7 1.55 1.56h4a5.56 5.56 0 00-5.55-5.56v4zm-1.56 1.56c0-.86.7-1.56 1.56-1.56v-4a5.55 5.55 0 00-5.56 5.56h4zm1.05 1.47a1.56 1.56 0 01-1.05-1.47h-4c0 2.44 1.57 4.5 3.75 5.25l1.3-3.78zm-4.83 10.3c2.36 0 3.96-1.57 4.85-3.15.9-1.58 1.35-3.54 1.33-5.28l-4 .04a6.83 6.83 0 01-.8 3.27c-.53.92-1.03 1.13-1.38 1.13v4zm10.67-4h-10.67v4h10.67v-4zm-6.16-4.42c-.01 1.72.42 3.67 1.32 5.26.89 1.57 2.48 3.16 4.84 3.16v-4c-.33 0-.83-.2-1.36-1.13a6.95 6.95 0 01-.8-3.27l-4-.02z" fill="#000" mask="url(#c)"/><path d="M279.41 220.6h1V218.94a3 3 0 00-3-3h-10.22a3 3 0 00-3 3V220.6h15.22z" fill="#fff" stroke="#000" stroke-width="2"/><mask id="d" maskUnits="userSpaceOnUse" x="265.96" y="41.6" width="12" height="18" fill="#000"><path fill="#fff" d="M265.96 41.6h12v18h-12z"/><path fill-rule="evenodd" clip-rule="evenodd" d="M273.47 50.52a3.56 3.56 0 10-2.33 0c.03 2.85-1.48 6.41-4.18 6.41h10.67c-2.7 0-4.18-3.58-4.16-6.41z"/></mask><path fill-rule="evenodd" clip-rule="evenodd" d="M273.47 50.52a3.56 3.56 0 10-2.33 0c.03 2.85-1.48 6.41-4.18 6.41h10.67c-2.7 0-4.18-3.58-4.16-6.41z" fill="#5C5C5C"/><path d="M273.47 50.52l-.66-1.9-1.34.47v1.42h2zm-2.33 0l2-.02V49.1l-1.35-.46-.65 1.9zm2.71-3.36c0 .67-.43 1.25-1.04 1.47l1.31 3.78a5.56 5.56 0 003.73-5.25h-4zm-1.55-1.56c.86 0 1.55.7 1.55 1.56h4a5.56 5.56 0 00-5.55-5.56v4zm-1.56 1.56c0-.86.7-1.56 1.56-1.56v-4a5.56 5.56 0 00-5.56 5.56h4zm1.05 1.47a1.56 1.56 0 01-1.05-1.47h-4c0 2.44 1.57 4.5 3.75 5.25l1.3-3.78zm-4.83 10.3c2.36 0 3.96-1.57 4.85-3.14.9-1.6 1.35-3.55 1.33-5.29l-4 .04a6.83 6.83 0 01-.8 3.27c-.53.92-1.03 1.12-1.38 1.12v4zm10.67-4h-10.67v4h10.67v-4zm-6.16-4.42c-.01 1.72.42 3.67 1.32 5.26.89 1.57 2.48 3.16 4.84 3.16v-4c-.33 0-.83-.2-1.36-1.13a6.95 6.95 0 01-.8-3.27l-4-.02z" fill="#000" mask="url(#d)"/><path d="M279.41 60.6h1V58.94a3 3 0 00-3-3h-10.22a3 3 0 00-3 3V60.6h15.22z" fill="#5C5C5C" stroke="#000" stroke-width="2"/><mask id="e" maskUnits="userSpaceOnUse" x="201.97" y="201.6" width="12" height="18" fill="#000"><path fill="#fff" d="M201.97 201.6h12v18h-12z"/><path fill-rule="evenodd" clip-rule="evenodd" d="M209.47 210.52a3.56 3.56 0 10-2.33 0c.03 2.85-1.48 6.41-4.17 6.41h10.66c-2.7 0-4.18-3.58-4.16-6.41z"/></mask><path fill-rule="evenodd" clip-rule="evenodd" d="M209.47 210.52a3.56 3.56 0 10-2.33 0c.03 2.85-1.48 6.41-4.17 6.41h10.66c-2.7 0-4.18-3.58-4.16-6.41z" fill="#fff"/><path d="M209.47 210.52l-.66-1.9-1.34.47v1.42h2zm-2.33 0l2-.02v-1.41l-1.35-.46-.65 1.9zm2.71-3.36c0 .67-.43 1.25-1.04 1.47l1.31 3.78a5.56 5.56 0 003.73-5.25h-4zm-1.55-1.56c.86 0 1.55.7 1.55 1.56h4a5.56 5.56 0 00-5.55-5.56v4zm-1.56 1.56c0-.86.7-1.56 1.56-1.56v-4a5.55 5.55 0 00-5.56 5.56h4zm1.05 1.47a1.56 1.56 0 01-1.05-1.47h-4c0 2.44 1.57 4.5 3.75 5.25l1.3-3.78zm-4.82 10.3c2.35 0 3.95-1.57 4.84-3.15.9-1.58 1.35-3.54 1.33-5.28l-4 .04a6.83 6.83 0 01-.8 3.27c-.53.92-1.03 1.13-1.38 1.13v4zm10.66-4h-10.66v4h10.66v-4zm-6.16-4.42c-.01 1.72.43 3.67 1.32 5.26.89 1.57 2.48 3.16 4.84 3.16v-4c-.33 0-.83-.2-1.35-1.13a6.95 6.95 0 01-.81-3.27l-4-.02z" fill="#000" mask="url(#e)"/><path d="M215.41 220.6h1V218.94a3 3 0 00-3-3h-10.22a3 3 0 00-3 3V220.6h15.22z" fill="#fff" stroke="#000" stroke-width="2"/><mask id="f" maskUnits="userSpaceOnUse" x="201.97" y="41.6" width="12" height="18" fill="#000"><path fill="#fff" d="M201.97 41.6h12v18h-12z"/><path fill-rule="evenodd" clip-rule="evenodd" d="M209.47 50.52a3.56 3.56 0 10-2.33 0c.03 2.85-1.48 6.41-4.17 6.41h10.66c-2.7 0-4.18-3.58-4.16-6.41z"/></mask><path fill-rule="evenodd" clip-rule="evenodd" d="M209.47 50.52a3.56 3.56 0 10-2.33 0c.03 2.85-1.48 6.41-4.17 6.41h10.66c-2.7 0-4.18-3.58-4.16-6.41z" fill="#5C5C5C"/><path d="M209.47 50.52l-.66-1.9-1.34.47v1.42h2zm-2.33 0l2-.02V49.1l-1.35-.46-.65 1.9zm2.71-3.36c0 .67-.43 1.25-1.04 1.47l1.31 3.78a5.56 5.56 0 003.73-5.25h-4zm-1.55-1.56c.86 0 1.55.7 1.55 1.56h4a5.56 5.56 0 00-5.55-5.56v4zm-1.56 1.56c0-.86.7-1.56 1.56-1.56v-4a5.56 5.56 0 00-5.56 5.56h4zm1.05 1.47a1.56 1.56 0 01-1.05-1.47h-4c0 2.44 1.57 4.5 3.75 5.25l1.3-3.78zm-4.82 10.3c2.35 0 3.95-1.57 4.84-3.14.9-1.6 1.35-3.55 1.33-5.29l-4 .04a6.83 6.83 0 01-.8 3.27c-.53.92-1.03 1.12-1.38 1.12v4zm10.66-4h-10.66v4h10.66v-4zm-6.16-4.42c-.01 1.72.43 3.67 1.32 5.26.89 1.57 2.48 3.16 4.84 3.16v-4c-.33 0-.83-.2-1.35-1.13a6.95 6.95 0 01-.81-3.27l-4-.02z" fill="#000" mask="url(#f)"/><path d="M215.41 60.6h1V58.94a3 3 0 00-3-3h-10.22a3 3 0 00-3 3V60.6h15.22z" fill="#5C5C5C" stroke="#000" stroke-width="2"/><mask id="g" maskUnits="userSpaceOnUse" x="169.97" y="73.6" width="12" height="18" fill="#000"><path fill="#fff" d="M169.97 73.6h12v18h-12z"/><path fill-rule="evenodd" clip-rule="evenodd" d="M177.47 82.52a3.56 3.56 0 10-2.33 0c.03 2.85-1.48 6.41-4.17 6.41h10.66c-2.7 0-4.18-3.58-4.16-6.41z"/></mask><path fill-rule="evenodd" clip-rule="evenodd" d="M177.47 82.52a3.56 3.56 0 10-2.33 0c.03 2.85-1.48 6.41-4.17 6.41h10.66c-2.7 0-4.18-3.58-4.16-6.41z" fill="#5C5C5C"/><path d="M177.47 82.52l-.66-1.9-1.34.47v1.42h2zm-2.33 0l2-.02V81.1l-1.35-.46-.65 1.9zm2.71-3.36c0 .67-.43 1.25-1.04 1.47l1.31 3.78a5.56 5.56 0 003.73-5.25h-4zm-1.55-1.56c.86 0 1.55.7 1.55 1.56h4a5.56 5.56 0 00-5.55-5.56v4zm-1.56 1.56c0-.86.7-1.56 1.56-1.56v-4a5.56 5.56 0 00-5.56 5.56h4zm1.05 1.47a1.56 1.56 0 01-1.05-1.47h-4c0 2.44 1.57 4.5 3.75 5.25l1.3-3.78zm-4.82 10.3c2.35 0 3.95-1.57 4.84-3.14.9-1.6 1.35-3.55 1.33-5.29l-4 .04a6.83 6.83 0 01-.8 3.27c-.53.92-1.03 1.12-1.38 1.12v4zm10.66-4h-10.66v4h10.66v-4zm-6.16-4.42c-.01 1.72.43 3.67 1.32 5.26.89 1.57 2.48 3.16 4.84 3.16v-4c-.33 0-.83-.2-1.35-1.13a6.95 6.95 0 01-.81-3.27l-4-.02z" fill="#000" mask="url(#g)"/><path d="M183.41 92.6h1V90.94a3 3 0 00-3-3h-10.22a3 3 0 00-3 3V92.6h15.22z" fill="#5C5C5C" stroke="#000" stroke-width="2"/><path fill="#E94E58" fill-opacity=".75" d="M192.3 64.16h32v32h-32z"/><mask id="h" maskUnits="userSpaceOnUse" x="41.96" y="105.6" width="12" height="18" fill="#000"><path fill="#fff" d="M41.96 105.6h12v18h-12z"/><path fill-rule="evenodd" clip-rule="evenodd" d="M49.47 114.52a3.56 3.56 0 10-2.33 0c.03 2.85-1.48 6.42-4.18 6.42h10.67c-2.7 0-4.18-3.59-4.16-6.42z"/></mask><path fill-rule="evenodd" clip-rule="evenodd" d="M49.47 114.52a3.56 3.56 0 10-2.33 0c.03 2.85-1.48 6.42-4.18 6.42h10.67c-2.7 0-4.18-3.59-4.16-6.42z" fill="#5C5C5C"/><path d="M49.47 114.52l-.66-1.9-1.34.47v1.42h2zm-2.33 0l2-.02v-1.41l-1.35-.46-.65 1.9zm2.71-3.36c0 .67-.43 1.26-1.04 1.47l1.31 3.78a5.56 5.56 0 003.73-5.25h-4zm-1.55-1.56c.86 0 1.55.7 1.55 1.56h4a5.56 5.56 0 00-5.55-5.56v4zm-1.56 1.56c0-.86.7-1.56 1.56-1.56v-4a5.56 5.56 0 00-5.56 5.56h4zm1.05 1.47a1.56 1.56 0 01-1.05-1.47h-4c0 2.44 1.57 4.5 3.76 5.25l1.3-3.78zm-4.83 10.3c2.36 0 3.96-1.57 4.85-3.15.9-1.58 1.35-3.54 1.33-5.28l-4 .04a6.83 6.83 0 01-.8 3.27c-.53.92-1.03 1.13-1.38 1.13v4zm10.67-4H42.96v4h10.67v-4zm-6.16-4.42c-.01 1.72.42 3.67 1.32 5.26.89 1.57 2.48 3.17 4.84 3.17v-4c-.33 0-.83-.2-1.36-1.13a6.96 6.96 0 01-.8-3.28l-4-.02z" fill="#000" mask="url(#h)"/><path d="M55.41 124.6h1V122.94a3 3 0 00-3-3H43.19a3 3 0 00-3 3V124.6H55.4z" fill="#5C5C5C" stroke="#000" stroke-width="2"/><mask id="i" maskUnits="userSpaceOnUse" x="233.97" y="201.6" width="12" height="18" fill="#000"><path fill="#fff" d="M233.97 201.6h12v18h-12z"/><path fill-rule="evenodd" clip-rule="evenodd" d="M241.47 210.52a3.56 3.56 0 10-2.33 0c.03 2.85-1.48 6.41-4.17 6.41h10.66c-2.7 0-4.18-3.58-4.16-6.41z"/></mask><path fill-rule="evenodd" clip-rule="evenodd" d="M241.47 210.52a3.56 3.56 0 10-2.33 0c.03 2.85-1.48 6.41-4.17 6.41h10.66c-2.7 0-4.18-3.58-4.16-6.41z" fill="#fff"/><path d="M241.47 210.52l-.66-1.9-1.34.47v1.42h2zm-2.33 0l2-.02v-1.41l-1.35-.46-.65 1.9zm2.71-3.36c0 .67-.43 1.25-1.04 1.47l1.31 3.78a5.56 5.56 0 003.73-5.25h-4zm-1.55-1.56c.86 0 1.55.7 1.55 1.56h4a5.56 5.56 0 00-5.55-5.56v4zm-1.56 1.56c0-.86.7-1.56 1.56-1.56v-4a5.55 5.55 0 00-5.56 5.56h4zm1.05 1.47a1.56 1.56 0 01-1.05-1.47h-4c0 2.44 1.57 4.5 3.75 5.25l1.3-3.78zm-4.82 10.3c2.35 0 3.95-1.57 4.84-3.15.9-1.58 1.35-3.54 1.33-5.28l-4 .04a6.83 6.83 0 01-.8 3.27c-.53.92-1.03 1.13-1.38 1.13v4zm10.66-4h-10.66v4h10.66v-4zm-6.16-4.42c-.01 1.72.43 3.67 1.32 5.26.89 1.57 2.48 3.16 4.84 3.16v-4c-.33 0-.83-.2-1.35-1.13a6.95 6.95 0 01-.81-3.27l-4-.02z" fill="#000" mask="url(#i)"/><path d="M247.41 220.6h1V218.94a3 3 0 00-3-3h-10.22a3 3 0 00-3 3V220.6h15.22z" fill="#fff" stroke="#000" stroke-width="2"/><mask id="j" maskUnits="userSpaceOnUse" x="233.97" y="41.6" width="12" height="18" fill="#000"><path fill="#fff" d="M233.97 41.6h12v18h-12z"/><path fill-rule="evenodd" clip-rule="evenodd" d="M241.47 50.52a3.56 3.56 0 10-2.33 0c.03 2.85-1.48 6.41-4.17 6.41h10.66c-2.7 0-4.18-3.58-4.16-6.41z"/></mask><path fill-rule="evenodd" clip-rule="evenodd" d="M241.47 50.52a3.56 3.56 0 10-2.33 0c.03 2.85-1.48 6.41-4.17 6.41h10.66c-2.7 0-4.18-3.58-4.16-6.41z" fill="#5C5C5C"/><path d="M241.47 50.52l-.66-1.9-1.34.47v1.42h2zm-2.33 0l2-.02V49.1l-1.35-.46-.65 1.9zm2.71-3.36c0 .67-.43 1.25-1.04 1.47l1.31 3.78a5.56 5.56 0 003.73-5.25h-4zm-1.55-1.56c.86 0 1.55.7 1.55 1.56h4a5.56 5.56 0 00-5.55-5.56v4zm-1.56 1.56c0-.86.7-1.56 1.56-1.56v-4a5.56 5.56 0 00-5.56 5.56h4zm1.05 1.47a1.56 1.56 0 01-1.05-1.47h-4c0 2.44 1.57 4.5 3.75 5.25l1.3-3.78zm-4.82 10.3c2.35 0 3.95-1.57 4.84-3.14.9-1.6 1.35-3.55 1.33-5.29l-4 .04a6.83 6.83 0 01-.8 3.27c-.53.92-1.03 1.12-1.38 1.12v4zm10.66-4h-10.66v4h10.66v-4zm-6.16-4.42c-.01 1.72.43 3.67 1.32 5.26.89 1.57 2.48 3.16 4.84 3.16v-4c-.33 0-.83-.2-1.35-1.13a6.95 6.95 0 01-.81-3.27l-4-.02z" fill="#000" mask="url(#j)"/><path d="M247.41 60.6h1V58.94a3 3 0 00-3-3h-10.22a3 3 0 00-3 3V60.6h15.22z" fill="#5C5C5C" stroke="#000" stroke-width="2"/><mask id="k" maskUnits="userSpaceOnUse" x="105.97" y="73.6" width="12" height="18" fill="#000"><path fill="#fff" d="M105.97 73.6h12v18h-12z"/><path fill-rule="evenodd" clip-rule="evenodd" d="M113.47 82.52a3.56 3.56 0 10-2.33 0c.03 2.85-1.48 6.41-4.17 6.41h10.66c-2.7 0-4.18-3.58-4.16-6.41z"/></mask><path fill-rule="evenodd" clip-rule="evenodd" d="M113.47 82.52a3.56 3.56 0 10-2.33 0c.03 2.85-1.48 6.41-4.17 6.41h10.66c-2.7 0-4.18-3.58-4.16-6.41z" fill="#fff"/><path d="M113.47 82.52l-.66-1.9-1.34.47v1.42h2zm-2.33 0l2-.02V81.1l-1.35-.46-.65 1.9zm2.71-3.36c0 .67-.43 1.25-1.04 1.47l1.31 3.78a5.56 5.56 0 003.73-5.25h-4zm-1.55-1.56c.86 0 1.55.7 1.55 1.56h4a5.56 5.56 0 00-5.55-5.56v4zm-1.56 1.56c0-.86.7-1.56 1.56-1.56v-4a5.56 5.56 0 00-5.56 5.56h4zm1.05 1.47a1.56 1.56 0 01-1.05-1.47h-4c0 2.44 1.58 4.5 3.76 5.25l1.3-3.78zm-4.83 10.3c2.36 0 3.96-1.57 4.85-3.14.9-1.6 1.35-3.55 1.33-5.29l-4 .04a6.83 6.83 0 01-.8 3.27c-.53.92-1.03 1.12-1.38 1.12v4zm10.67-4h-10.66v4h10.66v-4zm-6.16-4.42c-.01 1.72.42 3.67 1.32 5.26.89 1.57 2.48 3.16 4.84 3.16v-4c-.33 0-.83-.2-1.35-1.13a6.95 6.95 0 01-.81-3.27l-4-.02z" fill="#000" mask="url(#k)"/><path d="M119.41 92.6h1V90.94a3 3 0 00-3-3h-10.22a3 3 0 00-3 3V92.6h15.22z" fill="#fff" stroke="#000" stroke-width="2"/><path fill-rule="evenodd" clip-rule="evenodd" d="M243.16 166.56a3 3 0 01-1.1 2.33l1.8 7.16 3.88-3.66a3.03 3.03 0 01-.33-1.38 2.91 2.91 0 012.86-2.96 2.91 2.91 0 012.85 2.96 2.91 2.91 0 01-3.04 2.96l-2.67 10.08h-14.22l-2.67-10.09a2.92 2.92 0 01-2.67-2.95 2.91 2.91 0 012.86-2.96 2.91 2.91 0 012.86 2.96c0 .6-.17 1.15-.46 1.61l3.63 3.43 1.8-7.16a3 3 0 01-1.1-2.32 2.91 2.91 0 012.86-2.97 2.91 2.91 0 012.85 2.97z" fill="#fff"/><path d="M242.06 168.9l-.63-.78-.49.4.16.61.97-.24zm1.8 7.15l-.98.24.42 1.65 1.24-1.17-.69-.72zm3.88-3.66l.68.73.55-.52-.34-.66-.9.45zm2.34 1.58l.06-1-.82-.06-.2.8.96.26zm-2.67 10.08v1h.77l.2-.75-.97-.25zm-14.22 0l-.97.25.2.75h.77v-1zm-2.67-10.09l.97-.25-.19-.7-.71-.04-.07 1zm2.59-1.34l-.85-.53-.44.7.6.56.69-.73zm3.63 3.43l-.68.72 1.24 1.17.41-1.65-.97-.24zm1.8-7.16l.96.25.16-.62-.5-.4-.63.77zm4.16.78a4 4 0 001.46-3.1h-2a2 2 0 01-.73 1.55l1.27 1.55zm2.12 6.13l-1.78-7.15-1.94.48 1.78 7.16 1.94-.49zm2.23-4.14l-3.88 3.66 1.37 1.45 3.88-3.65-1.37-1.46zm-.64-.65c0 .66.16 1.28.44 1.83l1.78-.9a2.04 2.04 0 01-.22-.93h-2zm3.86-3.96a3.91 3.91 0 00-3.86 3.96h2c0-1.12.87-1.96 1.86-1.96v-2zm3.85 3.96c0-2.16-1.69-3.96-3.85-3.96v2c.99 0 1.85.84 1.85 1.96h2zm-3.85 3.96c2.16 0 3.85-1.8 3.85-3.96h-2c0 1.12-.86 1.96-1.85 1.96v2zm-.26 0h.26v-2h-.13l-.13 2zm-1.63 9.33l2.66-10.08-1.93-.51-2.67 10.08 1.94.51zm-15.2.75h14.23v-2h-14.22v2zm-3.63-10.83l2.67 10.08 1.93-.51-2.66-10.08-1.94.51zm1.04-1.25a1.92 1.92 0 01-1.74-1.96h-2a3.92 3.92 0 003.6 3.95l.14-2zm-1.74-1.96c0-1.12.87-1.96 1.86-1.96v-2a3.91 3.91 0 00-3.86 3.96h2zm1.86-1.96c1 0 1.86.84 1.86 1.96h2c0-2.16-1.7-3.96-3.86-3.96v2zm1.86 1.96c0 .4-.12.77-.31 1.08l1.7 1.07c.38-.63.6-1.36.6-2.15h-2zm4.86 4.3l-3.64-3.41-1.37 1.45 3.64 3.42 1.37-1.45zm.13-6.66l-1.79 7.15 1.94.49 1.8-7.16-1.95-.48zm-1.12-2.09a4 4 0 001.46 3.1l1.26-1.54a2 2 0 01-.72-1.56h-2zm3.86-3.96a3.91 3.91 0 00-3.86 3.97h2c0-1.12.87-1.97 1.86-1.97v-2zm3.85 3.97c0-2.16-1.69-3.97-3.85-3.97v2c.99 0 1.85.85 1.85 1.97h2z" fill="#000"/><path d="M250.08 188.6h1v-2.55a3 3 0 00-3-3h-15.56a3 3 0 00-3 3v2.55h20.56z" fill="#fff" stroke="#000" stroke-width="2"/><path fill-rule="evenodd" clip-rule="evenodd" d="M211.16 70.56a3 3 0 01-1.1 2.33l1.8 7.16 3.88-3.66a3.04 3.04 0 01-.33-1.38 2.91 2.91 0 012.86-2.96 2.91 2.91 0 012.85 2.96 2.91 2.91 0 01-3.04 2.96l-2.67 10.08h-14.22l-2.67-10.08a2.92 2.92 0 01-2.67-2.96 2.91 2.91 0 012.86-2.96 2.91 2.91 0 012.86 2.96c0 .6-.17 1.15-.46 1.61l3.63 3.43 1.8-7.16a3 3 0 01-1.1-2.33 2.91 2.91 0 012.86-2.96 2.91 2.91 0 012.85 2.96z" fill="#5C5C5C"/><path d="M210.06 72.9l-.63-.78-.49.4.16.62.97-.25zm1.8 7.15l-.98.24.42 1.65 1.24-1.17-.69-.72zm3.88-3.66l.68.73.55-.52-.34-.66-.9.45zm2.34 1.58l.06-1-.82-.06-.2.8.96.26zm-2.67 10.08v1h.77l.2-.75-.97-.25zm-14.22 0l-.97.25.2.75h.77v-1zm-2.67-10.08l.97-.26-.19-.7-.71-.04-.07 1zm2.59-1.35l-.85-.53-.44.7.6.56.69-.73zm3.63 3.43l-.68.72 1.24 1.17.41-1.65-.97-.24zm1.8-7.16l.96.25.16-.62-.5-.4-.63.77zm4.16.78a4 4 0 001.46-3.1h-2a2 2 0 01-.73 1.55l1.27 1.55zm2.12 6.13l-1.78-7.15-1.94.49 1.78 7.15 1.94-.49zm2.23-4.14l-3.88 3.66 1.37 1.45 3.88-3.65-1.37-1.46zm-.64-.65c0 .66.16 1.28.44 1.83l1.78-.9a2.03 2.03 0 01-.22-.93h-2zm3.86-3.96A3.91 3.91 0 00214.4 75h2c0-1.12.87-1.96 1.86-1.96v-2zm3.85 3.96c0-2.16-1.69-3.96-3.85-3.96v2c.99 0 1.85.84 1.85 1.96h2zm-3.85 3.96c2.16 0 3.85-1.8 3.85-3.96h-2c0 1.12-.86 1.96-1.85 1.96v2zm-.26 0h.26v-2h-.13l-.13 2zm-1.63 9.33l2.66-10.08-1.93-.51-2.67 10.08 1.94.51zm-15.2.75h14.23v-2h-14.22v2zm-3.63-10.83l2.67 10.08 1.93-.51-2.66-10.08-1.94.51zm1.04-1.25a1.92 1.92 0 01-1.74-1.96h-2a3.92 3.92 0 003.6 3.95l.14-2zM196.85 75c0-1.12.87-1.96 1.86-1.96v-2a3.91 3.91 0 00-3.86 3.96h2zm1.86-1.96c1 0 1.86.84 1.86 1.96h2c0-2.16-1.7-3.96-3.86-3.96v2zm1.86 1.96c0 .4-.12.77-.31 1.08l1.7 1.07c.38-.63.6-1.36.6-2.15h-2zm4.86 4.3l-3.64-3.41-1.37 1.45 3.64 3.42 1.37-1.45zm.13-6.66l-1.79 7.15 1.94.49 1.8-7.15-1.95-.49zm-1.12-2.09a4 4 0 001.46 3.1l1.26-1.54a2 2 0 01-.72-1.56h-2zm3.86-3.96a3.91 3.91 0 00-3.86 3.96h2c0-1.11.87-1.96 1.86-1.96v-2zm3.85 3.96c0-2.15-1.69-3.96-3.85-3.96v2c.99 0 1.85.85 1.85 1.96h2z" fill="#000"/><path d="M218.08 92.6h1v-2.55a3 3 0 00-3-3h-15.56a3 3 0 00-3 3v2.55h20.56z" fill="#5C5C5C" stroke="#000" stroke-width="2"/><path d="M204.3 236.38h-.89l-.1.88-1.34 10.66-.14 1.13h12.98l-.2-1.17-1.77-10.66-.14-.84h-8.4z" fill="#fff" stroke="#000" stroke-width="2"/><path d="M201.19 229.27h-1v9.11h16.22v-9.11h-3.12l-.24.66-1.18 3.23h-1.03l-.87-3.16-.2-.73H206.82l-.2.73-.86 3.16h-1.03l-1.18-3.23-.24-.66h-2.12zM218.08 252.6h1v-2.55a3 3 0 00-3-3h-15.56a3 3 0 00-3 3v2.55h20.56z" fill="#fff" stroke="#000" stroke-width="2"/><path d="M140.3 12.38h-.89l-.1.88-1.34 10.66-.14 1.13h12.98l-.2-1.17-1.77-10.66-.14-.84h-8.4z" fill="#5C5C5C" stroke="#000" stroke-width="2"/><path d="M137.19 5.27h-1v9.11h16.22V5.27h-3.12l-.24.66-1.18 3.23h-1.03L145.97 6l-.2-.73H142.82l-.2.73-.86 3.16h-1.03l-1.18-3.23-.24-.66h-2.12zM154.08 28.6h1v-2.55a3 3 0 00-3-3h-15.56a3 3 0 00-3 3v2.55h20.56z" fill="#5C5C5C" stroke="#000" stroke-width="2"/><path d="M108.3 236.38h-.88l-.11.88-1.34 10.66-.14 1.13h12.98l-.2-1.17-1.77-10.66-.14-.84h-8.4z" fill="#fff" stroke="#000" stroke-width="2"/><path d="M105.19 229.27h-1v9.11h16.22v-9.11h-3.12l-.24.66-1.18 3.23h-1.03l-.87-3.16-.2-.73H110.82l-.2.73-.86 3.16h-1.03l-1.18-3.23-.24-.66h-2.12zM122.08 252.6h1v-2.55a3 3 0 00-3-3h-15.56a3 3 0 00-3 3v2.55h20.56z" fill="#fff" stroke="#000" stroke-width="2"/><path d="M44.3 12.38h-.88l-.11.88-1.34 10.66-.14 1.13h12.98l-.2-1.17-1.77-10.66-.14-.84h-8.4z" fill="#5C5C5C" stroke="#000" stroke-width="2"/><path d="M41.19 5.27h-1v9.11H56.4V5.27h-3.12l-.24.66-1.18 3.23h-1.03L49.97 6l-.2-.73H46.82l-.2.73-.86 3.16h-1.03l-1.18-3.23-.24-.66h-2.12zM58.08 28.6h1v-2.55a3 3 0 00-3-3H40.52a3 3 0 00-3 3v2.55h20.56z" fill="#5C5C5C" stroke="#000" stroke-width="2"/><path d="M157.78 29.16l4.29 16.78 12.39-12.1-16.68-4.68zm83.58 83.45l-73.07-74.84-2.15 2.1 73.07 74.84 2.15-2.1z" fill="#FFC107"/><path fill="#198754" fill-opacity=".75" d="M160.3 160.16h32v32h-32z"/><path stroke="#FD7E14" stroke-width="2" stroke-dasharray="5 3" d="M176.6 176.44l51-50"/><mask id="l" maskUnits="userSpaceOnUse" x="230.19" y="98.49" width="20" height="25" fill="#000"><path fill="#fff" d="M230.19 98.49h20v25h-20z"/><path fill-rule="evenodd" clip-rule="evenodd" d="M240.88 103.62c.55-.25.93-.83.93-1.5 0-.9-.7-1.63-1.55-1.63a1.6 1.6 0 00-1.54 1.63c0 .69.4 1.27.96 1.52l-6.5 9.39s3.13 7.54 7.1 7.48c3.96-.05 7.27-7.68 7.27-7.68l-6.67-9.21z"/></mask><path fill-rule="evenodd" clip-rule="evenodd" d="M240.88 103.62c.55-.25.93-.83.93-1.5 0-.9-.7-1.63-1.55-1.63a1.6 1.6 0 00-1.54 1.63c0 .69.4 1.27.96 1.52l-6.5 9.39s3.13 7.54 7.1 7.48c3.96-.05 7.27-7.68 7.27-7.68l-6.67-9.21z" fill="#fff"/><path d="M240.88 103.62l-.84-1.81-2.2 1.01 1.42 1.97 1.62-1.17zm-1.2.02l1.65 1.14 1.39-2.02-2.25-.96-.79 1.84zm-6.5 9.39l-1.64-1.14-.62.9.42 1 1.85-.76zm7.1 7.48l.02 2-.03-2zm7.27-7.68l1.83.8.46-1.05-.67-.93-1.62 1.18zm-7.74-10.7c0-.1.05-.24.23-.32l1.68 3.63a3.64 3.64 0 002.09-3.32h-4zm.45.36a.5.5 0 01-.36-.15.32.32 0 01-.1-.22h4c0-1.9-1.48-3.63-3.54-3.63v4zm.46-.37c0 .07-.03.15-.1.22a.5.5 0 01-.36.15v-4a3.59 3.59 0 00-3.54 3.63h4zm-.25-.32c.19.08.25.23.25.32h-4c0 1.47.85 2.79 2.17 3.36l1.58-3.68zm-5.64 12.37l6.5-9.4-3.3-2.27-6.49 9.39 3.3 2.28zm5.41 4.34c-.33 0-.82-.15-1.48-.69-.64-.53-1.28-1.3-1.86-2.15a21.36 21.36 0 01-1.84-3.35l-.02-.05v-.01l-1.85.77-1.85.76v.01l.01.03a33.14 33.14 0 00.6 1.27c.38.76.94 1.78 1.64 2.82.7 1.02 1.58 2.12 2.63 3a6.33 6.33 0 004.08 1.6l-.06-4zm7.3-5.68l-1.83-.8v.01l-.02.05a14.25 14.25 0 01-.5 1c-.34.68-.84 1.55-1.44 2.42-.6.88-1.27 1.68-1.95 2.24-.69.58-1.2.76-1.56.76l.06 4a6.57 6.57 0 004.06-1.68c1.06-.89 1.97-2 2.68-3.04a27.18 27.18 0 002.3-4.06c0-.03.02-.05.03-.07v-.02l.01-.01-1.83-.8zm-8.28-8.04l6.67 9.21 3.24-2.35-6.67-9.2-3.24 2.34z" fill="#000" mask="url(#l)"/><path d="M250.08 124.6h1v-2.55a3 3 0 00-3-3h-15.56a3 3 0 00-3 3v2.55h20.56z" fill="#fff" stroke="#000" stroke-width="2"/><path d="M240.3 110.27l3.55-2.67 1.34 1.78-4.9 3.56v-2.67z" fill="#000"/></g><defs><clipPath id="clip0"><path fill="#fff" transform="translate(.3 .16)" d="M0 0h320v288H0z"/></clipPath></defs></svg>