<svg width="321" height="289" fill="none" xmlns="http://www.w3.org/2000/svg"><g clip-path="url(#clip0)"><path fill="#FEE6C1" d="M32.54.24h256v256h-256z"/><path d="M32.54 224.24h32v32h-32v-32zM32.54 96.24h32v32h-32v-32zM32.54 160.24h32v32h-32v-32zM32.54 32.24h32v32h-32v-32zM64.54 192.24h32v32h-32v-32zM64.54 64.24h32v32h-32v-32zM64.54 128.24h32v32h-32v-32zM64.54.24h32v32h-32v-32zM160.53 224.24h32v32h-32v-32zM160.53 96.24h32v32h-32v-32zM160.53 160.24h32v32h-32v-32zM160.53 32.24h32v32h-32v-32zM192.53 192.24h32v32h-32v-32zM192.53 64.24h32v32h-32v-32zM192.53 128.24h32v32h-32v-32zM192.53.24h32v32h-32v-32zM96.54 224.24h32v32h-32v-32zM96.54 96.24h32v32h-32v-32zM96.54 160.24h32v32h-32v-32zM96.54 32.24h32v32h-32v-32zM128.53 192.24h32v32h-32v-32z" fill="#866C4A"/><path d="M128.53 64.24h32v32h-32v-32zM128.53 128.24h32v32h-32v-32zM128.53.24h32v32h-32v-32zM224.53 224.24h32v32h-32v-32zM224.53 96.24h32v32h-32v-32zM224.53 160.24h32v32h-32v-32zM224.53 32.24h32v32h-32v-32zM256.54 192.24h32v32h-32v-32zM256.54 64.24h32v32h-32v-32zM256.54 128.24h32v32h-32v-32zM256.54.24h32v32h-32v-32z" fill="#866C4A"/><path d="M13.96 237.6v-2.54h4.43v11.68h-2.85v-9.14h-1.58zM12.59 212.54l.5-.4a58.94 58.94 0 002.46-2.12c.6-.56 1.12-1.14 1.53-1.75.42-.6.63-1.2.63-1.77 0-.44-.1-.78-.3-1.03-.2-.24-.51-.37-.92-.37-.4 0-.72.16-.96.47-.22.3-.33.72-.33 1.28h-2.64c.02-.9.21-1.67.57-2.27.38-.61.86-1.06 1.46-1.35.6-.29 1.28-.43 2.01-.43 1.27 0 2.23.33 2.87.98.65.65.97 1.5.97 2.54 0 1.14-.38 2.2-1.16 3.18-.78.97-1.77 1.92-2.98 2.85h4.32v2.23H12.6v-2.04zM12.5 174.35a3.52 3.52 0 011.13-2.64c.7-.62 1.66-.93 2.86-.93.8 0 1.48.14 2.05.42a2.96 2.96 0 011.74 2.75c0 .7-.17 1.28-.52 1.73-.36.44-.77.74-1.24.9v.06c.61.2 1.1.54 1.44 1 .36.48.53 1.08.53 1.82a3.07 3.07 0 01-1.8 2.94c-.57.29-1.25.43-2.05.43a4.7 4.7 0 01-3.08-.94c-.75-.63-1.15-1.58-1.2-2.85h2.66c.01.47.14.84.4 1.12.26.27.63.4 1.12.4.42 0 .74-.12.96-.35.23-.25.35-.57.35-.96 0-.51-.16-.88-.5-1.1-.31-.24-.83-.36-1.55-.36h-.5v-2.22h.5c.55 0 .98-.1 1.32-.27.34-.2.5-.53.5-1.01 0-.39-.1-.68-.31-.9a1.2 1.2 0 00-.88-.32c-.4 0-.71.13-.91.37-.2.25-.3.55-.34.91H12.5zM11.9 148.66v-2.21l5.06-7.23h3.06v7.07h1.3v2.37h-1.3v2.08h-2.74v-2.08h-5.37zm5.57-6.44l-2.68 4.07h2.68v-4.07zM20.28 108.44h-5v2.2c.22-.23.52-.42.9-.57.38-.15.8-.22 1.25-.22a3.19 3.19 0 013.15 1.95c.25.58.37 1.2.37 1.87 0 1.25-.35 2.24-1.06 2.98-.7.72-1.7 1.09-2.97 1.09a5.3 5.3 0 01-2.23-.44c-.63-.3-1.11-.7-1.45-1.23a3.54 3.54 0 01-.56-1.8h2.67c.06.33.22.6.46.83.25.21.58.32 1.01.32.5 0 .87-.16 1.12-.48.25-.32.37-.75.37-1.28s-.13-.93-.39-1.2c-.25-.28-.63-.42-1.12-.42-.36 0-.66.1-.9.27-.23.17-.38.4-.46.69H12.8v-6.96h7.48v2.4zM17.94 77.2a1.6 1.6 0 00-.45-.87c-.21-.2-.52-.3-.91-.3-.61 0-1.05.26-1.31.8-.27.52-.41 1.35-.42 2.49a2.4 2.4 0 011-.88c.46-.21.95-.32 1.48-.32a3.3 3.3 0 012.51 1c.64.65.96 1.58.96 2.76 0 .78-.16 1.46-.48 2.05a3.3 3.3 0 01-1.37 1.37c-.6.34-1.31.5-2.13.5-1.65 0-2.79-.51-3.43-1.54-.64-1.03-.96-2.51-.96-4.44 0-2.03.34-3.53 1.01-4.52.68-.99 1.77-1.48 3.27-1.48.8 0 1.47.16 2.01.48.56.3.97.72 1.25 1.23.29.51.46 1.07.51 1.68h-2.54zm-1.27 3.08c-.46 0-.84.14-1.15.42-.3.26-.45.65-.45 1.15 0 .51.14.91.42 1.2.29.29.7.43 1.22.43.46 0 .83-.14 1.1-.42.28-.28.42-.67.42-1.16 0-.5-.14-.9-.4-1.19-.27-.29-.66-.43-1.16-.43zM20.43 44.1l-4.02 9.64h-2.8l4.07-9.33H12.7v-2.34h7.73v2.03zM13.99 16.46c-1-.53-1.5-1.37-1.5-2.5a2.86 2.86 0 011.8-2.71c.61-.29 1.36-.43 2.24-.43.89 0 1.63.14 2.23.43a2.86 2.86 0 011.8 2.7 2.7 2.7 0 01-.41 1.5c-.27.43-.63.77-1.09 1.01a3.06 3.06 0 011.8 2.85 3.37 3.37 0 01-2.15 3.22c-.65.29-1.38.43-2.18.43-.8 0-1.53-.14-2.19-.43a3.37 3.37 0 01-2.13-3.22A3.04 3.04 0 0114 16.46zm3.92-2.1c0-.43-.13-.76-.39-1a1.34 1.34 0 00-.99-.37c-.41 0-.75.13-1 .37-.25.25-.37.59-.37 1.02 0 .42.12.75.38 1 .26.23.59.35 1 .35.4 0 .73-.12.98-.37.26-.24.39-.58.39-1zm-1.38 3.29c-.5 0-.9.14-1.21.41-.31.27-.47.64-.47 1.12 0 .45.15.82.45 1.1.3.3.72.44 1.23.44s.91-.14 1.2-.43c.3-.29.45-.66.45-1.1 0-.48-.16-.85-.46-1.13-.3-.27-.7-.41-1.19-.41zM273.63 269.21c1.02 0 1.84.34 2.46 1.03.62.67.93 1.6.93 2.78v5.22h-2.72v-4.85c0-.6-.16-1.06-.47-1.4-.3-.32-.72-.49-1.25-.49-.52 0-.93.17-1.24.5-.31.33-.47.8-.47 1.39v4.85h-2.73V266.4h2.73v4.1c.28-.39.66-.7 1.14-.94a3.64 3.64 0 011.62-.35zM239.49 269.18c.63 0 1.18.13 1.65.38.48.26.85.6 1.1 1.01v-1.26h2.74v8.91a4.9 4.9 0 01-.5 2.22c-.32.68-.81 1.21-1.49 1.6-.66.4-1.49.6-2.48.6-1.32 0-2.4-.32-3.21-.95a3.5 3.5 0 01-1.41-2.53h2.7c.09.35.3.61.61.8.32.2.72.3 1.19.3.56 0 1-.16 1.34-.49.34-.32.51-.83.51-1.55v-1.26a3.08 3.08 0 01-2.75 1.4 3.7 3.7 0 01-3.43-2.17 5.51 5.51 0 01-.5-2.43c0-.92.16-1.73.5-2.42.36-.7.83-1.23 1.43-1.6a3.7 3.7 0 012-.56zm2.75 4.6c0-.69-.2-1.23-.58-1.62-.37-.4-.83-.6-1.37-.6-.54 0-1 .2-1.4.6a2.2 2.2 0 00-.55 1.6c0 .68.18 1.22.56 1.63.38.4.84.59 1.39.59.54 0 1-.2 1.38-.6.38-.39.57-.93.57-1.6zM211.12 271.58h-1.47v6.66h-2.73v-6.66h-1v-2.27h1v-.26c0-1.1.31-1.93.94-2.5.63-.57 1.55-.86 2.77-.86.2 0 .35 0 .45.02v2.32c-.53-.03-.9.04-1.1.22-.22.18-.33.5-.33.98v.08h1.47v2.27zM181.01 273.63c0 .25-.01.52-.04.8h-6.2c.05.55.22.98.53 1.28.32.29.71.43 1.17.43.68 0 1.16-.29 1.42-.86h2.92a3.93 3.93 0 01-.82 1.58c-.39.47-.87.84-1.46 1.1a4.7 4.7 0 01-1.97.4c-.87 0-1.65-.18-2.33-.56a3.98 3.98 0 01-1.6-1.6c-.38-.69-.58-1.5-.58-2.43 0-.93.19-1.74.56-2.43a4 4 0 011.6-1.6 4.83 4.83 0 012.35-.56c.87 0 1.64.18 2.3.54.68.37 1.2.88 1.58 1.56.38.67.57 1.45.57 2.35zm-2.8-.72c0-.47-.16-.84-.48-1.12a1.77 1.77 0 00-1.2-.42c-.46 0-.84.14-1.16.4-.31.27-.5.65-.58 1.14h3.42zM139.55 273.76c0-.92.17-1.73.51-2.42.36-.7.83-1.23 1.43-1.6a3.7 3.7 0 013.6-.2c.49.25.87.58 1.15 1v-4.14h2.74v11.84h-2.74v-1.28c-.25.42-.62.76-1.1 1.02-.47.26-1.02.38-1.65.38a3.7 3.7 0 01-3.43-2.17 5.51 5.51 0 01-.5-2.43zm6.7.01c0-.68-.2-1.22-.59-1.61-.37-.4-.83-.6-1.37-.6-.54 0-1 .2-1.4.6a2.2 2.2 0 00-.55 1.6c0 .68.18 1.22.56 1.63.38.4.84.59 1.39.59.54 0 1-.2 1.38-.6.38-.39.57-.93.57-1.6zM108.14 273.77c0-.93.19-1.74.56-2.43.38-.7.91-1.23 1.58-1.6a4.8 4.8 0 012.34-.56c1.12 0 2.05.3 2.8.88a4.13 4.13 0 011.49 2.48H114c-.25-.68-.72-1.02-1.43-1.02-.5 0-.9.2-1.2.59-.3.38-.45.94-.45 1.66 0 .73.15 1.29.45 1.68.3.39.7.58 1.2.58.7 0 1.18-.34 1.43-1.03h2.9a4.18 4.18 0 01-1.48 2.47c-.76.6-1.7.9-2.8.9-.88 0-1.65-.2-2.34-.57a4 4 0 01-1.58-1.6c-.37-.69-.56-1.5-.56-2.43zM78.83 270.57c.26-.41.63-.75 1.1-1a3.45 3.45 0 011.66-.39 3.7 3.7 0 013.4 2.16c.36.7.53 1.5.53 2.42 0 .91-.17 1.72-.53 2.43a3.7 3.7 0 01-3.4 2.18 3.5 3.5 0 01-1.65-.37c-.47-.26-.84-.6-1.1-1.01v1.25H76.1V266.4h2.73v4.17zm3.9 3.19c0-.69-.18-1.22-.57-1.6-.37-.4-.84-.6-1.4-.6-.53 0-1 .2-1.38.6-.38.4-.56.93-.56 1.61 0 .69.18 1.22.56 1.62.38.4.85.59 1.39.59.54 0 1-.2 1.4-.6.38-.4.57-.94.57-1.62zM43.55 273.76c0-.92.17-1.73.52-2.42a3.7 3.7 0 013.42-2.16c.63 0 1.18.13 1.65.38.48.26.85.6 1.1 1.01v-1.26h2.74v8.93h-2.74v-1.27c-.27.42-.64.75-1.12 1.01-.47.26-1.02.38-1.65.38-.72 0-1.38-.18-1.98-.56a4.05 4.05 0 01-1.42-1.61 5.5 5.5 0 01-.52-2.43zm6.7.01c0-.68-.2-1.22-.58-1.61-.38-.4-.84-.6-1.38-.6-.54 0-1 .2-1.4.6a2.2 2.2 0 00-.55 1.6c0 .68.18 1.22.56 1.63.38.4.85.59 1.39.59.54 0 1-.2 1.38-.6.38-.39.57-.93.57-1.6z" fill="#000"/><path d="M172.53 44.46h-.88l-.1.87L170.2 56l-.14 1.13h12.98l-.2-1.17-1.77-10.67-.14-.83h-8.41z" fill="#fff" stroke="#000" stroke-width="2"/><path d="M169.42 37.35h-1v9.1h16.23v-9.1h-3.13l-.24.65-1.18 3.24h-1.03l-.86-3.16-.2-.73h-2.95l-.2.73-.87 3.16h-1.02L171.78 38l-.24-.65h-2.12zM186.31 60.68h1v-2.55a3 3 0 00-3-3h-15.55a3 3 0 00-3 3v2.55h20.55z" fill="#fff" stroke="#000" stroke-width="2"/><path fill="#E94E58" fill-opacity=".75" d="M224.53 32.24h32v32h-32z"/><mask id="a" maskUnits="userSpaceOnUse" x="227.37" y="224.79" width="26" height="26" fill="#000"><path fill="#fff" d="M227.37 224.79h26v26h-26z"/><path fill-rule="evenodd" clip-rule="evenodd" d="M247.65 248.13l2.92-7.99a2 2 0 00-1.02-2.5c-3.55-1.68-5.7-2.62-8.09-2.81v-3.6h2.79v-1.77h-2.79v-2.67h-1.85v2.67h-2.79v1.78h2.79v3.59c-2.38.2-4.54 1.13-8.1 2.82a2 2 0 00-1.01 2.5l2.92 7.97h14.23zm-8.9-10.72c-1.12.19-2.38.56-4.04 1.1a1.99 1.99 0 00-1.15 2.78l1.64 3.28h3.56v-7.16zm7.6 1.1c-1.65-.54-2.91-.91-4.04-1.1v7.16h3.56l1.64-3.28c.54-1.09 0-2.4-1.16-2.78z"/></mask><path fill-rule="evenodd" clip-rule="evenodd" d="M247.65 248.13l2.92-7.99a2 2 0 00-1.02-2.5c-3.55-1.68-5.7-2.62-8.09-2.81v-3.6h2.79v-1.77h-2.79v-2.67h-1.85v2.67h-2.79v1.78h2.79v3.59c-2.38.2-4.54 1.13-8.1 2.82a2 2 0 00-1.01 2.5l2.92 7.97h14.23zm-8.9-10.72c-1.12.19-2.38.56-4.04 1.1a1.99 1.99 0 00-1.15 2.78l1.64 3.28h3.56v-7.16zm7.6 1.1c-1.65-.54-2.91-.91-4.04-1.1v7.16h3.56l1.64-3.28c.54-1.09 0-2.4-1.16-2.78z" fill="#fff"/><path d="M239.69 235.83c.56-.05 1.12-.05 1.7 0l.15-2c-.67-.05-1.34-.05-2.01 0l.16 2zm10.88 4.31l1.88.69-1.88-.69zm-2.92 7.99v2h1.4l.47-1.32-1.87-.69zm1.9-10.48l.86-1.81-.86 1.8zm-8.09-2.82h-2v1.84l1.84.15.16-1.99zm0-3.6v-2h-2v2h2zm2.79 0v2h2v-2h-2zm0-1.77h2v-2h-2v2zm-2.79 0h-2v2h2v-2zm0-2.67h2v-2h-2v2zm-1.85 0v-2h-2v2h2zm0 2.67v2h2v-2h-2zm-2.79 0v-2h-2v2h2zm0 1.78h-2v2h2v-2zm2.79 0h2v-2h-2v2zm0 3.59l.16 2 1.84-.16v-1.84h-2zm-8.1 2.82l.86 1.8-.85-1.8zm-1.01 2.5l1.87-.7-1.87.7zm2.92 7.97l-1.87.7.48 1.3h1.4v-2zm1.3-9.61l-.63-1.9.62 1.9zm4.04-1.1h2v-2.38l-2.34.4.34 1.98zm-5.2 3.88l1.79-.9-1.79.9zm1.64 3.28l-1.79.9.56 1.1h1.23v-2zm3.56 0v2h2v-2h-2zm3.55-7.16l.34-1.97-2.34-.4v2.37h2zm4.04 1.1l-.62 1.9.63-1.9zm-4.04 6.06h-2v2h2v-2zm3.56 0v2h1.23l.56-1.1-1.8-.9zm1.64-3.28l1.79.9-1.8-.9zm1.19-1.84l-2.93 7.99 3.75 1.37 2.93-7.98-3.75-1.38zm0 0l3.75 1.38a4 4 0 00-2.04-5l-1.71 3.62zm-7.4-2.63c1.96.16 3.79.93 7.4 2.63l1.7-3.61c-3.5-1.66-5.97-2.77-8.78-3l-.32 3.98zm-1.84-5.58v3.59h4v-3.6h-4zm4.79-2h-2.79v4h2.79v-4zm-2 .22v1.78h4v-1.78h-4zm-.79 2h2.79v-4h-2.79v4zm-2-4.67v2.67h4v-2.67h-4zm.15 2h1.85v-4h-1.85v4zm2 .67v-2.67h-4v2.67h4zm-4.79 2h2.79v-4h-2.79v4zm2-.22v-1.78h-4v1.78h4zm.79-2h-2.79v4h2.79v-4zm2 5.59v-3.6h-4v3.6h4zm-9.24 4.62c3.61-1.7 5.44-2.47 7.4-2.63l-.33-3.98c-2.8.23-5.28 1.34-8.78 3l1.71 3.61zm0 0l-1.71-3.61a4 4 0 00-2.04 4.99l3.75-1.38zm2.93 7.99l-2.93-7.99-3.75 1.38 2.93 7.98 3.75-1.37zm12.35-1.31h-14.23v4h14.23v-4zm-12.31-5.72c1.64-.54 2.78-.87 3.75-1.03l-.67-3.94c-1.28.21-2.66.62-4.33 1.17l1.25 3.8zm.01-.01a.06.06 0 01-.01 0l-1.25-3.8a3.99 3.99 0 00-2.32 5.58l3.58-1.78zm1.64 3.28l-1.64-3.28-3.58 1.78 1.64 3.28 3.58-1.78zm1.77-1.11h-3.56v4h3.56v-4zm-2-5.16v7.16h4v-7.16h-4zm5.21 1.97c.97.16 2.12.5 3.76 1.03l1.25-3.8a31.28 31.28 0 00-4.33-1.18l-.68 3.95zm2.34 5.19v-7.16h-4v7.16h4zm1.56-2h-3.56v4h3.56v-4zm-.15-2.17l-1.64 3.28 3.58 1.78 1.64-3.28-3.58-1.78zm.01 0h-.01l3.58 1.78a3.99 3.99 0 00-2.32-5.57l-1.25 3.8z" fill="#000" mask="url(#a)"/><path d="M250.31 252.68h1v-2.56a3 3 0 00-3-3h-15.55a3 3 0 00-3 3v2.56h20.55z" fill="#fff" stroke="#000" stroke-width="2"/><mask id="b" maskUnits="userSpaceOnUse" x="134.42" y="34.57" width="20" height="25" fill="#000"><path fill="#fff" d="M134.42 34.57h20v25h-20z"/><path fill-rule="evenodd" clip-rule="evenodd" d="M145.12 39.7c.54-.25.92-.83.92-1.5 0-.9-.69-1.63-1.54-1.63-.86 0-1.55.73-1.55 1.63 0 .69.4 1.27.97 1.52l-6.5 9.39s3.12 7.54 7.09 7.48c3.97-.05 7.27-7.68 7.27-7.68l-6.66-9.21z"/></mask><path fill-rule="evenodd" clip-rule="evenodd" d="M145.12 39.7c.54-.25.92-.83.92-1.5 0-.9-.69-1.63-1.54-1.63-.86 0-1.55.73-1.55 1.63 0 .69.4 1.27.97 1.52l-6.5 9.39s3.12 7.54 7.09 7.48c3.97-.05 7.27-7.68 7.27-7.68l-6.66-9.21z" fill="#5C5C5C"/><path d="M145.12 39.7l-.84-1.82-2.2 1.02 1.42 1.97 1.62-1.17zm-1.2.02l1.64 1.13 1.4-2-2.25-.97-.8 1.84zm-6.5 9.39l-1.64-1.14-.62.9.42 1 1.84-.76zm7.09 7.48l.03 2-.03-2zm7.27-7.68l1.84.8.45-1.05-.67-.93-1.62 1.18zm-7.74-10.7c0-.1.06-.24.24-.33l1.68 3.63a3.64 3.64 0 002.08-3.3h-4zm.46.36a.5.5 0 01-.36-.15.33.33 0 01-.1-.22h4c0-1.9-1.48-3.63-3.54-3.63v4zm.45-.37c0 .07-.02.15-.1.22a.5.5 0 01-.35.15v-4a3.59 3.59 0 00-3.55 3.63h4zm-.24-.32c.19.08.24.23.24.32h-4c0 1.47.86 2.79 2.18 3.35l1.58-3.67zm-5.64 12.36l6.5-9.39-3.3-2.27-6.5 9.39 3.3 2.27zm5.41 4.35c-.33 0-.82-.15-1.48-.69a10.4 10.4 0 01-1.87-2.15 21.19 21.19 0 01-1.85-3.4v-.01l-1.86.77-1.84.76v.01l.01.03.03.07a14.01 14.01 0 00.57 1.2c.38.76.93 1.78 1.63 2.81.7 1.02 1.58 2.13 2.64 3a6.33 6.33 0 004.08 1.6l-.06-4zm7.3-5.68l-1.83-.8-.03.06a16.71 16.71 0 01-.49 1c-.35.68-.84 1.55-1.44 2.42a11.4 11.4 0 01-1.95 2.24c-.7.58-1.21.76-1.56.76l.06 4a6.57 6.57 0 004.06-1.69c1.06-.88 1.96-2 2.68-3.03a26.76 26.76 0 002.29-4.06l.03-.07.01-.03-1.83-.8zm-8.28-8.04l6.66 9.2 3.24-2.34-6.66-9.2-3.24 2.34z" fill="#000" mask="url(#b)"/><path d="M154.31 60.68h1v-2.55a3 3 0 00-3-3h-15.55a3 3 0 00-3 3v2.55h20.55z" fill="#5C5C5C" stroke="#000" stroke-width="2"/><path d="M144.54 46.35l3.55-2.67 1.33 1.78-4.88 3.55v-2.66z" fill="#000"/><mask id="c" maskUnits="userSpaceOnUse" x="102.42" y="98.57" width="20" height="25" fill="#000"><path fill="#fff" d="M102.42 98.57h20v25h-20z"/><path fill-rule="evenodd" clip-rule="evenodd" d="M113.12 103.7c.54-.25.92-.83.92-1.5 0-.9-.69-1.63-1.54-1.63-.86 0-1.55.73-1.55 1.63 0 .69.4 1.27.97 1.52l-6.5 9.39s3.12 7.54 7.09 7.48c3.96-.05 7.27-7.68 7.27-7.68l-6.66-9.21z"/></mask><path fill-rule="evenodd" clip-rule="evenodd" d="M113.12 103.7c.54-.25.92-.83.92-1.5 0-.9-.69-1.63-1.54-1.63-.86 0-1.55.73-1.55 1.63 0 .69.4 1.27.97 1.52l-6.5 9.39s3.12 7.54 7.09 7.48c3.96-.05 7.27-7.68 7.27-7.68l-6.66-9.21z" fill="#5C5C5C"/><path d="M113.12 103.7l-.84-1.82-2.2 1.02 1.42 1.97 1.62-1.17zm-1.2.02l1.64 1.13 1.4-2-2.25-.97-.8 1.84zm-6.5 9.39l-1.64-1.14-.62.9.42 1 1.84-.77zm7.09 7.48l.03 2-.03-2zm7.27-7.68l1.84.8.45-1.05-.67-.93-1.62 1.18zm-7.74-10.7c0-.1.06-.24.24-.33l1.67 3.63a3.64 3.64 0 002.1-3.3h-4zm.46.36a.5.5 0 01-.36-.15.33.33 0 01-.1-.22h4c0-1.9-1.48-3.63-3.54-3.63v4zm.45-.37c0 .07-.02.15-.1.22a.5.5 0 01-.35.15v-4a3.59 3.59 0 00-3.55 3.63h4zm-.25-.32c.2.08.25.23.25.32h-4c0 1.47.86 2.79 2.18 3.36l1.58-3.68zm-5.63 12.36l6.5-9.39-3.3-2.27-6.5 9.39 3.3 2.27zm5.41 4.35c-.34 0-.83-.15-1.48-.69a10.4 10.4 0 01-1.87-2.15 21.18 21.18 0 01-1.83-3.35l-.02-.05v-.01l-1.86.77-1.84.76v.01l.01.03a5.84 5.84 0 00.15.34 25.68 25.68 0 002.09 3.74c.69 1.02 1.57 2.13 2.63 3a6.33 6.33 0 004.08 1.6l-.06-4zm7.3-5.68l-1.83-.8-.03.06a14.25 14.25 0 01-.49 1c-.35.67-.84 1.55-1.44 2.42-.61.88-1.28 1.68-1.95 2.24-.7.58-1.21.76-1.56.76l.06 4a6.56 6.56 0 004.06-1.69c1.06-.88 1.96-2 2.68-3.04a26.73 26.73 0 002.32-4.12l.01-.03-1.83-.8zm-8.28-8.04l6.66 9.2 3.24-2.34-6.66-9.2-3.24 2.34z" fill="#000" mask="url(#c)"/><path d="M122.31 124.68h1v-2.56a3 3 0 00-3-3h-15.55a3 3 0 00-3 3v2.56h20.55z" fill="#5C5C5C" stroke="#000" stroke-width="2"/><path d="M112.54 110.35l3.55-2.67 1.33 1.78-4.88 3.55v-2.66z" fill="#000"/><path fill-rule="evenodd" clip-rule="evenodd" d="M147.4 166.64a3 3 0 01-1.1 2.33l1.79 7.16 3.88-3.66a3.03 3.03 0 01-.32-1.38 2.91 2.91 0 012.85-2.97 2.91 2.91 0 012.86 2.97 2.91 2.91 0 01-3.05 2.95l-2.66 10.09h-14.23l-2.66-10.09a2.92 2.92 0 01-2.67-2.95 2.91 2.91 0 012.86-2.97 2.91 2.91 0 012.85 2.97c0 .6-.17 1.15-.46 1.61l3.64 3.43 1.79-7.16a3 3 0 01-1.1-2.33 2.91 2.91 0 012.86-2.96 2.91 2.91 0 012.86 2.96z" fill="#fff"/><path d="M146.3 168.97l-.63-.77-.5.4.16.61.97-.24zm1.79 7.16l-.97.24.41 1.65 1.25-1.17-.69-.72zm3.88-3.66l.69.73.55-.52-.34-.66-.9.45zm2.34 1.57l.07-1-.82-.05-.21.8.96.25zm-2.66 10.09v1h.76l.2-.75-.97-.25zm-14.23 0l-.96.25.2.75h.76v-1zm-2.66-10.09l.96-.25-.18-.7-.72-.04-.06 1zm2.58-1.34l-.84-.53-.44.7.6.56.68-.73zm3.64 3.43l-.69.72 1.25 1.17.4-1.65-.96-.25zm1.79-7.16l.97.24.15-.61-.49-.4-.63.77zm4.16.78a4 4 0 001.46-3.1h-2a2 2 0 01-.72 1.55l1.26 1.55zm2.13 6.13l-1.79-7.15-1.94.48 1.79 7.16 1.94-.49zm2.23-4.14l-3.88 3.66 1.37 1.45 3.88-3.65-1.37-1.46zm-.64-.65c0 .66.15 1.28.43 1.83l1.78-.9a2.04 2.04 0 01-.22-.93h-2zm3.85-3.97a3.91 3.91 0 00-3.85 3.97h2c0-1.12.86-1.97 1.85-1.97v-2zm3.86 3.97c0-2.16-1.7-3.97-3.86-3.97v2c1 0 1.86.85 1.86 1.97h2zm-3.86 3.96c2.17 0 3.86-1.8 3.86-3.96h-2c0 1.12-.87 1.96-1.86 1.96v2zm-.25 0h.25v-2h-.12l-.13 2zm-1.64 9.33l2.67-10.08-1.93-.51-2.67 10.08 1.93.51zm-15.19.75h14.23v-2h-14.23v2zm-3.63-10.83l2.67 10.08 1.93-.51-2.67-10.08-1.93.51zm1.03-1.25a1.92 1.92 0 01-1.73-1.96h-2a3.92 3.92 0 003.6 3.95l.13-2zm-1.73-1.96c0-1.12.87-1.97 1.86-1.97v-2a3.91 3.91 0 00-3.86 3.97h2zm1.86-1.97c.99 0 1.85.85 1.85 1.97h2c0-2.16-1.69-3.97-3.85-3.97v2zm1.85 1.97c0 .4-.11.77-.3 1.08l1.69 1.07c.39-.63.61-1.36.61-2.15h-2zm4.86 4.3l-3.63-3.41-1.37 1.45 3.63 3.42 1.37-1.45zm.14-6.66l-1.8 7.15 1.95.49 1.79-7.16-1.94-.48zm-1.12-2.09a4 4 0 001.45 3.1l1.27-1.54a2 2 0 01-.72-1.56h-2zm3.85-3.96a3.91 3.91 0 00-3.85 3.96h2c0-1.11.86-1.96 1.85-1.96v-2zm3.86 3.96c0-2.15-1.7-3.96-3.86-3.96v2c1 0 1.86.84 1.86 1.96h2z" fill="#000"/><path d="M154.31 188.68h1v-2.56a3 3 0 00-3-3h-15.55a3 3 0 00-3 3v2.56h20.55z" fill="#fff" stroke="#000" stroke-width="2"/><path d="M52.32 56.24h.54l.3-.46-.84-.54.83.54h0l.01-.01.03-.04a18.48 18.48 0 00.44-.71c.28-.48.67-1.16 1.1-1.98A28.53 28.53 0 0057.12 47c.54-2.2.7-4.64-.4-6.58-1.16-2.02-3.5-3.15-7.14-3.15h-.03a.4.4 0 01-.13-.06c-.03-.02-.2-.12-.2-.63v-1h-1c-.5 0-.94.28-1.18.45-.29.2-.56.46-.78.7a11.7 11.7 0 00-.73.8l-2.59 1.91-.15.11-.1.17-2.73 4.4-.24.4.14.44 1 3.04.42 1.28 1.1-.77 2.32-1.62 1.69-1.14c.88.31 1.25.67 1.4.87l.07.1a10.35 10.35 0 01-.68 1.23c-.59.94-1.53 2.2-2.91 3.44a3.17 3.17 0 00-.67 3.96l.24.4.3.5h8.18z" fill="#5C5C5C" stroke="#000" stroke-width="2"/><path d="M58.31 60.68h1v-2.55a3 3 0 00-3-3H40.76a3 3 0 00-3 3v2.55H58.3z" fill="#5C5C5C" stroke="#000" stroke-width="2"/><path d="M44.1 41.01l.88-.44v.33a1 1 0 01-1 1h-.33l.44-.89z" fill="#000"/><mask id="d" maskUnits="userSpaceOnUse" x="198.42" y="162.57" width="20" height="25" fill="#000"><path fill="#fff" d="M198.42 162.57h20v25h-20z"/><path fill-rule="evenodd" clip-rule="evenodd" d="M209.12 167.7c.54-.25.92-.83.92-1.5 0-.9-.69-1.63-1.54-1.63-.86 0-1.55.73-1.55 1.63 0 .69.4 1.27.97 1.52l-6.5 9.38s3.12 7.55 7.09 7.5c3.97-.06 7.27-7.7 7.27-7.7l-6.66-9.2z"/></mask><path fill-rule="evenodd" clip-rule="evenodd" d="M209.12 167.7c.54-.25.92-.83.92-1.5 0-.9-.69-1.63-1.54-1.63-.86 0-1.55.73-1.55 1.63 0 .69.4 1.27.97 1.52l-6.5 9.38s3.12 7.55 7.09 7.5c3.97-.06 7.27-7.7 7.27-7.7l-6.66-9.2z" fill="#fff"/><path d="M209.12 167.7l-.84-1.82-2.2 1.02 1.42 1.97 1.62-1.17zm-1.2.02l1.64 1.13 1.4-2-2.25-.97-.8 1.84zm-6.5 9.38l-1.64-1.13-.62.9.42 1 1.84-.77zm7.09 7.5l.03 2-.03-2zm7.27-7.7l1.84.8.45-1.04-.67-.93-1.62 1.18zm-7.74-10.7c0-.09.06-.23.24-.32l1.68 3.63a3.64 3.64 0 002.08-3.3h-4zm.46.37a.5.5 0 01-.36-.15.33.33 0 01-.1-.22h4c0-1.9-1.48-3.63-3.54-3.63v4zm.45-.37c0 .07-.02.15-.1.22a.5.5 0 01-.35.15v-4a3.59 3.59 0 00-3.55 3.63h4zm-.24-.32c.19.08.24.23.24.32h-4c0 1.47.86 2.79 2.18 3.36l1.58-3.68zm-5.64 12.36l6.5-9.39-3.3-2.27-6.5 9.39 3.3 2.27zm5.41 4.35c-.33 0-.82-.15-1.48-.69a10.4 10.4 0 01-1.87-2.15 21.18 21.18 0 01-1.83-3.35l-.03-.05v-.01l-1.85.76-1.84.77v.01l.01.03a5.84 5.84 0 00.15.34 25.68 25.68 0 002.08 3.74c.7 1.02 1.58 2.13 2.64 3a6.33 6.33 0 004.08 1.6l-.06-4zm7.3-5.68l-1.83-.8-.03.06a14.25 14.25 0 01-.49 1c-.35.68-.84 1.55-1.44 2.42-.61.88-1.28 1.68-1.95 2.24-.7.58-1.21.76-1.56.76l.06 4a6.56 6.56 0 004.06-1.69c1.06-.88 1.96-2 2.68-3.03a26.73 26.73 0 002.32-4.13l.01-.03-1.83-.8zm-8.28-8.04l6.66 9.2 3.24-2.34-6.66-9.2-3.24 2.34z" fill="#000" mask="url(#d)"/><path d="M218.31 188.68h1v-2.56a3 3 0 00-3-3h-15.55a3 3 0 00-3 3v2.56h20.55z" fill="#fff" stroke="#000" stroke-width="2"/><path d="M208.54 174.35l3.55-2.67 1.33 1.78-4.88 3.55v-2.66z" fill="#000"/><mask id="e" maskUnits="userSpaceOnUse" x="42.2" y="201.68" width="12" height="18" fill="#000"><path fill="#fff" d="M42.2 201.68h12v18h-12z"/><path fill-rule="evenodd" clip-rule="evenodd" d="M49.7 210.6a3.56 3.56 0 10-2.32 0c.03 2.85-1.48 6.41-4.18 6.41h10.67c-2.7 0-4.18-3.58-4.17-6.41z"/></mask><path fill-rule="evenodd" clip-rule="evenodd" d="M49.7 210.6a3.56 3.56 0 10-2.32 0c.03 2.85-1.48 6.41-4.18 6.41h10.67c-2.7 0-4.18-3.58-4.17-6.41z" fill="#fff"/><path d="M49.7 210.6l-.65-1.9-1.34.47v1.42h2zm-2.32 0l2-.02-.01-1.41-1.34-.46-.65 1.89zm2.71-3.36c0 .67-.43 1.25-1.04 1.47l1.31 3.77a5.56 5.56 0 003.73-5.24h-4zm-1.56-1.56c.86 0 1.56.7 1.56 1.56h4a5.56 5.56 0 00-5.56-5.56v4zm-1.55 1.56c0-.86.7-1.56 1.55-1.56v-4a5.56 5.56 0 00-5.55 5.56h4zm1.05 1.47a1.56 1.56 0 01-1.05-1.47h-4c0 2.44 1.57 4.5 3.75 5.25l1.3-3.78zM43.2 219c2.36 0 3.95-1.57 4.85-3.15.9-1.58 1.35-3.54 1.33-5.28l-4 .04a6.83 6.83 0 01-.8 3.26c-.53.93-1.04 1.13-1.38 1.13v4zm10.67-4H43.2v4h10.67v-4zm-6.17-4.42c0 1.72.43 3.67 1.33 5.26.89 1.57 2.48 3.16 4.84 3.16v-4c-.33 0-.83-.2-1.36-1.13a6.96 6.96 0 01-.8-3.27l-4-.03z" fill="#000" mask="url(#e)"/><path d="M55.65 220.68h1v-1.67a3 3 0 00-3-3H43.42a3 3 0 00-3 3v1.67h15.23z" fill="#fff" stroke="#000" stroke-width="2"/><mask id="f" maskUnits="userSpaceOnUse" x="138.2" y="105.68" width="12" height="18" fill="#000"><path fill="#fff" d="M138.2 105.68h12v18h-12z"/><path fill-rule="evenodd" clip-rule="evenodd" d="M145.7 114.6a3.56 3.56 0 10-2.32 0c.03 2.85-1.48 6.41-4.18 6.41h10.67c-2.7 0-4.18-3.58-4.17-6.42z"/></mask><path fill-rule="evenodd" clip-rule="evenodd" d="M145.7 114.6a3.56 3.56 0 10-2.32 0c.03 2.85-1.48 6.41-4.18 6.41h10.67c-2.7 0-4.18-3.58-4.17-6.42z" fill="#fff"/><path d="M145.7 114.6l-.65-1.9-1.34.47v1.41l2 .02zm-2.32 0l2-.02-.01-1.41-1.34-.46-.65 1.89zm2.71-3.36c0 .67-.43 1.25-1.04 1.47l1.31 3.77a5.56 5.56 0 003.73-5.24h-4zm-1.56-1.56c.86 0 1.56.7 1.56 1.56h4a5.56 5.56 0 00-5.56-5.56v4zm-1.55 1.56c0-.86.7-1.56 1.55-1.56v-4a5.55 5.55 0 00-5.55 5.56h4zm1.05 1.47a1.56 1.56 0 01-1.05-1.47h-4c0 2.44 1.57 4.5 3.75 5.25l1.3-3.78zM139.2 123c2.36 0 3.96-1.57 4.85-3.15.9-1.58 1.35-3.54 1.33-5.28l-4 .04a6.83 6.83 0 01-.8 3.26c-.53.93-1.04 1.13-1.38 1.13v4zm10.67-4H139.2v4h10.67v-4zm-6.17-4.43c0 1.73.43 3.68 1.33 5.27.89 1.57 2.48 3.16 4.84 3.16v-4c-.33 0-.83-.2-1.36-1.13a6.96 6.96 0 01-.8-3.27l-4-.03z" fill="#000" mask="url(#f)"/><path d="M151.65 124.68h1v-1.67a3 3 0 00-3-3h-10.23a3 3 0 00-3 3v1.67h15.23z" fill="#fff" stroke="#000" stroke-width="2"/><mask id="g" maskUnits="userSpaceOnUse" x="74.2" y="41.68" width="12" height="18" fill="#000"><path fill="#fff" d="M74.2 41.68h12v18h-12z"/><path fill-rule="evenodd" clip-rule="evenodd" d="M81.7 50.6a3.56 3.56 0 10-2.32 0c.03 2.85-1.48 6.41-4.18 6.41h10.67c-2.7 0-4.18-3.58-4.17-6.41z"/></mask><path fill-rule="evenodd" clip-rule="evenodd" d="M81.7 50.6a3.56 3.56 0 10-2.32 0c.03 2.85-1.48 6.41-4.18 6.41h10.67c-2.7 0-4.18-3.58-4.17-6.41z" fill="#5C5C5C"/><path d="M81.7 50.6l-.65-1.9-1.34.47v1.41l2 .02zm-2.32 0l2-.02-.01-1.41-1.34-.46-.65 1.89zm2.71-3.36c0 .67-.43 1.25-1.04 1.47l1.31 3.77a5.56 5.56 0 003.73-5.24h-4zm-1.56-1.56c.86 0 1.56.7 1.56 1.56h4a5.56 5.56 0 00-5.56-5.56v4zm-1.55 1.56c0-.86.7-1.56 1.55-1.56v-4a5.56 5.56 0 00-5.55 5.56h4zm1.05 1.47a1.56 1.56 0 01-1.05-1.47h-4c0 2.44 1.57 4.5 3.75 5.25l1.3-3.78zM75.2 59c2.36 0 3.95-1.57 4.85-3.15.9-1.58 1.35-3.54 1.33-5.28l-4 .04a6.83 6.83 0 01-.8 3.26c-.53.93-1.04 1.13-1.38 1.13v4zm10.67-4H75.2v4h10.67v-4zm-6.17-4.43c0 1.73.43 3.68 1.33 5.27.89 1.57 2.48 3.16 4.84 3.16v-4c-.33 0-.83-.2-1.36-1.13a6.96 6.96 0 01-.8-3.27l-4-.03z" fill="#000" mask="url(#g)"/><path d="M87.65 60.68h1v-1.67a3 3 0 00-3-3H75.42a3 3 0 00-3 3v1.67h15.23z" fill="#5C5C5C" stroke="#000" stroke-width="2"/><mask id="h" maskUnits="userSpaceOnUse" x="106.2" y="41.68" width="12" height="18" fill="#000"><path fill="#fff" d="M106.2 41.68h12v18h-12z"/><path fill-rule="evenodd" clip-rule="evenodd" d="M113.7 50.6a3.56 3.56 0 10-2.32 0c.03 2.85-1.48 6.41-4.18 6.41h10.67c-2.7 0-4.18-3.58-4.17-6.41z"/></mask><path fill-rule="evenodd" clip-rule="evenodd" d="M113.7 50.6a3.56 3.56 0 10-2.32 0c.03 2.85-1.48 6.41-4.18 6.41h10.67c-2.7 0-4.18-3.58-4.17-6.41z" fill="#5C5C5C"/><path d="M113.7 50.6l-.65-1.9-1.34.47v1.41l2 .02zm-2.32 0l2-.02-.01-1.41-1.34-.46-.65 1.89zm2.71-3.36c0 .67-.43 1.25-1.04 1.47l1.31 3.77a5.56 5.56 0 003.73-5.24h-4zm-1.56-1.56c.86 0 1.56.7 1.56 1.56h4a5.56 5.56 0 00-5.56-5.56v4zm-1.55 1.56c0-.86.7-1.56 1.55-1.56v-4a5.56 5.56 0 00-5.55 5.56h4zm1.05 1.47a1.56 1.56 0 01-1.05-1.47h-4c0 2.44 1.57 4.5 3.75 5.25l1.3-3.78zM107.2 59c2.36 0 3.95-1.57 4.85-3.15.9-1.58 1.35-3.54 1.33-5.28l-4 .04a6.83 6.83 0 01-.8 3.26c-.53.93-1.04 1.13-1.38 1.13v4zm10.67-4H107.2v4h10.67v-4zm-6.17-4.43c0 1.73.43 3.68 1.33 5.27.89 1.57 2.48 3.16 4.84 3.16v-4c-.33 0-.83-.2-1.36-1.13a6.96 6.96 0 01-.8-3.27l-4-.03z" fill="#000" mask="url(#h)"/><path d="M119.65 60.68h1v-1.67a3 3 0 00-3-3h-10.23a3 3 0 00-3 3v1.67h15.23z" fill="#5C5C5C" stroke="#000" stroke-width="2"/><mask id="i" maskUnits="userSpaceOnUse" x="138.2" y="73.68" width="12" height="18" fill="#000"><path fill="#fff" d="M138.2 73.68h12v18h-12z"/><path fill-rule="evenodd" clip-rule="evenodd" d="M145.7 82.6a3.56 3.56 0 10-2.32 0c.03 2.85-1.48 6.41-4.18 6.41h10.67c-2.7 0-4.18-3.58-4.17-6.41z"/></mask><path fill-rule="evenodd" clip-rule="evenodd" d="M145.7 82.6a3.56 3.56 0 10-2.32 0c.03 2.85-1.48 6.41-4.18 6.41h10.67c-2.7 0-4.18-3.58-4.17-6.41z" fill="#5C5C5C"/><path d="M145.7 82.6l-.65-1.9-1.34.47v1.41l2 .02zm-2.32 0l2-.02-.01-1.41-1.34-.46-.65 1.89zm2.71-3.36c0 .67-.43 1.25-1.04 1.47l1.31 3.77a5.56 5.56 0 003.73-5.24h-4zm-1.56-1.56c.86 0 1.56.7 1.56 1.56h4a5.56 5.56 0 00-5.56-5.56v4zm-1.55 1.56c0-.86.7-1.56 1.55-1.56v-4a5.56 5.56 0 00-5.55 5.56h4zm1.05 1.47a1.56 1.56 0 01-1.05-1.47h-4c0 2.44 1.57 4.5 3.75 5.25l1.3-3.78zM139.2 91c2.36 0 3.96-1.57 4.85-3.15.9-1.58 1.35-3.54 1.33-5.28l-4 .04a6.83 6.83 0 01-.8 3.26c-.53.93-1.04 1.13-1.38 1.13v4zm10.67-4H139.2v4h10.67v-4zm-6.17-4.43c0 1.73.43 3.68 1.33 5.27.89 1.57 2.48 3.16 4.84 3.16v-4c-.33 0-.83-.2-1.36-1.13a6.96 6.96 0 01-.8-3.27l-4-.03z" fill="#000" mask="url(#i)"/><path d="M151.65 92.68h1v-1.67a3 3 0 00-3-3h-10.23a3 3 0 00-3 3v1.67h15.23z" fill="#5C5C5C" stroke="#000" stroke-width="2"/><mask id="j" maskUnits="userSpaceOnUse" x="42.2" y="73.68" width="12" height="18" fill="#000"><path fill="#fff" d="M42.2 73.68h12v18h-12z"/><path fill-rule="evenodd" clip-rule="evenodd" d="M49.7 82.6a3.56 3.56 0 10-2.32 0c.03 2.85-1.48 6.41-4.18 6.41h10.67c-2.7 0-4.18-3.58-4.17-6.41z"/></mask><path fill-rule="evenodd" clip-rule="evenodd" d="M49.7 82.6a3.56 3.56 0 10-2.32 0c.03 2.85-1.48 6.41-4.18 6.41h10.67c-2.7 0-4.18-3.58-4.17-6.41z" fill="#5C5C5C"/><path d="M49.7 82.6l-.65-1.9-1.34.47v1.41l2 .02zm-2.32 0l2-.02-.01-1.41-1.34-.46-.65 1.89zm2.71-3.36c0 .67-.43 1.25-1.04 1.47l1.31 3.77a5.56 5.56 0 003.73-5.24h-4zm-1.56-1.56c.86 0 1.56.7 1.56 1.56h4a5.56 5.56 0 00-5.56-5.56v4zm-1.55 1.56c0-.86.7-1.56 1.55-1.56v-4a5.56 5.56 0 00-5.55 5.56h4zm1.05 1.47a1.56 1.56 0 01-1.05-1.47h-4c0 2.44 1.57 4.5 3.75 5.25l1.3-3.78zM43.2 91c2.36 0 3.95-1.57 4.85-3.15.9-1.58 1.35-3.54 1.33-5.28l-4 .04a6.83 6.83 0 01-.8 3.26c-.53.93-1.04 1.13-1.38 1.13v4zm10.67-4H43.2v4h10.67v-4zm-6.17-4.43c0 1.73.43 3.68 1.33 5.27.89 1.57 2.48 3.16 4.84 3.16v-4c-.33 0-.83-.2-1.36-1.13a6.96 6.96 0 01-.8-3.27l-4-.03z" fill="#000" mask="url(#j)"/><path d="M55.65 92.68h1v-1.67a3 3 0 00-3-3H43.42a3 3 0 00-3 3v1.67h15.23z" fill="#5C5C5C" stroke="#000" stroke-width="2"/><mask id="k" maskUnits="userSpaceOnUse" x="202.2" y="105.68" width="12" height="18" fill="#000"><path fill="#fff" d="M202.2 105.68h12v18h-12z"/><path fill-rule="evenodd" clip-rule="evenodd" d="M209.7 114.6a3.56 3.56 0 10-2.32 0c.03 2.85-1.48 6.41-4.18 6.41h10.67c-2.7 0-4.18-3.58-4.17-6.42z"/></mask><path fill-rule="evenodd" clip-rule="evenodd" d="M209.7 114.6a3.56 3.56 0 10-2.32 0c.03 2.85-1.48 6.41-4.18 6.41h10.67c-2.7 0-4.18-3.58-4.17-6.42z" fill="#5C5C5C"/><path d="M209.7 114.6l-.65-1.9-1.34.47v1.41l2 .02zm-2.32 0l2-.02-.01-1.41-1.34-.46-.65 1.89zm2.71-3.36c0 .67-.43 1.25-1.04 1.47l1.31 3.77a5.56 5.56 0 003.73-5.24h-4zm-1.56-1.56c.86 0 1.56.7 1.56 1.56h4a5.56 5.56 0 00-5.56-5.56v4zm-1.55 1.56c0-.86.7-1.56 1.55-1.56v-4a5.55 5.55 0 00-5.55 5.56h4zm1.05 1.47a1.56 1.56 0 01-1.05-1.47h-4c0 2.44 1.57 4.5 3.75 5.25l1.3-3.78zM203.2 123c2.36 0 3.96-1.57 4.85-3.15.9-1.58 1.35-3.54 1.33-5.28l-4 .04a6.83 6.83 0 01-.8 3.26c-.53.93-1.04 1.13-1.38 1.13v4zm10.67-4H203.2v4h10.67v-4zm-6.17-4.43c0 1.73.43 3.68 1.33 5.27.89 1.57 2.48 3.16 4.84 3.16v-4c-.33 0-.83-.2-1.36-1.13a6.96 6.96 0 01-.8-3.27l-4-.03z" fill="#000" mask="url(#k)"/><path d="M215.65 124.68h1v-1.67a3 3 0 00-3-3h-10.23a3 3 0 00-3 3v1.67h15.23z" fill="#5C5C5C" stroke="#000" stroke-width="2"/><mask id="l" maskUnits="userSpaceOnUse" x="266.2" y="41.68" width="12" height="18" fill="#000"><path fill="#fff" d="M266.2 41.68h12v18h-12z"/><path fill-rule="evenodd" clip-rule="evenodd" d="M273.7 50.6a3.56 3.56 0 10-2.32 0c.03 2.85-1.48 6.41-4.18 6.41h10.67c-2.7 0-4.18-3.58-4.17-6.41z"/></mask><path fill-rule="evenodd" clip-rule="evenodd" d="M273.7 50.6a3.56 3.56 0 10-2.32 0c.03 2.85-1.48 6.41-4.18 6.41h10.67c-2.7 0-4.18-3.58-4.17-6.41z" fill="#5C5C5C"/><path d="M273.7 50.6l-.65-1.9-1.34.47v1.41l2 .02zm-2.32 0l2-.02-.01-1.41-1.34-.46-.65 1.89zm2.71-3.36c0 .67-.43 1.25-1.04 1.47l1.31 3.77a5.56 5.56 0 003.73-5.24h-4zm-1.56-1.56c.86 0 1.56.7 1.56 1.56h4a5.56 5.56 0 00-5.56-5.56v4zm-1.55 1.56c0-.86.7-1.56 1.55-1.56v-4a5.56 5.56 0 00-5.55 5.56h4zm1.05 1.47a1.56 1.56 0 01-1.05-1.47h-4c0 2.44 1.57 4.5 3.75 5.25l1.3-3.78zM267.2 59c2.36 0 3.95-1.57 4.85-3.15.9-1.58 1.35-3.54 1.33-5.28l-4 .04a6.83 6.83 0 01-.8 3.26c-.53.93-1.04 1.13-1.38 1.13v4zm10.67-4H267.2v4h10.67v-4zm-6.17-4.43c0 1.73.43 3.68 1.33 5.27.89 1.57 2.48 3.16 4.84 3.16v-4c-.33 0-.83-.2-1.36-1.13a6.96 6.96 0 01-.8-3.27l-4-.03z" fill="#000" mask="url(#l)"/><path d="M279.65 60.68h1v-1.67a3 3 0 00-3-3h-10.23a3 3 0 00-3 3v1.67h15.23z" fill="#5C5C5C" stroke="#000" stroke-width="2"/><mask id="m" maskUnits="userSpaceOnUse" x="202.2" y="41.68" width="12" height="18" fill="#000"><path fill="#fff" d="M202.2 41.68h12v18h-12z"/><path fill-rule="evenodd" clip-rule="evenodd" d="M209.7 50.6a3.56 3.56 0 10-2.32 0c.03 2.85-1.48 6.41-4.18 6.41h10.67c-2.7 0-4.18-3.58-4.17-6.41z"/></mask><path fill-rule="evenodd" clip-rule="evenodd" d="M209.7 50.6a3.56 3.56 0 10-2.32 0c.03 2.85-1.48 6.41-4.18 6.41h10.67c-2.7 0-4.18-3.58-4.17-6.41z" fill="#5C5C5C"/><path d="M209.7 50.6l-.65-1.9-1.34.47v1.41l2 .02zm-2.32 0l2-.02-.01-1.41-1.34-.46-.65 1.89zm2.71-3.36c0 .67-.43 1.25-1.04 1.47l1.31 3.77a5.56 5.56 0 003.73-5.24h-4zm-1.56-1.56c.86 0 1.56.7 1.56 1.56h4a5.56 5.56 0 00-5.56-5.56v4zm-1.55 1.56c0-.86.7-1.56 1.55-1.56v-4a5.56 5.56 0 00-5.55 5.56h4zm1.05 1.47a1.56 1.56 0 01-1.05-1.47h-4c0 2.44 1.57 4.5 3.75 5.25l1.3-3.78zM203.2 59c2.36 0 3.96-1.57 4.85-3.15.9-1.58 1.35-3.54 1.33-5.28l-4 .04a6.83 6.83 0 01-.8 3.26c-.53.93-1.04 1.13-1.38 1.13v4zm10.67-4H203.2v4h10.67v-4zm-6.17-4.43c0 1.73.43 3.68 1.33 5.27.89 1.57 2.48 3.16 4.84 3.16v-4c-.33 0-.83-.2-1.36-1.13a6.96 6.96 0 01-.8-3.27l-4-.03z" fill="#000" mask="url(#m)"/><path d="M215.65 60.68h1v-1.67a3 3 0 00-3-3h-10.23a3 3 0 00-3 3v1.67h15.23z" fill="#5C5C5C" stroke="#000" stroke-width="2"/><mask id="n" maskUnits="userSpaceOnUse" x="202.2" y="201.68" width="12" height="18" fill="#000"><path fill="#fff" d="M202.2 201.68h12v18h-12z"/><path fill-rule="evenodd" clip-rule="evenodd" d="M209.7 210.6a3.56 3.56 0 10-2.32 0c.03 2.85-1.48 6.41-4.18 6.41h10.67c-2.7 0-4.18-3.58-4.17-6.41z"/></mask><path fill-rule="evenodd" clip-rule="evenodd" d="M209.7 210.6a3.56 3.56 0 10-2.32 0c.03 2.85-1.48 6.41-4.18 6.41h10.67c-2.7 0-4.18-3.58-4.17-6.41z" fill="#fff"/><path d="M209.7 210.6l-.65-1.9-1.34.47v1.42h2zm-2.32 0l2-.02-.01-1.41-1.34-.46-.65 1.89zm2.71-3.36c0 .67-.43 1.25-1.04 1.47l1.31 3.77a5.56 5.56 0 003.73-5.24h-4zm-1.56-1.56c.86 0 1.56.7 1.56 1.56h4a5.56 5.56 0 00-5.56-5.56v4zm-1.55 1.56c0-.86.7-1.56 1.55-1.56v-4a5.55 5.55 0 00-5.55 5.56h4zm1.05 1.47a1.56 1.56 0 01-1.05-1.47h-4c0 2.44 1.57 4.5 3.75 5.25l1.3-3.78zM203.2 219c2.36 0 3.96-1.57 4.85-3.15.9-1.58 1.35-3.54 1.33-5.28l-4 .04a6.83 6.83 0 01-.8 3.26c-.53.93-1.04 1.13-1.38 1.13v4zm10.67-4H203.2v4h10.67v-4zm-6.17-4.42c0 1.72.43 3.67 1.33 5.26.89 1.57 2.48 3.16 4.84 3.16v-4c-.33 0-.83-.2-1.36-1.13a6.96 6.96 0 01-.8-3.27l-4-.03z" fill="#000" mask="url(#n)"/><path d="M215.65 220.68h1v-1.67a3 3 0 00-3-3h-10.23a3 3 0 00-3 3v1.67h15.23z" fill="#fff" stroke="#000" stroke-width="2"/><mask id="o" maskUnits="userSpaceOnUse" x="234.2" y="169.68" width="12" height="18" fill="#000"><path fill="#fff" d="M234.2 169.68h12v18h-12z"/><path fill-rule="evenodd" clip-rule="evenodd" d="M241.7 178.6a3.56 3.56 0 10-2.32 0c.03 2.85-1.48 6.41-4.18 6.41h10.67c-2.7 0-4.18-3.58-4.17-6.41z"/></mask><path fill-rule="evenodd" clip-rule="evenodd" d="M241.7 178.6a3.56 3.56 0 10-2.32 0c.03 2.85-1.48 6.41-4.18 6.41h10.67c-2.7 0-4.18-3.58-4.17-6.41z" fill="#fff"/><path d="M241.7 178.6l-.65-1.9-1.34.47v1.42h2zm-2.32 0l2-.02-.01-1.41-1.34-.46-.65 1.89zm2.71-3.36c0 .67-.43 1.25-1.04 1.47l1.31 3.77a5.56 5.56 0 003.73-5.24h-4zm-1.56-1.56c.86 0 1.56.7 1.56 1.56h4a5.56 5.56 0 00-5.56-5.56v4zm-1.55 1.56c0-.86.7-1.56 1.55-1.56v-4a5.55 5.55 0 00-5.55 5.56h4zm1.05 1.47a1.56 1.56 0 01-1.05-1.47h-4c0 2.44 1.57 4.5 3.75 5.25l1.3-3.78zM235.2 187c2.36 0 3.96-1.57 4.85-3.15.9-1.58 1.35-3.54 1.33-5.28l-4 .04a6.83 6.83 0 01-.8 3.26c-.53.93-1.04 1.13-1.38 1.13v4zm10.67-4H235.2v4h10.67v-4zm-6.17-4.42c0 1.72.43 3.67 1.33 5.26.89 1.57 2.48 3.16 4.84 3.16v-4c-.33 0-.83-.2-1.36-1.13a6.96 6.96 0 01-.8-3.27l-4-.03z" fill="#000" mask="url(#o)"/><path d="M247.65 188.68h1v-1.67a3 3 0 00-3-3h-10.23a3 3 0 00-3 3v1.67h15.23z" fill="#fff" stroke="#000" stroke-width="2"/><mask id="p" maskUnits="userSpaceOnUse" x="266.2" y="201.68" width="12" height="18" fill="#000"><path fill="#fff" d="M266.2 201.68h12v18h-12z"/><path fill-rule="evenodd" clip-rule="evenodd" d="M273.7 210.6a3.56 3.56 0 10-2.32 0c.03 2.85-1.48 6.41-4.18 6.41h10.67c-2.7 0-4.18-3.58-4.17-6.41z"/></mask><path fill-rule="evenodd" clip-rule="evenodd" d="M273.7 210.6a3.56 3.56 0 10-2.32 0c.03 2.85-1.48 6.41-4.18 6.41h10.67c-2.7 0-4.18-3.58-4.17-6.41z" fill="#fff"/><path d="M273.7 210.6l-.65-1.9-1.34.47v1.42h2zm-2.32 0l2-.02-.01-1.41-1.34-.46-.65 1.89zm2.71-3.36c0 .67-.43 1.25-1.04 1.47l1.31 3.77a5.56 5.56 0 003.73-5.24h-4zm-1.56-1.56c.86 0 1.56.7 1.56 1.56h4a5.56 5.56 0 00-5.56-5.56v4zm-1.55 1.56c0-.86.7-1.56 1.55-1.56v-4a5.55 5.55 0 00-5.55 5.56h4zm1.05 1.47a1.56 1.56 0 01-1.05-1.47h-4c0 2.44 1.57 4.5 3.75 5.25l1.3-3.78zM267.2 219c2.36 0 3.95-1.57 4.85-3.15.9-1.58 1.35-3.54 1.33-5.28l-4 .04a6.83 6.83 0 01-.8 3.26c-.53.93-1.04 1.13-1.38 1.13v4zm10.67-4H267.2v4h10.67v-4zm-6.17-4.42c0 1.72.43 3.67 1.33 5.26.89 1.57 2.48 3.16 4.84 3.16v-4c-.33 0-.83-.2-1.36-1.13a6.96 6.96 0 01-.8-3.27l-4-.03z" fill="#000" mask="url(#p)"/><path d="M279.65 220.68h1v-1.67a3 3 0 00-3-3h-10.23a3 3 0 00-3 3v1.67h15.23zM268.54 140.46h-.89l-.1.88L266.2 152l-.14 1.13h12.98l-.2-1.17-1.77-10.67-.14-.83h-8.4z" fill="#fff" stroke="#000" stroke-width="2"/><path d="M265.42 133.35h-1v9.1h16.23v-9.1h-3.13l-.23.65-1.19 3.24h-1.03l-.86-3.16-.2-.73h-2.95l-.2.73-.87 3.16h-1.02l-1.19-3.24-.23-.65h-2.13zM282.31 156.68h1v-2.56a3 3 0 00-3-3h-15.55a3 3 0 00-3 3v2.56h20.55z" fill="#fff" stroke="#000" stroke-width="2"/><path d="M140.53 12.46h-.88l-.1.87L138.2 24l-.14 1.13h12.98l-.2-1.17-1.77-10.67-.14-.83h-8.41z" fill="#5C5C5C" stroke="#000" stroke-width="2"/><path d="M137.42 5.35h-1v9.1h16.23v-9.1h-3.13l-.24.65-1.18 3.24h-1.03l-.86-3.16-.2-.73h-2.95l-.2.73-.87 3.16h-1.02L139.78 6l-.24-.65h-2.12zM154.31 28.68h1v-2.55a3 3 0 00-3-3h-15.55a3 3 0 00-3 3v2.55h20.55z" fill="#5C5C5C" stroke="#000" stroke-width="2"/><mask id="q" maskUnits="userSpaceOnUse" x="227.37" y=".79" width="26" height="26" fill="#000"><path fill="#fff" d="M227.37.79h26v26h-26z"/><path fill-rule="evenodd" clip-rule="evenodd" d="M247.65 24.13l2.92-7.99a2 2 0 00-1.02-2.5c-3.55-1.68-5.7-2.62-8.09-2.81v-3.6h2.79V5.47h-2.79V2.79h-1.85v2.67h-2.79v1.78h2.79v3.59c-2.38.2-4.54 1.13-8.1 2.82a2 2 0 00-1.01 2.5l2.92 7.98h14.23zm-8.9-10.72c-1.12.19-2.38.56-4.04 1.1a1.99 1.99 0 00-1.15 2.78l1.64 3.28h3.56v-7.16zm7.6 1.1c-1.65-.54-2.91-.91-4.04-1.1v7.16h3.56l1.64-3.28c.54-1.09 0-2.4-1.16-2.78z"/></mask><path fill-rule="evenodd" clip-rule="evenodd" d="M247.65 24.13l2.92-7.99a2 2 0 00-1.02-2.5c-3.55-1.68-5.7-2.62-8.09-2.81v-3.6h2.79V5.47h-2.79V2.79h-1.85v2.67h-2.79v1.78h2.79v3.59c-2.38.2-4.54 1.13-8.1 2.82a2 2 0 00-1.01 2.5l2.92 7.98h14.23zm-8.9-10.72c-1.12.19-2.38.56-4.04 1.1a1.99 1.99 0 00-1.15 2.78l1.64 3.28h3.56v-7.16zm7.6 1.1c-1.65-.54-2.91-.91-4.04-1.1v7.16h3.56l1.64-3.28c.54-1.09 0-2.4-1.16-2.78z" fill="#5C5C5C"/><path d="M239.69 11.83c.56-.05 1.12-.05 1.7 0l.15-2c-.67-.05-1.34-.05-2.01 0l.16 2zm10.88 4.31l1.88.69-1.88-.69zm-2.92 7.99v2h1.4l.47-1.32-1.87-.68zm1.9-10.48l.86-1.81-.86 1.8zm-8.09-2.82h-2v1.84l1.84.15.16-1.99zm0-3.6v-2h-2v2h2zm2.79 0v2h2v-2h-2zm0-1.77h2v-2h-2v2zm-2.79 0h-2v2h2v-2zm0-2.67h2v-2h-2v2zm-1.85 0v-2h-2v2h2zm0 2.67v2h2v-2h-2zm-2.79 0v-2h-2v2h2zm0 1.78h-2v2h2v-2zm2.79 0h2v-2h-2v2zm0 3.59l.16 2 1.84-.16v-1.84h-2zm-8.1 2.82l.86 1.8-.85-1.8zm-1.01 2.5l1.87-.7-1.87.7zm2.92 7.98l-1.87.68.48 1.32h1.4v-2zm1.3-9.62l-.63-1.9.62 1.9zm4.04-1.1h2v-2.38l-2.34.4.34 1.98zm-5.2 3.88l1.79-.9-1.79.9zm1.64 3.28l-1.79.9.56 1.1h1.23v-2zm3.56 0v2h2v-2h-2zm3.55-7.16l.34-1.97-2.34-.4v2.37h2zm4.04 1.1l.63-1.9-.63 1.9zm-4.04 6.06h-2v2h2v-2zm3.56 0v2h1.23l.56-1.1-1.8-.9zm1.64-3.28l1.79.9-1.8-.9zm1.19-1.84l-2.93 7.99 3.75 1.37 2.93-7.98-3.75-1.38zm0 0l3.75 1.38a4 4 0 00-2.04-5l-1.71 3.62zm-7.4-2.63c1.96.16 3.79.92 7.4 2.63l1.7-3.61c-3.5-1.66-5.97-2.77-8.78-3l-.32 3.98zm-1.84-5.58v3.59h4v-3.6h-4zm4.79-2h-2.79v4h2.79v-4zm-2 .22v1.78h4V5.46h-4zm-.79 2h2.79v-4h-2.79v4zm-2-4.67v2.67h4V2.79h-4zm.15 2h1.85v-4h-1.85v4zm2 .67V2.79h-4v2.67h4zm-4.79 2h2.79v-4h-2.79v4zm2-.22V5.46h-4v1.78h4zm.79-2h-2.79v4h2.79v-4zm2 5.59v-3.6h-4v3.6h4zm-9.24 4.62c3.61-1.7 5.44-2.47 7.4-2.63l-.33-3.98c-2.8.23-5.28 1.34-8.78 3l1.71 3.61zm0 0l-1.71-3.61a4 4 0 00-2.04 4.99l3.75-1.38zm2.93 7.99l-2.93-7.99-3.75 1.38 2.93 7.98 3.75-1.37zm12.35-1.31h-14.23v4h14.23v-4zm-12.31-5.72a27.6 27.6 0 013.75-1.03l-.67-3.94c-1.28.21-2.66.62-4.33 1.17l1.25 3.8zm.01-.02c0 .01 0 0 0 0v.01h-.01l-1.25-3.8a3.99 3.99 0 00-2.32 5.58l3.58-1.79zm1.64 3.29l-1.64-3.29-3.58 1.8 1.64 3.27 3.58-1.78zm1.77-1.11h-3.56v4h3.56v-4zm-2-5.16v7.16h4v-7.16h-4zm5.21 1.97c.97.16 2.12.5 3.76 1.03l1.25-3.8a31.28 31.28 0 00-4.33-1.17l-.68 3.94zm2.34 5.19v-7.16h-4v7.16h4zm1.56-2h-3.56v4h3.56v-4zm-.15-2.18l-1.64 3.29 3.58 1.78 1.64-3.28-3.58-1.79zm.01.02l-.01-.01 3.58 1.78a3.99 3.99 0 00-2.32-5.57l-1.25 3.8z" fill="#000" mask="url(#q)"/><path d="M250.31 28.68h1v-2.55a3 3 0 00-3-3h-15.55a3 3 0 00-3 3v2.55h20.55z" fill="#5C5C5C" stroke="#000" stroke-width="2"/><path fill-rule="evenodd" clip-rule="evenodd" d="M243.4 38.64a3 3 0 01-1.1 2.33l1.79 7.16 3.88-3.66a3.04 3.04 0 01-.32-1.38 2.91 2.91 0 012.85-2.96 2.91 2.91 0 012.86 2.96 2.91 2.91 0 01-3.05 2.95l-2.66 10.09h-14.23l-2.66-10.09a2.92 2.92 0 01-2.67-2.95 2.91 2.91 0 012.86-2.96 2.91 2.91 0 012.85 2.96c0 .6-.17 1.15-.46 1.61l3.64 3.43 1.79-7.16a3 3 0 01-1.1-2.33 2.91 2.91 0 012.86-2.96 2.91 2.91 0 012.86 2.96z" fill="#5C5C5C"/><path d="M242.3 40.97l-.63-.77-.5.4.16.61.97-.24zm1.79 7.16l-.97.24.41 1.65 1.25-1.17-.69-.72zm3.88-3.66l.69.73.55-.52-.34-.66-.9.45zm2.34 1.57l.07-1-.82-.05-.21.8.96.25zm-2.66 10.09v1h.76l.2-.75-.97-.25zm-14.23 0l-.96.25.2.75h.76v-1zm-2.66-10.09l.96-.25-.18-.7-.72-.04-.06 1zm2.58-1.34l-.84-.53-.44.7.6.56.68-.73zm3.64 3.43l-.69.72 1.25 1.17.4-1.65-.96-.24zm1.79-7.16l.97.24.15-.61-.49-.4-.63.77zm4.16.78a4 4 0 001.46-3.1h-2a2 2 0 01-.72 1.55l1.26 1.55zm2.13 6.13l-1.79-7.15-1.94.48 1.79 7.16 1.94-.49zm2.23-4.14l-3.88 3.66 1.37 1.45 3.88-3.65-1.37-1.46zm-.64-.65c0 .66.15 1.28.43 1.83l1.78-.9a2.05 2.05 0 01-.22-.93h-2zm3.85-3.96a3.91 3.91 0 00-3.85 3.96h2c0-1.12.86-1.96 1.85-1.96v-2zm3.86 3.96c0-2.16-1.7-3.96-3.86-3.96v2c1 0 1.86.84 1.86 1.96h2zm-3.86 3.96c2.17 0 3.86-1.8 3.86-3.96h-2c0 1.12-.87 1.96-1.86 1.96v2zm-.25 0h.25v-2h-.12l-.13 2zm-1.64 9.33l2.67-10.08-1.93-.51-2.67 10.08 1.93.51zm-15.19.75h14.23v-2h-14.23v2zM229.8 46.3l2.67 10.08 1.93-.51-2.67-10.08-1.93.51zm1.03-1.25a1.92 1.92 0 01-1.73-1.96h-2a3.92 3.92 0 003.6 3.95l.13-2zm-1.73-1.96c0-1.12.87-1.96 1.86-1.96v-2a3.91 3.91 0 00-3.86 3.96h2zm1.86-1.96c.99 0 1.85.84 1.85 1.96h2c0-2.16-1.69-3.96-3.85-3.96v2zm1.85 1.96c0 .4-.11.77-.3 1.08l1.69 1.06c.39-.62.61-1.35.61-2.14h-2zm4.86 4.3l-3.63-3.42-1.37 1.46 3.63 3.42 1.37-1.45zm.14-6.66l-1.8 7.15 1.95.49 1.79-7.16-1.94-.48zm-1.12-2.09a4 4 0 001.45 3.1l1.27-1.54a2 2 0 01-.72-1.56h-2zm3.85-3.96a3.91 3.91 0 00-3.85 3.96h2c0-1.12.86-1.96 1.85-1.96v-2zm3.86 3.96c0-2.15-1.7-3.96-3.86-3.96v2c1 0 1.86.84 1.86 1.96h2z" fill="#000"/><path d="M250.31 60.68h1v-2.55a3 3 0 00-3-3h-15.55a3 3 0 00-3 3v2.55h20.55z" fill="#5C5C5C" stroke="#000" stroke-width="2"/></g><defs><clipPath id="clip0"><path fill="#fff" transform="translate(.54 .24)" d="M0 0h320v288H0z"/></clipPath></defs></svg>